<svg xmlns="http://www.w3.org/2000/svg" viewBox="0 0 356 60"><defs><style>.a{fill:#1d9bf0;}.b{fill:#fff;}.c{isolation:isolate;}</style></defs><path class="a" d="M30,0H326a30,30,0,0,1,30,30h0a30,30,0,0,1-30,30H30A30,30,0,0,1,0,30H0A30,30,0,0,1,30,0Z"/><circle class="a" cx="30" cy="30" r="20"/><path class="b" d="M26.34,40.55A13.63,13.63,0,0,0,40.06,27v-.19c0-.21,0-.41,0-.62a10,10,0,0,0,2.4-2.5,9.82,9.82,0,0,1-2.77.76A4.81,4.81,0,0,0,41.8,21.8,9.65,9.65,0,0,1,38.74,23a4.83,4.83,0,0,0-8.22,4.4,13.63,13.63,0,0,1-9.93-5,4.82,4.82,0,0,0,1.49,6.44,4.79,4.79,0,0,1-2.19-.6v.06A4.84,4.84,0,0,0,23.76,33a4.82,4.82,0,0,1-2.17.08,4.82,4.82,0,0,0,4.5,3.35,9.76,9.76,0,0,1-7.14,2,13.63,13.63,0,0,0,7.39,2.17"/><g class="c"><g class="c"><path class="b" d="M79.07,33.53H77.7V32h1.55l.27-2.2H78.06V28.28h1.65l.4-3.08h1.36l-.36,3.08h2l.4-3.08h1.36l-.35,3.08H86v1.53H84.34L84.07,32h1.52v1.52h-1.7L83.47,37h-1.4l.41-3.47h-2L80.05,37H78.66ZM82.66,32l.27-2.2h-2L80.64,32Z"/><path class="b" d="M89.89,30.84a10.66,10.66,0,0,0-2.58-1.6l1-1.4A9.7,9.7,0,0,1,91,29.3Zm-2.26,6.34A51,51,0,0,0,89.91,32l1.52,1c-.61,1.71-1.36,3.57-2.09,5.14Zm3-10.57a9.94,9.94,0,0,0-2.57-1.68l1.09-1.41a11.86,11.86,0,0,1,2.62,1.56Zm7.06,6.2c0,.28-.06.57-.11.84h3.19v1.49H98.18A5.57,5.57,0,0,0,102,36.79a7,7,0,0,0-1.09,1.6A5.92,5.92,0,0,1,96.76,36c-.72,1.09-2,1.87-4.23,2.38a4.69,4.69,0,0,0-1-1.49c1.94-.38,3-.94,3.55-1.76H92.85V33.69c-.16.12-.32.24-.5.35A8.77,8.77,0,0,0,91,32.63a7.49,7.49,0,0,0,2.39-2.06H91.46V29h2.81c.12-.24.21-.48.31-.74H92.32V26.88H95c.06-.22.11-.44.16-.67H92.05V24.72h3.41c.05-.41.1-.85.14-1.29l1.84.14c0,.4-.09.78-.16,1.15h4.5v1.49H97l-.15.67h4.6v1.41H99c.08.26.19.5.29.74h2.88v1.54h-2a6.19,6.19,0,0,0,2.29,1.9A6.32,6.32,0,0,0,101.3,34a6.85,6.85,0,0,1-2.09-1.77v.61Zm-2,.84c0-.27.09-.54.13-.84H94.35v-.53a10,10,0,0,1-1.45,1.37Zm-.18-3.08-.48.8h3.59a9.05,9.05,0,0,1-.45-.8Zm1-2.28c-.08.26-.17.5-.25.74h1.31c-.1-.24-.16-.48-.24-.74Z"/><path class="b" d="M115,28.23c-.08.17-.19.51-.29.81a4.1,4.1,0,0,1,3.06,3.89c0,2.23-1.33,4.42-5.22,5l-1-1.67c3-.33,4.3-1.87,4.3-3.42a2.37,2.37,0,0,0-1.63-2.23,12.31,12.31,0,0,1-3.35,4.8c.12.42.24.81.37,1.19l-1.82.54c-.07-.19-.15-.41-.21-.64a5.52,5.52,0,0,1-2.45.64,2.06,2.06,0,0,1-2.15-2.32c0-2,1.69-4.16,3.89-5.2,0-.67.1-1.34.16-2h-.51c-.83,0-2.06-.07-2.8-.1l-.06-1.84a25.92,25.92,0,0,0,2.93.21h.6l.1-.85a6.05,6.05,0,0,0,.05-.94l2.08,0a6.94,6.94,0,0,0-.23.85c-.06.26-.11.55-.15.85a26.47,26.47,0,0,0,5.37-.67L116,27a46.35,46.35,0,0,1-5.63.58c0,.46-.1.94-.12,1.42a11.13,11.13,0,0,1,2.37-.29h.27a8.93,8.93,0,0,0,.15-.94Zm-6.24,6.47a21.51,21.51,0,0,1-.34-3.17,4.14,4.14,0,0,0-2,2.91c0,.5.22.77.73.77A3.44,3.44,0,0,0,108.74,34.7Zm1.44-4a17.3,17.3,0,0,0,.18,2.62,9.24,9.24,0,0,0,2-3,8,8,0,0,0-2.18.35Z"/><path class="b" d="M129.45,25.51c-.5.37-1,.78-1.4,1.07-1,.83-3.12,2.45-4.17,3.36-.85.72-.84.9,0,1.63,1.18,1,4.24,3.43,5.81,5l-1.84,1.7c-.45-.5-.95-1-1.4-1.48-.86-.91-3.28-3-4.73-4.21s-1.44-2.2.14-3.52c1.23-1,3.41-2.77,4.48-3.82a11.67,11.67,0,0,0,1.22-1.33Z"/><path class="b" d="M143.3,28.23c-.08.17-.19.51-.29.81a4.1,4.1,0,0,1,3.06,3.89c0,2.23-1.33,4.42-5.22,5l-1-1.67c3-.33,4.3-1.87,4.3-3.42a2.37,2.37,0,0,0-1.63-2.23,12.31,12.31,0,0,1-3.35,4.8c.12.42.24.81.37,1.19l-1.82.54c-.07-.19-.15-.41-.21-.64a5.52,5.52,0,0,1-2.45.64,2.06,2.06,0,0,1-2.15-2.32c0-2,1.68-4.16,3.89-5.2.05-.67.1-1.34.16-2h-.51c-.83,0-2.06-.07-2.8-.1l-.06-1.84a25.92,25.92,0,0,0,2.93.21h.6l.1-.85a7.6,7.6,0,0,0,.05-.94l2.08,0a5.36,5.36,0,0,0-.22.85,6.76,6.76,0,0,0-.16.85,26.47,26.47,0,0,0,5.37-.67l0,1.82a46.32,46.32,0,0,1-5.64.58c0,.46-.09.94-.11,1.42a11.13,11.13,0,0,1,2.37-.29h.27a8.93,8.93,0,0,0,.15-.94Zm-6.24,6.47a21.51,21.51,0,0,1-.34-3.17,4.14,4.14,0,0,0-2,2.91c0,.5.22.77.73.77A3.44,3.44,0,0,0,137.06,34.7Zm1.44-4a18.79,18.79,0,0,0,.17,2.62,9.1,9.1,0,0,0,2-3,8,8,0,0,0-2.18.35Z"/><path class="b" d="M150.51,25c.8,1.12,2.18,3.57,2.77,4.69l-2.11,1.2a35.93,35.93,0,0,0-2.71-4.84Zm5.81,6.69a12.33,12.33,0,0,0,1.89-4.84,8.64,8.64,0,0,0,.21-1.93l2.59.37c-.19.6-.36,1.39-.48,1.85a16.66,16.66,0,0,1-2.22,5.62,13.52,13.52,0,0,1-5.56,4.91l-1.9-1.64A12.14,12.14,0,0,0,156.32,31.72Z"/><path class="b" d="M176.41,35.05c0,.62,0,2.16,0,2.22h-2.21l0-.88h-7.72l0,.88h-2.21c0-.08,0-1.47,0-2.24V27.2c0-.44,0-1.1,0-1.55l1.7,0h8.8c.4,0,1,0,1.59,0,0,.48,0,1.07,0,1.55Zm-9.88-7.33v6.64h7.73V27.72Z"/><path class="b" d="M192.37,29.37a4.79,4.79,0,0,0-.3.67,11.52,11.52,0,0,1-2.37,4.43A12,12,0,0,1,184,37.93l-1.6-1.81a10.83,10.83,0,0,0,5.55-2.8,7,7,0,0,0,1.65-2.77h-7.73c-.39,0-1.19,0-1.86.08V28.55c.67.06,1.36.09,1.86.09h7.92a3.29,3.29,0,0,0,1.17-.16Zm-10.9-4.65a12.46,12.46,0,0,0,1.67.08h6.16a13.85,13.85,0,0,0,1.73-.08v2.07c-.43,0-1.18-.05-1.76-.05h-6.13c-.51,0-1.2,0-1.67.05Z"/><path class="b" d="M203.27,35.61a11.17,11.17,0,0,0,.14,2.09h-2.53a16.36,16.36,0,0,0,.12-2.09V30.36a31.27,31.27,0,0,1-5.51,2.17l-1.15-2a24.45,24.45,0,0,0,7.28-2.9,16.81,16.81,0,0,0,4.18-3.61l1.71,1.55a26.06,26.06,0,0,1-4.24,3.44Z"/><path class="b" d="M220.79,25.88l1,.65a6.83,6.83,0,0,0-.35,1.11A16.11,16.11,0,0,1,219,33.46a12.62,12.62,0,0,1-6.43,4.42L210.87,36a10.54,10.54,0,0,0,6.27-3.77A10.24,10.24,0,0,0,219,27.7h-7.46c-.74,0-1.49,0-1.9.06V25.51a18.7,18.7,0,0,0,1.9.13H219a5.31,5.31,0,0,0,.75,0c-.27-.52-.59-1.09-.89-1.55l1.31-.54a20.46,20.46,0,0,1,1.23,2.11Zm1.6-2.77c.4.57,1,1.55,1.28,2.11l-1.33.58a19,19,0,0,0-1.28-2.15Z"/></g><g class="c"><path class="b" d="M239.67,26.39c1-.1,4-.39,6.94-.64,1.73-.15,3.22-.23,4.28-.27v1.28a13.17,13.17,0,0,0-3.11.25,5.54,5.54,0,0,0-3.62,5c0,3.09,2.88,4.07,5.46,4.16l-.46,1.35c-2.93-.13-6.28-1.7-6.28-5.24a6.39,6.39,0,0,1,3-5.34c-1.39.16-5.72.57-7.43.93l-.14-1.41C238.87,26.45,239.36,26.42,239.67,26.39ZM250,30.92l-.82.38A15.16,15.16,0,0,0,247.83,29l.81-.35A19,19,0,0,1,250,30.92Zm1.82-.69-.83.38a13.88,13.88,0,0,0-1.36-2.22l.8-.37A25.08,25.08,0,0,1,251.78,30.23Z"/><path class="b" d="M256.85,30.33l-1.26.44a39.73,39.73,0,0,0-1.8-4.38l1.27-.47C255.47,26.82,256.48,29.27,256.85,30.33ZM266.63,26a8.67,8.67,0,0,0-.29.91,16.68,16.68,0,0,1-2.66,6,14,14,0,0,1-6.27,4.63l-1.1-1.12a13,13,0,0,0,6.29-4.26,14.53,14.53,0,0,0,2.56-6.58Zm-5.52,3.18-1.25.44a41.77,41.77,0,0,0-1.57-4.23l1.23-.42C259.88,25.73,260.84,28.28,261.11,29.17Z"/><path class="b" d="M280.82,25.46a24.88,24.88,0,0,1-4.29,3.47v6.85a11.25,11.25,0,0,0,.1,1.72h-1.57a14.46,14.46,0,0,0,.1-1.72V29.73a31.77,31.77,0,0,1-6,2.5L268.4,31A25.46,25.46,0,0,0,275.56,28a17.75,17.75,0,0,0,4.21-3.54Z"/><path class="b" d="M283.57,30.07c.48,0,1.33.08,2.22.08h8.78c.8,0,1.37,0,1.72-.08v1.57c-.32,0-1-.08-1.71-.08h-8.79c-.88,0-1.72,0-2.22.08Z"/><path class="b" d="M308.76,32.89a41.88,41.88,0,0,0-6.29-2.58v5.28c0,.51,0,1.36.1,1.89H301a16.11,16.11,0,0,0,.1-1.89V26.28a9.77,9.77,0,0,0-.13-1.67h1.57c-.05.5-.11,1.19-.11,1.67v2.6a52.88,52.88,0,0,1,6.83,2.65Z"/></g></g></svg>