<svg xmlns="http://www.w3.org/2000/svg" viewBox="0 0 84.98 1028.26"><defs><style>.a{fill:#9ed8f5;}</style></defs><path class="a" d="M75.8,37.6a3,3,0,0,1-.72-.09,2.8,2.8,0,0,1-.7-5.13,2.82,2.82,0,0,1,3.84,1,2.83,2.83,0,0,1,.29,2.13A2.8,2.8,0,0,1,75.8,37.6Zm0-4.86a2,2,0,0,0-1,.29,2,2,0,0,0-.74,2.8,2,2,0,0,0,1.25,1,2.05,2.05,0,0,0,2.3-3h0a2.06,2.06,0,0,0-1.25-.95A2.41,2.41,0,0,0,75.79,32.74Z"/><path class="a" d="M72.63,47.75a4.22,4.22,0,0,1-1.06-.13,4.2,4.2,0,1,1,1.06.13Zm0-7.56a3.41,3.41,0,1,0,3.29,4.27,3.33,3.33,0,0,0-.35-2.58h0a3.42,3.42,0,0,0-2.08-1.58A3.56,3.56,0,0,0,72.62,40.19Z"/><path class="a" d="M47.38,1028.26a39.37,39.37,0,0,1-24.79-8.74h0a41.78,41.78,0,0,1-6.77-7.19,82,82,0,0,1-7-12.54,7.89,7.89,0,0,1-.41-1.09,95.7,95.7,0,0,1-4.4-15.13c-.27-1.29-.55-2.56-.83-3.82a94.11,94.11,0,0,1-1.86-10l-.11-.85c-.39-3-.75-5.82-1.23-18.37v-338c0-.47,0-.93,0-1.4s0-.91,0-1.36,0-.63,0-.94,0-.61,0-.91V558.06c0-.35,0-1,0-1.81,0-8.1,1.13-35,15.62-42.11C1.19,507.08.06,480.09.06,472c0-.84,0-1.47,0-1.82V420.34c0-.3,0-.6,0-.9s0-.63,0-.95,0-.9,0-1.36,0-.92,0-1.39v-338C.71,67.7,1.13,64.4,1.51,61.48c.11-.85.22-1.67.33-2.61.58-5.14,1.31-9.78,2.22-14.17l.11-.55A87.82,87.82,0,0,1,7.93,29.88a10.09,10.09,0,0,0,.42-1c.07-.21.15-.4.22-.56a64.84,64.84,0,0,1,7-12.12l.2-.28a41.7,41.7,0,0,1,6.77-7.18A39.3,39.3,0,0,1,55.75.94C69.34,4.07,80.67,15,83.94,28A35.63,35.63,0,0,1,76.37,59.8c-5.1,5.79-12,9.41-18.84,9.92-7.8.59-15.41-3-19.38-9-4.31-6.6-3.56-15.92,1.7-21.21A15.08,15.08,0,0,1,51,35.26a13.59,13.59,0,0,1,9.88,4.53,10.21,10.21,0,0,1,2.58,7.92,7.39,7.39,0,0,1-6.2,6.34,6.16,6.16,0,0,1-5-1.87,5.38,5.38,0,0,1-1.6-4.5,2,2,0,0,1,1.15-1.55,4.83,4.83,0,0,1,3.61-1.8h0a4,4,0,0,1,3.11,1.51,3.82,3.82,0,0,1,.79,1.63,1.91,1.91,0,0,0,.06-.33,6.25,6.25,0,0,0-1.65-4.72,9.57,9.57,0,0,0-7-3.12,10.9,10.9,0,0,0-8.11,3c-4,4-4.49,11.09-1.18,16.15,3.12,4.79,9.41,7.69,15.69,7.22,5.83-.44,11.69-3.56,16.1-8.57A31.56,31.56,0,0,0,80,29C77.1,17.37,67,7.68,54.85,4.88a34.72,34.72,0,0,0-18.46,1c1.17-.12,2.42-.2,3.8-.26,9-.36,17.41,4.37,20.43,11.51,1.39,3.26,1.44,7.81-1.71,10.1-2.93,2.15-7,1-9.3-1.15-2.11-2-3.18-4.51-4.21-7l-.14-.33c-.93-2.21-2-4.48-3.75-5.79-2.95-2.19-7.48-1.42-10.62-.64a33.91,33.91,0,0,0-10.64,4.55A45.86,45.86,0,0,0,14.88,25c-.52,1.4-1.18,3-2.19,5.18a1.54,1.54,0,0,0-.09.24,2.71,2.71,0,0,1-.27.64A85,85,0,0,0,8,45.52a181.17,181.17,0,0,0-3.41,30.9,1,1,0,0,1,0,.17v23.86c2.37-6.64,5.8-11.87,10.23-15.6a13.27,13.27,0,0,1,6.75-3.35c3.36-.4,6.59,1.47,7.51,4.36,1.41,4.49-2.89,8.13-4.3,9.33L20.24,99a6,6,0,0,1,1.34,1.12,4.8,4.8,0,0,1,1.2,4.42,5.94,5.94,0,0,1-5,4.12,14.69,14.69,0,0,1-3,.12,14.87,14.87,0,0,0-1.49,0,8.15,8.15,0,0,0-6.41,3.84c-.81,1.36-1.21,6-1.44,9.38-.08,1.78-.12,3.46-.12,5.11a2.25,2.25,0,0,1-.26,1c0,.2,0,.39,0,.59s0,.5,0,.75q0,.78-.06,1.56c-.06,1.43-.11,2.9-.32,4.38V420.86c.08,1.22.15,2.44.23,3.66.19,3.18.39,6.46.69,9.93l.14,1c.36,4.34,2.52,9.94,4.87,11a3.49,3.49,0,0,0,1.73.26,2.89,2.89,0,0,1-1.66-2.61,2.51,2.51,0,0,1,0-.31,2.22,2.22,0,0,1-.7-.77,4.21,4.21,0,0,1,.34-4.4,4.93,4.93,0,0,1,4.54-2.18A6.23,6.23,0,0,1,20,441.87a8.3,8.3,0,0,1-3.08,7.68,8.29,8.29,0,0,1-8.24,1,9.73,9.73,0,0,1-4.07-3.75v23.09c-.07,3.5-.26,33.72,13.12,40.16,5.45,2.63,12.46,1.23,15.61-3.11a9.25,9.25,0,0,0,1-8.36,7.2,7.2,0,0,0-4.62-4.83c-2.18-.63-5.13,0-6.29,2.09a3.57,3.57,0,0,0-.06,3.13,2.73,2.73,0,0,0,1.81,1.67,2.28,2.28,0,0,1,1.66,2.75A2.27,2.27,0,0,1,24,505.08a7.23,7.23,0,0,1-4.89-4.26,8.08,8.08,0,0,1,.25-7.15c2.06-3.72,7-5.55,11.51-4.26a11.66,11.66,0,0,1,7.66,7.72A13.86,13.86,0,0,1,37,509.64a14.59,14.59,0,0,1-5.48,4.49A14.78,14.78,0,0,1,37,518.62a13.86,13.86,0,0,1,1.6,12.51,11.64,11.64,0,0,1-7.66,7.72c-4.5,1.3-9.45-.54-11.51-4.26a8.11,8.11,0,0,1-.25-7.15A7.26,7.26,0,0,1,24,523.18a2.28,2.28,0,0,1,2.74,1.67,2.21,2.21,0,0,1-.26,1.7,2.27,2.27,0,0,1-1.4,1,2.78,2.78,0,0,0-1.81,1.67,3.6,3.6,0,0,0,.05,3.13c1.17,2.11,4.12,2.72,6.29,2.1a7.22,7.22,0,0,0,4.62-4.83,9.31,9.31,0,0,0-1-8.37c-3.15-4.33-10.14-5.73-15.58-3.11-13.4,6.45-13.19,36.61-13.12,40v23.22a9.7,9.7,0,0,1,4.07-3.74A8.16,8.16,0,0,1,20,586.39a6.27,6.27,0,0,1-5.19,5.48,5,5,0,0,1-4.55-2.19,4.19,4.19,0,0,1-.34-4.39,2.06,2.06,0,0,1,.7-.77,1.42,1.42,0,0,1,0-.31,2.91,2.91,0,0,1,1.66-2.62,3.53,3.53,0,0,0-1.74.26c-2.36,1-4.53,6.61-4.89,10.94l-.12,1c-.29,3.46-.49,6.74-.68,9.91-.08,1.22-.15,2.44-.23,3.67V892.89a42,42,0,0,1,.32,4.32c0,.53,0,1,.06,1.57,0,.23,0,.47.07.71l.06.63a2.26,2.26,0,0,1,.25,1c0,1.75,0,3.47.11,5.12.23,3.37.63,8,1.44,9.37a8.12,8.12,0,0,0,6.4,3.85c.49,0,1,0,1.48,0a15.2,15.2,0,0,1,3,.11,5.93,5.93,0,0,1,5,4.11,4.8,4.8,0,0,1-1.19,4.44,6.09,6.09,0,0,1-1.34,1.12l4.52,3.83c1.42,1.21,5.71,4.86,4.29,9.33-.92,2.88-4.15,4.77-7.53,4.36a13.34,13.34,0,0,1-6.72-3.36c-4.43-3.72-7.87-9-10.23-15.6v23.81a.79.79,0,0,1,0,.23A180.93,180.93,0,0,0,8,982.75a91.22,91.22,0,0,0,4.33,14.84l.26.59c.26.58.53,1.13.78,1.67.56,1.17,1.08,2.29,1.51,3.43a45.94,45.94,0,0,0,5.36,8.13A34.12,34.12,0,0,0,30.89,1016c3.14.77,7.66,1.55,10.62-.64,1.76-1.31,2.82-3.58,3.75-5.8l.14-.34c1-2.46,2.11-5,4.21-7,2.32-2.15,6.37-3.29,9.3-1.15,3.15,2.31,3.09,6.86,1.71,10.11-3,7.13-11.39,11.85-20.43,11.5-1.38-.06-2.64-.14-3.82-.25a34.8,34.8,0,0,0,18.48,1C67,1020.59,77.1,1010.9,80,999.28a31.58,31.58,0,0,0-6.69-28.14c-4.41-5-10.28-8.13-16.1-8.56-6.25-.47-12.56,2.43-15.69,7.21-3.3,5.07-2.78,12.17,1.18,16.16a10.91,10.91,0,0,0,8.12,3,9.56,9.56,0,0,0,6.94-3.11,6.21,6.21,0,0,0,1.65-4.73,2,2,0,0,0-.06-.32,3.87,3.87,0,0,1-.79,1.63,4,4,0,0,1-3.15,1.5,4.75,4.75,0,0,1-3.6-1.79,2,2,0,0,1-1.16-1.55,5.45,5.45,0,0,1,1.6-4.5,6.12,6.12,0,0,1,5-1.87,7.38,7.38,0,0,1,6.2,6.33,10.26,10.26,0,0,1-2.58,7.92A13.56,13.56,0,0,1,51,993a15.14,15.14,0,0,1-11.14-4.21c-5.26-5.29-6-14.62-1.7-21.22,4-6.08,11.57-9.62,19.38-9,6.87.51,13.74,4.13,18.84,9.93a35.63,35.63,0,0,1,7.57,31.79c-3.27,13.06-14.6,23.94-28.19,27.06A36.79,36.79,0,0,1,47.38,1028.26ZM47.38.75A38.6,38.6,0,0,0,23.07,9.33a40.54,40.54,0,0,0-6.64,7l-.21.28a64.81,64.81,0,0,0-7,12c-.06.15-.13.32-.2.51s-.27.71-.44,1A88.38,88.38,0,0,0,4.91,44.3l-.11.55c-.91,4.37-1.63,9-2.22,14.1-.11.95-.21,1.77-.32,2.63-.38,2.9-.81,6.2-1.48,16.21v338c0,.47,0,.94,0,1.4s0,.91,0,1.35,0,.62,0,.92,0,.62,0,.93v49.8c0,.36,0,1,0,1.84,0,8,1.11,34.7,15.27,41.52.13.06.26.1.4.15l.39.14.82.35-.83.34-.35.13-.41.16C1.91,521.6.81,548.24.81,556.25c0,.85,0,1.47,0,1.82v49.85c0,.31,0,.62,0,.93s0,.61,0,.92,0,.9,0,1.35,0,.94,0,1.41v338C1.26,963,1.62,965.82,2,968.79l.11.86A96.34,96.34,0,0,0,4,979.59c.28,1.26.57,2.53.84,3.82a92.82,92.82,0,0,0,4.37,15,8.44,8.44,0,0,0,.38,1,82.18,82.18,0,0,0,6.88,12.42,40.8,40.8,0,0,0,6.64,7h0a38.54,38.54,0,0,0,32.52,7.65c13.31-3.06,24.42-13.72,27.62-26.51A34.85,34.85,0,0,0,75.81,969c-5-5.65-11.66-9.17-18.34-9.67-7.55-.56-14.87,2.85-18.69,8.7-4.12,6.32-3.42,15.23,1.6,20.28a14.3,14.3,0,0,0,10.58,4A12.85,12.85,0,0,0,60.29,988a9.51,9.51,0,0,0,2.41-7.33,6.62,6.62,0,0,0-5.54-5.7,5.43,5.43,0,0,0-4.36,1.65,4.74,4.74,0,0,0-1.39,3.88,1.25,1.25,0,0,0,.79,1l.09,0,.07.08a4,4,0,0,0,3.08,1.58A3.22,3.22,0,0,0,58,982a3.27,3.27,0,0,0,.68-2.59l-.21-1.51.89,1.24a4.38,4.38,0,0,1,.82,1.93,7,7,0,0,1-1.83,5.31,10.26,10.26,0,0,1-7.48,3.38,11.77,11.77,0,0,1-8.69-3.23c-4.19-4.23-4.75-11.74-1.27-17.1,3.27-5,9.84-8,16.37-7.55,6,.45,12.08,3.66,16.61,8.81a32.32,32.32,0,0,1,6.85,28.82c-3,11.89-13.32,21.8-25.73,24.65A35.84,35.84,0,0,1,33.06,1022l-2.9-1.24,3.11.52a53.58,53.58,0,0,0,6.95.67c8.7.37,16.81-4.19,19.71-11,1.27-3,1.35-7.15-1.46-9.21-2.61-1.91-6.25-.86-8.35,1.09s-3,4.32-4,6.71l-.15.35c-1,2.3-2.08,4.68-4,6.1-3.22,2.38-8,1.58-11.25.76A34.57,34.57,0,0,1,19.78,1012l-.07-.07a46.35,46.35,0,0,1-5.49-8.35c-.44-1.15-1-2.25-1.51-3.41-.25-.54-.52-1.1-.78-1.68l-.27-.61a92.24,92.24,0,0,1-4.37-15,182.33,182.33,0,0,1-3.45-31.07l0-.21V923l.73,2.39c2.32,7.56,5.93,13.44,10.73,17.47A12.69,12.69,0,0,0,21.61,946a6.16,6.16,0,0,0,6.72-3.84c1.27-4-2.73-7.4-4-8.52l-5.37-4.55.5-.26A5.66,5.66,0,0,0,21,927.63a4.07,4.07,0,0,0,1-3.75,5.19,5.19,0,0,0-4.4-3.56,14.78,14.78,0,0,0-2.8-.1c-.56,0-1.08,0-1.59,0a9,9,0,0,1-7-4.21c-.68-1.15-1.16-4.15-1.54-9.72-.08-1.67-.11-3.4-.11-5.16a1.49,1.49,0,0,0-.2-.74l0-.16c0-.22,0-.44-.07-.67s-.06-.5-.07-.76c0-.52,0-1-.06-1.57A39.38,39.38,0,0,0,3.83,893V607.39c.08-1.26.16-2.48.23-3.69.2-3.18.4-6.47.69-10l.11-1c.39-4.63,2.63-10.38,5.34-11.54a4.44,4.44,0,0,1,3.45,0l1.07.44-1.13.27c-.68.16-2.26.7-2.26,2.32a1.23,1.23,0,0,0,0,.2,1.26,1.26,0,0,1,0,.28l0,.24-.21.11a1.53,1.53,0,0,0-.63.6,3.48,3.48,0,0,0,.3,3.62,4.19,4.19,0,0,0,3.85,1.86,5.49,5.49,0,0,0,4.52-4.84,7.43,7.43,0,0,0-2.79-7,7.63,7.63,0,0,0-7.5-.93A9.93,9.93,0,0,0,4.53,583l-.71,1.29v-26c-.07-3.52-.28-34.13,13.54-40.77,5.75-2.77,13.16-1.27,16.52,3.34a10.06,10.06,0,0,1,1.1,9,8,8,0,0,1-5.12,5.31c-2.46.7-5.81,0-7.15-2.45a4.35,4.35,0,0,1-.09-3.8,3.51,3.51,0,0,1,2.32-2.1,1.47,1.47,0,0,0,.94-.7,1.45,1.45,0,0,0,.17-1.13,1.52,1.52,0,0,0-1.84-1.12,6.52,6.52,0,0,0-4.37,3.83,7.35,7.35,0,0,0,.21,6.49c1.9,3.42,6.48,5.1,10.66,3.9a10.92,10.92,0,0,0,7.15-7.24,13.09,13.09,0,0,0-1.49-11.82,14.18,14.18,0,0,0-5.93-4.59l-.8-.35.8-.34a14.18,14.18,0,0,0,5.93-4.59,13.1,13.1,0,0,0,1.49-11.82,10.87,10.87,0,0,0-7.16-7.24c-4.17-1.2-8.75.47-10.65,3.9a7.33,7.33,0,0,0-.21,6.48,6.5,6.5,0,0,0,4.37,3.83,1.52,1.52,0,0,0,1.84-1.11,1.51,1.51,0,0,0-1.11-1.84,3.5,3.5,0,0,1-2.32-2.09,4.35,4.35,0,0,1,.09-3.8c1.35-2.44,4.7-3.16,7.15-2.46A8,8,0,0,1,35,498.36a10.05,10.05,0,0,1-1.08,9.05c-3.36,4.62-10.78,6.12-16.55,3.35C3.56,504.12,3.75,473.46,3.82,470V444l.71,1.29a10,10,0,0,0,4.41,4.59,7.54,7.54,0,0,0,7.48-.93,7.55,7.55,0,0,0,2.8-7,5.5,5.5,0,0,0-4.52-4.84A4.22,4.22,0,0,0,10.86,439a3.5,3.5,0,0,0-.3,3.63,1.56,1.56,0,0,0,.64.6l.2.12,0,.23a2,2,0,0,1,0,.27.71.71,0,0,0,0,.21c0,1.61,1.58,2.16,2.26,2.32l1.13.26-1.07.45a4.46,4.46,0,0,1-3.44,0c-2.7-1.17-4.93-6.92-5.32-11.56l-.14-1c-.3-3.51-.5-6.79-.69-10-.07-1.22-.15-2.45-.23-3.68V135.37A41.29,41.29,0,0,0,4.14,131c0-.53,0-1.06.06-1.58,0-.26,0-.52.06-.77s0-.44,0-.65l0-.16a1.52,1.52,0,0,0,.21-.75c0-1.67,0-3.35.12-5.16.38-5.57.86-8.56,1.55-9.71a8.89,8.89,0,0,1,7-4.21c.52,0,1,0,1.55,0a13.78,13.78,0,0,0,2.85-.11,5.18,5.18,0,0,0,4.41-3.56,4.09,4.09,0,0,0-1-3.74,5.4,5.4,0,0,0-1.61-1.22l-.51-.26,5.37-4.55c1.32-1.11,5.32-4.51,4.07-8.53-.81-2.54-3.7-4.19-6.71-3.84a12.63,12.63,0,0,0-6.36,3.19c-4.8,4-8.41,9.9-10.73,17.46l-.73,2.39V76.65c0-.06,0-.1,0-.15v-.1a181.53,181.53,0,0,1,3.43-31,85.24,85.24,0,0,1,4.39-14.61l.07-.11a2.91,2.91,0,0,0,.17-.44A1.68,1.68,0,0,1,12,29.9c1-2.2,1.65-3.75,2.19-5.17a46.43,46.43,0,0,1,5.51-8.39l.07-.07a34.9,34.9,0,0,1,10.93-4.7c3.29-.81,8-1.61,11.25.77,1.9,1.42,3,3.79,4,6.1l.14.32c1,2.41,2,4.89,4,6.73s5.74,3,8.35,1.1c2.82-2.06,2.73-6.22,1.46-9.21C57,10.52,48.91,6,40.22,6.33A55.22,55.22,0,0,0,33.28,7l-3.11.52,2.9-1.23A35.81,35.81,0,0,1,55,4.15C67.42,7,77.76,16.92,80.74,28.81a32.29,32.29,0,0,1-6.85,28.81C69.36,62.77,63.31,66,57.28,66.44c-6.51.48-13.1-2.55-16.37-7.56C37.42,53.54,38,46,42.18,41.79a11.78,11.78,0,0,1,8.68-3.23,10.26,10.26,0,0,1,7.49,3.37,7,7,0,0,1,1.83,5.32,4.39,4.39,0,0,1-.82,1.92l-.89,1.24.21-1.51A3.28,3.28,0,0,0,58,46.31a3.19,3.19,0,0,0-2.56-1.23,4,4,0,0,0-3.08,1.59l-.07.08-.09,0a1.28,1.28,0,0,0-.79,1,4.64,4.64,0,0,0,1.39,3.87,5.37,5.37,0,0,0,4.36,1.65,6.61,6.61,0,0,0,5.54-5.69,9.47,9.47,0,0,0-2.41-7.33A12.85,12.85,0,0,0,51,36a14.27,14.27,0,0,0-10.58,4c-5,5.06-5.72,14-1.6,20.29,3.81,5.84,11.15,9.26,18.69,8.7,6.68-.5,13.37-4,18.34-9.68a34.83,34.83,0,0,0,7.4-31.11C80,15.4,68.9,4.74,55.59,1.67A36.58,36.58,0,0,0,47.38.75Z"/><path class="a" d="M15.09,77.05a4.23,4.23,0,0,1-3.2-1.47,5.07,5.07,0,0,1-1-1.58h0l-.08-.09a1.62,1.62,0,0,1-.3-.5,5.06,5.06,0,0,1,1.38-5.8,5.38,5.38,0,0,1,5.28-1h0a4.92,4.92,0,0,1,3.23,4.82,5.63,5.63,0,0,1-3.7,5.32A5,5,0,0,1,15.09,77.05Zm.42-10a4.87,4.87,0,0,0-3.09,1.13,4.42,4.42,0,0,0-1.14,5,.72.72,0,0,0,.17.26l.16.22a4.52,4.52,0,0,0,.83,1.41,3.6,3.6,0,0,0,4.07,1,4.93,4.93,0,0,0,3.19-4.63A4.16,4.16,0,0,0,17,67.31h0A4.21,4.21,0,0,0,15.51,67.06Z"/><path class="a" d="M75.79,996.27a2.84,2.84,0,0,1-1.41-.38,2.8,2.8,0,0,1,2.83-4.84,2.74,2.74,0,0,1,1.3,1.71,2.8,2.8,0,0,1-.29,2.12h0a2.8,2.8,0,0,1-1.71,1.3A3,3,0,0,1,75.79,996.27Zm0-4.86a2.06,2.06,0,0,0-1,3.83,2.06,2.06,0,0,0,2.81-.74h0a2,2,0,0,0,.21-1.55,2,2,0,0,0-1-1.26A2,2,0,0,0,75.8,991.41Z"/><path class="a" d="M72.61,988.82a4.15,4.15,0,1,1,3.6-2.05h0a4.14,4.14,0,0,1-2.54,1.92A4.22,4.22,0,0,1,72.61,988.82Zm0-7.56a3.64,3.64,0,0,0-.87.11,3.41,3.41,0,1,0,3.8,5h0a3.41,3.41,0,0,0-2.93-5.13Z"/><path class="a" d="M15.49,962a5.58,5.58,0,0,1-3.55-1.32,5.06,5.06,0,0,1-1.38-5.8,1.46,1.46,0,0,1,.3-.49l.12-.16a4.69,4.69,0,0,1,.91-1.51,4.32,4.32,0,0,1,4.86-1.18h0a5.65,5.65,0,0,1,3.7,5.32,5,5,0,0,1-5,5.14Zm-.41-10a3.5,3.5,0,0,0-2.64,1.22,4.39,4.39,0,0,0-.8,1.35,2.57,2.57,0,0,1-.19.28.75.75,0,0,0-.17.27,4.42,4.42,0,0,0,1.14,5A4.72,4.72,0,0,0,17,961a4.16,4.16,0,0,0,2.74-4.12,4.93,4.93,0,0,0-3.19-4.62h0A4.4,4.4,0,0,0,15.08,952Z"/></svg>