<svg xmlns="http://www.w3.org/2000/svg" viewBox="0 0 930.98 202.52"><defs><style>.a{fill:#847741;}.b{fill:#fff;}.c{fill:#b0a671;}.d{fill:#9e9e9f;}.e{fill:#ffa5d1;}.f{fill:#91e0f8;}.g{fill:#f09fba;}.h{fill:#c9c29a;}.i{fill:#8fd2ea;}.j{fill:#9ed8f5;}</style></defs><path class="a" d="M730.84,164.94l9.81-64.08a7.89,7.89,0,0,1,9.2-6.37q53.22,8.4,106,20c6.32,1.39,8.62,8.83,4.11,13.08q-10.57,10-21,20.05a7.49,7.49,0,0,0-1.75,8.16q5.33,13.44,10.41,26.92a7.72,7.72,0,0,1-9,10.18q-50.44-11.06-101.35-19.09A7.77,7.77,0,0,1,730.84,164.94Z"/><path class="a" d="M200.14,164.94l-9.81-64.08a7.89,7.89,0,0,0-9.2-6.37q-53.22,8.4-106,20c-6.32,1.39-8.62,8.83-4.11,13.08q10.59,10,21,20.05a7.47,7.47,0,0,1,1.75,8.16q-5.31,13.44-10.41,26.92a7.72,7.72,0,0,0,9,10.18q50.44-11.06,101.35-19.09A7.77,7.77,0,0,0,200.14,164.94Z"/><path class="b" d="M736,164.66a6.58,6.58,0,0,1-5.51-7.45q4.92-32,9.83-64.09a6.69,6.69,0,0,1,7.78-5.38q53.21,8.39,106,19.94a6.84,6.84,0,0,1,5.17,4.62,6.15,6.15,0,0,1-1.7,6.43q-10.57,10-21,20.07a8.65,8.65,0,0,0-2,9.42q5.33,13.44,10.42,26.91a6.32,6.32,0,0,1-1.21,6.54,6.55,6.55,0,0,1-6.39,2.07Q786.88,172.69,736,164.66Z"/><path class="c" d="M747.87,88.92Q801,97.29,853.78,108.84a5.59,5.59,0,0,1,4.23,3.78,5,5,0,0,1-1.38,5.26q-10.57,10-21,20.07a9.82,9.82,0,0,0-2.27,10.69q5.33,13.44,10.42,26.9a5.17,5.17,0,0,1-1,5.35,5.36,5.36,0,0,1-5.23,1.69q-50.52-11.07-101.49-19.1a5.37,5.37,0,0,1-4.5-6.09q4.93-32,9.88-64.08a5.46,5.46,0,0,1,6.36-4.39h0m.37-2.36a7.91,7.91,0,0,0-9.2,6.37Q734.14,125,729.25,157a7.77,7.77,0,0,0,6.51,8.81q50.88,8,101.36,19.07h0a7.71,7.71,0,0,0,9-10.18q-5.08-13.47-10.41-26.91a7.51,7.51,0,0,1,1.75-8.17q10.38-10.08,21-20c4.52-4.24,2.21-11.69-4.11-13.07q-52.78-11.56-106-20Z"/><path class="b" d="M736.88,158.78a.57.57,0,0,1-.48-.65q5-32,10.06-64a.58.58,0,0,1,.67-.46q53,8.35,105.63,19.87a.54.54,0,0,1,.45.4.48.48,0,0,1-.14.56q-10.58,10-20.93,20.12a14.45,14.45,0,0,0-3.3,15.74q5.34,13.42,10.46,26.87a.49.49,0,0,1-.1.57.53.53,0,0,1-.56.18Q788,166.83,736.88,158.78Z"/><path class="d" d="M747.13,93.62a.58.58,0,0,0-.67.46q-.44,2.7-.85,5.4l1.64.26q.43-2.7.85-5.4L747,94.18l.09-.56Zm-1.36,15.52-1.64-.25q-.5,3.14-1,6.27l1.63.25,1-6.27Zm-2.48,15.68-1.62-.26-1,6.27,1.62.26,1-6.27Zm-2.48,15.67-1.6-.25-1,6.27,1.6.25,1-6.27Zm-2.47,15.68-1.59-.25c-.12.73-.24,1.47-.35,2.21h0a.57.57,0,0,0,.48.65c0-.19,0-.37.08-.56h0c0,.19-.06.37-.08.56l3.22.51c.08-.52.16-1,.25-1.57l-2.2-.35.19-1.2Zm11.54,3.1c-.09.52-.17,1-.26,1.57l5.17.86h.05l1.13.19c.08-.53.17-1.05.26-1.57l-6.35-1.06Zm15.87,2.7-.27,1.56,6.34,1.12c.09-.52.19-1,.28-1.56L765.75,162Zm15.86,2.84c-.1.52-.19,1-.29,1.56l5.67,1.06h.08l.58.11L788,166l-6.34-1.18Zm15.83,3-.3,1.56,2.05.4,4.27.84c.11-.52.21-1,.31-1.56l-6.33-1.24Zm15.82,3.14c-.11.52-.21,1-.32,1.56l3.47.71h0l2.82.58c.1-.51.21-1,.32-1.55l-6.32-1.3Zm15.79,3.29-.33,1.55,3.7.8,2.6.56c.12-.52.23-1,.34-1.55l-6.31-1.36Zm6.29-7.38-1.52.56c.77,2,1.54,4,2.3,6l1.51-.55s-.13-.33-.32-.84v0h0l-2-5.1ZM829.5,152l-1.52.56q1.18,3,2.35,5.95l1.52-.56-1.11-2.81L829.5,152Zm-.61-16.05a16.13,16.13,0,0,0-2.55,6.5l1.62.25a14.55,14.55,0,0,1,1.25-4h0l0-.05h0l0,0h0v0h0v0h0v0h0v0h0v0h0v0h.38v0h.07v0h0v0h0v0h0l0,0h0v0h0c.14-.24.29-.47.44-.7l-1.38-.88Zm11.5-11.63-4.62,4.47,1.18,1.13,4.62-4.47-1.18-1.13Zm11.49-11-4.52,4.29,1.19,1.14,4.5-4.28h0l-.48-.45,0,0-.76-.71Zm.76.71.44.41h0l0,0h0l.07-.11-.56-.26Zm-15.19-3.81-.33,1.55,6.54,1.39.34-1.56-2.14-.45-4.41-.93Zm-16.38-3.36c-.1.52-.21,1-.31,1.55l6.55,1.33c.1-.52.21-1,.31-1.56l-4.28-.87h-.06l-2.21-.44Zm-16.4-3.21-.3,1.56c2.19.41,4.37.84,6.56,1.26l.3-1.56-2.88-.56-3.68-.7Zm-16.43-3.06c-.09.52-.19,1-.28,1.56l6.56,1.21c.1-.52.2-1,.29-1.56l-3.37-.62-.06,0h0l-3.13-.57Zm-16.45-2.9c-.08.52-.17,1-.26,1.56l6.57,1.15c.09-.53.18-1,.28-1.57l-3.54-.62h-.09l-3-.51Zm-16.46-2.75c-.09.52-.17,1-.25,1.57l6.58,1.08c.08-.52.17-1,.26-1.57l-2.42-.4-4.17-.68Z"/><path class="b" d="M93.61,183.74a6.55,6.55,0,0,1-6.39-2.07A6.34,6.34,0,0,1,86,175.13q5.1-13.47,10.42-26.91a8.63,8.63,0,0,0-2-9.42q-10.38-10.1-21-20.07a6.15,6.15,0,0,1-1.7-6.43,6.84,6.84,0,0,1,5.17-4.62q52.76-11.55,106-19.94A7,7,0,0,1,188,88.88a6.31,6.31,0,0,1,2.69,4.24q4.92,32,9.83,64.09a6.57,6.57,0,0,1-5.51,7.45q-50.91,8-101.42,19.08Z"/><path class="c" d="M183.11,88.92a5.45,5.45,0,0,1,6.36,4.39q4.93,32,9.88,64.08a5.37,5.37,0,0,1-4.5,6.09q-51,8-101.49,19.1a5.37,5.37,0,0,1-5.23-1.69,5.17,5.17,0,0,1-1-5.35q5.1-13.47,10.43-26.9A9.83,9.83,0,0,0,95.3,138q-10.36-10.09-20.94-20.07A5,5,0,0,1,73,112.62a5.59,5.59,0,0,1,4.23-3.78q52.72-11.55,105.91-19.92h0m-.37-2.36h0q-53.24,8.4-106,20c-6.32,1.38-8.63,8.83-4.11,13.07q10.58,10,21,20a7.51,7.51,0,0,1,1.75,8.17Q90,161.25,84.88,174.72a7.71,7.71,0,0,0,9,10.18h0q50.44-11.06,101.35-19.07a7.77,7.77,0,0,0,6.52-8.81q-4.91-32-9.8-64.09a7.9,7.9,0,0,0-9.2-6.37Z"/><path class="b" d="M194.11,158.78a.57.57,0,0,0,.47-.65l-10.05-64a.59.59,0,0,0-.68-.46q-53,8.35-105.63,19.87a.54.54,0,0,0-.45.4.47.47,0,0,0,.15.56q10.56,10,20.92,20.12a14.47,14.47,0,0,1,3.31,15.74q-5.36,13.42-10.47,26.87a.5.5,0,0,0,.1.57.53.53,0,0,0,.56.18Q143,166.83,194.11,158.78Z"/><path class="d" d="M183.85,93.62h-.14l-6.45,1c.08.52.17,1,.25,1.57,2.2-.36,4.39-.71,6.59-1-.08-.53-.16-1-.25-1.57Zm-16.47,2.67-6.59,1.11.27,1.57c2.19-.38,4.39-.75,6.58-1.11l-.26-1.57Zm-16.46,2.83-6.57,1.17c.09.52.18,1,.28,1.56l6.57-1.17c-.09-.52-.19-1-.28-1.56Zm-16.43,3-6.56,1.23h0c.1.52.2,1,.29,1.56l6.57-1.23c-.1-.52-.2-1-.29-1.56Zm-16.42,3.13-1.28.25-5.28,1c.11.52.21,1,.31,1.55l6.56-1.29c-.1-.52-.21-1-.31-1.56Zm-16.39,3.29-5.53,1.14h0l-.09,0-.93.19c.11.52.22,1,.32,1.56l6.55-1.36c-.11-.52-.21-1-.32-1.55ZM85.31,112l-2,.43-4.58,1c.11.52.23,1,.34,1.55,2.18-.47,4.36-1,6.54-1.41-.12-.52-.23-1-.34-1.56Zm-.5,6.79-1.18,1.14,2.91,2.79h0l1.71,1.63,1.18-1.13c-1.54-1.49-3.09-3-4.65-4.46ZM96.4,129.91,95.21,131l3.63,3.53h.21v0h0l0,0h0l.5.54h0l0,0h0l.11.12,1.28-1c-.33-.39-.67-.76-1-1.11l-3.62-3.53Zm6.78,14.38a14.52,14.52,0,0,1-.26,3.35h0v0h0v0h0v0h0v0h0v0h0v0h0v0h0v0h-.09v0h0v0h0v0h0v0h0v0h0v0h0v0h0v0h0v0h0v0h0a12.87,12.87,0,0,1-.43,1.33h0v0h0v0h0v0h0v0h0v0h0v0h0v0h0a1.64,1.64,0,0,0-.08.19l1.52.56.09-.21a16.19,16.19,0,0,0,1.14-6.66l-1.63.08Zm-4.65,15.16c0,.13-.1.27-.16.41h0v0h0c-.55,1.39-2.15,5.51-2.15,5.51l1.51.55c.78-2,1.55-4,2.33-5.95l-1.52-.55Zm-5.76,14.89c-.35.9-.69,1.79-1,2.69h0v0h0v0h0v0h0l.51.19v0h0l.12.54,2.08-.46c-.11-.52-.23-1-.34-1.55l-.22.05c.14-.36.28-.72.41-1.08l-1.5-.55Zm-1.1,2.86a.49.49,0,0,0,.1.53h0a.51.51,0,0,0,.48.18h0c0-.18-.07-.36-.11-.54l-.53-.19Zm18.19-4.64-6.31,1.33.33,1.55,6.31-1.33-.33-1.55Zm15.81-3.21-6.33,1.27.32,1.55L125.3,171l.67-.14-.3-1.55Zm15.82-3.07-6.33,1.21.3,1.56,2.09-.4,4.23-.81c-.09-.52-.19-1-.29-1.56Zm15.85-2.92L151,164.51c.1.52.2,1,.29,1.56l3.46-.63h.1l2.78-.5c-.1-.52-.19-1.05-.28-1.57Zm15.86-2.77-6.35,1.09.27,1.57,3.67-.64h.11l2.57-.44-.27-1.57ZM189.08,158l-6.35,1c.08.52.17,1.05.26,1.57l1.33-.22h.06l5-.8c-.09-.53-.17-1-.26-1.57ZM193,148l-1.6.25,1,6.27,1.59-.25q-.48-3.13-1-6.27Zm-2.46-15.68-1.62.26,1,6.27,1.61-.26c-.33-2.09-.65-4.18-1-6.27Zm-2.46-15.67-1.63.25,1,6.27,1.62-.25q-.5-3.13-1-6.27ZM185.61,101l-1.64.26,1,6.27,1.64-.26-1-6.27Z"/><path class="a" d="M774.62,161.62a1762,1762,0,0,0-617.46-.14,12.25,12.25,0,0,1-14.29-9.66q-6.09-33-12.19-65.92c-1.22-6.54,3.49-12.91,10.52-14.16a1852.92,1852.92,0,0,1,649.41.15c7,1.25,11.75,7.62,10.52,14.17Q795,119,788.91,152A12.25,12.25,0,0,1,774.62,161.62Z"/><path class="b" d="M157,155.05a11.07,11.07,0,0,1-12.89-8.71q-6.09-33-12.19-65.91c-1.1-5.89,3.15-11.64,9.48-12.77a1844.62,1844.62,0,0,1,649.12.15c6.33,1.13,10.58,6.88,9.48,12.77q-6.12,33-12.23,65.91a11.06,11.06,0,0,1-12.89,8.7A1755.54,1755.54,0,0,0,157,155.05Z"/><path class="c" d="M790.26,69c5.63,1,9.41,6.13,8.44,11.37l-12.18,65.92A9.86,9.86,0,0,1,775,154a1757,1757,0,0,0-618.3-.15,9.84,9.84,0,0,1-11.48-7.75L133.11,80.2c-1-5.25,2.82-10.36,8.44-11.37A1843.26,1843.26,0,0,1,790.26,69m.42-2.34a1845.57,1845.57,0,0,0-649.54-.15c-7,1.26-11.75,7.63-10.52,14.17l12.24,65.91a12.26,12.26,0,0,0,14.3,9.65,1754.35,1754.35,0,0,1,617.46.14,12.26,12.26,0,0,0,14.3-9.65l12.27-65.9c1.23-6.54-3.47-12.91-10.51-14.17Z"/><path class="b" d="M149.57,144,138.08,80.67a5.07,5.07,0,0,1,4.28-5.76,1837,1837,0,0,1,647.09.15,5.07,5.07,0,0,1,4.28,5.76L782.21,144.1a5,5,0,0,1-5.83,3.94,1763.08,1763.08,0,0,0-621-.15A5,5,0,0,1,149.57,144Z"/><path class="d" d="M789.45,75.06l-6.67-1.19-.27,1.57,6.66,1.18c.1-.52.19-1,.28-1.56Zm-13.34-2.34-6.68-1.14c-.08.53-.17,1-.26,1.57l6.67,1.13.27-1.56Zm-13.36-2.24-6.68-1.09c-.08.53-.17,1-.25,1.57L762.5,72c.08-.52.17-1,.25-1.56Zm-13.36-2.15-6.69-1-.24,1.57,6.68,1,.25-1.57Zm-13.38-2-6.7-1c-.07.52-.15,1-.22,1.57l6.68,1,.24-1.57Zm-13.39-1.94-6.7-.93c-.07.52-.15,1-.22,1.57l6.69.93c.08-.52.15-1,.23-1.57Zm-13.4-1.84-6.71-.89c-.07.53-.13,1.05-.2,1.57l6.7.89.21-1.57Zm-13.41-1.75-6.71-.83c-.07.52-.13,1-.2,1.57l6.71.83c.06-.52.13-1,.2-1.57Zm-13.42-1.65-6.72-.78-.18,1.58c2.24.25,4.47.51,6.71.78.06-.52.12-1,.19-1.58ZM669,57.57l-6.72-.74c-.06.53-.11,1.05-.17,1.58l6.71.74.18-1.58Zm-13.44-1.45-6.72-.69c0,.53-.11,1.06-.16,1.58l6.72.69c0-.53.1-1.05.16-1.58Zm-13.45-1.35-6.72-.63-.15,1.58c2.24.2,4.48.42,6.72.63l.15-1.58Zm-13.45-1.25-6.73-.58c0,.52-.09,1.05-.13,1.58l6.72.58c0-.52.1-1.05.14-1.58Zm-13.46-1.15-6.73-.53-.12,1.58L615,54c.05-.53.09-1.06.13-1.59Zm-13.46-1L595,50.83c0,.53-.07,1.06-.11,1.59l6.73.49.12-1.59Zm-13.47-1-6.74-.44c0,.53-.07,1.06-.1,1.59l6.73.43c0-.52.07-1.05.11-1.58Zm-13.48-.85q-3.36-.21-6.74-.39c0,.53-.06,1.06-.08,1.58l6.73.39.09-1.58Zm-13.48-.76c-2.24-.11-4.49-.23-6.74-.33L554.46,50l6.73.34c0-.53.06-1.06.08-1.59Zm-13.48-.65-6.74-.29c0,.53,0,1.06-.07,1.59l6.74.29c0-.53,0-1.06.07-1.59Zm-13.49-.55c-2.25-.09-4.49-.17-6.74-.24l-.06,1.58,6.74.24.06-1.58Zm-13.49-.46-6.74-.19c0,.53,0,1.06-.05,1.59,2.25,0,4.5.12,6.74.19,0-.53,0-1.06,0-1.59Zm-13.49-.36-6.75-.14,0,1.59,6.74.14c0-.53,0-1.06,0-1.59Zm-13.49-.26-6.75-.09c0,.53,0,1.06,0,1.59l6.74.09,0-1.59Zm-13.5-.15-6.75,0v1.59l6.74,0c0-.53,0-1,0-1.58Zm-13.49-.06h-6.75v1.59h6.74c0-.53,0-1.05,0-1.58Zm-13.5,0-6.75,0c0,.53,0,1.06,0,1.59l6.74-.06c0-.53,0-1,0-1.58Zm-13.5.14-6.74.1,0,1.59,6.74-.11,0-1.58Zm-13.49.23-6.75.16c0,.53,0,1.06,0,1.59l6.74-.16,0-1.59ZM412.86,47q-3.37.09-6.75.21c0,.52,0,1.05.05,1.58l6.74-.2c0-.53,0-1.06,0-1.59Zm-13.49.44-6.75.25c0,.53.05,1.06.07,1.59l6.73-.26c0-.53,0-1-.05-1.58ZM385.88,48l-6.74.31c0,.53.05,1.05.07,1.58l6.74-.3c0-.53-.05-1.06-.07-1.59Zm-13.48.64-6.75.35.09,1.59,6.74-.36c0-.53-.06-1.06-.08-1.58Zm-13.49.73-6.73.4.09,1.59,6.74-.41c0-.52-.06-1-.1-1.58Zm-13.47.83-6.74.46c0,.52.08,1.05.11,1.58,2.24-.16,4.49-.31,6.73-.45,0-.53-.07-1.06-.1-1.59ZM332,51.13l-6.74.5.12,1.58,6.73-.5c0-.53-.07-1.06-.11-1.58Zm-13.47,1-6.73.55c0,.53.09,1,.13,1.58l6.73-.55c0-.53-.09-1.06-.13-1.58ZM305,53.29l-6.73.6.15,1.58,6.72-.6c-.05-.53-.09-1.06-.14-1.58Zm-13.45,1.23-6.73.65c.06.52.11,1,.16,1.58l6.72-.65-.15-1.58Zm-13.45,1.32-6.72.71c.06.52.11,1.05.17,1.57l6.71-.7c-.05-.52-.1-1.05-.16-1.58ZM264.7,57.27,258,58l.18,1.58,6.71-.75-.18-1.58ZM251.27,58.8l-6.71.8c.06.52.13,1,.19,1.57l6.71-.8c-.06-.52-.13-1-.19-1.57Zm-13.42,1.62-6.71.85c.07.53.14,1,.2,1.58l6.71-.85c-.07-.53-.13-1-.2-1.58Zm-13.41,1.73-6.71.9c.08.52.15,1,.22,1.57l6.7-.9-.21-1.57ZM211,64l-6.69,1c.07.53.15,1,.22,1.57l6.69-.94c-.07-.53-.14-1-.22-1.58ZM197.64,65.9l-6.69,1,.24,1.57,6.68-1c-.07-.53-.15-1-.23-1.57Zm-13.38,2-6.69,1c.09.52.17,1,.25,1.57l6.68-1.05-.24-1.57ZM170.89,70l-6.68,1.1c.09.52.17,1,.26,1.56l6.68-1.09c-.09-.52-.17-1-.26-1.57Zm-13.36,2.22-6.67,1.15.27,1.56,6.67-1.14-.27-1.57Zm-13.34,2.32-1.83.33h-1.58l0,0h0l0,0h0l0,0h-.05l0,0h0l0,0h0l0,0h0l-.05,0h0l-.05,0h0l-.15.11h0a5.22,5.22,0,0,0-1.45,1.7l1.51.68a3.58,3.58,0,0,1,2.57-1.84l1.83-.33c-.1-.52-.19-1-.28-1.56Zm-3.87,9-1.66.3q.56,3.12,1.13,6.24l1.65-.3c-.37-2.08-.75-4.16-1.12-6.24Zm2.25,12.49-1.64.3q.56,3.12,1.13,6.24l1.64-.29q-.55-3.14-1.13-6.25Zm2.26,12.49-1.64.3,1.14,6.24,1.63-.29c-.38-2.08-.75-4.17-1.13-6.25Zm2.26,12.5-1.63.29,1.14,6.25,1.62-.3q-.57-3.12-1.13-6.24Zm2.25,12.49-1.61.29,1.14,6.25,1.6-.3q-.56-3.12-1.13-6.24Zm2.5,11.59-1.28,1a5,5,0,0,0,3.37,1.83h1.47l1-.18c-.1-.52-.19-1-.28-1.56l-1,.18a3.43,3.43,0,0,1-3.28-1.21ZM169,143.91,162.57,145l.27,1.56,6.4-1.1c-.09-.52-.17-1-.26-1.57Zm12.83-2.13-6.42,1.05c.09.52.17,1,.26,1.57l6.41-1.06-.25-1.56Zm12.84-2.05-6.42,1,.24,1.57,6.42-1-.24-1.57Zm12.85-1.95-6.43,1,.24,1.57,6.42-1c-.08-.52-.15-1-.23-1.57Zm12.86-1.85-6.43.92c.08.52.15,1,.23,1.57l6.42-.92c-.07-.52-.14-1-.22-1.57Zm12.88-1.76-6.44.87.21,1.57,6.43-.86c-.07-.53-.13-1.05-.2-1.58Zm12.88-1.66-6.44.82c.06.53.13,1,.2,1.57l6.44-.81c-.07-.53-.14-1.05-.2-1.58ZM259,130.94l-6.45.78c.07.52.13,1.05.19,1.57l6.44-.77-.18-1.58Zm12.9-1.47-6.45.73.18,1.57,6.44-.72c-.06-.53-.11-1.05-.17-1.58Zm12.91-1.37-6.46.67c.06.53.11,1,.17,1.58l6.45-.68c-.06-.52-.11-1-.16-1.57Zm12.91-1.29-6.46.63c.06.53.11,1.06.16,1.58l6.45-.63-.15-1.58Zm12.92-1.18-6.46.58.15,1.58,6.45-.58-.14-1.58Zm12.93-1.09-6.46.53c0,.53.09,1.06.13,1.58l6.46-.53c0-.53-.09-1.06-.13-1.58Zm12.93-1-6.46.49.12,1.58,6.46-.49-.12-1.58Zm12.94-.9-6.47.44c0,.53.08,1.06.11,1.58l6.47-.44c0-.52-.07-1-.11-1.58Zm12.95-.8q-3.24.18-6.47.39l.09,1.58,6.47-.39-.09-1.58Zm13-.71-6.48.34.09,1.58,6.47-.34c0-.53-.06-1.06-.08-1.58Zm12.95-.62c-2.16.1-4.32.19-6.48.3,0,.53.05,1,.08,1.58l6.47-.29c0-.53-.05-1.06-.07-1.59Zm12.95-.52-6.48.25c0,.53.05,1.06.07,1.59l6.47-.25-.06-1.59Zm13-.42-6.48.2c0,.53,0,1.06,0,1.58l6.48-.2c0-.53,0-1.05-.05-1.58Zm13-.33-6.48.15c0,.53,0,1.06,0,1.59l6.47-.16,0-1.58Zm13-.24-6.48.11,0,1.59,6.47-.11c0-.53,0-1.06,0-1.59Zm13-.13-6.48,0c0,.53,0,1.06,0,1.59l6.47-.06c0-.53,0-1.06,0-1.58Zm13-.05h-6.49c0,.53,0,1.06,0,1.59h6.48v-1.59Zm13,.05-6.48,0c0,.53,0,1,0,1.58l6.48,0c0-.53,0-1.06,0-1.59Zm13,.15-6.48-.08,0,1.58,6.48.09c0-.53,0-1.06,0-1.59Zm13,.24-6.48-.13,0,1.59,6.48.13,0-1.59Zm13,.34-6.48-.18c0,.53,0,1.06,0,1.59q3.24.08,6.47.18c0-.53,0-1.06,0-1.59Zm13,.43-6.48-.22c0,.52,0,1,0,1.58l6.47.23.06-1.59Zm12.95.53-6.47-.27c0,.52-.05,1-.07,1.58l6.47.28c0-.53,0-1.06.07-1.59Zm13,.62-6.47-.32c0,.53,0,1.06-.08,1.59l6.47.32c0-.53.06-1.06.08-1.59Zm13,.72-6.47-.37-.09,1.59,6.47.37.09-1.59Zm12.95.82q-3.24-.23-6.48-.42c0,.53-.06,1-.1,1.58l6.47.42c0-.53.07-1.06.11-1.58Zm12.93.91-6.46-.47-.12,1.58,6.47.47c0-.53.07-1.06.11-1.58Zm12.94,1c-2.16-.18-4.31-.35-6.47-.51l-.12,1.58,6.46.51c0-.53.08-1,.13-1.58Zm12.92,1.1-6.46-.56c0,.52-.09,1-.13,1.58l6.45.56c.05-.53.1-1,.14-1.58Zm12.93,1.19-6.46-.61-.15,1.58,6.45.61c0-.52.11-1,.16-1.58Zm12.91,1.29-6.46-.65-.15,1.57,6.45.66c0-.53.11-1,.16-1.58Zm12.91,1.39-6.46-.71c0,.53-.11,1.05-.16,1.58l6.44.7.18-1.57Zm12.9,1.48q-3.23-.39-6.45-.75l-.18,1.57,6.44.75c.06-.52.12-1.05.19-1.57ZM686,132.65l-6.45-.8c-.06.53-.13,1.05-.19,1.58l6.44.8c.06-.53.13-1,.2-1.58Zm12.88,1.67c-2.15-.28-4.29-.57-6.44-.84l-.21,1.57,6.44.85.21-1.58Zm12.87,1.77-6.43-.9c-.08.53-.15,1.05-.22,1.58l6.43.89c.07-.52.15-1,.22-1.57ZM724.6,138l-6.43-.94c-.07.52-.15,1-.22,1.57l6.42.94c.08-.52.15-1.05.23-1.57Zm12.85,2-6.42-1-.24,1.57,6.42,1,.24-1.56ZM750.29,142l-6.42-1c-.08.52-.16,1-.25,1.57l6.42,1c.08-.52.17-1,.25-1.56Zm12.83,2.14L756.71,143c-.09.52-.17,1-.26,1.56l6.4,1.09.27-1.57Zm12.82,2.25-6.41-1.14-.27,1.57,6.4,1.13c.09-.52.19-1,.28-1.56Zm7-6.45-1.61-.29c-.25,1.4-.51,2.8-.76,4.19a3.33,3.33,0,0,1-.54,1.3l1.34.91a4.83,4.83,0,0,0,.62-1.22h.05a.64.64,0,0,0,0-.07h0v0h.05c.26-1.4.51-2.8.77-4.2Zm2.27-12.49-1.62-.29c-.38,2.08-.75,4.16-1.13,6.25l1.61.29,1.14-6.25Zm2.27-12.49-1.63-.29q-.55,3.12-1.13,6.24l1.63.3q.57-3.12,1.13-6.25Zm2.28-12.49-1.64-.29q-.57,3.12-1.13,6.24l1.63.3,1.14-6.25ZM792.07,90l-1.65-.31c-.38,2.09-.75,4.17-1.13,6.25l1.65.3c.38-2.08.75-4.16,1.13-6.24Zm1-12.45-1.46.77a3.21,3.21,0,0,1,.43,2.25c-.17,1-.35,1.92-.52,2.88l1.66.3c.18-1,.35-1.92.52-2.88h0v0h0v0h0a0,0,0,0,0,0,0h0v0h0v0h0s0,0,0,0h0v0h0v0h0v0h0v0h0s0,0,0,0h0v0h0v0h0v0h0v0h0a.06.06,0,0,0,0,0h0v0h0v0h0a.13.13,0,0,0,0-.06h0v0h0v-.06h0v-.08h0v-.07h0s0,0,0-.08h0v0h0a.36.36,0,0,0,0-.1h0v0h0l0-.07h0v0h0l0-.12h0l0-.08h0v0h0a.19.19,0,0,1,0-.07h0v0h0l0,0h0v0h0s0,0,0,0h0v0h-.08l0,0h0l0-.06h0a3.07,3.07,0,0,0-.17-.31Z"/><path class="c" d="M180.43,125.76a13.93,13.93,0,0,1-6.77-2,11.27,11.27,0,0,1-5.55-7.49c-1.19-6.12,2.19-10.05,6.85-15.48l1.48-1.74c1-1.18,2.47-2.88,3.88-4.64a12.85,12.85,0,0,1-7.94.9,11.62,11.62,0,0,1-8.09-5.91,13.15,13.15,0,0,1-.23-11.49c3.07-7.42,12.57-14.36,24.84-13.26,12.78,1.16,20.67,12.3,20.66,22a28.5,28.5,0,0,1-2.47,12.51,12,12,0,0,1,3.58,1.73,11.72,11.72,0,0,1,4.76,7.61A10.84,10.84,0,0,1,214,117c-2,3-5.36,4.82-10.19,5.52l-21.28,3.06A9.66,9.66,0,0,1,180.43,125.76Zm6.34-16-.25.29.37-.06Z"/><path class="c" d="M237.26,119.19a26.63,26.63,0,0,1-14.15-4c-9.83-6.11-15.21-16.92-14.76-29.67a28.67,28.67,0,0,1,25.53-26.9,27.71,27.71,0,0,1,27.64,14.89h0c5.28,10.33,4.73,28.4-4.49,37.82A28.4,28.4,0,0,1,237.26,119.19Zm-.48-36.12h-.14c-.67,0-2.57.84-2.89,1.9-1.8,6,1.26,8.27,1.3,8.29,1.48.89,3.34.91,4.27,0s1.21-4.42.25-7.54A4.21,4.21,0,0,0,236.78,83.07Z"/><path class="c" d="M276.27,114.2a13.79,13.79,0,0,1-7.24-2.37,11.31,11.31,0,0,1-5.11-7.8c-.83-6.18,2.76-9.91,7.73-15.07.48-.5,1-1.07,1.58-1.64,1.08-1.13,2.63-2.74,4.14-4.42a12.9,12.9,0,0,1-8,.45A11.65,11.65,0,0,1,261.65,77a13.1,13.1,0,0,1,.44-11.48c3.49-7.24,13.37-13.62,25.56-11.82,12.69,1.89,19.93,13.47,19.37,23.11a28.81,28.81,0,0,1-3.19,12.35A11.68,11.68,0,0,1,311.62,99a10.85,10.85,0,0,1-2,8.38c-2.19,2.89-5.62,4.5-10.49,4.92l-21.42,1.84A9.18,9.18,0,0,1,276.27,114.2Zm6.66-15.65-.26.28.36,0Z"/><path class="c" d="M321.33,110.61a13.6,13.6,0,0,1-7.41-2.55,11.31,11.31,0,0,1-4.93-7.92c-.68-6.2,3-9.84,8.09-14.88l1.61-1.61c1.11-1.09,2.7-2.67,4.24-4.31a12.77,12.77,0,0,1-8,.26,11.65,11.65,0,0,1-7.59-6.55,13.11,13.11,0,0,1,.71-11.47c3.66-7.15,13.7-13.29,25.83-11.21,12.64,2.19,19.61,13.93,18.82,23.56a28.68,28.68,0,0,1-3.48,12.27,11.71,11.71,0,0,1,7.55,10,10.85,10.85,0,0,1-2.16,8.33c-2.26,2.84-5.73,4.36-10.6,4.67l-21.45,1.33A8.86,8.86,0,0,1,321.33,110.61Zm6.8-15.49-.27.27.36,0Z"/><path class="c" d="M368.79,109.39h-.43c-6.61-.31-11.77-4.7-12.59-10.7a12.18,12.18,0,0,1,3-9.6,12.65,12.65,0,0,1,9.8-4.31c7,0,12,5,12.35,12.15a12.44,12.44,0,0,1-12.08,12.47Zm0-14.79a2.93,2.93,0,0,0-2.05.74,3.09,3.09,0,0,0-.64,2.23,3,3,0,0,0,2.3,2,2.15,2.15,0,0,0,.37-.06l.11-4.88Zm.19,0-.18,4.88a2.32,2.32,0,0,0,1.07-.7,2.73,2.73,0,0,0,.54-2.16A2.43,2.43,0,0,0,369,94.6Z"/><path class="c" d="M407,105.54h-.51c-7.75-.33-16.26-5.78-17.67-15.54-.51-3.51-.7-18.52-.88-45v-.58c-12.54,0-16.65-7.68-17.86-11.08-4.71-12.89,6.18-20.35,9.76-22.81l.54-.36C388.9,4.41,397.66-1.56,409.2.68c15.19,3,15.58,18.79,15.72,24.75s.59,57.5.22,63.8C424.67,98.72,415.33,105.54,407,105.54Zm-2.83-64.86,0,4.22c.08,11.75.26,39.25.71,42.77.18,1.2,1.73,1.54,2.13,1.61a3.86,3.86,0,0,0,1.85-1c.3-4.92-.05-54.49-.24-62.41-.22-8.73-1.65-9-2.59-9.19-4.65-.91-9.09,1.92-16.53,7L389,24a13.41,13.41,0,0,0-3.79,3.37,4,4,0,0,0,.14.44v0a6.08,6.08,0,0,0,2.26.37c.23-.05.6-.14,1-.27a11.52,11.52,0,0,1,10.39,1.72A13.45,13.45,0,0,1,404.21,40.68Z"/><path class="c" d="M443.65,103.8q-.39,0-.78,0h-.16c-8.06-.68-14.16-6.14-14.85-13.3a14.31,14.31,0,0,1,3.93-11.17,15.06,15.06,0,0,1,12-4.69c8.41.34,14.09,6.41,14.15,15.1a14.18,14.18,0,0,1-4.63,10.06A14,14,0,0,1,443.65,103.8ZM441.2,89.11v0c0,.22.65,1,2.39,1.22a2.51,2.51,0,0,0,.92-.89,3,3,0,0,0-.35-1.34h0a2.8,2.8,0,0,0-1-.16h-.11C441.53,87.89,441.24,88.9,441.2,89.11Z"/><path class="c" d="M521.12,104.85h-.81l-42.08-.75c-4.55.29-9.25-2.15-12.24-4.66-3.8-3.18-6-7.27-6.09-11.53-.28-9.1,5.43-13.9,15.77-22.63l3.39-2.86c7.72-6.53,19.4-16.39,21.3-22.2,1.24-3.66.17-4.05-1.07-4.49-3.32-1.19-4.71-.71-4.85-.65-1.37.54-1.55.83-1.8,1.23l-.1.17a18.4,18.4,0,0,1-22,6.84,16.42,16.42,0,0,1-10-10.06c-1.83-5.29-.92-11.25,2.56-16.79,6.83-11.1,24.9-20.11,45-15C528.9,6.81,539,27.2,536.36,43c-2.15,13.75-7.27,21.34-13.51,28.06H523c10.32.18,17.72,7.29,17.76,17a14.66,14.66,0,0,1-3.8,11.35C533.51,103.07,528.33,104.85,521.12,104.85Zm-43.29-17h.25l42.52.75a18.24,18.24,0,0,0,3.88-.27v-.13c0-.28,0-.81-1.8-.85-4.71-.08-12-.39-14.13-.48-7.62-.37-10.09-4.49-10.89-6.91-.48-1.47-1.63-6.58,3.85-11.08,1.72-1.39,4-3.46,6.73-6,7.18-7.21,10.45-11.93,12.07-22.36,1.26-7.71-3.68-20-16.2-23.25-13.18-3.37-24,2.65-27.12,7.77l-.05.08c-1.1,1.75-1.05,2.73-1,2.88a.77.77,0,0,0,.2.1l.22.08a2.12,2.12,0,0,0,2.53-.52A18.81,18.81,0,0,1,488.4,20c3.22-1.3,8.74-2.3,16.39.45,10.36,3.73,14.77,13.74,11,24.91-3.31,10.12-15.49,20.41-26.24,29.48l-3.35,2.84c-4,3.4-8.94,7.54-9.9,9.2A5.7,5.7,0,0,0,477.83,87.83Z"/><path class="c" d="M578.26,108.32c-8.87,0-18.36-2.24-25.91-8.43-10.93-9-14.86-19.62-12.41-33.35a31.54,31.54,0,0,1,9-16.24,27.07,27.07,0,0,1-3.88-15.09C545.46,21.63,552.21,11,563.58,6c12.11-5.33,32.25-3.48,42.94,7.76,11,11.36,9,27.2,6.42,34a24.57,24.57,0,0,1-4.45,7.12,37.78,37.78,0,0,1,6.74,15.91c2.37,15.59-6.45,30.4-21,35.15A53.91,53.91,0,0,1,578.26,108.32ZM570,20.92c-5.56,2.5-8.48,7.49-8.68,14.84V36A12.35,12.35,0,0,0,564,43.68a12,12,0,0,1-1.9,16.6c-2,1.67-5.38,5.09-6.14,9.18-1.24,6.93-.54,11.87,6.74,17.89,3.8,3.1,8.89,4.51,14.07,4.73-8.55-.79-17.85-6.65-18.2-17.65s6.81-17,13.2-18.77c5.82-1.61,14.44-1,19.72,4.24a18.84,18.84,0,0,1,5.28,18.93c-2,8.67-10.43,12.69-17,13.25a36.64,36.64,0,0,0,9.49-1.65c7-2.28,11.09-9.41,9.89-17.29-.48-3.29-2.35-7.08-5.29-10.74l-.07-.09c-4.21-5.38-3.87-12.16.83-16.49A13.07,13.07,0,0,0,597.75,42c.67-1.77,2.22-9.45-1.52-15.16a14.13,14.13,0,0,1,.92,2.16c2.11,6.36.08,13.46-4.94,17.27-3.15,2.44-8.68,5-16.76,3.1-8.67-1.92-13.35-10.28-12.38-17A16.4,16.4,0,0,1,570,20.92Zm7.7,50.2a6.07,6.07,0,0,0-1.61.2h0c-1.13.31-1.32,1.12-1.26,2.42v.15c.05,1.54,3.45,2,3.49,2A5.48,5.48,0,0,0,581,75l0-.06c.49-1.91,0-2.5-.75-3.25l-.08-.07A5.8,5.8,0,0,0,577.68,71.12Zm-26.93-18,0,0Zm31.56-19.78,0,0Z"/><path class="c" d="M638.07,112.51h-.51l-.75-.06c-7.23-.64-12.1-6.09-11.84-13.23.23-5.64,2.61-32.76,2.64-33,.71-8,6.26-12.74,14.15-12.18,4.4.27,20.38,2,22.76,2.22h.11a11.79,11.79,0,0,1,10.54,13.09,12,12,0,0,1-3.53,7.7,12.66,12.66,0,0,1,.84,6.29,12.22,12.22,0,0,1-12.23,10.58H660c-1.07,0-4-.28-8.82-.65-.08,1.07-.16,2.07-.21,3l0,.23c-.19,2.14-.3,3.82-.35,4.58,0,.31,0,.52,0,.59C650,107.7,644.48,112.51,638.07,112.51Z"/><path class="c" d="M706.49,118.84a12.24,12.24,0,0,1-11.84-8.54c-.18-.58-.53-1.6-1-2.9a12.44,12.44,0,0,1-24.32-2.63c-.1-1.81.41-7.22,3.5-31.77.27-2.18.47-3.76.54-4.35.81-7,5.86-11.38,13-11.29,4.43.07,17.24,2.2,21.06,2.85,10.23,1.68,17.61,11.93,16.1,22.38l0,.13A23.89,23.89,0,0,1,716,96.53a65.87,65.87,0,0,1,2.47,7.48,12.25,12.25,0,0,1-8.23,14.25l-.18.06A11.88,11.88,0,0,1,706.49,118.84Zm4.19-24.06-2.86,1.07,2.87-1.06Zm0,0v0l4-1.47v0Z"/><path class="c" d="M729.49,121.61a7.25,7.25,0,0,1-1.12-.09c-7.06-1-11.43-7.23-10.65-15.23.12-1.34,2.92-27.71,4.14-32.31h0a12.88,12.88,0,0,1,14.29-9.34,12.75,12.75,0,0,1,8.37,5l.06.08a12.21,12.21,0,0,1,2.23,9.5c-.27,1.5-1.37,10.69-2,15.63l-.18,1.49c-1,8-1.53,12.68-1.79,14.12-1.79,10.13-9.12,11.3-13,11.18Z"/><path class="c" d="M752.66,126.69a11.5,11.5,0,0,1-2.42-.26l-.16,0c-6.43-1.6-10.63-6.91-10.26-13a12.2,12.2,0,0,1,4.77-8.84,12.54,12.54,0,0,1,10.46-2.3c6.81,1.39,10.81,7.28,9.73,14.33a11.94,11.94,0,0,1-5.22,7.89A12.27,12.27,0,0,1,752.66,126.69Zm-.63-9.93a2.24,2.24,0,0,0,.38,0l1.06-4.77a3,3,0,0,0-2.24.3,3.14,3.14,0,0,0-1.06,2.07A3,3,0,0,0,752,116.76Zm1.54-4.74-1.13,4.74a2.29,2.29,0,0,0,1.19-.47,2.69,2.69,0,0,0,1-2A2.46,2.46,0,0,0,753.57,112Z"/><path class="c" d="M182.81,129.33a14.06,14.06,0,0,1-6.77-2,11.34,11.34,0,0,1-5.55-7.5c-1.19-6.12,2.19-10,6.85-15.48l1.48-1.74c1-1.18,2.47-2.88,3.88-4.64a12.86,12.86,0,0,1-7.94.91A11.66,11.66,0,0,1,166.67,93a13.13,13.13,0,0,1-.23-11.48c3.07-7.43,12.57-14.36,24.84-13.27,12.78,1.16,20.67,12.3,20.66,22a28.7,28.7,0,0,1-2.46,12.52,11.72,11.72,0,0,1,8.33,9.34,10.85,10.85,0,0,1-1.48,8.48c-2,3-5.36,4.81-10.19,5.51l-21.27,3.06A9.83,9.83,0,0,1,182.81,129.33Zm6.34-16-.25.29.37-.06Z"/><path class="c" d="M239.64,122.76a26.65,26.65,0,0,1-14.15-4c-9.83-6.1-15.21-16.92-14.76-29.67a28.68,28.68,0,0,1,25.53-26.9A27.71,27.71,0,0,1,263.9,77.11h0c5.28,10.33,4.74,28.4-4.49,37.82A28.4,28.4,0,0,1,239.64,122.76Zm-.47-36.12H239c-.67,0-2.57.85-2.89,1.9-1.8,6,1.26,8.27,1.3,8.29,1.48.89,3.34.91,4.27,0s1.21-4.42.25-7.53A4.21,4.21,0,0,0,239.17,86.64Z"/><path class="c" d="M278.65,117.77a13.79,13.79,0,0,1-7.24-2.37,11.31,11.31,0,0,1-5.11-7.8c-.83-6.18,2.76-9.91,7.73-15.07l1.58-1.64c1.08-1.13,2.63-2.74,4.14-4.42a12.83,12.83,0,0,1-8,.45A11.63,11.63,0,0,1,264,80.55a13.11,13.11,0,0,1,.44-11.48C268,61.83,277.84,55.45,290,57.25,302.72,59.14,310,70.72,309.4,80.36a28.81,28.81,0,0,1-3.19,12.35,11.68,11.68,0,0,1,7.79,9.81,10.85,10.85,0,0,1-2,8.38c-2.19,2.89-5.62,4.5-10.49,4.92l-21.42,1.84A9.18,9.18,0,0,1,278.65,117.77Zm6.66-15.65-.26.28.37,0C285.38,102.29,285.35,102.21,285.31,102.12Z"/><path class="c" d="M323.71,114.18a13.6,13.6,0,0,1-7.41-2.55,11.31,11.31,0,0,1-4.93-7.92c-.68-6.2,3-9.84,8.09-14.88l1.61-1.61c1.11-1.09,2.7-2.67,4.24-4.31a12.77,12.77,0,0,1-8,.26,11.62,11.62,0,0,1-7.59-6.55,13.14,13.14,0,0,1,.71-11.47c3.66-7.15,13.7-13.29,25.83-11.21,12.64,2.19,19.61,13.93,18.82,23.56a28.64,28.64,0,0,1-3.48,12.27,12,12,0,0,1,3.43,2,11.73,11.73,0,0,1,4.13,8,10.85,10.85,0,0,1-2.17,8.33c-2.26,2.84-5.73,4.37-10.6,4.67L325,114.1A10.63,10.63,0,0,1,323.71,114.18Zm6.8-15.49-.27.27.37,0A2.44,2.44,0,0,1,330.51,98.69Z"/><path class="c" d="M371.17,113h-.42c-6.61-.31-11.78-4.7-12.59-10.7a12.13,12.13,0,0,1,2.94-9.6,12.65,12.65,0,0,1,9.8-4.31c7,0,12,5,12.35,12.15A12.44,12.44,0,0,1,371.17,113Zm0-14.78a2.92,2.92,0,0,0-2.05.73,3.15,3.15,0,0,0-.64,2.23,3,3,0,0,0,2.3,2,1.48,1.48,0,0,0,.37-.06l.11-4.88Zm.19,0-.18,4.87a2.32,2.32,0,0,0,1.07-.7,2.72,2.72,0,0,0,.54-2.16A2.4,2.4,0,0,0,371.36,98.18Z"/><path class="c" d="M409.66,109.46h-.51c-7.75-.34-16.26-5.78-17.67-15.55-.51-3.5-.71-18.51-.88-45v-.58c-12.54,0-16.65-7.69-17.86-11.09-4.71-12.89,6.18-20.35,9.76-22.8l.54-.37c8.47-5.77,17.24-11.73,28.78-9.5,15.19,3,15.57,18.8,15.72,24.75s.59,57.5.21,63.8C427.29,102.64,418,109.46,409.66,109.46Zm-2.84-64.85,0,4.22c.08,11.74.26,39.25.71,42.77.18,1.19,1.73,1.54,2.12,1.6a3.7,3.7,0,0,0,1.85-1c.31-4.91,0-54.48-.23-62.4-.22-8.73-1.65-9-2.6-9.2-4.64-.9-9.08,1.92-16.52,7l-.52.35a13.9,13.9,0,0,0-3.8,3.37c0,.1.08.25.15.44v0a5.78,5.78,0,0,0,2.26.38c.22-.05.6-.14,1-.28a11.52,11.52,0,0,1,10.39,1.73A13.41,13.41,0,0,1,406.82,44.61Z"/><path class="c" d="M446.26,107.72c-.26,0-.52,0-.78,0h-.15c-8.07-.68-14.16-6.14-14.85-13.3a14.34,14.34,0,0,1,3.93-11.18,15.08,15.08,0,0,1,12-4.69c8.41.35,14.09,6.41,14.15,15.11a14.22,14.22,0,0,1-4.63,10.06A14,14,0,0,1,446.26,107.72ZM443.82,93v0c0,.22.65,1,2.39,1.22a2.49,2.49,0,0,0,.91-.89,3,3,0,0,0-.34-1.35h0a2.51,2.51,0,0,0-.95-.16h-.11C444.15,91.82,443.86,92.82,443.82,93Z"/><path class="c" d="M523.73,108.77h-.8L480.85,108c-4.55.29-9.25-2.16-12.25-4.67a15.78,15.78,0,0,1-6.08-11.52c-.28-9.1,5.42-13.91,15.77-22.63l3.38-2.87C489.4,59.81,501.08,50,503,44.14c1.24-3.66.17-4-1.07-4.5-3.32-1.19-4.71-.7-4.86-.64-1.36.54-1.54.83-1.79,1.23l-.1.16a18.39,18.39,0,0,1-22,6.85,16.45,16.45,0,0,1-10-10.06c-1.83-5.29-.92-11.25,2.55-16.8,6.84-11.09,24.91-20.1,45-15C531.52,10.74,541.56,31.13,539,47,536.83,60.71,531.71,68.3,525.47,75h.12c10.32.19,17.72,7.3,17.76,17a14.73,14.73,0,0,1-3.8,11.35C536.13,107,531,108.77,523.73,108.77Zm-43.28-17h.24l42.53.76a17.39,17.39,0,0,0,3.88-.28v-.12c0-.29,0-.82-1.8-.85-4.71-.08-12-.39-14.14-.48-7.61-.38-10.08-4.5-10.88-6.92-.48-1.46-1.63-6.58,3.84-11.07,1.73-1.39,4-3.46,6.74-6,7.18-7.2,10.44-11.92,12.07-22.35,1.26-7.72-3.68-20-16.2-23.26-13.18-3.36-24,2.65-27.13,7.78l-.05.07c-1.09,1.75-1,2.73-1,2.88a.64.64,0,0,0,.2.11l.21.08a2.15,2.15,0,0,0,2.54-.52A18.68,18.68,0,0,1,491,23.91c3.22-1.3,8.73-2.31,16.39.44,10.36,3.74,14.77,13.75,11,24.92-3.31,10.12-15.5,20.4-26.24,29.48-1.16,1-2.29,1.93-3.35,2.84-4,3.4-8.95,7.54-9.9,9.2A6,6,0,0,0,480.45,91.76Z"/><path class="c" d="M580.87,112.25c-8.87,0-18.35-2.24-25.9-8.43-10.93-9-14.87-19.62-12.41-33.36a31.4,31.4,0,0,1,9-16.23,27.08,27.08,0,0,1-3.89-15.09c.41-13.59,7.16-24.24,18.52-29.24,12.11-5.32,32.26-3.47,42.94,7.77,11,11.35,9,27.19,6.43,34a24.51,24.51,0,0,1-4.45,7.11,37.75,37.75,0,0,1,6.73,15.91c2.38,15.59-6.44,30.4-21,35.16A53.92,53.92,0,0,1,580.87,112.25ZM572.6,24.84c-5.56,2.51-8.48,7.5-8.68,14.84v.21a12.32,12.32,0,0,0,2.68,7.71,12,12,0,0,1-1.91,16.61c-2,1.67-5.37,5.08-6.14,9.17-1.23,6.94-.53,11.87,6.75,17.89,3.79,3.11,8.89,4.52,14.06,4.74-8.54-.8-17.84-6.65-18.19-17.66s6.8-17,13.2-18.77c5.82-1.61,14.44-1,19.71,4.25a18.78,18.78,0,0,1,5.28,18.92c-2,8.68-10.43,12.7-17,13.26a37.07,37.07,0,0,0,9.49-1.65c7-2.29,11.09-9.41,9.89-17.29-.48-3.29-2.35-7.09-5.29-10.75l-.07-.08c-4.21-5.39-3.87-12.17.82-16.49a13.16,13.16,0,0,0,3.14-3.88c.67-1.77,2.22-9.44-1.53-15.15a13.28,13.28,0,0,1,.93,2.16c2.11,6.36.08,13.45-4.95,17.27-3.15,2.44-8.67,5-16.76,3.1-8.66-1.93-13.34-10.28-12.37-17A16.44,16.44,0,0,1,572.6,24.84Zm7.7,50.21a6.07,6.07,0,0,0-1.61.2h0c-1.14.31-1.32,1.13-1.26,2.43v.14c0,1.55,3.45,2,3.49,2a5.37,5.37,0,0,0,2.68-1l0-.06c.49-1.91,0-2.51-.76-3.26l-.07-.06A5.84,5.84,0,0,0,580.3,75.05ZM553.36,57l0,0Zm31.57-19.78,0,0Z"/><path class="c" d="M640.45,116.08H640l-.76-.06c-7.23-.64-12.1-6.09-11.84-13.23.23-5.64,2.61-32.76,2.64-33,.71-8,6.26-12.74,14.15-12.18,4.4.27,20.38,2,22.76,2.22H667a11.79,11.79,0,0,1,10.54,13.09,12,12,0,0,1-3.53,7.7,12.54,12.54,0,0,1,.84,6.29,12.22,12.22,0,0,1-12.23,10.58h-.21c-1.07-.06-4-.29-8.82-.66-.08,1.07-.16,2.07-.21,3l0,.23c-.19,2.15-.3,3.82-.35,4.58,0,.32,0,.52,0,.6C652.43,111.28,646.86,116.08,640.45,116.08Z"/><path class="c" d="M708.87,122.41A12.25,12.25,0,0,1,697,113.88c-.18-.58-.53-1.61-1-2.9a12.44,12.44,0,0,1-24.32-2.64c-.1-1.8.41-7.21,3.5-31.77.28-2.18.47-3.76.54-4.35.82-7,5.86-11.38,13-11.29,4.43.07,17.24,2.2,21.06,2.85,10.23,1.69,17.61,11.94,16.1,22.38l0,.13a23.84,23.84,0,0,1-7.53,13.81,66.54,66.54,0,0,1,2.47,7.48,12.25,12.25,0,0,1-8.23,14.26l-.18,0A11.83,11.83,0,0,1,708.87,122.41Zm4.19-24.06-2.86,1.07,2.87-1.06Zm0,0h0l4-1.47v0Z"/><path class="c" d="M731.88,125.18a9.43,9.43,0,0,1-1.13-.08c-7.06-1-11.43-7.24-10.65-15.24.12-1.34,2.92-27.71,4.14-32.31h0a12.88,12.88,0,0,1,14.29-9.34,12.72,12.72,0,0,1,8.37,5l.06.08a12.21,12.21,0,0,1,2.23,9.5c-.27,1.5-1.37,10.69-2,15.63L747,99.87c-1,8-1.53,12.68-1.79,14.13-1.79,10.12-9.12,11.29-13,11.17Z"/><path class="c" d="M755,130.26a10.87,10.87,0,0,1-2.42-.26l-.16,0c-6.43-1.59-10.63-6.91-10.26-13a12.24,12.24,0,0,1,4.77-8.85,12.58,12.58,0,0,1,10.46-2.3c6.81,1.39,10.81,7.28,9.73,14.33a12,12,0,0,1-5.21,7.89A12.33,12.33,0,0,1,755,130.26Zm-.63-9.93a2.24,2.24,0,0,0,.38,0l1.06-4.77a3,3,0,0,0-2.24.3,3.16,3.16,0,0,0-1.06,2.07A3,3,0,0,0,754.41,120.33Zm1.54-4.74-1.13,4.74a2.26,2.26,0,0,0,1.19-.47,2.69,2.69,0,0,0,1-2A2.47,2.47,0,0,0,756,115.59Z"/><path class="b" d="M180.45,121.47a9.68,9.68,0,0,1-4.61-1.36,7.08,7.08,0,0,1-3.53-4.64c-.79-4.08,1.44-6.69,5.9-11.88l1.48-1.73c3.46-4,8.69-10.14,9.22-13.54.5-3-1-3.25-1.77-3.4-2-.37-2.95,0-3.26.21-.95.56-1.1.92-1.24,1.27a8.4,8.4,0,0,1-9.42,4.74,7.38,7.38,0,0,1-5.16-3.75,8.93,8.93,0,0,1,0-7.83c2.38-5.81,10.39-11.53,20.5-10.63a18.42,18.42,0,0,1,16.76,17.69c.05,8-2.54,12.29-5.67,16.65l-.06.08L202,103a8.41,8.41,0,0,1,6.17,1.34,7.52,7.52,0,0,1,3,5,6.53,6.53,0,0,1-.83,5.27c-1.31,2-3.68,3.15-7.25,3.66l-21.45,3.09A5.27,5.27,0,0,1,180.45,121.47Zm5.16-42.93a14.82,14.82,0,0,1,2.67.26c5,.94,7.68,5.07,6.77,10.51-.8,5.12-6,11.22-10.63,16.6l-1.48,1.72c-3.79,4.42-4.71,5.66-4.52,6.65a3.42,3.42,0,0,0,1.93,1h0l21.88-3.15c2.46-.35,3-1,3-1a1.89,1.89,0,0,0-.08-.45l-.06-.31a1.33,1.33,0,0,0-.51-.93,2.38,2.38,0,0,0-1.67-.25c-2.36.34-6.1.79-7.18.92-3.26.36-4.55-1.13-5-2-.36-.7-1-2.58.9-4.74.78-.88,1.79-2.12,3-3.72,3.1-4.32,4.5-7.24,4.46-12.94A12.25,12.25,0,0,0,188,75.13c-7.49-.66-12.9,3.68-14.19,6.83a3,3,0,0,0-.23,2.48,1.19,1.19,0,0,0,.85.59h.09A2.14,2.14,0,0,0,176.92,84a8.45,8.45,0,0,1,3.75-4.15A9.36,9.36,0,0,1,185.61,78.54Z"/><path class="b" d="M237.33,115a22.6,22.6,0,0,1-12-3.36c-8.61-5.36-13.13-14.55-12.74-25.89A24.35,24.35,0,0,1,234.3,62.9a23.48,23.48,0,0,1,23.42,12.59h0c4.61,9,4,25-3.74,32.88A23.94,23.94,0,0,1,237.33,115ZM236.74,69q-.92,0-1.83.09c-9.55.92-15.77,9.46-16.07,16.83-.18,5.21.85,14.8,9.81,20.37,7.12,4.42,16.39,2.25,20.9-2.3,5.12-5.23,6.45-18.19,2.63-25.68A17.21,17.21,0,0,0,236.74,69Zm.66,35.43a15.16,15.16,0,0,1-7.79-2.2c-3.53-2.12-9.29-9.1-5.92-20.29,1.91-6.35,8.62-9.31,12.77-9.38,5.5-.21,11.18,4.06,13.11,10s1.65,13.88-3,18.33h0A13.21,13.21,0,0,1,237.4,104.44Zm-.61-25.65h-.16c-1.91,0-6,1.56-7,4.95-2.35,7.82,1.49,12.16,3.16,13.17,3.22,1.93,7.12,1.71,9.48-.55,2.54-2.45,2.59-8,1.35-12C242.53,81,239.24,78.79,236.79,78.79Z"/><path class="b" d="M276.29,109.92a9.44,9.44,0,0,1-4.87-1.64,7.12,7.12,0,0,1-3.26-4.83c-.55-4.12,1.83-6.6,6.58-11.52l1.57-1.65c3.69-3.83,9.26-9.62,10-13,.66-2.94-.79-3.3-1.58-3.49-2-.49-2.94-.15-3.26,0-1,.51-1.15.86-1.31,1.2a8.41,8.41,0,0,1-9.68,4.19,7.4,7.4,0,0,1-4.94-4,9,9,0,0,1,.41-7.82c2.72-5.67,11-10.92,21.08-9.44a18.42,18.42,0,0,1,15.72,18.63c-.41,8-3.24,12.12-6.62,16.29l-.06.08,2.48-.19c4.69-.41,8.38,2.45,8.84,6.81a6.5,6.5,0,0,1-1.14,5.21c-1.42,1.88-3.85,2.94-7.45,3.24l-21.59,1.86A5.5,5.5,0,0,1,276.29,109.92Zm6.58-42.6a14.5,14.5,0,0,1,3.35.43c5,1.23,7.37,5.5,6.15,10.89-1.09,5.06-6.66,10.85-11.57,16-.55.56-1.07,1.11-1.57,1.63-4,4.2-5,5.38-4.9,6.39a3.5,3.5,0,0,0,1.87,1.06l.29,0,21.77-1.87c2.48-.21,3-.79,3-.8h0s0-.16-.06-.45l0-.31c-.1-1.22-1.2-1.38-2.11-1.3-2.39.2-6.14.43-7.23.5-3.26.17-4.47-1.39-4.89-2.33-.33-.73-.87-2.63,1.16-4.68.84-.83,1.91-2,3.21-3.55,3.34-4.13,4.91-7,5.2-12.66a12.25,12.25,0,0,0-10.42-12.13c-7.45-1.1-13.1,2.93-14.57,6a3.09,3.09,0,0,0-.37,2.47,1.17,1.17,0,0,0,.82.63l.08,0a2.15,2.15,0,0,0,2.51-1,8.39,8.39,0,0,1,4-3.93A9.08,9.08,0,0,1,282.87,67.32Z"/><path class="b" d="M321.35,106.32a9.31,9.31,0,0,1-5-1.75,7.06,7.06,0,0,1-3.14-4.91c-.46-4.13,2-6.55,6.84-11.36.5-.51,1.05-1,1.62-1.61,3.77-3.74,9.48-9.4,10.28-12.75.74-2.92-.71-3.32-1.49-3.53-2-.53-2.94-.22-3.26,0-1,.48-1.17.83-1.34,1.16a8.41,8.41,0,0,1-9.77,4,7.42,7.42,0,0,1-4.85-4.15,9,9,0,0,1,.6-7.81c2.85-5.6,11.29-10.66,21.3-9a18.44,18.44,0,0,1,15.27,19c-.6,8-3.53,12-7,16.13l-.06.07,2.49-.13a8.38,8.38,0,0,1,6,1.83,7.52,7.52,0,0,1,2.63,5.19,6.51,6.51,0,0,1-1.25,5.18c-1.47,1.84-3.93,2.84-7.53,3.07l-21.63,1.34A4.93,4.93,0,0,1,321.35,106.32Zm7.18-42.43a13.76,13.76,0,0,1,3.61.52c4.93,1.34,7.24,5.67,5.9,11-1.22,5-6.92,10.69-12,15.68l-1.61,1.6c-4.14,4.1-5.16,5.26-5.05,6.27a3.5,3.5,0,0,0,1.85,1.11h0l22.07-1.37c2.48-.16,3-.73,3-.74a2.23,2.23,0,0,0,0-.44l0-.32a1.32,1.32,0,0,0-.43-1,2.42,2.42,0,0,0-1.65-.38c-2.38.15-6.14.29-7.23.33-3.13.09-4.35-1.28-4.84-2.44-.31-.74-.81-2.66,1.27-4.66.86-.81,2-2,3.29-3.46,3.44-4.06,5.07-6.85,5.5-12.54a12.25,12.25,0,0,0-10.13-12.37c-7.42-1.28-13.16,2.62-14.71,5.66a3.13,3.13,0,0,0-.43,2.46,1.19,1.19,0,0,0,.81.65l.08,0a2.15,2.15,0,0,0,2.53-.89,8.43,8.43,0,0,1,4.07-3.84A9,9,0,0,1,328.53,63.89Z"/><path class="b" d="M368.8,105.11h-.16c-4.59-.22-8.1-3.1-8.63-7a7.86,7.86,0,0,1,1.94-6.2,8.32,8.32,0,0,1,6.4-2.83h.16c5.32,0,7.9,4,8.08,8.06a7.77,7.77,0,0,1-2.34,5.58A7.68,7.68,0,0,1,368.8,105.11Zm-.41-9.84a2.19,2.19,0,0,0-1.75.7,1.73,1.73,0,0,0-.47,1.19v.09c.1.76,1.05,1.56,2.67,1.64h0c.64,0,1.48-1.07,1.51-1.53C370.28,95.21,369.13,95.26,368.39,95.27Z"/><path class="b" d="M407,100.83h-.32c-4.67-.2-12-3.43-13.18-11.52-.51-3.55-.69-23.85-.82-44.33l0-4.26c0-1.28-.35-1.77-.44-1.82l-.1,0a17.06,17.06,0,0,1-3.95.8h-.09c-9.33,0-12.48-5-13.53-8-2.41-6.55.06-11.89,8-17.33l.53-.35c8-5.47,15.62-10.64,25.24-8.78,11.47,2.26,11.77,14.41,11.91,20.25.15,6.07.59,57.67.22,63.47C420.12,96.32,412.4,100.83,407,100.83ZM392.23,32.06a6.84,6.84,0,0,1,4.07,1.34,8.69,8.69,0,0,1,3.2,7.31l0,4.22c.09,13,.26,40,.76,43.4.64,4.41,5.14,5.59,6.67,5.66h.11c2.2,0,6.4-2.18,6.53-5.35.34-5.24,0-55.55-.22-62.93-.19-7.92-1.3-12.7-6.38-13.7-6.82-1.32-12.67,2.67-20.08,7.71l-.52.36c-7.08,4.84-6.16,7.33-5.42,9.33l0,.06c.79,2.27,3.15,3.41,7,3.41h0a12.39,12.39,0,0,0,2.08-.49A7.23,7.23,0,0,1,392.23,32.06Z"/><path class="b" d="M443.64,99.92l-.54,0c-6.24-.52-10.88-4.57-11.38-9.84a10.59,10.59,0,0,1,2.9-8.12,11.29,11.29,0,0,1,9-3.47c7.62.3,10.39,6.25,10.42,11.26a11,11,0,0,1-10.4,10.19Zm-.71-15.82a5.48,5.48,0,0,0-4.19,1.71,4.87,4.87,0,0,0-1.41,3.63v.07c.18,2.06,2.19,4.43,6.17,4.76a4.6,4.6,0,0,0,3.23-1.42,4.92,4.92,0,0,0,1.66-3.08c0-3.63-1.72-5.53-5-5.66Z"/><path class="b" d="M521.13,100.14h-.73l-42.31-.75c-3,.27-6.69-1.57-9.09-3.57a11.23,11.23,0,0,1-4.4-8.07c-.2-6.82,4.28-10.6,14.11-18.88,1.06-.91,2.2-1.88,3.38-2.87,8.62-7.28,20.42-17.24,22.74-24.33,1.8-5.3.47-8.79-3.95-10.38-4.22-1.51-6.79-1.15-8.21-.58a7.23,7.23,0,0,0-4,3.12,13.7,13.7,0,0,1-16.41,5.08,11.76,11.76,0,0,1-7.18-7.2c-1.36-3.92-.61-8.46,2.11-12.79C473.08,9.27,489.06,1.46,507,6c18.18,4.67,27,22.45,24.74,36.24-2.29,14.68-8.06,21.45-15.37,28.78-1.76,1.68-3.34,3.15-4.74,4.38,3.87.16,8.32.32,11.28.37,7.67.14,13.17,5.35,13.14,12.42a10.12,10.12,0,0,1-2.53,8C531,98.85,527,100.14,521.13,100.14Zm-43.36-7.61H478l42.53.76c5.4.08,7.32-1.08,8-1.78.37-.4.84-1.12.69-2.9v-.35c.06-3.4-2.4-5.56-6.41-5.63-4.66-.08-11.91-.39-14-.48-3.65-.18-5.87-1.42-6.62-3.69-.39-1.18-.6-3.53,2.36-6,1.83-1.48,4.2-3.61,7.07-6.35,6.57-6.59,11.42-12.28,13.4-25,1.49-9.1-3.74-24.43-19.68-28.53C489.62,8.67,477,16,473,22.53c-1.61,2.57-2.12,5-1.46,7a4.89,4.89,0,0,0,3.07,3l.09,0a6.8,6.8,0,0,0,8.2-2.36,14,14,0,0,1,7.26-5.79c2.49-1,6.81-1.76,13.07.49,8,2.89,11.11,10.16,8.13,19S496.27,63,486.5,71.23l-3.36,2.86c-9.72,8.19-11.8,10.25-11.7,13.45.08,2.48,4.5,5,6,5h0Z"/><path class="b" d="M578.22,103.64c-7.89,0-16.27-2-22.89-7.38-9.73-8-12.94-16.68-10.76-28.9,1.35-7.23,6.19-12.62,10-15.88a1.15,1.15,0,0,0,.35-.4,2.13,2.13,0,0,0-.36-.69c-3.47-4.88-5.08-9.92-4.82-15,.34-11.89,5.92-20.81,15.71-25.12,10.43-4.58,28.45-3,37.64,6.7,8.66,9,8,22.31,5.43,29.08-1.43,3.75-4.76,7-6.12,8.27h0a2.46,2.46,0,0,0,.48.86c3,3.68,6.71,9.51,7.68,16.22,2,13.34-5.44,26-17.79,30A49.19,49.19,0,0,1,578.22,103.64Zm.27-89a26.18,26.18,0,0,0-10.27,1.88c-9.28,4.08-11.45,12.63-11.62,19.08v.08a16.93,16.93,0,0,0,3.55,10.69c2.54,3.5,2.1,7.55-1.12,10.29-3,2.54-6.74,6.66-7.72,11.9-1.44,8.08-.57,15,8.38,22.38,8.36,6.86,21.6,6.93,31,4s14.68-12.29,13.12-22.49c-.75-5.21-3.83-9.93-6.27-13-2.71-3.46-2.59-7.53.27-10.17a17.1,17.1,0,0,0,4.35-5.66c1.25-3.3,3.21-14.44-4-21.9C593.63,17,585.71,14.67,578.49,14.67Zm-.33,72.78c-.32,0-.63,0-.92,0-6.58-.59-13.77-5-14-13.19s5-12.73,9.75-14,11.42-.66,15.19,3.09c4,3.82,5.41,8.82,4,14.43C590.51,84.84,582.72,87.45,578.16,87.45Zm-.45-21a10.68,10.68,0,0,0-2.9.37h0c-1.5.41-5,1.93-4.72,7.18.16,5.87,7.46,6.59,7.77,6.62,1.79.16,6.86-1,7.65-4.44l0-.09c.82-3.23.16-5.72-2.09-7.84l-.07-.08C582.28,67.05,580,66.42,577.71,66.42Zm3.22-21.13a19.39,19.39,0,0,1-4.47-.56,11.14,11.14,0,0,1-8.72-11.8A11.89,11.89,0,0,1,580,22.63h0c9.68.18,12.23,6.45,12.67,7.79,1.47,4.41.08,9.48-3.32,12.06A13.46,13.46,0,0,1,580.93,45.29Zm-1-15.82c-4.88,0-5.38,4.11-5.4,4.29l0,.18A4.46,4.46,0,0,0,578,38.06c4.06,1,6.06-.12,7.22-1a4.31,4.31,0,0,0,1-4.47l0-.06c-.1-.3-1.09-3-6.22-3.05Z"/><path class="b" d="M638.05,108.23h-.32l-.53,0c-3.8-.34-8.17-2.85-8-8.82.2-5.12,2.31-29.32,2.62-32.8.51-5.68,4-8.69,9.63-8.29,4.21.25,20.18,1.94,22.54,2.2a7.55,7.55,0,0,1,6.87,8.47,7.39,7.39,0,0,1-5.37,6.74,6.41,6.41,0,0,1,.84.81l.07.08a8.18,8.18,0,0,1,1.78,6.22,8,8,0,0,1-7.74,6.82h-.24c-1.13,0-5-.36-9.15-.68l-3.79-.3h0a1.41,1.41,0,0,1,0,.18c-.08,1.2-.17,2.43-.26,3.58s-.19,2.5-.25,3.55V96c-.19,2.19-.31,3.9-.36,4.67,0,.26,0,.44,0,.5C645.94,105.61,641.79,108.23,638.05,108.23Zm0-6.22h0c.88,0,2-.62,2.08-1.36l0-.36c.05-.79.17-2.53.37-4.76.06-1.07.15-2.3.26-3.61.08-1.14.17-2.35.26-3.59.35-4,3-6.22,6.77-5.9l3.77.29c3.83.3,7.79.61,8.91.67A1.72,1.72,0,0,0,662.05,82a2,2,0,0,0-.37-1.43.55.55,0,0,0-.38-.2c-.78-.05-2.44-.21-4.7-.42-2.51-.24-5.63-.54-8.26-.75h0c-2.69-.24-4.48-1.09-5.48-2.58a4.45,4.45,0,0,1-.57-3.75,5.38,5.38,0,0,1,5.27-4.34h.21l6.91.61c3.66.33,6.55.59,7.87.65,2.07.15,2.14-.75,2.2-1.41.14-1.54-.9-1.67-1.4-1.73-3.09-.34-18.35-1.94-22.23-2.17-2.07-.15-2.8.21-3,2.64-.3,3.28-2.41,27.57-2.6,32.48,0,.76-.08,2.17,2.29,2.38Zm4.17-28.82v0Z"/><path class="b" d="M706.53,114.56a8.12,8.12,0,0,1-7.8-5.56c-.54-1.68-2.33-6.9-4.05-11.7l0-.07c0-.15-.1-.32-.15-.49a1.91,1.91,0,0,0-.1-.34,2.28,2.28,0,0,0-.52-.06h-.08c-.95-.06-1.8-.18-2.55-.28l-.32,0-.23,2c-.46,4-.79,6.8-1.1,8a8.16,8.16,0,0,1-16-1.51c-.09-1.71.85-10.11,3.48-31,.27-2.2.47-3.79.54-4.39.55-4.69,3.87-7.57,8.64-7.5,4.22.07,17.74,2.33,20.41,2.79,8,1.31,13.76,9.35,12.57,17.54a19.09,19.09,0,0,1-8.44,13,102.13,102.13,0,0,1,3.41,9.89,8,8,0,0,1-5.41,9.31l-.08,0A7.46,7.46,0,0,1,706.53,114.56Zm-6-19.3c1.73,4.84,3.54,10.12,4.1,11.85a2,2,0,0,0,2.23,1.19,1.77,1.77,0,0,0,1.26-2.1c-.27-1.29-1.91-5.67-3.22-9.2-1.59-3.73.58-6,2.68-7.32,3.14-1.87,5-5.69,5.51-8.66a9.47,9.47,0,0,0-7.45-10.46c-9.14-1.55-17.14-2.66-19.47-2.7-1.78,0-2.21.66-2.37,2-.07.6-.27,2.21-.55,4.44-.86,6.86-3.48,27.73-3.43,29.91,0,1.07,1.16,1.49,1.74,1.56a1.8,1.8,0,0,0,2-1.22c.24-1,.67-4.74.95-7.24l.24-2A6.13,6.13,0,0,1,686.93,91a5.49,5.49,0,0,1,4.17-1.2l1,.13c.67.09,1.36.19,2.1.24,5,.23,6,3.77,6.31,4.94C700.53,95.13,700.54,95.19,700.56,95.26Zm10-.45-2.76,1,2.76-1Zm-9-6.57-.54,0c-2.47-.12-7.23-.7-9.26-1l-.66-.08c-4.07-.47-4.54-3.21-4.44-4.86,0-1.06.33-3,.7-5.43.12-.76.22-1.38.25-1.67.36-3.08,2.49-4.85,5.41-4.51.09,0,8.26,1,11,1.6,4,.76,6.3,5.33,5.66,8.89C708.9,85.61,705.8,88.24,701.61,88.24Zm-8.53-7.08c2.07.25,6.25.74,8.32.85,1.11.06,1.92-.25,2.25-2,.1-.53-.44-1.57-.8-1.64-1.75-.38-6.58-1-9.17-1.35,0,.24-.07.51-.12.79C693.43,78.73,693.22,80.09,693.08,81.16Z"/><path class="b" d="M730.49,117.33c-.22,0-.44,0-.67,0a3.49,3.49,0,0,1-.88,0c-4.72-.65-7.52-4.9-7-10.57.28-3.07,3-28.22,4-31.69a8.58,8.58,0,0,1,15.09-2.85,8,8,0,0,1,1.49,6.28c-.28,1.59-1.35,10.52-2,15.85l-.18,1.49c-.94,7.75-1.53,12.58-1.76,13.88C738.31,111.63,737.3,117.33,730.49,117.33Zm-1-6.28.45,0c1.72.14,2.13.17,2.6-2.5v0c.22-1.14,1-7.43,1.71-13.51l.18-1.49c.91-7.6,1.76-14.56,2-16.18a1.8,1.8,0,0,0-.35-1.49,2.37,2.37,0,0,0-4.1.78c-.73,2.58-3.38,25.59-3.83,30.63C728.1,108.09,728,110.55,729.48,111.05Z"/><path class="b" d="M752.7,122.42a7.08,7.08,0,0,1-1.52-.17c-4.46-1.1-7.34-4.62-7.09-8.57a7.85,7.85,0,0,1,3.12-5.7,8.33,8.33,0,0,1,7-1.5c5.22,1,7,5.52,6.35,9.49a7.76,7.76,0,0,1-3.4,5A7.9,7.9,0,0,1,752.7,122.42Zm-.45-9.92a2,2,0,0,0-1.24.4,1.83,1.83,0,0,0-.7,1.08v.09c-.06.76.72,1.73,2.3,2.13.61.12,1.66-.76,1.79-1.21.32-2.06-.76-2.27-1.47-2.41A2.79,2.79,0,0,0,752.25,112.5Z"/><path class="e" d="M173.83,88.09c-2.72-.51-4.63-3.32-2.94-7.31,1.81-4.43,8.43-9.55,17.35-8.75a15.3,15.3,0,0,1,13.93,14.59c.05,6.84-1.9,10.39-5.09,14.83-1.11,1.47-2.23,2.88-3.15,3.91-1.08,1.23-.43,1.85,1.43,1.64,2.29-.27,5.26-.64,7.11-.91,3.2-.46,5.34,1.31,5.7,3.82.75,3-1.21,4.64-5.47,5.25l-21.63,3.12c-1.38.44-5.22-.91-5.71-3.4s1-4.3,5.21-9.26,10.66-12,11.41-16.82c.64-3.84-1-6.33-4.27-6.94a7.68,7.68,0,0,0-5.45.61,5.43,5.43,0,0,0-2.49,2.74A5.25,5.25,0,0,1,173.83,88.09Z"/><path class="f" d="M255,76.91c4.27,8.34,3.21,22.75-3.19,29.28-5.62,5.68-16.53,7.86-24.75,2.75s-11.6-13.85-11.28-23.13A21.34,21.34,0,0,1,234.6,66,20.46,20.46,0,0,1,255,76.91Zm-10.51,21.7c3.84-3.7,3.55-10.72,2.17-15.13-1.54-4.68-6.11-8-10.1-7.8-3.06,0-8.38,2.32-9.84,7.16-2.77,9.21,1.64,15,4.54,16.74C235.44,102.12,240.94,102,244.44,98.61Z"/><path class="e" d="M271.25,76.19c-2.68-.65-4.43-3.57-2.52-7.46,2.07-4.32,9-9.05,17.84-7.74a15.31,15.31,0,0,1,13.07,15.37c-.35,6.82-2.5,10.26-5.94,14.52-1.19,1.4-2.39,2.74-3.37,3.71-1.15,1.17-.53,1.82,1.34,1.72,2.3-.14,5.28-.33,7.14-.49,3.23-.28,5.26,1.61,5.48,4.14.57,3-1.48,4.56-5.76,4.92l-21.78,1.88c-1.4.35-5.16-1.22-5.5-3.73s1.19-4.24,5.73-8.94S288.31,82.71,289.34,78c.86-3.8-.68-6.38-3.87-7.17a7.59,7.59,0,0,0-5.47.29,5.42,5.42,0,0,0-2.66,2.59A5.23,5.23,0,0,1,271.25,76.19Z"/><path class="f" d="M317,72.49c-2.67-.72-4.35-3.68-2.34-7.52,2.17-4.27,9.18-8.83,18-7.32a15.3,15.3,0,0,1,12.7,15.67c-.51,6.82-2.73,10.2-6.28,14.38-1.22,1.37-2.45,2.69-3.45,3.63-1.18,1.14-.58,1.81,1.29,1.75,2.31-.08,5.29-.21,7.16-.33,3.23-.2,5.22,1.74,5.38,4.27.5,3-1.59,4.53-5.88,4.79l-21.81,1.36c-1.42.32-5.14-1.33-5.42-3.85s1.3-4.21,5.94-8.81S333.88,79.4,335,74.67c1-3.77-.52-6.4-3.7-7.26a7.71,7.71,0,0,0-5.48.16,5.48,5.48,0,0,0-2.71,2.53A5.24,5.24,0,0,1,317,72.49Z"/><path class="c" d="M363.09,97.65a5.08,5.08,0,0,1,5.37-5.49c3.93,0,4.93,3,5,5.08a5,5,0,0,1-4.77,4.75C365.46,101.84,363.38,99.87,363.09,97.65Z"/><path class="e" d="M377.77,30.6c-1.43-3.87-1.28-7.88,6.7-13.35S399.25,7,407.66,8.65s9,10.1,9.14,17,.57,57.77.22,63.17-6.33,8.75-10.21,8.62c-3.4-.15-9-2.53-9.91-8.59-.58-4-.72-34.37-.82-48.13,0-4.12-2.57-5.78-5-5a13.52,13.52,0,0,1-3,.64C382.64,36.32,379.08,34.35,377.77,30.6Z"/><path class="c" d="M434.53,89.77a8.14,8.14,0,0,1,8.93-8.48c6.3.24,7.74,5.15,7.76,8.46s-3.75,7.59-8,7.33C438.07,96.65,434.85,93.36,434.53,89.77Z"/><path class="f" d="M473.43,35.7c-5.06-1.81-7.86-7.82-3.37-15C474.93,12.8,489.24,5,506.13,9.35s24.12,20.71,22.21,32.37c-2.05,13.15-6.89,19.37-14.41,26.91-2.59,2.48-5.18,4.84-7.27,6.52-2.46,2-1.39,3.42,2.24,3.59,4.48.2,10.29.42,13.93.48,6.3.11,9.86,4.19,9.77,9.12.5,6-3.78,8.53-12.14,8.38L477.93,96c-2.79.41-9.75-3.38-9.91-8.31s3.17-8,12.89-16.17,24.23-19.74,27.17-28.74c2.44-7.18,0-12.5-6-14.67-4.69-1.68-8.21-1.52-10.65-.53A10.63,10.63,0,0,0,485.73,32,10.19,10.19,0,0,1,473.43,35.7Z"/><path class="e" d="M553.18,35.53c.26-9.51,4.35-18,13.67-22.11s25.73-2.54,33.78,5.92,6.55,20.66,4.71,25.5a20.35,20.35,0,0,1-5.22,7c-1.53,1.41-1.52,3.47.07,5.51,2.51,3.12,6.11,8.47,7,14.6,1.8,11.81-4.6,22.72-15.46,26.27-9.63,3-24.34,3.53-34.22-4.57-9.65-8-11.29-16-9.56-25.64,1.18-6.37,5.69-11.18,8.86-13.88,1.91-1.62,2-3.68.55-5.71A20.51,20.51,0,0,1,553.18,35.53Zm20.72,28c-2.46.67-7.58,3.27-7.24,10.64s7.74,9.59,10.88,9.87,10-1.53,11.3-7.09c1.07-4.19.3-8-3.05-11.18C583.14,63.06,577.72,62.43,573.9,63.49Zm15.53-32c-.52-1.64-2.75-5.31-9.42-5.44s-8.65,5.17-8.88,7.34a7.73,7.73,0,0,0,6.12,8c3.72.89,7.13.61,10-1.65C589.69,37.93,590.37,34.29,589.43,31.49Z"/><path class="f" d="M648.58,76.1c5,.39,11.53,1.09,13,1.16a3.7,3.7,0,0,1,2.51,1.29,5,5,0,0,1,1.09,3.82,4.82,4.82,0,0,1-4.74,4.13c-1.43-.07-8-.6-12.85-1-2.92-.26-3.3,2-3.4,3-.18,2.71-.4,5.23-.52,7.23-.26,2.87-.38,4.93-.4,5.17-.23,2.64-3,4.28-5.37,4.19l-.38,0c-1.24-.11-5.3-.83-5.12-5.6.2-5,2.3-29.18,2.61-32.64.35-3.93,2.39-5.76,6.3-5.47s19.65,1.88,22.43,2.19a4.47,4.47,0,0,1,4.11,5.1c-.26,2.87-2.28,4.47-5.44,4.24-1.37-.06-4.1-.31-8-.66l-6.7-.6s-2.19.1-2.35,1.86C645.29,73.68,644.24,75.71,648.58,76.1Z"/><path class="e" d="M707.82,95.85c1.53,4.09,3,8.18,3.38,9.7a4.87,4.87,0,0,1-3.36,5.71,5,5,0,0,1-6.15-3.21c-.55-1.72-2.37-7-4.07-11.79-.33-1-.48-2.91-3.6-3-1.24-.09-2.35-.28-3.28-.39-1.6-.18-2.74,1-2.89,2.75-.39,3.33-.9,8.31-1.25,9.69a5,5,0,0,1-9.86-.91c-.14-2.56,3.65-31.82,4-34.87.41-3.45,2.63-4.79,5.51-4.75s12.12,1.42,19.92,2.74a12.64,12.64,0,0,1,10,14c-.65,4-3.12,8.53-7,10.8C706.87,93.78,707.47,95,707.82,95.85ZM691.51,84.1c1,.12,7,.88,9.73,1s4.86-1.39,5.47-4.46c.35-2-.94-4.85-3.27-5.3s-9.37-1.39-10.73-1.55-1.82.56-2,1.78c-.12,1-.89,5.53-.93,6.89S690.46,84,691.51,84.1Z"/><path class="f" d="M735.59,109.12c-.59,3.36-1.81,5.39-5.91,5.07a.58.58,0,0,1-.32,0c-3.64-.5-4.59-4.08-4.28-7.19.36-4,3.06-28.11,3.92-31.14a5.47,5.47,0,0,1,9.62-1.82,4.91,4.91,0,0,1,.91,3.87c-.28,1.56-1.17,8.93-2,16S735.84,107.78,735.59,109.12Z"/><path class="c" d="M747.2,113.85a5.08,5.08,0,0,1,6.34-4.33c3.85.78,4.24,3.94,3.93,6a5.06,5.06,0,0,1-5.61,3.73C748.7,118.43,747.05,116.09,747.2,113.85Z"/><path class="c" d="M574.52,75.39a4.8,4.8,0,0,1,5.27-5c3.71.14,4.55,3,4.56,5a4.77,4.77,0,0,1-4.68,4.32C576.61,79.45,574.71,77.51,574.52,75.39Z"/><path class="a" d="M858.8,173.82a41.73,41.73,0,0,1-27.61-10.14,40.54,40.54,0,0,1-9.56-12.05,13.69,13.69,0,0,1-5.84,1.21h0a21.26,21.26,0,0,1-11.25-3.42c-6.09-3.94-9.39-11.47-8.62-19.65,1-10.26,8.59-19.29,16.66-19.85,1.27-12.82,10.13-23.08,22.58-25.33a39,39,0,0,1,6.92-.63c9.9,0,17.84,3.87,22,10.51l4.08.08c9.44.19,16.8,4.43,20.73,11.93a28.85,28.85,0,0,1,3,14.49l1.6,4c.41,1,.76,2,1.08,3l.17-.08c-1.13-5.81,1.17-12.84,4.32-16.68l2.41-2.93,2.53,1.89a11.61,11.61,0,0,1,4.69-4.47,11.06,11.06,0,0,1,5.16-1.23,14.06,14.06,0,0,1,10.67,5.25,11.5,11.5,0,0,1,2.27,11.08,11.41,11.41,0,0,1,4.1,10.92,12.27,12.27,0,0,1-11,10.05l-2.18,1.26a15.68,15.68,0,0,1-8,2.21h0a16.15,16.15,0,0,1-8.06-2.2,17.28,17.28,0,0,1-5.55-5.32c.17,9.11-3.41,17.94-10.58,25.69C879.51,169.94,869.52,173.82,858.8,173.82ZM871,144.71a23.19,23.19,0,0,1-2,3,31.78,31.78,0,0,0,4.82-3.21,21.06,21.06,0,0,1-2.65.17Zm-42.41-7.59a37.2,37.2,0,0,0,2.91,3.59,21.47,21.47,0,0,1-.3-2.74C830.26,137.72,829.39,137.44,828.54,137.12Zm22.89,1a62.83,62.83,0,0,0,6.38.7l-1.16-1.52c-.63.05-1.28.08-1.95.08h0a25.92,25.92,0,0,1-4.77-.45Zm-36.64-13.52a23.43,23.43,0,0,0,3.81,14,21.19,21.19,0,0,1,.46-3.64l.71-3.35A23.56,23.56,0,0,1,814.79,124.56Z"/><path class="a" d="M835.74,113.32a16.79,16.79,0,0,0,12,19c9,2.81,18.67.28,20.68-8.77-8.7-1.29-18.54-12.61-16.68-20.11C842.17,102,836.9,106.39,835.74,113.32Zm30.42,5c2.55-1.42,4.23-5.42,1.59-10.39-2.12-4-9.23-4.83-12.09-1.06C855.89,110.8,860.71,116.75,866.16,118.28ZM861,136.39c4.21,5.54,16.6,6.89,22.87-2.53,7.49-11.27,5.84-34.91-15.8-35.34C878,104.27,878.21,131.69,861,136.39Zm-19.65-1.26c-11.93-9.45-12.81-22-7.57-29.71,6.64-9.71,18.37-10.1,28.23-6.24C858.42,90,847.31,86.43,835.87,88.5s-20.36,12.69-19.41,26.61C817.35,127.94,827.75,135.64,841.32,135.13Zm3.55,15.48a17.79,17.79,0,0,0,22.91-8.38c-9.55,1.87-25.28-.79-32.68-5.28C835.12,143.23,837.78,147.36,844.87,150.61ZM813,113.87c-5.6.3-12.23,7.11-13.11,16.28-.61,6.48,1.88,12.74,6.83,15.94,4.48,2.9,10.76,3.8,14.15,1.42C811.46,138.33,808.24,127.42,813,113.87Zm52,39.72c-12.46,3.49-30.44,1.78-42.06-17.81-2,9.2,3.5,18.45,10.86,24.91,15.31,13.44,38.76,10.92,48.81.05,10.2-11,11.58-23.21,7.14-34.28C886.59,140.23,875.15,150.9,865,153.59Zm32.58-22.68c.27,2.88,2.7,6.78,6.06,8.72a11.73,11.73,0,0,0,12.06,0C912.86,132.84,903.7,127.89,897.58,130.91Zm8.85-2.54c1.47-3.45.6-10.91-4.36-14.61-2.5,3-4.72,9.66-3.24,14.42A13.3,13.3,0,0,1,906.43,128.37Zm15.51-6c-4.25-2.16-9.53-1.37-12-.36a19.59,19.59,0,0,1-1,7.45,21.36,21.36,0,0,1,8.74,8.22c3.94.87,8.55-2.39,9.17-6.54C927.44,127.56,926.07,124.52,921.94,122.41Zm.91-2.5a7.49,7.49,0,0,0-1.48-7.68c-2.61-3.25-7.34-4.82-10.92-3a7.32,7.32,0,0,0-3.94,5.66c.83,1,2,2.66,3,4.09C913,117.77,919.06,117.9,922.85,119.91Z"/><path class="a" d="M822,174.81a16,16,0,0,1-5-8.45,19.14,19.14,0,0,1-12.27,4.41h0a20.11,20.11,0,0,1-4.42-.5l-3.43-.76.35-3.5a19.94,19.94,0,0,1,20-18.39,23,23,0,0,1,4.26.41l3.79.72-.15,1,2.1,2.1A16.65,16.65,0,0,1,832.31,164a14.9,14.9,0,0,1-5.07,10.77l-2.62,2.34ZM894.08,110l-1.33-.62a12.77,12.77,0,0,1-6.92-7.52,11.6,11.6,0,0,1,.86-9.23l1.67-3.09,3.27,1.29a12.3,12.3,0,0,1,4.84,3.41,14.74,14.74,0,0,1,10-5.67l3.49-.44.86,3.4a15.61,15.61,0,0,1-2,12.39,15.41,15.41,0,0,1-10.65,6.68l-1.81.29-.06.13-.19-.09-1.75.28Z"/><path class="a" d="M801.12,166.4c9,2,17.81-3.74,19.56-14.47C810.1,149.92,802,157.12,801.12,166.4Zm23.48,5.43c4.86-4.33,5.2-11.77-.24-17.21A11.38,11.38,0,0,0,824.6,171.83Zm82.33-79.37c-6.39.81-10.83,6.69-9.44,14.18A11.26,11.26,0,0,0,906.93,92.46Zm-16.75,2c-2.17,4-.63,9,4.25,11.27A8,8,0,0,0,890.18,94.47Z"/><path class="a" d="M72.18,173.82c-10.72,0-20.71-3.88-26.73-10.38-7.16-7.75-10.74-16.58-10.57-25.69a17.41,17.41,0,0,1-5.56,5.32,16.15,16.15,0,0,1-8.06,2.2h0a15.65,15.65,0,0,1-8-2.21L11.1,141.8A12.27,12.27,0,0,1,.15,131.75a11.4,11.4,0,0,1,4.1-10.92,11.52,11.52,0,0,1,2.27-11.08,14.06,14.06,0,0,1,10.67-5.25,11.06,11.06,0,0,1,5.16,1.23A11.61,11.61,0,0,1,27,110.2l2.53-1.89L32,111.24c3.15,3.84,5.45,10.87,4.32,16.68l.18.08c.31-1,.66-2,1.07-3l1.61-4a28.74,28.74,0,0,1,3-14.49C46.06,99,53.42,94.74,62.86,94.55l4.08-.08C71.07,87.83,79,84,88.9,84a39,39,0,0,1,6.92.63c12.45,2.25,21.32,12.51,22.58,25.33,8.08.56,15.68,9.59,16.66,19.85.78,8.18-2.53,15.71-8.62,19.65a21.2,21.2,0,0,1-11.25,3.42h0a13.72,13.72,0,0,1-5.84-1.21,40.54,40.54,0,0,1-9.56,12.05A41.71,41.71,0,0,1,72.18,173.82Zm-15-29.29a31.12,31.12,0,0,0,4.84,3.23,23.36,23.36,0,0,1-2-3h-.16A19.48,19.48,0,0,1,57.21,144.53ZM99.83,138a21.49,21.49,0,0,1-.29,2.74,38.72,38.72,0,0,0,2.9-3.59C101.59,137.44,100.72,137.72,99.83,138Zm-26.66.81a62.83,62.83,0,0,0,6.38-.7l1.5-1.19a25.84,25.84,0,0,1-4.77.45h0c-.66,0-1.32,0-2-.08ZM111.93,135a22.22,22.22,0,0,1,.45,3.64,23.43,23.43,0,0,0,3.81-14,23.56,23.56,0,0,1-5,7Z"/><path class="a" d="M62.52,123.51c2,9,11.65,11.58,20.68,8.77a16.79,16.79,0,0,0,12-19c-1.16-6.93-6.43-11.3-16-9.92C81.06,110.9,71.23,122.22,62.52,123.51Zm2.3-5.23c5.45-1.53,10.27-7.48,10.5-11.45-2.85-3.77-10-2.92-12.09,1.06C60.59,112.86,62.27,116.86,64.82,118.28ZM70,136.39c-17.24-4.7-17-32.12-7.07-37.87-21.64.43-23.29,24.07-15.8,35.34C53.41,143.28,65.8,141.93,70,136.39Zm27.22-31c5.24,7.67,4.36,20.26-7.57,29.71,13.57.51,24-7.19,24.86-20,1-13.92-8-24.55-19.41-26.61S72.57,90,69,99.18C78.87,95.32,90.6,95.71,97.23,105.42ZM86.11,150.61c7.09-3.25,9.75-7.38,9.77-13.66-7.4,4.49-23.13,7.15-32.68,5.28A17.79,17.79,0,0,0,86.11,150.61Zm45-20.46c-.88-9.17-7.51-16-13.1-16.28,4.74,13.55,1.51,24.46-7.88,33.64,3.39,2.38,9.67,1.48,14.15-1.42C129.23,142.89,131.73,136.63,131.11,130.15ZM66,153.59c-10.15-2.69-21.59-13.36-24.75-27.13-4.44,11.07-3,23.26,7.14,34.28,10.05,10.87,33.51,13.39,48.81-.05,7.36-6.46,12.83-15.71,10.87-24.91C96.42,155.37,78.44,157.08,66,153.59Zm-50.7-14a11.73,11.73,0,0,0,12.06,0c3.37-1.94,5.79-5.84,6.06-8.72C27.28,127.89,18.12,132.84,15.28,139.63Zm9.27-11.26a13.34,13.34,0,0,1,7.61-.19c1.47-4.76-.75-11.38-3.25-14.42C24,117.46,23.08,124.92,24.55,128.37ZM22,129.5a19.2,19.2,0,0,1-1-7.45c-2.42-1-7.71-1.8-12,.36s-5.49,5.15-5,8.77c.61,4.15,5.22,7.41,9.16,6.54A21.33,21.33,0,0,1,22,129.5ZM21.5,119c1-1.43,2.14-3.09,3-4.09a7.3,7.3,0,0,0-3.94-5.66c-3.57-1.84-8.31-.27-10.92,3a7.49,7.49,0,0,0-1.48,7.68C11.92,117.9,17.94,117.77,21.5,119Z"/><path class="a" d="M103.74,174.79A14.85,14.85,0,0,1,98.68,164a16.58,16.58,0,0,1,5.14-12.21l2.1-2.1-.15-1,3.79-.72a23,23,0,0,1,4.26-.41,19.94,19.94,0,0,1,20,18.39l.35,3.5-3.43.76a20.11,20.11,0,0,1-4.42.5h0A19.14,19.14,0,0,1,114,166.36a16,16,0,0,1-5,8.45l-2.64,2.32ZM34.92,110.88l-.19.09-.06-.13-1.81-.29a15.41,15.41,0,0,1-10.65-6.68,15.57,15.57,0,0,1-2-12.39l.86-3.4,3.48.44a14.72,14.72,0,0,1,10,5.67,12.37,12.37,0,0,1,4.84-3.41l3.27-1.29,1.67,3.09a11.57,11.57,0,0,1,.86,9.23,12.77,12.77,0,0,1-6.92,7.52L36.9,110l-.22,1.21Z"/><path class="a" d="M110.31,151.93c1.75,10.73,10.57,16.48,19.55,14.47A16.08,16.08,0,0,0,110.31,151.93Zm-3.93,19.9a11.38,11.38,0,0,0,.24-17.21C101.18,160.06,101.52,167.5,106.38,171.83ZM24.05,92.46a11.27,11.27,0,0,0,9.44,14.18C34.89,99.15,30.44,93.27,24.05,92.46Zm12.5,13.28c4.88-2.29,6.42-7.27,4.25-11.27A8,8,0,0,0,36.55,105.74Z"/><path class="b" d="M858.8,168.27a41.69,41.69,0,0,1-27.61-10.15,40.41,40.41,0,0,1-9.56-12.05,13.55,13.55,0,0,1-5.84,1.22h0a21.35,21.35,0,0,1-11.25-3.42c-6.09-4-9.39-11.48-8.62-19.65,1-10.26,8.59-19.3,16.66-19.86,1.27-12.82,10.13-23.08,22.58-25.32a39,39,0,0,1,6.92-.63c9.9,0,17.84,3.86,22,10.51l4.08.08c9.44.19,16.8,4.42,20.73,11.93a28.82,28.82,0,0,1,3,14.49l1.6,4c.41,1,.76,2,1.08,3l.17-.09c-1.13-5.8,1.17-12.84,4.32-16.67l2.41-2.93,2.53,1.89a11.64,11.64,0,0,1,4.69-4.48A11.18,11.18,0,0,1,913.79,99a14.06,14.06,0,0,1,10.67,5.25,11.48,11.48,0,0,1,2.27,11.07,11.42,11.42,0,0,1,4.1,10.93,12.26,12.26,0,0,1-11,10l-2.18,1.27a15.77,15.77,0,0,1-8,2.2h0a16.15,16.15,0,0,1-8.06-2.2,17.07,17.07,0,0,1-5.55-5.32c.17,9.11-3.41,17.94-10.58,25.69C879.51,164.39,869.52,168.27,858.8,168.27ZM871,139.16a23.76,23.76,0,0,1-2,3,31,31,0,0,0,4.82-3.21,19.34,19.34,0,0,1-2.65.18Zm-42.41-7.6a37.36,37.36,0,0,0,2.91,3.6,21.63,21.63,0,0,1-.3-2.75C830.26,132.17,829.39,131.88,828.54,131.56Zm22.89,1a60.13,60.13,0,0,0,6.38.71l-1.16-1.52c-.63,0-1.28.07-1.95.07h0a25.9,25.9,0,0,1-4.77-.44ZM814.79,119a23.41,23.41,0,0,0,3.81,14,21.08,21.08,0,0,1,.46-3.63l.71-3.35A23.48,23.48,0,0,1,814.79,119Z"/><path class="g" d="M835.74,107.76a16.8,16.8,0,0,0,12,19c9,2.81,18.67.28,20.68-8.78-8.7-1.28-18.54-12.61-16.68-20.1C842.17,96.47,836.9,100.84,835.74,107.76Zm30.42,5c2.55-1.43,4.23-5.43,1.59-10.4-2.12-4-9.23-4.82-12.09-1.06C855.89,105.25,860.71,111.19,866.16,112.73ZM861,130.84c4.21,5.54,16.6,6.89,22.87-2.54C891.33,117,889.68,93.4,868,93,878,98.72,878.21,126.14,861,130.84Zm-19.65-1.27c-11.93-9.45-12.81-22-7.57-29.71,6.64-9.7,18.37-10.09,28.23-6.23-3.56-9.18-14.67-12.75-26.11-10.69s-20.36,12.7-19.41,26.62C817.35,122.39,827.75,130.09,841.32,129.57Zm3.55,15.49a17.79,17.79,0,0,0,22.91-8.38c-9.55,1.86-25.28-.8-32.68-5.29C835.12,137.68,837.78,141.8,844.87,145.06ZM813,108.31c-5.6.3-12.23,7.11-13.11,16.28-.61,6.49,1.88,12.74,6.83,15.95,4.48,2.9,10.76,3.79,14.15,1.41C811.46,132.78,808.24,121.87,813,108.31ZM865,148c-12.46,3.49-30.44,1.78-42.06-17.82-2,9.21,3.5,18.46,10.86,24.92,15.31,13.44,38.76,10.92,48.81.05,10.2-11,11.58-23.22,7.14-34.29C886.59,134.67,875.15,145.34,865,148Zm32.58-22.69c.27,2.89,2.7,6.78,6.06,8.73a11.76,11.76,0,0,0,12.06,0C912.86,127.29,903.7,122.33,897.58,125.35Zm8.85-2.53c1.47-3.45.6-10.92-4.36-14.62-2.5,3-4.72,9.66-3.24,14.43A13.3,13.3,0,0,1,906.43,122.82Zm15.51-6c-4.25-2.17-9.53-1.37-12-.36a19.66,19.66,0,0,1-1,7.45,21.3,21.3,0,0,1,8.74,8.22c3.94.86,8.55-2.39,9.17-6.55C927.44,122,926.07,119,921.94,116.86Zm.91-2.51a7.47,7.47,0,0,0-1.48-7.67c-2.61-3.25-7.34-4.82-10.92-3a7.32,7.32,0,0,0-3.94,5.66c.83,1,2,2.66,3,4.08C913,112.22,919.06,112.35,922.85,114.35Z"/><path class="b" d="M822,169.25a15.91,15.91,0,0,1-5-8.44,19.19,19.19,0,0,1-12.27,4.4h0a20.09,20.09,0,0,1-4.42-.49l-3.43-.77.35-3.5a19.93,19.93,0,0,1,20-18.38,23,23,0,0,1,4.26.41l3.79.72-.15,1,2.1,2.1a16.63,16.63,0,0,1,5.15,12.21,14.9,14.9,0,0,1-5.07,10.77l-2.62,2.34Zm72.1-64.85-1.33-.62a12.82,12.82,0,0,1-6.92-7.52,11.63,11.63,0,0,1,.86-9.24l1.67-3.09,3.27,1.29a12.5,12.5,0,0,1,4.84,3.41,14.77,14.77,0,0,1,10-5.66l3.49-.45.86,3.41a15.62,15.62,0,0,1-2,12.39A15.44,15.44,0,0,1,898.12,105l-1.81.29-.06.13-.19-.09-1.75.28Z"/><path class="h" d="M801.12,160.85c9,2,17.81-3.74,19.56-14.48A16.09,16.09,0,0,0,801.12,160.85Zm23.48,5.43c4.86-4.34,5.2-11.78-.24-17.21A11.38,11.38,0,0,0,824.6,166.28ZM906.93,86.9c-6.39.82-10.83,6.7-9.44,14.18A11.26,11.26,0,0,0,906.93,86.9Zm-16.75,2c-2.17,4-.63,9,4.25,11.27A8,8,0,0,0,890.18,88.91Z"/><path class="b" d="M72.18,168.27c-10.72,0-20.71-3.88-26.73-10.39-7.16-7.75-10.74-16.58-10.57-25.69a17.2,17.2,0,0,1-5.56,5.32,16.15,16.15,0,0,1-8.06,2.2h0a15.73,15.73,0,0,1-8-2.2l-2.19-1.27a12.26,12.26,0,0,1-10.95-10,11.42,11.42,0,0,1,4.1-10.93A11.51,11.51,0,0,1,6.52,104.2,14.06,14.06,0,0,1,17.19,99a11.18,11.18,0,0,1,5.16,1.22A11.64,11.64,0,0,1,27,104.65l2.53-1.89L32,105.69c3.15,3.83,5.45,10.87,4.32,16.67l.18.09c.31-1,.66-2,1.07-3l1.61-4a28.71,28.71,0,0,1,3-14.49C46.06,93.42,53.42,89.19,62.86,89l4.08-.08c4.13-6.65,12.07-10.51,22-10.51a39,39,0,0,1,6.92.63c12.45,2.24,21.32,12.5,22.58,25.32,8.08.56,15.68,9.6,16.66,19.86.78,8.17-2.53,15.7-8.62,19.65a21.29,21.29,0,0,1-11.25,3.42h0a13.58,13.58,0,0,1-5.84-1.22,40.41,40.41,0,0,1-9.56,12.05A41.67,41.67,0,0,1,72.18,168.27ZM57.21,139a31.85,31.85,0,0,0,4.84,3.23,24.06,24.06,0,0,1-2-3.05h-.16A19.48,19.48,0,0,1,57.21,139Zm42.62-6.57a21.66,21.66,0,0,1-.29,2.75,38.89,38.89,0,0,0,2.9-3.6C101.59,131.88,100.72,132.17,99.83,132.41Zm-26.66.82a60.13,60.13,0,0,0,6.38-.71l1.5-1.18a25.82,25.82,0,0,1-4.77.44h0c-.66,0-1.32,0-2-.07Zm38.76-3.83a22.1,22.1,0,0,1,.45,3.63,23.41,23.41,0,0,0,3.81-14,23.48,23.48,0,0,1-5,7Z"/><path class="i" d="M62.52,118c2,9.06,11.65,11.59,20.68,8.78a16.8,16.8,0,0,0,12-19c-1.16-6.92-6.43-11.29-16-9.91C81.06,105.34,71.23,116.67,62.52,118Zm2.3-5.22c5.45-1.54,10.27-7.48,10.5-11.46-2.85-3.76-10-2.92-12.09,1.06C60.59,107.3,62.27,111.3,64.82,112.73ZM70,130.84C52.77,126.14,53,98.72,62.94,93,41.3,93.4,39.65,117,47.14,128.3,53.41,137.73,65.8,136.38,70,130.84Zm27.22-31c5.24,7.67,4.36,20.26-7.57,29.71,13.57.52,24-7.18,24.86-20,1-13.92-8-24.55-19.41-26.62S72.57,84.45,69,93.63C78.87,89.77,90.6,90.16,97.23,99.86Zm-11.12,45.2c7.09-3.26,9.75-7.38,9.77-13.67-7.4,4.49-23.13,7.15-32.68,5.29A17.79,17.79,0,0,0,86.11,145.06Zm45-20.47c-.88-9.17-7.51-16-13.1-16.28,4.74,13.56,1.51,24.47-7.88,33.64,3.39,2.38,9.67,1.49,14.15-1.41C129.23,137.33,131.73,131.08,131.11,124.59ZM66,148c-10.15-2.7-21.59-13.37-24.75-27.14-4.44,11.07-3,23.27,7.14,34.29,10.05,10.87,33.51,13.39,48.81-.05,7.36-6.46,12.83-15.71,10.87-24.92C96.42,149.82,78.44,151.53,66,148Zm-50.7-14a11.76,11.76,0,0,0,12.06,0c3.37-2,5.79-5.84,6.06-8.73C27.28,122.33,18.12,127.29,15.28,134.08Zm9.27-11.26a13.34,13.34,0,0,1,7.61-.19c1.47-4.77-.75-11.38-3.25-14.43C24,111.9,23.08,119.37,24.55,122.82ZM22,124a19.26,19.26,0,0,1-1-7.45c-2.42-1-7.71-1.81-12,.36s-5.49,5.15-5,8.76c.61,4.16,5.22,7.41,9.16,6.55A21.26,21.26,0,0,1,22,124Zm-.49-10.51c1-1.42,2.14-3.08,3-4.08a7.3,7.3,0,0,0-3.94-5.66c-3.57-1.84-8.31-.27-10.92,3a7.47,7.47,0,0,0-1.48,7.67C11.92,112.35,17.94,112.22,21.5,113.44Z"/><path class="b" d="M103.74,169.24a14.85,14.85,0,0,1-5.06-10.77,16.58,16.58,0,0,1,5.14-12.21l2.1-2.1-.15-1,3.79-.72a23,23,0,0,1,4.26-.41,19.93,19.93,0,0,1,20,18.38l.35,3.5-3.43.77a20.09,20.09,0,0,1-4.42.49h0a19.19,19.19,0,0,1-12.27-4.4,16,16,0,0,1-5,8.44l-2.64,2.33ZM34.92,105.33l-.19.09-.06-.13L32.86,105A15.22,15.22,0,0,1,20.21,85.93l.86-3.41,3.48.45a14.75,14.75,0,0,1,10,5.66,12.58,12.58,0,0,1,4.84-3.41l3.27-1.29L44.29,87a11.59,11.59,0,0,1,.86,9.24,12.82,12.82,0,0,1-6.92,7.52l-1.33.62-.22,1.21Z"/><path class="h" d="M110.31,146.37c1.75,10.74,10.57,16.49,19.55,14.48C128.94,151.57,120.88,144.36,110.31,146.37Zm-3.93,19.91a11.38,11.38,0,0,0,.24-17.21C101.18,154.5,101.52,161.94,106.38,166.28ZM24.05,86.9a11.26,11.26,0,0,0,9.44,14.18C34.89,93.6,30.44,87.72,24.05,86.9Zm12.5,13.28C41.43,97.9,43,92.92,40.8,88.91A8,8,0,0,0,36.55,100.18Z"/><path class="a" d="M381.59,200.22a4.8,4.8,0,0,1-.35-9.58l1.53-.13a6.48,6.48,0,0,1-.81-2.73l-.18-2.22a8.55,8.55,0,0,1,0-.87l-1.41.12h0a4.71,4.71,0,0,1-3.75-1.39,5,5,0,0,1-.51-6.2,4.65,4.65,0,0,1,3.48-2l.31,0a8.93,8.93,0,0,1-.29-1.51s0-.07,0-.11l-.44-5.38c-.17-2,.18-6.83,7-7.39h.07a4.85,4.85,0,0,1,4.34-3.43,5.07,5.07,0,0,1,3.19.77,5.23,5.23,0,0,1,.64.5,5,5,0,0,1,3.54-1.88,4.8,4.8,0,0,1,4.86,2.68l.21,0h0c6.83-.55,8,4.12,8.13,6.15l.44,5.39a8.28,8.28,0,0,1,0,1.64l.3,0a4.8,4.8,0,0,1,.78,9.57l-1.22.1a8.36,8.36,0,0,1,.12.86l.18,2.22a6.75,6.75,0,0,1-.35,2.83l1.33-.11a4.67,4.67,0,0,1,3.47,1.09,4.91,4.91,0,0,1,.56,6.83,4.67,4.67,0,0,1-3.24,1.64L382,200.2A3.24,3.24,0,0,1,381.59,200.22Zm-1.54-19.05Z"/><path class="a" d="M436.69,196.76a4.93,4.93,0,0,1-3.35-1.35,5.09,5.09,0,0,1-3.2,1.19,4.89,4.89,0,0,1-5-4.85,5.52,5.52,0,0,1,.73-2.7l.1-.17a38.49,38.49,0,0,0,3.55-8.81,5.19,5.19,0,0,1,1-2,5.31,5.31,0,0,1-2.11-1.52,15.76,15.76,0,0,0-2.25-2,5.11,5.11,0,0,1-2.2-4,4.94,4.94,0,0,1,4.92-4.92H429a6.37,6.37,0,0,0-.55-.47l-.17-.14a5.15,5.15,0,0,1-1.87-3.79,5,5,0,0,1,5-5,5.19,5.19,0,0,1,3,.91,24.65,24.65,0,0,1,3.33,2.85,5,5,0,0,1,4.73-3.43,5.19,5.19,0,0,1,3.65,1.41,4.63,4.63,0,0,1,.95,1.3,5.06,5.06,0,0,1,7.6.06,4.93,4.93,0,0,1,4.59-3.1,5.13,5.13,0,0,1,3.62,1.38,4.84,4.84,0,0,1,1.45,3.42l.47,30.66a4.89,4.89,0,0,1-4.92,4.95,5.09,5.09,0,0,1-3.23-1.07,4.74,4.74,0,0,1-1.53-2.1,4.94,4.94,0,0,1-3.77,1.77A5.05,5.05,0,0,1,448,194a4.82,4.82,0,0,1-1.76-3.68l-.08-5.1a25.67,25.67,0,0,1-5.39,9.6,5.25,5.25,0,0,1-3.94,1.9Zm2-3.77h0Zm-7.63-21.6a2.43,2.43,0,0,0-.5.41,2.32,2.32,0,0,0-.43.7A2.31,2.31,0,0,0,431.07,171.39Zm2.39-9.33a2.2,2.2,0,0,0-1.06,1.15A2.29,2.29,0,0,0,433.46,162.06Zm19.62.28h0Zm-8.37-1Z"/><path class="a" d="M481.82,194.05h-.18a5.28,5.28,0,0,1-5.2-5.7l.84-21.76c.21-5.44,3.26-8.3,8.57-8.12l5.28.2h0c4,.15,7.07,1.27,9.2,3.32,1.51,1.45,3.27,4.12,3.09,8.6a11,11,0,0,1-4.05,8.35,13.84,13.84,0,0,1-9.35,2.73l-2.48-.1-.28,7.2a5.5,5.5,0,0,1-1.69,3.85A5.35,5.35,0,0,1,481.82,194.05Zm8.59-22.4c2,.09,2-.79,2.08-1.48,0-1.14.05-1.38-1.74-1.44l-2.71-.11-.12,2.94,2.49.09Z"/><path class="a" d="M513.09,195.61l-.37,0a5.3,5.3,0,0,1-5.06-5.86l1.74-24.67h0a5.27,5.27,0,0,1,5.82-5.06,5.36,5.36,0,0,1,5.06,5.83l-1.74,24.67A5.36,5.36,0,0,1,513.09,195.61Z"/><path class="a" d="M536.82,197.71a4,4,0,0,1-.6,0,5.31,5.31,0,0,1-4.83-6l2.1-19.62-3.46-.37a5.28,5.28,0,0,1-3.42-1.68,5.12,5.12,0,0,1,4.51-8.44l17.69,1.9a5.09,5.09,0,1,1-1.08,10.12l-3.39-.37-2.11,19.63h0a5.52,5.52,0,0,1-2,3.74A5.38,5.38,0,0,1,536.82,197.71Zm1.78-5.3h0Z"/><path class="b" d="M381.59,198.22a4.8,4.8,0,0,1-.35-9.58l1.53-.13a6.48,6.48,0,0,1-.81-2.73l-.18-2.22a8.55,8.55,0,0,1,0-.87l-1.41.12h0a4.71,4.71,0,0,1-3.75-1.39,5,5,0,0,1-.51-6.2,4.65,4.65,0,0,1,3.48-2l.31,0a8.93,8.93,0,0,1-.29-1.51s0-.07,0-.11l-.44-5.38c-.17-2,.18-6.83,7-7.39h.07a4.85,4.85,0,0,1,4.34-3.43,5.07,5.07,0,0,1,3.19.77,5.23,5.23,0,0,1,.64.5,5,5,0,0,1,3.54-1.88,4.8,4.8,0,0,1,4.86,2.68l.21,0h0c6.83-.55,8,4.12,8.13,6.15l.44,5.39a8.28,8.28,0,0,1,0,1.64l.3,0a4.8,4.8,0,0,1,.78,9.57l-1.22.1a8.36,8.36,0,0,1,.12.86l.18,2.22a6.75,6.75,0,0,1-.35,2.83l1.33-.11a4.67,4.67,0,0,1,3.47,1.09,4.91,4.91,0,0,1,.56,6.83,4.67,4.67,0,0,1-3.24,1.64L382,198.2A3.24,3.24,0,0,1,381.59,198.22Zm-1.54-19.05Z"/><path class="b" d="M436.69,194.76a4.93,4.93,0,0,1-3.35-1.35,5.09,5.09,0,0,1-3.2,1.19,4.89,4.89,0,0,1-5-4.85,5.52,5.52,0,0,1,.73-2.7l.1-.17a38.49,38.49,0,0,0,3.55-8.81,5.19,5.19,0,0,1,1-2,5.31,5.31,0,0,1-2.11-1.52,15.76,15.76,0,0,0-2.25-2,5.11,5.11,0,0,1-2.2-4,4.94,4.94,0,0,1,4.92-4.92H429a6.37,6.37,0,0,0-.55-.47l-.17-.14a5.15,5.15,0,0,1-1.87-3.79,5,5,0,0,1,5-5,5.19,5.19,0,0,1,3,.91,24.65,24.65,0,0,1,3.33,2.85,5,5,0,0,1,4.73-3.43,5.19,5.19,0,0,1,3.65,1.41,4.63,4.63,0,0,1,.95,1.3,5.06,5.06,0,0,1,7.6.06,4.93,4.93,0,0,1,4.59-3.1,5.13,5.13,0,0,1,3.62,1.38,4.84,4.84,0,0,1,1.45,3.42l.47,30.66a4.89,4.89,0,0,1-4.92,4.95,5.09,5.09,0,0,1-3.23-1.07,4.74,4.74,0,0,1-1.53-2.1,4.94,4.94,0,0,1-3.77,1.77A5.05,5.05,0,0,1,448,192a4.82,4.82,0,0,1-1.76-3.68l-.08-5.1a25.67,25.67,0,0,1-5.39,9.6,5.25,5.25,0,0,1-3.94,1.9Zm2-3.77h0Zm-7.63-21.6a2.43,2.43,0,0,0-.5.41,2.32,2.32,0,0,0-.43.7A2.31,2.31,0,0,0,431.07,169.39Zm2.39-9.33a2.2,2.2,0,0,0-1.06,1.15A2.29,2.29,0,0,0,433.46,160.06Zm19.62.28h0Zm-8.37-1Z"/><path class="b" d="M481.82,192.05h-.18a5.28,5.28,0,0,1-5.2-5.7l.84-21.76c.21-5.44,3.26-8.3,8.57-8.12l5.28.2h0c4,.15,7.07,1.27,9.2,3.32,1.51,1.45,3.27,4.12,3.09,8.6a11,11,0,0,1-4.05,8.35,13.84,13.84,0,0,1-9.35,2.73l-2.48-.1-.28,7.2a5.5,5.5,0,0,1-1.69,3.85A5.35,5.35,0,0,1,481.82,192.05Zm8.59-22.4c2,.09,2-.79,2.08-1.48,0-1.14.05-1.38-1.74-1.44l-2.71-.11-.12,2.94,2.49.09Z"/><path class="b" d="M513.09,193.61l-.37,0a5.3,5.3,0,0,1-5.06-5.86l1.74-24.67h0a5.27,5.27,0,0,1,5.82-5.06,5.36,5.36,0,0,1,5.06,5.83l-1.74,24.67A5.36,5.36,0,0,1,513.09,193.61Z"/><path class="b" d="M536.82,195.71a4,4,0,0,1-.6,0,5.31,5.31,0,0,1-4.83-6l2.1-19.62-3.46-.37a5.28,5.28,0,0,1-3.42-1.68,5.12,5.12,0,0,1,4.51-8.44l17.69,1.9a5.09,5.09,0,1,1-1.08,10.12l-3.39-.37-2.11,19.63h0a5.52,5.52,0,0,1-2,3.74A5.38,5.38,0,0,1,536.82,195.71Zm1.78-5.3h0Z"/><path class="e" d="M400.26,167.73a.4.4,0,0,0-.3.15.46.46,0,0,0-.1.32l.22,2.71a.43.43,0,0,0,.43.4h0l3.1-.25h.08c1-.12,2.09-.25,2-1.87l-.12-1.46a.41.41,0,0,0-.15-.29.43.43,0,0,0-.32-.11Zm3.37,2.45h-.06l-2.65.22-.15-1.84,4-.33.09,1C404.9,170,404.68,170.05,403.63,170.18Z"/><path class="e" d="M392.89,168.33a.44.44,0,0,0-.4.47l.22,2.71a.42.42,0,0,0,.15.3.43.43,0,0,0,.28.11h0l4.85-.4a.43.43,0,0,0,.3-.16.4.4,0,0,0,.1-.32l-.22-2.71a.46.46,0,0,0-.15-.3.47.47,0,0,0-.32-.1Zm.66,2.68-.16-1.84,4-.33.15,1.84Z"/><path class="e" d="M400.12,166.54h0l4.89-.41a.4.4,0,0,0,.3-.15.46.46,0,0,0,.1-.32l-.11-1.34c-.11-1.42-1-1.63-2.37-1.51l-3.09.25a.43.43,0,0,0-.3.16.41.41,0,0,0-.1.32l.21,2.6A.44.44,0,0,0,400.12,166.54Zm2.92-2.86c1.36-.1,1.38.12,1.43.72l.07.9-4,.33-.15-1.73Z"/><path class="e" d="M414.07,189.6a1.48,1.48,0,0,0-1.12-.34l-9.41.77a13.24,13.24,0,0,0,.83-1.78,1.81,1.81,0,0,0,.13-.86,1.44,1.44,0,0,0-.14-.55l.43,0a5,5,0,0,0,2.94-.93,2.53,2.53,0,0,0,.77-2.28l-.18-2.21c-.17-2-1.38-2.8-4.19-2.56l-15.47,1.27a5,5,0,0,0-2.93.91,2.51,2.51,0,0,0-.75,2.29l.19,2.22c.16,2,1.41,2.79,4.15,2.56l.26,0a1.41,1.41,0,0,0-.08.61,1.89,1.89,0,0,0,.53,1.08,10.63,10.63,0,0,1,1.06,1.31l-9.58.79a1.59,1.59,0,0,0,.1,3.17h.16l31.44-2.58a1.51,1.51,0,0,0,1.11-.6,1.59,1.59,0,0,0,.3-1.11A1.65,1.65,0,0,0,414.07,189.6Zm-.46,1.7a.6.6,0,0,1-.47.25l-31.44,2.58a.72.72,0,0,1-.12-1.42l10.39-.85a.44.44,0,0,0,.25-.77l-.18-.2a13,13,0,0,0-1.36-1.75,1,1,0,0,1-.31-.55.73.73,0,0,1,.49-.66.45.45,0,0,0,.26-.51.44.44,0,0,0-.42-.33h0l-1.42.11c-2.55.21-3.09-.45-3.2-1.76l-.18-2.21a1.69,1.69,0,0,1,.44-1.56,4.4,4.4,0,0,1,2.43-.7l15.47-1.27c2.59-.21,3.14.46,3.25,1.76l.18,2.21a1.7,1.7,0,0,1-.47,1.55,4.42,4.42,0,0,1-2.45.71l-1.41.12a.45.45,0,0,0-.4.37.43.43,0,0,0,.27.47.67.67,0,0,1,.46.57,1,1,0,0,1-.07.47,17,17,0,0,1-1.19,2.38.45.45,0,0,0,0,.46.4.4,0,0,0,.4.2l10.24-.84a.66.66,0,0,1,.48.14.78.78,0,0,1,.25.52A.75.75,0,0,1,413.61,191.3Z"/><path class="e" d="M404.12,184.35l0,.43c.71-.06,1.77-.14,1.66-1.46l-.1-1.22c-.09-1.1-.78-1.26-1.88-1.17l-14.55,1.19a2.38,2.38,0,0,0-1.3.38,1.23,1.23,0,0,0-.37,1.09l.1,1.22c.08,1,.7,1.18,1.39,1.19l.49,0,14.56-1.2Zm-14.59.75c-.9.07-.91,0-.93-.37l-.1-1.22c0-.27,0-.31.05-.33a1.6,1.6,0,0,1,.81-.18l14.55-1.2.47,0c.44,0,.45.12.47.39l.1,1.22c0,.38,0,.45-.86.52Z"/><path class="e" d="M392.47,167a.48.48,0,0,0,.28.1h0l4.85-.4a.44.44,0,0,0,.4-.47l-.21-2.6a.47.47,0,0,0-.16-.3.45.45,0,0,0-.31-.1l-4.86.4a.44.44,0,0,0-.4.47l.22,2.6A.44.44,0,0,0,392.47,167Zm4.52-2.86.14,1.73-4,.32-.14-1.72Z"/><path class="e" d="M402.41,186.45a.42.42,0,0,0-.45-.29l-10.35.85a.45.45,0,0,0-.4.38.44.44,0,0,0,.3.47,1.73,1.73,0,0,1,.52.3,18.14,18.14,0,0,1,1.56,1.77,1.11,1.11,0,0,1,.21.57.6.6,0,0,1-.14.47.44.44,0,0,0-.05.48.42.42,0,0,0,.39.24h0l5.85-.48a.43.43,0,0,0,.35-.23,27.84,27.84,0,0,0,1.56-3.46,1.15,1.15,0,0,1,.46-.56A.44.44,0,0,0,402.41,186.45Zm-1.45.77a27,27,0,0,1-1.39,3.14l-4.9.4a1.82,1.82,0,0,0,0-.33,2.13,2.13,0,0,0-.38-1,17.56,17.56,0,0,0-1.41-1.64l8.11-.66A.42.42,0,0,1,401,187.22Z"/><path class="e" d="M413.74,175.25a1.51,1.51,0,0,0-1.64-1.46l-32.28,2.65a1.48,1.48,0,0,0-1.1.61,1.64,1.64,0,0,0-.27,1.1,1.61,1.61,0,0,0,.55,1.13,1.43,1.43,0,0,0,.93.33h.15L412.36,177A1.51,1.51,0,0,0,413.74,175.25ZM380,178.73a.62.62,0,0,1-.45-.12.83.83,0,0,1-.24-.54.81.81,0,0,1,.12-.52.59.59,0,0,1,.45-.24l32.28-2.65h.08c.53,0,.61.55.61.66a.64.64,0,0,1-.57.76Z"/><path class="e" d="M382.77,171.34c.3,2.71,1.94,3.22,3.68,3.24.33,0,.66,0,1,0l16.85-1.38c3-.25,4.28-1.46,4.08-3.93l-.44-5.39c-.21-2.46-1.64-3.46-4.67-3.21l-3.11.26-.13-1.51a1.56,1.56,0,0,0-1.82-1.41,1.59,1.59,0,0,0-1.57,1.69l.12,1.51-4,.32-.12-1.51a1.55,1.55,0,0,0-1.82-1.4,1.58,1.58,0,0,0-1.57,1.68l.12,1.51-3,.25c-3,.24-4.28,1.46-4.08,3.92Zm3.71-8.45,3.4-.28a.46.46,0,0,0,.3-.15.47.47,0,0,0,.1-.32l-.16-1.95c-.05-.65.68-.73.77-.74H391a.67.67,0,0,1,.76.61l.16,1.94a.44.44,0,0,0,.47.4l4.85-.39a.45.45,0,0,0,.3-.16.46.46,0,0,0,.1-.32l-.16-1.95c-.05-.65.69-.73.77-.73.25,0,.83,0,.88.6l.16,2a.44.44,0,0,0,.47.4l3.56-.29c2.92-.24,3.58.74,3.71,2.41l.45,5.38c.13,1.67-.37,2.75-3.28,3l-16.84,1.38c-2.28.15-3.48-.19-3.73-2.41l-.44-5.39C383.07,164.21,383.57,163.13,386.48,162.89Z"/><path class="e" d="M385.63,168.93a.44.44,0,0,0-.4.47l.12,1.45h0c.09,1.19.71,1.53,1.76,1.54l.65,0,2.9-.24a.44.44,0,0,0,.3-.15.46.46,0,0,0,.1-.32l-.22-2.71a.43.43,0,0,0-.16-.3.4.4,0,0,0-.32-.1Zm2.05,2.56c-1.39.11-1.41-.11-1.46-.71l-.08-1,3.86-.31.15,1.84Z"/><path class="e" d="M385.06,167.33a.42.42,0,0,0,.15.3.43.43,0,0,0,.28.11h0l4.74-.39a.47.47,0,0,0,.3-.16.44.44,0,0,0,.1-.32l-.22-2.59a.43.43,0,0,0-.47-.4l-2.9.24a2.92,2.92,0,0,0-1.68.47A1.52,1.52,0,0,0,385,166Zm.89-2.06a2.69,2.69,0,0,1,1.2-.28l2.47-.2.14,1.72-3.86.32-.08-.9C385.78,165.47,385.86,165.34,386,165.27Z"/><path class="j" d="M436.71,191.55a1.75,1.75,0,0,1-1.2-.49,1.73,1.73,0,0,1-.52-1.22,2.24,2.24,0,0,1,.63-1.53c3.7-4.23,5.29-9.69,5.17-17.69l-.17-11.24h0a1.71,1.71,0,0,1,1.79-1.69,1.93,1.93,0,0,1,1.37.51,1.57,1.57,0,0,1,.47,1.13l.18,11.58c.14,8.89-1.69,14.82-6.1,19.82a2.12,2.12,0,0,1-1.57.82Zm4.78-32.18.18,11.23c.12,8.24-1.54,13.88-5.4,18.28a1.48,1.48,0,0,0-.41.94.9.9,0,0,0,.26.61.88.88,0,0,0,.62.24,1.28,1.28,0,0,0,.94-.52c4.25-4.82,6-10.57,5.88-19.23l-.18-11.58a.66.66,0,0,0-.21-.51,1.13,1.13,0,0,0-.74-.26c-.33,0-.94.18-.94.8Zm-11.45,32a1.83,1.83,0,0,1-1.17-.45,1.63,1.63,0,0,1-.55-1.23,2.31,2.31,0,0,1,.34-1.14,41.82,41.82,0,0,0,3.92-9.67,1.85,1.85,0,0,1,1.77-1.49h0a1.74,1.74,0,0,1,1.76,1.75,2.87,2.87,0,0,1-.07.62,50,50,0,0,1-4.23,10.52,2,2,0,0,1-1.74,1.09Zm4.33-13.11a1,1,0,0,0-.95.85,42.51,42.51,0,0,1-4,9.87,1.71,1.71,0,0,0-.23.69.82.82,0,0,0,.26.6,1.09,1.09,0,0,0,.62.22,1.17,1.17,0,0,0,1-.65,48.75,48.75,0,0,0,4.12-10.27,2,2,0,0,0,.06-.42.85.85,0,0,0-.88-.89Zm25.3,13.07a1.83,1.83,0,0,1-1.28-.5,1.58,1.58,0,0,1-.47-1.14l-.47-30.66h0a1.56,1.56,0,0,1,.57-1.28,1.84,1.84,0,0,1,1.18-.41,1.89,1.89,0,0,1,1.33.48A1.57,1.57,0,0,1,461,159l.47,30.66a1.67,1.67,0,0,1-1.75,1.69ZM458.32,159l.47,30.66a.72.72,0,0,0,.21.52,1,1,0,0,0,.71.26.81.81,0,0,0,.89-.81L460.13,159a.78.78,0,0,0-.21-.54,1,1,0,0,0-.71-.23,1,1,0,0,0-.64.21.71.71,0,0,0-.25.59ZM451.15,190a1.67,1.67,0,0,1-1.73-1.64L449.2,174a1.57,1.57,0,0,1-.32.71,1.79,1.79,0,0,1-1.37.67,1.51,1.51,0,0,1-1.48-1.3,20,20,0,0,0-1.3-3.78l-.06-.17a1.81,1.81,0,0,1-.14-.59h0A1.52,1.52,0,0,1,446.1,168a1.67,1.67,0,0,1,1.53,1,17.6,17.6,0,0,1,1.55,4.36v.07l-.2-13h0a1.74,1.74,0,0,1,3.48-.06l.43,27.91a1.67,1.67,0,0,1-1.71,1.69Zm-1.28-29.56.43,27.91a.75.75,0,0,0,.87.77.8.8,0,0,0,.86-.8l-.43-27.9a.87.87,0,0,0-1.73,0Zm-4.46,9.12a1.51,1.51,0,0,0,.09.3l.05.14a20.53,20.53,0,0,1,1.33,3.92c.11.58.48.59.62.61a.88.88,0,0,0,.69-.33.72.72,0,0,0,.13-.64,16.07,16.07,0,0,0-1.49-4.18.73.73,0,0,0-.72-.47.66.66,0,0,0-.7.65Zm-8.35,6.81a1.56,1.56,0,0,1-1.57-1.56,2,2,0,0,1,.18-.89,26.26,26.26,0,0,0,1.44-4.34,1.59,1.59,0,0,1,1.55-1.31h0a1.6,1.6,0,0,1,1.31.59,1.68,1.68,0,0,1,.3,1.46,28.52,28.52,0,0,1-1.56,4.89,1.78,1.78,0,0,1-1.61,1.16Zm1.62-7.23h0a.74.74,0,0,0-.72.63,27.85,27.85,0,0,1-1.49,4.52,1.28,1.28,0,0,0-.11.51.72.72,0,0,0,.72.7.93.93,0,0,0,.82-.63,27.33,27.33,0,0,0,1.51-4.74.77.77,0,0,0-.12-.71A.86.86,0,0,0,438.68,169.09Zm17.18,5.76a1.52,1.52,0,0,1-1.48-1.24,19.08,19.08,0,0,0-1.29-3.81l-.06-.15a2.2,2.2,0,0,1-.15-.6h0a1.54,1.54,0,0,1,1.57-1.54,1.61,1.61,0,0,1,1.53,1,17.68,17.68,0,0,1,1.55,4.33,1.6,1.6,0,0,1-.3,1.37,1.74,1.74,0,0,1-1.33.67Zm-2.1-5.81a1.57,1.57,0,0,0,.09.31l0,.12a20,20,0,0,1,1.33,3.93c.1.4.3.58.66.57a.85.85,0,0,0,.65-.33.72.72,0,0,0,.13-.64,16.33,16.33,0,0,0-1.49-4.14.75.75,0,0,0-.72-.47.65.65,0,0,0-.7.65Zm-21.46,4.1a1.93,1.93,0,0,1-1.43-.71A18.34,18.34,0,0,0,428,169.9a1.88,1.88,0,0,1-.86-1.49,1.72,1.72,0,0,1,1.76-1.66,2.21,2.21,0,0,1,1.16.32,23.88,23.88,0,0,1,3.34,2.74h0a2.24,2.24,0,0,1,.64,1.44,1.91,1.91,0,0,1-.5,1.3,1.74,1.74,0,0,1-1.26.58ZM429,167.63h0a.86.86,0,0,0-.89.77,1,1,0,0,0,.49.79,20.09,20.09,0,0,1,3,2.66,1,1,0,0,0,.78.41.86.86,0,0,0,.62-.29,1,1,0,0,0,.27-.7,1.37,1.37,0,0,0-.39-.85,23.44,23.44,0,0,0-3.19-2.61A1.32,1.32,0,0,0,429,167.63Zm5.51-3.73a1.93,1.93,0,0,1-1.46-.75,19.12,19.12,0,0,0-2.66-2.61,2,2,0,0,1-.8-1.45,1.8,1.8,0,0,1,1.79-1.73,2.1,2.1,0,0,1,1.11.34,20.43,20.43,0,0,1,3.27,2.9h0a2.42,2.42,0,0,1,.58,1.42,1.87,1.87,0,0,1-.52,1.33,1.82,1.82,0,0,1-1.27.55Zm-3.09-5.66h0a.93.93,0,0,0-.93.84,1.17,1.17,0,0,0,.48.78,20.25,20.25,0,0,1,2.77,2.73,1.17,1.17,0,0,0,.82.44,1,1,0,0,0,.92-1,1.46,1.46,0,0,0-.37-.86,19.73,19.73,0,0,0-3.1-2.75A1,1,0,0,0,431.4,158.24Z"/><path class="e" d="M481.85,188.84h-.08a2.09,2.09,0,0,1-2.12-2.36l.84-21.77c.14-3.66,1.74-5.15,5.23-5l5.29.2h0c6.23.24,9.41,3.21,9.2,8.58-.19,5.09-4.13,8.24-10.07,8l-5.69-.22-.4,10.41A2.11,2.11,0,0,1,481.85,188.84Zm3.49-28.29c-2.81,0-3.86,1.11-4,4.2l-.83,21.76A1.22,1.22,0,0,0,481.8,188a1.25,1.25,0,0,0,1.38-1.35l.41-10.84a.5.5,0,0,1,.14-.31.52.52,0,0,1,.32-.11l6.13.23c5.45.21,9-2.53,9.16-7.15.19-4.87-2.63-7.45-8.36-7.67l-5.29-.2Zm5.2,13.19h-.29l-6.13-.24a.44.44,0,0,1-.42-.45l.31-8.16a2.25,2.25,0,0,1,2.45-2.42l4.45.17c3.84.15,5.8,2.11,5.67,5.68C496.44,171.72,494.14,173.77,490.54,173.74Zm-.26-.88c3.28.16,5.3-1.58,5.42-4.57s-1.46-4.64-4.83-4.77l-4.44-.17c-1.3-.07-1.52,1-1.54,1.57l-.3,7.72Z"/><path class="j" d="M513.11,190.39h-.17a2.13,2.13,0,0,1-2.08-2.43l1.74-24.67h0a2.24,2.24,0,1,1,4.47.31l-1.74,24.67A2.12,2.12,0,0,1,513.11,190.39Zm.37-27L511.74,188a1.24,1.24,0,0,0,1.26,1.49,1.27,1.27,0,0,0,1.46-1.3l1.74-24.67a1.25,1.25,0,0,0-1.27-1.46A1.23,1.23,0,0,0,513.48,163.35Z"/><path class="e" d="M536.85,192.5l-.28,0a2.19,2.19,0,0,1-1.56-.79,2.32,2.32,0,0,1-.43-1.71L537,167.16l-6.66-.72a2,2,0,0,1-1.43-.7,1.83,1.83,0,0,1-.36-1.4,1.76,1.76,0,0,1,.73-1.35,2.18,2.18,0,0,1,1.46-.28l17.69,1.9a1.8,1.8,0,0,1,1.84,2.07,1.84,1.84,0,0,1-2.24,1.66l-6.58-.7L539,190.46a2.31,2.31,0,0,1-.8,1.58A2.16,2.16,0,0,1,536.85,192.5Zm-6.41-28.93a1.17,1.17,0,0,0-.64.15.92.92,0,0,0-.35.72,1,1,0,0,0,.17.75,1.28,1.28,0,0,0,.85.38l7.09.76a.45.45,0,0,1,.39.49l-2.5,23.25a1.44,1.44,0,0,0,.25,1.08,1.39,1.39,0,0,0,1,.46,1.37,1.37,0,0,0,1-.25,1.41,1.41,0,0,0,.48-1h0l2.5-23.25a.43.43,0,0,1,.16-.3.41.41,0,0,1,.32-.09l7,.75c.52.06,1.18-.05,1.27-.89.05-.45,0-1-1.06-1.1l-17.69-1.9Z"/><path class="e" d="M380.05,179.17a1.15,1.15,0,0,1-.19-2.29l32.28-2.65a1.15,1.15,0,0,1,.19,2.29Zm9.23,8.47c-2.64.22-3.54-.48-3.68-2.16l-.18-2.22c-.14-1.71.64-2.51,3.28-2.72l15.47-1.27c2.63-.22,3.57.43,3.71,2.15l.18,2.22c.14,1.68-.67,2.51-3.31,2.73l-1.41.12a1.11,1.11,0,0,1,.73.94,1.63,1.63,0,0,1-.1.66,16.83,16.83,0,0,1-1.22,2.44l10.23-.84a1.15,1.15,0,0,1,.19,2.3l-31.44,2.58a1.16,1.16,0,0,1-.18-2.3l10.39-.85a2.38,2.38,0,0,1-.26-.28,11.07,11.07,0,0,0-1.33-1.7,1.45,1.45,0,0,1-.41-.81,1.15,1.15,0,0,1,.75-1.11Zm14-26.57c2.94-.24,4,.71,4.19,2.81l.44,5.39c.18,2.1-.73,3.21-3.67,3.45L387.4,174.1c-2.33.16-3.9-.18-4.19-2.81l-.44-5.38c-.18-2.1.73-3.22,3.67-3.46l3.4-.28-.16-1.94a1.15,1.15,0,0,1,1.17-1.22,1.13,1.13,0,0,1,1.35,1l.16,1.95,4.86-.4-.16-1.95a1.28,1.28,0,0,1,2.52-.21l.16,2Zm-16.17,3.48c-1.46.12-1.82.42-1.73,1.41l.1,1.34,4.74-.39-.21-2.6Zm-1.34,6.26c.09,1,.49,1.23,1.94,1.11l2.9-.23L390.4,169l-4.74.39Zm18.34,13.54c.73-.06,1.34-.11,1.27-1l-.1-1.23c-.06-.64-.3-.86-1.41-.76l-14.56,1.19c-1.07.09-1.31.34-1.26,1l.1,1.22c0,.65.34.86,1.41.77Zm-12.47,3.1a2,2,0,0,1,.68.4,15.5,15.5,0,0,1,1.62,1.83,1.63,1.63,0,0,1,.29.78,1.06,1.06,0,0,1-.24.79l5.84-.48a25.9,25.9,0,0,0,1.53-3.39,1.61,1.61,0,0,1,.63-.78Zm.89-23.34.21,2.59,4.85-.39-.21-2.6Zm.38,4.66.22,2.71,4.86-.4-.23-2.71Zm12-4.41c-.09-1-.49-1.23-1.9-1.11l-3.1.25.22,2.6,4.89-.4Zm-1.3,6.26c1-.12,1.76-.18,1.69-1.41l-.12-1.45-4.89.4.23,2.71Z"/><path class="j" d="M433.13,170.12a1.82,1.82,0,0,1,.52,1.14,1.4,1.4,0,0,1-1.32,1.44,1.41,1.41,0,0,1-1.12-.56,19.82,19.82,0,0,0-2.92-2.6,1.47,1.47,0,0,1-.67-1.14,1.29,1.29,0,0,1,1.33-1.21,1.72,1.72,0,0,1,.92.26A22.18,22.18,0,0,1,433.13,170.12Zm1.23,7.73a1.3,1.3,0,0,1,1.33,1.32,4.22,4.22,0,0,1-.07.54,50,50,0,0,1-4.18,10.37,1.58,1.58,0,0,1-1.36.87,1.27,1.27,0,0,1-1.33-1.25,2,2,0,0,1,.3-.92A42.21,42.21,0,0,0,433,179,1.42,1.42,0,0,1,434.36,177.85Zm1.05-17a1.9,1.9,0,0,1,.47,1.15,1.4,1.4,0,0,1-1.36,1.43,1.47,1.47,0,0,1-1.15-.59,20,20,0,0,0-2.73-2.68,1.59,1.59,0,0,1-.63-1.1,1.36,1.36,0,0,1,1.36-1.29,1.48,1.48,0,0,1,.85.26A20.78,20.78,0,0,1,435.41,160.88Zm5.65-1.5a1.39,1.39,0,0,1,2.76,0l.17,11.57c.14,9.09-1.8,14.79-6,19.53a1.69,1.69,0,0,1-1.26.67,1.29,1.29,0,0,1-1.32-1.28,1.81,1.81,0,0,1,.52-1.24c3.5-4,5.41-9.2,5.28-18Zm-2.39,9.27a1.18,1.18,0,0,1,1.17,1.52,29.09,29.09,0,0,1-1.53,4.82,1.38,1.38,0,0,1-1.22.9,1.14,1.14,0,0,1-1.17-1.14,1.69,1.69,0,0,1,.15-.69,27.39,27.39,0,0,0,1.46-4.43A1.18,1.18,0,0,1,438.67,168.65Zm6.3.87a1.08,1.08,0,0,1,1.13-1.09,1.16,1.16,0,0,1,1.13.71,17.15,17.15,0,0,1,1.52,4.27,1.24,1.24,0,0,1-1.24,1.51,1,1,0,0,1-1.05-.94,20.13,20.13,0,0,0-1.33-3.89A2.09,2.09,0,0,1,445,169.52Zm4.46-9.12a1.31,1.31,0,0,1,2.61,0l.42,27.9a1.3,1.3,0,0,1-2.6,0Zm3.89,8.64a1.09,1.09,0,0,1,1.13-1.09,1.19,1.19,0,0,1,1.13.71,17.08,17.08,0,0,1,1.52,4.24,1.24,1.24,0,0,1-1.21,1.51,1,1,0,0,1-1.08-.9,19.24,19.24,0,0,0-1.33-3.89A2,2,0,0,1,453.32,169Zm4.56-10a1.23,1.23,0,0,1,1.33-1.24,1.22,1.22,0,0,1,1.36,1.2l.47,30.67a1.35,1.35,0,0,1-2.69,0Z"/><path class="e" d="M491,160.32c6.25.24,9,3.18,8.79,8.13-.19,4.75-3.79,7.79-9.62,7.57l-6.13-.23-.41,10.84a1.7,1.7,0,0,1-1.84,1.77,1.66,1.66,0,0,1-1.69-1.91l.84-21.76c.13-3.45,1.48-4.74,4.78-4.61Zm-.72,13c3.52.14,5.74-1.77,5.87-5s-1.54-5.09-5.25-5.23l-4.45-.17a1.83,1.83,0,0,0-2,2l-.31,8.16Z"/><path class="j" d="M513,163.32a1.8,1.8,0,0,1,3.6.25l-1.74,24.67A1.71,1.71,0,0,1,513,190a1.69,1.69,0,0,1-1.67-2Z"/><path class="e" d="M538.6,190.41a1.71,1.71,0,0,1-2,1.64,1.68,1.68,0,0,1-1.59-2l2.49-23.25-7.09-.76a1.4,1.4,0,0,1-1.41-1.62c.11-1,.77-1.35,1.72-1.24l17.69,1.9c1,.1,1.55.59,1.45,1.58a1.43,1.43,0,0,1-1.76,1.28l-7-.76Z"/><path class="c" d="M669.56,189a5.77,5.77,0,0,0-4.78-2,4.87,4.87,0,0,0-2.52.81,4.41,4.41,0,0,0-1.53,2.16,3.52,3.52,0,0,0,.15,2.59,3.24,3.24,0,0,0,1.87,1.6l.06,0a.44.44,0,0,0,.55-.26.44.44,0,0,0-.25-.56,2.18,2.18,0,0,1-1.21-2.94,2.94,2.94,0,0,1,2.91-1.86,4.12,4.12,0,0,1,3.34,1.52,5,5,0,0,1,.86,3.67,5.48,5.48,0,0,1-1.49,3.51A6.65,6.65,0,0,1,664,199a8.94,8.94,0,0,1-7.49-2,40,40,0,0,1-5.9-5.88,55.37,55.37,0,0,0-5.73-6.28,29.51,29.51,0,0,0-15.37-7.1,25.35,25.35,0,0,0-8.59.31,13.14,13.14,0,0,0-3.74,1.56l-.54-.47a16,16,0,0,1-3.33-3.19,16.41,16.41,0,0,1-3.26-8.46,11.84,11.84,0,0,1,.45-4.48,8.22,8.22,0,0,1,2.48-3.65,7.38,7.38,0,0,1,8.3-.82,7.56,7.56,0,0,1,4.18,7.23,5.09,5.09,0,0,1-2,3.67,4.11,4.11,0,0,1-4,.46,2.92,2.92,0,0,1-1.8-3.3,2,2,0,0,1,1.12-1.47,3,3,0,0,1,2,.17h0a.43.43,0,1,0,.31-.81,3.66,3.66,0,0,0-2.6-.18,2.8,2.8,0,0,0-1.67,2.08,3.89,3.89,0,0,0,2.27,4.36,5.06,5.06,0,0,0,5-.47,6.16,6.16,0,0,0,2.53-4.41c.92-7.22-8.49-12.86-15-8.09a9.3,9.3,0,0,0-3.31,4.51,12.43,12.43,0,0,0-.43,5.38,17.38,17.38,0,0,0,4.36,9.09,21.15,21.15,0,0,0,3.72,3.19c.11.08.21.18.32.27a11.08,11.08,0,0,0-2.7,2.72,14,14,0,0,0-2,4.84,24.6,24.6,0,0,0-13.43-12,17.05,17.05,0,0,0-11.22-.31,14.1,14.1,0,0,0-8.68,7.57,11.13,11.13,0,0,0,1.58,11.64,10,10,0,0,0,5.2,3.37,9.86,9.86,0,0,0,6.13-.46,8.15,8.15,0,0,0,4.63-4.12,7.94,7.94,0,0,0,.36-6.16,5.18,5.18,0,0,0-8.06-2.31,3.87,3.87,0,0,0-1.37,2.72v.05a.45.45,0,0,0,.38.45.44.44,0,0,0,.49-.38,3.35,3.35,0,0,1,3.42-2.6,3.73,3.73,0,0,1,3.6,2.62,6.32,6.32,0,0,1-4.11,7.92,8.27,8.27,0,0,1-4.94.3,8.08,8.08,0,0,1-4.14-2.71,9.28,9.28,0,0,1-1.29-9.55,12.17,12.17,0,0,1,7.38-6.64,15.37,15.37,0,0,1,10.13.09,24.68,24.68,0,0,1,8.79,5.45,20.82,20.82,0,0,1,4.87,6.66,12.88,12.88,0,0,0,0,2.24,11.7,11.7,0,0,0,4.48,8.12,12.71,12.71,0,0,0,9,2.75,10.15,10.15,0,0,0,7.81-5.21,7.27,7.27,0,0,0,.54-4.73,5.39,5.39,0,0,0-2.64-3.84,6.39,6.39,0,0,0-7.37,1.32,11.23,11.23,0,0,0-.52-3.45,12.27,12.27,0,0,0-2.44-4.18,21.53,21.53,0,0,0-1.9-1.92,11.56,11.56,0,0,1,3-1.38,18.8,18.8,0,0,1,8.18-.49A27.42,27.42,0,0,1,644,185.75a30.5,30.5,0,0,1,2.8,3l2.57,3.39a40.89,40.89,0,0,0,5.89,6.46,11.58,11.58,0,0,0,4.17,2.34,9.71,9.71,0,0,0,5,.2,8.75,8.75,0,0,0,4.54-2.37,7.38,7.38,0,0,0,2-4.8A6.62,6.62,0,0,0,669.56,189Zm-50.15-6a11.31,11.31,0,0,1,2.36,3.82,10.47,10.47,0,0,1,.39,4.49.47.47,0,0,0,.17.39.44.44,0,0,0,.61-.08l0,0,.08-.11a5.38,5.38,0,0,1,6.79-1.68c2.11,1.26,2.41,4.49,1.17,6.59a8.28,8.28,0,0,1-6.48,3.54,11.77,11.77,0,0,1-7.34-2.09,9.55,9.55,0,0,1-4-6.45,12,12,0,0,1,1.68-7.65,9.85,9.85,0,0,1,2.47-2.68A20.89,20.89,0,0,1,619.41,183Z"/><path class="c" d="M350.63,183.46a13.07,13.07,0,0,0-7.91-7.13,16.26,16.26,0,0,0-10.69.09,25.78,25.78,0,0,0-9.11,5.64,21.94,21.94,0,0,0-4.81,6.37,13.8,13.8,0,0,0-2-5.39,11,11,0,0,0-2.82-2.91l.5-.44a17.69,17.69,0,0,0,3.46-3.3,17.17,17.17,0,0,0,3.49-8.87,13,13,0,0,0-.46-4.83,9.16,9.16,0,0,0-2.73-4.06,8.3,8.3,0,0,0-9.33-1,8.51,8.51,0,0,0-4.67,8.17,6,6,0,0,0,2.4,4.34,5,5,0,0,0,4.92.54,3.81,3.81,0,0,0,2.29-4.34,2.79,2.79,0,0,0-1.67-2.08,3.69,3.69,0,0,0-2.61.18h0a.44.44,0,0,0-.24.57.43.43,0,0,0,.56.24,2.91,2.91,0,0,1,2-.17,2,2,0,0,1,1.13,1.47,2.87,2.87,0,0,1-1.82,3.28,4,4,0,0,1-3.94-.54,4.93,4.93,0,0,1-1.85-3.59,7.23,7.23,0,0,1,4.15-6.85,6.25,6.25,0,0,1,7.37,1.35,9.39,9.39,0,0,1,2.36,7.13,16,16,0,0,1-2.37,8.24,13.68,13.68,0,0,1-3.08,3.3c-.25.21-.49.45-.74.67a12.55,12.55,0,0,0-3.39-1.46,24.56,24.56,0,0,0-8.58-.49,28.82,28.82,0,0,0-15.55,7c-2.21,1.92-4,4.2-6,6.15a39.33,39.33,0,0,1-6.09,5.42c-2.21,1.43-4.29,2.21-6.65,1.67-2.44-.38-4-1.69-4.2-4.09a4.54,4.54,0,0,1,.52-3.06,3.34,3.34,0,0,1,2.64-1.4,2.56,2.56,0,0,1,2.6,1.34,2,2,0,0,1-.88,2.81h0a.44.44,0,0,0-.19.56.43.43,0,0,0,.57.23,3.09,3.09,0,0,0,1.7-1.67,3.19,3.19,0,0,0,0-2.39,4,4,0,0,0-1.48-1.84,4.51,4.51,0,0,0-2.25-.61,5,5,0,0,0-4.09,1.85,6,6,0,0,0-1.08,4.34,6.36,6.36,0,0,0,1.76,4.1,7.62,7.62,0,0,0,4,2,9.93,9.93,0,0,0,8.3-2.18c4.62-3.49,7.72-8.45,11.67-12.25a26.8,26.8,0,0,1,14.81-7,16.9,16.9,0,0,1,10.89,2,22.75,22.75,0,0,0-1.69,1.84,12.12,12.12,0,0,0-2.86,7.72,6.39,6.39,0,0,0-7.37-1.32c-3,1.66-3.38,5.76-1.8,8.4a9.74,9.74,0,0,0,7.57,4.66,12.17,12.17,0,0,0,8.56-2.51,11.26,11.26,0,0,0,4.4-7.69c0-.35,0-.69,0-1a19.63,19.63,0,0,1,5.6-7.48,24.73,24.73,0,0,1,8.7-5.12c6.17-2.21,14,.47,16.22,6.34a8.36,8.36,0,0,1-1.14,8.35,7,7,0,0,1-7.81,2.17,5.32,5.32,0,0,1-3.26-2.54,5.47,5.47,0,0,1-.5-4.14,3.15,3.15,0,0,1,2.89-2.41,3.32,3.32,0,0,1,3.42,2.14l0,.07a.43.43,0,0,0,.48.3.44.44,0,0,0,.37-.49,4.22,4.22,0,0,0-4.29-3.35,4.61,4.61,0,0,0-4.42,3.19,7.19,7.19,0,0,0,4.63,9,9.2,9.2,0,0,0,5.47.33,9,9,0,0,0,4.59-3A10.18,10.18,0,0,0,350.63,183.46Zm-34.31,7.85a9.08,9.08,0,0,1-3.89,6,11.31,11.31,0,0,1-6.92,1.84,8,8,0,0,1-6.26-3c-1.45-1.83-1.3-5.19.88-6.42a5.38,5.38,0,0,1,6.79,1.68l.08.11,0,.05a.47.47,0,0,0,.4.16.43.43,0,0,0,.38-.48,10.53,10.53,0,0,1,2.65-8.4,19.48,19.48,0,0,1,1.85-1.9,9.61,9.61,0,0,1,2.54,2.87A11.85,11.85,0,0,1,316.32,191.31Z"/></svg>