<svg xmlns="http://www.w3.org/2000/svg" viewBox="0 0 447.73 26.16"><defs><style>.a{fill:#f09fba;}.b{fill:#91e0f8;}.c{fill:#fff;}.d{fill:#b0a671;}</style></defs><path class="a" d="M176.88,22.82a7.51,7.51,0,0,1-3.38.75,7.11,7.11,0,0,1-4-1.07,6.8,6.8,0,0,1-2.38-6.72A6.18,6.18,0,0,1,173,11.29h.14a6.56,6.56,0,0,1,6.36,4.45C180.32,18.43,179.12,21.66,176.88,22.82Zm-1.18-7.63a3.32,3.32,0,0,0-2.36-.87,3.41,3.41,0,0,0-2.13.67,3.17,3.17,0,0,0,2.11,5.57,3.11,3.11,0,0,0,3.12-1.81A3.33,3.33,0,0,0,175.7,15.19Z"/><path class="a" d="M192.44,14.93c-.06,1.73-1,3.68-3.09,3.85-.77.07-1.67.1-2.66.1l-.48,0a1,1,0,0,0-1,1c0,1,0,2.42-.06,2.79a1.5,1.5,0,0,1-1.51,1.28,1.48,1.48,0,0,1-1.52-1.2c-.1-.58,0-6.15,0-8.82V12.74a1.52,1.52,0,0,1,1.51-1.63c.21,0,.58,0,1.08,0,1.06,0,2.71,0,4.55.15A3.53,3.53,0,0,1,192.44,14.93Zm-6.74,1.23.27,0h.93c.71,0,1.24,0,1.55,0,.69-.05,1-.46,1.1-1.31a1,1,0,0,0-.81-1.11c-.66-.05-2.68-.08-3-.08s-.37.08-.37.47c0,.08,0,.28,0,.5,0,.43,0,1,0,1.28S185.42,16.16,185.7,16.16Z"/><path class="a" d="M203.4,22.32a1.4,1.4,0,0,1-1.18,1.33c-.65,0-5.67.08-6.26.08a1.43,1.43,0,0,1-1.64-1.43c0-1.09,0-5.07,0-7.46,0-.87,0-1.55,0-1.78A1.47,1.47,0,0,1,196,11.37h1c1.74,0,4.74,0,5.43.07a1.29,1.29,0,0,1,1.25,1.38,1.28,1.28,0,0,1-1.41,1.3c-.39,0-1.16,0-2.27,0h-2.19c-.21,0-.33.13-.37.42,0,0,0,.45,0,1,0,.17.13.59.85.59,1.45,0,3.3.06,3.7.06a.94.94,0,0,1,.69.29,1.46,1.46,0,0,1,.39,1,1.33,1.33,0,0,1-1.22,1.2,7.15,7.15,0,0,1-.79,0l-2.88,0c-.77,0-.75.5-.75.73,0,.54,0,.94,0,1,0,.28.33.38.63.38.81,0,3.55,0,4.29,0A1.3,1.3,0,0,1,203.4,22.32Z"/><path class="a" d="M217.81,12.51c0,.66-.05,9-.11,9.76a1.57,1.57,0,0,1-1.62,1.28,2,2,0,0,1-.9-.22c-.77-.38-3.89-4.2-5.46-6.17-.29-.37-.69-.23-.69.2,0,1.72,0,4.41,0,4.91a1.42,1.42,0,0,1-1.43,1.21,1.39,1.39,0,0,1-1.45-1.4c-.09-1-.12-8.72-.1-9.27a1.56,1.56,0,0,1,1.44-1.54h.25a2.62,2.62,0,0,1,1.9.88c.5.52,3.25,4.09,4.66,5.95.26.34.63.26.63-.15V12.56a1.41,1.41,0,0,1,1.43-1.39h0A1.42,1.42,0,0,1,217.81,12.51Z"/><path class="a" d="M225.1,9.13c-.29-.85-.24-1.72,1.53-2.87s3.28-2.15,5.1-1.75,1.91,2.25,1.91,3.75-.19,12.6-.29,13.78a2.24,2.24,0,0,1-2.28,1.82A2.27,2.27,0,0,1,229,21.94c-.11-.88,0-7.5.08-10.51,0-.9-.53-1.27-1.06-1.12a3.22,3.22,0,0,1-.66.12C226.13,10.41,225.36,10,225.1,9.13Z"/><path class="a" d="M240.22,10a13,13,0,0,1-.08,2.05c-.08.73-1.11,1.21-1.95,1.21A1.71,1.71,0,0,1,236.36,12c-.1-.83-.08-3.45-.05-4.38.05-1.4,1-2.67,3.15-2.65s7.93.18,9.22.23a2.33,2.33,0,0,1,2.25,3c-.31,1.33-4.94,13.53-5.58,14.33-.76,1-1.21,1.38-2.48,1.08a1.81,1.81,0,0,1-1.33-2.38c.24-.95,3.1-8,4.37-11,.45-1.08-.87-1.33-.87-1.33l-3.5-.05S240.22,8.86,240.22,10Z"/><path class="a" d="M253.44,9.28a2.37,2.37,0,0,1,2.65-2.07,2.12,2.12,0,0,1,2,2.17c.16,1.2-1.08,2.08-2.3,2A2.33,2.33,0,0,1,253.44,9.28Zm.11,9.21c.29-.73,1.37-2.1,2.62-1.93a2,2,0,0,1,1.77,2,2.15,2.15,0,0,1-2.3,2A2.25,2.25,0,0,1,253.55,18.49Z"/><path class="a" d="M278.7,10.21c1.4,3.73.26,9.75-2.75,12.2a8.84,8.84,0,0,1-10.58,0c-3.23-2.55-4.23-6.4-3.65-10.31a9.07,9.07,0,0,1,8.91-7.45A8.69,8.69,0,0,1,278.7,10.21Zm-5.48,8.65c1.8-1.37,2-4.35,1.64-6.28a4.41,4.41,0,0,0-8.38-1.22c-1.61,3.75,0,6.4,1.11,7.28A4.68,4.68,0,0,0,273.22,18.86Z"/><path class="a" d="M298.18,10.21c1.4,3.73.26,9.75-2.75,12.2a8.84,8.84,0,0,1-10.58,0c-3.22-2.55-4.23-6.4-3.65-10.31a9.07,9.07,0,0,1,8.92-7.45A8.69,8.69,0,0,1,298.18,10.21Zm-5.47,8.65c1.79-1.37,2-4.35,1.64-6.28A4.42,4.42,0,0,0,286,11.36c-1.61,3.75,0,6.4,1.11,7.28A4.69,4.69,0,0,0,292.71,18.86Z"/><path class="b" d="M319.33,14a1,1,0,0,1-.67.48,2.49,2.49,0,0,1-.52.07,2.2,2.2,0,0,1-1.1-.35,3.79,3.79,0,0,0-1.71-.44,1.45,1.45,0,0,0-.3,0,1,1,0,0,0-.86,1.13c.07.67.9,1.17,1.71,1.57a6.82,6.82,0,0,1,2.77,2.47,3.22,3.22,0,0,1-1.11,4.12,5.64,5.64,0,0,1-3.07.73l-.92,0a5.38,5.38,0,0,1-2.4-.9,1.38,1.38,0,0,1-.26-1.84,1.58,1.58,0,0,1,1.23-.63,2,2,0,0,1,.83.18,5.4,5.4,0,0,0,1.82.35,1.89,1.89,0,0,0,.69-.11.91.91,0,0,0,.45-.65.82.82,0,0,0-.26-.75,6.68,6.68,0,0,0-1.29-.84,10.19,10.19,0,0,1-2.29-1.6,3.76,3.76,0,0,1-.6-3.89,3.87,3.87,0,0,1,3.77-2.23,5.66,5.66,0,0,1,1.2.13c1.91.49,2.82,1.44,3,2.12A1,1,0,0,1,319.33,14Z"/><path class="b" d="M332,12.19a1.26,1.26,0,0,1-1.34,1.17c-.23,0-.9,0-1.77,0s-1.19.6-1.19,1.07c0,2.36,0,7.29,0,7.89,0,.88-.23,1.46-1.32,1.51s-1.4-.85-1.43-1.7-.05-5.3,0-7.65c0-.46-.05-1-1-1.06s-1.78,0-2,0c-.88,0-1.48-.22-1.62-1.17s.85-1.38,1.69-1.41c1,0,8,0,8.8.06A1.29,1.29,0,0,1,332,12.19Z"/><path class="b" d="M343.73,23.67a1.78,1.78,0,0,1-2.14-.8c-.19-.34-.45-1.05-.86-1.82a1.21,1.21,0,0,0-1.15-.77h-3.31s-.74-.13-1.3.82c-.43.73-1,1.78-1.1,2-.58.77-.93,1-1.74.82a1.29,1.29,0,0,1-.88-1.95c.42-1.07,3.45-6.77,3.91-7.83s.95-2.58,1.78-2.91a2.57,2.57,0,0,1,2.77.56c.46.72,4.23,9.56,4.58,10.26A1.16,1.16,0,0,1,343.73,23.67Zm-6.05-8.23c-.19.39-.44.9-.69,1.47s.36.65.36.65l1.25,0s.56,0,.35-.61-.48-1.07-.65-1.5S337.87,15,337.68,15.44Z"/><path class="b" d="M354.65,19.23c.57,1.1,1.13,2.2,1.27,2.62a1.39,1.39,0,0,1-.76,1.72,1.43,1.43,0,0,1-1.83-.7c-.21-.47-.9-1.91-1.53-3.19a.94.94,0,0,0-1.11-.73c-.36,0-.67,0-.94,0a.74.74,0,0,0-.72.86c0,1,0,2.37,0,2.77a1.37,1.37,0,0,1-1.39,1.19,1.39,1.39,0,0,1-1.41-1.12c-.12-.72,0-9.08,0-9.94a1.4,1.4,0,0,1,1.4-1.52c.82-.08,3.45,0,5.69.12a3.58,3.58,0,0,1,3.28,3.62,4.48,4.48,0,0,1-1.6,3.26C354.32,18.68,354.53,19,354.65,19.23Zm-5-2.77c.28,0,2,0,2.77,0A1.42,1.42,0,0,0,353.84,15a1.34,1.34,0,0,0-1.09-1.38c-.67-.07-2.68-.09-3.07-.09s-.49.22-.49.57-.07,1.59,0,2S349.38,16.46,349.68,16.46Z"/><path class="b" d="M368.84,12.19a1.26,1.26,0,0,1-1.34,1.17c-.23,0-.9,0-1.76,0s-1.2.6-1.2,1.07c0,2.36,0,7.29,0,7.89,0,.88-.23,1.46-1.32,1.51s-1.39-.85-1.43-1.7-.05-5.3,0-7.65c0-.46-.06-1-1-1.06s-1.78,0-2,0c-.88,0-1.48-.22-1.63-1.17s.85-1.38,1.7-1.41,8,0,8.79.06A1.29,1.29,0,0,1,368.84,12.19Z"/><path class="b" d="M374.79,9.13c-.29-.85-.24-1.72,1.53-2.87s3.28-2.15,5.11-1.75,1.9,2.25,1.9,3.75S383.15,20.86,383,22a2.24,2.24,0,0,1-2.27,1.82,2.28,2.28,0,0,1-2.12-1.92c-.11-.88,0-7.5.08-10.51,0-.9-.53-1.27-1.06-1.12a3.22,3.22,0,0,1-.66.12C375.82,10.41,375.05,10,374.79,9.13Z"/><path class="b" d="M386.53,10.08a5.09,5.09,0,0,1,2.72-5c2-1,5.58-.85,7.43.9a5.64,5.64,0,0,1,1.33,5.5A4.63,4.63,0,0,1,397,13.09a.83.83,0,0,0,.08,1.2,6.91,6.91,0,0,1,1.69,3.1,5.09,5.09,0,0,1-3.07,5.9c-2.06.77-5.26,1.05-7.51-.6a5.31,5.31,0,0,1-2.38-5.48,5.46,5.46,0,0,1,1.78-3.12.86.86,0,0,0,0-1.26A4.45,4.45,0,0,1,386.53,10.08Zm4.84,5.86a2.15,2.15,0,0,0-1.46,2.4,2.54,2.54,0,0,0,4.87.35,2.34,2.34,0,0,0-.79-2.4A2.9,2.9,0,0,0,391.37,15.94Zm3-7.16a2,2,0,0,0-2.11-1.07,1.82,1.82,0,0,0-1.85,1.7,1.67,1.67,0,0,0,1.43,1.67,2.46,2.46,0,0,0,2.16-.47A1.66,1.66,0,0,0,394.38,8.78Z"/><path class="b" d="M401.39,9.28A2.36,2.36,0,0,1,404,7.21a2.12,2.12,0,0,1,2,2.17c.16,1.2-1.08,2.08-2.3,2A2.32,2.32,0,0,1,401.39,9.28Zm.11,9.21c.29-.73,1.37-2.1,2.61-1.93a2,2,0,0,1,1.78,2,2.16,2.16,0,0,1-2.3,2A2.24,2.24,0,0,1,401.5,18.49Z"/><path class="b" d="M425.67,10.21c1.4,3.73.26,9.75-2.75,12.2a8.84,8.84,0,0,1-10.58,0c-3.23-2.55-4.23-6.4-3.65-10.31a9.07,9.07,0,0,1,8.91-7.45A8.69,8.69,0,0,1,425.67,10.21Zm-5.48,8.65c1.8-1.37,2-4.35,1.64-6.28a4.41,4.41,0,0,0-8.38-1.22c-1.61,3.75,0,6.4,1.11,7.28A4.68,4.68,0,0,0,420.19,18.86Z"/><path class="b" d="M445.15,10.21c1.4,3.73.26,9.75-2.75,12.2a8.84,8.84,0,0,1-10.58,0c-3.22-2.55-4.23-6.4-3.65-10.31a9.07,9.07,0,0,1,8.91-7.45A8.69,8.69,0,0,1,445.15,10.21Zm-5.48,8.65c1.8-1.37,2-4.35,1.64-6.28a4.41,4.41,0,0,0-8.38-1.22c-1.61,3.75,0,6.4,1.11,7.28A4.68,4.68,0,0,0,439.67,18.86Z"/><path class="c" d="M173.5,25.57a9.05,9.05,0,0,1-5.13-1.44,8.76,8.76,0,0,1-3.17-8.78A8.11,8.11,0,0,1,173,9.29h.18a8.57,8.57,0,0,1,8.27,5.87c1.1,3.62-.53,7.85-3.62,9.43h0A9.53,9.53,0,0,1,173.5,25.57Zm-.16-9.25a1.41,1.41,0,0,0-.86.22c-.45.35-.35,1-.26,1.38a1.33,1.33,0,0,0,1.19.65,1.54,1.54,0,0,0,1.12-.41c.32-1-.07-1.38-.23-1.55h0A1.39,1.39,0,0,0,173.34,16.32Z"/><path class="c" d="M183.66,25.93a3.47,3.47,0,0,1-3.5-2.9c-.09-.5-.1-2.27-.06-8.21V12.74a3.52,3.52,0,0,1,3.31-3.62c.3,0,.72,0,1.28,0,1.17,0,2.91.06,4.66.16A5.52,5.52,0,0,1,194.44,15h0c-.09,2.68-1.8,5.53-4.93,5.78-.67.06-1.44.1-2.29.11,0,.71,0,1.6-.05,2A3.53,3.53,0,0,1,183.66,25.93Zm.42-8.31v.13l.07-.07Z"/><path class="c" d="M196,25.73a3.41,3.41,0,0,1-3.63-3.34c0-.84,0-3.25,0-7.58,0-.86,0-1.52,0-1.75a3.43,3.43,0,0,1,3.56-3.69h1c1.62,0,4.74,0,5.53.07a3.29,3.29,0,0,1,3.15,3.38,3.16,3.16,0,0,1-1.32,2.65,3.57,3.57,0,0,1,.67,2.2,3.34,3.34,0,0,1-.83,2,3.53,3.53,0,0,1,1.23,2.67,3.38,3.38,0,0,1-3.08,3.33C201.59,25.68,196.51,25.73,196,25.73Zm6.16-4.08Zm.19-8.21h0Z"/><path class="c" d="M231.17,25.87H231a4.26,4.26,0,0,1-4-3.68c-.09-.78-.05-4,.05-9.76a3.92,3.92,0,0,1-3.82-2.66c-.68-2,.11-3.73,2.34-5.18l.12-.08c1.83-1.18,3.91-2.52,6.5-1.95,3.48.78,3.48,4.49,3.48,5.71s-.18,12.6-.3,14A4.18,4.18,0,0,1,231.17,25.87Zm.18-4h0ZM228.21,8.28a2.75,2.75,0,0,1,1.69.58A3.18,3.18,0,0,1,231,11.49l0,.93c-.05,2.55-.15,8.5-.08,9.29a.44.44,0,0,0,.28.16s.08-.06.14-.1c.1-1.64.28-11.84.28-13.51,0-1.37-.17-1.69-.24-1.77a.26.26,0,0,0-.1,0c-.92-.21-1.87.37-3.47,1.4l-.12.08a4.51,4.51,0,0,0-.62.47l.16,0,.18,0A2.63,2.63,0,0,1,228.21,8.28Z"/><path class="c" d="M243.59,25.63a5.17,5.17,0,0,1-1.18-.14,3.77,3.77,0,0,1-2.4-1.7,4,4,0,0,1-.4-3.14c.26-1,2.54-6.67,3.86-9.84l-1.24,0a13.65,13.65,0,0,1-.11,1.57c-.19,1.81-2.16,2.92-3.93,2.92a3.66,3.66,0,0,1-3.82-3.13c-.15-1.14-.06-4.59-.06-4.62a4.74,4.74,0,0,1,5.08-4.6h.09l1.75,0c2.64.06,6.5.15,7.53.19a4.54,4.54,0,0,1,3.42,1.75,4.36,4.36,0,0,1,.7,3.69c-.18.74-4.92,13.79-6,15.11A4.1,4.1,0,0,1,243.59,25.63Zm2.53-18.54a3,3,0,0,1,1.56,1.36,2.83,2.83,0,0,1,.07,2.48c-1.35,3.16-3.87,9.46-4.24,10.62a2.08,2.08,0,0,0,.21-.25C244.49,19.91,248.67,9,249,7.67c0-.06.06-.27,0-.35a.58.58,0,0,0-.38-.16Zm-2.34,14.14,0,0Zm-5.62-9.41v0Zm.18-.14v0Zm1-4.75c-1,0-1.05.46-1.06.73,0,.46,0,1.08,0,1.71A3.16,3.16,0,0,1,240.51,7l-1.1,0Z"/><path class="c" d="M255.86,22.6l-.43,0a4.25,4.25,0,0,1-3.88-4.09V18.1l.14-.36c.57-1.4,2.35-3.5,4.76-3.16a4,4,0,0,1,3.49,4,4.19,4.19,0,0,1-1.41,3A3.93,3.93,0,0,1,255.86,22.6Zm0-9.21h-.27a4.33,4.33,0,0,1-4.17-3.9,3.79,3.79,0,0,1,1.3-3.05,4.24,4.24,0,0,1,3.68-1.19,4.12,4.12,0,0,1,3.61,4,3.54,3.54,0,0,1-1,2.78A4.42,4.42,0,0,1,255.89,13.39Zm-.35-4.1a.6.6,0,0,0,.34.1.45.45,0,0,0,.16,0s0-.08,0-.1a.82.82,0,0,0-.29-.08A.4.4,0,0,0,255.54,9.29Z"/><path class="c" d="M270.61,26.16a10.41,10.41,0,0,1-6.48-2.2c-3.53-2.79-5.13-7.22-4.39-12.17a11,11,0,0,1,10.75-9.16h.17a10.64,10.64,0,0,1,9.91,6.87h0c1.59,4.24.5,11.33-3.36,14.46A10.71,10.71,0,0,1,270.61,26.16Zm-.12-19.53a7.05,7.05,0,0,0-6.79,5.76c-.31,2-.34,5.86,2.91,8.43a6.88,6.88,0,0,0,8.08,0c2.23-1.8,3.31-6.82,2.14-9.94h0a6.68,6.68,0,0,0-6.22-4.28Zm.17,15.07a7,7,0,0,1-4.28-1.48c-2.14-1.63-3.59-5.35-1.74-9.65a6.41,6.41,0,0,1,12.18,1.61c.54,2.81,0,6.44-2.38,8.27h0A6.2,6.2,0,0,1,270.66,21.7Zm0-10.9a2.74,2.74,0,0,0-2.38,1.35c-1.42,3.31.47,4.89.49,4.9a2.7,2.7,0,0,0,3.2.22c.94-.72,1.19-2.75.89-4.31a2.8,2.8,0,0,0-2.07-2.16Z"/><path class="c" d="M290.09,26.16a10.43,10.43,0,0,1-6.48-2.2c-3.52-2.79-5.12-7.22-4.38-12.17a11,11,0,0,1,10.92-9.16,10.64,10.64,0,0,1,9.9,6.87h0c1.6,4.24.5,11.33-3.36,14.46A10.69,10.69,0,0,1,290.09,26.16ZM290,6.63a7.05,7.05,0,0,0-6.8,5.76c-.3,2-.33,5.86,2.91,8.43a6.9,6.9,0,0,0,8.09,0c2.22-1.8,3.3-6.82,2.13-9.94a6.68,6.68,0,0,0-6.22-4.28Zm.16,15.07a7,7,0,0,1-4.28-1.48c-2.13-1.63-3.58-5.35-1.73-9.65a6.61,6.61,0,0,1,6.52-3.75,6.72,6.72,0,0,1,5.66,5.36c.53,2.81,0,6.44-2.39,8.27h0A6.15,6.15,0,0,1,290.14,21.7Zm.05-10.9a2.75,2.75,0,0,0-2.39,1.35c-1.42,3.31.47,4.89.49,4.9a2.7,2.7,0,0,0,3.2.22c.94-.71,1.19-2.75.89-4.31a2.8,2.8,0,0,0-2.07-2.16Z"/><path class="c" d="M314.47,25.78l-1,0h-.12a6.89,6.89,0,0,1-3.67-1.51,3.37,3.37,0,0,1-.41-4.43,3.78,3.78,0,0,1,1.59-1.19l-.27-.28a5.69,5.69,0,0,1-1-6,5.8,5.8,0,0,1,5.63-3.52,7.56,7.56,0,0,1,1.64.18c2.38.6,4.05,1.92,4.5,3.52A3,3,0,0,1,321,15a3,3,0,0,1-1.84,1.34A7.12,7.12,0,0,1,320.42,18a5.26,5.26,0,0,1-1.78,6.73A7.5,7.5,0,0,1,314.47,25.78Z"/><path class="c" d="M326.17,25.84a3.14,3.14,0,0,1-2.09-.8,4,4,0,0,1-1.21-2.83c0-.73-.05-4.3,0-6.78h-1c-2.65-.1-3.41-1.62-3.6-2.87a3.07,3.07,0,0,1,.68-2.41,4,4,0,0,1,2.91-1.3c.79,0,8.06,0,9.12.08a3.29,3.29,0,0,1,3,3.25,3.13,3.13,0,0,1-1,2.25,3.31,3.31,0,0,1-2.43.92h-.89V18c0,2.71,0,4,0,4.4a3.17,3.17,0,0,1-3.23,3.4Zm3.48-11.41h0Z"/><path class="c" d="M347.6,25.77A3.39,3.39,0,0,1,344.22,23c-.09-.5-.12-2-.06-9,0-.62,0-1.08,0-1.24a3.37,3.37,0,0,1,3.19-3.51c1.23-.12,4.91.05,6,.11A5.58,5.58,0,0,1,358.54,15a6.67,6.67,0,0,1-1.69,4.16,18.81,18.81,0,0,1,1,2.07,3.37,3.37,0,0,1-1.8,4.16,3.41,3.41,0,0,1-4.51-1.68L351,22.61c0,.09,0,.16,0,.23A3.38,3.38,0,0,1,347.6,25.77Zm3.43-6v0Zm.11-3.87v0Zm1.42-.27h0Z"/><path class="c" d="M363.06,25.84A3.14,3.14,0,0,1,361,25a4,4,0,0,1-1.21-2.83c0-.73,0-4.3,0-6.78h-1c-2.65-.1-3.42-1.62-3.6-2.87a3,3,0,0,1,.68-2.41,4,4,0,0,1,2.91-1.3c.78,0,8.05,0,9.11.08a3.29,3.29,0,0,1,3,3.25,3.13,3.13,0,0,1-1,2.25,3.27,3.27,0,0,1-2.42.92h-.9V18c0,2.71,0,4,0,4.4a3.16,3.16,0,0,1-3.23,3.4Zm3.48-11.41h0Z"/><path class="c" d="M380.86,25.87h-.21a4.27,4.27,0,0,1-4-3.68c-.09-.78-.05-4,0-9.76a3.92,3.92,0,0,1-3.82-2.66c-.67-2,.12-3.73,2.34-5.18l.13-.08c1.83-1.18,3.9-2.52,6.5-1.95,3.47.78,3.47,4.49,3.47,5.71s-.18,12.6-.3,14A4.18,4.18,0,0,1,380.86,25.87Zm.19-4h0ZM377.9,8.28a2.75,2.75,0,0,1,1.69.58,3.15,3.15,0,0,1,1.14,2.63l0,.93c0,2.55-.15,8.5-.07,9.29a.41.41,0,0,0,.27.16.87.87,0,0,1,.14-.1c.1-1.64.28-11.84.28-13.51,0-1.37-.16-1.69-.24-1.77a.26.26,0,0,0-.1,0c-.92-.21-1.87.37-3.46,1.4l-.12.08a4.17,4.17,0,0,0-.63.47l.17,0,.17,0A2.63,2.63,0,0,1,377.9,8.28Z"/><path class="c" d="M417.58,26.16A10.41,10.41,0,0,1,411.1,24c-3.53-2.79-5.13-7.22-4.39-12.17a11,11,0,0,1,10.75-9.16h.17a10.64,10.64,0,0,1,9.91,6.87h0c1.59,4.24.49,11.33-3.36,14.46A10.71,10.71,0,0,1,417.58,26.16Zm-.12-19.53a7.05,7.05,0,0,0-6.79,5.76c-.31,2-.34,5.86,2.91,8.43a6.88,6.88,0,0,0,8.08,0c2.23-1.8,3.3-6.82,2.13-9.94a6.66,6.66,0,0,0-6.22-4.28Zm.17,15.07a7,7,0,0,1-4.29-1.48c-2.13-1.63-3.58-5.35-1.73-9.65a6.41,6.41,0,0,1,12.18,1.61c.54,2.81,0,6.44-2.38,8.27h0A6.15,6.15,0,0,1,417.63,21.7Zm0-10.9a2.73,2.73,0,0,0-2.38,1.35c-1.43,3.31.47,4.89.49,4.9a2.7,2.7,0,0,0,3.2.22c.94-.71,1.19-2.75.89-4.31a2.8,2.8,0,0,0-2.07-2.16Z"/><path class="c" d="M437.06,26.16a10.43,10.43,0,0,1-6.48-2.2c-3.52-2.79-5.12-7.22-4.39-12.17A11,11,0,0,1,437,2.63h.17A10.64,10.64,0,0,1,447,9.5h0c1.6,4.25.5,11.33-3.36,14.46A10.69,10.69,0,0,1,437.06,26.16ZM437,6.63a7.05,7.05,0,0,0-6.8,5.76c-.31,2-.33,5.86,2.91,8.43a6.9,6.9,0,0,0,8.09,0c2.22-1.8,3.3-6.82,2.13-9.94h0a6.68,6.68,0,0,0-6.22-4.28Zm.16,15.07a7,7,0,0,1-4.28-1.48c-2.14-1.63-3.58-5.35-1.74-9.65a6.41,6.41,0,0,1,12.18,1.61c.54,2.81,0,6.44-2.38,8.27h0A6.2,6.2,0,0,1,437.11,21.7Zm0-10.9a2.74,2.74,0,0,0-2.38,1.35c-1.42,3.31.47,4.89.49,4.9a2.7,2.7,0,0,0,3.2.22c.94-.71,1.19-2.75.89-4.31a2.8,2.8,0,0,0-2.07-2.16Z"/><path class="c" d="M346.08,21.13c-.12-.23-.78-1.76-1.37-3.1-2.34-5.36-3-6.86-3.31-7.32-1-1.64-3.51-2-5.21-1.36-1.52.61-2.19,2.28-2.72,3.62l-.14.35c-.18.42-1,1.92-1.64,3.25-1.23,2.39-2.05,4-2.3,4.64a3.53,3.53,0,0,0,.08,3,3.28,3.28,0,0,0,2.26,1.63,4.39,4.39,0,0,0,.85.09,3.61,3.61,0,0,0,2.93-1.71c.13-.2.28-.46.58-1,.16-.29.33-.62.51-.92h2.51c.13.26.24.51.34.73s.3.66.42.87a3.77,3.77,0,0,0,4.65,1.62h0a3.15,3.15,0,0,0,1.54-4.36Z"/><path class="c" d="M400.68,17a8.23,8.23,0,0,0-1.59-3.35,5.2,5.2,0,0,0,.82-1.53,7.6,7.6,0,0,0-1.85-7.57C395.53,2.16,391,2,388.35,3.32a7.07,7.07,0,0,0-3.82,6.79,6.09,6.09,0,0,0,1,3.22A7,7,0,0,0,383.78,17,7.27,7.27,0,0,0,387,24.3a8.86,8.86,0,0,0,5.28,1.6,11.83,11.83,0,0,0,4.13-.75A7.11,7.11,0,0,0,400.68,17Z"/><path class="c" d="M403.57,13.38h.27A4.36,4.36,0,0,0,407,12a3.51,3.51,0,0,0,1-2.78,4.13,4.13,0,0,0-3.61-4,4.27,4.27,0,0,0-3.69,1.19,3.78,3.78,0,0,0-1.29,3.05A4.32,4.32,0,0,0,403.57,13.38Z"/><path class="c" d="M404.39,14.58c-2.4-.33-4.19,1.76-4.75,3.16l-.14.36v.39a4.25,4.25,0,0,0,3.88,4.09l.43,0a4,4,0,0,0,2.67-1,4.19,4.19,0,0,0,1.41-3A4,4,0,0,0,404.39,14.58Z"/><path class="c" d="M216.38,9.17A3.41,3.41,0,0,0,213,12.56V13c-.82-1.06-1.57-2-1.86-2.29a4.59,4.59,0,0,0-3.33-1.48h-.32l-.19,0a3.55,3.55,0,0,0-3.18,3.45c0,.62,0,8.4.11,9.52a3.44,3.44,0,0,0,6.86.08c0-.09,0-.22,0-.4,2.33,2.73,2.9,3,3.23,3.18a3.94,3.94,0,0,0,1.8.43,3.56,3.56,0,0,0,3.62-3.15c.06-.89.11-9.54.11-9.89A3.42,3.42,0,0,0,216.38,9.17Z"/><path class="d" d="M176.88,22.82a7.51,7.51,0,0,1-3.38.75,7.11,7.11,0,0,1-4-1.07,6.8,6.8,0,0,1-2.38-6.72A6.18,6.18,0,0,1,173,11.29h.14a6.56,6.56,0,0,1,6.36,4.45C180.32,18.43,179.12,21.66,176.88,22.82Zm-1.18-7.63a3.32,3.32,0,0,0-2.36-.87,3.41,3.41,0,0,0-2.13.67,3.17,3.17,0,0,0,2.11,5.57,3.11,3.11,0,0,0,3.12-1.81A3.33,3.33,0,0,0,175.7,15.19Z"/><path class="d" d="M192.44,14.93c-.06,1.73-1,3.68-3.09,3.85-.77.07-1.67.1-2.66.1l-.48,0a1,1,0,0,0-1,1c0,1,0,2.42-.06,2.79a1.5,1.5,0,0,1-1.51,1.28,1.48,1.48,0,0,1-1.52-1.2c-.1-.58,0-6.15,0-8.82V12.74a1.52,1.52,0,0,1,1.51-1.63c.21,0,.58,0,1.08,0,1.06,0,2.71,0,4.55.15A3.53,3.53,0,0,1,192.44,14.93Zm-6.74,1.23.27,0h.93c.71,0,1.24,0,1.55,0,.69-.05,1-.46,1.1-1.31a1,1,0,0,0-.81-1.11c-.66-.05-2.68-.08-3-.08s-.37.08-.37.47c0,.08,0,.28,0,.5,0,.43,0,1,0,1.28S185.42,16.16,185.7,16.16Z"/><path class="d" d="M203.4,22.32a1.4,1.4,0,0,1-1.18,1.33c-.65,0-5.67.08-6.26.08a1.43,1.43,0,0,1-1.64-1.43c0-1.09,0-5.07,0-7.46,0-.87,0-1.55,0-1.78A1.47,1.47,0,0,1,196,11.37h1c1.74,0,4.74,0,5.43.07a1.29,1.29,0,0,1,1.25,1.38,1.28,1.28,0,0,1-1.41,1.3c-.39,0-1.16,0-2.27,0h-2.19c-.21,0-.33.13-.37.42,0,0,0,.45,0,1,0,.17.13.59.85.59,1.45,0,3.3.06,3.7.06a.94.94,0,0,1,.69.29,1.46,1.46,0,0,1,.39,1,1.33,1.33,0,0,1-1.22,1.2,7.15,7.15,0,0,1-.79,0l-2.88,0c-.77,0-.75.5-.75.73,0,.54,0,.94,0,1,0,.28.33.38.63.38.81,0,3.55,0,4.29,0A1.3,1.3,0,0,1,203.4,22.32Z"/><path class="d" d="M217.81,12.51c0,.66-.05,9-.11,9.76a1.57,1.57,0,0,1-1.62,1.28,2,2,0,0,1-.9-.22c-.77-.38-3.89-4.2-5.46-6.17-.29-.37-.69-.23-.69.2,0,1.72,0,4.41,0,4.91a1.42,1.42,0,0,1-1.43,1.21,1.39,1.39,0,0,1-1.45-1.4c-.09-1-.12-8.72-.1-9.27a1.56,1.56,0,0,1,1.44-1.54h.25a2.62,2.62,0,0,1,1.9.88c.5.52,3.25,4.09,4.66,5.95.26.34.63.26.63-.15V12.56a1.41,1.41,0,0,1,1.43-1.39h0A1.42,1.42,0,0,1,217.81,12.51Z"/><path class="d" d="M225.1,9.13c-.29-.85-.24-1.72,1.53-2.87s3.28-2.15,5.1-1.75,1.91,2.25,1.91,3.75-.19,12.6-.29,13.78a2.24,2.24,0,0,1-2.28,1.82A2.27,2.27,0,0,1,229,21.94c-.11-.88,0-7.5.08-10.51,0-.9-.53-1.27-1.06-1.12a3.22,3.22,0,0,1-.66.12C226.13,10.41,225.36,10,225.1,9.13Z"/><path class="d" d="M240.22,10a13,13,0,0,1-.08,2.05c-.08.73-1.11,1.21-1.95,1.21A1.71,1.71,0,0,1,236.36,12c-.1-.83-.08-3.45-.05-4.38.05-1.4,1-2.67,3.15-2.65s7.93.18,9.22.23a2.33,2.33,0,0,1,2.25,3c-.31,1.33-4.94,13.53-5.58,14.33-.76,1-1.21,1.38-2.48,1.08a1.81,1.81,0,0,1-1.33-2.38c.24-.95,3.1-8,4.37-11,.45-1.08-.87-1.33-.87-1.33l-3.5-.05S240.22,8.86,240.22,10Z"/><path class="d" d="M253.44,9.28a2.37,2.37,0,0,1,2.65-2.07,2.12,2.12,0,0,1,2,2.17c.16,1.2-1.08,2.08-2.3,2A2.33,2.33,0,0,1,253.44,9.28Zm.11,9.21c.29-.73,1.37-2.1,2.62-1.93a2,2,0,0,1,1.77,2,2.15,2.15,0,0,1-2.3,2A2.25,2.25,0,0,1,253.55,18.49Z"/><path class="d" d="M278.7,10.21c1.4,3.73.26,9.75-2.75,12.2a8.84,8.84,0,0,1-10.58,0c-3.23-2.55-4.23-6.4-3.65-10.31a9.07,9.07,0,0,1,8.91-7.45A8.69,8.69,0,0,1,278.7,10.21Zm-5.48,8.65c1.8-1.37,2-4.35,1.64-6.28a4.41,4.41,0,0,0-8.38-1.22c-1.61,3.75,0,6.4,1.11,7.28A4.68,4.68,0,0,0,273.22,18.86Z"/><path class="d" d="M298.18,10.21c1.4,3.73.26,9.75-2.75,12.2a8.84,8.84,0,0,1-10.58,0c-3.22-2.55-4.23-6.4-3.65-10.31a9.07,9.07,0,0,1,8.92-7.45A8.69,8.69,0,0,1,298.18,10.21Zm-5.47,8.65c1.79-1.37,2-4.35,1.64-6.28A4.42,4.42,0,0,0,286,11.36c-1.61,3.75,0,6.4,1.11,7.28A4.69,4.69,0,0,0,292.71,18.86Z"/><path class="d" d="M319.33,14a1,1,0,0,1-.67.48,2.49,2.49,0,0,1-.52.07,2.2,2.2,0,0,1-1.1-.35,3.79,3.79,0,0,0-1.71-.44,1.45,1.45,0,0,0-.3,0,1,1,0,0,0-.86,1.13c.07.67.9,1.17,1.71,1.57a6.82,6.82,0,0,1,2.77,2.47,3.22,3.22,0,0,1-1.11,4.12,5.64,5.64,0,0,1-3.07.73l-.92,0a5.38,5.38,0,0,1-2.4-.9,1.38,1.38,0,0,1-.26-1.84,1.58,1.58,0,0,1,1.23-.63,2,2,0,0,1,.83.18,5.4,5.4,0,0,0,1.82.35,1.89,1.89,0,0,0,.69-.11.91.91,0,0,0,.45-.65.82.82,0,0,0-.26-.75,6.68,6.68,0,0,0-1.29-.84,10.19,10.19,0,0,1-2.29-1.6,3.76,3.76,0,0,1-.6-3.89,3.87,3.87,0,0,1,3.77-2.23,5.66,5.66,0,0,1,1.2.13c1.91.49,2.82,1.44,3,2.12A1,1,0,0,1,319.33,14Z"/><path class="d" d="M332,12.19a1.26,1.26,0,0,1-1.34,1.17c-.23,0-.9,0-1.77,0s-1.19.6-1.19,1.07c0,2.36,0,7.29,0,7.89,0,.88-.23,1.46-1.32,1.51s-1.4-.85-1.43-1.7-.05-5.3,0-7.65c0-.46-.05-1-1-1.06s-1.78,0-2,0c-.88,0-1.48-.22-1.62-1.17s.85-1.38,1.69-1.41c1,0,8,0,8.8.06A1.29,1.29,0,0,1,332,12.19Z"/><path class="d" d="M343.73,23.67a1.78,1.78,0,0,1-2.14-.8c-.19-.34-.45-1.05-.86-1.82a1.21,1.21,0,0,0-1.15-.77h-3.31s-.74-.13-1.3.82c-.43.73-1,1.78-1.1,2-.58.77-.93,1-1.74.82a1.29,1.29,0,0,1-.88-1.95c.42-1.07,3.45-6.77,3.91-7.83s.95-2.58,1.78-2.91a2.57,2.57,0,0,1,2.77.56c.46.72,4.23,9.56,4.58,10.26A1.16,1.16,0,0,1,343.73,23.67Zm-6.05-8.23c-.19.39-.44.9-.69,1.47s.36.65.36.65l1.25,0s.56,0,.35-.61-.48-1.07-.65-1.5S337.87,15,337.68,15.44Z"/><path class="d" d="M354.65,19.23c.57,1.1,1.13,2.2,1.27,2.62a1.39,1.39,0,0,1-.76,1.72,1.43,1.43,0,0,1-1.83-.7c-.21-.47-.9-1.91-1.53-3.19a.94.94,0,0,0-1.11-.73c-.36,0-.67,0-.94,0a.74.74,0,0,0-.72.86c0,1,0,2.37,0,2.77a1.37,1.37,0,0,1-1.39,1.19,1.39,1.39,0,0,1-1.41-1.12c-.12-.72,0-9.08,0-9.94a1.4,1.4,0,0,1,1.4-1.52c.82-.08,3.45,0,5.69.12a3.58,3.58,0,0,1,3.28,3.62,4.48,4.48,0,0,1-1.6,3.26C354.32,18.68,354.53,19,354.65,19.23Zm-5-2.77c.28,0,2,0,2.77,0A1.42,1.42,0,0,0,353.84,15a1.34,1.34,0,0,0-1.09-1.38c-.67-.07-2.68-.09-3.07-.09s-.49.22-.49.57-.07,1.59,0,2S349.38,16.46,349.68,16.46Z"/><path class="d" d="M368.84,12.19a1.26,1.26,0,0,1-1.34,1.17c-.23,0-.9,0-1.76,0s-1.2.6-1.2,1.07c0,2.36,0,7.29,0,7.89,0,.88-.23,1.46-1.32,1.51s-1.39-.85-1.43-1.7-.05-5.3,0-7.65c0-.46-.06-1-1-1.06s-1.78,0-2,0c-.88,0-1.48-.22-1.63-1.17s.85-1.38,1.7-1.41,8,0,8.79.06A1.29,1.29,0,0,1,368.84,12.19Z"/><path class="d" d="M374.79,9.13c-.29-.85-.24-1.72,1.53-2.87s3.28-2.15,5.11-1.75,1.9,2.25,1.9,3.75S383.15,20.86,383,22a2.24,2.24,0,0,1-2.27,1.82,2.28,2.28,0,0,1-2.12-1.92c-.11-.88,0-7.5.08-10.51,0-.9-.53-1.27-1.06-1.12a3.22,3.22,0,0,1-.66.12C375.82,10.41,375.05,10,374.79,9.13Z"/><path class="d" d="M386.53,10.08a5.09,5.09,0,0,1,2.72-5c2-1,5.58-.85,7.43.9a5.64,5.64,0,0,1,1.33,5.5A4.63,4.63,0,0,1,397,13.09a.83.83,0,0,0,.08,1.2,6.91,6.91,0,0,1,1.69,3.1,5.09,5.09,0,0,1-3.07,5.9c-2.06.77-5.26,1.05-7.51-.6a5.31,5.31,0,0,1-2.38-5.48,5.46,5.46,0,0,1,1.78-3.12.86.86,0,0,0,0-1.26A4.45,4.45,0,0,1,386.53,10.08Zm4.84,5.86a2.15,2.15,0,0,0-1.46,2.4,2.54,2.54,0,0,0,4.87.35,2.34,2.34,0,0,0-.79-2.4A2.9,2.9,0,0,0,391.37,15.94Zm3-7.16a2,2,0,0,0-2.11-1.07,1.82,1.82,0,0,0-1.85,1.7,1.67,1.67,0,0,0,1.43,1.67,2.46,2.46,0,0,0,2.16-.47A1.66,1.66,0,0,0,394.38,8.78Z"/><path class="d" d="M401.39,9.28A2.36,2.36,0,0,1,404,7.21a2.12,2.12,0,0,1,2,2.17c.16,1.2-1.08,2.08-2.3,2A2.32,2.32,0,0,1,401.39,9.28Zm.11,9.21c.29-.73,1.37-2.1,2.61-1.93a2,2,0,0,1,1.78,2,2.16,2.16,0,0,1-2.3,2A2.24,2.24,0,0,1,401.5,18.49Z"/><path class="d" d="M425.67,10.21c1.4,3.73.26,9.75-2.75,12.2a8.84,8.84,0,0,1-10.58,0c-3.23-2.55-4.23-6.4-3.65-10.31a9.07,9.07,0,0,1,8.91-7.45A8.69,8.69,0,0,1,425.67,10.21Zm-5.48,8.65c1.8-1.37,2-4.35,1.64-6.28a4.41,4.41,0,0,0-8.38-1.22c-1.61,3.75,0,6.4,1.11,7.28A4.68,4.68,0,0,0,420.19,18.86Z"/><path class="d" d="M445.15,10.21c1.4,3.73.26,9.75-2.75,12.2a8.84,8.84,0,0,1-10.58,0c-3.22-2.55-4.23-6.4-3.65-10.31a9.07,9.07,0,0,1,8.91-7.45A8.69,8.69,0,0,1,445.15,10.21Zm-5.48,8.65c1.8-1.37,2-4.35,1.64-6.28a4.41,4.41,0,0,0-8.38-1.22c-1.61,3.75,0,6.4,1.11,7.28A4.68,4.68,0,0,0,439.67,18.86Z"/><rect class="d" width="153.68" height="24.63" rx="7"/><path class="c" d="M49,10.46a.9.9,0,0,1,.58.8.82.82,0,0,1-.84.82,1.07,1.07,0,0,1-.55-.14A21.34,21.34,0,0,1,42.1,7.4,23,23,0,0,1,36,12.18a.86.86,0,0,1-.44.12.78.78,0,0,1-.33-1.5,20.32,20.32,0,0,0,6.17-5.17,1,1,0,0,1,.77-.37.82.82,0,0,1,.88.71.74.74,0,0,1,0,.24A19.33,19.33,0,0,0,49,10.46Zm-7.36,4.06A28,28,0,0,1,40.1,17.1c1.41-.1,2.82-.21,4.21-.39-.22-.22-.45-.43-.65-.6a.68.68,0,0,1-.27-.51.78.78,0,0,1,.83-.69,1,1,0,0,1,.61.22,17.43,17.43,0,0,1,2.65,2.56,1,1,0,0,1,.25.59.81.81,0,0,1-.85.75,1,1,0,0,1-.81-.42c-.17-.22-.38-.46-.58-.68a77.5,77.5,0,0,1-8.41.83.75.75,0,0,1-.85-.76.74.74,0,0,1,.8-.75l1.08-.05a23.17,23.17,0,0,0,1.64-2.68H36.53a.69.69,0,0,1-.69-.73.67.67,0,0,1,.69-.72H47.85a.67.67,0,0,1,.69.72.68.68,0,0,1-.69.73Zm3-4.13a.67.67,0,0,1,.69.72.68.68,0,0,1-.69.73H39.71a.69.69,0,0,1-.69-.73.67.67,0,0,1,.69-.72Z"/><path class="c" d="M52.23,10.39h-1a.66.66,0,0,1-.63-.71A.65.65,0,0,1,51.18,9h1V6.25c0-.43.4-.63.81-.63s.82.2.82.63V9h.84a.65.65,0,0,1,.64.71.66.66,0,0,1-.64.71h-.84v3l.75-.33a1,1,0,0,1,.31-.07.74.74,0,0,1,.71.74.64.64,0,0,1-.38.58,26.8,26.8,0,0,1-3.85,1.51.8.8,0,0,1-.25,0,.79.79,0,0,1-.79-.77.69.69,0,0,1,.55-.67c.41-.12.86-.25,1.32-.41Zm7.91,4.16A12.22,12.22,0,0,1,56.82,18a.92.92,0,0,1-.54.18.68.68,0,0,1-.7-.64A.71.71,0,0,1,56,17a9.17,9.17,0,0,0,2.59-2.42h-.93a11.57,11.57,0,0,1-2.1,1.81,1,1,0,0,1-.5.15.7.7,0,0,1-.72-.64.76.76,0,0,1,.41-.61,9.3,9.3,0,0,0,2.64-2.55H55.88a.65.65,0,0,1,0-1.3h8.5a.65.65,0,0,1,0,1.3H59a7.57,7.57,0,0,1-.44.66h4.12c1.1,0,1.63.38,1.63,1.27A11.49,11.49,0,0,1,64,17.51a1.82,1.82,0,0,1-2,1.62,4.5,4.5,0,0,1-.88-.08.72.72,0,1,1,.21-1.43,3.1,3.1,0,0,0,.56.06.5.5,0,0,0,.56-.45,10.87,10.87,0,0,0,.32-2.41c0-.2-.08-.27-.3-.27h-.08a11.14,11.14,0,0,1-3.29,4.27.92.92,0,0,1-.58.21.68.68,0,0,1-.74-.61.76.76,0,0,1,.35-.58,9.66,9.66,0,0,0,2.76-3.29Zm-1.82-3.73c-1.13,0-1.74-.42-1.74-1.44V7.16c0-1,.61-1.44,1.74-1.44h3.26c1.14,0,1.75.4,1.75,1.44V9.38c0,1.11-.69,1.42-1.75,1.44ZM61.8,7.25c0-.24-.08-.31-.42-.31H58.56c-.35,0-.43.07-.43.31v.44H61.8ZM61.38,9.6c.34,0,.42-.07.42-.31V8.85H58.13v.44c0,.28.16.31.43.31Z"/><path class="c" d="M68,19.16a.49.49,0,0,1-.45.29c-.46,0-.79-.25-.79-.47a.81.81,0,0,1,.07-.35L72.42,5.47a.5.5,0,0,1,.45-.3c.46,0,.79.25.79.48a.84.84,0,0,1-.07.35Z"/><path class="c" d="M82.41,16.89A1.4,1.4,0,0,1,81,17.94a1.35,1.35,0,0,1-1.44-1L76.38,7.74a1.29,1.29,0,0,1-.08-.4c0-.49.47-.83,1.11-.83a.83.83,0,0,1,.85.56l2.11,6.84c.22.71.38,1.26.58,2.06h.11c.24-.78.4-1.36.63-2.06l2.24-6.84a.85.85,0,0,1,.86-.56c.64,0,1.07.35,1.07.78a1.26,1.26,0,0,1-.08.43Z"/><path class="c" d="M87.75,14.45a2.13,2.13,0,0,0,2.06,2.19,2.72,2.72,0,0,0,1.84-.58.81.81,0,0,1,.48-.18.71.71,0,0,1,.75.69.61.61,0,0,1-.21.51,4.65,4.65,0,0,1-2.86.91c-2.27,0-3.76-1.47-3.76-4s1.57-4,3.65-4A3.2,3.2,0,0,1,93,13.14a1.19,1.19,0,0,1-1.33,1.31ZM91,13.22a.34.34,0,0,0,.36-.37,1.63,1.63,0,0,0-1.66-1.57,1.9,1.9,0,0,0-1.88,1.94Z"/><path class="c" d="M96.45,11.51A2.37,2.37,0,0,1,98.68,10a2.51,2.51,0,0,1,2,.68,3.19,3.19,0,0,1,.73,2.52V15.4a6.23,6.23,0,0,0,.18,1.62,2.44,2.44,0,0,1,0,.26c0,.37-.41.65-1,.65a.74.74,0,0,1-.81-.53,7.14,7.14,0,0,1-.17-1.86V13.39c0-1.11-.13-1.46-.3-1.65a1.05,1.05,0,0,0-.86-.37c-1.07,0-1.91.88-1.91,2.42v3.37c0,.47-.35.77-.9.77s-.91-.28-.91-.77V10.79a.81.81,0,0,1,.9-.76.76.76,0,0,1,.84.76Z"/><path class="c" d="M103.5,10.8c0-.47.34-.77.89-.77s.91.28.91.77v3.77c0,1.11.12,1.45.3,1.64a1.06,1.06,0,0,0,.87.39c1.18,0,2-.72,2-2.29V10.8c0-.47.35-.77.9-.77s.9.28.9.77V14a13.81,13.81,0,0,0,.22,2.78,2.6,2.6,0,0,1,.08.54c0,.38-.39.6-1,.6a.68.68,0,0,1-.72-.51,6,6,0,0,1-.24-.83,2.61,2.61,0,0,1-2.38,1.4,2.51,2.51,0,0,1-2-.68,3.15,3.15,0,0,1-.72-2.52Z"/><path class="c" d="M113.65,14.45a2.14,2.14,0,0,0,2.07,2.19,2.68,2.68,0,0,0,1.83-.58.86.86,0,0,1,.49-.18.71.71,0,0,1,.75.69.61.61,0,0,1-.22.51,4.6,4.6,0,0,1-2.85.91c-2.27,0-3.76-1.47-3.76-4s1.57-4,3.65-4a3.2,3.2,0,0,1,3.29,3.17,1.19,1.19,0,0,1-1.33,1.31Zm3.23-1.23a.34.34,0,0,0,.36-.37,1.63,1.63,0,0,0-1.66-1.57,1.89,1.89,0,0,0-1.88,1.94Z"/></svg>