<?xml version="1.0" encoding="utf-8"?>
<!-- Generator: Adobe Illustrator 26.0.0, SVG Export Plug-In . SVG Version: 6.00 Build 0)  -->
<svg version="1.1" id="レイヤー_1" xmlns="http://www.w3.org/2000/svg" xmlns:xlink="http://www.w3.org/1999/xlink" x="0px"
	 y="0px" viewBox="0 0 931 202.5" style="enable-background:new 0 0 931 202.5;" xml:space="preserve">
<style type="text/css">
	.st0{fill:#847741;}
	.st1{fill:#FFFFFF;}
	.st2{fill:#B0A671;}
	.st3{fill:#9E9E9F;}
	.st4{fill:#FFA5D1;}
	.st5{fill:#91E0F8;}
	.st6{fill:#F09FBA;}
	.st7{fill:#C9C29A;}
	.st8{fill:#8FD2EA;}
	.st9{fill:#9ED8F5;}
</style>
<path class="st0" d="M730.8,164.9l9.8-64.1c0.8-4.3,4.9-7.1,9.2-6.4c0,0,0,0,0,0c35.5,5.6,70.8,12.3,106,20
	c6.3,1.4,8.6,8.8,4.1,13.1c-7,6.7-14,13.3-21,20c-2.2,2.1-2.9,5.3-1.8,8.2c3.6,9,7,17.9,10.4,26.9c1.5,4-0.6,8.4-4.6,9.9
	c-1.4,0.5-2.9,0.6-4.4,0.3c-33.6-7.4-67.4-13.7-101.3-19.1C733.1,173.1,730.2,169.2,730.8,164.9z"/>
<path class="st0" d="M200.1,164.9l-9.8-64.1c-0.8-4.3-4.9-7.1-9.2-6.4c0,0,0,0,0,0c-35.5,5.6-70.8,12.3-106,20
	c-6.3,1.4-8.6,8.8-4.1,13.1c7.1,6.7,14.1,13.3,21,20c2.2,2.1,2.9,5.3,1.8,8.2c-3.5,9-7,17.9-10.4,26.9c-1.5,4,0.6,8.4,4.6,9.9
	c1.4,0.5,2.9,0.6,4.4,0.3c33.6-7.4,67.4-13.7,101.3-19.1C197.9,173.1,200.8,169.2,200.1,164.9z"/>
<path class="st1" d="M736,164.7c-3.6-0.5-6-3.9-5.5-7.4c3.3-21.3,6.6-42.7,9.8-64.1c0.7-3.6,4.1-6,7.8-5.4
	c35.5,5.6,70.8,12.2,106,19.9c2.4,0.5,4.4,2.3,5.2,4.6c0.7,2.3,0.1,4.8-1.7,6.4c-7,6.7-14,13.4-21,20.1c-2.5,2.4-3.3,6.2-2,9.4
	c3.6,9,7,17.9,10.4,26.9c0.9,2.2,0.4,4.8-1.2,6.5c-1.6,1.8-4,2.6-6.4,2.1C803.7,176.4,769.9,170,736,164.7z"/>
<path class="st2" d="M747.9,88.9c35.4,5.6,70.7,12.2,105.9,19.9c2,0.4,3.6,1.8,4.2,3.8c0.6,1.9,0.1,3.9-1.4,5.3
	c-7,6.7-14,13.4-21,20.1c-2.9,2.8-3.7,7-2.3,10.7c3.6,9,7,17.9,10.4,26.9c0.7,1.8,0.3,3.9-1,5.4c-1.3,1.5-3.3,2.1-5.2,1.7
	c-33.7-7.4-67.5-13.7-101.5-19.1c-2.9-0.4-4.9-3.2-4.5-6.1c3.3-21.3,6.6-42.7,9.9-64.1C742,90.3,744.8,88.4,747.9,88.9
	C747.8,88.9,747.8,88.9,747.9,88.9L747.9,88.9 M748.2,86.6c-4.3-0.8-8.4,2.1-9.2,6.4c0,0,0,0,0,0c-3.2,21.4-6.5,42.7-9.7,64.1
	c-0.6,4.2,2.3,8.2,6.5,8.8c33.9,5.3,67.7,11.7,101.4,19.1l0,0c4.1,1,8.3-1.6,9.3-5.7c0.3-1.5,0.3-3-0.3-4.4
	c-3.4-9-6.9-17.9-10.4-26.9c-1.1-2.8-0.4-6.1,1.8-8.2c6.9-6.7,13.9-13.4,21-20c4.5-4.2,2.2-11.7-4.1-13.1
	c-35.2-7.7-70.5-14.4-106-20L748.2,86.6z"/>
<path class="st1" d="M736.9,158.8c-0.3,0-0.5-0.3-0.5-0.6c0,0,0,0,0,0c3.3-21.3,6.7-42.7,10.1-64c0.1-0.3,0.4-0.5,0.7-0.5
	c35.3,5.6,70.5,12.2,105.6,19.9c0.2,0,0.4,0.2,0.5,0.4c0.1,0.2,0,0.4-0.1,0.6c-7.1,6.7-14,13.4-20.9,20.1
	c-4.2,4.1-5.5,10.3-3.3,15.7c3.6,8.9,7,17.9,10.5,26.9c0.1,0.2,0.1,0.4-0.1,0.6c-0.1,0.2-0.4,0.2-0.6,0.2
	C804.9,170.5,771,164.1,736.9,158.8z"/>
<path class="st3" d="M747.1,93.6c-0.3-0.1-0.6,0.1-0.7,0.5c-0.3,1.8-0.6,3.6-0.8,5.4l1.6,0.3c0.3-1.8,0.6-3.6,0.8-5.4l-1.1-0.2
	L747.1,93.6L747.1,93.6z M745.8,109.1l-1.6-0.2c-0.3,2.1-0.7,4.2-1,6.3l1.6,0.2L745.8,109.1L745.8,109.1z M743.3,124.8l-1.6-0.3
	l-1,6.3l1.6,0.3L743.3,124.8z M740.8,140.5l-1.6-0.2l-1,6.3l1.6,0.2L740.8,140.5z M738.3,156.2l-1.6-0.2c-0.1,0.7-0.2,1.5-0.3,2.2
	l0,0c0,0.3,0.2,0.6,0.5,0.6c0,0,0,0,0,0c0-0.2,0-0.4,0.1-0.6l0,0c0,0.2-0.1,0.4-0.1,0.6l3.2,0.5c0.1-0.5,0.2-1,0.2-1.6l-2.2-0.4
	L738.3,156.2L738.3,156.2z M749.9,159.3c-0.1,0.5-0.2,1-0.3,1.6l5.2,0.9h0l1.1,0.2c0.1-0.5,0.2-1.1,0.3-1.6L749.9,159.3L749.9,159.3
	z M765.8,162l-0.3,1.6l6.3,1.1c0.1-0.5,0.2-1,0.3-1.6L765.8,162L765.8,162z M781.6,164.8c-0.1,0.5-0.2,1-0.3,1.6l5.7,1.1h0.1
	l0.6,0.1l0.3-1.5L781.6,164.8L781.6,164.8z M797.4,167.8l-0.3,1.6l2,0.4l4.3,0.8c0.1-0.5,0.2-1,0.3-1.6L797.4,167.8L797.4,167.8z
	 M813.3,171c-0.1,0.5-0.2,1-0.3,1.6l3.5,0.7l0,0l2.8,0.6c0.1-0.5,0.2-1,0.3-1.6L813.3,171L813.3,171z M829.1,174.2l-0.3,1.6l3.7,0.8
	l2.6,0.6c0.1-0.5,0.2-1,0.3-1.6L829.1,174.2z M835.3,166.9l-1.5,0.6c0.8,2,1.5,4,2.3,6l1.5-0.6c0,0-0.1-0.3-0.3-0.8l0,0l0,0
	L835.3,166.9L835.3,166.9z M829.5,152l-1.5,0.6c0.8,2,1.6,4,2.3,5.9l1.5-0.6l-1.1-2.8L829.5,152z M828.9,135.9
	c-1.3,2-2.2,4.2-2.5,6.5l1.6,0.2c0.2-1.4,0.6-2.7,1.2-4l0,0v-0.1l0,0l0,0l0,0l0,0l0,0l0,0l0,0l0,0l0,0l0,0l0,0l0,0l0,0l0,0h0.4l0,0
	h0.1l0,0l0,0l0,0l0,0l0,0l0,0l0,0l0,0l0,0l0,0c0.1-0.2,0.3-0.5,0.4-0.7l-1.4-0.9L828.9,135.9z M840.4,124.3l-4.6,4.5l1.2,1.1
	l4.6-4.5L840.4,124.3z M851.9,113.3l-4.5,4.3l1.2,1.1l4.5-4.3l0,0l-0.5-0.4l0,0L851.9,113.3L851.9,113.3z M852.6,114l0.4,0.4l0,0
	l0,0l0,0l0.1-0.1L852.6,114L852.6,114z M837.5,110.2l-0.3,1.6l6.5,1.4l0.3-1.6l-2.1-0.4C841.9,111.2,837.5,110.2,837.5,110.2z
	 M821.1,106.9c-0.1,0.5-0.2,1-0.3,1.6l6.5,1.3c0.1-0.5,0.2-1,0.3-1.6l-4.3-0.9h-0.1L821.1,106.9L821.1,106.9z M804.7,103.7l-0.3,1.6
	c2.2,0.4,4.4,0.8,6.6,1.3l0.3-1.6l-2.9-0.6C808.3,104.4,804.7,103.7,804.7,103.7z M788.2,100.6c-0.1,0.5-0.2,1-0.3,1.6l6.6,1.2
	c0.1-0.5,0.2-1,0.3-1.6l-3.4-0.6h-0.1l0,0L788.2,100.6L788.2,100.6z M771.8,97.7c-0.1,0.5-0.2,1-0.3,1.6l6.6,1.2
	c0.1-0.5,0.2-1,0.3-1.6l-3.5-0.6h-0.1L771.8,97.7L771.8,97.7z M755.3,94.9c-0.1,0.5-0.2,1-0.2,1.6l6.6,1.1c0.1-0.5,0.2-1,0.3-1.6
	l-2.4-0.4L755.3,94.9L755.3,94.9z"/>
<path class="st1" d="M93.6,183.7c-2.3,0.5-4.8-0.3-6.4-2.1c-1.6-1.8-2.1-4.3-1.2-6.5c3.4-9,6.9-17.9,10.4-26.9c1.3-3.3,0.5-7-2-9.4
	c-6.9-6.7-13.9-13.4-21-20.1c-1.8-1.6-2.4-4.1-1.7-6.4c0.8-2.4,2.7-4.1,5.2-4.6c35.2-7.7,70.5-14.3,106-19.9
	c1.8-0.3,3.6,0.1,5.1,1.1c1.4,1,2.4,2.5,2.7,4.2c3.3,21.3,6.6,42.7,9.8,64.1c0.5,3.6-1.9,6.9-5.5,7.4
	C161.1,170,127.3,176.4,93.6,183.7L93.6,183.7z"/>
<path class="st2" d="M183.1,88.9c3-0.6,5.8,1.4,6.4,4.4c0,0,0,0,0,0c3.3,21.3,6.6,42.7,9.9,64.1c0.4,2.9-1.6,5.6-4.5,6.1
	c-34,5.3-67.8,11.7-101.5,19.1c-1.9,0.4-3.9-0.2-5.2-1.7c-1.3-1.4-1.7-3.5-1-5.4c3.4-9,6.9-17.9,10.4-26.9c1.5-3.7,0.6-7.9-2.3-10.6
	c-6.9-6.7-13.9-13.4-20.9-20.1c-1.5-1.3-2-3.4-1.4-5.3c0.6-1.9,2.2-3.4,4.2-3.8C112.4,101.1,147.7,94.5,183.1,88.9L183.1,88.9
	 M182.8,86.6L182.8,86.6c-35.5,5.6-70.8,12.3-106,20c-6.3,1.4-8.6,8.8-4.1,13.1c7.1,6.7,14.1,13.3,21,20c2.2,2.1,2.9,5.3,1.8,8.2
	c-3.6,9-7.1,17.9-10.5,26.9c-1.5,4,0.6,8.4,4.6,9.9c1.4,0.5,3,0.6,4.4,0.3l0,0c33.6-7.4,67.4-13.7,101.3-19.1
	c4.2-0.6,7.1-4.6,6.5-8.8c-3.3-21.3-6.5-42.7-9.8-64.1C191.2,88.6,187.1,85.8,182.8,86.6C182.8,86.6,182.8,86.6,182.8,86.6
	L182.8,86.6z"/>
<path class="st1" d="M194.1,158.8c0.3-0.1,0.5-0.3,0.5-0.6l-10.1-64c-0.1-0.3-0.4-0.5-0.7-0.5c-35.3,5.6-70.5,12.2-105.6,19.9
	c-0.2,0-0.4,0.2-0.4,0.4c-0.1,0.2,0,0.4,0.2,0.6c7,6.7,14,13.4,20.9,20.1c4.2,4.1,5.5,10.3,3.3,15.7c-3.6,8.9-7.1,17.9-10.5,26.9
	c-0.1,0.2-0.1,0.4,0.1,0.6c0.1,0.2,0.4,0.2,0.6,0.2C126.1,170.5,160,164.1,194.1,158.8z"/>
<path class="st3" d="M183.9,93.6h-0.1l-6.4,1c0.1,0.5,0.2,1,0.2,1.6c2.2-0.4,4.4-0.7,6.6-1C184,94.7,183.9,94.2,183.9,93.6z
	 M167.4,96.3l-6.6,1.1l0.3,1.6c2.2-0.4,4.4-0.8,6.6-1.1L167.4,96.3L167.4,96.3z M150.9,99.1l-6.6,1.2c0.1,0.5,0.2,1,0.3,1.6l6.6-1.2
	C151.1,100.2,151,99.7,150.9,99.1z M134.5,102.1l-6.6,1.2l0,0c0.1,0.5,0.2,1,0.3,1.6l6.6-1.2C134.7,103.2,134.6,102.7,134.5,102.1
	L134.5,102.1z M118.1,105.2l-1.3,0.2l-5.3,1c0.1,0.5,0.2,1,0.3,1.6l6.6-1.3C118.3,106.2,118.2,105.8,118.1,105.2L118.1,105.2z
	 M101.7,108.5l-5.5,1.1l0,0h-0.1l-0.9,0.2c0.1,0.5,0.2,1,0.3,1.6l6.6-1.4C101.9,109.6,101.8,109.1,101.7,108.5L101.7,108.5z
	 M85.3,112l-2,0.4l-4.6,1c0.1,0.5,0.2,1,0.3,1.6c2.2-0.5,4.4-1,6.5-1.4C85.5,113.1,85.4,112.6,85.3,112L85.3,112z M84.8,118.8
	l-1.2,1.1l2.9,2.8l0,0l1.7,1.6l1.2-1.1C87.9,121.7,86.3,120.2,84.8,118.8L84.8,118.8z M96.4,129.9l-1.2,1.1l3.6,3.5H99l0,0l0,0l0,0
	l0,0l0.5,0.5l0,0l0,0l0,0l0.1,0.1l1.3-1c-0.3-0.4-0.7-0.8-1-1.1l-3.6-3.5L96.4,129.9z M103.2,144.3c0,1.1,0,2.2-0.3,3.4l0,0l0,0l0,0
	l0,0l0,0l0,0l0,0l0,0l0,0l0,0l0,0l0,0l0,0l0,0l0,0l0,0h-0.1l0,0l0,0l0,0l0,0l0,0l0,0l0,0l0,0l0,0l0,0l0,0l0,0l0,0l0,0l0,0l0,0l0,0
	l0,0l0,0l0,0c-0.1,0.5-0.3,0.9-0.4,1.3l0,0l0,0l0,0l0,0l0,0l0,0l0,0l0,0l0,0l0,0l0,0l0,0l0,0l0,0l0,0c0,0.1-0.1,0.1-0.1,0.2l1.5,0.6
	l0.1-0.2c0.8-2.1,1.2-4.4,1.1-6.7l-1.6,0.1L103.2,144.3z M98.5,159.5c0,0.1-0.1,0.3-0.2,0.4l0,0l0,0l0,0c-0.6,1.4-2.2,5.5-2.2,5.5
	l1.5,0.6c0.8-2,1.6-4,2.3-5.9L98.5,159.5L98.5,159.5z M92.8,174.3c-0.3,0.9-0.7,1.8-1,2.7l0,0l0,0l0,0l0,0l0,0l0,0l0,0l0.5,0.2l0,0
	l0,0l0.1,0.5l2.1-0.5c-0.1-0.5-0.2-1-0.3-1.6l-0.2,0.1c0.1-0.4,0.3-0.7,0.4-1.1l-1.5-0.6L92.8,174.3z M91.7,177.2
	c-0.1,0.2,0,0.4,0.1,0.5l0,0c0.1,0.1,0.3,0.2,0.5,0.2l0,0c0-0.2-0.1-0.4-0.1-0.5L91.7,177.2L91.7,177.2z M109.9,172.6l-6.3,1.3
	l0.3,1.6l6.3-1.3L109.9,172.6z M125.7,169.4l-6.3,1.3l0.3,1.6l5.6-1.2l0.7-0.1L125.7,169.4L125.7,169.4z M141.5,166.3l-6.3,1.2
	l0.3,1.6l2.1-0.4l4.2-0.8C141.7,167.3,141.6,166.8,141.5,166.3L141.5,166.3z M157.3,163.4l-6.3,1.1c0.1,0.5,0.2,1,0.3,1.6l3.5-0.6
	h0.1l2.8-0.5C157.5,164.4,157.4,163.9,157.3,163.4L157.3,163.4z M173.2,160.6l-6.4,1.1l0.3,1.6l3.7-0.6h0.1l2.6-0.4L173.2,160.6
	L173.2,160.6z M189.1,158l-6.4,1c0.1,0.5,0.2,1.1,0.3,1.6l1.3-0.2h0.1l5-0.8C189.3,159,189.2,158.6,189.1,158L189.1,158z M193,148
	l-1.6,0.2l1,6.3l1.6-0.2C193.7,152.2,193.3,150.1,193,148L193,148z M190.5,132.3l-1.6,0.3l1,6.3l1.6-0.3
	C191.2,136.5,190.9,134.4,190.5,132.3L190.5,132.3z M188.1,116.7l-1.6,0.2l1,6.3l1.6-0.2C188.7,120.8,188.4,118.7,188.1,116.7
	L188.1,116.7z M185.6,101l-1.6,0.3l1,6.3l1.6-0.3L185.6,101z"/>
<path class="st0" d="M774.6,161.6c-204.2-36.4-413.2-36.4-617.5-0.1c-6.6,1.2-13-3.1-14.3-9.7c-4.1-22-8.1-44-12.2-65.9
	c-1.2-6.5,3.5-12.9,10.5-14.2C356,33.6,575.8,33.6,790.6,71.9c7,1.2,11.8,7.6,10.5,14.2C797,108,793,130,788.9,152
	C787.6,158.6,781.2,162.9,774.6,161.6z"/>
<path class="st1" d="M157,155.1c-6,1.1-11.7-2.8-12.9-8.7c-4.1-22-8.1-44-12.2-65.9c-1.1-5.9,3.1-11.6,9.5-12.8
	c214.7-38.3,434.5-38.3,649.1,0.2c6.3,1.1,10.6,6.9,9.5,12.8c-4.1,22-8.2,44-12.2,65.9c-1.2,5.9-6.9,9.8-12.9,8.7
	C570.5,118.6,361.3,118.6,157,155.1z"/>
<path class="st2" d="M790.3,69c5.6,1,9.4,6.1,8.4,11.4l-12.2,65.9c-1.1,5.3-6.2,8.7-11.5,7.7c-204.5-36.6-413.8-36.6-618.3-0.1
	c-5.3,1-10.4-2.5-11.5-7.8l-12.1-65.9c-1-5.2,2.8-10.4,8.4-11.4C356.1,30.5,575.7,30.6,790.3,69 M790.7,66.7
	C575.9,28.2,356,28.2,141.1,66.5c-7,1.3-11.8,7.6-10.5,14.2l12.2,65.9c1.3,6.6,7.7,10.9,14.3,9.6c204.2-36.5,413.3-36.4,617.5,0.1
	c6.6,1.2,13-3.1,14.3-9.6l12.3-65.9C802.4,74.3,797.7,67.9,790.7,66.7L790.7,66.7z"/>
<path class="st1" d="M149.6,144l-11.5-63.3c-0.4-2.8,1.5-5.3,4.3-5.8c0,0,0,0,0,0c214-38.2,433.1-38.2,647.1,0.2
	c2.8,0.4,4.7,3,4.3,5.8c0,0,0,0,0,0l-11.5,63.3c-0.5,2.7-3.1,4.4-5.8,3.9c-205.4-36.8-415.6-36.8-621-0.1
	C152.7,148.4,150.1,146.7,149.6,144z"/>
<path class="st3" d="M789.5,75.1l-6.7-1.2l-0.3,1.6l6.7,1.2C789.3,76.1,789.4,75.6,789.5,75.1z M776.1,72.7l-6.7-1.1
	c-0.1,0.5-0.2,1-0.3,1.6l6.7,1.1L776.1,72.7z M762.8,70.5l-6.7-1.1c-0.1,0.5-0.2,1-0.2,1.6l6.7,1C762.6,71.5,762.7,71,762.8,70.5
	L762.8,70.5z M749.4,68.3l-6.7-1l-0.2,1.6l6.7,1L749.4,68.3z M736,66.3l-6.7-1c-0.1,0.5-0.2,1-0.2,1.6l6.7,1L736,66.3z M722.6,64.4
	l-6.7-0.9c-0.1,0.5-0.2,1-0.2,1.6l6.7,0.9C722.5,65.4,722.5,65,722.6,64.4z M709.2,62.5l-6.7-0.9c-0.1,0.5-0.1,1-0.2,1.6l6.7,0.9
	C709,64.1,709.2,62.6,709.2,62.5z M695.8,60.8l-6.7-0.8c-0.1,0.5-0.1,1-0.2,1.6l6.7,0.8C695.7,61.8,695.7,61.4,695.8,60.8z
	 M682.4,59.1l-6.7-0.8l-0.2,1.6c2.2,0.2,4.5,0.5,6.7,0.8C682.3,60.2,682.3,59.7,682.4,59.1L682.4,59.1z M669,57.6l-6.7-0.7
	c-0.1,0.5-0.1,1-0.2,1.6l6.7,0.7L669,57.6L669,57.6z M655.6,56.1l-6.7-0.7c0,0.5-0.1,1.1-0.2,1.6l6.7,0.7
	C655.4,57.2,655.5,56.7,655.6,56.1z M642.1,54.8l-6.7-0.6l-0.2,1.6c2.2,0.2,4.5,0.4,6.7,0.6L642.1,54.8z M628.7,53.5l-6.7-0.6
	c0,0.5-0.1,1-0.1,1.6l6.7,0.6C628.5,54.6,628.6,54.1,628.7,53.5z M615.2,52.4l-6.7-0.5l-0.1,1.6L615,54
	C615,53.5,615.1,52.9,615.2,52.4L615.2,52.4z M601.7,51.4l-6.7-0.5c0,0.5-0.1,1.1-0.1,1.6l6.7,0.5L601.7,51.4L601.7,51.4z
	 M588.3,50.4l-6.7-0.4c0,0.5-0.1,1.1-0.1,1.6l6.7,0.4C588.2,51.4,588.2,50.9,588.3,50.4z M574.8,49.5c-2.2-0.1-4.5-0.3-6.7-0.4
	c0,0.5-0.1,1.1-0.1,1.6l6.7,0.4L574.8,49.5z M561.3,48.8c-2.2-0.1-4.5-0.2-6.7-0.3l-0.1,1.6l6.7,0.3
	C561.2,49.8,561.2,49.3,561.3,48.8L561.3,48.8z M547.8,48.1l-6.7-0.3c0,0.5,0,1.1-0.1,1.6l6.7,0.3C547.8,49.2,547.8,48.6,547.8,48.1
	z M534.3,47.6c-2.2-0.1-4.5-0.2-6.7-0.2l-0.1,1.6l6.7,0.2L534.3,47.6z M520.9,47.1l-6.7-0.2c0,0.5,0,1.1,0,1.6
	c2.2,0,4.5,0.1,6.7,0.2C520.8,48.2,520.8,47.6,520.9,47.1L520.9,47.1z M507.4,46.7l-6.8-0.1v1.6l6.7,0.1
	C507.4,47.8,507.4,47.3,507.4,46.7L507.4,46.7z M493.9,46.5l-6.8-0.1c0,0.5,0,1.1,0,1.6l6.7,0.1L493.9,46.5L493.9,46.5z M480.4,46.3
	h-6.8v1.6h6.7C480.4,47.4,480.4,46.9,480.4,46.3L480.4,46.3z M466.9,46.3h-6.8v1.6h6.7C466.9,47.3,466.9,46.8,466.9,46.3L466.9,46.3
	z M453.4,46.3h-6.8c0,0.5,0,1.1,0,1.6l6.7-0.1C453.4,47.3,453.4,46.8,453.4,46.3L453.4,46.3z M439.9,46.4l-6.7,0.1v1.6l6.7-0.1
	C439.9,48,439.9,46.4,439.9,46.4z M426.4,46.6l-6.8,0.2c0,0.5,0,1.1,0,1.6l6.7-0.2L426.4,46.6L426.4,46.6z M412.9,47
	c-2.2,0.1-4.5,0.1-6.8,0.2c0,0.5,0,1,0,1.6l6.7-0.2C412.9,48.1,412.9,47.5,412.9,47L412.9,47z M399.4,47.4l-6.8,0.2
	c0,0.5,0,1.1,0.1,1.6l6.7-0.3C399.4,48.5,399.4,48,399.4,47.4L399.4,47.4z M385.9,48l-6.7,0.3c0,0.5,0,1,0.1,1.6l6.7-0.3
	C386,49.1,385.9,48.5,385.9,48z M372.4,48.6l-6.8,0.3l0.1,1.6l6.7-0.4C372.5,49.7,372.4,49.2,372.4,48.6z M358.9,49.4l-6.7,0.4
	l0.1,1.6L359,51C359,50.4,358.9,50,358.9,49.4L358.9,49.4z M345.4,50.2l-6.7,0.5c0,0.5,0.1,1,0.1,1.6c2.2-0.2,4.5-0.3,6.7-0.5
	C345.5,51.3,345.5,50.7,345.4,50.2z M332,51.1l-6.7,0.5l0.1,1.6l6.7-0.5C332.1,52.2,332,51.7,332,51.1L332,51.1z M318.5,52.1
	l-6.7,0.5c0,0.5,0.1,1,0.1,1.6l6.7-0.5C318.7,53.2,318.6,52.7,318.5,52.1z M305,53.3l-6.7,0.6l0.1,1.6l6.7-0.6
	C305.1,54.3,305,53.8,305,53.3L305,53.3z M291.5,54.5l-6.7,0.7c0.1,0.5,0.1,1,0.2,1.6l6.7-0.7L291.5,54.5z M278.1,55.8l-6.7,0.7
	c0.1,0.5,0.1,1,0.2,1.6l6.7-0.7C278.2,56.9,278.2,56.4,278.1,55.8z M264.7,57.3L258,58l0.2,1.6l6.7-0.8L264.7,57.3L264.7,57.3z
	 M251.3,58.8l-6.7,0.8c0.1,0.5,0.1,1,0.2,1.6l6.7-0.8C251.4,59.8,251.3,59.4,251.3,58.8z M237.9,60.4l-6.7,0.8
	c0.1,0.5,0.1,1,0.2,1.6l6.7-0.8C238,61.5,237.9,61,237.9,60.4z M224.4,62.1l-6.7,0.9c0.1,0.5,0.1,1,0.2,1.6l6.7-0.9L224.4,62.1
	L224.4,62.1z M211,64l-6.7,1c0.1,0.5,0.1,1,0.2,1.6l6.7-0.9C211.1,65.1,211.1,64.6,211,64L211,64z M197.6,65.9l-6.7,1l0.2,1.6l6.7-1
	C197.8,66.9,197.7,66.5,197.6,65.9z M184.3,67.9l-6.7,1c0.1,0.5,0.2,1,0.2,1.6l6.7-1.1L184.3,67.9L184.3,67.9z M170.9,70l-6.7,1.1
	c0.1,0.5,0.2,1,0.3,1.6l6.7-1.1C171.1,71.1,171,70.6,170.9,70z M157.5,72.2l-6.7,1.2l0.3,1.6l6.7-1.1L157.5,72.2z M144.2,74.5
	l-1.8,0.3h-1.6l0,0l0,0l0,0l0,0l0,0h-0.1l0,0l0,0l0,0l0,0l0,0l0,0h-0.1l0,0h-0.1l0,0l-0.1,0.1l0,0c-0.6,0.5-1.1,1-1.4,1.7l1.5,0.7
	c0.5-1,1.5-1.7,2.6-1.8l1.8-0.3c-0.1-0.5-0.2-1-0.3-1.6L144.2,74.5z M140.3,83.5l-1.7,0.3c0.4,2.1,0.8,4.2,1.1,6.2l1.6-0.3
	C141.1,87.7,140.7,85.6,140.3,83.5z M142.6,96l-1.6,0.3c0.4,2.1,0.8,4.2,1.1,6.2l1.6-0.3C143.3,100.2,143,98.1,142.6,96z
	 M144.8,108.5l-1.6,0.3l1.1,6.2l1.6-0.3C145.6,112.7,145.2,110.6,144.8,108.5z M147.1,121l-1.6,0.3l1.1,6.2l1.6-0.3
	C147.8,125.2,147.5,123.1,147.1,121L147.1,121z M149.3,133.5l-1.6,0.3l1.1,6.2l1.6-0.3C150.1,137.7,149.7,135.6,149.3,133.5
	L149.3,133.5z M151.8,145.1l-1.3,1c0.8,1,2,1.7,3.4,1.8h1.5l1-0.2c-0.1-0.5-0.2-1-0.3-1.6l-1,0.2
	C153.9,146.6,152.6,146.1,151.8,145.1L151.8,145.1z M169,143.9l-6.4,1.1l0.3,1.6l6.4-1.1C169.2,144.9,169.1,144.5,169,143.9
	L169,143.9z M181.8,141.8l-6.4,1.1c0.1,0.5,0.2,1,0.3,1.6l6.4-1.1L181.8,141.8L181.8,141.8z M194.7,139.7l-6.4,1l0.2,1.6l6.4-1
	L194.7,139.7z M207.5,137.8l-6.4,1l0.2,1.6l6.4-1C207.7,138.8,207.6,138.4,207.5,137.8L207.5,137.8z M220.4,135.9l-6.4,0.9
	c0.1,0.5,0.1,1,0.2,1.6l6.4-0.9C220.5,137,220.5,136.5,220.4,135.9z M233.3,134.2l-6.4,0.9l0.2,1.6l6.4-0.9
	C233.4,135.2,233.3,134.7,233.3,134.2z M246.1,132.5l-6.4,0.8c0.1,0.5,0.1,1,0.2,1.6l6.4-0.8C246.3,133.6,246.2,133,246.1,132.5
	L246.1,132.5z M259,130.9l-6.4,0.8c0.1,0.5,0.1,1.1,0.2,1.6l6.4-0.8L259,130.9z M271.9,129.5l-6.5,0.7l0.2,1.6l6.4-0.7
	C272,130.5,272,130,271.9,129.5L271.9,129.5z M284.8,128.1l-6.5,0.7c0.1,0.5,0.1,1,0.2,1.6l6.5-0.7
	C284.9,129.2,284.9,128.7,284.8,128.1L284.8,128.1z M297.7,126.8l-6.5,0.6c0.1,0.5,0.1,1.1,0.2,1.6l6.5-0.6L297.7,126.8L297.7,126.8
	z M310.6,125.6l-6.5,0.6l0.1,1.6l6.5-0.6L310.6,125.6z M323.6,124.5l-6.5,0.5c0,0.5,0.1,1.1,0.1,1.6l6.5-0.5
	C323.7,125.6,323.6,125.1,323.6,124.5z M336.5,123.5L330,124l0.1,1.6l6.5-0.5L336.5,123.5z M349.4,122.6l-6.5,0.4
	c0,0.5,0.1,1.1,0.1,1.6l6.5-0.4C349.5,123.7,349.5,123.2,349.4,122.6z M362.4,121.8c-2.2,0.1-4.3,0.2-6.5,0.4l0.1,1.6l6.5-0.4
	L362.4,121.8z M375.4,121.1l-6.5,0.3l0.1,1.6l6.5-0.3C375.5,122.2,375.4,121.7,375.4,121.1z M388.3,120.5c-2.2,0.1-4.3,0.2-6.5,0.3
	c0,0.5,0,1,0.1,1.6l6.5-0.3C388.4,121.6,388.4,121,388.3,120.5L388.3,120.5z M401.3,120l-6.5,0.2c0,0.5,0,1.1,0.1,1.6l6.5-0.2
	L401.3,120z M414.3,119.6l-6.5,0.2c0,0.5,0,1.1,0,1.6l6.5-0.2C414.3,120.6,414.3,120.1,414.3,119.6L414.3,119.6z M427.3,119.2
	l-6.5,0.2c0,0.5,0,1.1,0,1.6l6.5-0.2L427.3,119.2L427.3,119.2z M440.3,119l-6.5,0.1v1.6l6.5-0.1C440.3,120.1,440.3,119.5,440.3,119
	L440.3,119z M453.3,118.9h-6.5c0,0.5,0,1.1,0,1.6l6.5-0.1C453.3,119.9,453.3,119.3,453.3,118.9L453.3,118.9z M466.3,118.8h-6.5
	c0,0.5,0,1.1,0,1.6h6.5L466.3,118.8L466.3,118.8z M479.3,118.9h-6.5c0,0.5,0,1,0,1.6h6.5C479.3,119.9,479.3,119.4,479.3,118.9
	L479.3,118.9z M492.3,119l-6.5-0.1v1.6l6.5,0.1C492.3,120.1,492.3,119.6,492.3,119z M505.3,119.3l-6.5-0.1v1.6l6.5,0.1V119.3z
	 M518.3,119.6l-6.5-0.2c0,0.5,0,1.1,0,1.6c2.2,0.1,4.3,0.1,6.5,0.2C518.3,120.7,518.3,120.1,518.3,119.6L518.3,119.6z M531.3,120
	l-6.5-0.2c0,0.5,0,1,0,1.6l6.5,0.2L531.3,120L531.3,120z M544.2,120.6l-6.5-0.3c0,0.5,0,1-0.1,1.6l6.5,0.3
	C544.2,121.6,544.2,121.1,544.2,120.6z M557.2,121.2l-6.5-0.3c0,0.5,0,1.1-0.1,1.6l6.5,0.3C557.2,122.2,557.2,121.7,557.2,121.2z
	 M570.2,121.9l-6.5-0.4l-0.1,1.6l6.5,0.4L570.2,121.9z M583.2,122.7c-2.2-0.2-4.3-0.3-6.5-0.4c0,0.5-0.1,1-0.1,1.6l6.5,0.4
	C583.1,123.8,583.2,123.2,583.2,122.7z M596.1,123.6l-6.5-0.5l-0.1,1.6l6.5,0.5C596,124.7,596.1,124.2,596.1,123.6L596.1,123.6z
	 M609.1,124.6c-2.2-0.2-4.3-0.3-6.5-0.5l-0.1,1.6l6.5,0.5C608.9,125.7,609,125.2,609.1,124.6L609.1,124.6z M622,125.7l-6.5-0.6
	c0,0.5-0.1,1-0.1,1.6l6.5,0.6C621.9,126.8,621.9,126.3,622,125.7z M634.9,126.9l-6.5-0.6l-0.2,1.6l6.5,0.6
	C634.8,128,634.9,127.5,634.9,126.9L634.9,126.9z M647.8,128.2l-6.5-0.7l-0.2,1.6l6.5,0.7C647.7,129.3,647.8,128.8,647.8,128.2
	L647.8,128.2z M660.7,129.6l-6.5-0.7c0,0.5-0.1,1.1-0.2,1.6l6.4,0.7L660.7,129.6L660.7,129.6z M673.6,131.1
	c-2.2-0.3-4.3-0.5-6.5-0.8l-0.2,1.6l6.4,0.8C673.5,132.1,673.6,131.6,673.6,131.1z M686,132.6l-6.5-0.8c-0.1,0.5-0.1,1.1-0.2,1.6
	l6.4,0.8C685.9,133.7,685.9,133.2,686,132.6z M698.9,134.3c-2.2-0.3-4.3-0.6-6.4-0.8l-0.2,1.6l6.4,0.9L698.9,134.3L698.9,134.3z
	 M711.8,136.1l-6.4-0.9c-0.1,0.5-0.2,1.1-0.2,1.6l6.4,0.9C711.6,137.1,711.7,136.7,711.8,136.1z M724.6,138l-6.4-0.9
	c-0.1,0.5-0.2,1-0.2,1.6l6.4,0.9C724.5,139.1,724.5,138.5,724.6,138z M737.4,140l-6.4-1l-0.2,1.6l6.4,1L737.4,140L737.4,140z
	 M750.3,142l-6.4-1c-0.1,0.5-0.2,1-0.2,1.6l6.4,1C750.1,143.1,750.2,142.6,750.3,142L750.3,142z M763.1,144.1l-6.4-1.1
	c-0.1,0.5-0.2,1-0.3,1.6l6.4,1.1L763.1,144.1L763.1,144.1z M775.9,146.4l-6.4-1.1l-0.3,1.6l6.4,1.1
	C775.8,147.4,775.9,147,775.9,146.4L775.9,146.4z M782.9,139.9l-1.6-0.3c-0.2,1.4-0.5,2.8-0.8,4.2c-0.1,0.5-0.3,0.9-0.5,1.3l1.3,0.9
	c0.3-0.4,0.5-0.8,0.6-1.2h0c0,0,0,0,0-0.1l0,0l0,0h0c0.3-1.4,0.5-2.8,0.8-4.2L782.9,139.9z M785.2,127.5l-1.6-0.3
	c-0.4,2.1-0.8,4.2-1.1,6.2l1.6,0.3C784.1,133.7,785.2,127.4,785.2,127.5z M787.5,115l-1.6-0.3c-0.4,2.1-0.7,4.2-1.1,6.2l1.6,0.3
	C786.7,119.1,787.1,117,787.5,115z M789.8,102.5l-1.6-0.3c-0.4,2.1-0.8,4.2-1.1,6.2l1.6,0.3L789.8,102.5z M792.1,90l-1.7-0.3
	c-0.4,2.1-0.8,4.2-1.1,6.2l1.7,0.3C791.3,94.2,791.7,92.1,792.1,90z M793.1,77.6l-1.5,0.8c0.4,0.7,0.6,1.5,0.4,2.2
	c-0.2,1-0.3,1.9-0.5,2.9l1.7,0.3c0.2-1,0.3-1.9,0.5-2.9l0,0l0,0l0,0l0,0l0,0l0,0l0,0l0,0l0,0l0,0l0,0l0,0l0,0l0,0l0,0l0,0l0,0l0,0
	l0,0l0,0l0,0l0,0l0,0l0,0l0,0l0,0l0,0l0,0l0,0l0,0l0,0l0,0l0,0l0,0l0,0l0,0l0,0c0,0,0,0,0-0.1l0,0l0,0l0,0v-0.1l0,0v-0.1l0,0v-0.1
	l0,0c0,0,0,0,0-0.1l0,0l0,0l0,0c0,0,0-0.1,0-0.1l0,0l0,0l0,0v-0.1l0,0l0,0l0,0v-0.1l0,0v-0.1l0,0l0,0l0,0c0,0,0,0,0-0.1l0,0l0,0l0,0
	l0,0l0,0l0,0l0,0l0,0l0,0l0,0h-0.1l0,0l0,0V80l0,0c-0.1-0.1-0.1-0.2-0.2-0.3L793.1,77.6z"/>
<path class="st2" d="M180.4,125.8c-2.4-0.1-4.7-0.8-6.8-2c-2.8-1.6-4.9-4.3-5.6-7.5c-1.2-6.1,2.2-10.1,6.9-15.5l1.5-1.7
	c1-1.2,2.5-2.9,3.9-4.6c-2.5,1.1-5.3,1.5-7.9,0.9c-3.5-0.6-6.4-2.8-8.1-5.9c-1.8-3.6-1.9-7.8-0.2-11.5c3.1-7.4,12.6-14.4,24.8-13.3
	c12.8,1.2,20.7,12.3,20.7,22c0.1,4.3-0.7,8.6-2.5,12.5c1.3,0.4,2.5,1,3.6,1.7c2.5,1.8,4.2,4.5,4.8,7.6c0.7,2.9,0.2,6-1.4,8.5
	c-2,3-5.4,4.8-10.2,5.5l-21.3,3.1C181.8,125.7,181.1,125.8,180.4,125.8z M186.8,109.8l-0.2,0.3l0.4-0.1L186.8,109.8z"/>
<path class="st2" d="M237.3,119.2c-5,0-9.9-1.4-14.1-4c-9.8-6.1-15.2-16.9-14.8-29.7c0.8-14,11.6-25.4,25.5-26.9
	c11.4-1.2,22.4,4.7,27.6,14.9l0,0c5.3,10.3,4.7,28.4-4.5,37.8C251.7,116.4,244.6,119.2,237.3,119.2z M236.8,83.1h-0.1
	c-0.7,0-2.6,0.8-2.9,1.9c-1.8,6,1.3,8.3,1.3,8.3c1.5,0.9,3.3,0.9,4.3,0s1.2-4.4,0.2-7.5C239.1,84.4,238.1,83.5,236.8,83.1z"/>
<path class="st2" d="M276.3,114.2c-2.6-0.1-5.1-0.9-7.2-2.4c-2.7-1.7-4.6-4.6-5.1-7.8c-0.8-6.2,2.8-9.9,7.7-15.1
	c0.5-0.5,1-1.1,1.6-1.6c1.1-1.1,2.6-2.7,4.1-4.4c-2.6,1-5.4,1.2-8,0.4c-3.4-0.8-6.2-3.2-7.7-6.3c-1.6-3.7-1.5-7.9,0.4-11.5
	c3.5-7.2,13.4-13.6,25.6-11.8c12.7,1.9,19.9,13.5,19.4,23.1c-0.1,4.3-1.2,8.5-3.2,12.3c4.3,1.5,7.3,5.3,7.8,9.8c0.5,2.9-0.2,6-2,8.4
	c-2.2,2.9-5.6,4.5-10.5,4.9l-21.4,1.8C277.2,114.2,276.8,114.2,276.3,114.2z M282.9,98.5l-0.3,0.3h0.4L282.9,98.5z"/>
<path class="st2" d="M321.3,110.6c-2.7-0.1-5.2-1-7.4-2.6c-2.7-1.8-4.5-4.7-4.9-7.9c-0.7-6.2,3-9.8,8.1-14.9l1.6-1.6
	c1.1-1.1,2.7-2.7,4.2-4.3c-2.6,0.9-5.4,1-8,0.3c-3.4-0.9-6.2-3.3-7.6-6.6c-1.5-3.7-1.3-8,0.7-11.5c3.7-7.2,13.7-13.3,25.8-11.2
	c12.6,2.2,19.6,13.9,18.8,23.6c-0.2,4.3-1.4,8.5-3.5,12.3c4.2,1.6,7.2,5.5,7.5,10c0.5,3-0.3,6-2.2,8.3c-2.3,2.8-5.7,4.4-10.6,4.7
	l-21.5,1.3C322.2,110.6,321.7,110.6,321.3,110.6z M328.1,95.1l-0.3,0.3h0.4L328.1,95.1z"/>
<path class="st2" d="M368.8,109.4h-0.4c-6.6-0.3-11.8-4.7-12.6-10.7c-0.4-3.5,0.7-7,3-9.6c2.5-2.8,6.1-4.4,9.8-4.3
	c7,0,12,5,12.4,12.2C380.9,103.7,375.6,109.2,368.8,109.4L368.8,109.4z M368.8,94.6c-0.8,0-1.5,0.2-2,0.7c-0.5,0.6-0.7,1.4-0.6,2.2
	c0.3,1,1.2,1.8,2.3,2c0.1,0,0.2,0,0.4-0.1L368.8,94.6L368.8,94.6z M369,94.6l-0.2,4.9c0.4-0.1,0.8-0.4,1.1-0.7
	c0.5-0.6,0.7-1.4,0.5-2.2C370.3,95.7,369.8,95,369,94.6L369,94.6z"/>
<path class="st2" d="M407,105.5h-0.5c-7.8-0.3-16.3-5.8-17.7-15.5c-0.5-3.5-0.7-18.5-0.9-45v-0.6c-12.5,0-16.6-7.7-17.9-11.1
	c-4.7-12.9,6.2-20.4,9.8-22.8l0.5-0.4c8.5-5.8,17.3-11.7,28.8-9.5c15.2,3,15.6,18.8,15.7,24.8s0.6,57.5,0.2,63.8
	C424.7,98.7,415.3,105.5,407,105.5z M404.2,40.7v4.2c0.1,11.8,0.3,39.2,0.7,42.8c0.2,1.2,1.7,1.5,2.1,1.6c0.7-0.2,1.3-0.5,1.9-1
	c0.3-4.9,0-54.5-0.2-62.4c-0.2-8.7-1.6-9-2.6-9.2c-4.6-0.9-9.1,1.9-16.5,7L389,24c-1.5,0.9-2.8,2-3.8,3.4c0,0.1,0.1,0.3,0.1,0.4l0,0
	c0.7,0.3,1.5,0.4,2.3,0.4c0.2,0,0.6-0.1,1-0.3c3.5-1.1,7.4-0.5,10.4,1.7C402.4,32.3,404.3,36.4,404.2,40.7L404.2,40.7z"/>
<path class="st2" d="M443.6,103.8c-0.3,0-0.5,0-0.8,0h-0.2c-8.1-0.7-14.2-6.1-14.9-13.3c-0.4-4.1,1.1-8.2,3.9-11.2
	c3.1-3.3,7.5-5,12-4.7c8.4,0.3,14.1,6.4,14.1,15.1c-0.1,3.8-1.8,7.5-4.6,10.1C450.7,102.3,447.3,103.8,443.6,103.8z M441.2,89.1
	L441.2,89.1c0,0.2,0.6,1,2.4,1.2c0.4-0.2,0.7-0.5,0.9-0.9c0-0.5-0.1-0.9-0.4-1.3l0,0c-0.3-0.1-0.7-0.2-1-0.2h-0.1
	C441.5,87.9,441.2,88.9,441.2,89.1z"/>
<path class="st2" d="M521.1,104.8h-0.8l-42.1-0.8c-4.5,0.3-9.2-2.2-12.2-4.7c-3.8-3.2-6-7.3-6.1-11.5c-0.3-9.1,5.4-13.9,15.8-22.6
	l3.4-2.9c7.7-6.5,19.4-16.4,21.3-22.2c1.2-3.7,0.2-4-1.1-4.5c-3.3-1.2-4.7-0.7-4.9-0.7c-1.4,0.5-1.5,0.8-1.8,1.2l-0.1,0.2
	c-4.8,7.2-14,10-22,6.8c-4.7-1.7-8.4-5.4-10-10.1c-1.8-5.3-0.9-11.2,2.6-16.8c6.8-11.1,24.9-20.1,45-15C528.9,6.8,539,27.2,536.4,43
	c-2.2,13.8-7.3,21.3-13.5,28.1h0.2c10.3,0.2,17.7,7.3,17.8,17c0.4,4.2-1,8.3-3.8,11.3C533.5,103.1,528.3,104.8,521.1,104.8z
	 M477.8,87.8h0.2l42.5,0.8c1.3,0,2.6,0,3.9-0.3v-0.1c0-0.3,0-0.8-1.8-0.8c-4.7-0.1-12-0.4-14.1-0.5c-7.6-0.4-10.1-4.5-10.9-6.9
	c-0.5-1.5-1.6-6.6,3.9-11.1c1.7-1.4,4-3.5,6.7-6c7.2-7.2,10.5-11.9,12.1-22.4c1.3-7.7-3.7-20-16.2-23.2c-13.2-3.4-24,2.6-27.1,7.8
	l0,0.1c-1.1,1.8-1,2.7-1,2.9c0.1,0,0.1,0.1,0.2,0.1l0.2,0.1c0.9,0.4,1.9,0.2,2.5-0.5c2.2-3.5,5.6-6.2,9.5-7.7
	c3.2-1.3,8.7-2.3,16.4,0.5c10.4,3.7,14.8,13.7,11,24.9c-3.3,10.1-15.5,20.4-26.2,29.5l-3.4,2.8c-4,3.4-8.9,7.5-9.9,9.2
	C476.8,87.3,477.3,87.6,477.8,87.8L477.8,87.8z"/>
<path class="st2" d="M578.3,108.3c-8.9,0-18.4-2.2-25.9-8.4c-10.9-9-14.9-19.6-12.4-33.3c1.3-6.2,4.4-11.9,9-16.2
	c-2.7-4.5-4.1-9.8-3.9-15.1c0.4-13.6,7.1-24.2,18.5-29.2c12.1-5.3,32.2-3.5,42.9,7.8c11,11.4,9,27.2,6.4,34c-1.1,2.6-2.6,5-4.5,7.1
	c3.4,4.7,5.8,10.2,6.7,15.9c2.4,15.6-6.5,30.4-21,35.2C589.1,107.5,583.7,108.3,578.3,108.3z M570,20.9c-5.6,2.5-8.5,7.5-8.7,14.8
	V36c0,2.8,0.9,5.5,2.7,7.7c4,5.1,3.1,12.5-1.9,16.6c-2,1.7-5.4,5.1-6.1,9.2c-1.2,6.9-0.5,11.9,6.7,17.9c3.8,3.1,8.9,4.5,14.1,4.7
	c-8.5-0.8-17.8-6.7-18.2-17.7s6.8-17,13.2-18.8c5.8-1.6,14.4-1,19.7,4.2c5.2,4.8,7.2,12.1,5.3,18.9c-2,8.7-10.4,12.7-17,13.2
	c3.2-0.1,6.4-0.7,9.5-1.7c7-2.3,11.1-9.4,9.9-17.3c-0.5-3.3-2.3-7.1-5.3-10.7l-0.1-0.1c-4.2-5.4-3.9-12.2,0.8-16.5
	c1.3-1.1,2.3-2.4,3.1-3.8c0.7-1.8,2.2-9.5-1.5-15.2c0.4,0.7,0.7,1.4,0.9,2.2c2.1,6.4,0.1,13.5-4.9,17.3c-3.2,2.4-8.7,5-16.8,3.1
	c-8.7-1.9-13.3-10.3-12.4-17C563.6,27.7,566.2,23.6,570,20.9z M577.7,71.1c-0.5,0-1.1,0.1-1.6,0.2l0,0c-1.1,0.3-1.3,1.1-1.3,2.4v0.2
	c0,1.5,3.5,2,3.5,2c1-0.1,1.9-0.4,2.7-0.9v-0.1c0.5-1.9,0-2.5-0.8-3.2l-0.1-0.1C579.4,71.3,578.5,71.1,577.7,71.1L577.7,71.1z
	 M550.8,53.1L550.8,53.1z M582.3,33.3L582.3,33.3z"/>
<path class="st2" d="M638.1,112.5h-0.5l-0.8-0.1c-7.2-0.6-12.1-6.1-11.8-13.2c0.2-5.6,2.6-32.8,2.6-33c0.7-8,6.3-12.7,14.2-12.2
	c4.4,0.3,20.4,2,22.8,2.2h0.1c6.5,0.6,11.2,6.4,10.6,12.9c0,0.1,0,0.1,0,0.2c-0.2,2.9-1.5,5.6-3.5,7.7c0.8,2,1.1,4.2,0.8,6.3
	c-0.8,6.1-6.1,10.6-12.2,10.6H660c-1.1,0-4-0.3-8.8-0.7c-0.1,1.1-0.2,2.1-0.2,3v0.2c-0.2,2.1-0.3,3.8-0.3,4.6c0,0.3,0,0.5,0,0.6
	C650,107.7,644.5,112.5,638.1,112.5z"/>
<path class="st2" d="M706.5,118.8c-5.4,0.1-10.2-3.4-11.8-8.5c-0.2-0.6-0.5-1.6-1-2.9c-2,6.6-8.9,10.3-15.5,8.3
	c-4.9-1.5-8.4-5.8-8.8-11c-0.1-1.8,0.4-7.2,3.5-31.8c0.3-2.2,0.5-3.8,0.5-4.3c0.8-7,5.9-11.4,13-11.3c4.4,0.1,17.2,2.2,21.1,2.8
	c10.2,1.7,17.6,11.9,16.1,22.4v0.1c-0.9,5.3-3.5,10.2-7.5,13.8c1,2.4,1.8,4.9,2.5,7.5c1.3,6.2-2.2,12.3-8.2,14.2l-0.2,0.1
	C708.9,118.7,707.7,118.8,706.5,118.8z M710.7,94.8l-2.9,1.1L710.7,94.8L710.7,94.8z M710.7,94.8L710.7,94.8l4-1.5l0,0L710.7,94.8z"
	/>
<path class="st2" d="M729.5,121.6c-0.4,0-0.7,0-1.1-0.1c-7.1-1-11.4-7.2-10.7-15.2c0.1-1.3,2.9-27.7,4.1-32.3l0,0
	c1.7-6.3,7.9-10.3,14.3-9.3c3.3,0.5,6.4,2.3,8.4,5l0.1,0.1c2,2.7,2.8,6.2,2.2,9.5c-0.3,1.5-1.4,10.7-2,15.6l-0.2,1.5
	c-1,8-1.5,12.7-1.8,14.1c-1.8,10.1-9.1,11.3-13,11.2L729.5,121.6z"/>
<path class="st2" d="M752.7,126.7c-0.8,0-1.6-0.1-2.4-0.3h-0.2c-6.4-1.6-10.6-6.9-10.3-13c0.2-3.5,2-6.7,4.8-8.8
	c3-2.3,6.8-3.1,10.5-2.3c6.8,1.4,10.8,7.3,9.7,14.3c-0.6,3.2-2.5,6.1-5.2,7.9C757.5,125.9,755.1,126.7,752.7,126.7z M752,116.8
	c0.1,0,0.3,0,0.4,0l1.1-4.8c-0.8-0.2-1.6-0.1-2.2,0.3c-0.6,0.5-1,1.3-1.1,2.1C750.3,115.4,751,116.3,752,116.8L752,116.8z
	 M753.6,112l-1.1,4.7c0.4,0,0.8-0.2,1.2-0.5c0.6-0.5,1-1.2,1-2C754.7,113.4,754.3,112.5,753.6,112L753.6,112z"/>
<path class="st2" d="M182.8,129.3c-2.4-0.1-4.7-0.8-6.8-2c-2.8-1.6-4.9-4.3-5.6-7.5c-1.2-6.1,2.2-10,6.9-15.5l1.5-1.7
	c1-1.2,2.5-2.9,3.9-4.6c-2.5,1.1-5.3,1.5-7.9,0.9c-3.4-0.6-6.4-2.8-8.1-5.9c-1.8-3.6-1.9-7.8-0.2-11.5c3.1-7.4,12.6-14.4,24.8-13.3
	c12.8,1.2,20.7,12.3,20.7,22c0.1,4.3-0.7,8.6-2.5,12.5c4.3,1.2,7.6,4.9,8.3,9.3c0.7,2.9,0.2,6-1.5,8.5c-2,3-5.4,4.8-10.2,5.5
	l-21.3,3.1C184.2,129.3,183.5,129.3,182.8,129.3z M189.1,113.3l-0.2,0.3l0.4-0.1L189.1,113.3z"/>
<path class="st2" d="M239.6,122.8c-5,0-9.9-1.4-14.1-4c-9.8-6.1-15.2-16.9-14.8-29.7c0.8-14,11.6-25.4,25.5-26.9
	c11.4-1.2,22.4,4.7,27.6,14.9l0,0c5.3,10.3,4.7,28.4-4.5,37.8C254.1,120,247,122.8,239.6,122.8z M239.2,86.6H239
	c-0.7,0-2.6,0.8-2.9,1.9c-1.8,6,1.3,8.3,1.3,8.3c1.5,0.9,3.3,0.9,4.3,0s1.2-4.4,0.2-7.5C241.5,88,240.5,87,239.2,86.6z"/>
<path class="st2" d="M278.6,117.8c-2.6-0.1-5.1-0.9-7.2-2.4c-2.7-1.7-4.6-4.6-5.1-7.8c-0.8-6.2,2.8-9.9,7.7-15.1l1.6-1.6
	c1.1-1.1,2.6-2.7,4.1-4.4c-2.6,1-5.4,1.2-8,0.4c-3.4-0.8-6.3-3.2-7.8-6.4c-1.6-3.7-1.5-7.9,0.4-11.5c3.6-7.2,13.4-13.6,25.6-11.8
	c12.7,1.9,20,13.5,19.4,23.1c-0.1,4.3-1.2,8.5-3.2,12.3c4.3,1.5,7.3,5.3,7.8,9.8c0.5,2.9-0.2,6-2,8.4c-2.2,2.9-5.6,4.5-10.5,4.9
	l-21.4,1.8C279.6,117.7,279.1,117.8,278.6,117.8z M285.3,102.1l-0.3,0.3h0.4C285.4,102.3,285.4,102.2,285.3,102.1z"/>
<path class="st2" d="M323.7,114.2c-2.7-0.1-5.2-1-7.4-2.6c-2.7-1.8-4.5-4.7-4.9-7.9c-0.7-6.2,3-9.8,8.1-14.9l1.6-1.6
	c1.1-1.1,2.7-2.7,4.2-4.3c-2.6,0.9-5.4,1-8,0.3c-3.4-0.9-6.2-3.3-7.6-6.6c-1.5-3.7-1.3-8,0.7-11.5c3.7-7.2,13.7-13.3,25.8-11.2
	c12.6,2.2,19.6,13.9,18.8,23.6c-0.2,4.3-1.4,8.5-3.5,12.3c1.2,0.5,2.4,1.1,3.4,2c2.4,2,3.9,4.9,4.1,8c0.5,3-0.3,6-2.2,8.3
	c-2.3,2.8-5.7,4.4-10.6,4.7l-21.4,1.3C324.6,114.2,324.1,114.2,323.7,114.2z M330.5,98.7l-0.3,0.3h0.4
	C330.6,98.9,330.5,98.8,330.5,98.7L330.5,98.7z"/>
<path class="st2" d="M371.2,113h-0.4c-6.6-0.3-11.8-4.7-12.6-10.7c-0.5-3.5,0.6-7,2.9-9.6c2.5-2.8,6.1-4.4,9.8-4.3
	c7,0,12,5,12.4,12.2C383.3,107.3,377.9,112.8,371.2,113z M371.2,98.2c-0.8,0-1.5,0.2-2,0.7c-0.5,0.6-0.7,1.4-0.6,2.2
	c0.3,1,1.2,1.8,2.3,2c0.1,0,0.2,0,0.4-0.1L371.2,98.2L371.2,98.2z M371.4,98.2l-0.2,4.9c0.4-0.1,0.8-0.4,1.1-0.7
	c0.5-0.6,0.7-1.4,0.5-2.2C372.7,99.3,372.2,98.5,371.4,98.2L371.4,98.2z"/>
<path class="st2" d="M409.7,109.5h-0.5c-7.8-0.3-16.3-5.8-17.7-15.6c-0.5-3.5-0.7-18.5-0.9-45v-0.6c-12.5,0-16.6-7.7-17.9-11.1
	c-4.7-12.9,6.2-20.4,9.8-22.8l0.5-0.4c8.5-5.8,17.2-11.7,28.8-9.5c15.2,3,15.6,18.8,15.7,24.8s0.6,57.5,0.2,63.8
	C427.3,102.6,418,109.5,409.7,109.5z M406.8,44.6v4.2c0.1,11.7,0.3,39.2,0.7,42.8c0.2,1.2,1.7,1.5,2.1,1.6c0.7-0.1,1.3-0.5,1.9-1
	c0.3-4.9,0-54.5-0.2-62.4c-0.2-8.7-1.6-9-2.6-9.2c-4.6-0.9-9.1,1.9-16.5,7l-0.5,0.4c-1.5,0.9-2.8,2-3.8,3.4c0,0.1,0.1,0.2,0.1,0.4
	l0,0c0.7,0.3,1.5,0.4,2.3,0.4c0.2,0,0.6-0.1,1-0.3c3.5-1.1,7.4-0.5,10.4,1.7C405,36.2,407,40.3,406.8,44.6z"/>
<path class="st2" d="M446.3,107.7c-0.3,0-0.5,0-0.8,0h-0.1c-8.1-0.7-14.2-6.1-14.9-13.3c-0.4-4.1,1.1-8.2,3.9-11.2
	c3.1-3.3,7.5-5,12-4.7c8.4,0.3,14.1,6.4,14.1,15.1c-0.1,3.8-1.8,7.5-4.6,10.1C453.3,106.3,449.9,107.7,446.3,107.7z M443.8,93
	L443.8,93c0,0.2,0.6,1,2.4,1.2c0.4-0.2,0.7-0.5,0.9-0.9c0-0.5-0.1-0.9-0.3-1.3l0,0c-0.3-0.1-0.6-0.2-1-0.2h-0.1
	C444.1,91.8,443.9,92.8,443.8,93z"/>
<path class="st2" d="M523.7,108.8h-0.8l-42.1-0.8c-4.5,0.3-9.2-2.2-12.2-4.7c-3.6-2.8-5.8-7-6.1-11.5c-0.3-9.1,5.4-13.9,15.8-22.6
	l3.4-2.9c7.7-6.5,19.4-16.3,21.3-22.2c1.2-3.7,0.2-4-1.1-4.5c-3.3-1.2-4.7-0.7-4.9-0.6c-1.4,0.5-1.5,0.8-1.8,1.2l-0.1,0.2
	c-4.8,7.2-14,10-22,6.8c-4.7-1.7-8.4-5.4-10-10.1c-1.8-5.3-0.9-11.2,2.5-16.8c6.8-11.1,24.9-20.1,45-15
	c20.8,5.4,30.8,25.8,28.3,41.6c-2.2,13.7-7.3,21.3-13.5,28h0.1c10.3,0.2,17.7,7.3,17.8,17c0.4,4.2-1,8.3-3.8,11.3
	C536.1,107,531,108.8,523.7,108.8z M480.4,91.8h0.2l42.5,0.8c1.3,0.1,2.6,0,3.9-0.3v-0.1c0-0.3,0-0.8-1.8-0.8
	c-4.7-0.1-12-0.4-14.1-0.5c-7.6-0.4-10.1-4.5-10.9-6.9c-0.5-1.5-1.6-6.6,3.8-11.1c1.7-1.4,4-3.5,6.7-6c7.2-7.2,10.4-11.9,12.1-22.3
	c1.3-7.7-3.7-20-16.2-23.3c-13.2-3.4-24,2.6-27.1,7.8l0,0.1c-1.1,1.8-1,2.7-1,2.9c0.1,0,0.1,0.1,0.2,0.1l0.2,0.1
	c0.9,0.4,1.9,0.2,2.5-0.5c2.2-3.6,5.6-6.3,9.5-7.7c3.2-1.3,8.7-2.3,16.4,0.4c10.4,3.7,14.8,13.7,11,24.9
	c-3.3,10.1-15.5,20.4-26.2,29.5c-1.2,1-2.3,1.9-3.4,2.8c-4,3.4-9,7.5-9.9,9.2C479.4,91.2,479.9,91.5,480.4,91.8L480.4,91.8z"/>
<path class="st2" d="M580.9,112.2c-8.9,0-18.3-2.2-25.9-8.4c-10.9-9-14.9-19.6-12.4-33.4c1.3-6.2,4.4-11.9,9-16.2
	c-2.7-4.5-4.1-9.8-3.9-15.1c0.4-13.6,7.2-24.2,18.5-29.2c12.1-5.3,32.3-3.5,42.9,7.8c11,11.4,9,27.2,6.4,34c-1.1,2.6-2.6,5-4.5,7.1
	c3.4,4.7,5.7,10.2,6.7,15.9c2.4,15.6-6.4,30.4-21,35.2C591.7,111.4,586.3,112.3,580.9,112.2z M572.6,24.8c-5.6,2.5-8.5,7.5-8.7,14.8
	v0.2c0,2.8,0.9,5.5,2.7,7.7c4,5.1,3.1,12.5-1.9,16.6c-2,1.7-5.4,5.1-6.1,9.2c-1.2,6.9-0.5,11.9,6.8,17.9c3.8,3.1,8.9,4.5,14.1,4.7
	c-8.5-0.8-17.8-6.7-18.2-17.7s6.8-17,13.2-18.8c5.8-1.6,14.4-1,19.7,4.2c5.2,4.8,7.2,12.1,5.3,18.9c-2,8.7-10.4,12.7-17,13.3
	c3.2-0.1,6.4-0.7,9.5-1.7c7-2.3,11.1-9.4,9.9-17.3c-0.5-3.3-2.3-7.1-5.3-10.8l-0.1-0.1c-4.2-5.4-3.9-12.2,0.8-16.5
	c1.3-1.1,2.4-2.4,3.1-3.9c0.7-1.8,2.2-9.4-1.5-15.1c0.4,0.7,0.7,1.4,0.9,2.2c2.1,6.4,0.1,13.5-5,17.3c-3.2,2.4-8.7,5-16.8,3.1
	c-8.7-1.9-13.3-10.3-12.4-17C566.3,31.6,568.8,27.5,572.6,24.8z M580.3,75.1c-0.5,0-1.1,0.1-1.6,0.2l0,0c-1.1,0.3-1.3,1.1-1.3,2.4
	v0.1c0,1.6,3.5,2,3.5,2c1-0.1,1.9-0.4,2.7-1v-0.1c0.5-1.9,0-2.5-0.8-3.3l-0.1-0.1C582,75.1,581.1,75,580.3,75.1z M553.4,57L553.4,57
	z M584.9,37.2L584.9,37.2z"/>
<path class="st2" d="M640.5,116.1H640l-0.8-0.1c-7.2-0.6-12.1-6.1-11.8-13.2c0.2-5.6,2.6-32.8,2.6-33c0.7-8,6.3-12.7,14.2-12.2
	c4.4,0.3,20.4,2,22.8,2.2h0c6.5,0.6,11.2,6.4,10.6,12.9c0,0.1,0,0.1,0,0.2c-0.2,2.9-1.5,5.6-3.5,7.7c0.8,2,1.1,4.2,0.8,6.3
	c-0.8,6.1-6.1,10.6-12.2,10.6h-0.2c-1.1-0.1-4-0.3-8.8-0.7c-0.1,1.1-0.2,2.1-0.2,3v0.2c-0.2,2.2-0.3,3.8-0.3,4.6c0,0.3,0,0.5,0,0.6
	C652.4,111.3,646.9,116.1,640.5,116.1z"/>
<path class="st2" d="M708.9,122.4c-5.4,0.1-10.2-3.4-11.9-8.5c-0.2-0.6-0.5-1.6-1-2.9c-2,6.6-8.9,10.3-15.5,8.3
	c-4.9-1.5-8.4-5.8-8.8-11c-0.1-1.8,0.4-7.2,3.5-31.8c0.3-2.2,0.5-3.8,0.5-4.3c0.8-7,5.9-11.4,13-11.3c4.4,0.1,17.2,2.2,21.1,2.8
	c10.2,1.7,17.6,11.9,16.1,22.4v0.1c-0.9,5.3-3.5,10.2-7.5,13.8c1,2.4,1.8,4.9,2.5,7.5c1.3,6.2-2.2,12.3-8.2,14.3h-0.2
	C711.3,122.2,710.1,122.4,708.9,122.4z M713.1,98.4l-2.9,1.1L713.1,98.4L713.1,98.4z M713.1,98.4L713.1,98.4l4-1.5l0,0L713.1,98.4z"
	/>
<path class="st2" d="M731.9,125.2c-0.4,0-0.8,0-1.1-0.1c-7.1-1-11.4-7.2-10.7-15.2c0.1-1.3,2.9-27.7,4.1-32.3l0,0
	c1.7-6.3,7.9-10.3,14.3-9.3c3.3,0.5,6.4,2.3,8.4,5l0.1,0.1c2,2.7,2.8,6.2,2.2,9.5c-0.3,1.5-1.4,10.7-2,15.6l-0.2,1.4
	c-1,8-1.5,12.7-1.8,14.1c-1.8,10.1-9.1,11.3-13,11.2L731.9,125.2z"/>
<path class="st2" d="M755,130.3c-0.8,0-1.6-0.1-2.4-0.3h-0.2c-6.4-1.6-10.6-6.9-10.3-13c0.2-3.5,2-6.7,4.8-8.8
	c3-2.3,6.8-3.1,10.5-2.3c6.8,1.4,10.8,7.3,9.7,14.3c-0.6,3.2-2.5,6.1-5.2,7.9C759.9,129.5,757.5,130.2,755,130.3z M754.4,120.3
	c0.1,0,0.3,0,0.4,0l1.1-4.8c-0.8-0.2-1.6-0.1-2.2,0.3c-0.6,0.5-1,1.3-1.1,2.1C752.7,119,753.4,119.9,754.4,120.3L754.4,120.3z
	 M755.9,115.6l-1.1,4.7c0.4,0,0.8-0.2,1.2-0.5c0.6-0.5,1-1.2,1-2C757.1,117,756.7,116.1,755.9,115.6L755.9,115.6z"/>
<path class="st1" d="M180.4,121.5c-1.6-0.1-3.2-0.5-4.6-1.4c-1.8-1-3.1-2.7-3.5-4.6c-0.8-4.1,1.4-6.7,5.9-11.9l1.5-1.7
	c3.5-4,8.7-10.1,9.2-13.5c0.5-3-1-3.2-1.8-3.4c-2-0.4-2.9,0-3.3,0.2c-0.9,0.6-1.1,0.9-1.2,1.3c-1.6,3.6-5.6,5.6-9.4,4.7
	c-2.2-0.4-4.1-1.8-5.2-3.8c-1.2-2.5-1.2-5.4,0-7.8c2.4-5.8,10.4-11.5,20.5-10.6c9.2,0.8,16.4,8.4,16.8,17.7c0.1,8-2.5,12.3-5.7,16.7
	l-0.1,0.1l2.4-0.3c2.2-0.4,4.4,0.1,6.2,1.3c1.6,1.2,2.7,3,3,5c0.5,1.8,0.2,3.7-0.8,5.3c-1.3,2-3.7,3.2-7.2,3.7l-21.4,3.1
	C181.2,121.4,180.8,121.5,180.4,121.5z M185.6,78.5c0.9,0,1.8,0.1,2.7,0.3c5,0.9,7.7,5.1,6.8,10.5c-0.8,5.1-6,11.2-10.6,16.6
	l-1.5,1.7c-3.8,4.4-4.7,5.7-4.5,6.7c0.5,0.5,1.2,0.9,1.9,1l0,0l21.9-3.2c2.5-0.3,3-1,3-1c0-0.2,0-0.3-0.1-0.4l-0.1-0.3
	c0-0.4-0.2-0.7-0.5-0.9c-0.5-0.3-1.1-0.4-1.7-0.2c-2.4,0.3-6.1,0.8-7.2,0.9c-3.3,0.4-4.6-1.1-5-2c-0.4-0.7-1-2.6,0.9-4.7
	c0.8-0.9,1.8-2.1,3-3.7c3.1-4.3,4.5-7.2,4.5-12.9c-0.3-6.1-5-11-11.1-11.6c-7.5-0.7-12.9,3.7-14.2,6.8c-0.4,0.8-0.5,1.7-0.2,2.5
	c0.2,0.3,0.5,0.5,0.9,0.6h0.1c0.9,0.2,1.9-0.2,2.4-1c0.7-1.8,2.1-3.2,3.8-4.2C182.2,79,183.9,78.5,185.6,78.5z"/>
<path class="st1" d="M237.3,115c-4.2,0-8.4-1.1-12-3.4c-8.6-5.4-13.1-14.6-12.7-25.9c0.7-11.9,9.9-21.6,21.7-22.8
	c9.7-1.1,19,4,23.4,12.6l0,0c4.6,9,4,25-3.7,32.9C249.5,112.7,243.5,115,237.3,115z M236.7,69c-0.6,0-1.2,0-1.8,0.1
	c-9.6,0.9-15.8,9.5-16.1,16.8c-0.2,5.2,0.9,14.8,9.8,20.4c7.1,4.4,16.4,2.2,20.9-2.3c5.1-5.2,6.4-18.2,2.6-25.7
	C249.2,72.5,243.2,68.9,236.7,69z M237.4,104.4c-2.7,0-5.4-0.8-7.8-2.2c-3.5-2.1-9.3-9.1-5.9-20.3c1.9-6.3,8.6-9.3,12.8-9.4
	c5.5-0.2,11.2,4.1,13.1,10s1.6,13.9-3,18.3l0,0C244.1,103.2,240.8,104.5,237.4,104.4L237.4,104.4z M236.8,78.8h-0.2
	c-1.9,0-6,1.6-7,4.9c-2.4,7.8,1.5,12.2,3.2,13.2c3.2,1.9,7.1,1.7,9.5-0.6c2.5-2.4,2.6-8,1.4-12C242.5,81,239.2,78.8,236.8,78.8
	L236.8,78.8z"/>
<path class="st1" d="M276.3,109.9c-1.7-0.1-3.4-0.7-4.9-1.6c-1.7-1.1-2.9-2.8-3.3-4.8c-0.5-4.1,1.8-6.6,6.6-11.5l1.6-1.7
	c3.7-3.8,9.3-9.6,10-13c0.7-2.9-0.8-3.3-1.6-3.5c-2-0.5-2.9-0.2-3.3,0c-1,0.5-1.1,0.9-1.3,1.2c-1.8,3.5-5.9,5.2-9.7,4.2
	c-2.2-0.5-4-2-4.9-4c-1.1-2.5-0.9-5.4,0.4-7.8c2.7-5.7,11-10.9,21.1-9.4c9.2,1.4,15.9,9.3,15.7,18.6c-0.4,8-3.2,12.1-6.6,16.3
	l-0.1,0.1l2.5-0.2c4.7-0.4,8.4,2.4,8.8,6.8c0.4,1.8,0,3.7-1.1,5.2c-1.4,1.9-3.9,2.9-7.5,3.2l-21.6,1.9
	C276.9,109.9,276.6,109.9,276.3,109.9z M282.9,67.3c1.1,0,2.3,0.2,3.4,0.4c5,1.2,7.4,5.5,6.1,10.9c-1.1,5.1-6.7,10.8-11.6,16
	c-0.5,0.6-1.1,1.1-1.6,1.6c-4,4.2-5,5.4-4.9,6.4c0.5,0.5,1.2,0.9,1.9,1.1h0.3l21.8-1.9c2.5-0.2,3-0.8,3-0.8l0,0c0,0,0-0.2-0.1-0.4
	v-0.3c-0.1-1.2-1.2-1.4-2.1-1.3c-2.4,0.2-6.1,0.4-7.2,0.5c-3.3,0.2-4.5-1.4-4.9-2.3c-0.3-0.7-0.9-2.6,1.2-4.7c0.8-0.8,1.9-2,3.2-3.6
	c3.3-4.1,4.9-7,5.2-12.7c0-6.1-4.4-11.2-10.4-12.1c-7.5-1.1-13.1,2.9-14.6,6c-0.5,0.7-0.6,1.6-0.4,2.5c0.2,0.3,0.5,0.6,0.8,0.6h0.1
	c1,0.3,2-0.1,2.5-1c0.8-1.7,2.3-3.1,4-3.9C279.9,67.6,281.4,67.3,282.9,67.3z"/>
<path class="st1" d="M321.4,106.3c-1.8-0.1-3.5-0.7-5-1.8c-1.7-1.1-2.8-2.9-3.1-4.9c-0.5-4.1,2-6.6,6.8-11.4c0.5-0.5,1-1,1.6-1.6
	c3.8-3.7,9.5-9.4,10.3-12.8c0.7-2.9-0.7-3.3-1.5-3.5c-2-0.5-2.9-0.2-3.3,0c-1,0.5-1.2,0.8-1.3,1.2c-1.9,3.5-6,5.1-9.8,4
	c-2.2-0.6-3.9-2.1-4.9-4.2c-1-2.6-0.8-5.4,0.6-7.8c2.9-5.6,11.3-10.7,21.3-9c9.1,1.6,15.7,9.7,15.3,19c-0.6,8-3.5,12-7,16.1
	l-0.1,0.1l2.5-0.1c2.2-0.2,4.3,0.5,6,1.8c1.5,1.3,2.5,3.2,2.6,5.2c0.3,1.8-0.1,3.7-1.2,5.2c-1.5,1.8-3.9,2.8-7.5,3.1l-21.6,1.3
	C321.8,106.3,321.6,106.3,321.4,106.3z M328.5,63.9c1.2,0,2.4,0.2,3.6,0.5c4.9,1.3,7.2,5.7,5.9,11c-1.2,5-6.9,10.7-12,15.7l-1.6,1.6
	c-4.1,4.1-5.2,5.3-5,6.3c0.5,0.6,1.1,0.9,1.9,1.1l0,0l22.1-1.4c2.5-0.2,3-0.7,3-0.7c0-0.1,0-0.3,0-0.4v-0.3c0-0.4-0.1-0.7-0.4-1
	c-0.5-0.3-1.1-0.5-1.6-0.4c-2.4,0.2-6.1,0.3-7.2,0.3c-3.1,0.1-4.4-1.3-4.8-2.4c-0.3-0.7-0.8-2.7,1.3-4.7c0.9-0.8,2-2,3.3-3.5
	c3.4-4.1,5.1-6.8,5.5-12.5c0.2-6.1-4.2-11.3-10.1-12.4c-7.4-1.3-13.2,2.6-14.7,5.7c-0.5,0.7-0.6,1.6-0.4,2.5
	c0.2,0.3,0.5,0.6,0.8,0.7h0.1c0.9,0.3,2,0,2.5-0.9c0.9-1.7,2.3-3.1,4.1-3.8C325.7,64.1,327.1,63.8,328.5,63.9z"/>
<path class="st1" d="M368.8,105.1h-0.2c-4.6-0.2-8.1-3.1-8.6-7c-0.3-2.2,0.4-4.5,1.9-6.2c1.6-1.8,4-2.9,6.4-2.8h0.2
	c5.3,0,7.9,4,8.1,8.1c0,2.1-0.8,4.1-2.3,5.6C372.8,104.2,370.9,105.1,368.8,105.1z M368.4,95.3c-0.7,0-1.3,0.2-1.8,0.7
	c-0.3,0.3-0.5,0.7-0.5,1.2v0.1c0.1,0.8,1,1.6,2.7,1.6l0,0c0.6,0,1.5-1.1,1.5-1.5C370.3,95.2,369.1,95.3,368.4,95.3L368.4,95.3z"/>
<path class="st1" d="M407,100.8h-0.3c-4.7-0.2-12-3.4-13.2-11.5c-0.5-3.6-0.7-23.8-0.8-44.3v-4.3c0-1.3-0.4-1.8-0.4-1.8h-0.1
	c-1.3,0.4-2.6,0.7-4,0.8h-0.1c-9.3,0-12.5-5-13.5-8c-2.4-6.5,0.1-11.9,8-17.3l0.5-0.4c8-5.5,15.6-10.6,25.2-8.8
	c11.5,2.3,11.8,14.4,11.9,20.2c0.1,6.1,0.6,57.7,0.2,63.5C420.1,96.3,412.4,100.8,407,100.8z M392.2,32.1c1.5,0,2.9,0.5,4.1,1.3
	c2.2,1.8,3.4,4.5,3.2,7.3v4.2c0.1,13,0.3,40,0.8,43.4c0.6,4.4,5.1,5.6,6.7,5.7h0.1c2.2,0,6.4-2.2,6.5-5.3c0.3-5.2,0-55.5-0.2-62.9
	c-0.2-7.9-1.3-12.7-6.4-13.7c-6.8-1.3-12.7,2.7-20.1,7.7l-0.5,0.4c-7.1,4.8-6.2,7.3-5.4,9.3v0.1c0.8,2.3,3.1,3.4,7,3.4l0,0
	c0.7-0.1,1.4-0.3,2.1-0.5C390.7,32.2,391.5,32.1,392.2,32.1z"/>
<path class="st1" d="M443.6,99.9h-0.5c-6.2-0.5-10.9-4.6-11.4-9.8c-0.2-3,0.8-5.9,2.9-8.1c2.3-2.4,5.6-3.7,9-3.5
	c7.6,0.3,10.4,6.2,10.4,11.3C453.6,95.3,449.2,99.7,443.6,99.9L443.6,99.9z M442.9,84.1c-1.6-0.1-3.1,0.6-4.2,1.7
	c-1,1-1.5,2.3-1.4,3.6v0.1c0.2,2.1,2.2,4.4,6.2,4.8c1.2,0,2.4-0.5,3.2-1.4c0.9-0.8,1.5-1.9,1.7-3.1c0-3.6-1.7-5.5-5-5.7L442.9,84.1z
	"/>
<path class="st1" d="M521.1,100.1h-0.7l-42.3-0.8c-3,0.3-6.7-1.6-9.1-3.6c-2.6-1.9-4.2-4.9-4.4-8.1c-0.2-6.8,4.3-10.6,14.1-18.9
	c1.1-0.9,2.2-1.9,3.4-2.9c8.6-7.3,20.4-17.2,22.7-24.3c1.8-5.3,0.5-8.8-4-10.4c-4.2-1.5-6.8-1.1-8.2-0.6c-1.7,0.5-3.1,1.6-4,3.1
	c-3.6,5.3-10.4,7.5-16.4,5.1c-3.4-1.2-6-3.8-7.2-7.2c-1.4-3.9-0.6-8.5,2.1-12.8C473.1,9.3,489.1,1.5,507,6
	c18.2,4.7,27,22.5,24.7,36.2c-2.3,14.7-8.1,21.5-15.4,28.8c-1.8,1.7-3.3,3.2-4.7,4.4c3.9,0.2,8.3,0.3,11.3,0.4
	c7.7,0.1,13.2,5.3,13.1,12.4c0.4,2.9-0.6,5.8-2.5,8C531,98.8,527,100.1,521.1,100.1z M477.8,92.5h0.2l42.5,0.8
	c5.4,0.1,7.3-1.1,8-1.8c0.4-0.4,0.8-1.1,0.7-2.9v-0.3c0.1-3.4-2.4-5.6-6.4-5.6c-4.7-0.1-11.9-0.4-14-0.5c-3.6-0.2-5.9-1.4-6.6-3.7
	c-0.4-1.2-0.6-3.5,2.4-6c1.8-1.5,4.2-3.6,7.1-6.3c6.6-6.6,11.4-12.3,13.4-25c1.5-9.1-3.7-24.4-19.7-28.5C489.6,8.7,477,16,473,22.5
	c-1.6,2.6-2.1,5-1.5,7c0.5,1.4,1.6,2.5,3.1,3h0.1c2.9,1.2,6.4,0.3,8.2-2.4c1.7-2.7,4.3-4.7,7.3-5.8c2.5-1,6.8-1.8,13.1,0.5
	c8,2.9,11.1,10.2,8.1,19S496.3,63,486.5,71.2l-3.4,2.9c-9.7,8.2-11.8,10.2-11.7,13.4c0.1,2.5,4.5,5,6,5l0,0L477.8,92.5z"/>
<path class="st1" d="M578.2,103.6c-7.9,0-16.3-2-22.9-7.4c-9.7-8-12.9-16.7-10.8-28.9c1.3-7.2,6.2-12.6,10-15.9
	c0.1-0.1,0.3-0.2,0.3-0.4c-0.1-0.3-0.2-0.5-0.4-0.7c-3.5-4.9-5.1-9.9-4.8-15c0.3-11.9,5.9-20.8,15.7-25.1c10.4-4.6,28.5-3,37.6,6.7
	c8.7,9,8,22.3,5.4,29.1c-1.4,3.8-4.8,7-6.1,8.3l0,0c0.1,0.3,0.3,0.6,0.5,0.9c3,3.7,6.7,9.5,7.7,16.2c2,13.3-5.4,26-17.8,30
	C588.1,102.9,583.2,103.6,578.2,103.6z M578.5,14.6c-3.5-0.1-7,0.6-10.3,1.9c-9.3,4.1-11.5,12.6-11.6,19.1v0.1
	c-0.1,3.9,1.2,7.6,3.5,10.7c2.5,3.5,2.1,7.5-1.1,10.3c-3,2.5-6.7,6.7-7.7,11.9c-1.4,8.1-0.6,15,8.4,22.4c8.4,6.9,21.6,6.9,31,4
	s14.7-12.3,13.1-22.5c-0.8-5.2-3.8-9.9-6.3-13c-2.7-3.5-2.6-7.5,0.3-10.2c1.8-1.6,3.3-3.5,4.3-5.7c1.2-3.3,3.2-14.4-4-21.9
	C593.6,17,585.7,14.7,578.5,14.6L578.5,14.6z M578.2,87.4c-0.3,0-0.6,0-0.9,0c-6.6-0.6-13.8-5-14-13.2s5-12.7,9.8-14
	s11.4-0.7,15.2,3.1c4,3.8,5.4,8.8,4,14.4C590.5,84.8,582.7,87.4,578.2,87.4L578.2,87.4z M577.7,66.4c-1,0-2,0.1-2.9,0.4l0,0
	c-1.5,0.4-5,1.9-4.7,7.2c0.2,5.9,7.5,6.6,7.8,6.6c1.8,0.2,6.9-1,7.7-4.4v-0.1c0.8-3.2,0.2-5.7-2.1-7.8l-0.1-0.1
	C582.3,67.1,580,66.4,577.7,66.4L577.7,66.4z M580.9,45.3c-1.5,0-3-0.2-4.5-0.6c-5.5-1.2-9.2-6.2-8.7-11.8
	c0.8-6.1,6.1-10.5,12.3-10.3l0,0c9.7,0.2,12.2,6.4,12.7,7.8c1.5,4.4,0.1,9.5-3.3,12.1C586.9,44.3,584,45.3,580.9,45.3L580.9,45.3z
	 M579.9,29.5c-4.9,0-5.4,4.1-5.4,4.3v0.2c0.1,2,1.5,3.7,3.5,4.1c4.1,1,6.1-0.1,7.2-1c1.2-1.2,1.6-2.9,1-4.5v-0.1
	C586.1,32.2,585.1,29.5,579.9,29.5L579.9,29.5z"/>
<path class="st1" d="M638,108.2h-0.3h-0.5c-3.8-0.3-8.2-2.8-8-8.8c0.2-5.1,2.3-29.3,2.6-32.8c0.5-5.7,4-8.7,9.6-8.3
	c4.2,0.2,20.2,1.9,22.5,2.2c4.2,0.3,7.2,4,6.9,8.1c0,0.1,0,0.2,0,0.3c-0.2,3.2-2.3,5.9-5.4,6.7c0.3,0.2,0.6,0.5,0.8,0.8l0.1,0.1
	c1.4,1.7,2.1,4,1.8,6.2c-0.6,3.9-3.8,6.7-7.7,6.8h-0.2c-1.1,0-5-0.4-9.2-0.7l-3.8-0.3l0,0c0,0.1,0,0.1,0,0.2
	c-0.1,1.2-0.2,2.4-0.3,3.6s-0.2,2.5-0.2,3.6v0c-0.2,2.2-0.3,3.9-0.4,4.7c0,0.3,0,0.4,0,0.5C645.9,105.6,641.8,108.2,638,108.2z
	 M638,102L638,102c0.9,0,2-0.6,2.1-1.4v-0.4c0-0.8,0.2-2.5,0.4-4.8c0.1-1.1,0.2-2.3,0.3-3.6c0.1-1.1,0.2-2.3,0.3-3.6
	c0.3-4,3-6.2,6.8-5.9l3.8,0.3c3.8,0.3,7.8,0.6,8.9,0.7c0.8,0,1.4-0.6,1.6-1.4c0.1-0.5-0.1-1-0.4-1.4c-0.1-0.1-0.2-0.2-0.4-0.2
	c-0.8-0.1-2.4-0.2-4.7-0.4c-2.5-0.2-5.6-0.5-8.3-0.8l0,0c-2.7-0.2-4.5-1.1-5.5-2.6c-0.7-1.1-0.9-2.5-0.6-3.8
	c0.5-2.5,2.7-4.3,5.3-4.3h0.2l6.9,0.6c3.7,0.3,6.5,0.6,7.9,0.7c2.1,0.2,2.1-0.8,2.2-1.4c0.1-1.5-0.9-1.7-1.4-1.7
	c-3.1-0.3-18.3-1.9-22.2-2.2c-2.1-0.2-2.8,0.2-3,2.6c-0.3,3.3-2.4,27.6-2.6,32.5c0,0.8-0.1,2.2,2.3,2.4L638,102z M642.2,73.2
	L642.2,73.2z"/>
<path class="st1" d="M706.5,114.6c-3.5,0-6.7-2.2-7.8-5.6c-0.5-1.7-2.3-6.9-4-11.7v-0.1c0-0.2-0.1-0.3-0.2-0.5
	c0-0.1-0.1-0.2-0.1-0.3c-0.2,0-0.3-0.1-0.5-0.1h-0.1c-1-0.1-1.8-0.2-2.5-0.3H691l-0.2,2c-0.5,4-0.8,6.8-1.1,8
	c-1.2,4.3-5.7,6.9-10,5.7c-3.3-0.9-5.7-3.8-6-7.2c-0.1-1.7,0.8-10.1,3.5-31c0.3-2.2,0.5-3.8,0.5-4.4c0.5-4.7,3.9-7.6,8.6-7.5
	c4.2,0.1,17.7,2.3,20.4,2.8c8,1.3,13.8,9.3,12.6,17.5c-0.8,5.3-3.9,10.1-8.4,13c1.3,3.2,2.4,6.5,3.4,9.9c0.9,4-1.5,8.1-5.4,9.3h-0.1
	C708,114.4,707.3,114.5,706.5,114.6z M700.5,95.3c1.7,4.8,3.5,10.1,4.1,11.8c0.4,0.9,1.3,1.4,2.2,1.2c0.9-0.2,1.5-1.2,1.3-2.1
	c-0.3-1.3-1.9-5.7-3.2-9.2c-1.6-3.7,0.6-6,2.7-7.3c3.1-1.9,5-5.7,5.5-8.7c0.6-4.9-2.6-9.4-7.5-10.5c-9.1-1.6-17.1-2.7-19.5-2.7
	c-1.8,0-2.2,0.7-2.4,2c-0.1,0.6-0.3,2.2-0.5,4.4c-0.9,6.9-3.5,27.7-3.4,29.9c0,1.1,1.2,1.5,1.7,1.6c0.9,0.1,1.7-0.4,2-1.2
	c0.2-1,0.7-4.7,1-7.2l0.2-2c0.1-1.7,0.9-3.2,2.2-4.3c1.2-1,2.7-1.4,4.2-1.2l1,0.1c0.7,0.1,1.4,0.2,2.1,0.2c5,0.2,6,3.8,6.3,4.9
	C700.5,95.1,700.5,95.2,700.5,95.3L700.5,95.3z M710.5,94.8l-2.8,1L710.5,94.8z M701.5,88.2H701c-2.5-0.1-7.2-0.7-9.3-1l-0.7-0.1
	c-4.1-0.5-4.5-3.2-4.4-4.9c0-1.1,0.3-3,0.7-5.4c0.1-0.8,0.2-1.4,0.2-1.7c0.4-3.1,2.5-4.8,5.4-4.5c0.1,0,8.3,1,11,1.6
	c4,0.8,6.3,5.3,5.7,8.9C708.9,85.6,705.8,88.2,701.5,88.2L701.5,88.2z M693,81.2c2.1,0.2,6.2,0.7,8.3,0.8c1.1,0.1,1.9-0.2,2.2-2
	c0.1-0.5-0.4-1.6-0.8-1.6c-1.8-0.4-6.6-1-9.2-1.3c0,0.2-0.1,0.5-0.1,0.8C693.4,78.7,693.2,80.1,693,81.2L693,81.2z"/>
<path class="st1" d="M730.5,117.3c-0.2,0-0.4,0-0.7,0c-0.3,0-0.6,0-0.9,0c-4.7-0.7-7.5-4.9-7-10.6c0.3-3.1,3-28.2,4-31.7
	c1.3-4.6,6-7.2,10.6-5.9c1.8,0.5,3.4,1.6,4.5,3.1c1.4,1.8,1.9,4.1,1.5,6.3c-0.3,1.6-1.3,10.5-2,15.8l-0.2,1.5
	c-0.9,7.8-1.5,12.6-1.8,13.9C738.3,111.6,737.3,117.3,730.5,117.3z M729.5,111.1h0.5c1.7,0.1,2.1,0.2,2.6-2.5l0,0
	c0.2-1.1,1-7.4,1.7-13.5l0.2-1.5c0.9-7.6,1.8-14.6,2-16.2c0.1-0.5,0-1.1-0.3-1.5c-0.8-1-2.3-1.2-3.3-0.3c-0.4,0.3-0.6,0.7-0.8,1.1
	c-0.7,2.6-3.4,25.6-3.8,30.6C728.1,108.1,728,110.6,729.5,111.1L729.5,111.1z"/>
<path class="st1" d="M752.7,122.4c-0.5,0-1-0.1-1.5-0.2c-4.5-1.1-7.3-4.6-7.1-8.6c0.2-2.3,1.3-4.3,3.1-5.7c2-1.5,4.6-2.1,7-1.5
	c5.2,1,7,5.5,6.3,9.5c-0.4,2.1-1.6,3.9-3.4,5C755.9,121.9,754.3,122.4,752.7,122.4z M752.2,112.5c-0.4,0-0.9,0.1-1.2,0.4
	c-0.4,0.3-0.6,0.6-0.7,1.1v0.1c-0.1,0.8,0.7,1.7,2.3,2.1c0.6,0.1,1.7-0.8,1.8-1.2c0.3-2.1-0.8-2.3-1.5-2.4
	C752.7,112.5,752.5,112.5,752.2,112.5z"/>
<path class="st4" d="M173.8,88.1c-2.7-0.5-4.6-3.3-2.9-7.3c1.8-4.4,8.4-9.6,17.4-8.8c7.6,0.7,13.6,6.9,13.9,14.6
	c0.1,6.8-1.9,10.4-5.1,14.8c-1.1,1.5-2.2,2.9-3.1,3.9c-1.1,1.2-0.4,1.8,1.4,1.6c2.3-0.3,5.3-0.6,7.1-0.9c3.2-0.5,5.3,1.3,5.7,3.8
	c0.8,3-1.2,4.6-5.5,5.2l-21.6,3.1c-1.4,0.4-5.2-0.9-5.7-3.4s1-4.3,5.2-9.3s10.7-12,11.4-16.8c0.6-3.8-1-6.3-4.3-6.9
	c-1.8-0.5-3.8-0.3-5.4,0.6c-1.1,0.6-2,1.6-2.5,2.7C178.7,87.5,176.2,88.7,173.8,88.1z"/>
<path class="st5" d="M255,76.9c4.3,8.3,3.2,22.8-3.2,29.3c-5.6,5.7-16.5,7.9-24.8,2.8s-11.6-13.8-11.3-23.1
	c0.7-10.3,8.6-18.6,18.8-19.8C243,65.1,251.1,69.4,255,76.9z M244.5,98.6c3.8-3.7,3.6-10.7,2.2-15.1c-1.5-4.7-6.1-8-10.1-7.8
	c-3.1,0-8.4,2.3-9.8,7.2c-2.8,9.2,1.6,15,4.5,16.7C235.4,102.1,240.9,102,244.5,98.6L244.5,98.6z"/>
<path class="st4" d="M271.2,76.2c-2.7-0.7-4.4-3.6-2.5-7.5c2.1-4.3,9-9,17.8-7.7c7.6,1.1,13.2,7.7,13.1,15.4
	c-0.4,6.8-2.5,10.3-5.9,14.5c-1.2,1.4-2.4,2.7-3.4,3.7c-1.1,1.2-0.5,1.8,1.3,1.7c2.3-0.1,5.3-0.3,7.1-0.5c3.2-0.3,5.3,1.6,5.5,4.1
	c0.6,3-1.5,4.6-5.8,4.9l-21.8,1.9c-1.4,0.3-5.2-1.2-5.5-3.7s1.2-4.2,5.7-8.9s11.3-11.4,12.4-16.1c0.9-3.8-0.7-6.4-3.9-7.2
	c-1.8-0.6-3.7-0.5-5.5,0.3c-1.2,0.5-2.1,1.4-2.7,2.6C276.1,75.9,273.6,76.9,271.2,76.2z"/>
<path class="st5" d="M317,72.5c-2.7-0.7-4.4-3.7-2.3-7.5c2.2-4.3,9.2-8.8,18-7.3c7.6,1.3,13,8,12.7,15.7c-0.5,6.8-2.7,10.2-6.3,14.4
	c-1.2,1.4-2.5,2.7-3.5,3.6c-1.2,1.1-0.6,1.8,1.3,1.8c2.3-0.1,5.3-0.2,7.2-0.3c3.2-0.2,5.2,1.7,5.4,4.3c0.5,3-1.6,4.5-5.9,4.8
	l-21.8,1.4c-1.4,0.3-5.1-1.3-5.4-3.8s1.3-4.2,5.9-8.8s11.6-11.1,12.7-15.8c1-3.8-0.5-6.4-3.7-7.3c-1.8-0.6-3.7-0.6-5.5,0.2
	c-1.2,0.5-2.1,1.4-2.7,2.5C321.9,72.2,319.3,73.2,317,72.5z"/>
<path class="st2" d="M363.1,97.7c-0.2-2.8,1.8-5.3,4.6-5.5c0.2,0,0.5,0,0.7,0c3.9,0,4.9,3,5,5.1c-0.1,2.6-2.2,4.6-4.8,4.8
	C365.5,101.8,363.4,99.9,363.1,97.7z"/>
<path class="st4" d="M377.8,30.6c-1.4-3.9-1.3-7.9,6.7-13.4S399.2,7,407.7,8.6s9,10.1,9.1,17s0.6,57.8,0.2,63.2s-6.3,8.8-10.2,8.6
	c-3.4-0.2-9-2.5-9.9-8.6c-0.6-4-0.7-34.4-0.8-48.1c0-4.1-2.6-5.8-5-5c-1,0.3-2,0.5-3,0.6C382.6,36.3,379.1,34.3,377.8,30.6z"/>
<path class="st2" d="M434.5,89.8c-0.2-4.5,3.3-8.3,7.8-8.5c0.4,0,0.8,0,1.2,0c6.3,0.2,7.7,5.2,7.8,8.5s-3.8,7.6-8,7.3
	C438.1,96.7,434.9,93.4,434.5,89.8z"/>
<path class="st5" d="M473.4,35.7c-5.1-1.8-7.9-7.8-3.4-15c4.9-7.9,19.2-15.7,36.1-11.4s24.1,20.7,22.2,32.4
	c-2,13.2-6.9,19.4-14.4,26.9c-2.6,2.5-5.2,4.8-7.3,6.5c-2.5,2-1.4,3.4,2.2,3.6c4.5,0.2,10.3,0.4,13.9,0.5c6.3,0.1,9.9,4.2,9.8,9.1
	c0.5,6-3.8,8.5-12.1,8.4L477.9,96c-2.8,0.4-9.8-3.4-9.9-8.3s3.2-8,12.9-16.2s24.2-19.7,27.2-28.7c2.4-7.2,0-12.5-6-14.7
	c-4.7-1.7-8.2-1.5-10.6-0.5c-2.4,0.8-4.4,2.3-5.7,4.4C483,36,477.9,37.5,473.4,35.7z"/>
<path class="st4" d="M553.2,35.5c0.3-9.5,4.3-18,13.7-22.1s25.7-2.5,33.8,5.9s6.5,20.7,4.7,25.5c-1.2,2.7-3,5.1-5.2,7
	c-1.5,1.4-1.5,3.5,0.1,5.5c2.5,3.1,6.1,8.5,7,14.6c1.8,11.8-4.6,22.7-15.5,26.3c-9.6,3-24.3,3.5-34.2-4.6c-9.7-8-11.3-16-9.6-25.6
	c1.2-6.4,5.7-11.2,8.9-13.9c1.9-1.6,2-3.7,0.5-5.7C554.5,44.7,553.1,40.2,553.2,35.5z M573.9,63.5c-2.5,0.7-7.6,3.3-7.2,10.6
	s7.7,9.6,10.9,9.9s10-1.5,11.3-7.1c1.1-4.2,0.3-8-3-11.2C583.1,63.1,577.7,62.4,573.9,63.5L573.9,63.5z M589.4,31.5
	c-0.5-1.6-2.8-5.3-9.4-5.4s-8.7,5.2-8.9,7.3c-0.2,3.8,2.4,7.2,6.1,8c3.7,0.9,7.1,0.6,10-1.7C589.7,37.9,590.4,34.3,589.4,31.5
	L589.4,31.5z"/>
<path class="st5" d="M648.6,76.1c5,0.4,11.5,1.1,13,1.2c1,0.1,1.9,0.5,2.5,1.3c0.9,1.1,1.3,2.5,1.1,3.8c-0.3,2.4-2.4,4.1-4.7,4.1
	c-1.4-0.1-8-0.6-12.8-1c-2.9-0.3-3.3,2-3.4,3c-0.2,2.7-0.4,5.2-0.5,7.2c-0.3,2.9-0.4,4.9-0.4,5.2c-0.2,2.6-3,4.3-5.4,4.2h-0.4
	c-1.2-0.1-5.3-0.8-5.1-5.6c0.2-5,2.3-29.2,2.6-32.6c0.3-3.9,2.4-5.8,6.3-5.5s19.7,1.9,22.4,2.2c2.5,0.2,4.3,2.3,4.1,4.8
	c0,0.1,0,0.2,0,0.3c-0.3,2.9-2.3,4.5-5.4,4.2c-1.4-0.1-4.1-0.3-8-0.7l-6.7-0.6c0,0-2.2,0.1-2.3,1.9
	C645.3,73.7,644.2,75.7,648.6,76.1z"/>
<path class="st4" d="M707.8,95.8c1.5,4.1,3,8.2,3.4,9.7c0.5,2.5-0.9,5-3.4,5.7c-2.6,0.8-5.3-0.7-6.2-3.2c-0.5-1.7-2.4-7-4.1-11.8
	c-0.3-1-0.5-2.9-3.6-3c-1.2-0.1-2.3-0.3-3.3-0.4c-1.6-0.2-2.7,1-2.9,2.8c-0.4,3.3-0.9,8.3-1.2,9.7c-0.6,2.7-3.3,4.4-6,3.7
	c-2.2-0.5-3.7-2.4-3.8-4.6c-0.1-2.6,3.7-31.8,4-34.9c0.4-3.4,2.6-4.8,5.5-4.8s12.1,1.4,19.9,2.7c6.5,1.3,10.8,7.4,10,14
	c-0.7,4-3.1,8.5-7,10.8C706.9,93.8,707.5,95,707.8,95.8z M691.5,84.1c1,0.1,7,0.9,9.7,1s4.9-1.4,5.5-4.5c0.3-2-0.9-4.8-3.3-5.3
	s-9.4-1.4-10.7-1.6s-1.8,0.6-2,1.8c-0.1,1-0.9,5.5-0.9,6.9S690.5,84,691.5,84.1z"/>
<path class="st5" d="M735.6,109.1c-0.6,3.4-1.8,5.4-5.9,5.1c-0.1,0-0.2,0-0.3,0c-3.6-0.5-4.6-4.1-4.3-7.2c0.4-4,3.1-28.1,3.9-31.1
	c0.8-2.9,3.8-4.6,6.8-3.8c1.1,0.3,2.1,1,2.9,2c0.8,1.1,1.2,2.5,0.9,3.9c-0.3,1.6-1.2,8.9-2,16S735.8,107.8,735.6,109.1z"/>
<path class="st2" d="M747.2,113.8c0.3-2.8,2.8-4.8,5.6-4.5c0.2,0,0.5,0.1,0.7,0.1c3.8,0.8,4.2,3.9,3.9,6c-0.7,2.5-3.1,4.1-5.6,3.7
	C748.7,118.4,747,116.1,747.2,113.8z"/>
<path class="st2" d="M574.5,75.4c-0.1-2.6,1.9-4.9,4.6-5c0.2,0,0.5,0,0.7,0c3.7,0.1,4.5,3,4.6,5c-0.2,2.4-2.2,4.3-4.7,4.3
	C576.6,79.4,574.7,77.5,574.5,75.4z"/>
<path class="st0" d="M858.8,173.8c-10.1,0.1-19.9-3.5-27.6-10.1c-3.9-3.4-7.2-7.5-9.6-12.1c-1.8,0.8-3.8,1.2-5.8,1.2l0,0
	c-4-0.1-7.9-1.2-11.2-3.4c-6.1-3.9-9.4-11.5-8.6-19.6c1-10.3,8.6-19.3,16.7-19.8c1.3-12.8,10.1-23.1,22.6-25.3
	c2.3-0.4,4.6-0.6,6.9-0.6c9.9,0,17.8,3.9,22,10.5l4.1,0.1c9.4,0.2,16.8,4.4,20.7,11.9c2.2,4.5,3.3,9.5,3,14.5l1.6,4
	c0.4,1,0.8,2,1.1,3l0.2-0.1c-1.1-5.8,1.2-12.8,4.3-16.7l2.4-2.9l2.5,1.9c1.1-1.9,2.7-3.5,4.7-4.5c1.6-0.8,3.4-1.2,5.2-1.2
	c4.2,0.1,8.1,2,10.7,5.2c2.6,3,3.5,7.2,2.3,11.1c3.3,2.6,4.8,6.8,4.1,10.9c-1,5.4-5.5,9.6-11,10.1l-2.2,1.3c-2.4,1.4-5.2,2.2-8,2.2
	l0,0c-2.8,0-5.6-0.8-8.1-2.2c-2.2-1.3-4.1-3.2-5.5-5.3c0.2,9.1-3.4,17.9-10.6,25.7C879.5,169.9,869.5,173.8,858.8,173.8z M871,144.7
	c-0.6,1.1-1.3,2.1-2,3c1.7-0.9,3.3-2,4.8-3.2c-0.9,0.1-1.8,0.2-2.7,0.2L871,144.7z M828.6,137.1c0.9,1.3,1.9,2.5,2.9,3.6
	c-0.2-0.9-0.3-1.8-0.3-2.7C830.3,137.7,829.4,137.4,828.6,137.1L828.6,137.1z M851.5,138.1c2.1,0.3,4.2,0.6,6.4,0.7l-1.2-1.5
	c-0.6,0.1-1.3,0.1-2,0.1l0,0c-1.6,0-3.2-0.2-4.8-0.4L851.5,138.1z M814.8,124.6c-0.2,5,1.1,9.9,3.8,14c0-1.2,0.2-2.4,0.5-3.6
	l0.7-3.4C817.7,129.6,816,127.2,814.8,124.6L814.8,124.6z"/>
<path class="st0" d="M835.7,113.3c-1.5,8.5,3.7,16.7,12,19c9,2.8,18.7,0.3,20.7-8.8c-8.7-1.3-18.5-12.6-16.7-20.1
	C842.2,102,836.9,106.4,835.7,113.3z M866.2,118.3c2.5-1.4,4.2-5.4,1.6-10.4c-2.1-4-9.2-4.8-12.1-1.1
	C855.9,110.8,860.7,116.8,866.2,118.3L866.2,118.3z M861,136.4c4.2,5.5,16.6,6.9,22.9-2.5c7.5-11.3,5.8-34.9-15.8-35.3
	C878,104.3,878.2,131.7,861,136.4z M841.3,135.1c-11.9-9.4-12.8-22-7.6-29.7c6.6-9.7,18.4-10.1,28.2-6.2
	c-3.6-9.2-14.7-12.8-26.1-10.7s-20.4,12.7-19.4,26.6C817.3,127.9,827.8,135.6,841.3,135.1L841.3,135.1z M844.9,150.6
	c8.7,3.7,18.7,0,22.9-8.4c-9.5,1.9-25.3-0.8-32.7-5.3C835.1,143.2,837.8,147.4,844.9,150.6L844.9,150.6z M813,113.9
	c-5.6,0.3-12.2,7.1-13.1,16.3c-0.6,6.5,1.9,12.7,6.8,15.9c4.5,2.9,10.8,3.8,14.2,1.4C811.5,138.3,808.2,127.4,813,113.9z M865,153.6
	c-12.5,3.5-30.4,1.8-42.1-17.8c-2,9.2,3.5,18.4,10.9,24.9c15.3,13.4,38.8,10.9,48.8,0.1c10.2-11,11.6-23.2,7.1-34.3
	C886.6,140.2,875.2,150.9,865,153.6z M897.6,130.9c0.3,2.9,2.7,6.8,6.1,8.7c3.7,2.2,8.3,2.2,12.1,0
	C912.9,132.8,903.7,127.9,897.6,130.9z M906.4,128.4c1.5-3.4,0.6-10.9-4.4-14.6c-2.5,3-4.7,9.7-3.2,14.4
	C901.3,127.5,904,127.6,906.4,128.4L906.4,128.4z M921.9,122.4c-4.2-2.2-9.5-1.4-12-0.4c0.2,2.5-0.2,5.1-1,7.4
	c3.6,1.8,6.7,4.7,8.7,8.2c3.9,0.9,8.5-2.4,9.2-6.5C927.4,127.6,926.1,124.5,921.9,122.4L921.9,122.4z M922.8,119.9
	c1-2.6,0.4-5.6-1.5-7.7c-2.6-3.2-7.3-4.8-10.9-3c-2.2,1.1-3.7,3.2-3.9,5.7c0.8,1,2,2.7,3,4.1C913,117.8,919.1,117.9,922.8,119.9
	L922.8,119.9z"/>
<path class="st0" d="M822,174.8c-2.5-2.2-4.3-5.2-5-8.4c-3.4,2.9-7.8,4.4-12.3,4.4l0,0c-1.5,0-3-0.2-4.4-0.5l-3.4-0.8l0.3-3.5
	c0.8-10.4,9.5-18.5,20-18.4c1.4,0,2.9,0.1,4.3,0.4l3.8,0.7l-0.2,1l2.1,2.1c3.3,3.2,5.1,7.6,5.1,12.1c-0.1,4.1-2,8-5.1,10.8l-2.6,2.3
	L822,174.8z M894.1,110l-1.3-0.6c-3.3-1.4-5.8-4.2-6.9-7.5c-1-3.1-0.7-6.4,0.9-9.2l1.7-3.1l3.3,1.3c1.9,0.7,3.5,1.9,4.8,3.4
	c2.4-3.2,6-5.2,10-5.7l3.5-0.4l0.9,3.4c1.1,4.2,0.4,8.7-2,12.4c-2.4,3.6-6.3,6.1-10.7,6.7l-1.8,0.3l-0.1,0.1l-0.2-0.1l-1.8,0.3
	L894.1,110z"/>
<path class="st0" d="M801.1,166.4c9,2,17.8-3.7,19.6-14.5C810.1,149.9,802,157.1,801.1,166.4z M824.6,171.8
	c4.9-4.3,5.2-11.8-0.2-17.2c-4.7,4.2-5.1,11.4-0.9,16.1C823.8,171.1,824.2,171.5,824.6,171.8L824.6,171.8z M906.9,92.5
	c-6.4,0.8-10.8,6.7-9.4,14.2c6.2-0.8,10.5-6.4,9.8-12.6C907.2,93.5,907.1,93,906.9,92.5L906.9,92.5z M890.2,94.5
	c-2.2,4-0.6,9,4.2,11.3c2.1-3.9,0.6-8.7-3.3-10.8C890.8,94.7,890.5,94.6,890.2,94.5L890.2,94.5z"/>
<path class="st0" d="M72.2,173.8c-10.7,0-20.7-3.9-26.7-10.4c-7.2-7.8-10.7-16.6-10.6-25.7c-1.4,2.2-3.3,4-5.6,5.3
	c-2.4,1.4-5.2,2.2-8.1,2.2l0,0c-2.8,0-5.6-0.8-8-2.2l-2.2-1.3c-5.5-0.5-10-4.6-11-10.1c-0.7-4.1,0.8-8.3,4.1-10.9
	c-1.2-3.8-0.4-8,2.3-11.1c2.6-3.2,6.5-5.2,10.7-5.2c1.8,0,3.6,0.4,5.2,1.2c1.9,1,3.6,2.6,4.6,4.5l2.5-1.9l2.5,2.9
	c3.2,3.8,5.5,10.9,4.3,16.7l0.2,0.1c0.3-1,0.7-2,1.1-3l1.6-4c-0.3-5,0.8-10,3-14.5c3.9-7.5,11.2-11.8,20.7-12l4.1-0.1
	C71.1,87.8,79,84,88.9,84c2.3,0,4.6,0.2,6.9,0.6c12.4,2.2,21.3,12.5,22.6,25.3c8.1,0.6,15.7,9.6,16.7,19.8
	c0.8,8.2-2.5,15.7-8.6,19.6c-3.4,2.2-7.3,3.4-11.2,3.4l0,0c-2,0-4-0.4-5.8-1.2c-2.4,4.6-5.6,8.7-9.6,12.1
	C92.1,170.3,82.3,173.9,72.2,173.8z M57.2,144.5c1.5,1.2,3.1,2.3,4.8,3.2c-0.7-0.9-1.4-1.9-2-3h-0.2C59,144.7,58.1,144.7,57.2,144.5
	L57.2,144.5z M99.8,138c0,0.9-0.1,1.8-0.3,2.7c1-1.1,2-2.3,2.9-3.6C101.6,137.4,100.7,137.7,99.8,138z M73.2,138.8
	c2.1-0.1,4.3-0.4,6.4-0.7l1.5-1.2c-1.6,0.3-3.2,0.4-4.8,0.4l0,0c-0.7,0-1.3,0-2-0.1L73.2,138.8z M111.9,135c0.3,1.2,0.4,2.4,0.4,3.6
	c2.7-4.1,4.1-9,3.8-14c-1.2,2.6-2.9,5-5,7L111.9,135z"/>
<path class="st0" d="M62.5,123.5c2,9,11.6,11.6,20.7,8.8c8.3-2.3,13.5-10.5,12-19c-1.2-6.9-6.4-11.3-16-9.9
	C81.1,110.9,71.2,122.2,62.5,123.5z M64.8,118.3c5.4-1.5,10.3-7.5,10.5-11.4c-2.8-3.8-10-2.9-12.1,1.1
	C60.6,112.9,62.3,116.9,64.8,118.3z M70,136.4c-17.2-4.7-17-32.1-7.1-37.9c-21.6,0.4-23.3,24.1-15.8,35.3
	C53.4,143.3,65.8,141.9,70,136.4z M97.2,105.4c5.2,7.7,4.4,20.3-7.6,29.7c13.6,0.5,24-7.2,24.9-20c1-13.9-8-24.6-19.4-26.6
	S72.6,90,69,99.2C78.9,95.3,90.6,95.7,97.2,105.4L97.2,105.4z M86.1,150.6c7.1-3.2,9.8-7.4,9.8-13.7c-7.4,4.5-23.1,7.1-32.7,5.3
	C67.4,150.6,77.5,154.3,86.1,150.6z M131.1,130.1c-0.9-9.2-7.5-16-13.1-16.3c4.7,13.6,1.5,24.5-7.9,33.6c3.4,2.4,9.7,1.5,14.2-1.4
	C129.2,142.9,131.7,136.6,131.1,130.1z M66,153.6c-10.2-2.7-21.6-13.4-24.8-27.1c-4.4,11.1-3,23.3,7.1,34.3
	c10,10.9,33.5,13.4,48.8-0.1c7.4-6.5,12.8-15.7,10.9-24.9C96.4,155.4,78.4,157.1,66,153.6z M15.3,139.6c3.7,2.2,8.3,2.2,12.1,0
	c3.4-1.9,5.8-5.8,6.1-8.7C27.3,127.9,18.1,132.8,15.3,139.6L15.3,139.6z M24.6,128.3c2.5-0.8,5.1-0.9,7.6-0.2
	c1.5-4.8-0.8-11.4-3.2-14.4C24,117.5,23.1,124.9,24.6,128.3L24.6,128.3z M22,129.5c-0.8-2.4-1.2-4.9-1-7.4c-2.4-1-7.7-1.8-12,0.4
	s-5.5,5.2-5,8.8c0.6,4.1,5.2,7.4,9.2,6.5C15.3,134.2,18.3,131.3,22,129.5z M21.5,119c1-1.4,2.1-3.1,3-4.1c-0.3-2.4-1.8-4.6-3.9-5.7
	c-3.6-1.8-8.3-0.3-10.9,3c-1.9,2.1-2.5,5-1.5,7.7C11.9,117.9,17.9,117.8,21.5,119z"/>
<path class="st0" d="M103.7,174.8c-3.1-2.7-5-6.6-5.1-10.8c-0.1-4.6,1.8-9,5.1-12.2l2.1-2.1l-0.2-1l3.8-0.7c1.4-0.3,2.8-0.4,4.3-0.4
	c10.5-0.1,19.2,8,20,18.4l0.4,3.5l-3.4,0.8c-1.5,0.3-2.9,0.5-4.4,0.5l0,0c-4.5,0-8.9-1.5-12.3-4.3c-0.7,3.3-2.5,6.2-5,8.4l-2.6,2.3
	L103.7,174.8z M34.9,110.9l-0.2,0.1l-0.1-0.1l-1.8-0.3c-4.3-0.6-8.2-3-10.6-6.7c-2.4-3.7-3.1-8.2-2-12.4l0.9-3.4l3.5,0.4
	c4,0.5,7.6,2.5,10,5.7c1.3-1.5,3-2.7,4.8-3.4l3.3-1.3l1.7,3.1c1.6,2.8,1.9,6.2,0.9,9.2c-1.2,3.4-3.7,6.1-6.9,7.5l-1.4,0.7l-0.2,1.2
	L34.9,110.9z"/>
<path class="st0" d="M110.3,151.9c1.8,10.7,10.6,16.5,19.6,14.5c-0.7-8.9-8.4-15.5-17.3-14.8C111.8,151.6,111.1,151.8,110.3,151.9z
	 M106.4,171.8c4.8-4,5.4-11.2,1.4-16c-0.4-0.4-0.7-0.8-1.1-1.2C101.2,160.1,101.5,167.5,106.4,171.8L106.4,171.8z M24,92.5
	c-1.7,6,1.9,12.2,7.9,13.9c0.5,0.1,1,0.2,1.6,0.3C34.9,99.2,30.4,93.3,24,92.5z M36.5,105.7c4.9-2.3,6.4-7.3,4.2-11.3
	c-4.1,1.5-6.2,6.2-4.7,10.3C36.2,105.1,36.4,105.4,36.5,105.7z"/>
<path class="st1" d="M858.8,168.3c-10.1,0.1-19.9-3.5-27.6-10.1c-3.9-3.4-7.2-7.5-9.6-12.1c-1.8,0.8-3.8,1.3-5.8,1.2l0,0
	c-4-0.1-7.9-1.2-11.2-3.4c-6.1-4-9.4-11.5-8.6-19.7c1-10.3,8.6-19.3,16.7-19.9c1.3-12.8,10.1-23.1,22.6-25.3
	c2.3-0.4,4.6-0.6,6.9-0.6c9.9,0,17.8,3.9,22,10.5l4.1,0.1c9.4,0.2,16.8,4.4,20.7,11.9c2.2,4.5,3.3,9.5,3,14.5l1.6,4
	c0.4,1,0.8,2,1.1,3l0.2-0.1c-1.1-5.8,1.2-12.8,4.3-16.7l2.4-2.9l2.5,1.9c1.1-1.9,2.7-3.5,4.7-4.5c1.6-0.8,3.3-1.2,5.1-1.1
	c4.2,0.1,8.1,2,10.7,5.2c2.6,3,3.5,7.2,2.3,11.1c3.3,2.6,4.8,6.8,4.1,10.9c-1,5.4-5.5,9.5-11,10l-2.2,1.3c-2.4,1.4-5.2,2.2-8,2.2
	l0,0c-2.8,0-5.6-0.8-8.1-2.2c-2.2-1.3-4.1-3.1-5.5-5.3c0.2,9.1-3.4,17.9-10.6,25.7C879.5,164.4,869.5,168.3,858.8,168.3z M871,139.2
	c-0.6,1-1.3,2.1-2,3c1.7-0.9,3.3-2,4.8-3.2c-0.9,0.1-1.8,0.2-2.7,0.2L871,139.2z M828.6,131.6c0.9,1.3,1.9,2.5,2.9,3.6
	c-0.2-0.9-0.3-1.8-0.3-2.8C830.3,132.2,829.4,131.9,828.6,131.6L828.6,131.6z M851.5,132.6c2.1,0.4,4.2,0.6,6.4,0.7l-1.2-1.5
	c-0.6,0-1.3,0.1-2,0.1l0,0c-1.6,0-3.2-0.1-4.8-0.4L851.5,132.6z M814.8,119c-0.2,5,1.1,9.9,3.8,14c0-1.2,0.2-2.4,0.5-3.6l0.7-3.3
	C817.7,124,816,121.6,814.8,119z"/>
<path class="st6" d="M835.7,107.8c-1.4,8.5,3.7,16.7,12,19c9,2.8,18.7,0.3,20.7-8.8c-8.7-1.3-18.5-12.6-16.7-20.1
	C842.2,96.5,836.9,100.8,835.7,107.8z M866.2,112.8c2.5-1.4,4.2-5.4,1.6-10.4c-2.1-4-9.2-4.8-12.1-1.1
	C855.9,105.2,860.7,111.2,866.2,112.8L866.2,112.8z M861,130.8c4.2,5.5,16.6,6.9,22.9-2.5c7.5-11.3,5.8-34.9-15.9-35.3
	C878,98.7,878.2,126.1,861,130.8z M841.3,129.6c-11.9-9.4-12.8-22-7.6-29.7c6.6-9.7,18.4-10.1,28.2-6.2
	c-3.6-9.2-14.7-12.8-26.1-10.7s-20.4,12.7-19.4,26.6C817.3,122.4,827.8,130.1,841.3,129.6L841.3,129.6z M844.9,145.1
	c8.7,3.7,18.7,0,22.9-8.4c-9.5,1.9-25.3-0.8-32.7-5.3C835.1,137.7,837.8,141.8,844.9,145.1L844.9,145.1z M813,108.3
	c-5.6,0.3-12.2,7.1-13.1,16.3c-0.6,6.5,1.9,12.7,6.8,15.9c4.5,2.9,10.8,3.8,14.2,1.4C811.5,132.8,808.2,121.9,813,108.3z M865,148
	c-12.5,3.5-30.4,1.8-42.1-17.8c-2,9.2,3.5,18.5,10.9,24.9c15.3,13.4,38.8,10.9,48.8,0.1c10.2-11,11.6-23.2,7.1-34.3
	C886.6,134.7,875.2,145.3,865,148z M897.6,125.3c0.3,2.9,2.7,6.8,6.1,8.7c3.7,2.2,8.3,2.2,12.1,0
	C912.9,127.3,903.7,122.3,897.6,125.3L897.6,125.3z M906.4,122.8c1.5-3.4,0.6-10.9-4.4-14.6c-2.5,3-4.7,9.7-3.2,14.4
	C901.3,121.9,904,122,906.4,122.8L906.4,122.8z M921.9,116.8c-4.2-2.2-9.5-1.4-12-0.4c0.1,2.5-0.2,5.1-1,7.4
	c3.6,1.8,6.7,4.7,8.7,8.2c3.9,0.9,8.5-2.4,9.2-6.6C927.4,122,926.1,119,921.9,116.8L921.9,116.8z M922.8,114.3
	c1-2.6,0.4-5.6-1.5-7.7c-2.6-3.2-7.3-4.8-10.9-3c-2.2,1.1-3.7,3.2-3.9,5.7c0.8,1,2,2.7,3,4.1C913,112.2,919.1,112.3,922.8,114.3
	L922.8,114.3z"/>
<path class="st1" d="M822,169.2c-2.5-2.2-4.3-5.2-5-8.4c-3.5,2.9-7.8,4.4-12.3,4.4l0,0c-1.5,0-3-0.2-4.4-0.5l-3.4-0.8l0.3-3.5
	c0.8-10.4,9.5-18.4,20-18.4c1.4,0,2.9,0.1,4.3,0.4l3.8,0.7l-0.2,1l2.1,2.1c3.3,3.2,5.2,7.6,5.2,12.2c-0.1,4.1-2,8-5.1,10.8l-2.6,2.3
	L822,169.2z M894.1,104.4l-1.3-0.6c-3.2-1.4-5.8-4.2-6.9-7.5c-1-3.1-0.7-6.4,0.9-9.2l1.7-3.1l3.3,1.3c1.9,0.7,3.5,1.9,4.8,3.4
	c2.4-3.2,6-5.2,10-5.7l3.5-0.4l0.9,3.4c1.1,4.2,0.4,8.7-2,12.4c-2.5,3.7-6.4,6.1-10.7,6.7l-1.8,0.3l-0.1,0.1l-0.2-0.1l-1.8,0.3
	L894.1,104.4z"/>
<path class="st7" d="M801.1,160.9c9,2,17.8-3.7,19.6-14.5c-8.7-1.9-17.3,3.5-19.2,12.2C801.3,159.3,801.2,160.1,801.1,160.9z
	 M824.6,166.3c4.9-4.3,5.2-11.8-0.2-17.2c-4.7,4.2-5.1,11.4-0.9,16.1C823.8,165.5,824.2,165.9,824.6,166.3z M906.9,86.9
	c-6.4,0.8-10.8,6.7-9.4,14.2c6.2-0.8,10.5-6.4,9.8-12.6C907.2,88,907.1,87.4,906.9,86.9z M890.2,88.9c-2.2,4-0.6,9,4.2,11.3
	c2.1-3.9,0.6-8.7-3.3-10.8C890.8,89.2,890.5,89,890.2,88.9L890.2,88.9z"/>
<path class="st1" d="M72.2,168.3c-10.7,0-20.7-3.9-26.7-10.4c-7.2-7.8-10.7-16.6-10.6-25.7c-1.4,2.2-3.3,4-5.6,5.3
	c-2.4,1.4-5.2,2.2-8.1,2.2l0,0c-2.8,0-5.6-0.8-8-2.2l-2.2-1.3c-5.5-0.5-10-4.6-10.9-10c-0.7-4.1,0.8-8.3,4.1-10.9
	c-1.2-3.9-0.4-8.1,2.3-11.1C9.1,101,13,99.1,17.2,99c1.8,0,3.6,0.4,5.2,1.2c1.9,1,3.5,2.5,4.6,4.4l2.5-1.9l2.5,2.9
	c3.2,3.8,5.5,10.9,4.3,16.7l0.2,0.1c0.3-1,0.7-2,1.1-3l1.6-4c-0.3-5,0.8-10,3-14.5c3.9-7.5,11.2-11.8,20.7-12l4.1-0.1
	c4.1-6.7,12.1-10.5,22-10.5c2.3,0,4.6,0.2,6.9,0.6c12.4,2.2,21.3,12.5,22.6,25.3c8.1,0.6,15.7,9.6,16.7,19.9
	c0.8,8.2-2.5,15.7-8.6,19.7c-3.4,2.2-7.3,3.4-11.2,3.4l0,0c-2,0-4-0.4-5.8-1.2c-2.4,4.6-5.6,8.7-9.6,12.1
	C92.2,164.8,82.3,168.4,72.2,168.3z M57.2,139c1.5,1.2,3.1,2.3,4.8,3.2c-0.7-1-1.4-2-2-3.1h-0.2C59,139.2,58.1,139.1,57.2,139z
	 M99.8,132.4c0,0.9-0.1,1.8-0.3,2.8c1-1.1,2-2.3,2.9-3.6C101.6,131.9,100.7,132.2,99.8,132.4L99.8,132.4z M73.2,133.2
	c2.1-0.1,4.3-0.4,6.4-0.7l1.5-1.2c-1.6,0.3-3.2,0.4-4.8,0.4l0,0c-0.7,0-1.3,0-2-0.1L73.2,133.2z M111.9,129.4
	c0.3,1.2,0.4,2.4,0.4,3.6c2.7-4.1,4.1-9,3.8-14c-1.2,2.6-2.9,5-5,7L111.9,129.4z"/>
<path class="st8" d="M62.5,118c2,9.1,11.6,11.6,20.7,8.8c8.3-2.3,13.4-10.5,12-19c-1.2-6.9-6.4-11.3-16-9.9
	C81.1,105.3,71.2,116.7,62.5,118z M64.8,112.8c5.4-1.5,10.3-7.5,10.5-11.5c-2.8-3.8-10-2.9-12.1,1.1
	C60.6,107.3,62.3,111.3,64.8,112.8L64.8,112.8z M70,130.8c-17.2-4.7-17-32.1-7.1-37.8c-21.6,0.4-23.3,24-15.8,35.3
	C53.4,137.7,65.8,136.4,70,130.8z M97.2,99.8c5.2,7.7,4.4,20.3-7.6,29.7c13.6,0.5,24-7.2,24.9-20c1-13.9-8-24.6-19.4-26.6
	S72.6,84.4,69,93.6C78.9,89.8,90.6,90.2,97.2,99.8L97.2,99.8z M86.1,145c7.1-3.3,9.8-7.4,9.8-13.7c-7.4,4.5-23.1,7.1-32.7,5.3
	C67.4,145.1,77.5,148.8,86.1,145L86.1,145z M131.1,124.6c-0.9-9.2-7.5-16-13.1-16.3c4.7,13.6,1.5,24.5-7.9,33.6
	c3.4,2.4,9.7,1.5,14.2-1.4C129.2,137.3,131.7,131.1,131.1,124.6L131.1,124.6z M66,148c-10.2-2.7-21.6-13.4-24.8-27.1
	c-4.4,11.1-3,23.3,7.1,34.3c10,10.9,33.5,13.4,48.8-0.1c7.4-6.5,12.8-15.7,10.9-24.9C96.4,149.8,78.4,151.5,66,148z M15.3,134
	c3.7,2.2,8.3,2.2,12.1,0c3.4-2,5.8-5.8,6.1-8.7C27.3,122.3,18.1,127.3,15.3,134L15.3,134z M24.6,122.7c2.5-0.8,5.1-0.9,7.6-0.2
	c1.5-4.8-0.8-11.4-3.2-14.4C24,111.9,23.1,119.4,24.6,122.7L24.6,122.7z M22,124c-0.8-2.4-1.2-4.9-1-7.4c-2.4-1-7.7-1.8-12,0.4
	s-5.5,5.2-5,8.8c0.6,4.2,5.2,7.4,9.2,6.5C15.3,128.7,18.3,125.8,22,124z M21.5,113.5c1-1.4,2.1-3.1,3-4.1c-0.3-2.4-1.8-4.6-3.9-5.7
	c-3.6-1.8-8.3-0.3-10.9,3c-1.9,2.1-2.5,5-1.5,7.7C11.9,112.3,17.9,112.2,21.5,113.5L21.5,113.5z"/>
<path class="st1" d="M103.7,169.2c-3.1-2.7-4.9-6.6-5.1-10.8c-0.1-4.6,1.8-9,5.1-12.2l2.1-2.1l-0.2-1l3.8-0.7
	c1.4-0.3,2.8-0.4,4.3-0.4c10.5-0.1,19.2,8,20,18.4l0.4,3.5l-3.4,0.8c-1.5,0.3-2.9,0.5-4.4,0.5l0,0c-4.5,0-8.8-1.5-12.3-4.4
	c-0.7,3.3-2.5,6.2-5,8.4l-2.6,2.3L103.7,169.2z M34.9,105.3l-0.2,0.1l-0.1-0.1l-1.8-0.3c-8.3-1.1-14.2-8.8-13-17.1
	c0.1-0.7,0.2-1.3,0.4-1.9l0.9-3.4l3.5,0.4c4,0.5,7.6,2.5,10,5.7c1.3-1.5,3-2.7,4.8-3.4l3.3-1.3l1.6,3.1c1.6,2.8,1.9,6.2,0.9,9.2
	c-1.2,3.4-3.7,6.1-6.9,7.5l-1.3,0.6l-0.2,1.2L34.9,105.3z"/>
<path class="st7" d="M110.3,146.4c1.8,10.7,10.6,16.5,19.6,14.5C128.9,151.6,120.9,144.4,110.3,146.4z M106.4,166.3
	c4.8-4,5.4-11.2,1.4-16c-0.4-0.4-0.7-0.8-1.1-1.2C101.2,154.5,101.5,161.9,106.4,166.3z M24,86.9c-1.7,6,1.8,12.2,7.8,13.9
	c0.5,0.1,1.1,0.3,1.6,0.3C34.9,93.6,30.4,87.7,24,86.9z M36.5,100.2c4.9-2.3,6.5-7.3,4.2-11.3c-4.1,1.5-6.2,6.2-4.7,10.3
	C36.2,99.5,36.4,99.9,36.5,100.2z"/>
<path class="st2" d="M381.5,202.5c-5-0.1-9-4.3-8.9-9.3c0.1-2.7,1.3-5.2,3.5-6.9c-0.7-0.3-1.4-0.8-2-1.3c-1.8-1.6-3-3.8-3.1-6.2
	c-0.2-2.1,0.4-4.2,1.6-5.9c0.7-1,1.6-1.8,2.6-2.5l-0.3-3.8c-0.4-4.6,1.7-10.1,8.5-11.6c1.6-2.2,4.1-3.6,6.8-3.8
	c1.3-0.1,2.5,0,3.8,0.4c1.1-0.6,2.4-0.9,3.6-1c2.7-0.3,5.4,0.7,7.3,2.6c7.1,0.3,10.1,5.4,10.5,10.1l0.3,3.8c4.6,2,6.8,7.3,4.8,12
	c-0.7,1.6-1.8,2.9-3.1,3.9c2.7,1.5,4.5,4.2,4.7,7.3c0.4,5-3.3,9.3-8.2,9.7c0,0,0,0,0,0l-31.4,2.6L381.5,202.5z"/>
<path class="st2" d="M436.6,199c-1.2,0-2.4-0.2-3.5-0.7c-3.2,1.1-6.7,0.4-9.3-1.8c-1.9-1.7-3-4.1-3-6.7c0-1.7,0.4-3.3,1.2-4.8
	l0.2-0.4c1.3-2.3,2.3-4.8,3-7.3l-0.1-0.1c-0.5-0.5-1-0.9-1.5-1.3c-2.4-1.7-3.9-4.5-4-7.4c0-2.5,1-4.9,2.8-6.7
	c-1.5-4.9,1.3-10.1,6.2-11.5c2.7-0.8,5.7-0.4,8,1.3l0.4,0.3c3.2-2.1,7.3-2.2,10.5-0.1c1-0.3,2-0.5,3-0.5c1,0,2.1,0.1,3.1,0.4
	c1.6-1.1,3.5-1.8,5.4-1.8c2.5-0.1,4.9,0.9,6.6,2.6c1.7,1.7,2.7,4,2.7,6.4l0.5,30.7c0.1,5-3.9,9.1-8.9,9.2c-0.1,0-0.1,0-0.2,0
	c-2.1,0-4.1-0.6-5.8-1.9c-0.9,0.3-1.8,0.4-2.8,0.5c-2.5,0-4.9-0.9-6.6-2.6l-0.7,0.9c-1.8,2.1-4.3,3.3-7,3.3L436.6,199z M441.9,193.8
	L441.9,193.8z M466.2,189.6L466.2,189.6z M435.9,159.5L435.9,159.5z"/>
<path class="st2" d="M481.8,196.3h-0.3c-5.2-0.1-9.4-4.4-9.3-9.7c0-0.1,0-0.3,0-0.4l0.8-21.8c0.3-7.8,5.3-12.5,13-12.2l5.3,0.2l0,0
	c10.3,0.4,16.7,6.8,16.4,16.3c-0.3,8.8-6.8,14.8-16,15.1l-0.1,3C491.4,192.2,487.1,196.4,481.8,196.3z"/>
<path class="st2" d="M513,197.8h-0.6c-5.3-0.3-9.3-4.9-9-10.2c0-0.1,0-0.1,0-0.2l1.7-24.7l0,0c0.2-5.2,4.7-9.3,9.9-9
	c0.2,0,0.3,0,0.5,0c5.3,0.3,9.3,4.8,9,10.1c0,0.1,0,0.2,0,0.2l-1.7,24.7C522.5,193.9,518.2,197.9,513,197.8z"/>
<path class="st2" d="M536.8,200c-0.3,0-0.7,0-1-0.1c-5.3-0.5-9.1-5.2-8.6-10.4c0-0.1,0-0.2,0-0.3l1.7-15.4
	c-4.9-0.8-8.3-5.3-7.7-10.2c0.3-2.7,1.7-5.2,4-6.7c1.9-1.3,4.2-1.8,6.4-1.5l17.7,1.9c5.1,0.4,8.9,4.8,8.5,9.9c0,0.1,0,0.3,0,0.4
	c-0.5,4.8-4.6,8.4-9.4,8.4h-0.2l-1.7,15.4C546,196.3,541.8,200.1,536.8,200L536.8,200z M530.8,189.6L530.8,189.6z M531.3,158.2
	L531.3,158.2z"/>
<path class="st1" d="M381.6,198.2c-2.7,0-4.8-2.2-4.7-4.9c0-2.5,1.9-4.5,4.4-4.7l1.5-0.1c-0.5-0.8-0.7-1.8-0.8-2.7l-0.2-2.2
	c0-0.3,0-0.6,0-0.9l-1.4,0.1l0,0c-1.4,0.1-2.8-0.4-3.8-1.4c-1.6-1.7-1.8-4.3-0.5-6.2c0.8-1.2,2.1-1.9,3.5-2h0.3
	c-0.1-0.5-0.2-1-0.3-1.5c0,0,0-0.1,0-0.1l-0.4-5.4c-0.2-2,0.2-6.8,7-7.4h0.1c0.6-1.9,2.3-3.3,4.3-3.4c1.1-0.1,2.2,0.2,3.2,0.8
	c0.2,0.1,0.4,0.3,0.6,0.5c0.9-1.1,2.1-1.8,3.5-1.9c2-0.2,4,0.8,4.9,2.7h0.2l0,0c6.8-0.6,8,4.1,8.1,6.1l0.4,5.4
	c0.1,0.5,0.1,1.1,0,1.6h0.3c2.6-0.2,5,1.8,5.2,4.4c0.2,2.6-1.8,5-4.4,5.2l-1.2,0.1c0.1,0.3,0.1,0.6,0.1,0.9l0.2,2.2
	c0.1,1,0,1.9-0.4,2.8l1.3-0.1c1.3-0.1,2.5,0.3,3.5,1.1c2,1.7,2.3,4.8,0.6,6.8c-0.8,1-2,1.6-3.2,1.6l-31.5,2.5
	C381.9,198.2,381.7,198.2,381.6,198.2z"/>
<path class="st1" d="M436.7,194.8c-1.2,0-2.4-0.5-3.4-1.4c-0.9,0.8-2,1.2-3.2,1.2c-2.7,0.1-4.9-2.1-5-4.8c0,0,0,0,0-0.1
	c0-0.9,0.3-1.9,0.7-2.7l0.1-0.2c1.5-2.8,2.7-5.7,3.5-8.8c0.2-0.7,0.5-1.4,1-2c-0.8-0.3-1.5-0.8-2.1-1.5c-0.7-0.7-1.4-1.4-2.2-2
	c-1.3-0.9-2.1-2.4-2.2-4c0-2.7,2.2-4.9,4.9-4.9h0.1c-0.2-0.2-0.4-0.3-0.5-0.5l-0.2-0.1c-1.1-0.9-1.8-2.3-1.9-3.8c0-2.8,2.2-5,5-5
	c1.1,0,2.1,0.3,3,0.9c1.2,0.8,2.3,1.8,3.3,2.9c0.7-2,2.6-3.4,4.7-3.4c1.4,0,2.7,0.5,3.6,1.4c0.4,0.4,0.7,0.8,1,1.3
	c1.9-2.1,5.1-2.3,7.1-0.4c0.2,0.1,0.3,0.3,0.5,0.5c0.8-1.9,2.6-3.1,4.6-3.1c1.3,0,2.6,0.5,3.6,1.4c0.9,0.9,1.4,2.1,1.5,3.4l0.5,30.7
	c0,2.7-2.1,4.9-4.8,4.9c0,0-0.1,0-0.1,0c-1.2,0-2.3-0.4-3.2-1.1c-0.7-0.5-1.2-1.3-1.5-2.1c-0.9,1.1-2.3,1.8-3.8,1.8
	c-1.2,0-2.4-0.4-3.4-1.2c-1.1-0.9-1.7-2.3-1.8-3.7l-0.1-5.1c-1.1,3.6-2.9,6.8-5.4,9.6c-1,1.2-2.4,1.9-3.9,1.9L436.7,194.8z
	 M438.7,191L438.7,191z M431.1,169.4c-0.2,0.1-0.4,0.3-0.5,0.4c-0.2,0.2-0.3,0.4-0.4,0.7C430.6,170.2,430.9,169.9,431.1,169.4
	L431.1,169.4z M433.5,160.1c-0.5,0.2-0.9,0.6-1.1,1.1C432.9,161,433.3,160.6,433.5,160.1L433.5,160.1z M453.1,160.3L453.1,160.3z"/>
<path class="st1" d="M481.8,192.1h-0.2c-2.9,0-5.3-2.4-5.2-5.3c0-0.1,0-0.2,0-0.4l0.8-21.8c0.2-5.4,3.3-8.3,8.6-8.1l5.3,0.2l0,0
	c4,0.1,7.1,1.3,9.2,3.3c1.5,1.4,3.3,4.1,3.1,8.6c-0.1,3.2-1.5,6.3-4,8.4c-2.7,2-6,3-9.4,2.7l-2.5-0.1l-0.3,7.2
	c0,1.5-0.6,2.8-1.7,3.9C484.6,191.6,483.2,192.1,481.8,192.1z M490.4,169.7c2,0.1,2-0.8,2.1-1.5c0-1.1,0-1.4-1.7-1.4l-2.7-0.1
	l-0.1,2.9L490.4,169.7z"/>
<path class="st1" d="M513.1,193.6h-0.4c-2.9-0.1-5.2-2.6-5.1-5.5c0-0.1,0-0.2,0-0.4l1.7-24.7l0,0c0.1-2.9,2.5-5.2,5.4-5.1
	c0.1,0,0.2,0,0.4,0c3,0.2,5.2,2.7,5.1,5.6c0,0.1,0,0.1,0,0.2l-1.7,24.7C518.4,191.4,516,193.7,513.1,193.6z"/>
<path class="st1" d="M536.8,195.7c-0.2,0-0.4,0-0.6,0c-2.9-0.2-5.1-2.8-4.9-5.7c0-0.1,0-0.2,0-0.3l2.1-19.6l-3.5-0.4
	c-1.3-0.1-2.5-0.7-3.4-1.7c-1.9-2.1-1.6-5.4,0.5-7.2c1.1-1,2.6-1.4,4-1.2l17.7,1.9c2.8,0.2,4.9,2.7,4.6,5.5
	c-0.2,2.8-2.7,4.9-5.5,4.6c-0.1,0-0.2,0-0.2,0l-3.4-0.4l-2.1,19.6l0,0c-0.1,1.5-0.9,2.8-2,3.7C539.3,195.4,538,195.7,536.8,195.7z
	 M538.6,190.4L538.6,190.4z"/>
<path class="st4" d="M400.3,167.7c-0.1,0-0.2,0.1-0.3,0.1c-0.1,0.1-0.1,0.2-0.1,0.3l0.2,2.7c0,0.2,0.2,0.4,0.4,0.4l0,0l3.1-0.2h0.1
	c1-0.1,2.1-0.2,2-1.9l-0.1-1.5c0-0.1-0.1-0.2-0.1-0.3c-0.1-0.1-0.2-0.1-0.3-0.1L400.3,167.7z M403.6,170.2L403.6,170.2l-2.7,0.2
	l-0.1-1.8l4-0.3l0.1,1C404.9,170,404.7,170.1,403.6,170.2z"/>
<path class="st4" d="M392.9,168.3c-0.2,0-0.4,0.2-0.4,0.5l0.2,2.7c0,0.1,0.1,0.2,0.1,0.3c0.1,0.1,0.2,0.1,0.3,0.1l0,0l4.9-0.4
	c0.1,0,0.2-0.1,0.3-0.2c0.1-0.1,0.1-0.2,0.1-0.3l-0.2-2.7c0-0.1-0.1-0.2-0.1-0.3c-0.1-0.1-0.2-0.1-0.3-0.1L392.9,168.3z M393.6,171
	l-0.2-1.8l4-0.3l0.1,1.8L393.6,171z"/>
<path class="st4" d="M400.1,166.5L400.1,166.5l4.9-0.4c0.1,0,0.2-0.1,0.3-0.1c0.1-0.1,0.1-0.2,0.1-0.3l-0.1-1.3
	c-0.1-1.4-1-1.6-2.4-1.5l-3.1,0.2c-0.1,0-0.2,0.1-0.3,0.2c-0.1,0.1-0.1,0.2-0.1,0.3l0.2,2.6C399.7,166.4,399.9,166.6,400.1,166.5z
	 M403,163.7c1.4-0.1,1.4,0.1,1.4,0.7l0.1,0.9l-4,0.3l-0.1-1.7L403,163.7z"/>
<path class="st4" d="M414.1,189.6c-0.3-0.3-0.7-0.4-1.1-0.3l-9.4,0.8c0.3-0.6,0.6-1.2,0.8-1.8c0.1-0.3,0.2-0.6,0.1-0.9
	c0-0.2-0.1-0.4-0.1-0.6h0.4c1.1,0,2.1-0.3,2.9-0.9c0.6-0.6,0.9-1.4,0.8-2.3l-0.2-2.2c-0.2-2-1.4-2.8-4.2-2.6l-15.5,1.3
	c-1,0-2.1,0.3-2.9,0.9c-0.6,0.6-0.9,1.4-0.8,2.3l0.2,2.2c0.2,2,1.4,2.8,4.1,2.6h0.3c-0.1,0.2-0.1,0.4-0.1,0.6
	c0.1,0.4,0.2,0.8,0.5,1.1c0.4,0.4,0.7,0.8,1.1,1.3l-9.6,0.8c-0.9,0.1-1.5,0.9-1.4,1.7c0.1,0.8,0.7,1.4,1.5,1.4h0.2l31.4-2.6
	c0.4,0,0.8-0.2,1.1-0.6c0.2-0.3,0.3-0.7,0.3-1.1C414.6,190.3,414.4,189.9,414.1,189.6z M413.6,191.3c-0.1,0.2-0.3,0.2-0.5,0.2
	l-31.4,2.6c-0.4,0-0.7-0.4-0.7-0.8c0-0.3,0.2-0.6,0.6-0.7l10.4-0.9c0.2,0,0.4-0.2,0.4-0.5c0-0.1-0.1-0.2-0.1-0.3l-0.2-0.2
	c-0.4-0.6-0.9-1.2-1.4-1.8c-0.2-0.1-0.3-0.3-0.3-0.6c0-0.3,0.2-0.6,0.5-0.7c0.2-0.1,0.3-0.3,0.3-0.5c0-0.2-0.2-0.3-0.4-0.3l0,0
	l-1.4,0.1c-2.5,0.2-3.1-0.4-3.2-1.8l-0.2-2.2c-0.1-0.6,0-1.1,0.4-1.6c0.7-0.5,1.6-0.7,2.4-0.7l15.5-1.3c2.6-0.2,3.1,0.5,3.2,1.8
	l0.2,2.2c0.1,0.6-0.1,1.1-0.5,1.6c-0.7,0.5-1.6,0.7-2.5,0.7l-1.4,0.1c-0.2,0-0.4,0.2-0.4,0.4c0,0.2,0.1,0.4,0.3,0.5
	c0.3,0.1,0.4,0.3,0.5,0.6c0,0.2,0,0.3-0.1,0.5c-0.3,0.8-0.7,1.6-1.2,2.4c-0.1,0.1-0.1,0.3,0,0.5c0.1,0.1,0.2,0.2,0.4,0.2l10.2-0.8
	c0.2,0,0.3,0,0.5,0.1c0.1,0.1,0.2,0.3,0.2,0.5C413.8,191,413.7,191.2,413.6,191.3L413.6,191.3z"/>
<path class="st4" d="M404.1,184.4v0.4c0.7-0.1,1.8-0.1,1.7-1.5l-0.1-1.2c-0.1-1.1-0.8-1.3-1.9-1.2l-14.5,1.2c-0.5,0-0.9,0.1-1.3,0.4
	c-0.3,0.3-0.4,0.7-0.4,1.1l0.1,1.2c0.1,1,0.7,1.2,1.4,1.2h0.5l14.6-1.2L404.1,184.4z M389.5,185.1c-0.9,0.1-0.9,0-0.9-0.4l-0.1-1.2
	c0-0.3,0-0.3,0-0.3c0.2-0.1,0.5-0.2,0.8-0.2l14.5-1.2h0.5c0.4,0,0.5,0.1,0.5,0.4l0.1,1.2c0,0.4,0,0.4-0.9,0.5L389.5,185.1z"/>
<path class="st4" d="M392.5,167c0.1,0.1,0.2,0.1,0.3,0.1l0,0l4.9-0.4c0.2,0,0.4-0.2,0.4-0.5l-0.2-2.6c0-0.1-0.1-0.2-0.2-0.3
	c-0.1-0.1-0.2-0.1-0.3-0.1l-4.9,0.4c-0.2,0-0.4,0.2-0.4,0.5l0.2,2.6C392.3,166.8,392.4,166.9,392.5,167z M397,164.1l0.1,1.7l-4,0.3
	l-0.1-1.7L397,164.1z"/>
<path class="st4" d="M402.4,186.4c-0.1-0.2-0.2-0.3-0.5-0.3l-10.4,0.9c-0.2,0-0.4,0.2-0.4,0.4c0,0.2,0.1,0.4,0.3,0.5
	c0.2,0.1,0.4,0.2,0.5,0.3c0.6,0.6,1.1,1.1,1.6,1.8c0.1,0.2,0.2,0.4,0.2,0.6c0,0.2,0,0.3-0.1,0.5c-0.1,0.1-0.1,0.3,0,0.5
	c0.1,0.2,0.2,0.2,0.4,0.2l0,0l5.9-0.5c0.1,0,0.3-0.1,0.4-0.2c0.6-1.1,1.1-2.3,1.6-3.5c0.1-0.2,0.3-0.4,0.5-0.6
	C402.4,186.9,402.5,186.6,402.4,186.4z M401,187.2c-0.4,1.1-0.9,2.1-1.4,3.1l-4.9,0.4c0-0.1,0-0.2,0-0.3c0-0.4-0.2-0.7-0.4-1
	c-0.4-0.6-0.9-1.1-1.4-1.6L401,187.2C401,187.2,401,187.2,401,187.2L401,187.2z"/>
<path class="st4" d="M413.7,175.2c0-0.8-0.7-1.5-1.6-1.5c0,0-0.1,0-0.1,0l-32.3,2.6c-0.4,0-0.8,0.3-1.1,0.6
	c-0.2,0.3-0.3,0.7-0.3,1.1c0,0.4,0.2,0.8,0.5,1.1c0.3,0.2,0.6,0.3,0.9,0.3h0.1l32.3-2.6c0.8-0.1,1.5-0.8,1.4-1.6
	C413.8,175.3,413.7,175.3,413.7,175.2z M380,178.7c-0.2,0-0.3,0-0.5-0.1c-0.1-0.1-0.2-0.3-0.2-0.5c0-0.2,0-0.4,0.1-0.5
	c0.1-0.1,0.3-0.2,0.5-0.2l32.3-2.6h0.1c0.5,0,0.6,0.6,0.6,0.7c0.1,0.3-0.2,0.7-0.5,0.8c0,0,0,0-0.1,0L380,178.7z"/>
<path class="st4" d="M382.8,171.3c0.3,2.7,1.9,3.2,3.7,3.2c0.3,0,0.7,0,1,0l16.9-1.4c3-0.2,4.3-1.5,4.1-3.9l-0.4-5.4
	c-0.2-2.5-1.6-3.5-4.7-3.2l-3.1,0.3l-0.1-1.5c-0.1-0.9-0.8-1.5-1.7-1.4c0,0-0.1,0-0.1,0c-0.9,0-1.6,0.7-1.6,1.6c0,0,0,0.1,0,0.1
	l0.1,1.5l-4,0.3l-0.1-1.5c-0.1-0.9-0.8-1.5-1.7-1.4c-0.1,0-0.1,0-0.1,0c-0.9,0-1.6,0.7-1.6,1.6c0,0,0,0.1,0,0.1l0.1,1.5l-3,0.2
	c-3,0.2-4.3,1.5-4.1,3.9L382.8,171.3z M386.5,162.9l3.4-0.3c0.1,0,0.2-0.1,0.3-0.1c0.1-0.1,0.1-0.2,0.1-0.3l-0.2-1.9
	c0-0.6,0.7-0.7,0.8-0.7h0.1c0.4-0.1,0.7,0.2,0.8,0.6c0,0,0,0,0,0l0.2,1.9c0,0.2,0.2,0.4,0.5,0.4l4.9-0.4c0.1,0,0.2-0.1,0.3-0.2
	c0.1-0.1,0.1-0.2,0.1-0.3l-0.2-1.9c0-0.6,0.7-0.7,0.8-0.7c0.2,0,0.8,0,0.9,0.6l0.2,2c0,0.2,0.2,0.4,0.5,0.4l3.6-0.3
	c2.9-0.2,3.6,0.7,3.7,2.4l0.5,5.4c0.1,1.7-0.4,2.8-3.3,3l-16.8,1.4c-2.3,0.1-3.5-0.2-3.7-2.4l-0.4-5.4
	C383.1,164.2,383.6,163.1,386.5,162.9L386.5,162.9z"/>
<path class="st4" d="M385.6,168.9c-0.2,0-0.4,0.2-0.4,0.5l0.1,1.4l0,0c0.1,1.2,0.7,1.5,1.8,1.5h0.6l2.9-0.2c0.1,0,0.2-0.1,0.3-0.1
	c0.1-0.1,0.1-0.2,0.1-0.3l-0.2-2.7c0-0.1-0.1-0.2-0.2-0.3c-0.1-0.1-0.2-0.1-0.3-0.1L385.6,168.9z M387.7,171.5
	c-1.4,0.1-1.4-0.1-1.5-0.7l-0.1-1l3.9-0.3l0.1,1.8L387.7,171.5z"/>
<path class="st4" d="M385.1,167.3c0,0.1,0.1,0.2,0.1,0.3c0.1,0.1,0.2,0.1,0.3,0.1l0,0l4.7-0.4c0.1,0,0.2-0.1,0.3-0.2
	c0.1-0.1,0.1-0.2,0.1-0.3l-0.2-2.6c0-0.2-0.2-0.4-0.5-0.4c0,0,0,0,0,0l-2.9,0.2c-0.6,0-1.2,0.1-1.7,0.5c-0.4,0.4-0.5,0.9-0.4,1.4
	L385.1,167.3z M386,165.3c0.4-0.2,0.8-0.3,1.2-0.3l2.5-0.2l0.1,1.7l-3.9,0.3l-0.1-0.9C385.8,165.5,385.9,165.3,386,165.3L386,165.3z
	"/>
<path class="st9" d="M436.7,191.6c-0.4,0-0.9-0.2-1.2-0.5c-0.3-0.3-0.5-0.8-0.5-1.2c0-0.6,0.2-1.1,0.6-1.5c3.7-4.2,5.3-9.7,5.2-17.7
	l-0.2-11.2l0,0c0-0.9,0.8-1.7,1.7-1.7c0,0,0,0,0.1,0c0.5,0,1,0.2,1.4,0.5c0.3,0.3,0.5,0.7,0.5,1.1l0.2,11.6
	c0.1,8.9-1.7,14.8-6.1,19.8C438,191.2,437.4,191.5,436.7,191.6L436.7,191.6z M441.5,159.4l0.2,11.2c0.1,8.2-1.5,13.9-5.4,18.3
	c-0.2,0.3-0.4,0.6-0.4,0.9c0,0.2,0.1,0.4,0.3,0.6c0.2,0.2,0.4,0.2,0.6,0.2c0.4,0,0.7-0.2,0.9-0.5c4.2-4.8,6-10.6,5.9-19.2l-0.2-11.6
	c0-0.2-0.1-0.4-0.2-0.5c-0.2-0.2-0.5-0.3-0.7-0.3C442.1,158.6,441.5,158.8,441.5,159.4L441.5,159.4z M430,191.4
	c-0.4,0-0.8-0.2-1.2-0.4c-0.4-0.3-0.6-0.8-0.5-1.2c0-0.4,0.1-0.8,0.3-1.1c1.7-3,3-6.3,3.9-9.7c0.2-0.8,0.9-1.5,1.8-1.5l0,0
	c1,0,1.7,0.8,1.8,1.7c0,0,0,0,0,0c0,0.2,0,0.4-0.1,0.6c-1,3.7-2.4,7.2-4.2,10.5C431.5,190.9,430.8,191.4,430,191.4L430,191.4z
	 M434.4,178.3c-0.5,0-0.9,0.4-1,0.9c-0.9,3.4-2.3,6.8-4,9.9c-0.1,0.2-0.2,0.4-0.2,0.7c0,0.2,0.1,0.4,0.3,0.6
	c0.2,0.1,0.4,0.2,0.6,0.2c0.4,0,0.8-0.3,1-0.6c1.8-3.3,3.1-6.7,4.1-10.3c0-0.1,0.1-0.3,0.1-0.4C435.3,178.7,434.9,178.3,434.4,178.3
	C434.4,178.3,434.4,178.3,434.4,178.3L434.4,178.3z M459.7,191.3c-0.5,0-0.9-0.2-1.3-0.5c-0.3-0.3-0.5-0.7-0.5-1.1l-0.5-30.7l0,0
	c0-0.5,0.2-1,0.6-1.3c0.3-0.3,0.8-0.4,1.2-0.4c0.5,0,1,0.2,1.3,0.5c0.3,0.3,0.5,0.7,0.5,1.2l0.5,30.7c0,0.9-0.7,1.7-1.6,1.7
	C459.8,191.4,459.8,191.4,459.7,191.3L459.7,191.3z M458.3,159l0.5,30.7c0,0.2,0.1,0.4,0.2,0.5c0.2,0.2,0.4,0.3,0.7,0.3
	c0.4,0,0.8-0.3,0.9-0.7c0,0,0-0.1,0-0.1l-0.5-30.6c0-0.2-0.1-0.4-0.2-0.5c-0.2-0.2-0.5-0.2-0.7-0.2c-0.2,0-0.5,0.1-0.6,0.2
	C458.4,158.6,458.3,158.8,458.3,159L458.3,159z M451.1,190c-0.9,0-1.7-0.7-1.7-1.6c0,0,0,0,0,0l-0.2-14.4c0,0.3-0.2,0.5-0.3,0.7
	c-0.3,0.4-0.8,0.7-1.4,0.7c-0.7,0-1.4-0.6-1.5-1.3c-0.3-1.3-0.7-2.6-1.3-3.8l-0.1-0.2c-0.1-0.2-0.1-0.4-0.1-0.6l0,0
	c0-0.8,0.7-1.5,1.5-1.5c0,0,0,0,0.1,0c0.7,0,1.3,0.4,1.5,1c0.7,1.4,1.2,2.8,1.5,4.4v0.1l-0.2-13l0,0c0-1,0.7-1.8,1.7-1.8
	c1,0,1.8,0.7,1.8,1.7l0.4,27.9C452.9,189.2,452.2,190,451.1,190C451.2,190,451.2,190,451.1,190L451.1,190z M449.9,160.4l0.4,27.9
	c0,0.4,0.3,0.8,0.7,0.8c0.1,0,0.1,0,0.2,0c0.4,0,0.8-0.3,0.9-0.7c0,0,0,0,0-0.1l-0.4-27.9c-0.1-0.5-0.5-0.8-1-0.8
	C450.2,159.7,449.9,160,449.9,160.4L449.9,160.4z M445.4,169.6c0,0.1,0,0.2,0.1,0.3l0,0.1c0.6,1.3,1,2.6,1.3,3.9
	c0.1,0.6,0.5,0.6,0.6,0.6c0.3,0,0.5-0.1,0.7-0.3c0.1-0.2,0.2-0.4,0.1-0.6c-0.3-1.5-0.8-2.9-1.5-4.2c-0.1-0.3-0.4-0.5-0.7-0.5
	C445.7,168.9,445.4,169.2,445.4,169.6C445.4,169.5,445.4,169.5,445.4,169.6L445.4,169.6z M437.1,176.4c-0.9,0-1.6-0.7-1.6-1.5
	c0,0,0,0,0,0c0-0.3,0.1-0.6,0.2-0.9c0.6-1.4,1.1-2.9,1.4-4.3c0.1-0.8,0.8-1.3,1.5-1.3l0,0c0.5,0,1,0.2,1.3,0.6
	c0.3,0.4,0.4,1,0.3,1.5c-0.4,1.7-0.9,3.3-1.6,4.9C438.5,175.9,437.8,176.3,437.1,176.4L437.1,176.4z M438.7,169.1L438.7,169.1
	c-0.4,0-0.7,0.3-0.7,0.6c-0.4,1.5-0.9,3.1-1.5,4.5c-0.1,0.2-0.1,0.3-0.1,0.5c0,0.4,0.3,0.7,0.7,0.7c0.4,0,0.7-0.3,0.8-0.6
	c0.6-1.5,1.2-3.1,1.5-4.7c0.1-0.2,0-0.5-0.1-0.7C439.1,169.2,438.9,169.1,438.7,169.1L438.7,169.1z M455.9,174.9
	c-0.7,0-1.3-0.5-1.5-1.2c-0.3-1.3-0.7-2.6-1.3-3.8l-0.1-0.1c-0.1-0.2-0.1-0.4-0.1-0.6l0,0c0-0.9,0.7-1.5,1.5-1.5c0,0,0,0,0,0
	c0.7,0,1.3,0.4,1.5,1c0.7,1.4,1.2,2.8,1.5,4.3c0.1,0.5,0,1-0.3,1.4C456.9,174.7,456.4,174.9,455.9,174.9L455.9,174.9z M453.8,169.1
	c0,0.1,0,0.2,0.1,0.3v0.1c0.6,1.3,1,2.6,1.3,3.9c0.1,0.4,0.3,0.6,0.7,0.6c0.3,0,0.5-0.1,0.6-0.3c0.1-0.2,0.2-0.4,0.1-0.6
	c-0.3-1.4-0.8-2.8-1.5-4.1c-0.1-0.3-0.4-0.5-0.7-0.5C454.1,168.4,453.7,168.7,453.8,169.1C453.7,169.1,453.7,169.1,453.8,169.1
	L453.8,169.1z M432.3,173.2c-0.6,0-1.1-0.3-1.4-0.7c-0.9-1-1.8-1.8-2.9-2.6c-0.5-0.3-0.8-0.9-0.9-1.5c0-0.9,0.8-1.7,1.8-1.7
	c0.4,0,0.8,0.1,1.2,0.3c1.2,0.8,2.3,1.7,3.3,2.7l0,0c0.4,0.4,0.6,0.9,0.6,1.4c0,0.5-0.2,0.9-0.5,1.3
	C433.2,172.9,432.8,173.1,432.3,173.2L432.3,173.2z M429,167.6L429,167.6c-0.5,0-0.8,0.3-0.9,0.8c0,0.3,0.2,0.6,0.5,0.8
	c1.1,0.8,2.1,1.7,3,2.7c0.2,0.3,0.5,0.4,0.8,0.4c0.2,0,0.5-0.1,0.6-0.3c0.2-0.2,0.3-0.4,0.3-0.7c0-0.3-0.2-0.6-0.4-0.9
	c-1-1-2.1-1.8-3.2-2.6C429.5,167.7,429.2,167.6,429,167.6z M434.5,163.9c-0.6,0-1.1-0.3-1.5-0.8c-0.8-1-1.7-1.8-2.7-2.6
	c-0.5-0.3-0.8-0.9-0.8-1.4c0-1,0.8-1.7,1.8-1.7c0.4,0,0.8,0.1,1.1,0.3c1.2,0.8,2.3,1.8,3.3,2.9l0,0c0.3,0.4,0.5,0.9,0.6,1.4
	c0,0.5-0.2,1-0.5,1.3C435.5,163.7,435,163.9,434.5,163.9L434.5,163.9z M431.4,158.2L431.4,158.2c-0.5,0-0.9,0.4-0.9,0.8
	c0,0.3,0.2,0.6,0.5,0.8c1,0.8,1.9,1.7,2.8,2.7c0.2,0.3,0.5,0.4,0.8,0.4c0.5,0,0.9-0.5,0.9-1c0-0.3-0.2-0.6-0.4-0.9
	c-0.9-1-2-1.9-3.1-2.8C431.8,158.3,431.6,158.2,431.4,158.2L431.4,158.2z"/>
<path class="st4" d="M481.9,188.8L481.9,188.8c-1.2,0-2.2-0.9-2.2-2c0-0.1,0-0.2,0-0.3l0.8-21.8c0.1-3.7,1.7-5.1,5.2-5l5.3,0.2l0,0
	c6.2,0.2,9.4,3.2,9.2,8.6c-0.2,5.1-4.1,8.2-10.1,8l-5.7-0.2l-0.4,10.4c0,1.2-0.9,2.1-2.1,2.2C481.9,188.8,481.9,188.8,481.9,188.8z
	 M485.3,160.5c-2.8,0-3.9,1.1-4,4.2l-0.8,21.8c-0.2,0.7,0.3,1.3,0.9,1.5c0.1,0,0.2,0,0.4,0c0.7,0.1,1.3-0.4,1.4-1.1
	c0-0.1,0-0.2,0-0.2l0.4-10.8c0-0.1,0.1-0.2,0.1-0.3c0.1-0.1,0.2-0.1,0.3-0.1l6.1,0.2c5.5,0.2,9-2.5,9.2-7.1c0.2-4.9-2.6-7.4-8.4-7.7
	l-5.3-0.2L485.3,160.5z M490.5,173.7h-0.3l-6.1-0.2c-0.2,0-0.4-0.2-0.4-0.4l0.3-8.2c-0.1-1.2,0.8-2.3,2.1-2.4c0.1,0,0.3,0,0.4,0
	l4.5,0.2c3.8,0.1,5.8,2.1,5.7,5.7C496.4,171.7,494.1,173.8,490.5,173.7L490.5,173.7z M490.3,172.9c3.3,0.2,5.3-1.6,5.4-4.6
	s-1.5-4.6-4.8-4.8l-4.4-0.2c-1.3-0.1-1.5,1-1.5,1.6l-0.3,7.7L490.3,172.9z"/>
<path class="st9" d="M513.1,190.4h-0.2c-1.2,0-2.1-1-2.1-2.2c0-0.1,0-0.2,0-0.3l1.7-24.7l0,0c0.1-1.2,1.2-2.2,2.4-2.1
	c1.2,0.1,2.2,1.2,2.1,2.4l0,0l-1.7,24.7c0,1.2-0.9,2.1-2.1,2.1C513.2,190.4,513.1,190.4,513.1,190.4z M513.5,163.4l-1.7,24.6
	c-0.1,0.7,0.3,1.3,1,1.5c0.1,0,0.2,0,0.3,0c0.7,0.1,1.3-0.4,1.4-1.1c0-0.1,0-0.2,0-0.2l1.7-24.7c0.1-0.7-0.3-1.3-1-1.4
	c-0.1,0-0.2,0-0.2,0c-0.7-0.1-1.3,0.3-1.4,1C513.5,163.1,513.5,163.2,513.5,163.4L513.5,163.4z"/>
<path class="st4" d="M536.8,192.5h-0.3c-0.6,0-1.2-0.3-1.6-0.8c-0.4-0.5-0.5-1.1-0.4-1.7l2.4-22.8l-6.7-0.7c-0.6,0-1.1-0.3-1.4-0.7
	c-0.3-0.4-0.4-0.9-0.4-1.4c0-0.5,0.3-1,0.7-1.4c0.4-0.3,1-0.4,1.5-0.3l17.7,1.9c1,0,1.8,0.7,1.9,1.7c0,0.1,0,0.2,0,0.3
	c-0.1,1-1,1.8-2,1.7c-0.1,0-0.2,0-0.3,0l-6.6-0.7l-2.5,22.8c0,0.6-0.3,1.2-0.8,1.6C537.8,192.3,537.3,192.5,536.8,192.5z
	 M530.4,163.6c-0.2,0-0.4,0-0.6,0.1c-0.2,0.2-0.3,0.4-0.3,0.7c0,0.3,0,0.5,0.2,0.8c0.2,0.2,0.5,0.4,0.8,0.4l7.1,0.8
	c0.2,0,0.4,0.2,0.4,0.5l-2.5,23.2c-0.1,0.4,0,0.8,0.2,1.1c0.3,0.3,0.6,0.5,1,0.5c0.4,0.1,0.7,0,1-0.2c0.3-0.3,0.5-0.6,0.5-1l0,0
	l2.5-23.2c0-0.1,0.1-0.2,0.2-0.3c0.1-0.1,0.2-0.1,0.3-0.1l7,0.8c0.5,0.1,1.2-0.1,1.3-0.9c0-0.4,0-1-1.1-1.1l-17.7-1.9L530.4,163.6z"
	/>
<path class="st4" d="M380,179.2c-0.6,0-1.2-0.5-1.2-1.1c0-0.6,0.4-1.1,1-1.2l32.3-2.6c0.6,0,1.2,0.5,1.2,1.1c0,0.6-0.4,1.1-1,1.2
	L380,179.2z M389.3,187.6c-2.6,0.2-3.5-0.5-3.7-2.2l-0.2-2.2c-0.1-1.7,0.6-2.5,3.3-2.7l15.5-1.3c2.6-0.2,3.6,0.4,3.7,2.1l0.2,2.2
	c0.1,1.7-0.7,2.5-3.3,2.7l-1.4,0.1c0.4,0.1,0.7,0.5,0.7,0.9c0,0.2,0,0.4-0.1,0.7c-0.3,0.8-0.7,1.7-1.2,2.4l10.2-0.8
	c0.6-0.1,1.2,0.4,1.2,1.1c0.1,0.6-0.4,1.2-1.1,1.2l0,0l-31.4,2.6c-0.6,0-1.1-0.6-1.1-1.2c0-0.5,0.4-1,0.9-1.1l10.4-0.9
	c-0.1-0.1-0.2-0.2-0.3-0.3c-0.4-0.6-0.8-1.2-1.3-1.7c-0.2-0.2-0.4-0.5-0.4-0.8c0-0.5,0.3-0.9,0.8-1.1L389.3,187.6z M403.3,161.1
	c2.9-0.2,4,0.7,4.2,2.8l0.4,5.4c0.2,2.1-0.7,3.2-3.7,3.4l-16.8,1.4c-2.3,0.2-3.9-0.2-4.2-2.8l-0.4-5.4c-0.2-2.1,0.7-3.2,3.7-3.5
	l3.4-0.3l-0.2-1.9c0-0.6,0.4-1.2,1.1-1.2c0,0,0.1,0,0.1,0c0.6-0.1,1.2,0.3,1.3,0.9c0,0,0,0.1,0,0.1l0.2,1.9l4.9-0.4l-0.2-1.9
	c0.1-0.7,0.7-1.2,1.4-1.2c0.6,0,1,0.4,1.1,1l0.2,2L403.3,161.1z M387.1,164.6c-1.5,0.1-1.8,0.4-1.7,1.4l0.1,1.3l4.7-0.4l-0.2-2.6
	L387.1,164.6z M385.8,170.8c0.1,1,0.5,1.2,1.9,1.1l2.9-0.2l-0.2-2.7l-4.7,0.4L385.8,170.8z M404.1,184.3c0.7-0.1,1.3-0.1,1.3-1
	l-0.1-1.2c-0.1-0.6-0.3-0.9-1.4-0.8l-14.6,1.2c-1.1,0.1-1.3,0.3-1.3,1l0.1,1.2c0,0.6,0.3,0.9,1.4,0.8L404.1,184.3z M391.6,187.4
	c0.3,0.1,0.5,0.2,0.7,0.4c0.6,0.6,1.1,1.2,1.6,1.8c0.2,0.2,0.3,0.5,0.3,0.8c0,0.3-0.1,0.6-0.2,0.8l5.8-0.5c0.6-1.1,1.1-2.2,1.5-3.4
	c0.1-0.3,0.3-0.6,0.6-0.8L391.6,187.4z M392.5,164.1l0.2,2.6l4.9-0.4l-0.2-2.6L392.5,164.1z M392.9,168.8l0.2,2.7l4.9-0.4l-0.2-2.7
	L392.9,168.8z M404.9,164.4c-0.1-1-0.5-1.2-1.9-1.1l-3.1,0.2l0.2,2.6l4.9-0.4L404.9,164.4z M403.6,170.6c1-0.1,1.8-0.2,1.7-1.4
	l-0.1-1.4l-4.9,0.4l0.2,2.7L403.6,170.6z"/>
<path class="st9" d="M433.1,170.1c0.3,0.3,0.5,0.7,0.5,1.1c0,0.8-0.6,1.4-1.3,1.4c-0.4,0-0.9-0.2-1.1-0.6c-0.9-1-1.9-1.8-2.9-2.6
	c-0.4-0.3-0.6-0.7-0.7-1.1c0-0.7,0.6-1.2,1.3-1.2c0.3,0,0.6,0.1,0.9,0.3C431,168.2,432.1,169.1,433.1,170.1z M434.4,177.8
	c0.7,0,1.3,0.6,1.3,1.3c0,0,0,0,0,0.1c0,0.2,0,0.4-0.1,0.5c-1,3.6-2.4,7.1-4.2,10.4c-0.3,0.5-0.8,0.9-1.4,0.9
	c-0.7,0-1.3-0.5-1.3-1.2c0,0,0,0,0,0c0-0.3,0.1-0.6,0.3-0.9c1.7-3.1,3-6.4,3.9-9.8C433.1,178.3,433.7,177.9,434.4,177.8L434.4,177.8
	z M435.4,160.8c0.3,0.3,0.4,0.7,0.5,1.1c0,0.8-0.6,1.4-1.4,1.4c-0.5,0-0.9-0.2-1.1-0.6c-0.8-1-1.7-1.9-2.7-2.7
	c-0.4-0.3-0.6-0.7-0.6-1.1c0-0.7,0.6-1.3,1.4-1.3c0.3,0,0.6,0.1,0.9,0.3C433.4,158.9,434.4,159.8,435.4,160.8L435.4,160.8z
	 M441.1,159.3c0.1-0.8,0.8-1.3,1.5-1.2c0.6,0.1,1.1,0.6,1.2,1.2l0.2,11.6c0.1,9.1-1.8,14.8-6,19.5c-0.3,0.4-0.8,0.6-1.3,0.7
	c-0.7,0-1.3-0.5-1.3-1.3c0,0,0,0,0,0c0-0.5,0.2-0.9,0.5-1.2c3.5-4,5.4-9.2,5.3-18L441.1,159.3z M438.7,168.6c0.7,0,1.2,0.5,1.2,1.1
	c0,0.1,0,0.3,0,0.4c-0.4,1.6-0.9,3.3-1.5,4.8c-0.2,0.5-0.7,0.9-1.2,0.9c-0.6,0-1.2-0.5-1.2-1.1c0,0,0,0,0,0c0-0.2,0.1-0.5,0.1-0.7
	c0.6-1.4,1.1-2.9,1.5-4.4C437.6,169.1,438.1,168.7,438.7,168.6L438.7,168.6z M445,169.5c0-0.6,0.5-1.1,1.1-1.1c0,0,0,0,0.1,0
	c0.5,0,0.9,0.3,1.1,0.7c0.7,1.3,1.2,2.8,1.5,4.3c0.1,0.7-0.3,1.3-0.9,1.5c-0.1,0-0.2,0-0.3,0c-0.5,0-1-0.4-1-0.9
	c-0.3-1.3-0.8-2.6-1.3-3.9C445.1,169.9,445,169.7,445,169.5L445,169.5z M449.4,160.4c0.1-0.7,0.7-1.3,1.4-1.2
	c0.6,0.1,1.1,0.6,1.2,1.2l0.4,27.9c0,0.7-0.6,1.3-1.3,1.3c-0.7,0-1.3-0.6-1.3-1.3L449.4,160.4z M453.3,169c0-0.6,0.5-1.1,1.1-1.1
	c0,0,0,0,0,0c0.5,0,0.9,0.3,1.1,0.7c0.7,1.3,1.2,2.8,1.5,4.2c0.1,0.7-0.3,1.3-0.9,1.5c-0.1,0-0.2,0-0.3,0c-0.5,0-1-0.4-1.1-0.9
	c-0.3-1.3-0.7-2.6-1.3-3.9C453.4,169.4,453.3,169.2,453.3,169L453.3,169z M457.9,159c0-0.7,0.5-1.2,1.2-1.2c0,0,0.1,0,0.1,0
	c0.7-0.1,1.3,0.4,1.4,1.1c0,0,0,0.1,0,0.1l0.5,30.7c-0.1,0.7-0.7,1.3-1.5,1.2c-0.7-0.1-1.2-0.6-1.2-1.2L457.9,159z"/>
<path class="st4" d="M491,160.3c6.2,0.2,9,3.2,8.8,8.1c-0.2,4.8-3.8,7.8-9.6,7.6l-6.1-0.2l-0.4,10.8c0,0.9-0.7,1.7-1.6,1.8
	c-0.1,0-0.1,0-0.2,0c-0.9,0-1.7-0.7-1.7-1.6c0-0.1,0-0.2,0-0.3l0.8-21.8c0.1-3.4,1.5-4.7,4.8-4.6L491,160.3z M490.3,173.3
	c3.5,0.1,5.7-1.8,5.9-5s-1.5-5.1-5.2-5.2l-4.5-0.2c-1-0.1-1.9,0.6-2,1.6c0,0.1,0,0.2,0,0.4l-0.3,8.2L490.3,173.3z"/>
<path class="st9" d="M513,163.3c0.1-1,0.9-1.7,1.9-1.7s1.7,0.9,1.7,1.9l-1.7,24.7c0,0.9-0.7,1.7-1.7,1.8c-0.1,0-0.1,0-0.2,0
	c-0.9,0-1.7-0.7-1.7-1.7c0-0.1,0-0.2,0-0.3L513,163.3z"/>
<path class="st4" d="M538.6,190.4c0,0.9-0.8,1.7-1.8,1.7c-0.1,0-0.2,0-0.2,0c-0.9,0-1.7-0.8-1.6-1.7c0-0.1,0-0.2,0-0.3l2.5-23.2
	l-7.1-0.8c-0.8,0-1.4-0.6-1.4-1.4c0-0.1,0-0.2,0-0.2c0.1-1,0.8-1.4,1.7-1.2l17.7,1.9c1,0.1,1.5,0.6,1.5,1.6
	c-0.1,0.8-0.7,1.4-1.5,1.3c-0.1,0-0.2,0-0.2,0l-7-0.8L538.6,190.4z"/>
<path class="st2" d="M669.6,189c-1.2-1.4-3-2.1-4.8-2c-0.9,0-1.8,0.3-2.5,0.8c-0.7,0.5-1.3,1.3-1.5,2.2c-0.3,0.9-0.2,1.8,0.2,2.6
	c0.4,0.8,1.1,1.3,1.9,1.6h0.1c0.2,0.1,0.5,0,0.5-0.3c0.1-0.2,0-0.5-0.2-0.6c-1.1-0.4-1.7-1.7-1.3-2.8c0,0,0-0.1,0.1-0.1
	c0.5-1.2,1.6-1.9,2.9-1.9c1.3,0,2.5,0.5,3.3,1.5c0.8,1.1,1.1,2.4,0.9,3.7c-0.1,1.3-0.6,2.6-1.5,3.5c-1,0.9-2.2,1.5-3.5,1.8
	c-2.7,0.5-5.4-0.2-7.5-2c-2.2-1.7-4.1-3.7-5.9-5.9c-1.7-2.2-3.7-4.3-5.7-6.3c-4.3-3.8-9.7-6.3-15.4-7.1c-2.9-0.4-5.8-0.3-8.6,0.3
	c-1.3,0.3-2.6,0.8-3.7,1.6l-0.5-0.5c-1.3-0.9-2.4-2-3.3-3.2c-1.9-2.5-3-5.4-3.3-8.5c-0.1-1.5,0-3,0.5-4.5c0.5-1.4,1.3-2.7,2.5-3.6
	c2.3-2,5.6-2.3,8.3-0.8c2.7,1.4,4.4,4.2,4.2,7.2c-0.1,1.5-0.8,2.8-2,3.7c-1.2,0.8-2.7,1-4,0.5c-1.3-0.5-2.1-1.9-1.8-3.3
	c0.1-0.6,0.5-1.2,1.1-1.5c0.7-0.2,1.4-0.1,2,0.2l0,0c0.2,0.1,0.5,0,0.6-0.2s0-0.5-0.2-0.6c-0.8-0.4-1.7-0.4-2.6-0.2
	c-0.9,0.4-1.5,1.1-1.7,2.1c-0.4,1.8,0.6,3.6,2.3,4.4c1.6,0.7,3.5,0.6,5-0.5c1.4-1,2.4-2.6,2.5-4.4c0.9-7.2-8.5-12.9-15-8.1
	c-1.5,1.1-2.7,2.7-3.3,4.5c-0.5,1.7-0.7,3.6-0.4,5.4c0.5,3.4,2,6.6,4.4,9.1c1.1,1.2,2.4,2.3,3.7,3.2c0.1,0.1,0.2,0.2,0.3,0.3
	c-1.1,0.7-2,1.7-2.7,2.7c-1,1.5-1.6,3.1-2,4.8c-2.8-5.6-7.6-9.8-13.4-12c-3.6-1.4-7.6-1.5-11.2-0.3c-3.8,1.2-7,3.9-8.7,7.6
	c-1.7,3.9-1.1,8.4,1.6,11.6c1.3,1.6,3.2,2.8,5.2,3.4c2,0.5,4.2,0.3,6.1-0.5c2-0.7,3.7-2.2,4.6-4.1c0.9-1.9,1.1-4.1,0.4-6.2
	c-1-2.7-3.9-4.1-6.6-3.1c-0.5,0.2-1,0.5-1.4,0.8c-0.8,0.7-1.3,1.7-1.4,2.7v0.1c0,0.2,0.2,0.4,0.4,0.4c0.2,0,0.5-0.1,0.5-0.4
	c0.4-1.6,1.8-2.7,3.4-2.6c1.6,0,3.1,1,3.6,2.6c1,3.3-0.8,6.9-4.1,7.9c-1.6,0.6-3.3,0.7-4.9,0.3c-1.6-0.4-3.1-1.4-4.1-2.7
	c-2.2-2.7-2.7-6.4-1.3-9.6c1.4-3.2,4.1-5.6,7.4-6.6c3.3-1.1,6.9-1.1,10.1,0.1c3.3,1.2,6.3,3,8.8,5.4c2.1,1.9,3.7,4.1,4.9,6.7
	c-0.1,0.7-0.1,1.5,0,2.2c0.3,3.2,1.9,6.1,4.5,8.1c2.5,2,5.8,3,9,2.8c3.3-0.4,6.2-2.3,7.8-5.2c0.7-1.5,0.9-3.1,0.5-4.7
	c-0.3-1.6-1.2-3-2.6-3.8c-2.5-1.2-5.5-0.7-7.4,1.3c0-1.2-0.2-2.3-0.5-3.4c-0.5-1.5-1.4-3-2.4-4.2c-0.6-0.7-1.2-1.3-1.9-1.9
	c0.9-0.6,1.9-1.1,3-1.4c2.7-0.8,5.5-0.9,8.2-0.5c5.5,0.9,10.5,3.3,14.6,7.1c1,0.9,1.9,1.9,2.8,3l2.6,3.4c1.7,2.4,3.7,4.5,5.9,6.5
	c1.2,1.1,2.6,1.9,4.2,2.3c1.6,0.5,3.3,0.6,5,0.2c1.7-0.3,3.3-1.1,4.5-2.4c1.2-1.3,1.9-3,2-4.8C671.2,192.2,670.7,190.4,669.6,189z
	 M619.4,183c1,1.1,1.8,2.4,2.4,3.8c0.5,1.5,0.6,3,0.4,4.5c0,0.1,0.1,0.3,0.2,0.4c0.2,0.1,0.5,0.1,0.6-0.1l0,0l0.1-0.1
	c1.5-2.2,4.4-2.9,6.8-1.7c2.1,1.3,2.4,4.5,1.2,6.6c-1.5,2.1-3.9,3.4-6.5,3.5c-2.6,0.1-5.2-0.6-7.3-2.1c-2.2-1.5-3.6-3.8-4-6.4
	c-0.3-2.7,0.3-5.4,1.7-7.6c0.6-1,1.5-1.9,2.5-2.7C618.1,181.7,618.8,182.3,619.4,183z"/>
<path class="st2" d="M350.6,183.5c-1.5-3.4-4.4-6-7.9-7.1c-3.5-1.2-7.2-1.1-10.7,0.1c-3.4,1.2-6.5,3.1-9.1,5.6c-2,1.8-3.6,4-4.8,6.4
	c-0.3-1.9-1-3.8-2-5.4c-0.8-1.1-1.7-2.1-2.8-2.9l0.5-0.4c1.3-0.9,2.5-2,3.5-3.3c2-2.6,3.2-5.6,3.5-8.9c0.2-1.6,0-3.3-0.5-4.8
	c-0.5-1.6-1.5-3-2.7-4.1c-2.6-2.2-6.3-2.6-9.3-1c-3.1,1.5-4.9,4.8-4.7,8.2c0.1,1.7,1,3.3,2.4,4.3c1.4,1,3.3,1.2,4.9,0.5
	c1.7-0.7,2.7-2.5,2.3-4.3c-0.2-0.9-0.8-1.7-1.7-2.1c-0.9-0.3-1.8-0.2-2.6,0.2l0,0c-0.2,0.1-0.3,0.3-0.2,0.6c0.1,0.2,0.3,0.3,0.6,0.2
	c0,0,0,0,0,0c0.6-0.3,1.3-0.4,2-0.2c0.6,0.3,1,0.8,1.1,1.5c0.3,1.4-0.5,2.8-1.8,3.3c-1.3,0.5-2.8,0.3-3.9-0.5
	c-1.1-0.9-1.8-2.2-1.9-3.6c-0.1-2.9,1.5-5.6,4.1-6.9c2.5-1.2,5.5-0.7,7.4,1.4c1.7,1.9,2.6,4.5,2.4,7.1c0,2.9-0.8,5.8-2.4,8.2
	c-0.8,1.3-1.9,2.4-3.1,3.3c-0.2,0.2-0.5,0.4-0.7,0.7c-1.1-0.7-2.2-1.1-3.4-1.5c-2.8-0.7-5.7-0.8-8.6-0.5c-5.8,0.7-11.2,3.2-15.5,7
	c-2.2,1.9-4,4.2-6,6.1c-1.8,2-3.9,3.8-6.1,5.4c-2.2,1.4-4.3,2.2-6.6,1.7c-2.4-0.4-4-1.7-4.2-4.1c-0.2-1,0-2.1,0.5-3.1
	c0.6-0.9,1.6-1.4,2.6-1.4c1.1-0.1,2.1,0.4,2.6,1.3c0.6,1,0.2,2.2-0.7,2.7c0,0-0.1,0.1-0.1,0.1l0,0c-0.2,0.1-0.3,0.4-0.2,0.6
	c0.1,0.2,0.3,0.3,0.6,0.2c0,0,0,0,0,0c0.8-0.3,1.4-0.9,1.7-1.7c0.3-0.8,0.3-1.6,0-2.4c-0.3-0.7-0.8-1.4-1.5-1.8
	c-0.7-0.4-1.5-0.6-2.2-0.6c-1.6-0.1-3.1,0.6-4.1,1.9c-0.9,1.3-1.3,2.8-1.1,4.3c0.1,1.5,0.7,3,1.8,4.1c1.1,1.1,2.5,1.7,4,2
	c3,0.6,6-0.2,8.3-2.2c4.6-3.5,7.7-8.4,11.7-12.2c4.1-3.8,9.3-6.3,14.8-7c3.8-0.6,7.6,0.1,10.9,2c-0.6,0.6-1.2,1.2-1.7,1.8
	c-1.8,2.2-2.8,4.9-2.9,7.7c-1.9-2-4.9-2.5-7.4-1.3c-3,1.7-3.4,5.8-1.8,8.4c1.6,2.7,4.4,4.4,7.6,4.7c3.1,0.3,6.1-0.6,8.6-2.5
	c2.5-1.9,4-4.6,4.4-7.7c0-0.4,0-0.7,0-1c1.2-2.9,3.2-5.5,5.6-7.5c2.5-2.3,5.5-4,8.7-5.1c6.2-2.2,14,0.5,16.2,6.3
	c1.2,2.8,0.7,6-1.1,8.4c-1.9,2.3-5,3.2-7.8,2.2c-1.4-0.4-2.6-1.3-3.3-2.5c-0.7-1.3-0.9-2.7-0.5-4.1c0.3-1.4,1.5-2.3,2.9-2.4
	c1.5-0.1,2.9,0.7,3.4,2.1v0.1c0.1,0.2,0.3,0.3,0.5,0.3c0.2,0,0.4-0.3,0.4-0.5c-0.4-2-2.2-3.4-4.3-3.4c-2,0-3.8,1.3-4.4,3.2
	c-1.2,3.8,0.9,7.8,4.6,9c1.7,0.7,3.7,0.8,5.5,0.3c1.8-0.5,3.4-1.5,4.6-3C351.6,191.1,352.2,187,350.6,183.5z M316.3,191.3
	c-0.4,2.4-1.8,4.6-3.9,6c-2,1.3-4.5,2-6.9,1.8c-2.4,0-4.7-1.1-6.3-3c-1.5-1.8-1.3-5.2,0.9-6.4c2.4-1.2,5.2-0.5,6.8,1.7l0.1,0.1v0.1
	c0.1,0.1,0.2,0.2,0.4,0.2c0.2,0,0.4-0.2,0.4-0.5c0,0,0,0,0,0c-0.4-3.1,0.6-6.1,2.6-8.4c0.6-0.7,1.2-1.3,1.9-1.9
	c1,0.8,1.9,1.8,2.5,2.9C316.1,186.1,316.7,188.7,316.3,191.3L316.3,191.3z"/>
</svg>
