<svg xmlns="http://www.w3.org/2000/svg" width="321.28" height="176.64" viewBox="0 0 321.28 176.64"><path d="M22.56-126.72A82.484,82.484,0,0,1,16.8-97.44,147.011,147.011,0,0,1,1.28-67.68,177.994,177.994,0,0,1-21.6-40.16,189.7,189.7,0,0,1-49.28-17.44,147.01,147.01,0,0,1-79.04-1.92a83.258,83.258,0,0,1-29.6,5.76q-20.8,0-31.84-12.8t-11.04-32.96a88.743,88.743,0,0,1,5.76-30.72,142.417,142.417,0,0,1,15.52-30.24,172.038,172.038,0,0,1,22.88-27.36,179.435,179.435,0,0,1,27.68-22.24,142.24,142.24,0,0,1,29.92-14.88,88.1,88.1,0,0,1,29.44-5.44q20.8,0,31.84,12.96T22.56-126.72Zm-30.72.64a111.3,111.3,0,0,0-.96-14.4,42.815,42.815,0,0,0-3.84-13.28,26.422,26.422,0,0,0-7.68-9.6q-4.8-3.68-12.48-3.68A49.683,49.683,0,0,0-56-160.64,92.706,92.706,0,0,0-76.8-144.8a138.462,138.462,0,0,0-17.92,22.24,168.817,168.817,0,0,0-13.92,25.92,165.551,165.551,0,0,0-8.96,26.88,108.206,108.206,0,0,0-3.2,24.96,74.9,74.9,0,0,0,1.44,14.4,43.7,43.7,0,0,0,4.8,13.28,27.115,27.115,0,0,0,9.12,9.6A25.624,25.624,0,0,0-91.36-3.84a43.624,43.624,0,0,0,22.24-6.24,86.177,86.177,0,0,0,20-16.32,130.671,130.671,0,0,0,16.8-23.04A203.381,203.381,0,0,0-19.36-76a170.35,170.35,0,0,0,8.32-26.72A110.337,110.337,0,0,0-8.16-126.08ZM34.4-110.72a322.852,322.852,0,0,0,70.08-24.48,425.845,425.845,0,0,0,63.04-37.6l2.24,1.92q-12.8,20.48-26.4,41.76t-26.88,42.4Q103.2-65.6,90.4-44.8T66.4-4.48l30.4-1.6L95.52-3.84Q62.56-.96,29.28,0l89.28-137.92-.64-.64a354.673,354.673,0,0,1-40,17.6,409.53,409.53,0,0,1-42.56,13.12Z" transform="translate(151.52 172.8)" fill="#fff"/></svg>