<svg xmlns="http://www.w3.org/2000/svg" width="75.247" height="12.974" viewBox="0 0 75.247 12.974"><path d="M928.436,441.349l.016-.381s-5.056-.755-8.7-1.235-6.74-.674-8.1-.705a19.484,19.484,0,0,0-4.024.212,9.528,9.528,0,0,0-2.659,1.25,42.368,42.368,0,0,1-3.438,2.559,18.3,18.3,0,0,1-6.828,1.2c-.877-.035-7.428-.246-8.489-.347s-7.732-.833-9.1-1.062-12.237-1.618-13.576-1.771a34.324,34.324,0,0,0-4.18-.249,9.671,9.671,0,0,0-3.7.859,5.988,5.988,0,0,0-1.627,1.292,4.043,4.043,0,0,0,.026,4.747,6.009,6.009,0,0,0,1.622,1.305,9.682,9.682,0,0,0,3.7.887,34.379,34.379,0,0,0,4.181-.217c1.339-.143,12.213-1.448,13.584-1.667s8.046-.9,9.107-.993,7.613-.253,8.49-.282a17.744,17.744,0,0,1,6.78,1.133,42.714,42.714,0,0,1,3.426,2.585,9.535,9.535,0,0,0,2.653,1.271,19.459,19.459,0,0,0,4.023.243c1.363-.021,4.459-.19,8.106-.643s8.708-1.169,8.708-1.169l-.015-.381a11.613,11.613,0,0,0-2.329-.257c-1.3-.072-13.6.043-13.953.033a6.95,6.95,0,0,1-1.212-.027c-.139-.074-.268-.3-.2-.7s.285-.416.619-.436,12.827-.44,13.265-.462,1.618-.112,2.313-.184,1.585-.222,1.585-.222l0-.415a2.177,2.177,0,0,0-.243-.073,36.136,36.136,0,0,0-3.685-.446c-1.062-.045-13.089-.526-13.338-.537s-.406-.04-.477-.2a.87.87,0,0,1-.052-.33h.009a.992.992,0,0,1,.052-.4c.071-.159.228-.186.478-.2s12.278-.4,13.34-.434a36.042,36.042,0,0,0,3.687-.418,2.522,2.522,0,0,0,.243-.071l.006-.415s-.889-.158-1.584-.235-1.874-.176-2.312-.2-12.929-.54-13.263-.563-.554-.043-.618-.441.066-.623.206-.7a6.95,6.95,0,0,1,1.212-.018c.358-.007,12.658.2,13.953.141a11.588,11.588,0,0,0,2.331-.24Z" transform="translate(-853.264 -439.018)" fill="#ea6d99" fill-rule="evenodd"/></svg>