<svg xmlns="http://www.w3.org/2000/svg" viewBox="0 0 34.6 34.6"><defs><style>.a{fill:#fff;}</style></defs><path class="a" d="M18.51,26a1.21,1.21,0,1,1-1.21-1.21A1.21,1.21,0,0,1,18.51,26ZM26,16.09a1.21,1.21,0,1,0,1.21,1.21A1.21,1.21,0,0,0,26,16.09ZM24.74,0a1.21,1.21,0,0,0,2.42,0H24.74ZM17.3,7.44a1.21,1.21,0,1,0,1.21,1.21A1.21,1.21,0,0,0,17.3,7.44Zm8.65,26a1.21,1.21,0,0,0-1.21,1.21h2.42A1.21,1.21,0,0,0,26,33.39Zm-17.3,0A1.21,1.21,0,0,0,7.44,34.6H9.86A1.21,1.21,0,0,0,8.65,33.39ZM33.39,8.65A1.21,1.21,0,0,0,34.6,9.86V7.44A1.21,1.21,0,0,0,33.39,8.65Zm0,17.3a1.21,1.21,0,0,0,1.21,1.21V24.74A1.21,1.21,0,0,0,33.39,26ZM7.44,0A1.21,1.21,0,1,0,9.86,0H7.44ZM0,24.74v2.42a1.21,1.21,0,0,0,0-2.42Zm8.65-8.65A1.21,1.21,0,1,0,9.86,17.3,1.21,1.21,0,0,0,8.65,16.09ZM0,7.44V9.86A1.21,1.21,0,1,0,0,7.44Z"/></svg>