<svg xmlns="http://www.w3.org/2000/svg" xmlns:xlink="http://www.w3.org/1999/xlink" width="283.525" height="181.037" viewBox="0 0 283.525 181.037"><defs><clipPath id="a"><rect width="84.655" height="40.779" fill="none"/></clipPath></defs><g transform="translate(0.09 0.067)"><g transform="translate(-0.09 -0.067)"><path d="M426.946,208.124c-.426,34.549-26.886,41.747-26.886,41.747s.43,3.239.856,6.837c-5.552-.359-9.954-1.82-18.351,3.238-8.961,5.4-7.356,16.958-18.347,21.6-9.391,3.955-25.6.358-25.6.358v9.719c-2.137-1.082-13.658-1.8-21.762-1.082s-13.658,6.84-30.727,7.2H285.7c-17.067-.359-22.617-6.479-30.727-7.2s-19.628,0-21.764,1.082V281.9s-16.213,3.6-25.6-.358c-10.991-4.638-9.389-16.2-18.351-21.6-8.4-5.057-12.8-3.6-18.345-3.238.422-3.6.85-6.837.85-6.837s-26.456-7.2-26.882-41.747l.052-.407c.426-34.549,26.884-41.747,26.884-41.747s-.426-3.24-.852-6.838c5.546.359,9.95,1.82,18.347-3.24,8.961-5.4,7.36-16.96,18.351-21.593,9.387-3.958,25.6-.359,25.6-.359v-9.717c2.135,1.08,13.656,1.8,21.764,1.08s13.656-6.84,30.725-7.2l.426,0c17.069.359,22.619,6.479,30.723,7.2s19.632,0,21.766-1.08v9.717s16.215-3.6,25.6.359c10.993,4.633,9.391,16.2,18.353,21.593,8.4,5.059,12.8,3.6,18.345,3.24-.424,3.6-.852,6.838-.852,6.838s26.458,7.2,26.886,41.747Z" transform="translate(-144.175 -117.401)" fill="#fff"/><path d="M286.5,298.8h-.434a57.375,57.375,0,0,1-22.018-4.676,31.73,31.73,0,0,0-8.782-2.538c-2.11-.186-4.61-.283-7.231-.283-7.142,0-12.879.665-14.1,1.283l-1.064.542V283.109a73.875,73.875,0,0,1-13.359,1.336,30.99,30.99,0,0,1-11.856-1.92c-6.173-2.606-8.512-7.3-10.775-11.833-1.91-3.83-3.712-7.449-7.67-9.834-5.269-3.179-8.728-3.607-11.417-3.607a40.282,40.282,0,0,0-4.02.262c-.8.077-1.613.154-2.449.209l-.833.054.083-.7c.328-2.8.659-5.379.792-6.4-3.816-1.3-26.437-10.329-26.828-42.184l.056-.477c.389-31.8,23.007-40.829,26.824-42.124-.131-1.018-.461-3.6-.792-6.4l-.083-.7.833.053c.84.054,1.648.135,2.455.212,1.366.133,2.658.26,4.016.26,2.692,0,6.15-.428,11.415-3.605,3.955-2.387,5.76-6,7.672-9.834,2.261-4.537,4.6-9.23,10.773-11.835a30.99,30.99,0,0,1,11.858-1.924,73.923,73.923,0,0,1,13.357,1.339V123.439l1.062.539c1.222.618,6.957,1.286,14.092,1.286,2.623,0,5.126-.1,7.237-.286a31.7,31.7,0,0,0,8.784-2.536,57.264,57.264,0,0,1,22-4.674l.445,0a57.357,57.357,0,0,1,22.022,4.676,31.711,31.711,0,0,0,8.78,2.536c2.11.186,4.612.286,7.238.286,7.136,0,12.868-.669,14.09-1.286l1.066-.539V133.46a73.829,73.829,0,0,1,13.357-1.339,30.981,30.981,0,0,1,11.854,1.924c6.177,2.6,8.516,7.3,10.777,11.836,1.91,3.828,3.716,7.445,7.67,9.832,5.265,3.177,8.726,3.6,11.417,3.6,1.357,0,2.648-.125,4.018-.258.8-.077,1.611-.158,2.451-.212l.836-.053-.085.7c-.328,2.8-.663,5.378-.792,6.4,3.816,1.3,26.435,10.327,26.828,42.182l-.056.479c-.389,31.8-23.009,40.827-26.826,42.124.133,1.016.466,3.6.792,6.4l.083.7-.831-.054c-.836-.054-1.644-.132-2.449-.209-1.37-.135-2.663-.262-4.022-.262-2.69,0-6.15.428-11.417,3.607-3.953,2.385-5.758,6-7.668,9.834-2.264,4.535-4.6,9.227-10.777,11.833a30.979,30.979,0,0,1-11.854,1.92,73.879,73.879,0,0,1-13.361-1.336v10.023l-1.062-.542c-1.22-.618-6.957-1.283-14.1-1.283-2.619,0-5.119.1-7.229.283a31.751,31.751,0,0,0-8.782,2.538,57.37,57.37,0,0,1-22,4.676Zm-38.465-8.683c2.669,0,5.221.1,7.379.293a32.806,32.806,0,0,1,9.225,2.638,55.893,55.893,0,0,0,21.444,4.565h.4a55.921,55.921,0,0,0,21.436-4.565,32.838,32.838,0,0,1,9.227-2.638c2.16-.193,4.706-.293,7.377-.293,4.993,0,11,.379,13.758,1.088v-9.621l.879.193a72.955,72.955,0,0,0,13.885,1.483,29.452,29.452,0,0,0,11.228-1.8c5.71-2.411,7.844-6.7,10.108-11.24,1.9-3.81,3.868-7.754,8.146-10.336,5.625-3.389,9.491-3.824,12.234-3.824,1.438,0,2.835.135,4.182.267.515.051,1.031.1,1.557.146-.395-3.3-.767-6.125-.767-6.125l-.062-.481.545-.149c.262-.072,25.984-7.517,26.4-41.242l.058-.467c-.422-33.7-26.144-41.1-26.4-41.168l-.547-.147.062-.481s.372-2.824.769-6.129c-.528.044-1.046.095-1.561.146-1.347.132-2.742.267-4.178.267-2.744,0-6.61-.435-12.234-3.826-4.278-2.582-6.246-6.524-8.146-10.336-2.264-4.539-4.4-8.826-10.112-11.236a29.441,29.441,0,0,0-11.226-1.8,73.139,73.139,0,0,0-13.883,1.48l-.881.195V125.36c-2.762.711-8.765,1.088-13.75,1.088-2.673,0-5.228-.1-7.387-.293a32.778,32.778,0,0,1-9.222-2.64,55.912,55.912,0,0,0-21.446-4.565l-.405,0a55.9,55.9,0,0,0-21.428,4.563,32.727,32.727,0,0,1-9.227,2.64c-2.16.193-4.714.293-7.385.293-4.986,0-10.989-.377-13.75-1.088v9.621l-.881-.195a73.243,73.243,0,0,0-13.88-1.48,29.446,29.446,0,0,0-11.228,1.8c-5.71,2.41-7.849,6.7-10.11,11.234-1.9,3.814-3.868,7.756-8.148,10.338-5.622,3.391-9.491,3.828-12.232,3.828-1.438,0-2.833-.137-4.18-.269-.513-.049-1.033-.1-1.561-.146.395,3.3.769,6.129.769,6.129l.062.479-.545.149c-.26.072-25.984,7.517-26.4,41.24l-.056.465c.42,33.7,26.14,41.1,26.4,41.171l.547.147-.062.481s-.372,2.824-.767,6.127c.526-.044,1.043-.095,1.557-.146,1.349-.132,2.742-.267,4.182-.267,2.742,0,6.61.435,12.234,3.824,4.28,2.583,6.246,6.525,8.146,10.338,2.264,4.542,4.4,8.826,10.11,11.238a29.452,29.452,0,0,0,11.228,1.8,72.863,72.863,0,0,0,13.883-1.483l.879-.193v9.621C237.035,290.5,243.042,290.121,248.032,290.121Z" transform="translate(-144.54 -117.766)" fill="#b0a671"/><path d="M280.93,284.142c-.987-.024-1.929-.067-2.835-.129l.112-1.159q1.325.088,2.764.126Zm7.111-.424-.2-1.154c.952-.116,1.858-.252,2.717-.4l.291,1.14Q289.513,283.535,288.041,283.718Zm-16.973-.612c-.969-.19-1.879-.4-2.748-.621l.412-1.112c.842.214,1.725.419,2.661.6Zm26.6-1.492-.5-1.088c.9-.286,1.75-.581,2.561-.876l.565,1.066C299.456,281.018,298.587,281.321,297.666,281.614ZM261.7,280.359l-1.014-.378c-.524-.2-1.035-.391-1.54-.573l.57-1.066q.758.279,1.551.576l1.006.378Zm-30.355-1.267v-2.333h1.4v.466c.085-.022.175-.04.268-.062l.353,1.126a4.718,4.718,0,0,0-.967.288Zm75.341-.648-.466-1.1a22.714,22.714,0,0,1,2.8-.643l.274,1.142A22.472,22.472,0,0,0,306.685,278.443Zm21.92-.335c-.757-.119-1.675-.229-2.727-.326l.154-1.157c1.089.1,2.043.212,2.833.34Zm-75.921-.4-.31-.028c-.775-.067-1.6-.119-2.444-.159l.081-1.162c.867.04,1.711.095,2.517.164l.322.029Zm-12.5-.145-.085-1.16c.91-.047,1.86-.085,2.831-.109l.04,1.166C242.022,277.483,241.086,277.521,240.189,277.566Zm78.75-.126c-.528-.009-1.058-.014-1.59-.012q-.6,0-1.2.007l-.019-1.164c.457-.007.921-.009,1.382-.009.482,0,.966.005,1.447.012Zm12.679-3.3h-1.405v-2.33h1.405Zm13.078-2.864-.023-1.164c.962-.01,1.887-.05,2.752-.114l.127,1.159C346.649,271.224,345.687,271.263,344.7,271.275Zm-123.228-.059-.077-1.162c.954-.043,1.883-.109,2.769-.183l.143,1.159C223.4,271.106,222.446,271.174,221.467,271.217Zm-7.131-.155c-1-.1-1.952-.243-2.839-.416l.324-1.135c.838.164,1.742.295,2.688.395Zm18.412-.131h-1.4v-.845l-.033.005-.3-1.136c.551-.1.86-.165.865-.167l.875-.186Zm104.846,0c-1.021-.1-1.966-.221-2.812-.334l.235-1.15c.823.114,1.752.228,2.748.328Zm16.98-1.124-.553-1.072c.206-.071.4-.147.6-.228a16.77,16.77,0,0,0,1.742-.826l.779.967a17.3,17.3,0,0,1-1.91.907C355.022,269.641,354.795,269.725,354.573,269.8Zm-149.657-1.69a15.879,15.879,0,0,1-2.143-1.652l1.041-.779a13.97,13.97,0,0,0,1.96,1.509ZM362.149,264.3l-1.185-.621A22.518,22.518,0,0,0,362.3,261.7l1.253.524A21.971,21.971,0,0,1,362.149,264.3Zm-163.213-2.883c-.4-.707-.779-1.424-1.158-2.142l1.289-.464c.368.707.742,1.412,1.139,2.109Zm167.514-4.526-1.278-.484c.441-.8.856-1.493,1.274-2.123l1.228.564C367.274,255.448,366.875,256.115,366.449,256.889ZM194.77,254.1a15.192,15.192,0,0,0-1.551-1.829l1.081-.743a16.827,16.827,0,0,1,1.671,1.969Zm177.1-3.573-.869-.914c.237-.155.482-.305.732-.452q.854-.494,1.648-.9l.738.991q-.767.388-1.58.859C372.311,250.253,372.09,250.392,371.874,250.532Zm-183.926-1.705a23.862,23.862,0,0,0-2.444-.986l.53-1.078a26.343,26.343,0,0,1,2.6,1.048Zm192.387-1.707-.27-1.143a19.456,19.456,0,0,1,2.914-.248l.019,1.166A17.542,17.542,0,0,0,380.336,247.12ZM176.192,247.1l-.154-1.157c1-.091,1.9-.171,2.846-.2l.056,1.166C178.036,246.935,177.161,247.013,176.192,247.1Zm212.4-.829c-.1-.817-.2-1.6-.3-2.314l1.4-.126c.093.714.2,1.5.3,2.321Zm-213.807-3.188-1.4-.128.312-2.318,1.4.129Zm216.871-2.971-.644-1.038c.8-.34,1.607-.719,2.39-1.128l.748.988C393.327,239.36,392.489,239.757,391.654,240.114Zm-223.748-1.669c-.779-.433-1.559-.9-2.316-1.4l.873-.914c.725.478,1.474.931,2.224,1.348ZM399.8,235.31l-.956-.852c.671-.519,1.322-1.066,1.941-1.623l1.033.793C401.171,234.2,400.494,234.77,399.8,235.31Zm-239.373-2.348c-.628-.593-1.233-1.209-1.8-1.836l1.116-.7c.551.6,1.139,1.2,1.744,1.769Zm245.758-4.009L405,228.319q.726-.931,1.422-1.959l1.224.566C407.189,227.611,406.7,228.3,406.183,228.952ZM154.8,226.142c-.43-.676-.85-1.385-1.253-2.121l1.282-.481q.583,1.071,1.214,2.059Zm255.845-4.568-1.314-.41q.474-1.048.906-2.167l1.339.352Q411.13,220.5,410.641,221.574Zm-259.564-3.08q-.393-1.1-.736-2.274l1.366-.274c.222.76.459,1.5.715,2.219Zm262.205-4.857-1.378-.214c.166-.738.318-1.5.449-2.271l1.388.164Q413.543,212.506,413.283,213.637Zm-264.209-3.2c-.116-.76-.214-1.538-.3-2.336l1.4-.1q.125,1.172.3,2.292Zm265.319-4.966-1.4-.053c.04-.75.067-1.521.077-2.3l1.4.01C414.459,203.922,414.432,204.705,414.393,205.471Zm-264.44-3.218-1.4-.024c.017-.8.048-1.579.1-2.343l1.4.062C150,200.7,149.972,201.469,149.953,202.253Zm262.933-3.871c-.075-.781-.164-1.547-.27-2.292l1.393-.136c.108.762.2,1.54.276,2.338Zm-262.139-4.164-1.386-.174c.143-.795.306-1.566.486-2.319l1.376.226Q150.961,193.055,150.747,194.218Zm260.7-3.793c-.21-.766-.443-1.507-.686-2.226l1.351-.316c.249.736.488,1.5.7,2.281Zm-258.477-4.03-1.332-.364c.3-.766.626-1.505.96-2.219l1.307.424C153.576,184.931,153.262,185.65,152.967,186.395Zm255.473-3.6q-.57-1.079-1.183-2.071l1.249-.529c.42.683.827,1.391,1.216,2.133Zm-251.555-3.723-1.214-.583q.733-1.055,1.5-2.007l1.168.643Q157.6,178.054,156.885,179.075Zm246.758-3.218c-.551-.617-1.127-1.221-1.709-1.795l1.066-.752c.607.591,1.206,1.217,1.769,1.859Zm-241-3.19-1.016-.8c.659-.574,1.349-1.133,2.047-1.655l.942.864C163.941,171.579,163.276,172.117,162.642,172.667Zm234.384-2.607c-.719-.488-1.459-.952-2.2-1.379l.8-.954c.765.443,1.534.924,2.282,1.429Zm-226.9-2.4-.723-1c.842-.421,1.692-.8,2.53-1.138l.611,1.048C171.742,166.893,170.93,167.258,170.125,167.66Zm3.13-6.137-.293-2.319,1.395-.121.3,2.316Zm7.425-1.4-.073-1.162a17.062,17.062,0,0,0,2.648-.316l.326,1.133A18.792,18.792,0,0,1,180.68,160.125Zm204.09-.026-.094-1.162c.8-.043,1.584-.117,2.378-.191l.382-.036.156,1.159-.382.035C386.395,159.978,385.589,160.054,384.77,160.1Zm-7.19-.8a23.3,23.3,0,0,1-2.642-.986l.657-1.029a22.375,22.375,0,0,0,2.467.924Zm-187.42-1.978-.759-.981c.349-.184.7-.383,1.066-.591.395-.228.771-.471,1.124-.724l.915.883c-.389.279-.8.547-1.239.8C190.89,156.925,190.52,157.131,190.16,157.323Zm178.97-2.574a16.226,16.226,0,0,1-1.75-1.926l1.179-.631a14.767,14.767,0,0,0,1.621,1.783Zm-172.265-3.626-1.243-.54c.426-.673.819-1.364,1.2-2.064l1.28.472C197.712,149.715,197.306,150.429,196.866,151.122Zm167.326-3.587c-.4-.762-.754-1.447-1.124-2.121l1.274-.486c.378.683.736,1.373,1.1,2.062Zm-163.2-3.811-1.245-.54a21.927,21.927,0,0,1,1.465-2.057l1.168.65A19.714,19.714,0,0,0,200.989,143.725Zm158.595-3.164a13.914,13.914,0,0,0-1.885-1.573l.9-.893a15.385,15.385,0,0,1,2.062,1.721ZM207.142,137.93l-.73-.995c.43-.217.883-.421,1.361-.616.409-.166.833-.317,1.268-.453l.5,1.086c-.4.126-.782.262-1.154.414C207.952,137.543,207.535,137.731,207.142,137.93Zm123.12-.66v-1.814h1.405v.329c.189-.035.405-.074.651-.116l.287,1.138c-.923.16-1.457.274-1.467.276ZM228.6,136.514c-.806-.119-1.731-.243-2.746-.353l.185-1.154c1.035.112,1.979.238,2.806.36Zm123.168-.029c-.825-.185-1.725-.338-2.667-.452l.2-1.152c1,.122,1.954.283,2.831.479Zm-12.3-.538-.131-1.157c.91-.072,1.864-.129,2.835-.164l.06,1.164C341.284,135.822,340.357,135.878,339.468,135.947Zm-123.274-.112-.1-1.162c.89-.053,1.837-.079,2.812-.079l.042,1.164C217.967,135.757,217.054,135.783,216.194,135.835Zm16.6-2.293h-1.4V131.21h1.4Zm98.872-3.912h-1.405l.071-1.835-.148-.35a2.751,2.751,0,0,0,.43-.153l1.052-.5Zm-86.016-.021-.975-.005.012-1.164.964,0c.607,0,1.216,0,1.823-.016l.029,1.166C246.89,129.6,246.27,129.608,245.651,129.608Zm75.058-.052-.056-1.162c.96-.029,1.9-.071,2.785-.122l.1,1.16C322.63,129.486,321.68,129.527,320.709,129.556Zm-7.079-.022c-.975-.038-1.925-.091-2.835-.164l.137-1.159c.885.071,1.817.124,2.767.16ZM237.6,129.3c-1.048-.086-2-.188-2.829-.3l.227-1.148c.8.11,1.729.207,2.744.291Zm17.023-.241-.322-1.135a24.023,24.023,0,0,0,2.59-.669l.495,1.088A25.683,25.683,0,0,1,254.626,129.058Zm49.249-1.323c-.676-.241-1.362-.5-2.072-.767l-.5-.184.578-1.062.5.186c.7.266,1.384.519,2.054.759Zm-40.026-1.719-.551-1.071c.833-.295,1.708-.59,2.636-.876l.488,1.093C265.518,125.44,264.663,125.728,263.849,126.016Zm31.02-1.366c-.84-.224-1.721-.438-2.65-.633l.341-1.129c.964.2,1.875.422,2.74.655Zm-21.812-1.043-.272-1.143c.892-.145,1.827-.274,2.812-.381l.183,1.154C274.827,123.34,273.919,123.468,273.056,123.608Zm12.355-.547q-1.322-.1-2.76-.152l.056-1.162c.985.033,1.933.086,2.835.153Z" transform="translate(-140.213 -113.472)" fill="#b0a671"/></g><path d="M-89.208-1.3a1.434,1.434,0,0,1-.441,1.05A1.434,1.434,0,0,1-90.7.189h-.21a1.445,1.445,0,0,1-1.04-.441A1.418,1.418,0,0,1-92.4-1.3V-14.889a1.317,1.317,0,0,1,.126-.577,1.834,1.834,0,0,1,.326-.473,1.392,1.392,0,0,1,.473-.325,1.441,1.441,0,0,1,.567-.116h.21a1.434,1.434,0,0,1,1.05.441,1.434,1.434,0,0,1,.441,1.05Zm19.95-.084a1.533,1.533,0,0,1-.459,1.1,1.51,1.51,0,0,1-1.126.473h-.376A1.519,1.519,0,0,1-72.471-.42q-1.077-1.365-2.069-2.615l-1.974-2.489q-.982-1.239-1.984-2.51t-2.1-2.656V-1.3a1.439,1.439,0,0,1-.438,1.05,1.42,1.42,0,0,1-1.043.441h-.188A1.42,1.42,0,0,1-83.31-.252a1.439,1.439,0,0,1-.438-1.05v-13.44a1.575,1.575,0,0,1,.463-1.145,1.529,1.529,0,0,1,1.136-.472h.547a1.537,1.537,0,0,1,.694.168,1.653,1.653,0,0,1,.568.462q1.01,1.281,1.988,2.53l1.957,2.5q.978,1.25,1.957,2.52t2.03,2.594v-9.3a1.324,1.324,0,0,1,.125-.577,1.835,1.835,0,0,1,.323-.473,1.383,1.383,0,0,1,.469-.325,1.423,1.423,0,0,1,.563-.116h.188a1.41,1.41,0,0,1,1.053.441,1.456,1.456,0,0,1,.428,1.05Zm18.48-13.545a1.286,1.286,0,0,1-.116.62,1.741,1.741,0,0,1-.357.525,1.782,1.782,0,0,1-.514.357,1.431,1.431,0,0,1-.609.137H-59.3a1.742,1.742,0,0,0-.766.157,1.7,1.7,0,0,0-.546.41,1.82,1.82,0,0,0-.336.556,1.63,1.63,0,0,0-.115.577,1.68,1.68,0,0,0,.115.6,1.82,1.82,0,0,0,.336.557,1.832,1.832,0,0,0,.546.42,1.65,1.65,0,0,0,.766.168h4.62a1.6,1.6,0,0,1,1.292.5,1.675,1.675,0,0,1,.431,1.113,1.675,1.675,0,0,1-.431,1.113,1.6,1.6,0,0,1-1.292.5H-59.3a1.742,1.742,0,0,0-.766.158,1.777,1.777,0,0,0-.546.4,1.694,1.694,0,0,0-.336.546,1.63,1.63,0,0,0-.115.577V-1.3a1.439,1.439,0,0,1-.438,1.05,1.42,1.42,0,0,1-1.043.441h-.188A1.42,1.42,0,0,1-63.78-.252a1.439,1.439,0,0,1-.438-1.05V-4.935a3.516,3.516,0,0,1,.147-1.029,4.442,4.442,0,0,1,.378-.893,5.312,5.312,0,0,1,.514-.756q.283-.346.536-.62-.252-.273-.536-.63a5.537,5.537,0,0,1-.514-.777,4.634,4.634,0,0,1-.378-.913,3.622,3.622,0,0,1-.147-1.04,5.145,5.145,0,0,1,.407-2.11,4.553,4.553,0,0,1,1.085-1.533,4.55,4.55,0,0,1,1.567-.934,5.515,5.515,0,0,1,1.855-.315h6.93a1.5,1.5,0,0,1,1.113.472A1.587,1.587,0,0,1-50.778-14.931Zm20.2,6.741a8.4,8.4,0,0,1-.7,3.465,8.174,8.174,0,0,1-1.9,2.688A8.71,8.71,0,0,1-35.952-.3a8.927,8.927,0,0,1-3.3.62,9.037,9.037,0,0,1-3.307-.609,8.5,8.5,0,0,1-2.762-1.732,8.322,8.322,0,0,1-1.9-2.688,8.38,8.38,0,0,1-.7-3.476,8.452,8.452,0,0,1,.7-3.486,8.174,8.174,0,0,1,1.9-2.688A8.74,8.74,0,0,1-42.556-16.1a8.9,8.9,0,0,1,3.307-.62,8.927,8.927,0,0,1,3.3.62,8.71,8.71,0,0,1,2.772,1.733,8.174,8.174,0,0,1,1.9,2.688A8.452,8.452,0,0,1-30.576-8.19Zm-3.192,0a5.218,5.218,0,0,0-.41-2.058,5.2,5.2,0,0,0-1.145-1.691,5.6,5.6,0,0,0-1.733-1.155,5.48,5.48,0,0,0-2.194-.431,5.48,5.48,0,0,0-2.194.431,5.6,5.6,0,0,0-1.732,1.155,5.2,5.2,0,0,0-1.145,1.691,5.218,5.218,0,0,0-.41,2.058,5.242,5.242,0,0,0,.41,2.048,5.168,5.168,0,0,0,1.145,1.7,5.6,5.6,0,0,0,1.732,1.155,5.48,5.48,0,0,0,2.194.431,5.48,5.48,0,0,0,2.194-.431,5.6,5.6,0,0,0,1.733-1.155,5.168,5.168,0,0,0,1.145-1.7A5.242,5.242,0,0,0-33.768-8.19Zm22.281-3.066A5.931,5.931,0,0,1-11.8-9.219a5.081,5.081,0,0,1-.787,1.449,3.908,3.908,0,0,1-1.061.934,4.107,4.107,0,0,1-1.113.473L-12.579-2.1a1.493,1.493,0,0,1,.168.714,1.5,1.5,0,0,1-.483,1.1,1.569,1.569,0,0,1-1.134.473,1.633,1.633,0,0,1-.861-.242A1.562,1.562,0,0,1-15.5-.735q-.357-.735-.682-1.4t-.661-1.3q-.336-.64-.672-1.312t-.693-1.407h-4.767V-1.3A1.451,1.451,0,0,1-23.4-.252a1.424,1.424,0,0,1-1.061.441h-.189A1.48,1.48,0,0,1-25.7-.252a1.4,1.4,0,0,1-.462-1.05V-14.763a1.431,1.431,0,0,1,.136-.609,1.782,1.782,0,0,1,.357-.515,1.782,1.782,0,0,1,.514-.357,1.431,1.431,0,0,1,.609-.137h7.791a6.136,6.136,0,0,1,1.953.315,5.084,5.084,0,0,1,1.691.945,4.5,4.5,0,0,1,1.187,1.6A5.418,5.418,0,0,1-11.487-11.256Zm-3.192,0a1.976,1.976,0,0,0-.179-.872,1.728,1.728,0,0,0-.483-.609,1.922,1.922,0,0,0-.672-.346,2.7,2.7,0,0,0-.745-.105h-6.216v3.864h6.216a2.115,2.115,0,0,0,1.543-.525A1.881,1.881,0,0,0-14.679-11.256ZM8.715-1.386a1.516,1.516,0,0,1-.469,1.1,1.5,1.5,0,0,1-1.1.473A1.545,1.545,0,0,1,6.024-.263a1.512,1.512,0,0,1-.459-1.124V-9.261Q4.7-7.749,3.877-6.279T2.232-3.3a1.61,1.61,0,0,1-.591.578,1.61,1.61,0,0,1-.823.22,1.554,1.554,0,0,1-.812-.22,1.752,1.752,0,0,1-.6-.6L-3.927-9.282v7.9A1.516,1.516,0,0,1-4.4-.284,1.52,1.52,0,0,1-5.513.189,1.51,1.51,0,0,1-6.628-.263a1.53,1.53,0,0,1-.449-1.124V-14.721A1.559,1.559,0,0,1-6.6-15.866a1.511,1.511,0,0,1,1.1-.473h.441a1.56,1.56,0,0,1,.809.231,1.611,1.611,0,0,1,.6.609q1.113,2,2.226,4.053T.819-7.308L5.292-15.5a1.635,1.635,0,0,1,.588-.609,1.506,1.506,0,0,1,.8-.231h.441a1.363,1.363,0,0,1,.6.136,1.83,1.83,0,0,1,.5.357,1.782,1.782,0,0,1,.357.515,1.431,1.431,0,0,1,.136.609ZM27.531-1.3a1.394,1.394,0,0,1-.449,1.082,1.486,1.486,0,0,1-1.033.41h-.188a1.5,1.5,0,0,1-1.022-.41A1.379,1.379,0,0,1,24.381-1.3V-6.2H16.695V-1.3a1.379,1.379,0,0,1-.459,1.082,1.5,1.5,0,0,1-1.022.41h-.188a1.486,1.486,0,0,1-1.033-.41A1.394,1.394,0,0,1,13.545-1.3v-8.883a13.385,13.385,0,0,1,.095-1.575,6.142,6.142,0,0,1,.378-1.523,5.724,5.724,0,0,1,.767-1.365,4.311,4.311,0,0,1,1.26-1.1,6.927,6.927,0,0,1,1.879-.735,10.984,10.984,0,0,1,2.615-.273,10.984,10.984,0,0,1,2.614.273,6.927,6.927,0,0,1,1.88.735,4.311,4.311,0,0,1,1.26,1.1,5.724,5.724,0,0,1,.767,1.365,6.142,6.142,0,0,1,.378,1.523,13.385,13.385,0,0,1,.094,1.575Zm-3.15-8.883A4.965,4.965,0,0,0,24.2-11.55a2.49,2.49,0,0,0-.623-1.082,2.966,2.966,0,0,0-1.182-.7,5.834,5.834,0,0,0-1.858-.252,5.834,5.834,0,0,0-1.858.252,2.966,2.966,0,0,0-1.182.7,2.49,2.49,0,0,0-.623,1.082,4.965,4.965,0,0,0-.179,1.365v.819h7.686Zm20.286-4.578a1.485,1.485,0,0,1-.483,1.113,1.563,1.563,0,0,1-1.113.462H39.312V-1.3A1.39,1.39,0,0,1,38.86-.221a1.5,1.5,0,0,1-1.04.41h-.21a1.514,1.514,0,0,1-1.029-.41A1.375,1.375,0,0,1,36.12-1.3V-13.188H32.382a1.563,1.563,0,0,1-1.113-.462,1.485,1.485,0,0,1-.483-1.113,1.531,1.531,0,0,1,.126-.609,1.626,1.626,0,0,1,.347-.515,1.782,1.782,0,0,1,.514-.357,1.431,1.431,0,0,1,.609-.137H43.071a1.363,1.363,0,0,1,.6.137,1.83,1.83,0,0,1,.5.357,1.782,1.782,0,0,1,.357.515A1.431,1.431,0,0,1,44.667-14.763ZM51.744-1.3A1.434,1.434,0,0,1,51.3-.252a1.434,1.434,0,0,1-1.05.441h-.21A1.445,1.445,0,0,1,49-.252a1.418,1.418,0,0,1-.451-1.05V-14.889a1.317,1.317,0,0,1,.126-.577A1.834,1.834,0,0,1,49-15.939a1.392,1.392,0,0,1,.472-.325,1.441,1.441,0,0,1,.567-.116h.21a1.434,1.434,0,0,1,1.05.441,1.434,1.434,0,0,1,.441,1.05ZM73.71-8.19a8.4,8.4,0,0,1-.7,3.465,8.174,8.174,0,0,1-1.9,2.688A8.71,8.71,0,0,1,68.334-.3a8.927,8.927,0,0,1-3.3.62,9.037,9.037,0,0,1-3.307-.609,8.5,8.5,0,0,1-2.762-1.732,8.322,8.322,0,0,1-1.9-2.688,8.38,8.38,0,0,1-.7-3.476,8.452,8.452,0,0,1,.7-3.486,8.174,8.174,0,0,1,1.9-2.688A8.74,8.74,0,0,1,61.729-16.1a8.9,8.9,0,0,1,3.307-.62,8.927,8.927,0,0,1,3.3.62,8.71,8.71,0,0,1,2.772,1.733,8.174,8.174,0,0,1,1.9,2.688A8.453,8.453,0,0,1,73.71-8.19Zm-3.192,0a5.218,5.218,0,0,0-.41-2.058,5.2,5.2,0,0,0-1.145-1.691,5.6,5.6,0,0,0-1.733-1.155,5.48,5.48,0,0,0-2.194-.431,5.48,5.48,0,0,0-2.194.431,5.6,5.6,0,0,0-1.732,1.155,5.2,5.2,0,0,0-1.145,1.691,5.218,5.218,0,0,0-.41,2.058,5.242,5.242,0,0,0,.41,2.048,5.168,5.168,0,0,0,1.145,1.7,5.6,5.6,0,0,0,1.732,1.155,5.48,5.48,0,0,0,2.194.431,5.48,5.48,0,0,0,2.194-.431,5.6,5.6,0,0,0,1.733-1.155,5.168,5.168,0,0,0,1.145-1.7A5.242,5.242,0,0,0,70.518-8.19Zm22.092,6.8a1.533,1.533,0,0,1-.459,1.1,1.51,1.51,0,0,1-1.126.473h-.376A1.519,1.519,0,0,1,89.4-.42Q88.32-1.785,87.328-3.035L85.355-5.523q-.982-1.239-1.984-2.51t-2.1-2.656V-1.3a1.439,1.439,0,0,1-.438,1.05,1.42,1.42,0,0,1-1.043.441H79.6a1.42,1.42,0,0,1-1.043-.441A1.439,1.439,0,0,1,78.12-1.3v-13.44a1.575,1.575,0,0,1,.463-1.145,1.529,1.529,0,0,1,1.136-.472h.547a1.537,1.537,0,0,1,.694.168,1.653,1.653,0,0,1,.568.462q1.01,1.281,1.988,2.53l1.957,2.5q.978,1.25,1.957,2.52t2.03,2.594v-9.3a1.324,1.324,0,0,1,.125-.577,1.835,1.835,0,0,1,.323-.473,1.383,1.383,0,0,1,.469-.325,1.423,1.423,0,0,1,.563-.116h.188a1.41,1.41,0,0,1,1.053.441,1.456,1.456,0,0,1,.428,1.05Z" transform="translate(141.91 115.933)" fill="#b0a671"/><path d="M-23.492-6.608a2.6,2.6,0,0,0,1.386-.28,1.334,1.334,0,0,0,.434-1.162V-9.856c0-1.008-.364-1.47-1.82-1.47h-1.6c-1.456,0-1.82.518-1.82,1.526V.616c0,.392.378.588.756.588s.756-.2.756-.588V-6.608Zm-1.9-1.12v-.7h2.226v.378c0,.252-.084.322-.434.322Zm2.226-1.764H-25.4v-.364c0-.252.1-.322.448-.322H-23.6c.35,0,.434.07.434.322Zm6.552,2.884v5.74c0,.35-.112.448-.42.448a4.384,4.384,0,0,1-.588-.056.709.709,0,0,0-.854.742.7.7,0,0,0,.63.728,6.164,6.164,0,0,0,1.022.084c1.162,0,1.722-.5,1.722-1.792V-9.8c0-1.008-.364-1.526-1.806-1.526h-1.736c-1.456,0-1.806.462-1.806,1.47V-8.05c0,1.008.35,1.442,1.806,1.442Zm0-1.12h-1.918c-.336,0-.434-.07-.434-.322v-.378h2.352Zm0-1.764H-18.97v-.364c0-.252.1-.322.434-.322h1.484c.336,0,.434.07.434.322Zm-2.366,4.76h.854c.336,0,.49-.308.49-.6s-.154-.6-.49-.6h-5.642c-.322,0-.49.294-.49.6a.543.543,0,0,0,.49.6h.728v.588c0,.168,0,.322-.014.462h-1.26c-.322,0-.49.294-.49.6a.543.543,0,0,0,.49.6h1.106A3.369,3.369,0,0,1-24.318-.672a.679.679,0,0,0-.252.518.712.712,0,0,0,.714.686.832.832,0,0,0,.532-.224A4.631,4.631,0,0,0-21.8-2.478h1.442V-.21a.622.622,0,0,0,.686.574.615.615,0,0,0,.686-.574V-2.478h1.3c.336,0,.49-.308.49-.6s-.154-.6-.49-.6h-1.3Zm-1.372,0v1.05h-1.33a3.165,3.165,0,0,0,.014-.364v-.686ZM-7.182.308H-1.19c.308,0,.448-.308.448-.6s-.14-.6-.448-.6H-4.046v-.77H-2.03a.5.5,0,0,0,.462-.56.5.5,0,0,0-.462-.56H-4.046v-.756H-2.03a.5.5,0,0,0,.462-.56.5.5,0,0,0-.462-.56H-4.046v-.77H-1.4A.53.53,0,0,0-.91-6.02a.53.53,0,0,0-.49-.588H-3.948c.07-.154.14-.322.224-.518a.533.533,0,0,0,.056-.238c0-.336-.35-.532-.714-.532a.675.675,0,0,0-.672.434,8.084,8.084,0,0,1-.322.854H-6.8c.056-.112.126-.238.182-.35a.735.735,0,0,0,.084-.322.662.662,0,0,0-.714-.6A.692.692,0,0,0-7.9-7.49a13.14,13.14,0,0,1-2.03,3.024.733.733,0,0,0-.238.518.657.657,0,0,0,.686.616A.756.756,0,0,0-8.9-3.6c.112-.112.21-.238.322-.364V.672c0,.35.35.518.7.518s.7-.168.7-.518Zm0-1.2v-.77h1.736V-.9Zm0-1.89v-.756h1.736v.756Zm0-1.876v-.476c0-.2.07-.294.364-.294h1.372v.77ZM-5.81-9.3H-7.14c-.252,0-.322-.084-.322-.336v-.91c0-.392-.35-.574-.714-.574s-.714.182-.714.574v1.2c0,.868.35,1.218,1.3,1.218h5.012c.952,0,1.3-.35,1.3-1.218v-1.2c0-.392-.35-.574-.714-.574s-.714.182-.714.574v.91c0,.252-.07.336-.322.336H-4.382v-1.96c0-.392-.35-.574-.714-.574s-.714.182-.714.574ZM-11.942.742c0,.378.378.56.756.56s.756-.182.756-.56v-7.56a.634.634,0,0,0-.616-.56A20.342,20.342,0,0,0-9.8-10.892a1.081,1.081,0,0,0,.028-.21.738.738,0,0,0-.812-.7.726.726,0,0,0-.756.532,17.072,17.072,0,0,1-2.2,5.32.9.9,0,0,0-.168.49.729.729,0,0,0,.742.7.8.8,0,0,0,.686-.392c.112-.168.224-.336.336-.518ZM7.574-5.726c-1.162,0-1.568.462-1.568,1.358V.7c0,.378.364.56.728.56s.728-.182.728-.56V-1.092h3.36v.476c0,.392-.084.42-.364.42a5.05,5.05,0,0,1-.546-.042A.6.6,0,0,0,9.24.406a.637.637,0,0,0,.546.672,7.018,7.018,0,0,0,.924.07c1.134,0,1.554-.5,1.554-1.652V-4.368c0-.9-.392-1.358-1.568-1.358Zm2.8,1.176c.364,0,.448.07.448.322v.322H7.462v-.322c0-.252.07-.322.434-.322Zm.448,2.366H7.462v-.63h3.36ZM8.33-7.448H5.46c-.322,0-.49.294-.49.6a.543.543,0,0,0,.49.6h7.616c.336,0,.49-.308.49-.6s-.154-.6-.49-.6H9.8v-.518h2.016a.516.516,0,0,0,.49-.574.509.509,0,0,0-.49-.574H9.8v-.5h2.8c.336,0,.49-.294.49-.588s-.154-.588-.49-.588H9.8v-.56c0-.392-.364-.588-.728-.588s-.742.2-.742.588v.56H5.8a.53.53,0,0,0-.49.588.53.53,0,0,0,.49.588H8.33v.5H6.5c-.322,0-.476.28-.476.574a.514.514,0,0,0,.476.574H8.33ZM3.612-11.242a.676.676,0,0,0-.756-.616.676.676,0,0,0-.756.616V.63a.677.677,0,0,0,.756.63A.677.677,0,0,0,3.612.63ZM.826-8.456A10.556,10.556,0,0,1,.448-6.538a.963.963,0,0,0-.028.182.535.535,0,0,0,.56.518.567.567,0,0,0,.56-.434,9.939,9.939,0,0,0,.378-2.044.53.53,0,0,0-.56-.588A.5.5,0,0,0,.826-8.456ZM4.788-9.03a.54.54,0,0,0-.518-.392.5.5,0,0,0-.532.476.7.7,0,0,0,.028.168c.1.336.2.868.266,1.274a.5.5,0,0,0,.5.448.575.575,0,0,0,.574-.672A8.4,8.4,0,0,0,4.788-9.03ZM22.932-6.412V-9.576c0-.238.1-.336.35-.336H25.13c.308,0,.378.07.378.308v.98c0,.2-.07.28-.266.28a2.781,2.781,0,0,1-.63-.07.622.622,0,0,0-.742.644.661.661,0,0,0,.56.658,5.644,5.644,0,0,0,1.008.084c.952,0,1.5-.42,1.5-1.33V-9.772c0-.952-.476-1.4-1.582-1.4H23c-1.05,0-1.526.406-1.526,1.344V.756c0,.35.364.532.728.532s.728-.182.728-.532V-5.18h.322A11.061,11.061,0,0,0,24.5-1.61,8.076,8.076,0,0,1,23.338-.07a.778.778,0,0,0-.252.546.67.67,0,0,0,.7.616A.724.724,0,0,0,24.3.868a9.939,9.939,0,0,0,1.008-1.26A8.064,8.064,0,0,0,26.5.812a.72.72,0,0,0,.462.182.739.739,0,0,0,.7-.742.733.733,0,0,0-.294-.588,7.562,7.562,0,0,1-1.344-1.33A12.007,12.007,0,0,0,27.034-4.69a2.62,2.62,0,0,0,.056-.56c0-.714-.364-1.162-1.5-1.162Zm2.45,1.232c.252,0,.308.07.28.28a10.376,10.376,0,0,1-.476,1.862,8.858,8.858,0,0,1-.672-2.142Zm-6.888-5.236v-.924c0-.364-.35-.532-.714-.532s-.714.168-.714.532v.924H15.6a.579.579,0,0,0-.532.644.579.579,0,0,0,.532.644h1.47v.882H14.938a.579.579,0,0,0-.532.644.579.579,0,0,0,.532.644h5.67a.58.58,0,0,0,.546-.644.58.58,0,0,0-.546-.644H18.494v-.882h1.5a.58.58,0,0,0,.546-.644.58.58,0,0,0-.546-.644ZM17.066-2.562h-1.61a.579.579,0,0,0-.532.644.579.579,0,0,0,.532.644h1.61V.742c0,.35.364.532.714.532s.714-.182.714-.532V-1.274h1.638a.58.58,0,0,0,.546-.644.58.58,0,0,0-.546-.644H18.494v-.966h2.114a.58.58,0,0,0,.546-.644.58.58,0,0,0-.546-.644h-1.33a11.9,11.9,0,0,0,.532-1.246.562.562,0,0,0,.042-.21.658.658,0,0,0-.7-.6.66.66,0,0,0-.644.462,12.76,12.76,0,0,1-.672,1.6h-2.9a.579.579,0,0,0-.532.644.579.579,0,0,0,.532.644h2.128Zm-1.288-3.4c.14.266.224.448.336.7a.573.573,0,0,0,.546.336.683.683,0,0,0,.714-.63.748.748,0,0,0-.07-.28,5.526,5.526,0,0,0-.322-.644.688.688,0,0,0-.616-.364.638.638,0,0,0-.672.574A.681.681,0,0,0,15.778-5.964Z" transform="translate(141.91 142.485)" fill="#b0a671"/><g transform="translate(105.679 38.036)"><g transform="translate(-6.77 0)" clip-path="url(#a)"><path d="M66.183,40.788a21.33,21.33,0,0,1-2.766,2.278.878.878,0,0,1-1.359-.826,18.473,18.473,0,0,1,.531-2.6c.591-2.223,1.513-4.807,2.326-7.087.572-1.6,1.066-2.989,1.332-3.938.683-2.44.611-4.16-.222-5.257a2.946,2.946,0,0,0-2.486-1.117c-2.976,0-7.2,3.009-8.568,5.473a2.9,2.9,0,0,0-.189,3.091.879.879,0,0,0,1.361.164c.83-.812,1.487-1.389,2-1.8a.878.878,0,0,1,1.408.869c-.4,1.854-1.3,4.5-1.864,6.192-.474,1.408-.921,2.737-1.21,3.79-1.04,3.783-1.029,6.3.034,7.693a2.961,2.961,0,0,0,2.461,1.138c3.328,0,7.846-3.915,9.633-5.6a.879.879,0,0,0,.011-1.269L67.4,40.8a.878.878,0,0,0-1.214-.011Z" transform="translate(-19.756 -8.074)" fill="#b0a671"/><path d="M67.949,0a4.913,4.913,0,1,1-4.913,4.913A4.913,4.913,0,0,1,67.949,0" transform="translate(-22.88 0)" fill="#b0a671"/><path d="M1.466,41.981A1.475,1.475,0,0,1,0,40.509v-15.4a1.471,1.471,0,0,1,1.926-1.4L20.946,29.9a.564.564,0,0,0,.5-.079l1.18-.852a1.471,1.471,0,0,1,2.333,1.193v5.3a1.471,1.471,0,0,1-2.333,1.193L21.45,35.8a.568.568,0,0,0-.5-.079L1.926,41.907a1.474,1.474,0,0,1-.46.074m0-17.436a.565.565,0,0,0-.562.564v15.4a.563.563,0,0,0,.738.536l19.02-6.187a1.477,1.477,0,0,1,1.317.206l1.179.852a.564.564,0,0,0,.894-.457v-5.3a.564.564,0,0,0-.894-.457l-1.179.852a1.475,1.475,0,0,1-1.317.206L1.645,24.573a.56.56,0,0,0-.176-.028" transform="translate(0 -8.58)" fill="#91e0f8"/><path d="M117.2,41.982a1.493,1.493,0,0,1-.46-.074L97.72,35.72a.565.565,0,0,0-.5.079l-1.179.852A1.471,1.471,0,0,1,93.7,35.459v-5.3a1.471,1.471,0,0,1,2.333-1.193l1.179.852a.569.569,0,0,0,.5.079l19.02-6.188a1.471,1.471,0,0,1,1.926,1.4v15.4a1.474,1.474,0,0,1-1.466,1.473m-19.652-7.2a1.458,1.458,0,0,1,.454.072l19.02,6.187a.564.564,0,0,0,.738-.536V25.11a.564.564,0,0,0-.738-.536L98,30.761a1.475,1.475,0,0,1-1.317-.206L95.5,29.7a.564.564,0,0,0-.893.457v5.3a.564.564,0,0,0,.893.457l1.18-.852a1.477,1.477,0,0,1,.863-.278" transform="translate(-34.012 -8.58)" fill="#ffa5d1"/></g></g></g></svg>