<svg xmlns="http://www.w3.org/2000/svg" xmlns:xlink="http://www.w3.org/1999/xlink" width="458" height="131.978" viewBox="0 0 458 131.978"><defs><clipPath id="a"><rect width="458" height="90.648" fill="none"/></clipPath></defs><g transform="translate(-410 -4153.365)"><g transform="translate(410 4153.365)"><g transform="translate(0 0.001)" clip-path="url(#a)"><path d="M34.087,71.8a8.033,8.033,0,1,1,8.032-8.033A8.042,8.042,0,0,1,34.087,71.8" transform="translate(-0.291 -0.623)" fill="#72acde"/><path d="M34.124,59.007A4.795,4.795,0,1,0,38.918,63.8a4.8,4.8,0,0,0-4.794-4.795" transform="translate(-0.328 -0.66)" fill="#fff"/><path d="M32.38,83.514a4.877,4.877,0,1,1,4.877-4.878,4.883,4.883,0,0,1-4.877,4.878" transform="translate(-0.307 -0.824)" fill="#72acde"/><path d="M32.409,76.345a2.32,2.32,0,1,0,2.319,2.32,2.323,2.323,0,0,0-2.319-2.32" transform="translate(-0.336 -0.853)" fill="#fff"/><path d="M12.993,79.814a9.855,9.855,0,1,1,9.856-9.855,9.866,9.866,0,0,1-9.856,9.855" transform="translate(-0.035 -0.672)" fill="#72acde"/><path d="M13.035,63.9A6.106,6.106,0,1,0,19.14,70,6.112,6.112,0,0,0,13.035,63.9" transform="translate(-0.077 -0.714)" fill="#fff"/><path d="M16.57,57.633a16.57,16.57,0,1,1,16.57-16.57,16.589,16.589,0,0,1-16.57,16.57" transform="translate(0 -0.274)" fill="#72acde"/><path d="M16.62,29.016a12.1,12.1,0,1,0,12.1,12.1,12.111,12.111,0,0,0-12.1-12.1" transform="translate(-0.051 -0.325)" fill="#fff"/><path d="M9.851,41.9a1.279,1.279,0,0,1-1.28-1.279,7.728,7.728,0,0,1,7.72-7.719,1.278,1.278,0,1,1,0,2.556,5.168,5.168,0,0,0-5.163,5.163A1.278,1.278,0,0,1,9.851,41.9" transform="translate(-0.096 -0.368)" fill="#72acde"/><path d="M419.636,58.715a8.033,8.033,0,1,1,8.032-8.033,8.042,8.042,0,0,1-8.032,8.033" transform="translate(-4.598 -0.477)" fill="#72acde"/><path d="M419.673,45.924a4.795,4.795,0,1,0,4.794,4.795,4.8,4.8,0,0,0-4.794-4.795" transform="translate(-4.634 -0.514)" fill="#fff"/><path d="M429.352,88.029a4.877,4.877,0,1,1,4.877-4.878,4.884,4.884,0,0,1-4.877,4.878" transform="translate(-4.742 -0.875)" fill="#72acde"/><path d="M429.381,80.859a2.32,2.32,0,1,0,2.32,2.32,2.323,2.323,0,0,0-2.32-2.32" transform="translate(-4.771 -0.904)" fill="#fff"/><path d="M434.159,76.4a9.855,9.855,0,1,1,9.855-9.855,9.866,9.866,0,0,1-9.855,9.855" transform="translate(-4.74 -0.634)" fill="#72acde"/><path d="M434.2,60.485a6.106,6.106,0,1,0,6.105,6.106,6.112,6.112,0,0,0-6.105-6.106" transform="translate(-4.782 -0.676)" fill="#fff"/><path d="M446.23,56.159a16.57,16.57,0,1,1,16.57-16.57,16.589,16.589,0,0,1-16.57,16.57" transform="translate(-4.8 -0.258)" fill="#72acde"/><path d="M446.28,27.542a12.1,12.1,0,1,0,12.1,12.1,12.111,12.111,0,0,0-12.1-12.1" transform="translate(-4.85 -0.308)" fill="#fff"/><path d="M439.51,40.422a1.279,1.279,0,0,1-1.28-1.279,7.728,7.728,0,0,1,7.72-7.719,1.278,1.278,0,1,1,0,2.556,5.168,5.168,0,0,0-5.162,5.163,1.279,1.279,0,0,1-1.279,1.279" transform="translate(-4.895 -0.352)" fill="#72acde"/><path d="M305.153,56.9c-.011-.209-.03-.416-.03-.627a11.281,11.281,0,0,1,3.307-8.094l12.651-12.538a5.722,5.722,0,0,0-8.091-8.094L300.451,40.2a22.409,22.409,0,0,0-6.727,16.072c0,.21.01.418.016.627Z" transform="translate(-3.281 -0.29)" fill="#b06da7"/><path d="M308.429,64.714a11.235,11.235,0,0,1-3.277-7.467H293.74a22.387,22.387,0,0,0,6.71,15.446L314.242,86.6a5.723,5.723,0,0,0,8.094-8.094Z" transform="translate(-3.281 -0.64)" fill="#2a3b72"/><path d="M248.409,0a23.765,23.765,0,0,1,2.962,4.073,24.307,24.307,0,0,1-5.933,30.887A19.139,19.139,0,0,0,248.409,0" transform="translate(-2.742 0)" fill="#72acde"/><path d="M405.37,66.673a4.929,4.929,0,0,1-4.787,5.7,6.47,6.47,0,0,1-6.27-4.9,11.747,11.747,0,0,0-7.864-7.979c-.229-.115-.342.114-.342.341v8.207A22.645,22.645,0,0,1,363.423,90.61h-6.611a21.427,21.427,0,0,1-2.165-42.745c.227,0,.342-.227.342-.456V39.43c0-.228-.115-.456-.342-.456h-9.576a5.643,5.643,0,1,1,0-11.285h9.576c.227,0,.342-.228.342-.457V24.726a5.715,5.715,0,0,1,5.7-5.7,5.644,5.644,0,0,1,5.7,5.7v2.508a.49.49,0,0,0,.456.457H387.7a5.643,5.643,0,1,1,0,11.285H366.844a.489.489,0,0,0-.456.456v7.864a.49.49,0,0,0,.456.457h16.185A22.762,22.762,0,0,1,405.37,66.673m-30.32-7.522c0-.228-.227-.343-.457-.343h-7.749c-.229,0-.456.115-.456.343v7.637a5.643,5.643,0,0,1-5.7,5.7,5.715,5.715,0,0,1-5.7-5.7V59.378c0-.227-.115-.456-.342-.342a10.437,10.437,0,0,0,2.165,20.632h6.611A11.674,11.674,0,0,0,375.05,68.041Z" transform="translate(-3.746 -0.213)" fill="#a96ba7"/><path d="M282.468,66.673a4.929,4.929,0,0,1-4.787,5.7,6.469,6.469,0,0,1-6.27-4.9,11.746,11.746,0,0,0-7.864-7.979c-.229-.115-.342.114-.342.341v8.207A22.645,22.645,0,0,1,240.521,90.61H233.91a21.427,21.427,0,0,1-2.166-42.745c.227,0,.342-.227.342-.456V39.43c0-.228-.115-.456-.342-.456h-9.576a5.643,5.643,0,1,1,0-11.285h9.576c.227,0,.342-.228.342-.457V24.726a5.715,5.715,0,0,1,5.7-5.7,5.644,5.644,0,0,1,5.7,5.7v2.508a.49.49,0,0,0,.456.457H264.8a5.643,5.643,0,1,1,0,11.285H243.942a.489.489,0,0,0-.456.456v7.864a.49.49,0,0,0,.456.457h16.185a22.762,22.762,0,0,1,22.342,18.921m-30.32-7.522c0-.228-.227-.343-.457-.343h-7.749c-.229,0-.456.115-.456.343v7.637a5.643,5.643,0,0,1-5.7,5.7,5.715,5.715,0,0,1-5.7-5.7V59.378c0-.227-.115-.456-.342-.342a10.437,10.437,0,0,0,2.166,20.632h6.611a11.674,11.674,0,0,0,11.627-11.627Z" transform="translate(-2.374 -0.213)" fill="#a96ba7"/><path d="M120.95,60.714q-2.885-2.084-4.405-3.125a4.411,4.411,0,0,0,2.924-1.4,4.249,4.249,0,0,0,1.161-3,4.38,4.38,0,0,0-4.485-4.485h-7.69q-.641-1.041-1.441-2.483H110.3a3.925,3.925,0,0,0,0-7.849H97.4q.079-.722.32-2.083H112.3a4.649,4.649,0,0,0,4.646-4.646,4.648,4.648,0,0,0-1.321-3.364,4.443,4.443,0,0,0-3.324-1.362H98.763a14.207,14.207,0,0,0,.16-2.4,5.2,5.2,0,0,0-1.641-4.166A6.053,6.053,0,0,0,93,18.742q-4.488,0-5.287,4.646-.082.481-.24,3.524h-8.33a4.44,4.44,0,0,0-3.324,1.362,4.648,4.648,0,0,0-1.321,3.364,4.649,4.649,0,0,0,4.646,4.646h7.45q-.162,1.123-.321,2.083H80.34a3.925,3.925,0,1,0,0,7.849h3.685q-.562,1.2-1.2,2.483H76.015a4.38,4.38,0,0,0-4.485,4.485,4.244,4.244,0,0,0,1.282,3.124,4.532,4.532,0,0,0,3.124,1.362l-3.525,3.364a6.166,6.166,0,0,0-2,4.246A4.978,4.978,0,0,0,71.93,69a5.178,5.178,0,0,0,3.763,1.482,5.8,5.8,0,0,0,3.765-1.562Q81.3,67.361,82.743,66a3.968,3.968,0,0,0,3.764,2.323h18.1a4,4,0,0,0,2.883-1.162,4.086,4.086,0,0,0,1.282-2.844,66.918,66.918,0,0,0,6.649,5.126,5.031,5.031,0,0,0,2.963.962,4.634,4.634,0,0,0,3.566-1.523,5.243,5.243,0,0,0,1.4-3.683,5.636,5.636,0,0,0-2.4-4.485M95.559,46.455l.08-.239h2.643a4.448,4.448,0,0,0-.4,2.483H94.837q.561-1.682.722-2.244M88.429,59.832q.881-1.2,1.6-2.163h12.575q.881,1.123,1.762,2.163Z" transform="translate(-0.786 -0.21)" fill="#a96ba7"/><path d="M97.893,49.037H76.026a4.38,4.38,0,0,0-4.485,4.485,4.248,4.248,0,0,0,1.282,3.124,4.536,4.536,0,0,0,3.124,1.362H102.62l13.938-.08a4.409,4.409,0,0,0,2.923-1.4,4.243,4.243,0,0,0,1.161-3,4.38,4.38,0,0,0-4.485-4.485H97.893Z" transform="translate(-0.799 -0.548)" fill="#2a3b72"/><path d="M232.132,47.409V39.43c0-.228-.115-.457-.342-.457h-9.575a5.643,5.643,0,1,1,0-11.285h9.575c.227,0,.342-.228.342-.456V24.726a5.716,5.716,0,0,1,5.7-5.7,5.644,5.644,0,0,1,5.7,5.7v2.508a.49.49,0,0,0,.457.456h20.857a5.643,5.643,0,1,1,0,11.285H243.988a.49.49,0,0,0-.457.457V66.787a5.644,5.644,0,0,1-5.7,5.7,5.716,5.716,0,0,1-5.7-5.7V47.409Z" transform="translate(-2.419 -0.213)" fill="#2a3b72"/><path d="M366.844,48.076h16.185A22.764,22.764,0,0,1,405.371,67a4.93,4.93,0,0,1-4.788,5.7,6.47,6.47,0,0,1-6.27-4.9,11.747,11.747,0,0,0-7.864-7.979c-.229-.115-.342.114-.342.341v8.207a22.645,22.645,0,0,1-22.684,22.569h-6.611a21.427,21.427,0,0,1-2.165-42.745Zm-12.2,11.285a10.437,10.437,0,0,0,2.165,20.632h6.611A11.674,11.674,0,0,0,375.05,68.366V59.475c0-.228-.227-.343-.457-.343h-7.749Z" transform="translate(-3.746 -0.538)" fill="#2a3b72"/><path d="M63.529,37.823A5.192,5.192,0,0,1,58.8,40.466a7.736,7.736,0,0,1-3.683-1.041l-2.563-1.362a5.951,5.951,0,0,1-2.8-4.807,5.611,5.611,0,0,1,1.682-4.045,5.411,5.411,0,0,1,4-1.722,7.591,7.591,0,0,1,3.685.961l2.484,1.362a6.115,6.115,0,0,1,2.722,5.126,5.343,5.343,0,0,1-.8,2.884" transform="translate(-0.556 -0.308)" fill="#2a3b72"/><path d="M63.529,57.02A5.19,5.19,0,0,1,58.8,59.663a7.3,7.3,0,0,1-3.683-.961l-2.563-1.441a5.951,5.951,0,0,1-2.8-4.807,5.61,5.61,0,0,1,1.682-4.045,5.411,5.411,0,0,1,4-1.722,7.3,7.3,0,0,1,3.685.961l2.484,1.442a5.981,5.981,0,0,1,2.722,5.126,5.2,5.2,0,0,1-.8,2.8" transform="translate(-0.556 -0.522)" fill="#a96ba7"/><path d="M69.072,73.241q-2.324,4.647-3.364,6.569a45.676,45.676,0,0,1-3.364,5.446A7.132,7.132,0,0,1,56.9,87.981,5.632,5.632,0,0,1,52.852,86.5a5.209,5.209,0,0,1-1.562-3.965q0-2.163,3.044-7.369Q56.5,71.72,58.66,68.2q1.922-3.444,5.206-3.445,5.767,0,5.767,5.847a5.851,5.851,0,0,1-.561,2.643" transform="translate(-0.573 -0.724)" fill="#2a3b72"/><path d="M97.768,36.375h14.578a4.649,4.649,0,0,0,4.646-4.646,4.648,4.648,0,0,0-1.321-3.364A4.443,4.443,0,0,0,112.346,27H79.185a4.441,4.441,0,0,0-3.324,1.362,4.648,4.648,0,0,0-1.321,3.364,4.649,4.649,0,0,0,4.646,4.646H97.768Z" transform="translate(-0.833 -0.302)" fill="#2a3b72"/><path d="M167.938,90.025c-10.7,0-21.1-5.739-28.146-15.441l-.708,1.21a1.392,1.392,0,0,1-1.2.69l-.3-.032a1.386,1.386,0,0,1-1.084-1.221L135.038,59.7a1.406,1.406,0,0,1,.831-1.4l.218-.095.337-.02a1.376,1.376,0,0,1,1.057.487l9.661,10.719a1.374,1.374,0,0,1,.233,1.507,1.4,1.4,0,0,1-.819.74c.439.51.892,1,1.353,1.462a28.278,28.278,0,0,0,13.768,7.593,3.993,3.993,0,0,0,.493.033c.709,0,1.409-.188,1.746-1.514V45.874l-8.089-.826a1.882,1.882,0,0,1-1.808-1.884V39.256a1.914,1.914,0,0,1,1.932-1.89h7.964V35.69a8.6,8.6,0,1,1,8.039,0v1.676h7.965a1.914,1.914,0,0,1,1.932,1.89v3.909a1.914,1.914,0,0,1-1.932,1.89l-7.965.878V79.206c.341,1.328,1.04,1.516,1.747,1.516a3.764,3.764,0,0,0,.574-.047A28.225,28.225,0,0,0,187.966,73.1q.682-.685,1.352-1.461a1.4,1.4,0,0,1-.606-2.227l9.709-10.767a1.382,1.382,0,0,1,1.029-.459h.216l.3.1a1.389,1.389,0,0,1,.862,1.444l-1.457,15.5a1.387,1.387,0,0,1-1.079,1.225l-.307.033a1.39,1.39,0,0,1-1.2-.7l-.7-1.2c-7.049,9.7-17.452,15.441-28.146,15.441m0-64.241a2.305,2.305,0,1,0,2.3,2.3,2.308,2.308,0,0,0-2.3-2.3" transform="translate(-1.508 -0.218)" fill="#2a3b72"/><path d="M93.429,80.784q-.834.353-1.826.68a33.545,33.545,0,0,1-5.425,1.268,1.4,1.4,0,0,0-.782.389A31.209,31.209,0,0,0,81.1,88.333l-.831,1.275,3.511-.316a1.394,1.394,0,0,1,1.312.658l.577.938a1.392,1.392,0,0,0,2.37.006c.5-.81,1.044-1.688,1.368-2.22,1.223-2.011,2.609-4.292,3.127-4.969.72-.94,1.264-1.616,1.725-2.153a3.689,3.689,0,0,1-.835-.767" transform="translate(-0.897 -0.903)" fill="#2a3b72"/><path d="M107.4,83.12a1.4,1.4,0,0,0-.782-.389,33.544,33.544,0,0,1-5.425-1.268q-.991-.326-1.826-.68a3.69,3.69,0,0,1-.835.767c.462.537,1.006,1.212,1.726,2.153.518.677,1.9,2.958,3.127,4.969.323.532.865,1.41,1.368,2.22a1.392,1.392,0,0,0,2.37-.006l.577-.938a1.4,1.4,0,0,1,1.312-.658l3.511.316-.831-1.275A31.21,31.21,0,0,0,107.4,83.12" transform="translate(-1.101 -0.903)" fill="#2a3b72"/><path d="M82.392,81.633a18.158,18.158,0,0,0,4.889-.389,29.383,29.383,0,0,0,5.573-1.607,3.648,3.648,0,0,1-.226-1.269,3.814,3.814,0,0,1,.027-.441,3.66,3.66,0,0,1,1.175-2.27,1.412,1.412,0,0,0-.063-2.2c-2.806-2.114-7.285-4.1-9.9-4.41-4.1-.479-5.06,12.167-1.471,12.586" transform="translate(-0.896 -0.772)" fill="#2a3b72"/><path d="M100.139,77.927a3.6,3.6,0,0,1,.028.441,3.648,3.648,0,0,1-.226,1.269,29.36,29.36,0,0,0,5.573,1.607,18.148,18.148,0,0,0,4.888.389c3.589-.419,2.625-13.064-1.47-12.586-2.618.307-7.1,2.3-9.9,4.41a1.413,1.413,0,0,0-.062,2.2,3.666,3.666,0,0,1,1.174,2.27" transform="translate(-1.1 -0.772)" fill="#2a3b72"/><path d="M98.958,78.445a2.508,2.508,0,0,0-2.278-2.5c-.076-.007-.153-.011-.231-.011s-.155,0-.231.011a2.51,2.51,0,0,0-2.153,3.283,2.52,2.52,0,0,0,.609.99,2.509,2.509,0,0,0,4.285-1.774" transform="translate(-1.049 -0.849)" fill="#2a3b72"/><path d="M86.335,38.588H80.408a3.925,3.925,0,1,0,0,7.849h29.957a3.925,3.925,0,0,0,0-7.849H86.335Z" transform="translate(-0.854 -0.432)" fill="#a96ba7"/></g></g><path d="M15.52-9.94V-10c0-1.08-.02-1.92-.02-2.18a2.679,2.679,0,0,0-.84-2.4,1.591,1.591,0,0,0-1-.34,2.45,2.45,0,0,0-1.48.54A50.664,50.664,0,0,0,8.56-8.96c-.48-.74-2.1-3.2-3-4.26-.72-.84-1.36-1.52-2.16-1.52a1.938,1.938,0,0,0-.46.06c-.88.3-1.3,1.04-1.3,2.3,0,.24-.02.86-.02,1.74v.08C1.58-7.78,1.5-2.58,1.6-1.64c.16,1.4,1.06,1.6,1.58,1.6h.1A1.72,1.72,0,0,0,4.92-1.7c.02-.58.02-5.12.02-6.6.54.68,1.58,1.96,2.24,2.68a2.077,2.077,0,0,0,1.48.74,1.858,1.858,0,0,0,1.36-.64c.32-.32,1.5-2.1,2.12-3.02l.04,1.5c.08,2.02.18,4.88.2,5.44a1.573,1.573,0,0,0,1.7,1.5,1.534,1.534,0,0,0,1.48-1.5C15.6-2.18,15.56-7.04,15.52-9.94ZM30.2-7.26c-.04-2.42-.08-4.94-.06-5.48A1.716,1.716,0,0,0,29.68-14a1.709,1.709,0,0,0-1.2-.54,1.781,1.781,0,0,0-1.78,1.6c-.14,1.06.06,9.3.12,10.66.04,1.06.5,2.22,1.68,2.22a.18.18,0,0,0,.1-.02c1.32-.08,1.62-.82,1.66-1.98C30.28-2.52,30.24-4.82,30.2-7.26Zm22.94-7.72H53.1a1.633,1.633,0,0,0-1.62,1.66V-5.7c-1.12-1.54-5.34-7.4-6-8.12a2.915,2.915,0,0,0-2.16-1.06c-.1,0-.2.02-.28.02a1.83,1.83,0,0,0-1.64,1.84c-.02.66.02,9.92.12,11.12A1.617,1.617,0,0,0,43.16-.22a1.641,1.641,0,0,0,1.62-1.46c.02-.74,0-5.66-.02-7.16C45.94-7.26,50.7-.94,51.74-.4a2.148,2.148,0,0,0,1.02.26A1.819,1.819,0,0,0,54.6-1.68c.06-.92.12-10.9.12-11.7A1.655,1.655,0,0,0,53.14-14.98ZM79.88-1.96c-.4-.84-4.68-11.44-5.2-12.3-.52-.88-2.18-1.08-3.14-.68-.94.4-1.5,2.22-2.02,3.5-.52,1.26-3.96,8.1-4.44,9.38s.08,2.14,1,2.34S67.4.22,68.06-.7c.2-.28,1.1-2.04,1.5-2.88.04-.08.12-.26.22-.48l5.7-.02C76-2.78,76.52-1.5,76.82-.96A1.954,1.954,0,0,0,79.24,0,1.413,1.413,0,0,0,79.88-1.96Zm-7.12-8.72s.86,2.24,1.36,3.34l-2.88.02C72.02-9.04,72.76-10.68,72.76-10.68Zm28.22-4.6c-.94-.12-8.86-.12-9.98-.08-.96.04-2.06.56-1.92,1.7.16,1.14.84,1.36,1.84,1.4.32.02,1.74,0,3.42-.04-.1,1.94-.06,9.34-.02,10.46C94.36-.82,94.8.28,95.94.2c1.24-.06,1.46-.76,1.5-1.82.04-.86,0-9.14.04-10.72,1.62-.02,2.98-.04,3.36-.02a1.458,1.458,0,0,0,1.52-1.4A1.515,1.515,0,0,0,100.98-15.28ZM126.02-9.5a7.489,7.489,0,0,0-7.22-5.34h-.16A7.084,7.084,0,0,0,112-9.46a8.366,8.366,0,0,0,2.7,8.06,7.734,7.734,0,0,0,4.5,1.28,8.124,8.124,0,0,0,3.84-.9C125.58-2.4,126.94-6.28,126.02-9.5Zm-3.48,3.6A3.515,3.515,0,0,1,119-3.72a3.654,3.654,0,0,1-3.46-2.6,3.932,3.932,0,0,1,1.06-4.08,3.712,3.712,0,0,1,2.42-.8,3.663,3.663,0,0,1,2.68,1.04A4.179,4.179,0,0,1,122.54-5.9Zm46.3,3.94c-.4-.84-4.68-11.44-5.2-12.3-.52-.88-2.18-1.08-3.14-.68-.94.4-1.5,2.22-2.02,3.5-.52,1.26-3.96,8.1-4.44,9.38s.08,2.14,1,2.34,1.32-.06,1.98-.98c.2-.28,1.1-2.04,1.5-2.88.04-.08.12-.26.22-.48l5.7-.02c.52,1.3,1.04,2.58,1.34,3.12A1.954,1.954,0,0,0,168.2,0,1.413,1.413,0,0,0,168.84-1.96Zm-7.12-8.72s.86,2.24,1.36,3.34l-2.88.02C160.98-9.04,161.72-10.68,161.72-10.68Zm30,7.38a8.081,8.081,0,0,0,.84-6.24,7.369,7.369,0,0,0-7.24-5.22,6.893,6.893,0,0,0-6.5,5.26,7.742,7.742,0,0,0,2.64,7.92,8.454,8.454,0,0,0,8.18.36.87.87,0,0,0,.14-.08c.14.12.26.22.36.32a1.5,1.5,0,0,0,2,.06c.6-.2.62-1.08.22-1.64C192.24-2.72,192.02-2.98,191.72-3.3Zm-6.04-.36a3.772,3.772,0,0,1-3.6-2.7,4.125,4.125,0,0,1,1.1-4.22,4.2,4.2,0,0,1,5.3.24,4.355,4.355,0,0,1,.88,4.42,1.381,1.381,0,0,0-.06.16,2.4,2.4,0,0,0-.24-.22,1.5,1.5,0,0,0-2.22.02A1.582,1.582,0,0,0,186.98-4c.04.04.08.1.14.16A3.91,3.91,0,0,1,185.68-3.66ZM214.3-14.82a1.79,1.79,0,0,0-1.78,1.94c0,.26,0,.76.02,1.36.04,1.86.1,4.68-.04,5.7a2.286,2.286,0,0,1-2.62,2.24h-.08c-1.7,0-2.24-.98-2.66-2.1-.42-1.08-.3-4.02-.24-5.78.02-.5.04-.9.04-1.16,0-1.42-.56-2.16-1.66-2.2h-.08c-1.12,0-1.8.82-1.8,2.16,0,1.1.04,4.8.2,7.04.22,3.5,2.54,5.52,6.34,5.52h.08a5.484,5.484,0,0,0,5.7-4.72c.1-1.24.16-6.66.16-7.86C215.88-14.02,215.28-14.82,214.3-14.82ZM241.06-1.96c-.4-.84-4.68-11.44-5.2-12.3-.52-.88-2.18-1.08-3.14-.68-.94.4-1.5,2.22-2.02,3.5-.52,1.26-3.96,8.1-4.44,9.38s.08,2.14,1,2.34,1.32-.06,1.98-.98c.2-.28,1.1-2.04,1.5-2.88.04-.08.12-.26.22-.48l5.7-.02c.52,1.3,1.04,2.58,1.34,3.12a1.954,1.954,0,0,0,2.42.96A1.413,1.413,0,0,0,241.06-1.96Zm-7.12-8.72s.86,2.24,1.36,3.34l-2.88.02C233.2-9.04,233.94-10.68,233.94-10.68Z" transform="translate(456 4285)" fill="#514218"/></g></svg>