<svg xmlns="http://www.w3.org/2000/svg" viewBox="0 0 447.44 26.16"><defs><style>.a{fill:#fff;}.b{fill:#b0a671;}</style></defs><path class="a" d="M172.44,23.15a9.05,9.05,0,0,1-5.13-1.44,8.75,8.75,0,0,1-3.17-8.78,8.11,8.11,0,0,1,7.77-6.06h.18a8.6,8.6,0,0,1,8.28,5.88c1.09,3.61-.54,7.84-3.63,9.43h0A9.53,9.53,0,0,1,172.44,23.15Zm-.16-9.24a1.51,1.51,0,0,0-.86.21,1.35,1.35,0,0,0-.26,1.38,1.31,1.31,0,0,0,1.19.65,1.44,1.44,0,0,0,1.12-.4c.32-1-.07-1.39-.23-1.55v0A1.46,1.46,0,0,0,172.28,13.91Z"/><path class="a" d="M182.6,23.52a3.46,3.46,0,0,1-3.49-2.91c-.09-.49-.11-2.27-.07-8.21V10.32a3.52,3.52,0,0,1,3.31-3.62c.29,0,.71,0,1.28,0,1.15,0,2.9.06,4.66.16a5.52,5.52,0,0,1,5.08,5.75h0c-.08,2.68-1.8,5.53-4.92,5.78-.67.06-1.45.1-2.3.11,0,.71,0,1.6,0,2A3.53,3.53,0,0,1,182.6,23.52Zm.42-8.31v.12a.46.46,0,0,0,.07-.07A.18.18,0,0,0,183,15.21Z"/><path class="a" d="M194.91,23.32A3.42,3.42,0,0,1,191.27,20c0-.84,0-3.25,0-7.57,0-.86,0-1.53,0-1.76A3.42,3.42,0,0,1,194.88,7h1c1.62,0,4.74,0,5.53.06a3.3,3.3,0,0,1,3.15,3.39,3.17,3.17,0,0,1-1.32,2.65,3.53,3.53,0,0,1,.67,2.19,3.37,3.37,0,0,1-.83,2,3.5,3.5,0,0,1,1.24,2.66,3.38,3.38,0,0,1-3.09,3.33C200.55,23.27,195.45,23.32,194.91,23.32Zm6.2-2.77h0Zm-.05-1.31Zm.19-8.22h0Z"/><path class="a" d="M215.32,6.76a3.41,3.41,0,0,0-3.43,3.38v.48c-.82-1.06-1.57-2-1.86-2.3a4.59,4.59,0,0,0-3.33-1.48,1.83,1.83,0,0,0-.32,0h-.19A3.57,3.57,0,0,0,203,10.32c0,.62,0,8.39.11,9.52a3.45,3.45,0,0,0,6.87.08v-.39c2.34,2.73,2.9,3,3.24,3.17a3.9,3.9,0,0,0,1.79.43A3.56,3.56,0,0,0,218.64,20c.06-.9.11-9.54.11-9.89A3.42,3.42,0,0,0,215.32,6.76Z"/><path class="a" d="M230.11,23.45h-.21a4.25,4.25,0,0,1-4-3.68c-.09-.78,0-4,.05-9.76a3.93,3.93,0,0,1-3.82-2.65c-.67-2,.11-3.74,2.34-5.19l.12-.07c1.83-1.18,3.91-2.52,6.5-2,3.48.78,3.48,4.49,3.48,5.71s-.18,12.61-.3,14A4.18,4.18,0,0,1,230.11,23.45Zm.19-4v0ZM227.15,5.86a2.75,2.75,0,0,1,1.69.58A3.18,3.18,0,0,1,230,9.08l0,.93c0,2.54-.15,8.49-.07,9.28a.39.39,0,0,0,.27.16l.14-.1c.1-1.64.28-11.83.28-13.51,0-1.37-.17-1.69-.24-1.77l-.1,0c-.92-.2-1.87.37-3.47,1.41l-.11.07A3.5,3.5,0,0,0,226,6h.17l.17,0A2.63,2.63,0,0,1,227.15,5.86Z"/><path class="a" d="M242.53,23.22a5.22,5.22,0,0,1-1.18-.15,3.73,3.73,0,0,1-2.4-1.7,4,4,0,0,1-.4-3.14c.26-1,2.54-6.67,3.86-9.84h-1.24c0,.62-.06,1.22-.1,1.56-.2,1.81-2.16,2.93-3.94,2.93a3.68,3.68,0,0,1-3.82-3.13c-.14-1.15-.06-4.6-.06-4.63a4.77,4.77,0,0,1,5.17-4.6l1.76,0c2.63.06,6.49.15,7.52.19a4.54,4.54,0,0,1,3.42,1.75,4.37,4.37,0,0,1,.7,3.69c-.18.75-4.92,13.8-6,15.11A4.11,4.11,0,0,1,242.53,23.22Zm2.53-18.55A3,3,0,0,1,246.62,6a2.83,2.83,0,0,1,.07,2.48c-1.34,3.16-3.87,9.46-4.23,10.63l.21-.26c.76-1.39,4.94-12.34,5.26-13.63,0-.06.06-.27,0-.34a.54.54,0,0,0-.38-.17Zm-2.34,14.14,0,0ZM237.1,9.4v0Zm.18-.14v0Zm1-4.75c-1,0-1.05.46-1.06.73,0,.47,0,1.09,0,1.72a3.17,3.17,0,0,1,2.23-2.42l-1.11,0Z"/><path class="a" d="M256.37,12.16c-2.41-.34-4.19,1.76-4.75,3.17l-.15.35v.39a4.26,4.26,0,0,0,3.88,4.09l.43,0a4,4,0,0,0,2.67-1,4.23,4.23,0,0,0,1.41-3A4,4,0,0,0,256.37,12.16Z"/><path class="a" d="M255.54,11h.28A4.36,4.36,0,0,0,259,9.62a3.58,3.58,0,0,0,1-2.78,4.14,4.14,0,0,0-3.62-4A4.31,4.31,0,0,0,252.67,4a3.78,3.78,0,0,0-1.29,3.05A4.3,4.3,0,0,0,255.54,11Z"/><path class="a" d="M270.2,23.55A9.85,9.85,0,0,1,263.32,21c-2.23-2.11-2.23-4.54-1.23-6a4.1,4.1,0,0,1,3-1.69,4.87,4.87,0,0,1,1.08,0c-.05-.1-.1-.2-.14-.3a3.81,3.81,0,0,1,1.11-4.28,4.27,4.27,0,0,1-3.31-1,3.52,3.52,0,0,1-1.28-2.95,4.29,4.29,0,0,1,2-3.33A10.55,10.55,0,0,1,270,.06a9.2,9.2,0,0,1,4.91,1.32c2.39,1.52,3.38,3.79,3,6.93a6.7,6.7,0,0,1-1.48,3.19A7.6,7.6,0,0,1,278.15,16a7.34,7.34,0,0,1-6.27,7.47h-.1C271.27,23.49,270.74,23.55,270.2,23.55Zm-4.72-6.3a2.14,2.14,0,0,0,.59.82,5.89,5.89,0,0,0,4.13,1.48c.33,0,.74-.05,1.16-.09A3.33,3.33,0,0,0,274.15,16a3.17,3.17,0,0,0-.55-1.53,3.66,3.66,0,0,1,.26,2.13c-.22,1.59-1.77,2.71-3.85,2.71h-.61a6.56,6.56,0,0,1-3.7-2A.45.45,0,0,0,265.48,17.25Zm4.46-5.66.78.32.47.21a4.77,4.77,0,0,1,1.43,1,3.31,3.31,0,0,1,0-3.27,8.19,8.19,0,0,1-2.54,1.69ZM276,12l0,0ZM270.67,4.1a3.42,3.42,0,0,1,1.5.71A3.34,3.34,0,0,1,273,9.25a.54.54,0,0,1-.07.13l0-.05a3.33,3.33,0,0,0,.91-1.53c.21-1.78-.27-2.47-1.18-3A4.94,4.94,0,0,0,270.67,4.1Zm-4.34.56Z"/><path class="a" d="M288.56,23.74a10.37,10.37,0,0,1-6.48-2.2c-3.52-2.79-5.12-7.22-4.38-12.17A11,11,0,0,1,288.62.21a10.64,10.64,0,0,1,9.9,6.88h0c1.6,4.24.5,11.32-3.36,14.46A10.74,10.74,0,0,1,288.56,23.74Zm-.11-19.53a7.05,7.05,0,0,0-6.8,5.76c-.3,2-.33,5.87,2.91,8.43a6.91,6.91,0,0,0,8.09,0c2.22-1.81,3.3-6.83,2.13-9.94a6.67,6.67,0,0,0-6.22-4.29Zm.16,15.07a7.07,7.07,0,0,1-4.28-1.47c-2.13-1.64-3.58-5.36-1.73-9.66a6.61,6.61,0,0,1,6.52-3.75,6.69,6.69,0,0,1,5.65,5.36c.54,2.81,0,6.44-2.38,8.27h0A6.23,6.23,0,0,1,288.61,19.28Zm0-10.9a2.74,2.74,0,0,0-2.38,1.35c-1.42,3.31.47,4.89.49,4.9a2.71,2.71,0,0,0,3.2.23c.94-.72,1.19-2.76.89-4.31a2.8,2.8,0,0,0-2.07-2.17Z"/><path class="a" d="M314.19,23.37c-.31,0-.61,0-.93,0h-.17a7,7,0,0,1-3.66-1.51,3.35,3.35,0,0,1-.41-4.43,3.72,3.72,0,0,1,1.59-1.2l-.28-.27a5.75,5.75,0,0,1-1-6A5.84,5.84,0,0,1,315,6.42a7.56,7.56,0,0,1,1.64.18c2.38.61,4,1.92,4.5,3.53a3,3,0,0,1-.37,2.5A3.05,3.05,0,0,1,318.88,14a6.45,6.45,0,0,1,1.25,1.62,5.24,5.24,0,0,1-1.77,6.72A7.53,7.53,0,0,1,314.19,23.37Z"/><path class="a" d="M325.89,23.42a3.14,3.14,0,0,1-2.09-.8,4,4,0,0,1-1.21-2.82c0-.73,0-4.31,0-6.79h-1c-2.65-.1-3.41-1.61-3.6-2.87a3.07,3.07,0,0,1,.68-2.41,4,4,0,0,1,2.91-1.3c.78,0,8-.05,9.12.08a3.28,3.28,0,0,1,3,3.25,3.17,3.17,0,0,1-1,2.26,3.21,3.21,0,0,1-2.42.91h-.89c0,.81,0,1.75,0,2.68,0,2.7,0,4,0,4.39a3.16,3.16,0,0,1-3.22,3.4ZM329.37,12h0Zm.89-1.51Z"/><path class="a" d="M362.78,23.42a3.14,3.14,0,0,1-2.1-.8,4,4,0,0,1-1.21-2.82c0-.73-.05-4.31,0-6.79h-1c-2.65-.1-3.41-1.61-3.6-2.87a3.07,3.07,0,0,1,.69-2.41,4,4,0,0,1,2.91-1.3c.77,0,8-.05,9.11.08a3.29,3.29,0,0,1,3,3.25,3.17,3.17,0,0,1-1,2.26,3.24,3.24,0,0,1-2.43.91h-.89v2.68c0,2.7,0,4,0,4.39a3.17,3.17,0,0,1-3.23,3.4ZM366.26,12h0Zm.88-1.51h0Z"/><path class="a" d="M380.58,23.45h-.21a4.25,4.25,0,0,1-4-3.68c-.09-.78-.05-4,.05-9.76a3.93,3.93,0,0,1-3.82-2.65c-.68-2,.11-3.74,2.34-5.19l.12-.07c1.83-1.18,3.9-2.52,6.5-2,3.48.78,3.48,4.49,3.48,5.71s-.18,12.61-.3,14A4.18,4.18,0,0,1,380.58,23.45Zm.18-4v0ZM377.62,5.86a2.72,2.72,0,0,1,1.68.58,3.16,3.16,0,0,1,1.15,2.64l0,.9c-.05,2.55-.15,8.52-.08,9.31a.44.44,0,0,0,.28.16s.08-.05.14-.1c.1-1.64.28-11.83.28-13.51,0-1.37-.17-1.69-.24-1.77l-.1,0c-.92-.2-1.87.38-3.47,1.41l-.12.07a3.73,3.73,0,0,0-.62.48h.16l.18,0A2.63,2.63,0,0,1,377.62,5.86Z"/><path class="a" d="M417.3,23.74a10.35,10.35,0,0,1-6.48-2.2c-3.53-2.79-5.13-7.22-4.39-12.17A11,11,0,0,1,417.35.21a10.64,10.64,0,0,1,9.9,6.88h0c1.59,4.24.49,11.32-3.36,14.46A10.77,10.77,0,0,1,417.3,23.74Zm-.12-19.53a7.07,7.07,0,0,0-6.8,5.76c-.3,2-.33,5.87,2.92,8.43a6.9,6.9,0,0,0,8.08,0c2.22-1.81,3.3-6.83,2.13-9.94a6.67,6.67,0,0,0-6.22-4.29Zm.16,15.07a7.07,7.07,0,0,1-4.28-1.47c-2.13-1.64-3.58-5.36-1.73-9.66a6.62,6.62,0,0,1,6.52-3.75,6.69,6.69,0,0,1,5.66,5.36c.54,2.81,0,6.44-2.38,8.27h0A6.21,6.21,0,0,1,417.34,19.28Zm.05-10.9A2.73,2.73,0,0,0,415,9.73c-1.43,3.31.47,4.89.49,4.9a2.71,2.71,0,0,0,3.2.23c.93-.72,1.18-2.76.88-4.31a2.78,2.78,0,0,0-2.07-2.17Z"/><path class="a" d="M436.78,23.74a10.35,10.35,0,0,1-6.48-2.2c-3.53-2.79-5.13-7.22-4.39-12.17A11,11,0,0,1,436.83.21a10.64,10.64,0,0,1,9.91,6.88h0c1.59,4.24.49,11.32-3.36,14.46A10.77,10.77,0,0,1,436.78,23.74Zm-.12-19.53A7.05,7.05,0,0,0,429.87,10c-.31,2-.34,5.87,2.91,8.43a6.9,6.9,0,0,0,8.08,0c2.22-1.81,3.3-6.83,2.14-9.94a6.67,6.67,0,0,0-6.23-4.29Zm.17,15.07a7.09,7.09,0,0,1-4.29-1.47c-2.13-1.64-3.58-5.36-1.73-9.66a6.62,6.62,0,0,1,6.53-3.75A6.69,6.69,0,0,1,443,9.76c.54,2.81,0,6.44-2.38,8.27h0A6.2,6.2,0,0,1,436.83,19.28Zm0-10.9a2.73,2.73,0,0,0-2.38,1.35c-1.43,3.31.47,4.89.49,4.9a2.71,2.71,0,0,0,3.2.23c.94-.72,1.19-2.76.89-4.31A2.8,2.8,0,0,0,437,8.38Z"/><path class="a" d="M345.8,18.72c-.12-.23-.78-1.76-1.37-3.11-2.34-5.35-3-6.86-3.31-7.31-1-1.64-3.51-2-5.21-1.37-1.52.62-2.19,2.28-2.73,3.63l-.14.35c-.18.41-1,1.93-1.64,3.26-1.23,2.38-2,4-2.3,4.63a3.51,3.51,0,0,0,.09,3,3.26,3.26,0,0,0,2.25,1.63,4.49,4.49,0,0,0,.86.09,3.55,3.55,0,0,0,2.92-1.71,11.22,11.22,0,0,0,.59-1l.5-.92h2.52l.34.73a8.08,8.08,0,0,0,.42.87,3.78,3.78,0,0,0,4.64,1.63h0a3.15,3.15,0,0,0,1.54-4.36ZM335,16Z"/><path class="a" d="M356.57,16.72a6.73,6.73,0,0,0,1.69-4.16,5.6,5.6,0,0,0-5.18-5.67c-1.09,0-4.75-.23-6-.11a3.37,3.37,0,0,0-3.19,3.51c0,.17,0,.62,0,1.24-.06,7,0,8.54.06,9a3.42,3.42,0,0,0,6.75-.14l0-.24c.23.49.41.88.51,1.08a3.39,3.39,0,0,0,6.31-2.48A22.12,22.12,0,0,0,356.57,16.72Z"/><path class="a" d="M400.4,14.58a8.43,8.43,0,0,0-1.59-3.35,5.45,5.45,0,0,0,.82-1.53,7.58,7.58,0,0,0-1.85-7.56C395.25-.25,390.72-.43,388.07.9a7.08,7.08,0,0,0-3.82,6.79,6.07,6.07,0,0,0,1,3.22,7.08,7.08,0,0,0-1.71,3.64,7.27,7.27,0,0,0,3.18,7.33,8.77,8.77,0,0,0,5.28,1.6,12.07,12.07,0,0,0,4.13-.74A7.13,7.13,0,0,0,400.4,14.58Z"/><path class="a" d="M403.29,11h.27a4.36,4.36,0,0,0,3.18-1.35,3.58,3.58,0,0,0,1-2.78,4.14,4.14,0,0,0-3.61-4A4.32,4.32,0,0,0,400.41,4a3.78,3.78,0,0,0-1.29,3.05A4.31,4.31,0,0,0,403.29,11Z"/><path class="a" d="M404.11,12.16c-2.4-.33-4.19,1.76-4.75,3.16l-.15.36v.39a4.26,4.26,0,0,0,3.88,4.09l.43,0a4,4,0,0,0,2.68-1,4.26,4.26,0,0,0,1.4-3A4,4,0,0,0,404.11,12.16Z"/><path class="b" d="M175.83,20.4a7.59,7.59,0,0,1-3.39.75,7.11,7.11,0,0,1-4-1.07,6.8,6.8,0,0,1-2.38-6.72A6.18,6.18,0,0,1,172,8.87h.14a6.56,6.56,0,0,1,6.36,4.46C179.26,16,178.06,19.25,175.83,20.4Zm-1.19-7.63a3.31,3.31,0,0,0-2.36-.86,3.4,3.4,0,0,0-2.13.66,3.17,3.17,0,0,0-.94,3.41,3.22,3.22,0,0,0,3,2.17,3.12,3.12,0,0,0,3.12-1.82A3.34,3.34,0,0,0,174.64,12.77Z"/><path class="b" d="M191.38,12.51c0,1.73-1,3.68-3.09,3.85-.77.07-1.67.1-2.66.1h-.47a1,1,0,0,0-1,1c0,1,0,2.41,0,2.78a1.52,1.52,0,0,1-1.52,1.29,1.5,1.5,0,0,1-1.52-1.2c-.1-.59-.05-6.16,0-8.83V10.32a1.52,1.52,0,0,1,1.51-1.63c.22,0,.59,0,1.08,0,1.06,0,2.71,0,4.55.16A3.52,3.52,0,0,1,191.38,12.51Zm-6.74,1.23.27,0h.93c.71,0,1.24,0,1.55,0,.69-.05,1-.47,1.1-1.32a1,1,0,0,0-.81-1.1c-.66-.05-2.68-.09-3-.09s-.37.09-.37.47c0,.08,0,.28,0,.5,0,.43,0,1,0,1.29S184.36,13.74,184.64,13.74Z"/><path class="b" d="M202.35,19.9a1.4,1.4,0,0,1-1.19,1.33c-.65,0-5.67.09-6.25.09a1.43,1.43,0,0,1-1.64-1.44c-.06-1.08,0-5.07,0-7.46,0-.86,0-1.55,0-1.78A1.46,1.46,0,0,1,194.94,9h1c1.75,0,4.74,0,5.43.06a1.31,1.31,0,0,1,1.25,1.39c0,.78-.53,1.26-1.41,1.3h-4.46c-.21,0-.33.14-.37.42,0,0,0,.45,0,1,0,.16.12.58.84.58,1.45,0,3.3.07,3.7.07a1,1,0,0,1,.69.28,1.49,1.49,0,0,1,.39,1.05,1.33,1.33,0,0,1-1.22,1.2,7,7,0,0,1-.79,0l-2.87,0c-.78,0-.76.5-.76.74,0,.53,0,.93,0,1,0,.28.34.38.64.38.81,0,3.54,0,4.28,0A1.3,1.3,0,0,1,202.35,19.9Z"/><path class="b" d="M216.75,10.09c0,.67-.05,9-.11,9.76A1.57,1.57,0,0,1,215,21.13a2,2,0,0,1-.9-.21c-.77-.39-3.89-4.21-5.46-6.18-.28-.36-.69-.23-.69.2,0,1.72,0,4.41,0,4.91a1.44,1.44,0,0,1-1.43,1.22,1.4,1.4,0,0,1-1.45-1.41c-.08-1-.12-8.72-.1-9.27a1.55,1.55,0,0,1,1.44-1.53l.25,0a2.66,2.66,0,0,1,1.91.88c.49.52,3.24,4.09,4.65,6,.26.33.63.25.63-.15V10.14a1.4,1.4,0,0,1,1.43-1.38h0A1.41,1.41,0,0,1,216.75,10.09Z"/><path class="b" d="M224,6.72c-.29-.85-.24-1.73,1.53-2.88s3.28-2.15,5.11-1.75,1.9,2.25,1.9,3.75-.18,12.61-.29,13.78A2.24,2.24,0,0,1,230,21.45a2.27,2.27,0,0,1-2.11-1.93c-.11-.87,0-7.5.08-10.5,0-.9-.53-1.28-1.06-1.13a2.76,2.76,0,0,1-.66.13C225.07,8,224.3,7.54,224,6.72Z"/><path class="b" d="M239.16,7.62a14.75,14.75,0,0,1-.07,2.05c-.08.72-1.12,1.2-2,1.2a1.71,1.71,0,0,1-1.83-1.33c-.1-.82-.08-3.45-.05-4.37.05-1.4,1-2.68,3.15-2.66s7.93.18,9.23.23a2.33,2.33,0,0,1,2.24,3c-.31,1.32-4.94,13.53-5.58,14.33-.76,1-1.21,1.37-2.48,1.07a1.79,1.79,0,0,1-1.32-2.37c.23-1,3.09-8,4.36-11,.45-1.07-.87-1.32-.87-1.32l-3.49,0S239.16,6.44,239.16,7.62Z"/><path class="b" d="M253.37,6.87A2.36,2.36,0,0,1,256,4.79,2.13,2.13,0,0,1,258,7c.16,1.2-1.09,2.07-2.3,2A2.33,2.33,0,0,1,253.37,6.87Zm.1,9.2c.29-.73,1.38-2.1,2.62-1.93a2,2,0,0,1,1.77,2,2.15,2.15,0,0,1-2.3,2A2.25,2.25,0,0,1,253.47,16.07Z"/><path class="b" d="M274.64,12.52A5.85,5.85,0,0,1,276.15,16a5.34,5.34,0,0,1-4.55,5.46,13.76,13.76,0,0,1-1.4.1,7.81,7.81,0,0,1-5.5-2c-1.38-1.3-1.48-2.65-.95-3.43a2.34,2.34,0,0,1,3.33-.27,4.72,4.72,0,0,0,2.54,1.5H270c.8,0,1.77-.27,1.88-1.05a2.4,2.4,0,0,0-1.51-2.33l-.39-.17c-.93-.38-1.8-.73-2.15-1.55A2,2,0,0,1,269,9.82a6.36,6.36,0,0,0,2.25-1.5,1.39,1.39,0,0,0-.37-2A1.69,1.69,0,0,0,269.8,6a6.05,6.05,0,0,0-1.88.37,2.54,2.54,0,0,1-2.85-.17,1.61,1.61,0,0,1-.56-1.3,2.37,2.37,0,0,1,1.14-1.8A8.53,8.53,0,0,1,270,2.06a7.19,7.19,0,0,1,3.83,1c1.86,1.17,2.36,2.8,2.09,5a5.55,5.55,0,0,1-1.4,2.6A1.37,1.37,0,0,0,274.64,12.52Z"/><path class="b" d="M296.65,7.79c1.4,3.73.26,9.76-2.75,12.21a8.86,8.86,0,0,1-10.58,0c-3.22-2.55-4.23-6.4-3.65-10.3a9.07,9.07,0,0,1,8.91-7.46A8.71,8.71,0,0,1,296.65,7.79Zm-5.47,8.66c1.79-1.38,2-4.36,1.64-6.28a4.42,4.42,0,0,0-8.39-1.23c-1.61,3.75,0,6.4,1.11,7.28A4.71,4.71,0,0,0,291.18,16.45Z"/><path class="b" d="M319.05,11.54a1.05,1.05,0,0,1-.67.48,2.49,2.49,0,0,1-.53.07,2.2,2.2,0,0,1-1.09-.35,4,4,0,0,0-1.71-.43,1.39,1.39,0,0,0-.3,0,1,1,0,0,0-.86,1.13c.07.67.9,1.17,1.71,1.57a6.73,6.73,0,0,1,2.76,2.47,3.21,3.21,0,0,1-1.11,4.12,5.54,5.54,0,0,1-3.06.74c-.3,0-.6,0-.92,0a5.27,5.27,0,0,1-2.4-.9,1.37,1.37,0,0,1-.26-1.83,1.55,1.55,0,0,1,1.23-.64,1.82,1.82,0,0,1,.83.19,5.4,5.4,0,0,0,1.82.35,1.62,1.62,0,0,0,.68-.12.86.86,0,0,0,.46-.65.85.85,0,0,0-.26-.75,7,7,0,0,0-1.29-.84,9.88,9.88,0,0,1-2.29-1.6,3.74,3.74,0,0,1-.6-3.88A3.87,3.87,0,0,1,315,8.42a5.66,5.66,0,0,1,1.2.13c1.9.49,2.82,1.44,3,2.12A1,1,0,0,1,319.05,11.54Z"/><path class="b" d="M331.67,9.77a1.26,1.26,0,0,1-1.34,1.17c-.23,0-.89,0-1.76,0s-1.2.6-1.2,1.07c0,2.37,0,7.29,0,7.89,0,.88-.23,1.47-1.32,1.52s-1.4-.85-1.43-1.71-.06-5.3,0-7.65c0-.45-.05-1-1-1.05h-2c-.88,0-1.48-.21-1.62-1.16s.84-1.39,1.69-1.42,8,0,8.8.06A1.3,1.3,0,0,1,331.67,9.77Z"/><path class="b" d="M343.44,21.25a1.77,1.77,0,0,1-2.13-.8c-.19-.33-.46-1.05-.86-1.82a1.22,1.22,0,0,0-1.15-.77H336s-.74-.13-1.31.82c-.42.73-.95,1.79-1.09,2-.58.76-.93,1-1.75.81s-1.3-.88-.88-1.95,3.46-6.77,3.92-7.82.95-2.59,1.78-2.92a2.54,2.54,0,0,1,2.76.57c.46.71,4.24,9.55,4.59,10.25A1.16,1.16,0,0,1,343.44,21.25Zm-6-8.22c-.2.38-.44.9-.69,1.46s.35.65.35.65h1.25s.57,0,.36-.62-.48-1.07-.66-1.5S337.59,12.61,337.4,13Z"/><path class="b" d="M354.37,16.81c.56,1.1,1.13,2.2,1.27,2.62a1.38,1.38,0,0,1-.76,1.72,1.42,1.42,0,0,1-1.83-.7c-.21-.47-.9-1.9-1.54-3.19a.93.93,0,0,0-1.11-.73c-.35,0-.67,0-.93,0a.75.75,0,0,0-.72.87c0,1,0,2.36,0,2.77a1.43,1.43,0,0,1-2.8.06c-.12-.72,0-9.07,0-9.94a1.4,1.4,0,0,1,1.39-1.52c.83-.08,3.46,0,5.7.12a3.58,3.58,0,0,1,3.28,3.62,4.53,4.53,0,0,1-1.61,3.27C354,16.26,354.25,16.6,354.37,16.81Zm-5-2.77c.28,0,2,0,2.77,0a1.42,1.42,0,0,0,1.39-1.44,1.35,1.35,0,0,0-1.09-1.38c-.67-.07-2.68-.08-3.07-.08s-.49.21-.49.56-.07,1.59,0,2S349.1,14,349.4,14Z"/><path class="b" d="M368.56,9.77a1.26,1.26,0,0,1-1.34,1.17c-.23,0-.9,0-1.77,0s-1.19.6-1.19,1.07c0,2.37,0,7.29,0,7.89,0,.88-.23,1.47-1.32,1.52s-1.39-.85-1.43-1.71-.05-5.3,0-7.65c0-.45-.05-1-1-1.05h-2c-.88,0-1.48-.21-1.62-1.16s.85-1.39,1.69-1.42,8,0,8.8.06A1.3,1.3,0,0,1,368.56,9.77Z"/><path class="b" d="M374.51,6.72c-.29-.85-.24-1.73,1.53-2.88s3.28-2.15,5.1-1.75,1.91,2.25,1.91,3.75-.19,12.61-.29,13.78a2.24,2.24,0,0,1-2.28,1.83,2.27,2.27,0,0,1-2.11-1.93c-.11-.87,0-7.5.08-10.5,0-.9-.53-1.28-1.06-1.13a2.86,2.86,0,0,1-.66.13C375.54,8,374.77,7.54,374.51,6.72Z"/><path class="b" d="M386.25,7.67a5.08,5.08,0,0,1,2.72-5c2-1,5.58-.85,7.43.9a5.63,5.63,0,0,1,1.32,5.5,4.42,4.42,0,0,1-1.05,1.58.83.83,0,0,0,.08,1.2,7,7,0,0,1,1.69,3.1,5.09,5.09,0,0,1-3.07,5.9c-2.06.78-5.26,1.05-7.51-.6a5.3,5.3,0,0,1-2.38-5.48,5.51,5.51,0,0,1,1.77-3.12.84.84,0,0,0,.06-1.25A4.45,4.45,0,0,1,386.25,7.67Zm4.84,5.85a2.14,2.14,0,0,0-1.46,2.4c.13,1.63,1.8,2,2.49,2s2.17-.46,2.38-1.68a2.34,2.34,0,0,0-.8-2.4A2.87,2.87,0,0,0,391.09,13.52Zm3-7.15A2,2,0,0,0,392,5.29,1.85,1.85,0,0,0,390.13,7a1.7,1.7,0,0,0,1.43,1.68,2.45,2.45,0,0,0,2.17-.48A1.65,1.65,0,0,0,394.1,6.37Z"/><path class="b" d="M401.11,6.87a2.36,2.36,0,0,1,2.64-2.08,2.13,2.13,0,0,1,2,2.18c.16,1.2-1.08,2.07-2.3,2A2.33,2.33,0,0,1,401.11,6.87Zm.1,9.2c.29-.73,1.38-2.1,2.62-1.93a2,2,0,0,1,1.77,2,2.15,2.15,0,0,1-2.3,2A2.25,2.25,0,0,1,401.21,16.07Z"/><path class="b" d="M425.38,7.79c1.41,3.73.27,9.76-2.75,12.21a8.84,8.84,0,0,1-10.57,0c-3.23-2.55-4.24-6.4-3.65-10.3a9.06,9.06,0,0,1,8.91-7.46A8.68,8.68,0,0,1,425.38,7.79Zm-5.47,8.66c1.8-1.38,2-4.36,1.64-6.28a4.41,4.41,0,0,0-8.38-1.23c-1.62,3.75,0,6.4,1.11,7.28A4.69,4.69,0,0,0,419.91,16.45Z"/><path class="b" d="M444.87,7.79c1.4,3.73.26,9.76-2.75,12.21a8.86,8.86,0,0,1-10.58,0c-3.23-2.55-4.23-6.4-3.65-10.3a9.07,9.07,0,0,1,8.91-7.46A8.71,8.71,0,0,1,444.87,7.79Zm-5.48,8.66c1.8-1.38,2-4.36,1.64-6.28a4.41,4.41,0,0,0-8.38-1.23c-1.61,3.75,0,6.4,1.11,7.28A4.69,4.69,0,0,0,439.39,16.45Z"/><rect class="b" y="1.53" width="153.68" height="24.63" rx="7"/><path class="a" d="M22.51,19.73c-1.17,0-1.63-.51-1.63-1.57V11.3c0-1.05.38-1.51,1.57-1.51h.3V8.52H21a.64.64,0,0,1-.6-.7.62.62,0,0,1,.6-.69h6.51a.63.63,0,0,1,.61.69.64.64,0,0,1-.61.7H25.94V9.79h.33c1.18,0,1.55.46,1.55,1.51v6.86c0,1.09-.45,1.56-1.63,1.57Zm1.57-8.65a7.25,7.25,0,0,1-.63,3.72.6.6,0,0,1-.56.34.48.48,0,0,1-.52-.44.58.58,0,0,1,.08-.29c.39-.68.56-1.4.56-3.33h-.39c-.25,0-.31.08-.31.37v4.37H26.4V14.65c-.19,0-.41,0-.66,0-.74,0-1.07-.24-1.07-.89v-2.7ZM26,18.37c.31,0,.41-.09.41-.4v-.84H22.31V18c0,.3.11.4.42.4ZM24.67,8.52h-.59V9.79h.59Zm1.07,4.8c0,.18.05.21.2.21l.46,0V11.45c0-.29,0-.37-.32-.37h-.34Zm3-.39c0-1.14.59-1.61,1.94-1.61H32c.44,0,.54-.09.54-.48V9.08c0-.35-.09-.44-.54-.44H29.19a.68.68,0,0,1-.65-.74.68.68,0,0,1,.65-.74h3.25c1.34,0,1.84.57,1.84,1.61V11.3c0,1.07-.5,1.47-1.84,1.47H31c-.42,0-.58.12-.58.52v4.3c0,.41.22.48,1.35.48s1.55-.28,1.64-1.27a.75.75,0,0,1,.8-.67.8.8,0,0,1,.88.77c-.14,2.11-.82,2.66-3.64,2.66-2.1,0-2.72-.46-2.72-1.69Z"/><path class="a" d="M37.5,12.86l-.38.55a.9.9,0,0,1-.77.41.8.8,0,0,1-.83-.74,1,1,0,0,1,.19-.52,17.39,17.39,0,0,0,2.46-5.63.93.93,0,0,1,1.76.18.78.78,0,0,1,0,.22,19.9,19.9,0,0,1-1.39,3.72c.36,0,.69.24.69.59v7.93c0,.4-.42.59-.85.59s-.84-.19-.84-.59Zm3.08-2.27a.67.67,0,0,1-.64-.72.67.67,0,0,1,.64-.73h9a.73.73,0,1,1,0,1.45Zm2.31,9.22c-1.3,0-1.74-.51-1.74-1.45V17.19c0-1,.44-1.46,1.74-1.46H47c1.33,0,1.75.51,1.75,1.46v1.17c0,1.14-.64,1.43-1.75,1.45Zm-1-11.47a.64.64,0,0,1-.63-.68A.64.64,0,0,1,41.92,7H48a.63.63,0,0,1,.64.68.63.63,0,0,1-.64.68Zm.14,4.42a.65.65,0,0,1-.63-.69.64.64,0,0,1,.63-.68h5.86a.63.63,0,0,1,.64.68.64.64,0,0,1-.64.69Zm0,2.16a.68.68,0,0,1,0-1.36h5.86a.68.68,0,0,1,0,1.36Zm4.6,3.58c.39,0,.47-.08.47-.37v-.72c0-.28-.08-.37-.47-.37H43.28c-.39,0-.47.09-.47.37v.72c0,.33.16.36.47.37Z"/><path class="a" d="M53.47,20a.5.5,0,0,1-.45.3c-.45,0-.78-.25-.78-.48a.83.83,0,0,1,.06-.35L57.86,6.31A.5.5,0,0,1,58.32,6c.45,0,.78.25.78.47a1,1,0,0,1-.06.35Z"/><path class="a" d="M65.54,13.56c-2.38-.63-3.22-1.59-3.22-3.38s1.38-2.93,3.56-2.93a4.48,4.48,0,0,1,3.35,1.22.79.79,0,0,1,.32.61.88.88,0,0,1-1,.89.83.83,0,0,1-.67-.27,2.49,2.49,0,0,0-2-1c-1.11,0-1.77.56-1.77,1.36,0,1,.43,1.44,2,1.84l.56.15c2.46.65,3.32,1.53,3.32,3.45s-1.52,3.38-4,3.38a4.69,4.69,0,0,1-3.85-1.59,1,1,0,0,1-.27-.63.88.88,0,0,1,.94-.8.83.83,0,0,1,.66.28,2.94,2.94,0,0,0,2.56,1.26,1.83,1.83,0,0,0,2-1.87c0-.89-.5-1.42-2.07-1.84Z"/><path class="a" d="M73.9,16.44c0,.73.33,1,.84,1a2.41,2.41,0,0,0,.58-.07,2,2,0,0,1,.5-.09c.3,0,.55.25.55.7a.57.57,0,0,1-.41.56,4.67,4.67,0,0,1-1.47.22c-1.64,0-2.4-.67-2.4-2.46V12.39H71.3c-.52,0-.79-.29-.79-.7s.27-.7.79-.7h.79V9c0-.49.35-.77.91-.77s.9.3.9.77v2h1.55a.7.7,0,1,1,0,1.4H73.9Z"/><path class="a" d="M79.47,18c0,.47-.34.77-.89.77s-.91-.28-.91-.77V11.63a.81.81,0,0,1,.9-.76.77.77,0,0,1,.84.76v1.14c.36-1.3,1.1-2,2.16-2,.66,0,.88.3.88.83s-.28.81-.88.81c-1.12,0-2.1,1-2.1,2.85Z"/><path class="a" d="M84.82,15.29a2.14,2.14,0,0,0,2.07,2.19,2.72,2.72,0,0,0,1.84-.58.8.8,0,0,1,.48-.17.71.71,0,0,1,.75.68.65.65,0,0,1-.22.52,4.66,4.66,0,0,1-2.85.9c-2.27,0-3.76-1.47-3.76-4s1.57-4,3.65-4A3.21,3.21,0,0,1,90.07,14a1.18,1.18,0,0,1-1.33,1.3Zm3.23-1.23a.33.33,0,0,0,.36-.37,1.63,1.63,0,0,0-1.66-1.57,1.89,1.89,0,0,0-1.88,1.94Z"/><path class="a" d="M96,13.32a1.14,1.14,0,0,0-1.3-1.16,2.57,2.57,0,0,0-1.69.65.77.77,0,0,1-.44.17.81.81,0,0,1-.83-.74.65.65,0,0,1,.2-.45,4.43,4.43,0,0,1,2.82-1c1.87,0,3,.86,3,2.5V16c0,1,.19,1.32.55,1.54a.55.55,0,0,1,.33.52.66.66,0,0,1-.67.71,1.64,1.64,0,0,1-.72-.15,1.39,1.39,0,0,1-.83-.83,2.69,2.69,0,0,1-2.39,1.06c-1.73,0-2.72-.91-2.72-2.27a2.48,2.48,0,0,1,2.14-2.48A10.49,10.49,0,0,1,96,13.81ZM96,15a6.1,6.1,0,0,0-2,.28c-.61.21-1,.58-1,1.17s.37,1.13,1.31,1.13A1.65,1.65,0,0,0,96,15.91Z"/><path class="a" d="M109.49,14.24c0-1.11-.12-1.47-.3-1.66a1,1,0,0,0-.81-.37c-1,0-1.87.89-1.87,2.43V18a.77.77,0,0,1-.87.77c-.55,0-.91-.28-.91-.77V14.21c0-1.08-.13-1.44-.28-1.63a1,1,0,0,0-.83-.37c-1.05,0-1.85.89-1.85,2.43V18c0,.47-.35.77-.9.77S100,18.49,100,18V11.63a.81.81,0,0,1,.88-.76.77.77,0,0,1,.84.76v.73a2.29,2.29,0,0,1,2.15-1.56,2.41,2.41,0,0,1,1.94.68,2.07,2.07,0,0,1,.44.65,2.56,2.56,0,0,1,2.38-1.33,2.45,2.45,0,0,1,2,.68,3.23,3.23,0,0,1,.72,2.52v2.24a6.8,6.8,0,0,0,.17,1.63,1.1,1.1,0,0,1,0,.25c0,.37-.41.65-1,.65a.74.74,0,0,1-.82-.53,7.06,7.06,0,0,1-.17-1.85Z"/><path class="a" d="M115.52,8.46a1.17,1.17,0,1,1-1.18-1.11A1.14,1.14,0,0,1,115.52,8.46Zm-2.07,3.18c0-.48.34-.77.91-.77s.89.3.89.77V18c0,.47-.33.77-.89.77s-.91-.28-.91-.77Z"/><path class="a" d="M119.15,12.36a2.37,2.37,0,0,1,2.23-1.56,2.51,2.51,0,0,1,2,.68,3.15,3.15,0,0,1,.74,2.52v2.24a6.33,6.33,0,0,0,.17,1.63,2.18,2.18,0,0,1,0,.25c0,.37-.4.65-1,.65a.74.74,0,0,1-.81-.53,7.06,7.06,0,0,1-.17-1.85V14.24c0-1.11-.13-1.47-.3-1.66a1,1,0,0,0-.86-.37c-1.07,0-1.91.89-1.91,2.43V18c0,.47-.35.77-.9.77s-.9-.28-.9-.77V11.63a.8.8,0,0,1,.89-.76.77.77,0,0,1,.84.76Z"/><path class="a" d="M130.52,17.11c1.82.22,2.6.91,2.6,2.22s-1.39,2.34-3.82,2.34-3.82-.81-3.82-2.19a1.89,1.89,0,0,1,1.34-1.69,1.09,1.09,0,0,1-.73-1.11c0-.44.44-.92,1.25-1.23A2.31,2.31,0,0,1,126,13.32c0-1.65,1.42-2.52,3.16-2.52a4,4,0,0,1,1.55.28,2.17,2.17,0,0,1,1.93-.81.64.64,0,0,1,.62.72.64.64,0,0,1-.62.71,1.73,1.73,0,0,0-.85.12,2.22,2.22,0,0,1,.53,1.5c0,1.64-1.3,2.53-3.16,2.53a4,4,0,0,1-.78-.06c-.54.2-.69.45-.69.64s.19.37.81.44Zm-2.16,1.14a2.53,2.53,0,0,1-.36-.07,1.3,1.3,0,0,0-.89,1.23c0,.66.78,1.09,2.17,1.09s2.17-.43,2.17-1.12c0-.52-.33-.8-1.46-.93Zm-.69-4.93a1.36,1.36,0,0,0,1.52,1.35,1.33,1.33,0,1,0,0-2.64C128.31,12,127.67,12.5,127.67,13.32Z"/></svg>