<svg xmlns="http://www.w3.org/2000/svg" width="347.2" height="176.64" viewBox="0 0 347.2 176.64"><path d="M4.8-126.72A82.484,82.484,0,0,1-.96-97.44,147.011,147.011,0,0,1-16.48-67.68,177.994,177.994,0,0,1-39.36-40.16,189.7,189.7,0,0,1-67.04-17.44,147.01,147.01,0,0,1-96.8-1.92a83.258,83.258,0,0,1-29.6,5.76q-20.8,0-31.84-12.8t-11.04-32.96a88.743,88.743,0,0,1,5.76-30.72A142.417,142.417,0,0,1-148-102.88a172.038,172.038,0,0,1,22.88-27.36,179.435,179.435,0,0,1,27.68-22.24,142.24,142.24,0,0,1,29.92-14.88,88.1,88.1,0,0,1,29.44-5.44q20.8,0,31.84,12.96T4.8-126.72Zm-30.72.64a111.3,111.3,0,0,0-.96-14.4,42.815,42.815,0,0,0-3.84-13.28,26.421,26.421,0,0,0-7.68-9.6q-4.8-3.68-12.48-3.68a49.683,49.683,0,0,0-22.88,6.4,92.706,92.706,0,0,0-20.8,15.84,138.462,138.462,0,0,0-17.92,22.24A168.817,168.817,0,0,0-126.4-96.64a165.549,165.549,0,0,0-8.96,26.88,108.206,108.206,0,0,0-3.2,24.96,74.9,74.9,0,0,0,1.44,14.4,43.7,43.7,0,0,0,4.8,13.28,27.115,27.115,0,0,0,9.12,9.6,25.624,25.624,0,0,0,14.08,3.68,43.624,43.624,0,0,0,22.24-6.24,86.177,86.177,0,0,0,20-16.32,130.671,130.671,0,0,0,16.8-23.04A203.381,203.381,0,0,0-37.12-76a170.35,170.35,0,0,0,8.32-26.72A110.337,110.337,0,0,0-25.92-126.08ZM67.2-88.96q12.48-.64,26.88-2.56a99.312,99.312,0,0,0,26.56-7.2,54.949,54.949,0,0,0,20.32-14.88q8.16-9.6,8.16-25.6,0-12.16-7.84-20t-20-7.84q-11.84,0-19.2,8.16a28.355,28.355,0,0,0-7.36,19.68,16.478,16.478,0,0,0,4.8,12.16,15.35,15.35,0,0,0,11.2,4.8,17.3,17.3,0,0,0,7.04-1.28,20.418,20.418,0,0,0,4.8-2.88,29.534,29.534,0,0,1-10.72,14.72,28.473,28.473,0,0,1-17.12,5.44q-10.88,0-16.64-6.88t-5.76-17.12a33.661,33.661,0,0,1,3.52-14.24,40.107,40.107,0,0,1,11.04-13.76,63.883,63.883,0,0,1,18.72-10.4q11.2-4.16,26.56-4.16a79.462,79.462,0,0,1,16.8,1.76,45.209,45.209,0,0,1,14.56,5.76,32.881,32.881,0,0,1,10.4,10.24q4,6.24,4,15.2,0,14.08-8,23.04a59.482,59.482,0,0,1-19.84,14.4,115.414,115.414,0,0,1-25.12,8.16q-13.28,2.72-23.84,4.64v.64a92.846,92.846,0,0,1,16.16,1.44A46.282,46.282,0,0,1,132-82.4a30.835,30.835,0,0,1,10.72,9.92q4.16,6.24,4.16,15.84,0,17.6-9.12,29.28A67.424,67.424,0,0,1,115.36-8.8,103.554,103.554,0,0,1,87.04.96a145.91,145.91,0,0,1-27.2,2.88,127.139,127.139,0,0,1-25.28-2.4A62.966,62.966,0,0,1,14.08-6.24,39.513,39.513,0,0,1,.48-19.84q-4.96-8.32-4.96-19.84,0-13.76,9.12-23.04T27.52-72a29.532,29.532,0,0,1,15.2,3.84,69.424,69.424,0,0,1,12.64,9.6l-1.28,2.24a36.122,36.122,0,0,0-4.32-1.12,26.971,26.971,0,0,0-5.28-.48q-11.2,0-16.64,8.16A31.9,31.9,0,0,0,22.4-31.68q0,15.04,11.04,23.36T59.84,0a53.211,53.211,0,0,0,23.2-4.96A56.194,56.194,0,0,0,100.8-18.08a59.178,59.178,0,0,0,11.36-18.56,57.988,57.988,0,0,0,4-20.96q0-16-9.44-22.4T81.6-86.4a63.422,63.422,0,0,0-8.16.48q-3.68.48-7.2,1.12Z" transform="translate(169.28 172.8)" fill="#fff"/></svg>