<svg xmlns="http://www.w3.org/2000/svg" viewBox="0 0 203.84 59.24"><defs><style>.a{isolation:isolate;}.b{fill:#fff;}.c{fill:#ff91c7;}.d{fill:#6dddff;}</style></defs><g class="a"><g class="a"><path class="b" d="M37,17.28a4.38,4.38,0,0,1-2.69,2.06,12,12,0,0,1-2.13.28,8.43,8.43,0,0,1-4.41-1.49,14.9,14.9,0,0,0-6.88-1.85,6.38,6.38,0,0,0-1.21.14,4.45,4.45,0,0,0-3.48,4.83c.28,2.84,3.62,5,6.89,6.68,4,2.13,9,6.24,11.14,10.5A14.13,14.13,0,0,1,29.75,56c-3,2.06-7.17,3.13-12.35,3.13C16.19,59.1,15,59,13.71,59c-3.06-.28-8.31-2.34-9.66-3.83C1.78,52.63,1.35,49.58,3,47.31a6.18,6.18,0,0,1,5-2.7,7.46,7.46,0,0,1,3.34.78,20.49,20.49,0,0,0,7.31,1.49,6.69,6.69,0,0,0,2.77-.49,3.8,3.8,0,0,0,1.85-2.77,3.71,3.71,0,0,0-1.07-3.2A26.66,26.66,0,0,0,17,36.87c-3.19-1.91-6.81-4.12-9.23-6.81C3.34,25,3.62,18.2,5.33,13.51,7.88,6.49,14.84,4,20.52,4a20.63,20.63,0,0,1,4.83.57c7.67,2.06,11.36,6.1,12.14,9A4.51,4.51,0,0,1,37,17.28Z"/><path class="b" d="M51.19,5.63c4.76,0,6.32,4.19,6.32,7.32.07,4.4.57,13.13.57,13.13s5.75-2.48,14,1.21c5.18,2.34,7.81,7.59,8.38,14.77a63.09,63.09,0,0,1-.08,12.14,4.89,4.89,0,0,1-5.11,4.4,5.36,5.36,0,0,1-5.68-4.9c-.21-2.2-.14-9-.28-11.08-.5-7.52-11.22-7.38-11.57.22-.08,2.2.14,7.31-.15,9.3-.78,4.61-2.48,6.17-5.75,6.46-3.69.28-5-1.85-5.39-6.18-.36-3.55-.57-37.34-.36-39.47C46.37,9.25,46.44,5.63,51.19,5.63Z"/><path class="b" d="M103.8,58.31c-7-.56-13.91-5-14.27-14C89.25,37.94,90.6,30.41,99.69,26c8.45-4.12,19.45,0,23.07,5.75,5.26,8.24,3,18.46,3,21.94-.07,3.76-2.62,5.54-5.82,5.54s-4.47-3.84-4.47-3.84A18.39,18.39,0,0,1,103.8,58.31Zm5.47-23.57c-5.61-1.49-8.16,2.35-9,6a6.39,6.39,0,0,0,6.61,7.67A8.06,8.06,0,0,0,114.1,44C115.59,41,114.81,36.23,109.27,34.74Z"/><path class="b" d="M141.08,21c3.76,0,5.82,2.27,5.82,5.75v3.62c1,.71,4.19-4,9.16-5.68S166,23.88,166.92,28s-1.13,5.89-6.74,7.45c-6,1.71-9.94,5.33-11.5,10.8-1.28,4.4-.29,10.79-4.48,11.85-6.81,1.85-6.53-2.2-7.1-5.61S136.53,34,136.18,29,137.32,21,141.08,21Z"/><path class="b" d="M186,22.53c8.31-.92,13.42,2,16.33,7.31s1.49,10.58-3,13.49C195.61,45.68,186.45,45,186.45,45c.71.35,1.35,4.54,10,2.55,3.41-.78,7.38,3.13,5.18,7-1.28,2.35-5.54,5.19-14.48,3.62-7.32-1.27-13.71-5.82-13.71-19.31C173.45,32.19,177.71,23.38,186,22.53Zm1.63,9.09c-2,1.84-3,3.83-1.63,4.9,2,1.42,8.59.35,7.81-2.42C193.26,31.76,190.35,30.55,187.65,31.62Z"/></g></g><g class="a"><g class="a"><path class="c" d="M35,13.28a4.38,4.38,0,0,1-2.69,2.06,12,12,0,0,1-2.13.28,8.43,8.43,0,0,1-4.41-1.49,14.9,14.9,0,0,0-6.88-1.85,6.38,6.38,0,0,0-1.21.14,4.45,4.45,0,0,0-3.48,4.83c.28,2.84,3.62,5,6.89,6.68,4,2.13,9,6.24,11.14,10.5A14.13,14.13,0,0,1,27.75,52c-3,2.06-7.17,3.13-12.35,3.13C14.19,55.1,13,55,11.71,55c-3.06-.28-8.31-2.34-9.66-3.83C-.22,48.63-.65,45.58,1,43.31a6.18,6.18,0,0,1,5-2.7,7.46,7.46,0,0,1,3.34.78,20.49,20.49,0,0,0,7.31,1.49,6.69,6.69,0,0,0,2.77-.49,3.8,3.8,0,0,0,1.85-2.77,3.71,3.71,0,0,0-1.07-3.2A26.66,26.66,0,0,0,15,32.87C11.78,31,8.16,28.75,5.74,26.06,1.34,21,1.62,14.2,3.33,9.51,5.88,2.49,12.84,0,18.52,0a20.63,20.63,0,0,1,4.83.57c7.67,2.06,11.36,6.1,12.14,9A4.51,4.51,0,0,1,35,13.28Z"/></g><g class="a"><path class="d" d="M49.19,1.63C54,1.63,55.51,5.82,55.51,9c.07,4.4.57,13.13.57,13.13s5.75-2.48,14,1.21c5.18,2.34,7.81,7.59,8.38,14.77a63.09,63.09,0,0,1-.08,12.14,4.89,4.89,0,0,1-5.11,4.4,5.36,5.36,0,0,1-5.68-4.9c-.21-2.2-.14-9-.28-11.08-.5-7.52-11.22-7.38-11.57.22-.08,2.2.14,7.31-.15,9.3-.78,4.61-2.48,6.17-5.75,6.46-3.69.28-5-1.85-5.39-6.18-.36-3.55-.57-37.34-.36-39.47C44.37,5.25,44.44,1.63,49.19,1.63Z"/></g><g class="a"><path class="c" d="M101.8,54.31c-7-.56-13.91-5-14.27-14C87.25,33.94,88.6,26.41,97.69,22c8.44-4.12,19.45,0,23.07,5.75,5.26,8.24,3,18.46,3,21.94-.07,3.76-2.62,5.54-5.82,5.54s-4.47-3.84-4.47-3.84A18.39,18.39,0,0,1,101.8,54.31Zm5.47-23.57c-5.61-1.49-8.16,2.35-9,6a6.39,6.39,0,0,0,6.61,7.67A8.06,8.06,0,0,0,112.1,40C113.59,37,112.81,32.23,107.27,30.74Z"/></g><g class="a"><path class="d" d="M139.08,17c3.76,0,5.82,2.27,5.82,5.75v3.62c1,.71,4.19-4,9.16-5.68S164,19.88,164.92,24s-1.13,5.89-6.74,7.45c-6,1.71-9.94,5.33-11.5,10.8-1.28,4.4-.29,10.79-4.48,11.85-6.81,1.85-6.53-2.2-7.1-5.61S134.53,30,134.18,25,135.32,17,139.08,17Z"/></g><g class="a"><path class="c" d="M184,18.53c8.31-.92,13.42,2,16.33,7.31s1.49,10.58-3,13.49C193.61,41.68,184.45,41,184.45,41c.71.35,1.35,4.54,10,2.55,3.41-.78,7.38,3.13,5.18,7-1.28,2.35-5.54,5.19-14.48,3.62-7.32-1.27-13.71-5.82-13.71-19.31C171.45,28.19,175.71,19.38,184,18.53Zm1.63,9.09c-2,1.84-3,3.83-1.63,4.9,2,1.42,8.59.35,7.81-2.42C191.26,27.76,188.35,26.55,185.65,27.62Z"/></g></g></svg>