<svg xmlns="http://www.w3.org/2000/svg" viewBox="0 0 300.34 70.33"><defs><style>.a{isolation:isolate;}.b{fill:#fff;}.c{fill:#ffa5d1;}.d{fill:#6dddff;}</style></defs><g class="a"><g class="a"><path class="b" d="M56.16,10.74a6.05,6.05,0,0,1-6.31,5.81c-1.58-.08-7.22,0-13.94.08-.17,6.56,0,40.92-.17,44.48-.16,4.4-1.08,7.31-6.22,7.56C24.79,69,23,64.44,22.79,60.2c-.16-4.65-.33-35.35.09-43.4-7,.16-12.87.25-14.19.16-4.15-.16-7-1.08-7.64-5.81s4-6.88,8-7c4.65-.17,37.51-.17,41.41.33A6.3,6.3,0,0,1,56.16,10.74Z"/><path class="b" d="M64.05,19.37c.83-6.56,8.13-8.13,11-6.56a8.48,8.48,0,0,1,4.89,8c0,3.49-2.24,7-7.47,7.39A7.88,7.88,0,0,1,64.05,19.37Zm.33,20.83c.41-6.56,4.48-8.71,7.88-8.88,4.07,0,7,3.32,7,10.37,0,7.31.42,15.69-.41,20.09s-3.24,7.14-7.64,6.8c-5.72-.49-6.22-4.89-6.72-9.29A131.29,131.29,0,0,1,64.38,40.2Z"/><path class="b" d="M104.8,66.84C96.91,65,90.52,57.63,89.86,47.75s4.56-19.33,15.35-22.24c8.63-2.41,15.77,0,19,2.08,2.07,1.32,4.73,4,3.15,8.54-1.24,3.74-4.4,5.32-7.88,4.07-5.4-1.91-12.78-2.24-14.28,4.65-.83,4.23,1.16,7.8,8.05,8.63,3.65.42,8-.83,10.46-.25,1.58.33,4.56,1.91,4.56,6.64,0,4.4-3.73,6.39-7.22,7.39C117.33,68.34,112.76,68.83,104.8,66.84Z"/><path class="b" d="M171.44,56.8c2,2.41,1.41,7.14,0,8.8a7.56,7.56,0,0,1-10.2.16c-2-1.74-6.48-6.3-10.13-10,0,3,0,5.15-.08,5.81a7.08,7.08,0,0,1-6.72,6.73c-4.32.33-6.23-3-6-7.14s-.41-43.41-.41-46.81c0-3.73.83-7.63,5.47-7.63a7.34,7.34,0,0,1,7.64,7.3c0,1.58.08,10.21.08,19.75,4-3.15,9.63-7.55,11.54-8.88,3.23-2.24,8-1.41,9.62,1.58a7.64,7.64,0,0,1-2,9.46c-3,2.32-10.12,9-10.12,9S169.45,54.39,171.44,56.8Z"/><path class="b" d="M196.1,25.68c9.71-1.08,15.68,2.32,19.08,8.55s1.75,12.36-3.56,15.76c-4.32,2.74-15,2-15,2,.83.41,1.58,5.31,11.71,3,4-.91,8.63,3.66,6,8.22-1.49,2.74-6.47,6.06-16.93,4.23-8.54-1.49-16-6.8-16-22.57C181.41,37,186.39,26.67,196.1,25.68ZM198,36.3c-2.33,2.16-3.49,4.48-1.91,5.73,2.32,1.66,10,.41,9.12-2.83C204.56,36.47,201.16,35.06,198,36.3Z"/><path class="b" d="M261.83,33.4c-.08,3.56-3.4,6.14-8.55,6.14H249V60c0,4.82-1.5,8.14-5.9,8.14s-5.81-2.83-6.39-8.39c-.33-4.06-.33-12.78-.25-20.16-4.81.16-12.86-.34-12.86-5.9,0-6,7.22-8.21,13.61-8.38.17-7.14,1.16-10.37,6.56-10.37s5.39,5.72,5.39,10.46c1.08.08,5.06.16,6,.24A7.59,7.59,0,0,1,261.83,33.4Z"/><path class="b" d="M285.48,21.61c7.31-.25,12.87,2.24,14.36,5.64,1.41,3.24-.16,8.22-5.14,8.3-4.32,0-8-3.07-10.54,0s3,4.4,5.72,6.64c4.07,3.41,10.38,9.21,8,18-2.07,7.47-6.64,10.29-15.27,10.13-9.05-.09-12.45-3-14.27-5.4s-.09-10.79,6.8-9.29c4.65,1,9.79,2.74,10.71.33,1.41-3.57-5.73-5.31-9.13-8.47-4.4-4-7.47-9.29-5.56-15.76C273.62,23.35,279.68,21.86,285.48,21.61Z"/></g></g><g class="a"><g class="a"><path class="c" d="M55.16,6.74a6.05,6.05,0,0,1-6.31,5.81c-1.58-.08-7.22,0-13.94.08-.17,6.56,0,40.92-.17,44.48-.16,4.4-1.08,7.31-6.22,7.56C23.79,65,22,60.44,21.79,56.2c-.16-4.65-.33-35.35.09-43.4C14.91,13,9,13.05,7.69,13,3.54,12.8.71,11.88.05,7.15S4,.27,8,.1c4.65-.17,37.51-.17,41.41.33A6.3,6.3,0,0,1,55.16,6.74Z"/></g><g class="a"><path class="d" d="M63.05,15.37c.83-6.56,8.13-8.13,11-6.56a8.48,8.48,0,0,1,4.9,8c0,3.49-2.24,7-7.47,7.39A7.88,7.88,0,0,1,63.05,15.37Zm.33,20.83c.41-6.56,4.48-8.71,7.88-8.88,4.07,0,7,3.32,7,10.37,0,7.31.42,15.69-.41,20.09s-3.24,7.14-7.64,6.8c-5.72-.49-6.22-4.89-6.72-9.29A131.29,131.29,0,0,1,63.38,36.2Z"/></g><g class="a"><path class="c" d="M103.8,62.84C95.91,61,89.52,53.63,88.86,43.75s4.56-19.33,15.35-22.24c8.63-2.41,15.77,0,19,2.08,2.07,1.32,4.73,4,3.15,8.54-1.24,3.74-4.4,5.32-7.88,4.07-5.4-1.91-12.78-2.24-14.28,4.65-.83,4.23,1.16,7.8,8.05,8.63,3.65.42,8-.83,10.46-.25,1.58.33,4.56,1.91,4.56,6.64,0,4.4-3.73,6.39-7.22,7.39C116.33,64.34,111.76,64.83,103.8,62.84Z"/></g><g class="a"><path class="d" d="M170.44,52.8c2,2.41,1.41,7.14,0,8.8a7.56,7.56,0,0,1-10.2.16c-2-1.74-6.48-6.3-10.13-10,0,3,0,5.15-.08,5.81a7.08,7.08,0,0,1-6.72,6.73c-4.32.33-6.23-3-6-7.14s-.41-43.41-.41-46.81c0-3.73.82-7.63,5.47-7.63a7.34,7.34,0,0,1,7.64,7.3c0,1.58.08,10.21.08,19.75,4-3.15,9.63-7.55,11.54-8.88,3.23-2.24,8-1.41,9.62,1.58a7.64,7.64,0,0,1-2,9.46c-3,2.32-10.12,9-10.12,9S168.45,50.39,170.44,52.8Z"/></g><g class="a"><path class="c" d="M195.1,21.68c9.71-1.08,15.68,2.32,19.08,8.55s1.75,12.36-3.56,15.76c-4.32,2.74-15,2-15,2,.83.41,1.58,5.31,11.71,3,4-.91,8.63,3.66,6,8.22-1.49,2.74-6.47,6.06-16.93,4.23-8.54-1.49-16-6.8-16-22.57C180.41,33,185.39,22.67,195.1,21.68ZM197,32.3c-2.33,2.16-3.49,4.48-1.91,5.73,2.32,1.66,10,.41,9.12-2.83C203.56,32.47,200.16,31.06,197,32.3Z"/></g><g class="a"><path class="d" d="M260.83,29.4c-.08,3.56-3.4,6.14-8.55,6.14H248V56c0,4.82-1.5,8.14-5.9,8.14s-5.81-2.83-6.39-8.39c-.33-4.06-.33-12.78-.25-20.16-4.81.16-12.86-.34-12.86-5.9,0-6,7.22-8.21,13.61-8.38.17-7.14,1.16-10.37,6.56-10.37s5.39,5.72,5.39,10.46c1.08.08,5.06.16,6,.24A7.59,7.59,0,0,1,260.83,29.4Z"/></g><g class="a"><path class="c" d="M284.48,17.61c7.31-.25,12.87,2.24,14.36,5.64,1.41,3.24-.16,8.22-5.14,8.3-4.32,0-8-3.07-10.54,0s3,4.4,5.72,6.64c4.07,3.41,10.38,9.21,8,18-2.07,7.47-6.64,10.29-15.27,10.13-9.05-.09-12.45-3-14.27-5.4s-.09-10.79,6.8-9.29c4.65,1,9.79,2.74,10.71.33,1.41-3.57-5.73-5.31-9.13-8.47-4.4-4-7.47-9.29-5.56-15.76C272.62,19.35,278.68,17.86,284.48,17.61Z"/></g></g></svg>