<svg xmlns="http://www.w3.org/2000/svg" viewBox="0 0 155.73 82.69"><defs><style>.a{isolation:isolate;}.b{fill:#fff;}.c{fill:#ffa5d1;}.d{fill:#6dddff;}</style></defs><g class="a"><g class="a"><path class="b" d="M57.83,10.82a6.12,6.12,0,0,1-6.39,5.88c-1.59-.08-7.31,0-14.11.08-.17,6.64,0,41.42-.17,45-.17,4.45-1.09,7.39-6.3,7.64-4.79.34-6.63-4.28-6.8-8.57-.17-4.7-.34-35.78.08-43.93-7,.17-13,.25-14.36.17C5.58,17,2.72,16,2.05,11.24s4-7,8.06-7.14c4.71-.17,38-.17,41.92.34A6.37,6.37,0,0,1,57.83,10.82Z"/><path class="b" d="M63.87,52.65C61.69,42.91,66.31,26.7,84,26.86S106,41,105.54,50C105,59.88,97.64,69,84.29,69,76,69,66.48,64.16,63.87,52.65Zm24.36-12.6c-6-3-11.17,2.1-12,5.21-.92,3.7.59,9.07,6.39,10.16,5.62,1.18,9.24-2,10.08-5.37A8.17,8.17,0,0,0,88.23,40.05Z"/><path class="b" d="M128.72,25.18c7-.16,18.15.68,23.35,8S157.2,52,150.39,60.21s-21.25,6.72-21.25,6.72c.93,1.43.09,4.79.09,8.15s-2.27,7.14-6,7.56-7.05-2-6.89-7.14c.26-5.8-1.26-32.93-.5-41.75S121.67,25.44,128.72,25.18Zm3.36,28.31c3.19,0,7.39,0,9.66-4.2a7.87,7.87,0,0,0-2.94-10.5c-3.61-1.93-10.75-1.76-11,1.85-.17,3.11-.17,5.88-.17,8.32C127.63,52.15,129,53.49,132.08,53.49Z"/></g></g><g class="a"><g class="a"><path class="c" d="M55.83,6.82a6.12,6.12,0,0,1-6.39,5.88c-1.59-.08-7.31,0-14.11.08-.17,6.64,0,41.42-.17,45-.17,4.45-1.09,7.39-6.3,7.64-4.79.34-6.63-4.28-6.8-8.57-.17-4.7-.34-35.78.08-43.93-7,.17-13,.25-14.36.17C3.58,13,.72,12,.05,7.24s4-7,8.06-7.14c4.71-.17,38-.17,41.92.34A6.37,6.37,0,0,1,55.83,6.82Z"/></g><g class="a"><path class="d" d="M61.87,48.65C59.69,38.91,64.31,22.7,82,22.86S104,37,103.54,46C103,55.88,95.64,65,82.29,65,74,65,64.48,60.16,61.87,48.65Zm24.36-12.6c-6-3-11.17,2.1-12,5.21-.92,3.7.59,9.07,6.39,10.16,5.62,1.18,9.24-2,10.08-5.37A8.17,8.17,0,0,0,86.23,36.05Z"/></g><g class="a"><path class="c" d="M126.72,21.18c7-.16,18.15.68,23.35,8S155.2,48,148.39,56.21s-21.25,6.72-21.25,6.72c.93,1.43.09,4.79.09,8.15s-2.27,7.14-6,7.56-7.05-2-6.89-7.14c.26-5.8-1.26-32.93-.5-41.75S119.67,21.44,126.72,21.18Zm3.36,28.31c3.19,0,7.39,0,9.66-4.2a7.87,7.87,0,0,0-2.94-10.5c-3.61-1.93-10.75-1.76-11,1.85-.17,3.11-.17,5.88-.17,8.32C125.63,48.15,127,49.49,130.08,49.49Z"/></g></g></svg>