<svg xmlns="http://www.w3.org/2000/svg" viewBox="0 0 905.03 94"><defs><style>.a{fill:#b0a671;}</style></defs><polygon class="a" points="517.88 26.97 517.88 26.95 518.88 26.95 517.88 26.97"/><path class="a" d="M869,94a15.74,15.74,0,0,1-12.71-7.06A22,22,0,0,1,853,72.22c.11-1,.28-2.08.47-3.24.41-2.54.8-4.91.29-7.07-1-4.16-7.41-5-13.35-5.48H64.58c-5.9.47-12.31,1.32-13.3,5.48-.52,2.15-.13,4.51.28,7,.18,1.12.36,2.22.47,3.31a22.07,22.07,0,0,1-3.29,14.72A15.81,15.81,0,0,1,36,94h0c-.38,0-.74,0-1.1,0-5.92-.5-10.88-5.27-11.3-10.86a9.47,9.47,0,0,1,4.28-8.87A7.75,7.75,0,0,1,38,76.08a6.68,6.68,0,0,1,.72,6.08,6,6,0,0,1-4,3.88,2.32,2.32,0,0,1-1.28-4.47,1.48,1.48,0,0,0,.88-1,2.1,2.1,0,0,0-.15-1.88,3.07,3.07,0,0,0-3.87-.54,4.91,4.91,0,0,0-2.06,4.54c.25,3.33,3.41,6.28,7.06,6.6a11,11,0,0,0,9.57-5,17.41,17.41,0,0,0,2.52-11.61c-.1-1-.26-1.93-.42-2.94-.48-2.93-1-5.88-.23-9a8.42,8.42,0,0,1,2.53-4.41h-7c-.69,0-1.39,0-2.1,0-1.31,0-2.64.05-4,0-.6,0-1.19,0-1.78,0H29.88a.85.85,0,0,1-.34-.08h-.18c-2.83-.11-7.52.67-9.09,1.78a6.3,6.3,0,0,0-2.77,5.16,4.12,4.12,0,0,0,2.92,3.79,1.17,1.17,0,0,1-.05-.11.36.36,0,0,1,0-.11,3.69,3.69,0,0,1-1.15-3.1,2.16,2.16,0,0,1,0-1.86,4.27,4.27,0,0,1,5.08-2.45A5.66,5.66,0,0,1,28.4,65.2a6.93,6.93,0,0,1-2.78,5,7.79,7.79,0,0,1-4.69,1.62,6.88,6.88,0,0,1-1.29-.12,8.78,8.78,0,0,1-6.78-8.22,10.85,10.85,0,0,1,4.73-9.1,11.58,11.58,0,0,1,1.8-1A33.61,33.61,0,0,1,7,45,25.22,25.22,0,0,1,.1,30.36,18.63,18.63,0,0,1,5.81,14.89,15.12,15.12,0,0,1,22.28,12.3c5.5,2.73,8.16,10,5.6,15.33a11.24,11.24,0,0,1-10.35,6,8.48,8.48,0,0,1-3.29-.85h0a5.62,5.62,0,0,1-5.66-4.93,5.86,5.86,0,0,1,4.07-6.68,4,4,0,0,1,2.39,0,4.17,4.17,0,0,1,3.18,1.66,6.51,6.51,0,0,1,.38.59A5.72,5.72,0,0,1,19.71,26a4,4,0,0,1,.4,2.64,6.55,6.55,0,0,0,3.61-3.06c1.47-3-.22-7.49-3.49-9.12a10.59,10.59,0,0,0-11.3,1.86A14,14,0,0,0,4.72,29.9a20.46,20.46,0,0,0,5.66,11.86c6,6.44,13.71,9.57,24.25,9.87H60.3c-4.67-2.73-7.64-6.39-8.44-10.43-.47-2.34-.11-5.46,2.27-7.21s5.79-1.43,9.33,1a69.68,69.68,0,0,1,8.71,7.46C73.45,43.66,74.71,44.86,76,46c4.16,3.7,11.94,5.13,15.09,5.57.24,0,.51,0,.78,0H312.11c-.27-.16-.53-.32-.78-.49a14.06,14.06,0,0,1-1.17-.93,14.41,14.41,0,0,1-1.22-20.34,14.68,14.68,0,0,1,3.63-2.75c3.65-2,8-2.66,13.24-2.14A81.18,81.18,0,0,1,339,27.85l3,.83c5,1.34,10.14,2.84,15.06,4.3l5.76,1.69c.91.26,1.84.55,2.78.83,5.49,1.67,11.72,3.57,17.41,2.77a9.54,9.54,0,0,0,6.32-3.34,5.61,5.61,0,0,0,1.2-3,.25.25,0,0,0,0,.07,4.49,4.49,0,0,1-2.25,3.12,5.4,5.4,0,0,1-4.38.46,2.28,2.28,0,0,1-1.32-.32,6.44,6.44,0,0,1-2.86-5.57,7.08,7.08,0,0,1,3.15-6,7.58,7.58,0,0,1,5.84-.87A8.48,8.48,0,0,1,394,26.63a10.2,10.2,0,0,1-1,11.15,15,15,0,0,1-2,2l-.31.27a82.8,82.8,0,0,0,8.48.35c3.88-.36,9.07-1.54,11.54-5.13,1.1-1.61,1.32-3.78,1.56-6.07.32-3.18.72-7.13,4-9.88a8,8,0,0,1,10.66,1,7.92,7.92,0,0,1,2.11,5.75c-.17,5.68-5.46,11.55-8.24,13.85a15.16,15.16,0,0,1-1.78,1.22,40.76,40.76,0,0,0,14.05-4.82c6.87-4.08,11.54-10.78,12.19-17.5.47-4.85-.9-11.38-6.28-13.83a4.69,4.69,0,0,0-4.58.66,5.63,5.63,0,0,1,5,1.37,5.52,5.52,0,0,1,1,6.27,5.46,5.46,0,0,1-5.33,3.33,4.6,4.6,0,0,1-2-.63h-.05c-4.23-1.69-5.19-4.53-5.39-6.08A8.76,8.76,0,0,1,431.58,2,9.28,9.28,0,0,1,441,.74c6.28,2.86,9.81,10.12,9,18.5-.73,7.55-5.37,14.84-12.51,19.77a24.45,24.45,0,0,1,4.91,1.2c3.58,1.29,6,3.36,6.9,6a6.73,6.73,0,0,1-.53,5.45h6.86a6.71,6.71,0,0,1-.53-5.42c.94-2.64,3.32-4.71,6.9-6a24.61,24.61,0,0,1,4.91-1.2c-7.14-4.93-11.78-12.23-12.51-19.77-.8-8.39,2.72-15.65,9-18.5A9.3,9.3,0,0,1,472.77,2a8.74,8.74,0,0,1,3.86,7.84c-.2,1.57-1.16,4.41-5.38,6.1l-.1,0a4.35,4.35,0,0,1-2,.61,5.45,5.45,0,0,1-5.33-3.33A5.5,5.5,0,0,1,464.79,7a5.69,5.69,0,0,1,5.06-1.39,4.7,4.7,0,0,0-4.6-.64c-5.36,2.44-6.73,9-6.26,13.81.64,6.72,5.32,13.43,12.19,17.5a40.69,40.69,0,0,0,14.05,4.83,16.74,16.74,0,0,1-1.77-1.21c-2.79-2.32-8.08-8.18-8.26-13.87A8,8,0,0,1,488,19.29c3.3,2.76,3.69,6.55,4,9.9.24,2.31.47,4.47,1.56,6.07,2.47,3.59,7.66,4.78,11.58,5.13a79.32,79.32,0,0,0,8.43-.34l-.29-.26a14.67,14.67,0,0,1-2-2,10.21,10.21,0,0,1-1-11.13,8.52,8.52,0,0,1,5.32-3.86,7.53,7.53,0,0,1,5.8.86,7.09,7.09,0,0,1,3.17,6,6.42,6.42,0,0,1-2.84,5.53,2.35,2.35,0,0,1-1.35.34,5.41,5.41,0,0,1-4.37-.47,4.48,4.48,0,0,1-2.25-3.15.14.14,0,0,1,0-.07A5.58,5.58,0,0,0,515,34.94a9.53,9.53,0,0,0,6.29,3.33c4.86.68,10.18-.75,14.87-2l1.37-.36c2.7-.71,5.12-1.37,7.39-2,4.73-1.36,9.49-2.9,14.12-4.57a80.42,80.42,0,0,1,19.62-4.19c7.52-.7,13,.85,16.76,4.73a13.89,13.89,0,0,1,.93,1.16A14.41,14.41,0,0,1,593,51.13c-.26.18-.52.34-.79.5H813.15c.27,0,.54,0,.8,0,3.12-.44,10.92-1.88,15.06-5.55,1.25-1.11,2.48-2.28,3.67-3.42l.22-.21A70.12,70.12,0,0,1,841.57,35c3.55-2.42,6.95-2.79,9.34-1s2.74,4.89,2.28,7.23c-.81,4-3.78,7.7-8.45,10.44h25.75c10.48-.3,18.17-3.44,24.17-9.87a20.44,20.44,0,0,0,5.66-11.85,14,14,0,0,0-4.22-11.59,10.51,10.51,0,0,0-11.28-1.86c-3.27,1.62-5,6.07-3.48,9.14a6.6,6.6,0,0,0,3.59,3,4,4,0,0,1,.4-2.62,5.89,5.89,0,0,1,1.17-2.61c.07-.13.19-.32.32-.51A4.24,4.24,0,0,1,890,21.21a4,4,0,0,1,2.39,0,5.85,5.85,0,0,1,4.07,6.68,5.62,5.62,0,0,1-5.65,4.92h0a8.38,8.38,0,0,1-3.27.85,11.32,11.32,0,0,1-10.37-6c-2.56-5.3.11-12.61,5.59-15.33a15.17,15.17,0,0,1,16.48,2.57h0a18.7,18.7,0,0,1,5.69,15.47A25.22,25.22,0,0,1,898,45a33.59,33.59,0,0,1-12.39,8.4,12.33,12.33,0,0,1,1.79,1,10.86,10.86,0,0,1,4.74,9.1,8.78,8.78,0,0,1-6.76,8.23,8.51,8.51,0,0,1-1.31.12,7.84,7.84,0,0,1-4.7-1.62,7,7,0,0,1-2.78-4.94,5.68,5.68,0,0,1,4.2-5.78,4.27,4.27,0,0,1,5.08,2.47,2.29,2.29,0,0,1,0,1.9,3.7,3.7,0,0,1-1.16,3.05.49.49,0,0,0,0,.11l-.06.11a4.14,4.14,0,0,0,2.93-3.82,6.31,6.31,0,0,0-2.77-5.12c-1.67-1.19-6.43-1.84-9.11-1.78l-.21,0a.54.54,0,0,1-.3.08h-4.53c-.59,0-1.18,0-1.77,0-1.34.05-2.67.05-4,0-.7,0-1.4,0-2.1,0h-7a8.5,8.5,0,0,1,2.54,4.41c.73,3,.25,6-.21,8.81-.2,1.18-.35,2.11-.45,3.06a17.42,17.42,0,0,0,2.53,11.63,10.91,10.91,0,0,0,9.58,5c3.63-.3,6.79-3.26,7-6.57a4.9,4.9,0,0,0-2.09-4.57,3.06,3.06,0,0,0-3.9.63,2.1,2.1,0,0,0-.11,1.76,1.58,1.58,0,0,0,.93,1,2.24,2.24,0,0,1,1.36,1.08,2.33,2.33,0,0,1-2.66,3.38,6.05,6.05,0,0,1-4-3.92,6.64,6.64,0,0,1,.7-6,7.72,7.72,0,0,1,10.11-1.89,9.43,9.43,0,0,1,4.29,8.88C881,88.68,876,93.45,870.08,94,869.72,94,869.36,94,869,94ZM840.43,55.43c6.33.5,13.13,1.43,14.28,6.25.56,2.35.15,4.82-.27,7.43-.19,1.17-.36,2.2-.46,3.22a21,21,0,0,0,3.13,14.07A14.8,14.8,0,0,0,869,93c.32,0,.66,0,1,0,5.44-.46,10-4.83,10.39-9.94a8.5,8.5,0,0,0-3.83-8,6.72,6.72,0,0,0-8.77,1.63,5.67,5.67,0,0,0-.57,5.11,5.08,5.08,0,0,0,3.34,3.29,1.35,1.35,0,0,0,1.63-.92,1.37,1.37,0,0,0-.12-1,1.28,1.28,0,0,0-.8-.62,2.57,2.57,0,0,1-1.56-1.64,3,3,0,0,1,.25-2.68,4.08,4.08,0,0,1,5.25-.88,5.94,5.94,0,0,1,2.54,5.5c-.29,3.77-3.86,7.13-8,7.48a11.89,11.89,0,0,1-10.49-5.44,18.4,18.4,0,0,1-2.68-12.29c.1-1,.25-1.91.44-3,.46-2.79.92-5.62.24-8.49a7.54,7.54,0,0,0-3.3-4.71l-1.47-.92h10.24c.71,0,1.42,0,2.13,0,1.29.05,2.59.05,3.91,0,.6,0,1.21,0,1.81,0h4.46a.82.82,0,0,1,.25-.08l.09,0,.09,0,.18,0c2.7-.05,7.75.59,9.65,1.95a7.3,7.3,0,0,1,3.2,6,5.16,5.16,0,0,1-3.78,4.8,3.72,3.72,0,0,1-1.46,0l-1.44-.36,1.36-.59a1.05,1.05,0,0,0,.54-.52l.1-.28.1-.08a2.68,2.68,0,0,0,.9-2.41l0-.17.08-.15a1.28,1.28,0,0,0,.07-1.16,3.26,3.26,0,0,0-3.89-1.89,4.66,4.66,0,0,0-3.47,4.74A5.93,5.93,0,0,0,880,69.37a6.82,6.82,0,0,0,4.11,1.42,5.12,5.12,0,0,0,1.1-.1,7.75,7.75,0,0,0,6-7.27,9.85,9.85,0,0,0-4.3-8.25,10.45,10.45,0,0,0-2.84-1.3l-1.54-.44,1.51-.51a32.69,32.69,0,0,0,13.31-8.63,24.24,24.24,0,0,0,6.63-14,17.72,17.72,0,0,0-5.39-14.64,14.15,14.15,0,0,0-15.37-2.41c-5,2.49-7.45,9.16-5.13,14a10.3,10.3,0,0,0,9.44,5.47,7.55,7.55,0,0,0,3-.8l.11-.05h.13a4.66,4.66,0,0,0,4.79-4.08,4.83,4.83,0,0,0-3.38-5.57,3.07,3.07,0,0,0-1.85,0l-.15,0A3.25,3.25,0,0,0,887.33,24a4.93,4.93,0,0,0-1,2.29l0,.17a2.94,2.94,0,0,0-.11,2.72l.43.91-1-.2a7.62,7.62,0,0,1-5.14-3.78c-1.72-3.55.2-8.64,3.92-10.5s9-1,12.41,2A15,15,0,0,1,901.31,30a21.39,21.39,0,0,1-5.93,12.43c-6.18,6.63-14.09,9.87-24.88,10.18H842.77l-.23-1c5.39-2.67,8.83-6.46,9.67-10.68.4-2,.12-4.75-1.89-6.23s-5-1.13-8.17,1a68,68,0,0,0-8.55,7.34l-.23.21c-1.2,1.15-2.43,2.33-3.7,3.45-4.19,3.71-11.58,5.22-15.62,5.8l-.9,0H589.68l-.13-1a9.3,9.3,0,0,0,2.88-1.32A13.42,13.42,0,0,0,595.5,31.6a12.33,12.33,0,0,0-.86-1.08c-3.5-3.63-8.71-5.08-15.93-4.4a79.2,79.2,0,0,0-19.37,4.13c-4.65,1.68-9.43,3.23-14.19,4.59-2.28.65-4.7,1.31-7.41,2l-1.36.36c-4.79,1.28-10.21,2.73-15.25,2a10.52,10.52,0,0,1-6.94-3.69,6.6,6.6,0,0,1-.76-7.06,4.84,4.84,0,0,1,3-2.18,4,4,0,0,1,2.07.06l.41.12-.08.58s0,.06,0,.1l-.08.45h-.47a3.35,3.35,0,0,0-3.56,4.09,3.58,3.58,0,0,0,1.78,2.49,4.48,4.48,0,0,0,3.64.35l.11,0h.11a1.3,1.3,0,0,0,.82-.17,5.44,5.44,0,0,0,2.38-4.69,6.12,6.12,0,0,0-2.71-5.2,6.57,6.57,0,0,0-5-.73,7.55,7.55,0,0,0-4.69,3.39,9.2,9.2,0,0,0,.91,10A15,15,0,0,0,513.93,39c.85.75,1.23,1.09,1.1,1.56a.62.62,0,0,1-.53.42l-.07,0h-.07a1.7,1.7,0,0,0-.39,0,79.9,79.9,0,0,1-8.89.38c-4.17-.38-9.67-1.65-12.35-5.57-1.24-1.8-1.48-4.08-1.73-6.49-.33-3.19-.7-6.77-3.66-9.25A7,7,0,0,0,476.2,26c.17,5.34,5.23,10.92,7.88,13.13a15.84,15.84,0,0,0,4.61,2.49l-.22,1c-7.25-.86-13.07-2.64-17.8-5.44-7.14-4.23-12-11.23-12.68-18.26-.5-5.18,1-12.17,6.87-14.83a5.68,5.68,0,0,1,5.75.89A6.48,6.48,0,0,1,472.45,7l-.76.63a4.64,4.64,0,0,0-6.2.1,4.49,4.49,0,0,0-.73,5.11,4.44,4.44,0,0,0,4.34,2.76,3.86,3.86,0,0,0,1.65-.53L471,15c3.69-1.52,4.52-3.93,4.69-5.24a7.75,7.75,0,0,0-3.46-6.93,8.31,8.31,0,0,0-8.43-1.15c-5.86,2.66-9.16,9.52-8.39,17.48.73,7.64,5.67,15,13.21,19.79l1.28.8-1.5.12a23.59,23.59,0,0,0-6.05,1.3c-3.29,1.19-5.46,3.05-6.3,5.38a5.69,5.69,0,0,0,.89,5.25l-.33.25v.6h-8.8v-.5l-.33-.35a5.75,5.75,0,0,0,.89-5.28c-.83-2.31-3-4.17-6.3-5.36a23.18,23.18,0,0,0-6-1.29l-1.5-.12,1.27-.81c7.54-4.75,12.48-12.14,13.21-19.78.77-8-2.53-14.82-8.41-17.49a8.26,8.26,0,0,0-8.38,1.14,7.78,7.78,0,0,0-3.49,7c.17,1.28,1,3.71,4.69,5.21h0l.13.06a3.7,3.7,0,0,0,1.67.54,4.46,4.46,0,0,0,4.35-2.75,4.51,4.51,0,0,0-.74-5.13,4.66,4.66,0,0,0-6.19-.09L431.87,7a6.7,6.7,0,0,1,1.86-2.07,5.69,5.69,0,0,1,5.71-.88c5.89,2.68,7.39,9.67,6.89,14.84-.68,7-5.54,14-12.68,18.27-4.73,2.8-10.55,4.58-17.8,5.44l-.22-1a16.08,16.08,0,0,0,4.62-2.51c2.64-2.19,7.7-7.78,7.86-13.11a7,7,0,0,0-6.71-7.28A7.08,7.08,0,0,0,417,20.1c-2.94,2.47-3.31,6-3.63,9.2-.25,2.43-.49,4.72-1.73,6.53-2.69,3.92-8.18,5.19-12.31,5.57a80.49,80.49,0,0,1-8.94-.38,1.45,1.45,0,0,0-.36,0h-.16a.61.61,0,0,1-.53-.43c-.14-.47.25-.81,1.1-1.57a13.62,13.62,0,0,0,1.86-1.86,9.2,9.2,0,0,0,.89-10,7.53,7.53,0,0,0-4.65-3.36,6.54,6.54,0,0,0-5.06.74,6.11,6.11,0,0,0-2.69,5.17,5.46,5.46,0,0,0,2.4,4.72,1.31,1.31,0,0,0,.79.16h.12l.11,0a4.44,4.44,0,0,0,3.64-.36,3.5,3.5,0,0,0,1.77-2.45,3.26,3.26,0,0,0-2.2-3.92l-3.17-1,1.58-.47a4,4,0,0,1,2.07-.06,4.83,4.83,0,0,1,3,2.14,6.59,6.59,0,0,1-.73,7.09,10.43,10.43,0,0,1-7,3.7c-5.89.83-12.23-1.1-17.82-2.8-.94-.29-1.86-.57-2.77-.83l-5.76-1.7c-4.92-1.45-10-2.95-15-4.29l-3-.82A78.67,78.67,0,0,0,325.71,26c-5.06-.51-9.2.16-12.66,2a13.79,13.79,0,0,0-3.38,2.55,13.4,13.4,0,0,0,1.15,18.91c.34.3.71.59,1.08.86a9.37,9.37,0,0,0,2.87,1.32l-.13,1H91.9c-.29,0-.59,0-.88,0-3.28-.46-11.29-1.94-15.66-5.82-1.33-1.18-2.6-2.39-3.89-3.63a68.31,68.31,0,0,0-8.59-7.35c-3.14-2.16-6.12-2.53-8.16-1S52.43,39,52.84,41c.84,4.22,4.27,8,9.66,10.69l-.22.94H34.62c-10.84-.31-18.77-3.54-25-10.18A21.51,21.51,0,0,1,3.73,30,15,15,0,0,1,8.24,17.59a11.61,11.61,0,0,1,12.41-2c3.75,1.87,5.66,7,4,10.49a7.53,7.53,0,0,1-5.16,3.81l-1,.2.42-.9a3,3,0,0,0-.09-2.74l-.06-.16a4.87,4.87,0,0,0-1-2.23c-.14-.23-.24-.39-.35-.55a3.18,3.18,0,0,0-2.47-1.25l-.16,0a3.07,3.07,0,0,0-1.85,0,4.81,4.81,0,0,0-3.37,5.56,4.63,4.63,0,0,0,4.78,4.09h.13l.11.06a7.56,7.56,0,0,0,3,.8A10.23,10.23,0,0,0,27,27.18c2.33-4.81-.12-11.48-5.14-14A14.14,14.14,0,0,0,6.49,15.62a17.68,17.68,0,0,0-5.4,14.63,24.27,24.27,0,0,0,6.63,14A32.66,32.66,0,0,0,21,52.92l1.52.52L21,53.87a10.31,10.31,0,0,0-2.86,1.31,9.85,9.85,0,0,0-4.29,8.25,7.77,7.77,0,0,0,6,7.26,5.29,5.29,0,0,0,1.08.1A6.88,6.88,0,0,0,25,69.38a5.94,5.94,0,0,0,2.38-4.25A4.63,4.63,0,0,0,24,60.42a3.27,3.27,0,0,0-3.9,1.88,1.14,1.14,0,0,0,.08,1.09l.1.16,0,.19a2.67,2.67,0,0,0,.88,2.46l.09.08.09.22a1.06,1.06,0,0,0,.56.58l1.36.59L21.74,68a3.66,3.66,0,0,1-1.4.06A5.13,5.13,0,0,1,16.5,63.3a7.29,7.29,0,0,1,3.2-6c1.92-1.36,7-2.05,9.7-2l.11,0,.16,0a.94.94,0,0,1,.27.09h4.47c.6,0,1.21,0,1.81,0,1.32.05,2.62,0,3.91,0,.72,0,1.42,0,2.13,0H52.5L51,56.36a7.44,7.44,0,0,0-3.3,4.7c-.69,2.88-.22,5.74.23,8.49.17,1,.34,2.06.44,3.06a18.41,18.41,0,0,1-2.67,12.27,11.94,11.94,0,0,1-10.47,5.44c-4.14-.35-7.71-3.72-8-7.5a6,6,0,0,1,2.51-5.47,4.08,4.08,0,0,1,5.23.8,3.16,3.16,0,0,1,.29,2.79,2.54,2.54,0,0,1-1.51,1.58,1.35,1.35,0,0,0-.94,1.66,1.33,1.33,0,0,0,1.62.9,5,5,0,0,0,3.32-3.26,5.66,5.66,0,0,0-.59-5.16,6.73,6.73,0,0,0-8.76-1.59A8.47,8.47,0,0,0,24.63,83C25,88.13,29.57,92.49,35,93c.34,0,.67,0,1,0A14.8,14.8,0,0,0,47.9,86.39a21.06,21.06,0,0,0,3.14-14c-.11-1.08-.29-2.16-.46-3.21-.44-2.65-.84-5.1-.28-7.45,1.15-4.82,8-5.75,14.24-6.25ZM518.36,27v0h.09l-.05,0Zm0,0ZM320.52,52.85V51.66l.52,0a7.57,7.57,0,0,0,5-7.54,6.29,6.29,0,0,0-2.83-4.51,5.57,5.57,0,0,0-4.7-.79,1.33,1.33,0,0,0-.32.18L318,39a4.78,4.78,0,0,0-3.48,3.72,5.1,5.1,0,0,0,2.21,5.7l-.36.91a8.66,8.66,0,0,1-3-1.24A10.82,10.82,0,0,1,311.11,33c.14-.19.29-.38.45-.56,4.56-4.74,12.5-4.2,18.07-3.39,8.06,1.18,18.22,4.48,24.94,6.67h.11l.14,0c15.2,5.23,35.34,11.1,56.29,10a69.35,69.35,0,0,0,8.74-1,39,39,0,0,1,4-.84l1.45-.1c4.66-.35,9.48-.7,12.51,4.08.24.38.47.75.7,1.15a12.54,12.54,0,0,0,1.9,2.78l.76.84h-120Zm2.72-1.23H439a13.58,13.58,0,0,1-1.34-2.15q-.32-.54-.66-1.08c-2.72-4.28-7-4-11.59-3.63l-1.42.1a36.15,36.15,0,0,0-3.87.83,72.78,72.78,0,0,1-8.9,1c-21.1,1.13-41.33-4.75-56.62-10l-.23,0c-6.75-2.2-16.85-5.48-24.83-6.65-5.36-.78-13-1.31-17.19,3.07-.12.14-.26.31-.39.49a9.82,9.82,0,0,0,2,13.74,4.27,4.27,0,0,0,.51.3,6.07,6.07,0,0,1-.88-5.08,5.78,5.78,0,0,1,4.11-4.43,2.27,2.27,0,0,1,.54-.27,6.55,6.55,0,0,1,5.56.91A7.29,7.29,0,0,1,327,44v0A8.6,8.6,0,0,1,323.24,51.62Zm260.57,1.21-.66-.19h-120l.76-.83A12.87,12.87,0,0,0,465.83,49v0c.23-.41.46-.79.7-1.16,2.84-4.47,7.95-4.48,11.56-4.1,2.1.22,4.22.55,6.26.87a88.94,88.94,0,0,0,8.86,1.08c21,1.12,41.1-4.74,56.3-10l.15,0,.16,0c6.66-2.17,16.82-5.47,24.87-6.65,5.58-.81,13.52-1.34,18.06,3.36a10.82,10.82,0,0,1-1.18,15.28c-.19.16-.37.31-.57.45A8.71,8.71,0,0,1,588,49.38l-.36-.91a5.1,5.1,0,0,0,2.23-5.67,4.82,4.82,0,0,0-3.49-3.75l-.17-.08a1.27,1.27,0,0,0-.36-.2,5.53,5.53,0,0,0-4.66.8,6.33,6.33,0,0,0-2.84,4.53,7.58,7.58,0,0,0,5,7.53h.52Zm-118.43-1.2H581.1A8.57,8.57,0,0,1,577.31,44a7.33,7.33,0,0,1,3.27-5.27,6.53,6.53,0,0,1,5.53-.92,2.54,2.54,0,0,1,.57.29,5.78,5.78,0,0,1,4.11,4.46,6,6,0,0,1-.88,5l.53-.32.49-.39A9.83,9.83,0,0,0,592,33.06c-4.2-4.35-11.81-3.82-17.18-3-8,1.16-18.08,4.45-24.77,6.63a2,2,0,0,1-.29,0c-15.28,5.26-35.52,11.13-56.61,10-3-.17-6.05-.64-9-1.09-2-.32-4.14-.65-6.22-.87-5.38-.56-8.65.56-10.61,3.64l-.67,1.11A12.75,12.75,0,0,1,465.38,51.63Zm-388.3.61c-4.81-.16-8.76-.62-12.39-2.33l.21-.45-.21.45c-3.72-1.75-8.34-4.79-9.26-9.39-.24-1.19-.15-2.85.86-3.6a2.24,2.24,0,0,1,1.36-.4A7.53,7.53,0,0,1,61.42,38a65.06,65.06,0,0,1,8.23,7.07c1.2,1.15,2.58,2.47,4,3.7a18.83,18.83,0,0,0,3.72,2.51ZM57.54,37.52a1.23,1.23,0,0,0-.67.21c-.55.41-.65,1.62-.46,2.59.84,4.19,5.2,7,8.71,8.69h0a26.5,26.5,0,0,0,10,2.14A21,21,0,0,1,73,49.54c-1.4-1.24-2.78-2.57-4-3.74a64.88,64.88,0,0,0-8.12-7,6.55,6.55,0,0,0-3.26-1.3ZM828,52.23l-.25-.94a18.8,18.8,0,0,0,3.73-2.52c1.31-1.16,2.6-2.4,3.85-3.6l.13-.11A65.86,65.86,0,0,1,843.63,38a7.58,7.58,0,0,1,3.74-1.49,2.27,2.27,0,0,1,1.37.39c1,.76,1.11,2.42.88,3.61-.92,4.59-5.55,7.65-9.27,9.4l-.71.34v0C836.19,51.68,832.45,52.09,828,52.23Zm19.53-14.72h0a6.49,6.49,0,0,0-3.21,1.29,65.07,65.07,0,0,0-8.11,7l-.13.13c-1.26,1.2-2.57,2.45-3.9,3.63A21,21,0,0,1,830,51.14a26.49,26.49,0,0,0,10-2.13l.34-.16c3.45-1.68,7.56-4.48,8.37-8.54.19-1,.09-2.18-.48-2.6A1.2,1.2,0,0,0,847.49,37.51Z"/><polygon class="a" points="517.92 27.29 517.85 27.14 517.88 26.95 518.46 27 518.82 26.84 518.49 27.01 518.87 27.07 518.71 27.11 518.41 27.05 518.71 27.11 517.92 27.29"/></svg>