<svg xmlns="http://www.w3.org/2000/svg" xmlns:xlink="http://www.w3.org/1999/xlink" width="283.525" height="181.037" viewBox="0 0 283.525 181.037"><defs><clipPath id="a"><rect width="56" height="57.739" fill="none"/></clipPath></defs><g transform="translate(0.09 0.067)"><g transform="translate(-0.09 -0.067)"><path d="M426.946,208.124c-.426,34.549-26.886,41.747-26.886,41.747s.43,3.239.856,6.837c-5.552-.359-9.954-1.82-18.351,3.238-8.961,5.4-7.356,16.958-18.347,21.6-9.391,3.955-25.6.358-25.6.358v9.719c-2.137-1.082-13.658-1.8-21.762-1.082s-13.658,6.84-30.727,7.2H285.7c-17.067-.359-22.617-6.479-30.727-7.2s-19.628,0-21.764,1.082V281.9s-16.213,3.6-25.6-.358c-10.991-4.638-9.389-16.2-18.351-21.6-8.4-5.057-12.8-3.6-18.345-3.238.422-3.6.85-6.837.85-6.837s-26.456-7.2-26.882-41.747l.052-.407c.426-34.549,26.884-41.747,26.884-41.747s-.426-3.24-.852-6.838c5.546.359,9.95,1.82,18.347-3.24,8.961-5.4,7.36-16.96,18.351-21.593,9.387-3.958,25.6-.359,25.6-.359v-9.717c2.135,1.08,13.656,1.8,21.764,1.08s13.656-6.84,30.725-7.2l.426,0c17.069.359,22.619,6.479,30.723,7.2s19.632,0,21.766-1.08v9.717s16.215-3.6,25.6.359c10.993,4.633,9.391,16.2,18.353,21.593,8.4,5.059,12.8,3.6,18.345,3.24-.424,3.6-.852,6.838-.852,6.838s26.458,7.2,26.886,41.747Z" transform="translate(-144.175 -117.401)" fill="#fff"/><path d="M286.5,298.8h-.434a57.375,57.375,0,0,1-22.018-4.676,31.73,31.73,0,0,0-8.782-2.538c-2.11-.186-4.61-.283-7.231-.283-7.142,0-12.879.665-14.1,1.283l-1.064.542V283.109a73.875,73.875,0,0,1-13.359,1.336,30.99,30.99,0,0,1-11.856-1.92c-6.173-2.606-8.512-7.3-10.775-11.833-1.91-3.83-3.712-7.449-7.67-9.834-5.269-3.179-8.728-3.607-11.417-3.607a40.282,40.282,0,0,0-4.02.262c-.8.077-1.613.154-2.449.209l-.833.054.083-.7c.328-2.8.659-5.379.792-6.4-3.816-1.3-26.437-10.329-26.828-42.184l.056-.477c.389-31.8,23.007-40.829,26.824-42.124-.131-1.018-.461-3.6-.792-6.4l-.083-.7.833.053c.84.054,1.648.135,2.455.212,1.366.133,2.658.26,4.016.26,2.692,0,6.15-.428,11.415-3.605,3.955-2.387,5.76-6,7.672-9.834,2.261-4.537,4.6-9.23,10.773-11.835a30.99,30.99,0,0,1,11.858-1.924,73.923,73.923,0,0,1,13.357,1.339V123.439l1.062.539c1.222.618,6.957,1.286,14.092,1.286,2.623,0,5.126-.1,7.237-.286a31.7,31.7,0,0,0,8.784-2.536,57.264,57.264,0,0,1,22-4.674l.445,0a57.357,57.357,0,0,1,22.022,4.676,31.711,31.711,0,0,0,8.78,2.536c2.11.186,4.612.286,7.238.286,7.136,0,12.868-.669,14.09-1.286l1.066-.539V133.46a73.829,73.829,0,0,1,13.357-1.339,30.981,30.981,0,0,1,11.854,1.924c6.177,2.6,8.516,7.3,10.777,11.836,1.91,3.828,3.716,7.445,7.67,9.832,5.265,3.177,8.726,3.6,11.417,3.6,1.357,0,2.648-.125,4.018-.258.8-.077,1.611-.158,2.451-.212l.836-.053-.085.7c-.328,2.8-.663,5.378-.792,6.4,3.816,1.3,26.435,10.327,26.828,42.182l-.056.479c-.389,31.8-23.009,40.827-26.826,42.124.133,1.016.466,3.6.792,6.4l.083.7-.831-.054c-.836-.054-1.644-.132-2.449-.209-1.37-.135-2.663-.262-4.022-.262-2.69,0-6.15.428-11.417,3.607-3.953,2.385-5.758,6-7.668,9.834-2.264,4.535-4.6,9.227-10.777,11.833a30.979,30.979,0,0,1-11.854,1.92,73.879,73.879,0,0,1-13.361-1.336v10.023l-1.062-.542c-1.22-.618-6.957-1.283-14.1-1.283-2.619,0-5.119.1-7.229.283a31.751,31.751,0,0,0-8.782,2.538,57.37,57.37,0,0,1-22,4.676Zm-38.465-8.683c2.669,0,5.221.1,7.379.293a32.806,32.806,0,0,1,9.225,2.638,55.893,55.893,0,0,0,21.444,4.565h.4a55.921,55.921,0,0,0,21.436-4.565,32.838,32.838,0,0,1,9.227-2.638c2.16-.193,4.706-.293,7.377-.293,4.993,0,11,.379,13.758,1.088v-9.621l.879.193a72.955,72.955,0,0,0,13.885,1.483,29.452,29.452,0,0,0,11.228-1.8c5.71-2.411,7.844-6.7,10.108-11.24,1.9-3.81,3.868-7.754,8.146-10.336,5.625-3.389,9.491-3.824,12.234-3.824,1.438,0,2.835.135,4.182.267.515.051,1.031.1,1.557.146-.395-3.3-.767-6.125-.767-6.125l-.062-.481.545-.149c.262-.072,25.984-7.517,26.4-41.242l.058-.467c-.422-33.7-26.144-41.1-26.4-41.168l-.547-.147.062-.481s.372-2.824.769-6.129c-.528.044-1.046.095-1.561.146-1.347.132-2.742.267-4.178.267-2.744,0-6.61-.435-12.234-3.826-4.278-2.582-6.246-6.524-8.146-10.336-2.264-4.539-4.4-8.826-10.112-11.236a29.441,29.441,0,0,0-11.226-1.8,73.139,73.139,0,0,0-13.883,1.48l-.881.195V125.36c-2.762.711-8.765,1.088-13.75,1.088-2.673,0-5.228-.1-7.387-.293a32.778,32.778,0,0,1-9.222-2.64,55.912,55.912,0,0,0-21.446-4.565l-.405,0a55.9,55.9,0,0,0-21.428,4.563,32.727,32.727,0,0,1-9.227,2.64c-2.16.193-4.714.293-7.385.293-4.986,0-10.989-.377-13.75-1.088v9.621l-.881-.195a73.243,73.243,0,0,0-13.88-1.48,29.446,29.446,0,0,0-11.228,1.8c-5.71,2.41-7.849,6.7-10.11,11.234-1.9,3.814-3.868,7.756-8.148,10.338-5.622,3.391-9.491,3.828-12.232,3.828-1.438,0-2.833-.137-4.18-.269-.513-.049-1.033-.1-1.561-.146.395,3.3.769,6.129.769,6.129l.062.479-.545.149c-.26.072-25.984,7.517-26.4,41.24l-.056.465c.42,33.7,26.14,41.1,26.4,41.171l.547.147-.062.481s-.372,2.824-.767,6.127c.526-.044,1.043-.095,1.557-.146,1.349-.132,2.742-.267,4.182-.267,2.742,0,6.61.435,12.234,3.824,4.28,2.583,6.246,6.525,8.146,10.338,2.264,4.542,4.4,8.826,10.11,11.238a29.452,29.452,0,0,0,11.228,1.8,72.863,72.863,0,0,0,13.883-1.483l.879-.193v9.621C237.035,290.5,243.042,290.121,248.032,290.121Z" transform="translate(-144.54 -117.766)" fill="#b0a671"/><path d="M280.93,284.142c-.987-.024-1.929-.067-2.835-.129l.112-1.159q1.325.088,2.764.126Zm7.111-.424-.2-1.154c.952-.116,1.858-.252,2.717-.4l.291,1.14Q289.513,283.535,288.041,283.718Zm-16.973-.612c-.969-.19-1.879-.4-2.748-.621l.412-1.112c.842.214,1.725.419,2.661.6Zm26.6-1.492-.5-1.088c.9-.286,1.75-.581,2.561-.876l.565,1.066C299.456,281.018,298.587,281.321,297.666,281.614ZM261.7,280.359l-1.014-.378c-.524-.2-1.035-.391-1.54-.573l.57-1.066q.758.279,1.551.576l1.006.378Zm-30.355-1.267v-2.333h1.4v.466c.085-.022.175-.04.268-.062l.353,1.126a4.718,4.718,0,0,0-.967.288Zm75.341-.648-.466-1.1a22.714,22.714,0,0,1,2.8-.643l.274,1.142A22.472,22.472,0,0,0,306.685,278.443Zm21.92-.335c-.757-.119-1.675-.229-2.727-.326l.154-1.157c1.089.1,2.043.212,2.833.34Zm-75.921-.4-.31-.028c-.775-.067-1.6-.119-2.444-.159l.081-1.162c.867.04,1.711.095,2.517.164l.322.029Zm-12.5-.145-.085-1.16c.91-.047,1.86-.085,2.831-.109l.04,1.166C242.022,277.483,241.086,277.521,240.189,277.566Zm78.75-.126c-.528-.009-1.058-.014-1.59-.012q-.6,0-1.2.007l-.019-1.164c.457-.007.921-.009,1.382-.009.482,0,.966.005,1.447.012Zm12.679-3.3h-1.405v-2.33h1.405Zm13.078-2.864-.023-1.164c.962-.01,1.887-.05,2.752-.114l.127,1.159C346.649,271.224,345.687,271.263,344.7,271.275Zm-123.228-.059-.077-1.162c.954-.043,1.883-.109,2.769-.183l.143,1.159C223.4,271.106,222.446,271.174,221.467,271.217Zm-7.131-.155c-1-.1-1.952-.243-2.839-.416l.324-1.135c.838.164,1.742.295,2.688.395Zm18.412-.131h-1.4v-.845l-.033.005-.3-1.136c.551-.1.86-.165.865-.167l.875-.186Zm104.846,0c-1.021-.1-1.966-.221-2.812-.334l.235-1.15c.823.114,1.752.228,2.748.328Zm16.98-1.124-.553-1.072c.206-.071.4-.147.6-.228a16.77,16.77,0,0,0,1.742-.826l.779.967a17.3,17.3,0,0,1-1.91.907C355.022,269.641,354.795,269.725,354.573,269.8Zm-149.657-1.69a15.879,15.879,0,0,1-2.143-1.652l1.041-.779a13.97,13.97,0,0,0,1.96,1.509ZM362.149,264.3l-1.185-.621A22.518,22.518,0,0,0,362.3,261.7l1.253.524A21.971,21.971,0,0,1,362.149,264.3Zm-163.213-2.883c-.4-.707-.779-1.424-1.158-2.142l1.289-.464c.368.707.742,1.412,1.139,2.109Zm167.514-4.526-1.278-.484c.441-.8.856-1.493,1.274-2.123l1.228.564C367.274,255.448,366.875,256.115,366.449,256.889ZM194.77,254.1a15.192,15.192,0,0,0-1.551-1.829l1.081-.743a16.827,16.827,0,0,1,1.671,1.969Zm177.1-3.573-.869-.914c.237-.155.482-.305.732-.452q.854-.494,1.648-.9l.738.991q-.767.388-1.58.859C372.311,250.253,372.09,250.392,371.874,250.532Zm-183.926-1.705a23.862,23.862,0,0,0-2.444-.986l.53-1.078a26.343,26.343,0,0,1,2.6,1.048Zm192.387-1.707-.27-1.143a19.456,19.456,0,0,1,2.914-.248l.019,1.166A17.542,17.542,0,0,0,380.336,247.12ZM176.192,247.1l-.154-1.157c1-.091,1.9-.171,2.846-.2l.056,1.166C178.036,246.935,177.161,247.013,176.192,247.1Zm212.4-.829c-.1-.817-.2-1.6-.3-2.314l1.4-.126c.093.714.2,1.5.3,2.321Zm-213.807-3.188-1.4-.128.312-2.318,1.4.129Zm216.871-2.971-.644-1.038c.8-.34,1.607-.719,2.39-1.128l.748.988C393.327,239.36,392.489,239.757,391.654,240.114Zm-223.748-1.669c-.779-.433-1.559-.9-2.316-1.4l.873-.914c.725.478,1.474.931,2.224,1.348ZM399.8,235.31l-.956-.852c.671-.519,1.322-1.066,1.941-1.623l1.033.793C401.171,234.2,400.494,234.77,399.8,235.31Zm-239.373-2.348c-.628-.593-1.233-1.209-1.8-1.836l1.116-.7c.551.6,1.139,1.2,1.744,1.769Zm245.758-4.009L405,228.319q.726-.931,1.422-1.959l1.224.566C407.189,227.611,406.7,228.3,406.183,228.952ZM154.8,226.142c-.43-.676-.85-1.385-1.253-2.121l1.282-.481q.583,1.071,1.214,2.059Zm255.845-4.568-1.314-.41q.474-1.048.906-2.167l1.339.352Q411.13,220.5,410.641,221.574Zm-259.564-3.08q-.393-1.1-.736-2.274l1.366-.274c.222.76.459,1.5.715,2.219Zm262.205-4.857-1.378-.214c.166-.738.318-1.5.449-2.271l1.388.164Q413.543,212.506,413.283,213.637Zm-264.209-3.2c-.116-.76-.214-1.538-.3-2.336l1.4-.1q.125,1.172.3,2.292Zm265.319-4.966-1.4-.053c.04-.75.067-1.521.077-2.3l1.4.01C414.459,203.922,414.432,204.705,414.393,205.471Zm-264.44-3.218-1.4-.024c.017-.8.048-1.579.1-2.343l1.4.062C150,200.7,149.972,201.469,149.953,202.253Zm262.933-3.871c-.075-.781-.164-1.547-.27-2.292l1.393-.136c.108.762.2,1.54.276,2.338Zm-262.139-4.164-1.386-.174c.143-.795.306-1.566.486-2.319l1.376.226Q150.961,193.055,150.747,194.218Zm260.7-3.793c-.21-.766-.443-1.507-.686-2.226l1.351-.316c.249.736.488,1.5.7,2.281Zm-258.477-4.03-1.332-.364c.3-.766.626-1.505.96-2.219l1.307.424C153.576,184.931,153.262,185.65,152.967,186.395Zm255.473-3.6q-.57-1.079-1.183-2.071l1.249-.529c.42.683.827,1.391,1.216,2.133Zm-251.555-3.723-1.214-.583q.733-1.055,1.5-2.007l1.168.643Q157.6,178.054,156.885,179.075Zm246.758-3.218c-.551-.617-1.127-1.221-1.709-1.795l1.066-.752c.607.591,1.206,1.217,1.769,1.859Zm-241-3.19-1.016-.8c.659-.574,1.349-1.133,2.047-1.655l.942.864C163.941,171.579,163.276,172.117,162.642,172.667Zm234.384-2.607c-.719-.488-1.459-.952-2.2-1.379l.8-.954c.765.443,1.534.924,2.282,1.429Zm-226.9-2.4-.723-1c.842-.421,1.692-.8,2.53-1.138l.611,1.048C171.742,166.893,170.93,167.258,170.125,167.66Zm3.13-6.137-.293-2.319,1.395-.121.3,2.316Zm7.425-1.4-.073-1.162a17.062,17.062,0,0,0,2.648-.316l.326,1.133A18.792,18.792,0,0,1,180.68,160.125Zm204.09-.026-.094-1.162c.8-.043,1.584-.117,2.378-.191l.382-.036.156,1.159-.382.035C386.395,159.978,385.589,160.054,384.77,160.1Zm-7.19-.8a23.3,23.3,0,0,1-2.642-.986l.657-1.029a22.375,22.375,0,0,0,2.467.924Zm-187.42-1.978-.759-.981c.349-.184.7-.383,1.066-.591.395-.228.771-.471,1.124-.724l.915.883c-.389.279-.8.547-1.239.8C190.89,156.925,190.52,157.131,190.16,157.323Zm178.97-2.574a16.226,16.226,0,0,1-1.75-1.926l1.179-.631a14.767,14.767,0,0,0,1.621,1.783Zm-172.265-3.626-1.243-.54c.426-.673.819-1.364,1.2-2.064l1.28.472C197.712,149.715,197.306,150.429,196.866,151.122Zm167.326-3.587c-.4-.762-.754-1.447-1.124-2.121l1.274-.486c.378.683.736,1.373,1.1,2.062Zm-163.2-3.811-1.245-.54a21.927,21.927,0,0,1,1.465-2.057l1.168.65A19.714,19.714,0,0,0,200.989,143.725Zm158.595-3.164a13.914,13.914,0,0,0-1.885-1.573l.9-.893a15.385,15.385,0,0,1,2.062,1.721ZM207.142,137.93l-.73-.995c.43-.217.883-.421,1.361-.616.409-.166.833-.317,1.268-.453l.5,1.086c-.4.126-.782.262-1.154.414C207.952,137.543,207.535,137.731,207.142,137.93Zm123.12-.66v-1.814h1.405v.329c.189-.035.405-.074.651-.116l.287,1.138c-.923.16-1.457.274-1.467.276ZM228.6,136.514c-.806-.119-1.731-.243-2.746-.353l.185-1.154c1.035.112,1.979.238,2.806.36Zm123.168-.029c-.825-.185-1.725-.338-2.667-.452l.2-1.152c1,.122,1.954.283,2.831.479Zm-12.3-.538-.131-1.157c.91-.072,1.864-.129,2.835-.164l.06,1.164C341.284,135.822,340.357,135.878,339.468,135.947Zm-123.274-.112-.1-1.162c.89-.053,1.837-.079,2.812-.079l.042,1.164C217.967,135.757,217.054,135.783,216.194,135.835Zm16.6-2.293h-1.4V131.21h1.4Zm98.872-3.912h-1.405l.071-1.835-.148-.35a2.751,2.751,0,0,0,.43-.153l1.052-.5Zm-86.016-.021-.975-.005.012-1.164.964,0c.607,0,1.216,0,1.823-.016l.029,1.166C246.89,129.6,246.27,129.608,245.651,129.608Zm75.058-.052-.056-1.162c.96-.029,1.9-.071,2.785-.122l.1,1.16C322.63,129.486,321.68,129.527,320.709,129.556Zm-7.079-.022c-.975-.038-1.925-.091-2.835-.164l.137-1.159c.885.071,1.817.124,2.767.16ZM237.6,129.3c-1.048-.086-2-.188-2.829-.3l.227-1.148c.8.11,1.729.207,2.744.291Zm17.023-.241-.322-1.135a24.023,24.023,0,0,0,2.59-.669l.495,1.088A25.683,25.683,0,0,1,254.626,129.058Zm49.249-1.323c-.676-.241-1.362-.5-2.072-.767l-.5-.184.578-1.062.5.186c.7.266,1.384.519,2.054.759Zm-40.026-1.719-.551-1.071c.833-.295,1.708-.59,2.636-.876l.488,1.093C265.518,125.44,264.663,125.728,263.849,126.016Zm31.02-1.366c-.84-.224-1.721-.438-2.65-.633l.341-1.129c.964.2,1.875.422,2.74.655Zm-21.812-1.043-.272-1.143c.892-.145,1.827-.274,2.812-.381l.183,1.154C274.827,123.34,273.919,123.468,273.056,123.608Zm12.355-.547q-1.322-.1-2.76-.152l.056-1.162c.985.033,1.933.086,2.835.153Z" transform="translate(-140.213 -113.472)" fill="#b0a671"/></g><path d="M-41.99-14.763a1.485,1.485,0,0,1-.483,1.113,1.563,1.563,0,0,1-1.113.462h-3.759V-1.3A1.39,1.39,0,0,1-47.8-.221a1.5,1.5,0,0,1-1.04.41h-.21a1.514,1.514,0,0,1-1.029-.41A1.375,1.375,0,0,1-50.537-1.3V-13.188h-3.738a1.563,1.563,0,0,1-1.113-.462,1.485,1.485,0,0,1-.483-1.113,1.531,1.531,0,0,1,.126-.609,1.626,1.626,0,0,1,.347-.515,1.782,1.782,0,0,1,.514-.357,1.431,1.431,0,0,1,.609-.137h10.689a1.363,1.363,0,0,1,.6.137,1.83,1.83,0,0,1,.5.357,1.782,1.782,0,0,1,.357.515A1.431,1.431,0,0,1-41.99-14.763ZM-34.913-1.3a1.434,1.434,0,0,1-.441,1.05A1.434,1.434,0,0,1-36.4.189h-.21a1.445,1.445,0,0,1-1.04-.441A1.418,1.418,0,0,1-38.1-1.3V-14.889a1.317,1.317,0,0,1,.126-.577,1.834,1.834,0,0,1,.326-.473,1.392,1.392,0,0,1,.472-.325,1.441,1.441,0,0,1,.567-.116h.21a1.434,1.434,0,0,1,1.05.441,1.434,1.434,0,0,1,.441,1.05Zm20.769-2.016a1.734,1.734,0,0,1-.115.62,1.3,1.3,0,0,1-.389.535,5.974,5.974,0,0,1-1.386,1.092,9.509,9.509,0,0,1-1.733.777A11.007,11.007,0,0,1-19.73.168a14.535,14.535,0,0,1-2.058.147,8.7,8.7,0,0,1-3.192-.6,8.428,8.428,0,0,1-2.714-1.7,8.372,8.372,0,0,1-1.89-2.636,8.005,8.005,0,0,1-.709-3.4,8.68,8.68,0,0,1,.647-3.35,8.491,8.491,0,0,1,1.774-2.719,8.316,8.316,0,0,1,2.682-1.827,8.374,8.374,0,0,1,3.36-.672,9.409,9.409,0,0,1,2.331.283,12.82,12.82,0,0,1,2.016.683,9.5,9.5,0,0,1,1.543.84,7.009,7.009,0,0,1,.934.735,1.143,1.143,0,0,1,.3.483,1.865,1.865,0,0,1,.073.525,1.491,1.491,0,0,1-.472,1.123,1.546,1.546,0,0,1-1.1.452,1.328,1.328,0,0,1-.578-.116,3.155,3.155,0,0,1-.6-.41,6.333,6.333,0,0,0-.683-.431,7.9,7.9,0,0,0-1-.462,8.14,8.14,0,0,0-1.26-.368,7.18,7.18,0,0,0-1.491-.147,5.659,5.659,0,0,0-1.943.347,5.152,5.152,0,0,0-1.711,1.029,5.113,5.113,0,0,0-1.218,1.691,5.488,5.488,0,0,0-.462,2.31,4.9,4.9,0,0,0,.378,1.869,5.017,5.017,0,0,0,1.113,1.659,5.515,5.515,0,0,0,1.837,1.187,6.694,6.694,0,0,0,2.552.452A7.271,7.271,0,0,0-19.793-3a7.941,7.941,0,0,0,1.3-.378A5.873,5.873,0,0,0-17.462-3.9a3.449,3.449,0,0,0,.672-.536,1.243,1.243,0,0,1,.493-.336,1.651,1.651,0,0,1,.578-.105,1.508,1.508,0,0,1,.913.241,1.529,1.529,0,0,1,.472.536A2.046,2.046,0,0,1-14.144-3.318ZM3.916-1.407a1.457,1.457,0,0,1-.126.6,1.661,1.661,0,0,1-.347.5,1.83,1.83,0,0,1-.5.357,1.363,1.363,0,0,1-.6.137,1.615,1.615,0,0,1-.819-.231A1.641,1.641,0,0,1,.913-.63L-3.245-7.98q-.861.9-1.68,1.775t-1.7,1.817V-1.3A1.375,1.375,0,0,1-7.088-.221a1.514,1.514,0,0,1-1.029.41h-.21a1.514,1.514,0,0,1-1.029-.41A1.375,1.375,0,0,1-9.818-1.3V-14.889a1.375,1.375,0,0,1,.462-1.081,1.514,1.514,0,0,1,1.029-.41h.21a1.514,1.514,0,0,1,1.029.41,1.375,1.375,0,0,1,.462,1.081v5.922q1.6-1.722,3.192-3.455t3.213-3.434A1.824,1.824,0,0,1,.3-16.212a1.479,1.479,0,0,1,.63-.147,1.431,1.431,0,0,1,.609.137,1.782,1.782,0,0,1,.515.357,1.741,1.741,0,0,1,.357.525,1.5,1.5,0,0,1,.137.62,1.483,1.483,0,0,1-.441,1.092L-1-10.374q1.176,2.079,2.352,4.1T3.685-2.205A1.662,1.662,0,0,1,3.916-1.407Zm17.115-.168a1.625,1.625,0,0,1-.483,1.092A1.485,1.485,0,0,1,19.435,0h-6.93A5.515,5.515,0,0,1,10.65-.315a4.636,4.636,0,0,1-1.567-.924A4.465,4.465,0,0,1,8-2.751a5.071,5.071,0,0,1-.407-2.1,3.622,3.622,0,0,1,.147-1.04A4.634,4.634,0,0,1,8.116-6.8a5.049,5.049,0,0,1,.514-.767q.284-.347.536-.62-.252-.273-.536-.63A5.536,5.536,0,0,1,8.116-9.6a4.634,4.634,0,0,1-.378-.914,3.622,3.622,0,0,1-.147-1.039A5.071,5.071,0,0,1,8-13.65a4.579,4.579,0,0,1,1.085-1.523,4.55,4.55,0,0,1,1.567-.934,5.515,5.515,0,0,1,1.855-.315h6.93a1.431,1.431,0,0,1,.609.136,1.643,1.643,0,0,1,.5.357,1.955,1.955,0,0,1,.346.5,1.318,1.318,0,0,1,.136.578,1.286,1.286,0,0,1-.115.62,1.741,1.741,0,0,1-.357.525,1.782,1.782,0,0,1-.514.357,1.431,1.431,0,0,1-.609.136h-6.93a1.742,1.742,0,0,0-.767.158,1.872,1.872,0,0,0-.546.388,1.577,1.577,0,0,0-.336.536,1.63,1.63,0,0,0-.116.578,1.63,1.63,0,0,0,.116.577,1.82,1.82,0,0,0,.336.557,1.832,1.832,0,0,0,.546.42,1.65,1.65,0,0,0,.767.168h5.712a1.836,1.836,0,0,1,.735.136,1.621,1.621,0,0,1,.535.368,1.6,1.6,0,0,1,.336.525,1.651,1.651,0,0,1,.116.609,1.614,1.614,0,0,1-.441,1.1,1.629,1.629,0,0,1-1.281.493H12.505a1.65,1.65,0,0,0-.767.168,1.832,1.832,0,0,0-.546.42,1.789,1.789,0,0,0-.336.567,1.714,1.714,0,0,0-.116.588,1.548,1.548,0,0,0,.116.567,1.725,1.725,0,0,0,.336.536,1.777,1.777,0,0,0,.546.4,1.742,1.742,0,0,0,.767.158h6.93a1.431,1.431,0,0,1,.609.137,1.782,1.782,0,0,1,.514.357,1.782,1.782,0,0,1,.357.514A1.231,1.231,0,0,1,21.031-1.575ZM37.663-14.763a1.485,1.485,0,0,1-.483,1.113,1.563,1.563,0,0,1-1.113.462H32.308V-1.3a1.39,1.39,0,0,1-.451,1.082,1.5,1.5,0,0,1-1.04.41h-.21a1.514,1.514,0,0,1-1.029-.41A1.375,1.375,0,0,1,29.116-1.3V-13.188H25.378a1.563,1.563,0,0,1-1.113-.462,1.485,1.485,0,0,1-.483-1.113,1.531,1.531,0,0,1,.126-.609,1.626,1.626,0,0,1,.347-.515,1.782,1.782,0,0,1,.514-.357,1.431,1.431,0,0,1,.609-.137H36.067a1.363,1.363,0,0,1,.6.137,1.83,1.83,0,0,1,.5.357,1.782,1.782,0,0,1,.357.515A1.431,1.431,0,0,1,37.663-14.763ZM55.451-4.883a4.185,4.185,0,0,1-.63,2.305A5.285,5.285,0,0,1,53.13-.932a8.075,8.075,0,0,1-2.457.985,12.893,12.893,0,0,1-2.93.325A11.114,11.114,0,0,1,45.171.105a11.583,11.583,0,0,1-2.037-.672,8.37,8.37,0,0,1-1.512-.85,10.4,10.4,0,0,1-1-.809,1.509,1.509,0,0,1-.441-1.113,1.374,1.374,0,0,1,.241-.872,1.6,1.6,0,0,1,.536-.451,2.4,2.4,0,0,1,.8-.21,1.919,1.919,0,0,1,.589.095.945.945,0,0,1,.463.3q.358.252.82.546a6.949,6.949,0,0,0,1.073.546,8.033,8.033,0,0,0,1.409.42,8.838,8.838,0,0,0,1.809.168,9.842,9.842,0,0,0,1.462-.116A6.113,6.113,0,0,0,50.8-3.287a3.528,3.528,0,0,0,1.073-.661,1.268,1.268,0,0,0,.431-.966,1.53,1.53,0,0,0-.431-1.166,2.593,2.593,0,0,0-1.073-.6,5.793,5.793,0,0,0-1.4-.22q-.757-.032-1.41-.032H45.716a6.457,6.457,0,0,1-1.757-.252,5.1,5.1,0,0,1-1.62-.777A4.123,4.123,0,0,1,41.15-9.314a4.059,4.059,0,0,1-.463-2.005,4.21,4.21,0,0,1,.657-2.352,5.632,5.632,0,0,1,1.68-1.67,7.79,7.79,0,0,1,2.251-.987,9.218,9.218,0,0,1,2.362-.326,12.515,12.515,0,0,1,2.457.231,9.212,9.212,0,0,1,2.027.63,4.252,4.252,0,0,1,1.375.945,1.708,1.708,0,0,1,.5,1.176,1.531,1.531,0,0,1-.126.609,1.506,1.506,0,0,1-.347.5,1.763,1.763,0,0,1-.5.336,1.457,1.457,0,0,1-.6.126,1.545,1.545,0,0,1-.9-.294q-.462-.273-.84-.472a5.05,5.05,0,0,0-.8-.336,5.559,5.559,0,0,0-.945-.21,9.254,9.254,0,0,0-1.26-.073,6.654,6.654,0,0,0-1.312.137,5.333,5.333,0,0,0-1.239.4,2.865,2.865,0,0,0-.924.676,1.4,1.4,0,0,0-.368.962q0,1.247,2.125,1.247h2.02a17.332,17.332,0,0,1,2.8.22,7.181,7.181,0,0,1,2.388.807A4.566,4.566,0,0,1,54.83-7.45,4.786,4.786,0,0,1,55.451-4.883Z" transform="translate(141.91 115.933)" fill="#b0a671"/><path d="M-19.88-8.9a22.968,22.968,0,0,0,2.646-.644.736.736,0,0,0,.56-.7.809.809,0,0,0-.8-.812.951.951,0,0,0-.266.042,30.825,30.825,0,0,1-6.734,1.176.73.73,0,0,0-.756.742.758.758,0,0,0,.826.77c.882-.042,1.89-.154,2.9-.294v1.61c0,.154,0,.294-.014.434h-4.676a.648.648,0,0,0-.6.728.648.648,0,0,0,.6.728h4.578A5.435,5.435,0,0,1-24.276-.8a.851.851,0,0,0-.448.728.812.812,0,0,0,.812.812.992.992,0,0,0,.518-.154,7.145,7.145,0,0,0,3.416-5.712h4.354a.658.658,0,0,0,.616-.728.658.658,0,0,0-.616-.728H-19.88V-8.9ZM-6.3-6.874A7.71,7.71,0,0,1-9.716-.812a.876.876,0,0,0-.42.714.792.792,0,0,0,.8.77.914.914,0,0,0,.5-.154A9.715,9.715,0,0,0-4.662-6.874H-1.54a.669.669,0,0,0,.658-.714A.661.661,0,0,0-1.54-8.3H-8.512A13.62,13.62,0,0,0-7.7-10.416a.793.793,0,0,0,.042-.252.758.758,0,0,0-.812-.714.788.788,0,0,0-.784.56A14.636,14.636,0,0,1-12.124-5.6a.885.885,0,0,0-.266.616.768.768,0,0,0,.784.756.988.988,0,0,0,.742-.364,13.733,13.733,0,0,0,1.61-2.282ZM4-7.378a.747.747,0,0,0-.644-.364.731.731,0,0,0-.77.644.619.619,0,0,0,.1.336,13.558,13.558,0,0,1,.9,1.806.664.664,0,0,0,.644.434.761.761,0,0,0,.8-.686.793.793,0,0,0-.042-.252A10.762,10.762,0,0,0,4-7.378Zm2.772-.658A.724.724,0,0,0,6.118-8.4a.7.7,0,0,0-.756.616.609.609,0,0,0,.1.322A12.271,12.271,0,0,1,6.3-5.684a.66.66,0,0,0,.644.462.732.732,0,0,0,.77-.672.777.777,0,0,0-.042-.238A9.834,9.834,0,0,0,6.776-8.036Zm3.192.56a10.649,10.649,0,0,1-5,6.762.753.753,0,0,0-.434.672A.741.741,0,0,0,5.25.7.882.882,0,0,0,5.642.588a12.59,12.59,0,0,0,5.8-7.7.963.963,0,0,0,.028-.182.753.753,0,0,0-.812-.672A.648.648,0,0,0,9.968-7.476Zm11-3.178a.758.758,0,0,0-.826-.742.765.765,0,0,0-.826.742V.028a.754.754,0,0,0,.826.728.747.747,0,0,0,.826-.728V-6.006a1,1,0,0,0,.406.392A24.73,24.73,0,0,1,24-3.934a.947.947,0,0,0,.588.21.813.813,0,0,0,.8-.826.9.9,0,0,0-.392-.728A16.416,16.416,0,0,0,22.022-7.07a.862.862,0,0,0-.364-.084.8.8,0,0,0-.686.434Z" transform="translate(141.91 142.485)" fill="#b0a671"/><g transform="translate(113.91 25.827)"><g clip-path="url(#a)"><path d="M50.36,57.077H11.041a6.08,6.08,0,0,0-6.074,6.074v7.427l1.782.255A2.105,2.105,0,0,1,6.75,75l-1.783.255v7.429a6.08,6.08,0,0,0,6.074,6.073H50.36a6.081,6.081,0,0,0,6.074-6.073V75.113l-1.982-.093a2.1,2.1,0,0,1,0-4.205l1.981-.094V63.151a6.081,6.081,0,0,0-6.074-6.074m4,11.662a4.183,4.183,0,0,0,0,8.358v5.589a4,4,0,0,1-4,4H11.041a4,4,0,0,1-4-4V77.059a4.183,4.183,0,0,0,0-8.282V63.151a4,4,0,0,1,4-4H50.36a4,4,0,0,1,4,4Z" transform="translate(-2.699 -31.02)" fill="#91e0f8"/><rect width="1.375" height="3.586" transform="translate(14.199 49.554)" fill="#91e0f8"/><rect width="1.375" height="3.585" transform="translate(14.199 43.255)" fill="#91e0f8"/><rect width="1.375" height="3.586" transform="translate(14.199 36.955)" fill="#91e0f8"/><rect width="1.375" height="3.586" transform="translate(14.199 30.656)" fill="#91e0f8"/><rect width="1.374" height="3.585" transform="matrix(0.874, -0.486, 0.486, 0.874, 10.475, 21.052)" fill="#ffa5d1"/><path d="M55.237,20.189,52.52,15.3l-.965-1.732-1.776.882a2.1,2.1,0,0,1-2.044-3.675l1.686-1.045L48.456,8,45.74,3.12A6.08,6.08,0,0,0,37.479.766L3.12,19.882A6.081,6.081,0,0,0,.766,28.143l.1.178a8.451,8.451,0,0,1,1.39-1.963A4,4,0,0,1,4.131,21.7L38.49,2.582A4,4,0,0,1,43.924,4.13l2.716,4.883a4.183,4.183,0,0,0,4.063,7.3L53.421,21.2a3.987,3.987,0,0,1-.4,4.466,8.476,8.476,0,0,1,1.427,1.53,6.08,6.08,0,0,0,.793-7.007" transform="translate(0 0)" fill="#ffa5d1"/></g></g></g></svg>