<svg xmlns="http://www.w3.org/2000/svg" width="78.274" height="135.797" viewBox="0 0 78.274 135.797"><g transform="translate(78.274) rotate(90)"><g transform="translate(0 0)"><circle cx="4.318" cy="4.318" r="4.318" transform="translate(0 4.291) rotate(-29.791)" fill="#c7e6f5"/></g><g transform="translate(24.802 0)"><g transform="translate(0 0)"><circle cx="4.318" cy="4.318" r="4.318" transform="translate(0 4.291) rotate(-29.791)" fill="#c7e6f5"/></g></g><g transform="translate(50.461 0.856)"><g transform="translate(0 0)"><circle cx="4.318" cy="4.318" r="4.318" transform="translate(0 1.584) rotate(-10.566)" fill="#c7e6f5"/></g></g><g transform="translate(75.263 0.856)"><g transform="translate(0 0)"><circle cx="4.318" cy="4.318" r="4.318" transform="translate(0 1.584) rotate(-10.566)" fill="#c7e6f5"/></g></g><g transform="translate(0.469 22.632)"><g transform="translate(0 0)"><circle cx="4.318" cy="4.318" r="4.318" transform="matrix(0.953, -0.303, 0.303, 0.953, 0, 2.618)" fill="#c7e6f5"/></g></g><g transform="translate(25.271 22.632)"><g transform="translate(0)"><circle cx="4.318" cy="4.318" r="4.318" transform="translate(0 2.618) rotate(-17.645)" fill="#c7e6f5"/></g></g><g transform="translate(49.605 22.163)"><g transform="translate(0)"><circle cx="4.318" cy="4.318" r="4.318" transform="matrix(0.497, -0.868, 0.868, 0.497, 0, 7.495)" fill="#c7e6f5"/></g></g><g transform="translate(74.407 22.163)"><g transform="translate(0 0)"><circle cx="4.318" cy="4.318" r="4.318" transform="translate(0 7.495) rotate(-60.209)" fill="#c7e6f5"/></g></g><g transform="translate(0 44.326)"><g transform="translate(0 0)"><circle cx="4.318" cy="4.318" r="4.318" transform="translate(0 4.291) rotate(-29.791)" fill="#c7e6f5"/></g></g><g transform="translate(24.802 44.326)"><g transform="translate(0 0)"><circle cx="4.318" cy="4.318" r="4.318" transform="translate(0 4.291) rotate(-29.791)" fill="#c7e6f5"/></g></g><g transform="translate(50.461 45.182)"><g transform="translate(0 0)"><circle cx="4.318" cy="4.318" r="4.318" transform="translate(0 1.584) rotate(-10.566)" fill="#c7e6f5"/></g></g><g transform="translate(75.263 45.182)"><g transform="translate(0 0)"><circle cx="4.318" cy="4.318" r="4.318" transform="translate(0 1.584) rotate(-10.566)" fill="#c7e6f5"/></g></g><g transform="translate(0 66.488)"><g transform="translate(0 0)"><circle cx="4.318" cy="4.318" r="4.318" transform="translate(0 4.291) rotate(-29.791)" fill="#c7e6f5"/></g></g><g transform="translate(24.802 66.488)"><g transform="translate(0 0)"><circle cx="4.318" cy="4.318" r="4.318" transform="translate(0 4.291) rotate(-29.791)" fill="#c7e6f5"/></g></g><g transform="translate(50.461 67.344)"><g transform="translate(0 0)"><circle cx="4.318" cy="4.318" r="4.318" transform="translate(0 1.584) rotate(-10.566)" fill="#c7e6f5"/></g></g><g transform="translate(75.263 67.344)"><g transform="translate(0 0)"><circle cx="4.318" cy="4.318" r="4.318" transform="translate(0 1.584) rotate(-10.566)" fill="#c7e6f5"/></g></g><g transform="translate(100.066 0.856)"><circle cx="4.318" cy="4.318" r="4.318" transform="translate(0 1.584) rotate(-10.566)" fill="#c7e6f5"/></g><g transform="translate(124.012 0)"><circle cx="4.318" cy="4.318" r="4.318" transform="translate(0 4.291) rotate(-29.791)" fill="#c7e6f5"/></g><g transform="translate(99.21 22.163)"><g transform="translate(0)"><circle cx="4.318" cy="4.318" r="4.318" transform="translate(0 7.495) rotate(-60.209)" fill="#c7e6f5"/></g></g><g transform="translate(124.481 22.632)"><g transform="translate(0 0)"><circle cx="4.318" cy="4.318" r="4.318" transform="translate(0 2.618) rotate(-17.645)" fill="#c7e6f5"/></g></g><g transform="translate(100.066 45.182)"><g transform="translate(0 0)"><circle cx="4.318" cy="4.318" r="4.318" transform="translate(0 1.584) rotate(-10.566)" fill="#c7e6f5"/></g></g><g transform="translate(124.012 44.326)"><g transform="translate(0 0)"><circle cx="4.318" cy="4.318" r="4.318" transform="translate(0 4.291) rotate(-29.791)" fill="#c7e6f5"/></g></g><g transform="translate(100.066 67.344)"><g transform="translate(0 0)"><circle cx="4.318" cy="4.318" r="4.318" transform="translate(0 1.584) rotate(-10.566)" fill="#c7e6f5"/></g></g><g transform="translate(124.012 66.488)"><g transform="translate(0 0)"><circle cx="4.318" cy="4.318" r="4.318" transform="translate(0 4.291) rotate(-29.791)" fill="#c7e6f5"/></g></g></g></svg>