<svg xmlns="http://www.w3.org/2000/svg" viewBox="0 0 274.12 98.83"><defs><style>.a{isolation:isolate;}.b{fill:#fff;}.c{fill:#ff91c7;}.d{fill:#6dddff;}</style></defs><g class="a"><g class="a"><path class="b" d="M72.06,76.69c2.14,2.85,2.86,5.83,2.14,8.57-1,3.33-3.93,6.18-8.45,8.09-3.57,1.55-9.52,2.38-16.42,2.38-10.23,0-19.52-1.79-24.87-4.88C17,86.57-.18,73.59,3.51,44.91,7,17.19,28.62,6.48,42.31,6.12c.47,0,.95-.12,1.43-.12C57.54,6,70,12.19,73.61,17.9c3.92,6,2.14,9.76-.12,12.61a8,8,0,0,1-6.19,2.74,13.71,13.71,0,0,1-7.5-2.5,23.66,23.66,0,0,0-12.61-3.21,32.18,32.18,0,0,0-6.67.71C34.22,29.8,25.17,37.54,24.46,48c-.6,9.88,2.14,16.9,8.69,22.25,4,3.33,11.78,4.88,17.25,4.88A18.29,18.29,0,0,0,53,75c1.78-.24,3.69-.59,5.35-1a32.17,32.17,0,0,1,6.43-.95A8.14,8.14,0,0,1,72.06,76.69Z"/><path class="b" d="M111.92,94.78c-11.78-1-23.32-8.33-23.92-23.45-.47-10.71,1.79-23.32,17-30.7,14.16-6.9,32.61,0,38.68,9.64,8.8,13.8,5.11,30.94,5,36.77-.11,6.31-4.4,9.28-9.75,9.28s-7.5-6.42-7.5-6.42A30.8,30.8,0,0,1,111.92,94.78Zm9.17-39.51c-9.41-2.5-13.69,3.93-15.12,10.11S109,78.24,117,78.24a13.5,13.5,0,0,0,12.14-7.5C131.68,65.74,130.37,57.77,121.09,55.27Z"/><path class="b" d="M188.44,29c10.47-.36,18.44,3.21,20.59,8.09,2,4.64-.24,11.78-7.38,11.9-6.19,0-11.43-4.4-15.12,0s4.29,6.31,8.22,9.52c5.83,4.88,14.87,13.21,11.42,25.82-3,10.71-9.52,14.76-21.9,14.52-13-.12-17.85-4.28-20.47-7.73s-.11-15.47,9.76-13.33c6.67,1.43,14.05,3.93,15.35.48,2-5.12-8.21-7.62-13.09-12.14-6.3-5.72-10.71-13.33-8-22.61C171.42,31.47,180.11,29.33,188.44,29Z"/><path class="b" d="M274.12,45.87c-.12,5.11-4.88,8.8-12.26,8.8h-6.19V84c0,6.9-2.14,11.66-8.45,11.66s-8.33-4-9.16-12c-.48-5.83-.48-18.33-.36-28.92-6.9.24-18.44-.47-18.44-8.45,0-8.56,10.35-11.78,19.51-12,.24-10.23,1.67-14.87,9.4-14.87s7.74,8.21,7.74,15c1.55.12,7.26.24,8.57.36A10.88,10.88,0,0,1,274.12,45.87Z"/></g></g><g class="a"><g class="a"><path class="c" d="M69.06,70.69c2.14,2.85,2.86,5.83,2.14,8.57-1,3.33-3.93,6.18-8.45,8.09-3.57,1.55-9.52,2.38-16.42,2.38-10.23,0-19.52-1.79-24.87-4.88C14,80.57-3.18,67.59.51,38.91,4,11.19,25.62.48,39.31.12c.47,0,.95-.12,1.43-.12C54.54,0,67,6.19,70.61,11.9c3.92,6,2.14,9.76-.12,12.61a8,8,0,0,1-6.19,2.74,13.71,13.71,0,0,1-7.5-2.5,23.66,23.66,0,0,0-12.61-3.21,32.18,32.18,0,0,0-6.67.71C31.22,23.8,22.17,31.54,21.46,42c-.6,9.88,2.14,16.9,8.69,22.25,4,3.33,11.78,4.88,17.25,4.88A18.29,18.29,0,0,0,50,69c1.78-.24,3.69-.59,5.35-1a32.17,32.17,0,0,1,6.43-.95A8.14,8.14,0,0,1,69.06,70.69Z"/></g><g class="a"><path class="d" d="M108.92,88.78C97.14,87.83,85.6,80.45,85,65.33c-.47-10.71,1.79-23.32,17-30.7,14.16-6.9,32.61,0,38.68,9.64,8.8,13.8,5.11,30.94,5,36.77-.11,6.31-4.4,9.28-9.75,9.28s-7.5-6.42-7.5-6.42A30.83,30.83,0,0,1,108.92,88.78Zm9.17-39.51c-9.41-2.5-13.69,3.93-15.12,10.11S106,72.24,114,72.24a13.51,13.51,0,0,0,12.14-7.5C128.68,59.74,127.37,51.77,118.09,49.27Z"/></g><g class="a"><path class="c" d="M185.44,23c10.47-.36,18.44,3.21,20.59,8.09,2,4.64-.24,11.78-7.38,11.9-6.19,0-11.43-4.4-15.12,0s4.29,6.31,8.22,9.52c5.83,4.88,14.87,13.21,11.42,25.82-3,10.71-9.52,14.76-21.9,14.52-13-.12-17.85-4.28-20.47-7.73s-.11-15.47,9.76-13.33c6.67,1.43,14.05,3.93,15.35.48,2-5.12-8.21-7.62-13.09-12.14-6.3-5.72-10.71-13.33-8-22.61C168.42,25.47,177.11,23.33,185.44,23Z"/></g><g class="a"><path class="d" d="M271.12,39.87c-.12,5.11-4.88,8.8-12.26,8.8h-6.19V78c0,6.9-2.14,11.66-8.45,11.66s-8.33-4-9.16-12c-.48-5.83-.48-18.33-.36-28.92-6.9.24-18.44-.47-18.44-8.45,0-8.56,10.35-11.78,19.51-12,.24-10.23,1.67-14.87,9.4-14.87s7.74,8.21,7.74,15c1.55.12,7.26.24,8.57.36A10.88,10.88,0,0,1,271.12,39.87Z"/></g></g></svg>