<svg xmlns="http://www.w3.org/2000/svg" viewBox="0 0 253.22 68.82"><defs><style>.a{isolation:isolate;}.b{fill:#fff;}.c{fill:#ffa5d1;}.d{fill:#6dddff;}</style></defs><g class="a"><g class="a"><path class="b" d="M59.6,40c0,.08,0,12.77-8.82,20.07-5,4.12-11.17,6.05-18.9,6.05a50.76,50.76,0,0,1-6-.33C12.82,64.27,4.5,52,3,44.2.22,29.67,3.24,19,12.48,11.44A31.29,31.29,0,0,1,33,4.13a50.32,50.32,0,0,1,9.07.93C49.78,6.57,54.31,11.94,55,15.13a6.7,6.7,0,0,1-1,5.55,6.44,6.44,0,0,1-5,2.52,8.43,8.43,0,0,1-4.7-1.93,15.52,15.52,0,0,0-1.52-.93,17.15,17.15,0,0,0-3.1-1.43,21.18,21.18,0,0,0-5.46-.67c-1.52,0-9.33.34-14.2,6.22-5.12,6.21-5.71,18.39,1.26,24.27a17.6,17.6,0,0,0,11.59,4,23.55,23.55,0,0,0,6.3-.84A10.5,10.5,0,0,0,46.42,44c-2.36.08-6.47.08-8.4.08-3.7,0-7.73-1.84-7.82-5.46a5.15,5.15,0,0,1,1.6-4.28c1.34-1.43,3.44-2.18,6.22-2.18l2.6-.09c2.27,0,4.79-.08,7-.08a37.85,37.85,0,0,1,5.29.25A7.84,7.84,0,0,1,59.6,40Z"/><path class="b" d="M68.17,50.33c-2.18-9.74,2.44-26,20.08-25.79s22,14.11,21.59,23.1c-.59,9.91-7.9,19.07-21.26,19.07C80.27,66.71,70.78,61.84,68.17,50.33Zm24.36-12.6c-6-3-11.17,2.1-12,5.21-.92,3.69.59,9.07,6.38,10.16,5.63,1.18,9.24-2,10.08-5.37A8.16,8.16,0,0,0,92.53,37.73Z"/><path class="b" d="M118.07,50.33c-2.19-9.74,2.43-26,20.07-25.79s22,14.11,21.59,23.1c-.59,9.91-7.89,19.07-21.25,19.07C130.16,66.71,120.67,61.84,118.07,50.33Zm24.36-12.6c-6.05-3-11.17,2.1-12,5.21-.93,3.69.58,9.07,6.38,10.16,5.63,1.18,9.24-2,10.08-5.37A8.16,8.16,0,0,0,142.43,37.73Z"/><path class="b" d="M196.35,66.21c-7,.33-19.31-.42-24.52-7.65s-5.38-18.31,1.34-26.62,22.34-7,22.34-7c.42.17.09-9.91,0-13.19s2.86-7.22,6.56-7.72A6.91,6.91,0,0,1,210,11.19c-.16,5.79.84,37.54.09,46.36S203.33,66,196.35,66.21ZM192.66,38c-3.19,0-7.39.09-9.66,4.29a7.93,7.93,0,0,0,3.11,10.5c3.61,1.93,10.75,1.68,10.92-1.94.16-3.19.16-5.88.16-8.39C197.19,39.24,195.77,38,192.66,38Z"/><path class="b" d="M238.19,19.5c7.39-.25,13,2.27,14.53,5.71,1.43,3.28-.17,8.32-5.21,8.4-4.37,0-8.06-3.1-10.67,0s3,4.46,5.8,6.72c4.12,3.45,10.5,9.33,8.06,18.23C248.6,66.12,244,69,235.25,68.81c-9.16-.08-12.6-3-14.45-5.46s-.08-10.92,6.89-9.41c4.7,1,9.91,2.77,10.83.34,1.43-3.61-5.79-5.38-9.24-8.57-4.45-4-7.56-9.41-5.62-16C226.18,21.27,232.31,19.75,238.19,19.5Z"/></g></g><g class="a"><g class="a"><path class="c" d="M57.6,36c0,.08,0,12.77-8.82,20.07-5,4.12-11.17,6-18.9,6a50.76,50.76,0,0,1-6-.33C10.82,60.27,2.5,48,1,40.2-1.78,25.67,1.24,15,10.48,7.44A31.29,31.29,0,0,1,31,.13a50.32,50.32,0,0,1,9.07.93C47.78,2.57,52.31,7.94,53,11.13a6.7,6.7,0,0,1-1,5.55,6.44,6.44,0,0,1-5,2.52,8.43,8.43,0,0,1-4.7-1.93,15.52,15.52,0,0,0-1.52-.93,17.15,17.15,0,0,0-3.1-1.43,21.18,21.18,0,0,0-5.46-.67c-1.52,0-9.33.34-14.2,6.22-5.12,6.21-5.71,18.39,1.26,24.27a17.6,17.6,0,0,0,11.59,4,23.55,23.55,0,0,0,6.3-.84A10.5,10.5,0,0,0,44.42,40c-2.36.08-6.47.08-8.4.08-3.7,0-7.73-1.84-7.82-5.46a5.15,5.15,0,0,1,1.6-4.28c1.34-1.43,3.44-2.18,6.22-2.18l2.6-.09c2.27,0,4.79-.08,7-.08a37.85,37.85,0,0,1,5.29.25A7.84,7.84,0,0,1,57.6,36Z"/></g><g class="a"><path class="d" d="M66.17,46.33c-2.18-9.74,2.44-26,20.08-25.79s22,14.11,21.59,23.1c-.59,9.91-7.9,19.07-21.26,19.07C78.27,62.71,68.78,57.84,66.17,46.33Zm24.36-12.6c-6-3-11.17,2.1-12,5.21-.92,3.69.59,9.07,6.38,10.16,5.63,1.18,9.24-2,10.08-5.37A8.16,8.16,0,0,0,90.53,33.73Z"/></g><g class="a"><path class="c" d="M116.07,46.33c-2.19-9.74,2.43-26,20.07-25.79s22,14.11,21.59,23.1c-.59,9.91-7.89,19.07-21.25,19.07C128.16,62.71,118.67,57.84,116.07,46.33Zm24.36-12.6c-6.05-3-11.17,2.1-12,5.21-.93,3.69.58,9.07,6.38,10.16,5.63,1.18,9.24-2,10.08-5.37A8.16,8.16,0,0,0,140.43,33.73Z"/></g><g class="a"><path class="d" d="M194.35,62.21c-7,.33-19.31-.42-24.52-7.65s-5.38-18.31,1.34-26.62,22.34-7,22.34-7c.42.17.09-9.91,0-13.19S196.37.55,200.07.05A6.91,6.91,0,0,1,208,7.19c-.16,5.79.84,37.54.09,46.36S201.33,62,194.35,62.21ZM190.66,34c-3.19,0-7.39.09-9.66,4.29a7.93,7.93,0,0,0,3.11,10.5c3.61,1.93,10.75,1.68,10.92-1.94.16-3.19.16-5.88.16-8.39C195.19,35.24,193.77,34,190.66,34Z"/></g><g class="a"><path class="c" d="M236.19,15.5c7.39-.25,13,2.27,14.53,5.71,1.43,3.28-.17,8.32-5.21,8.4-4.37,0-8.06-3.1-10.67,0s3,4.46,5.8,6.72c4.12,3.45,10.5,9.33,8.06,18.23C246.6,62.12,242,65,233.25,64.81c-9.16-.08-12.6-3-14.45-5.46s-.08-10.92,6.89-9.41c4.7,1,9.91,2.77,10.83.34,1.43-3.61-5.79-5.38-9.24-8.57-4.45-4-7.56-9.41-5.62-16C224.18,17.27,230.31,15.75,236.19,15.5Z"/></g></g></svg>