<svg xmlns="http://www.w3.org/2000/svg" viewBox="0 0 171.54 65.29"><defs><style>.a{isolation:isolate;}.b{fill:#fff;}.c{fill:#ffa5d1;}.d{fill:#6dddff;}</style></defs><g class="a"><g class="a"><path class="b" d="M17,55.89c-.16,4.82-1.41,7.89-6.88,8.22a.79.79,0,0,1-.42.08c-4.89,0-6.8-4.81-7-9.21-.25-5.64-1.08-39.84-.5-44.24A7.4,7.4,0,0,1,9.59,4.1a7.1,7.1,0,0,1,6.89,7.47c-.09,2.24.08,12.7.25,22.74S17.06,54,17,55.89Z"/><path class="b" d="M35.65,22c3-.17,6.56,2.57,6.8,4.73,0,0,3.91-4.4,13.12-2.33C64.2,26.18,68.68,31.74,70.09,41a99.05,99.05,0,0,1,.5,18.67c-.25,2.82-2.08,5.31-5.15,5.56s-6-1.08-6.39-5.56c-.41-5.15-.16-12.12-.58-16.68-.5-5.06-3.15-6.48-7.55-6.48s-8.63,1.66-8.47,8.3c.09,5.4,0,11.62-.08,14.94-.16,3.74-2.65,5.31-5.89,5.48s-5.64-1.49-6.39-6S29,34.15,29.51,29C29.92,24.35,32.58,22.2,35.65,22Z"/><path class="b" d="M122.55,16.14c-1.66,3.23-5.4,4.31-7.22,3.32s-5-1.58-6.56.74a10.12,10.12,0,0,0-1.66,3.24c2.82.08,5.06.17,6.22.25,4.07.42,6.15,4.9,6.31,8.13.25,3.9-3.23,6.73-7.72,6.81-1.57.08-3.56.17-5.72.25-.17,7.38-.42,16.68-.42,19.09a6.93,6.93,0,0,1-6.06,6.55,6.43,6.43,0,0,1-6.55-6c-.33-2.66-.25-11.29-.17-19.42A7.39,7.39,0,0,1,91.51,39c-6.06-.33-11.46-.83-12.37-5.47-1.08-5.07,1.16-9.63,7.31-10,1.66-.16,4.06-.16,6.8-.24,0-8.06,3.07-12.29,7.14-15.69s13.36-5.06,18.26-1.83S124.12,12.9,122.55,16.14Z"/><path class="b" d="M130.35,48.67C128.19,39,132.76,23,150.19,23.19S171.93,37.13,171.52,46c-.58,9.8-7.8,18.84-21,18.84C142.3,64.85,132.92,60,130.35,48.67Zm24.07-12.45c-6-3-11,2.08-11.87,5.15-.91,3.65.58,9,6.31,10,5.56,1.16,9.13-2,10-5.31A8.07,8.07,0,0,0,154.42,36.22Z"/></g></g><g class="a"><g class="a"><path class="c" d="M15,51.89c-.16,4.82-1.41,7.89-6.88,8.22a.79.79,0,0,1-.42.08c-4.89,0-6.8-4.81-7-9.21C.45,45.34-.38,11.14.2,6.74A7.4,7.4,0,0,1,7.59.1a7.1,7.1,0,0,1,6.89,7.47c-.09,2.24.08,12.7.25,22.74S15.06,50,15,51.89Z"/></g><g class="a"><path class="d" d="M33.65,18c3-.17,6.56,2.57,6.8,4.73,0,0,3.91-4.4,13.12-2.33C62.2,22.18,66.68,27.74,68.09,37a99.05,99.05,0,0,1,.5,18.67c-.25,2.82-2.08,5.31-5.15,5.56s-6-1.08-6.39-5.56c-.41-5.15-.16-12.12-.58-16.68-.5-5.06-3.15-6.48-7.55-6.48s-8.63,1.66-8.47,8.3c.09,5.4,0,11.62-.08,14.94-.16,3.74-2.65,5.31-5.89,5.48s-5.64-1.49-6.39-6S27,30.15,27.51,25C27.92,20.35,30.58,18.2,33.65,18Z"/></g><g class="a"><path class="c" d="M120.55,12.14c-1.66,3.23-5.4,4.31-7.22,3.32s-5-1.58-6.56.74a10.12,10.12,0,0,0-1.66,3.24c2.82.08,5.06.17,6.22.25,4.07.42,6.15,4.9,6.31,8.13.25,3.9-3.23,6.73-7.72,6.81-1.57.08-3.56.17-5.72.25-.17,7.38-.42,16.68-.42,19.09a6.93,6.93,0,0,1-6.06,6.55,6.43,6.43,0,0,1-6.55-6c-.33-2.66-.25-11.29-.17-19.42A7.39,7.39,0,0,1,89.51,35c-6.06-.33-11.45-.83-12.37-5.47-1.08-5.07,1.16-9.63,7.31-10,1.66-.16,4.06-.16,6.8-.24,0-8.06,3.07-12.29,7.14-15.69s13.36-5.06,18.26-1.83S122.12,8.9,120.55,12.14Z"/></g><g class="a"><path class="d" d="M128.35,44.67C126.19,35,130.76,19,148.19,19.19S169.93,33.13,169.52,42c-.58,9.8-7.81,18.84-21,18.84C140.3,60.85,130.92,56,128.35,44.67Zm24.07-12.45c-6-3-11,2.08-11.87,5.15-.91,3.65.58,9,6.31,10,5.56,1.16,9.13-2,10-5.31A8.07,8.07,0,0,0,152.42,32.22Z"/></g></g></svg>