<svg xmlns="http://www.w3.org/2000/svg" viewBox="0 0 206.97 69.44"><defs><style>.a{isolation:isolate;}.b{fill:#fff;}.c{fill:#ffa5d1;}.d{fill:#6dddff;}</style></defs><g class="a"><g class="a"><path class="b" d="M58,10.72c0,3.36-.25,45.28-.5,49.14-.25,3.11-3.36,6.47-7.73,6.47a9.07,9.07,0,0,1-4.28-1.09C41.08,63,21.09,36.42,16.13,29.79c.09,6.3.17,27,.09,30.07-.17,3.7-3.62,6-6.81,6.13s-6.47-2-6.89-7S1.94,15,2,12.23C2.27,8,4.79,5.09,8.91,4.5c.33,0,.75-.08,1.17-.08,2.27,0,5.63.76,9.08,4.45,2.77,3,20.49,27.64,25.2,34.11V11a6.85,6.85,0,0,1,6.8-7h.17A7,7,0,0,1,58,10.72Z"/><path class="b" d="M83.84,24.24c9.82-1.09,15.87,2.36,19.32,8.66s1.76,12.51-3.62,16c-4.36,2.77-15.2,2-15.2,2,.84.42,1.6,5.38,11.84,3,4-.93,8.74,3.69,6.14,8.31C100.8,65,95.76,68.34,85.18,66.5,76.53,65,69,59.61,69,43.65,69,35.67,74,25.25,83.84,24.24ZM85.77,35c-2.35,2.18-3.53,4.53-1.93,5.79,2.35,1.68,10.16.42,9.24-2.85C92.4,35.16,89,33.74,85.77,35Z"/><path class="b" d="M167.16,32.39c-.17.42-.59,1.77-1.26,3.78C161.53,49,157.17,61.29,155.32,64c-1.43,2.1-2.52,3.27-5.38,3.27s-3.69-1.17-4.87-2.94c-1-1.51-4.37-11.59-5.29-11.93,0,0-4.54,11.34-5.63,12.35-1.51,1.43-1.68,2.27-3.78,2.27-2.94,0-4.2-1.51-5.71-4-2.18-3.69-12.18-28.22-12.68-31.33-.68-3.95,0-7.14,3.69-8.23a9.78,9.78,0,0,1,2.18-.34c4,0,6.72,3.28,7.82,6.05.84,2.1,3.27,9.24,4.78,13.61A92.85,92.85,0,0,1,134,33.74c1.35-2.1,2.94-3.45,5.71-3.45s4.37,1.43,5.72,3.7a75,75,0,0,1,4,9.83c1.59-4.71,4.28-12.52,5.46-15.46a7,7,0,0,1,6.8-4.54,4.88,4.88,0,0,1,2.35.59c1.43.51,2.19,1.68,2.94,3.19A6.28,6.28,0,0,1,167.16,32.39Z"/><path class="b" d="M191.94,20.13c7.39-.25,13,2.27,14.53,5.71,1.43,3.28-.16,8.32-5.2,8.4-4.37,0-8.07-3.11-10.67,0s3,4.45,5.79,6.72c4.12,3.44,10.5,9.32,8.07,18.23-2.1,7.56-6.72,10.41-15.46,10.25-9.15-.09-12.6-3-14.45-5.46s-.08-10.92,6.89-9.41c4.71,1,9.91,2.77,10.84.33,1.43-3.61-5.8-5.37-9.24-8.56-4.45-4-7.56-9.41-5.63-16C179.93,21.89,186.06,20.38,191.94,20.13Z"/></g></g><g class="a"><g class="a"><path class="c" d="M56,6.72c0,3.36-.25,45.28-.5,49.14-.25,3.11-3.36,6.47-7.73,6.47a9.07,9.07,0,0,1-4.28-1.09C39.08,59,19.09,32.42,14.13,25.79c.09,6.3.17,27,.09,30.07-.17,3.7-3.62,6-6.81,6.13S.94,60,.52,54.94-.06,11,0,8.23C.27,4,2.79,1.09,6.91.5,7.24.5,7.66.42,8.08.42c2.27,0,5.63.76,9.08,4.45,2.77,3,20.49,27.64,25.2,34.11V7a6.85,6.85,0,0,1,6.8-7h.17A7,7,0,0,1,56,6.72Z"/></g><g class="a"><path class="d" d="M81.84,20.24c9.82-1.09,15.87,2.36,19.32,8.66s1.76,12.51-3.62,16c-4.36,2.77-15.2,2-15.2,2,.84.42,1.6,5.38,11.84,3,4-.93,8.74,3.69,6.14,8.31C98.8,61,93.76,64.34,83.18,62.5,74.53,61,67,55.61,67,39.65,67,31.67,72,21.25,81.84,20.24ZM83.77,31c-2.35,2.18-3.53,4.53-1.93,5.79,2.35,1.68,10.16.42,9.24-2.85C90.4,31.16,87,29.74,83.77,31Z"/></g><g class="a"><path class="c" d="M165.16,28.39c-.17.42-.59,1.77-1.26,3.78C159.53,45,155.17,57.29,153.32,60c-1.43,2.1-2.52,3.27-5.38,3.27s-3.69-1.17-4.87-2.94c-1-1.51-4.37-11.59-5.29-11.93,0,0-4.54,11.34-5.63,12.35-1.51,1.43-1.68,2.27-3.78,2.27-2.94,0-4.2-1.51-5.71-4-2.18-3.69-12.18-28.22-12.68-31.33-.68-3.95,0-7.14,3.69-8.23a9.78,9.78,0,0,1,2.18-.34c4,0,6.72,3.28,7.82,6.05.84,2.1,3.27,9.24,4.78,13.61A92.85,92.85,0,0,1,132,29.74c1.35-2.1,2.94-3.45,5.71-3.45s4.37,1.43,5.72,3.7a75,75,0,0,1,4,9.83c1.59-4.71,4.28-12.52,5.46-15.46a7,7,0,0,1,6.8-4.54,4.88,4.88,0,0,1,2.35.59c1.43.51,2.19,1.68,2.94,3.19A6.28,6.28,0,0,1,165.16,28.39Z"/></g><g class="a"><path class="d" d="M189.94,16.13c7.39-.25,13,2.27,14.53,5.71,1.43,3.28-.16,8.32-5.2,8.4-4.37,0-8.07-3.11-10.67,0s3,4.45,5.79,6.72c4.12,3.44,10.5,9.32,8.07,18.23-2.1,7.56-6.72,10.41-15.46,10.25-9.15-.09-12.6-3-14.45-5.46s-.08-10.92,6.89-9.41c4.71,1,9.91,2.77,10.84.33,1.43-3.61-5.8-5.37-9.24-8.56-4.45-4-7.56-9.41-5.63-16C177.93,17.89,184.06,16.38,189.94,16.13Z"/></g></g></svg>