<svg xmlns="http://www.w3.org/2000/svg" width="335.68" height="176.64" viewBox="0 0 335.68 176.64"><path d="M4.8-126.72A82.484,82.484,0,0,1-.96-97.44,147.011,147.011,0,0,1-16.48-67.68,177.994,177.994,0,0,1-39.36-40.16,189.7,189.7,0,0,1-67.04-17.44,147.01,147.01,0,0,1-96.8-1.92a83.258,83.258,0,0,1-29.6,5.76q-20.8,0-31.84-12.8t-11.04-32.96a88.743,88.743,0,0,1,5.76-30.72A142.417,142.417,0,0,1-148-102.88a172.038,172.038,0,0,1,22.88-27.36,179.435,179.435,0,0,1,27.68-22.24,142.24,142.24,0,0,1,29.92-14.88,88.1,88.1,0,0,1,29.44-5.44q20.8,0,31.84,12.96T4.8-126.72Zm-30.72.64a111.3,111.3,0,0,0-.96-14.4,42.815,42.815,0,0,0-3.84-13.28,26.421,26.421,0,0,0-7.68-9.6q-4.8-3.68-12.48-3.68a49.683,49.683,0,0,0-22.88,6.4,92.706,92.706,0,0,0-20.8,15.84,138.462,138.462,0,0,0-17.92,22.24A168.817,168.817,0,0,0-126.4-96.64a165.549,165.549,0,0,0-8.96,26.88,108.206,108.206,0,0,0-3.2,24.96,74.9,74.9,0,0,0,1.44,14.4,43.7,43.7,0,0,0,4.8,13.28,27.115,27.115,0,0,0,9.12,9.6,25.624,25.624,0,0,0,14.08,3.68,43.624,43.624,0,0,0,22.24-6.24,86.177,86.177,0,0,0,20-16.32,130.671,130.671,0,0,0,16.8-23.04A203.381,203.381,0,0,0-37.12-76a170.35,170.35,0,0,0,8.32-26.72A110.337,110.337,0,0,0-25.92-126.08Zm179.2,69.12Q147.2-46.08,140.32-35.2a108.447,108.447,0,0,1-15.68,19.52A76.253,76.253,0,0,1,104.8-1.6,56.1,56.1,0,0,1,79.68,3.84,53.745,53.745,0,0,1,60.96.48Q51.84-2.88,43.2-7.04q-8.96-3.84-17.12-7.2A42.954,42.954,0,0,0,9.6-17.6q-7.04,0-11.04,3.36A34.323,34.323,0,0,0-8-7.04Q-10.88-2.88-13.28.48a7.942,7.942,0,0,1-6.88,3.36,2.756,2.756,0,0,1-2.4-1.12A4.557,4.557,0,0,1-23.36,0q0-3.52,7.52-9.12A207.172,207.172,0,0,1,3.2-21.44Q14.72-28.16,28.64-35.2T55.52-48.32Q68.48-54.4,78.4-59.2t13.76-6.72a101.331,101.331,0,0,0,16.48-10.72,85.913,85.913,0,0,0,13.92-13.92,63.34,63.34,0,0,0,9.6-16.96,56.388,56.388,0,0,0,3.52-20.16,43.529,43.529,0,0,0-2.88-16,37.124,37.124,0,0,0-7.84-12.48,36.612,36.612,0,0,0-11.36-8,33.141,33.141,0,0,0-13.76-2.88,32.057,32.057,0,0,0-13.6,2.88,32.112,32.112,0,0,0-10.56,7.68,35.744,35.744,0,0,0-6.72,10.88,33.709,33.709,0,0,0-2.4,12.48q0,10.24,4.96,17.44t15.52,7.2a21.356,21.356,0,0,0,12.8-4.16Q92.8-89.92,70.72-89.92a26.567,26.567,0,0,1-18.88-7.2q-7.68-7.2-7.68-21.6a43.793,43.793,0,0,1,4.48-18.56,52.964,52.964,0,0,1,13.44-17.44A74.5,74.5,0,0,1,84-167.68q12.96-5.12,29.92-5.12a66.735,66.735,0,0,1,18.88,2.722,54.583,54.583,0,0,1,16.8,8.17,42.025,42.025,0,0,1,12.16,13.777q4.64,8.33,4.64,19.86,0,14.42-6.4,25.472a72.408,72.408,0,0,1-16.64,19.543A111.475,111.475,0,0,1,120-68.518Q106.88-62.27,93.28-57.145t-26.56,9.61a210.547,210.547,0,0,0-22.88,9.3Q36.48-34.72,29.12-31.2t-13.76,7.05l.64.64A80.465,80.465,0,0,1,44.16-28.48a76.434,76.434,0,0,1,17.12,1.87q8.16,1.87,15.68,4.05t14.4,4.05a51.686,51.686,0,0,0,13.6,1.87,28.816,28.816,0,0,0,15.2-4.16,59.134,59.134,0,0,0,12.8-10.56,94.223,94.223,0,0,0,10.56-13.76q4.64-7.36,8.16-13.44Z" transform="translate(169.28 172.8)" fill="#fff"/></svg>