<svg xmlns="http://www.w3.org/2000/svg" width="698.178" height="956.302" viewBox="0 0 698.178 956.302"><g transform="translate(698.178) rotate(90)"><g transform="translate(0)"><ellipse cx="7.198" cy="7.198" rx="7.198" ry="7.198" transform="translate(5.326 669.179)" fill="#37bde0"/><ellipse cx="7.198" cy="7.198" rx="7.198" ry="7.198" transform="translate(930.597 568.736)" fill="#37bde0"/><ellipse cx="4.463" cy="4.463" rx="4.463" ry="4.463" transform="translate(928.868 328.258)" fill="#37bde0"/><ellipse cx="5.77" cy="5.77" rx="5.77" ry="5.77" transform="translate(377.036)" fill="#37bde0"/><ellipse cx="5.77" cy="5.77" rx="5.77" ry="5.77" transform="translate(60.666 575.933)" fill="#37bde0"/><ellipse cx="7.99" cy="7.99" rx="7.99" ry="7.99" transform="translate(9.02 62.428)" fill="#37bde0"/><ellipse cx="4.463" cy="4.463" rx="4.463" ry="4.463" transform="translate(752.98 45.992)" fill="#37bde0"/><ellipse cx="5.333" cy="5.333" rx="5.333" ry="5.333" transform="translate(901.1 675.441)" fill="#37bde0"/><ellipse cx="3.249" cy="3.249" rx="3.249" ry="3.249" transform="translate(518.803 657.167)" fill="#37bde0"/><ellipse cx="3.249" cy="3.249" rx="3.249" ry="3.249" transform="translate(0 149.386)" fill="#37bde0"/></g><g transform="translate(6.578 12.535)"><ellipse cx="4.917" cy="4.917" rx="4.917" ry="4.917" transform="translate(320.218 675.81)" fill="#fa6d9a"/><ellipse cx="7.198" cy="7.198" rx="7.198" ry="7.198" transform="translate(388.603 588.314)" fill="#fa6d9a"/><ellipse cx="7.198" cy="7.198" rx="7.198" ry="7.198" transform="translate(504.371 35.485)" fill="#fa6d9a"/><circle cx="3.874" cy="3.874" r="3.874" transform="translate(899.483 403.532)" fill="#fa6d9a"/><circle cx="3.874" cy="3.874" r="3.874" transform="translate(914.541 115.305)" fill="#fa6d9a"/><ellipse cx="2.732" cy="2.732" rx="2.732" ry="2.732" transform="translate(944.259 237.754)" fill="#fa6d9a"/><ellipse cx="2.732" cy="2.732" rx="2.732" ry="2.732" transform="translate(0 419.7)" fill="#fa6d9a"/><ellipse cx="4.307" cy="4.307" rx="4.307" ry="4.307" transform="translate(250.829 460.923)" fill="#fa6d9a"/><ellipse cx="7.198" cy="7.198" rx="7.198" ry="7.198" transform="translate(17.163 512.851)" fill="#fa6d9a"/><ellipse cx="2.732" cy="2.732" rx="2.732" ry="2.732" transform="translate(192.291 622.328)" fill="#fa6d9a"/><ellipse cx="2.732" cy="2.732" rx="2.732" ry="2.732" transform="translate(709.13 627.792)" fill="#fa6d9a"/><ellipse cx="2.732" cy="2.732" rx="2.732" ry="2.732" transform="translate(200.817 25.863)" fill="#fa6d9a"/><circle cx="3.874" cy="3.874" r="3.874" transform="translate(904.091)" fill="#fa6d9a"/></g></g></svg>