<svg xmlns="http://www.w3.org/2000/svg" viewBox="0 0 325 325"><defs><style>.a{fill:#b0a671;}</style></defs><path class="a" d="M83.39,325a11.68,11.68,0,0,1-7.85-2.75l-.19-.17a10.32,10.32,0,0,1-.29-14.58,5.62,5.62,0,0,1,7-1.26,6.61,6.61,0,0,1,3.42,7.35,1.78,1.78,0,0,1-2.24,1.34,1.93,1.93,0,0,1-1.52-2L78,310a5.25,5.25,0,0,0-1.84,3,7.11,7.11,0,0,0,.06,3.49,6.11,6.11,0,0,0,3.88,4,9.17,9.17,0,0,0,11.27-4c2.42-4.17,1.13-10.15.15-13.34-1.8-5.84-6-10.9-10.3-15.5-3.06-3.28-6.42-6.38-9.67-9.37-4.76-4.4-9.7-8.94-13.8-14.19a44.59,44.59,0,0,1-9.82-24.72,16.12,16.12,0,0,1-3.11,5.68,12.21,12.21,0,0,1-8.49,3.79,12,12,0,0,1-8.66-2.73l-.19-.17a10.31,10.31,0,0,1-.3-14.58,5.62,5.62,0,0,1,7-1.26,6.61,6.61,0,0,1,3.42,7.35,1.72,1.72,0,0,1-.9,1.2,2,2,0,0,1-1.34.14A2.09,2.09,0,0,1,34.2,238a1.85,1.85,0,0,1-.33-1.22l-3.75-2.89a5.24,5.24,0,0,0-1.83,3,7.11,7.11,0,0,0,.06,3.49,6.14,6.14,0,0,0,3.87,4,9.19,9.19,0,0,0,11.28-4,11.47,11.47,0,0,0,1.36-5.16v-1.82a27.8,27.8,0,0,0-1.2-6.35c-1.81-5.84-6-10.9-10.3-15.5h0c-3.06-3.29-6.42-6.38-9.67-9.38C18.91,197.8,14,193.25,9.87,188,3.22,179.52-.28,169.62,0,160.13a26.18,26.18,0,0,1,13.54-21.65c7.46-4.21,15.76-4.36,22.75-.42a26.4,26.4,0,0,1,8.53,7.65V65.31H31.14V59.44h13.7V50.71H31.14V44.84H44.85V31.14h5.87v13.7h8.73V31.14h5.87V44.85h80.39a26.54,26.54,0,0,1-7.65-8.54c-3.94-7-3.79-15.29.42-22.75A26.18,26.18,0,0,1,160.13,0c9.49-.28,19.4,3.2,27.88,9.85,5.24,4.11,9.78,9,14.17,13.8,3,3.25,6.1,6.61,9.38,9.67,4.6,4.29,9.66,8.5,15.51,10.3a26.79,26.79,0,0,0,6.4,1.2h1.82v0a11.44,11.44,0,0,0,5.12-1.37,9.16,9.16,0,0,0,4-11.25,6.17,6.17,0,0,0-4-3.9,7.1,7.1,0,0,0-3.46-.06,5.27,5.27,0,0,0-3,1.84l2.89,3.75a1.9,1.9,0,0,1,2,1.52,1.78,1.78,0,0,1-1.34,2.24,6.6,6.6,0,0,1-7.34-3.43,5.62,5.62,0,0,1,1.26-7l.18-.16a10.32,10.32,0,0,1,14.56.65,11.9,11.9,0,0,1,2.73,8.66,12.22,12.22,0,0,1-3.77,8.49,16.27,16.27,0,0,1-5.69,3.12,44.6,44.6,0,0,1,24.72,9.81c5.24,4.11,9.79,9,14.18,13.81,3,3.24,6.09,6.6,9.38,9.67,4.59,4.28,9.66,8.49,15.5,10.3,3.19,1,9.17,2.27,13.33-.15a9.19,9.19,0,0,0,4-11.26,6.19,6.19,0,0,0-4-3.9,7.1,7.1,0,0,0-3.46,0A5.23,5.23,0,0,0,310,78l2.89,3.75a1.92,1.92,0,0,1,2,1.52,1.78,1.78,0,0,1-1.34,2.24,6.61,6.61,0,0,1-7.35-3.43,5.6,5.6,0,0,1,1.27-7l.17-.16a10.29,10.29,0,0,1,14.57.65A11.92,11.92,0,0,1,325,84.19a12.25,12.25,0,0,1-3.78,8.5C315,98.22,305.68,97,299.64,94.24c-9.62-4.36-16.82-12.18-23.79-19.75-8.09-8.78-16.45-17.86-28.52-21.29-9.6-2.73-22.28-1.68-29.07,9.42l-.34.57a19.71,19.71,0,0,0,7,27,18.82,18.82,0,0,0,18,1,12.74,12.74,0,0,0,7-10.92c.15-2.45.15-10.67-6.5-13.49-4.15-1.76-9.54-1.52-12.21,3a1.91,1.91,0,0,1-2.53.67,1.83,1.83,0,0,1-.93-1.13,1.93,1.93,0,0,1,.14-1.47c3.38-5.74,11-7.68,17.39-4.44,6.61,3.37,10,11.61,8.07,19.59a18.3,18.3,0,0,1-17.34,14.1c-8.76.28-17.09-4.67-21.75-12.94a21.85,21.85,0,0,1-2.25-5.7C208.14,88,199,94.71,189.1,95.14c-9.62.4-19.56-3.08-28.76-10.1-5.1-3.89-9.52-8.62-13.8-13.19-3-3.17-6-6.45-9.29-9.4-4.64-4.22-9.75-8.36-15.64-10.1-3.19-.94-9.18-2.15-13.32.33-3.62,2.17-6,7.37-3.73,11.66a6.14,6.14,0,0,0,3.92,3.5,7.11,7.11,0,0,0,3.46,0A5.27,5.27,0,0,0,115,66l-3-3.7a1.92,1.92,0,0,1-.69-3.75,6.59,6.59,0,0,1,7.39,3.31,5.65,5.65,0,0,1-1.18,7.08,10.31,10.31,0,0,1-4,2.48,10.17,10.17,0,0,1-12.75-6.07H65.32v35.46a10.15,10.15,0,0,1,3.57,16.74,5.65,5.65,0,0,1-7.07,1.17,6.59,6.59,0,0,1-3.32-7.36,1.92,1.92,0,0,1,3.76.66l3.7,3a5.23,5.23,0,0,0,1.88-3,7.11,7.11,0,0,0,0-3.49,6.09,6.09,0,0,0-3.46-3.89c-4.31-2.26-9.51.1-11.68,3.72-2.49,4.14-1.28,10.13-.33,13.32,1.74,5.89,5.88,11,10.09,15.64,3,3.25,6.23,6.32,9.4,9.28,4.57,4.28,9.3,8.71,13.19,13.8,7,9.2,10.52,19.15,10.1,28.77-.43,9.9-7.18,19.05-16.66,22.84a21.54,21.54,0,0,1,5.71,2.24c8.27,4.66,13.23,13,12.93,21.75A18.3,18.3,0,0,1,83,253.27c-8,1.93-16.22-1.46-19.59-8.08-3.24-6.36-1.3-14,4.43-17.37a1.93,1.93,0,0,1,2.56.66,1.93,1.93,0,0,1-.61,2.65c-4.53,2.67-4.78,8.06-3,12.21,2.82,6.65,11,6.65,13.49,6.49a12.7,12.7,0,0,0,10.92-7,18.83,18.83,0,0,0-1-18l-.35-.58a19.72,19.72,0,0,0-27.22-6.05c-11.12,6.79-12.16,19.47-9.44,29.07,3.43,12.07,12.51,20.43,21.29,28.52,7.57,7,15.39,14.17,19.75,23.79,2.74,6,4,15.32-1.55,21.56A12.22,12.22,0,0,1,84.2,325ZM79.3,306.52a4.75,4.75,0,0,0-3.51,1.66,9.32,9.32,0,0,0,.26,13.18l.16.15A11,11,0,0,0,84.14,324a11.21,11.21,0,0,0,7.8-3.44c5.21-5.89,4-14.72,1.39-20.49-4.27-9.43-12-16.57-19.52-23.47-8.88-8.18-18.07-16.63-21.57-29-3.61-12.7.17-24.27,9.87-30.19a20.71,20.71,0,0,1,28.59,6.37c.13.19.25.39.37.59a19.88,19.88,0,0,1,1,18.94,13.67,13.67,0,0,1-11.74,7.52c-2.62.17-11.4.16-14.48-7.1-1.93-4.56-1.62-10.48,3.42-13.46a.91.91,0,0,0,.28-1.26.92.92,0,0,0-1.22-.32c-5.25,3.1-7,10.15-4,16.05,3.16,6.2,10.92,9.39,18.46,7.56a17.31,17.31,0,0,0,13.33-16.4c.28-8.26-4.6-16.44-12.43-20.85a20.74,20.74,0,0,0-7.17-2.48l-.08-1c10-3.19,17.27-12.46,17.7-22.55.51-11.85-5.1-21.82-9.89-28.11-3.84-5-8.54-9.43-13.08-13.68-3.19-3-6.48-6.06-9.46-9.34-4.29-4.73-8.52-9.94-10.31-16-1-3.36-2.25-9.65.43-14.12,2.4-4,8.19-6.62,13-4.11a7.07,7.07,0,0,1,4,4.52,8.16,8.16,0,0,1,0,4A6.22,6.22,0,0,1,66.23,116l-.31.21-4.76-3.81.08-.31a.92.92,0,0,0-1.78-.49,5.61,5.61,0,0,0,2.84,6.21,4.64,4.64,0,0,0,5.87-1,9.16,9.16,0,0,0-3.51-15.22l-.34-.12V64.31h37.16l.12.34a9.17,9.17,0,0,0,11.6,5.78,9.21,9.21,0,0,0,3.61-2.25,4.63,4.63,0,0,0,1-5.88,5.6,5.6,0,0,0-6.23-2.83.92.92,0,0,0,.51,1.76l.31-.07,3.81,4.76-.21.3a6.19,6.19,0,0,1-3.82,2.59,8,8,0,0,1-4,0,7.14,7.14,0,0,1-4.55-4c-2.5-4.75.11-10.54,4.12-12.94,4.46-2.68,10.76-1.42,14.12-.43,6.08,1.79,11.3,6,16,10.31,3.28,3,6.36,6.27,9.34,9.46,4.25,4.54,8.65,9.24,13.67,13.07,6.29,4.8,16.24,10.41,28.11,9.9,10.09-.44,19.36-7.72,22.55-17.7l1,.08a20.74,20.74,0,0,0,2.48,7.17c4.48,8,12.45,12.7,20.85,12.43a17.3,17.3,0,0,0,16.4-13.33c1.82-7.54-1.35-15.31-7.56-18.47-5.9-3-13-1.23-16.06,4a1,1,0,0,0-.06.69.89.89,0,0,0,.45.54.92.92,0,0,0,1.21-.31c3-5,8.9-5.34,13.45-3.41,7.25,3.07,7.27,11.86,7.1,14.47a13.69,13.69,0,0,1-7.52,11.75,19.88,19.88,0,0,1-18.95-1,20.73,20.73,0,0,1-7.3-28.38c.12-.2.23-.39.36-.58,5.91-9.69,17.48-13.47,30.18-9.86,12.35,3.5,20.81,12.69,29,21.57,6.9,7.49,14,15.25,23.47,19.52,5.77,2.61,14.6,3.82,20.49-1.39a11.21,11.21,0,0,0,3.44-7.8,11,11,0,0,0-2.47-7.93,9.3,9.3,0,0,0-13.15-.59l-.17.16a4.6,4.6,0,0,0-1.07,5.82,5.7,5.7,0,0,0,6.23,2.93.81.81,0,0,0,.61-1,.91.91,0,0,0-1.13-.72l-.31.07L308.79,78l.21-.3a6.27,6.27,0,0,1,3.87-2.53,8.13,8.13,0,0,1,3.95.07,7.21,7.21,0,0,1,4.67,4.52A10.18,10.18,0,0,1,317,92.24c-4.49,2.61-10.78,1.27-14.13.23-6-1.86-11.2-6.16-15.89-10.52-3.31-3.09-6.42-6.46-9.43-9.73-4.36-4.73-8.88-9.63-14.06-13.69-8.29-6.5-18-9.93-27.23-9.64-.48,0-1,0-1.42.1l-.56,0V47.66h.5a15.32,15.32,0,0,0,9.64-3.6,11.19,11.19,0,0,0,3.43-7.8,10.86,10.86,0,0,0-2.47-7.92,9.32,9.32,0,0,0-13.15-.59l-.16.15A4.61,4.61,0,0,0,231,33.73a5.69,5.69,0,0,0,6.23,2.93.8.8,0,0,0,.6-1,.9.9,0,0,0-1.12-.73l-.32.08-3.72-4.83.21-.3a6.24,6.24,0,0,1,3.87-2.53,8,8,0,0,1,4,.07,7.15,7.15,0,0,1,4.66,4.52,10.15,10.15,0,0,1-4.47,12.46,12.38,12.38,0,0,1-6.12,1.5l-1.34,0a27.67,27.67,0,0,1-6.67-1.24c-6-1.87-11.2-6.16-15.89-10.52-3.31-3.09-6.42-6.47-9.43-9.73-4.37-4.74-8.88-9.64-14.06-13.69C179.1,4.16,169.44.73,160.16,1a25.15,25.15,0,0,0-20.81,13c-4,7.15-4.18,15.09-.42,21.77a25.38,25.38,0,0,0,8.7,9.1l1.48.93H64.32V32.14H60.45v13.7H49.72V32.14H45.85v13.7H32.14v3.87h13.7V60.44H32.14v3.87h13.7v84.8l-.92-1.49a25.44,25.44,0,0,0-9.1-8.69c-6.68-3.76-14.62-3.61-21.77.42A25.16,25.16,0,0,0,1,160.16c-.29,9.26,3.14,18.93,9.64,27.23,4.06,5.18,9,9.7,13.7,14.07,3.26,3,6.63,6.11,9.72,9.43h0c4.36,4.68,8.66,9.85,10.52,15.88a27.64,27.64,0,0,1,1.24,6.62l0,1.4a12.49,12.49,0,0,1-1.49,6.1,10.16,10.16,0,0,1-12.48,4.48,7.15,7.15,0,0,1-4.5-4.64,8.13,8.13,0,0,1-.08-4,6.22,6.22,0,0,1,2.53-3.85l.3-.22.29.23,4.29,3.3.25.2-.07.32a.9.9,0,0,0,.72,1.12.81.81,0,0,0,1-.61A5.69,5.69,0,0,0,33.74,231a4.61,4.61,0,0,0-5.83,1,9.31,9.31,0,0,0,.27,13.18l.16.15a11,11,0,0,0,7.93,2.47,11.21,11.21,0,0,0,7.8-3.44,15.28,15.28,0,0,0,3.59-9.64v-.49H49l0,.55c-.05.47-.08,1-.1,1.43-.28,9.26,3.14,18.93,9.64,27.23,4.06,5.18,9,9.7,13.7,14.06,3.26,3,6.64,6.12,9.72,9.43,4.37,4.69,8.66,9.85,10.52,15.89,1,3.35,2.38,9.64-.24,14.13a10.16,10.16,0,0,1-12.47,4.46,7.13,7.13,0,0,1-4.5-4.64,8.13,8.13,0,0,1-.08-4A6.22,6.22,0,0,1,77.71,309l.3-.22,4.83,3.73-.07.32a.91.91,0,0,0,.72,1.12.81.81,0,0,0,1-.61,5.69,5.69,0,0,0-2.92-6.22A4.84,4.84,0,0,0,79.3,306.52ZM50.68,228.1l-1-.2V200.52l.91,1.38a25.67,25.67,0,0,0,8.46,8,20.84,20.84,0,0,0,7.41,2.61l.09,1A26,26,0,0,0,50.68,228.1Zm0-24.35v21.92a27,27,0,0,1,13.84-12.56,21.27,21.27,0,0,1-6-2.39A26.53,26.53,0,0,1,50.72,203.75Zm-5.83,19c-4.35-8.85-11.78-15.69-19-22.31-8.88-8.18-18.06-16.63-21.56-29-3.61-12.7.17-24.27,9.86-30.19a20.73,20.73,0,0,1,28.61,6.37l.36.59a19.63,19.63,0,0,1,2.64,7.23v6.62c-1.28,7.47-6.27,12.15-13.38,12.61-2.61.16-11.4.15-14.47-7.1-1.93-4.56-1.62-10.49,3.42-13.46a.91.91,0,0,0,.28-1.26.93.93,0,0,0-1.22-.32c-5.26,3.09-7,10.15-4,16,3.16,6.2,10.93,9.38,18.47,7.56a17.36,17.36,0,0,0,10-6.69l.9-1.24v54.3ZM25.31,139.06a19.59,19.59,0,0,0-10.55,3.09h0c-11.1,6.79-12.15,19.46-9.42,29.06,3.43,12.08,12.5,20.44,21.28,28.53,6.75,6.22,13.72,12.64,18.23,20.78V171.24a18.4,18.4,0,0,1-9.69,5.92c-8,1.93-16.22-1.47-19.59-8.08-3.24-6.37-1.3-14,4.43-17.37a1.92,1.92,0,0,1,2.55.65,1.92,1.92,0,0,1-.6,2.65c-4.53,2.68-4.78,8.06-3,12.22,2.82,6.64,11,6.65,13.49,6.49C39,173.3,43.67,168.93,44.86,162v-6.46a19,19,0,0,0-2.51-6.8c-.12-.19-.23-.38-.35-.56a19.53,19.53,0,0,0-12.36-8.67A19.79,19.79,0,0,0,25.31,139.06Zm44.52,71.81a21.34,21.34,0,0,1-4.81-.56A20.63,20.63,0,0,1,52.16,201c-.12-.2-.24-.4-.35-.6a19.3,19.3,0,0,1-2.08-5l0-.12,0-10.45c1.82-6.48,6.62-10.39,13.16-10.73,5.44-.28,12.53,1.61,14.6,7.86,1.44,4.33,1.18,10-3.84,12.85a.92.92,0,0,0-.39.56,1,1,0,0,0,.12.7.91.91,0,0,0,1.22.31c5.29-3,7.14-10.06,4.21-16-3.08-6.24-10.8-9.51-18.38-7.78a17.38,17.38,0,0,0-9.82,6.21l-.9,1.14v-54.7l1-.2c4.18,9.33,11.75,16.48,19.07,23.39,8.78,8.3,17.86,16.87,21.21,29.27l.2.76h0c3.08,12.42-.89,23.6-10.47,29.29A20.57,20.57,0,0,1,69.83,210.87ZM50.71,195.23a18.41,18.41,0,0,0,2,4.69c.11.2.23.39.34.58a19.72,19.72,0,0,0,27.14,6.42C91.36,200.26,92.58,187.61,90,178l-.15-.59c-3.4-11.81-12.23-20.14-20.76-28.21-6.87-6.49-14-13.18-18.35-21.73v49.7a18.4,18.4,0,0,1,9.5-5.51c8-1.83,16.22,1.66,19.5,8.3,3.16,6.42,1.13,14-4.63,17.33a1.92,1.92,0,0,1-2.55-.66,1.9,1.9,0,0,1-.24-1.45,1.87,1.87,0,0,1,.85-1.2c3.83-2.19,5.1-6.56,3.4-11.68-1.89-5.7-8.26-7.44-13.6-7.17-6.06.31-10.51,3.93-12.23,9.94Zm-1-87.37V64.31H60.45v36.61H60a11.3,11.3,0,0,0-7.82,3.37,13.23,13.23,0,0,0-1.5,2Zm1-42.55v39.14q.33-.44.69-.84a12.34,12.34,0,0,1,8-3.66V65.31ZM186.6,92.16a34.1,34.1,0,0,1-8.87-1.22c-12.4-3.35-21-12.42-29.26-21.2-6.92-7.32-14.07-14.89-23.4-19.07l.2-1H180l-1.14.9a17.31,17.31,0,0,0-6.2,9.82c-1.73,7.58,1.53,15.3,7.77,18.38,5.95,2.93,13,1.08,16-4.22a.92.92,0,0,0-.36-1.25.92.92,0,0,0-1.23.32c-2.43,4.25-7.23,5.69-12.84,3.83-6.25-2.07-8.14-9.16-7.86-14.6.34-6.54,4.25-11.34,10.73-13.16l.14,0,10.43,0a19.16,19.16,0,0,1,5,2.08,20.71,20.71,0,0,1,7.69,28.27c-.11.2-.23.4-.35.6l-.18.29h0C203.15,88.21,195.52,92.16,186.6,92.16ZM127.47,50.71C136,55.1,142.71,62.19,149.2,69.05,157.39,77.73,165.87,86.7,178,90c9.62,2.6,22.28,1.39,28.93-9.81l.18-.31h0a2.54,2.54,0,0,1,.16-.28,19.72,19.72,0,0,0-7.34-26.9,18.3,18.3,0,0,0-4.7-2H185.06c-6,1.71-9.63,6.17-9.94,12.23-.26,5.09,1.46,11.71,7.18,13.6,5.12,1.7,9.48.43,11.66-3.39a1.92,1.92,0,0,1,3.32,1.93C194,80.84,186.37,82.87,180,79.7c-6.64-3.27-10.13-11.47-8.3-19.49a18.4,18.4,0,0,1,5.51-9.5ZM213.31,67l-.78-.13-.06-.36a20.87,20.87,0,0,0-2.6-7.42,25.57,25.57,0,0,0-8-8.45l-1.38-.92h27.39l.19,1a26,26,0,0,0-14.65,15.91Zm-9.56-16.28a26.56,26.56,0,0,1,7,7.87,21.45,21.45,0,0,1,2.39,6,27.11,27.11,0,0,1,12.55-13.85ZM100.93,60.44H64.32V49.71h43.55l-1.54.93a12.51,12.51,0,0,0-2,1.51,11.25,11.25,0,0,0-3.35,7.8Zm-35.61-1H100a12.22,12.22,0,0,1,3.64-8c.28-.25.56-.49.85-.71H65.32Zm-4.87,1H49.71V49.71H60.45Zm-9.74-1h8.74V50.71H50.71Zm171.86-13.6H168.26l1.25-.9a17.35,17.35,0,0,0,6.68-10c1.83-7.54-1.35-15.31-7.55-18.47-5.91-3-13-1.23-16.06,4a.92.92,0,0,0,.37,1.23.91.91,0,0,0,1.22-.32c3-5,8.9-5.34,13.46-3.41,7.25,3.07,7.26,11.86,7.1,14.47-.46,7.11-5.15,12.11-12.54,13.37h-6.6a19.63,19.63,0,0,1-7.28-2.62l-.05,0A20.72,20.72,0,0,1,141,14.8c.11-.2.23-.39.35-.58,5.92-9.69,17.49-13.47,30.19-9.86,12.35,3.5,20.81,12.69,29,21.56,6.61,7.19,13.45,14.61,22.31,19Zm-73.88-3.56.09,0a18.67,18.67,0,0,0,6.88,2.52h6.45c6.82-1.17,11.19-5.82,11.62-12.44.16-2.45.15-10.67-6.5-13.49-4.15-1.76-9.54-1.52-12.2,3a1.92,1.92,0,0,1-2.56.68,1.89,1.89,0,0,1-.92-1.15,1.86,1.86,0,0,1,.16-1.46c3.38-5.74,11-7.68,17.38-4.44,6.61,3.37,10,11.61,8.08,19.59a18.38,18.38,0,0,1-5.93,9.7h49.29C212.39,40.33,206,33.36,199.74,26.6c-8.09-8.77-16.45-17.85-28.53-21.28-9.6-2.73-22.27-1.68-29.06,9.43l-.34.56a19.72,19.72,0,0,0,6.88,27Z"/></svg>