<svg xmlns="http://www.w3.org/2000/svg" width="322.944" height="77.177" viewBox="0 0 322.944 77.177"><g transform="translate(-799 -2753)"><path d="M607.318,695.514a31.735,31.735,0,0,0-9.978-8.165V676.739H308.372v10.609a31.545,31.545,0,0,0,0,55.959v10.608H597.34V743.308a31.525,31.525,0,0,0,9.978-47.794Z" transform="translate(507.616 2076.261)" fill="#9ed8f5"/><path d="M597.069,753.645H315.383v-9.268a27.91,27.91,0,0,1,0-51.359v-9.269H597.069v9.269a27.911,27.911,0,0,1,0,51.359Zm-279.26-2.427H594.641v-8.482l.77-.3a25.487,25.487,0,0,0,0-47.474l-.77-.3v-8.482H317.809v8.482l-.77.3a25.487,25.487,0,0,0,0,47.474l.77.3Z" transform="translate(504.247 2072.892)" fill="#fff"/><path d="M596.643,753.22H326.363v-7.657a22.215,22.215,0,0,1,0-43.175V694.73h270.28v7.657a22.214,22.214,0,0,1,0,43.175Zm-269.551-.728H595.914v-7.508l.284-.064a21.482,21.482,0,0,0,0-41.888l-.284-.064v-7.509H327.091v7.509l-.284.064a21.482,21.482,0,0,0,0,41.888l.284.064Z" transform="translate(498.969 2067.614)" fill="#fff"/><path d="M-46.608-23.04a2.425,2.425,0,0,0-1.216-.352A3.289,3.289,0,0,0-50.48-21.6c-.512,1.056-5.728,11.936-6.432,13.344-.576-1.376-4.992-11.584-5.824-13.088a3.693,3.693,0,0,0-2.944-2.208,2.1,2.1,0,0,0-1.056.288c-1.44.8-1.792,2.08-1.12,3.9.416,1.12,5.6,13.76,7.712,17.184a3.571,3.571,0,0,0,3.008,1.7,3.33,3.33,0,0,0,2.848-1.536c1.12-1.76,8.448-16.416,8.768-17.312A2.931,2.931,0,0,0-46.608-23.04Zm7.776,7.776a2.823,2.823,0,0,0,2.88-2.848,3.267,3.267,0,0,0-1.888-3.1A3.181,3.181,0,0,0-42.1-18.688,3.041,3.041,0,0,0-38.832-15.264ZM-41.936-3.3c.192,1.7.384,3.392,2.592,3.584,1.7.128,2.592-.928,2.944-2.624a57.682,57.682,0,0,0,.16-7.744c0-2.72-1.12-4-2.688-4-1.312.064-2.88.9-3.04,3.424A50.432,50.432,0,0,0-41.936-3.3Zm9.856-5.568c0,6.08,2.88,8.128,6.176,8.7,4.032.7,5.952-.576,6.528-1.632A2.186,2.186,0,0,0-21.712-4.96c-3.9.9-4.192-.992-4.512-1.152,0,0,4.128.288,5.792-.768a4.372,4.372,0,0,0,1.376-6.08c-1.312-2.4-3.616-3.712-7.36-3.3C-30.16-15.872-32.08-11.9-32.08-8.864ZM-22.9-11.04c.352,1.248-2.624,1.728-3.52,1.088-.608-.48-.16-1.376.736-2.208A2.011,2.011,0,0,1-22.9-11.04Zm28.16-3.936a2.111,2.111,0,0,0-1.12-1.216,1.859,1.859,0,0,0-.9-.224A2.65,2.65,0,0,0,.656-14.688c-.448,1.12-1.472,4.1-2.08,5.888A28.26,28.26,0,0,0-2.96-12.544a2.385,2.385,0,0,0-2.176-1.408A2.409,2.409,0,0,0-7.312-12.64,34.622,34.622,0,0,0-8.656-9.184c-.576-1.664-1.5-4.384-1.824-5.184a3.384,3.384,0,0,0-2.976-2.3,3.746,3.746,0,0,0-.832.128c-1.408.416-1.664,1.632-1.408,3.136A108.573,108.573,0,0,0-10.864-1.472c.576.928,1.056,1.5,2.176,1.5.8,0,.864-.32,1.44-.864A40.433,40.433,0,0,0-5.1-5.536c.352.128,1.632,3.968,2.016,4.544A1.923,1.923,0,0,0-1.232.128,2.165,2.165,0,0,0,.816-1.12c.7-1.024,2.368-5.7,4.032-10.592.256-.768.416-1.28.48-1.44A2.409,2.409,0,0,0,5.264-14.976ZM47.44-3.136c-.64-1.344-7.488-18.3-8.32-19.68-.832-1.408-3.488-1.728-5.024-1.088-1.5.64-2.4,3.552-3.232,5.6-.832,2.016-6.336,12.96-7.1,15.008S23.888.128,25.36.448s2.112-.1,3.168-1.568c.32-.448,1.76-3.264,2.4-4.608.064-.128.192-.416.352-.768l9.12-.032c.832,2.08,1.664,4.128,2.144,4.992A3.126,3.126,0,0,0,46.416,0,2.26,2.26,0,0,0,47.44-3.136ZM36.048-17.088s1.376,3.584,2.176,5.344l-4.608.032C34.864-14.464,36.048-17.088,36.048-17.088Zm20.32,13.7c.064-1.632.1-14.784.16-16.768a2.629,2.629,0,0,0-2.4-3.008,2.883,2.883,0,0,0-2.848,2.72c-.224,1.888-.256,14.4-.16,16.672C51.184-1.888,51.856.16,53.968,0,56.24-.128,56.272-1.408,56.368-3.392Zm10.176,0c.064-1.632.1-14.784.16-16.768a2.629,2.629,0,0,0-2.4-3.008,2.883,2.883,0,0,0-2.848,2.72c-.224,1.888-.256,14.4-.16,16.672C61.36-1.888,62.032.16,64.144,0,66.416-.128,66.448-1.408,66.544-3.392Z" transform="translate(960 2803)" fill="#fff"/></g></svg>