<svg xmlns="http://www.w3.org/2000/svg" viewBox="0 0 290.65 176.98"><defs><style>.cls-1{fill:#b1a772;}.cls-2{fill:#ffa0ba;}.cls-3{fill:#c9c29a;}.cls-4{fill:#87d3ea;}.cls-5{fill:#fa6d9a;}.cls-6{fill:#37bde0;}</style></defs><g id="レイヤー_2" data-name="レイヤー 2"><g id="logo"><path class="cls-1" d="M51.84,154.1v-2.83l-1.32,1.2-1.33-1.2v2.83h-.92v-4.63h.31l1.94,1.76,1.93-1.76h.32v4.63Z"/><path class="cls-1" d="M57.6,154.09v-4.62h.92v4.62Z"/><path class="cls-1" d="M66.48,154.1l-2.6-2.7v2.7H63v-4.63h.29l2.56,2.59v-2.59h.92v4.63Z"/><path class="cls-1" d="M73.38,149.47l2.19,4.63h-1l-1.32-2.81-1.44,2.81h-1l2.35-4.63Z"/><path class="cls-1" d="M82.34,149.47v.92H81.06v3.71h-.93v-3.71H78.85v-.92Z"/><path class="cls-1" d="M90.94,151.78a2.4,2.4,0,1,1-2.4-2.4A2.41,2.41,0,0,1,90.94,151.78Zm-3.85,0a1.45,1.45,0,1,0,1.45-1.45A1.45,1.45,0,0,0,87.09,151.78Z"/><path class="cls-1" d="M97.07,149.47l2.19,4.63h-1l-1.32-2.81-1.43,2.81h-1l2.36-4.63Z"/><path class="cls-1" d="M107.11,154.39l-.67-.67a2.38,2.38,0,0,1-1.41.46,2.4,2.4,0,1,1,2.4-2.4,2.34,2.34,0,0,1-.49,1.44l.67.67Zm-.85-1.85a1.41,1.41,0,0,0,.22-.76,1.45,1.45,0,1,0-1.45,1.45,1.65,1.65,0,0,0,.73-.19l-1-1,.5-.5Z"/><path class="cls-1" d="M115.21,152.39a1.79,1.79,0,0,1-3.58,0v-2.92h.92v2.92a.83.83,0,0,0,.26.61.87.87,0,0,0,1.22,0,.85.85,0,0,0,.26-.61h0v-2.92h.93v2.92Z"/><path class="cls-1" d="M121.45,149.47l2.18,4.63h-1l-1.32-2.81-1.44,2.81h-1l2.36-4.63Z"/><path class="cls-1" d="M135.42,151.78a2.4,2.4,0,1,1-2.4-2.4A2.4,2.4,0,0,1,135.42,151.78Zm-3.84,0a1.45,1.45,0,1,0,1.44-1.45A1.45,1.45,0,0,0,131.58,151.78Z"/><path class="cls-1" d="M143.38,154.1l-2.6-2.7v2.7h-.92v-4.63h.29l2.55,2.59v-2.59h.92v4.63Z"/><path class="cls-1" d="M151.6,150.39h-3.08v-.92h3.08Zm-3.08.86h2.55v.93h-2.55Zm0,1.92h3.06v.93h-3.06Z"/><path class="cls-1" d="M160,154.1v-2.83l-1.33,1.2-1.33-1.2v2.83h-.92v-4.63h.32l1.93,1.76,1.93-1.76h.32v4.63Z"/><path class="cls-1" d="M167.79,149.47,170,154.1h-1l-1.32-2.81-1.44,2.81h-1l2.35-4.63Z"/><path class="cls-1" d="M177.81,154.1l-2.6-2.7v2.7h-.93v-4.63h.29l2.56,2.59v-2.59h.92v4.63Z"/><path class="cls-1" d="M186.24,153.17H188v.92h-2.65v-4.62h.93Z"/><path class="cls-1" d="M192.59,154.09v-4.62h.92v4.62Z"/><path class="cls-1" d="M199.74,154.1l-2.1-4.63h1l1.2,2.63,1.21-2.63h1L200,154.1Z"/><path class="cls-1" d="M208.86,150.39h-3.09v-.92h3.09Zm-3.09.86h2.56v.93h-2.56Zm0,1.92h3.07v.93h-3.07Z"/><path class="cls-1" d="M217.21,152l-.24-.08a1.3,1.3,0,0,1-.41-.28,1.28,1.28,0,0,1-.29-.41,1.38,1.38,0,0,1,0-1,1.28,1.28,0,0,1,.29-.41,1.33,1.33,0,0,1,.41-.29,1.35,1.35,0,0,1,1,0,1.37,1.37,0,0,1,.42.29,1.25,1.25,0,0,1,.28.41,1.26,1.26,0,0,1,0,1c-.06.15-1.52,2.13-1.52,2.13h1.75v.76h-3.23Zm.23-.85a.48.48,0,0,0,0-1,.48.48,0,1,0,0,1Z"/><path class="cls-1" d="M226.67,151.79a1.91,1.91,0,1,1-1.85-2.39A2.18,2.18,0,0,1,226.67,151.79Zm-2.41-1.13a1.62,1.62,0,0,0-.25.49,2.13,2.13,0,0,0,0,1.29,1.51,1.51,0,0,0,.25.49.78.78,0,0,0,.56.34.76.76,0,0,0,.57-.34,1.51,1.51,0,0,0,.25-.49,2.13,2.13,0,0,0,0-1.29,1.62,1.62,0,0,0-.25-.49.76.76,0,0,0-.57-.34A.78.78,0,0,0,224.26,150.66Z"/><path class="cls-1" d="M232,152l-.24-.08a1.42,1.42,0,0,1-.41-.28,1.11,1.11,0,0,1-.28-.41,1.26,1.26,0,0,1,0-1,1.11,1.11,0,0,1,.28-.41,1.46,1.46,0,0,1,.41-.29,1.49,1.49,0,0,1,.51-.1,1.45,1.45,0,0,1,.51.1,1.37,1.37,0,0,1,.42.29,1.25,1.25,0,0,1,.28.41,1.26,1.26,0,0,1,0,1c-.06.15-1.52,2.13-1.52,2.13h1.75v.76h-3.23Zm.23-.85a.48.48,0,0,0,0-1,.48.48,0,1,0,0,1Z"/><path class="cls-1" d="M239.33,152a1.43,1.43,0,0,1-.66-.36,1.11,1.11,0,0,1-.28-.41,1.26,1.26,0,0,1,0-1,1.11,1.11,0,0,1,.28-.41,1.37,1.37,0,0,1,.42-.29,1.33,1.33,0,0,1,1,0,1.37,1.37,0,0,1,.42.29,1.11,1.11,0,0,1,.28.41,1.26,1.26,0,0,1,0,1c-.06.15-1.52,2.13-1.52,2.13H241v.76H237.8Zm.22-.85a.48.48,0,1,0-.48-.49A.48.48,0,0,0,239.55,151.13Z"/><path class="cls-1" d="M72.74,161.85l2.19,4.63h-1l-1.33-2.81-1.43,2.81h-1l2.35-4.63Z"/><path class="cls-1" d="M82.78,166.77l-.67-.67a2.38,2.38,0,0,1-1.41.46,2.4,2.4,0,1,1,1.92-1l.66.67Zm-.84-1.85a1.49,1.49,0,0,0,.21-.76,1.45,1.45,0,1,0-1.45,1.45,1.5,1.5,0,0,0,.73-.19l-1-1,.51-.5Z"/><path class="cls-1" d="M90.88,164.77a1.79,1.79,0,0,1-3.58,0v-2.93h.92v2.92a.87.87,0,0,0,.26.61.84.84,0,0,0,.61.25.81.81,0,0,0,.61-.25.85.85,0,0,0,.26-.6h0v-2.93h.93v2.92Z"/><path class="cls-1" d="M97.12,161.85l2.18,4.63h-1L97,163.67l-1.43,2.81h-1l2.36-4.63Z"/><path class="cls-1" d="M106.37,166.47v-4.62h.92v4.62Z"/><path class="cls-1" d="M112.45,162.77v3.7h-.93v-4.62h1.81a1.39,1.39,0,0,1,.57,2.65l.92,2h-1l-.87-1.85v-.93h.36a.45.45,0,0,0,.46-.46.46.46,0,0,0-.46-.47Z"/><path class="cls-1" d="M122.75,164.16a2.4,2.4,0,1,1-2.39-2.39A2.4,2.4,0,0,1,122.75,164.16Zm-3.84,0a1.45,1.45,0,1,0,1.45-1.44A1.45,1.45,0,0,0,118.91,164.16Z"/><path class="cls-1" d="M129.64,166.47v-4.62h.93v4.62Z"/><path class="cls-1" d="M138.19,166.48l-2.6-2.7v2.7h-.92v-4.63H135l2.55,2.59v-2.59h.93v4.63Z"/><path class="cls-1" d="M151.6,161.85l-2.12,4.63h-.23l-.77-1.7-.78,1.7h-.22l-2.11-4.63h1l1.23,2.6.41-.78-.89-1.82h1l1.2,2.56,1.2-2.56Z"/><path class="cls-1" d="M159.37,164.16a2.4,2.4,0,1,1-2.39-2.39A2.4,2.4,0,0,1,159.37,164.16Zm-3.84,0a1.45,1.45,0,1,0,1.45-1.44A1.45,1.45,0,0,0,155.53,164.16Z"/><path class="cls-1" d="M166.54,166.48l-2.6-2.7v2.7H163v-4.63h.29l2.56,2.59v-2.59h.92v4.63Z"/><path class="cls-1" d="M172.12,161.85a2.3,2.3,0,0,1,1.63.67,2.25,2.25,0,0,1,.5.74,2.25,2.25,0,0,1,0,1.81,2.12,2.12,0,0,1-.5.73,2.25,2.25,0,0,1-1.63.68h-1.3v-4.62Zm0,3.71a1.39,1.39,0,1,0,0-2.78h-.38v2.78Z"/><path class="cls-1" d="M181.49,162.78H178.4v-.93h3.09Zm-3.09.85H181v.93H178.4Zm0,1.93h3.07v.92H178.4Z"/><path class="cls-1" d="M186.71,162.77v3.7h-.92v-4.62h1.81a1.39,1.39,0,0,1,.57,2.65l.92,2h-1l-.86-1.85v-.93h.36a.46.46,0,0,0,.46-.46.47.47,0,0,0-.46-.47Z"/><path class="cls-1" d="M194.34,165.56h1.72v.91h-2.65v-4.62h.93Z"/><path class="cls-1" d="M202.79,161.85l2.18,4.63h-1l-1.32-2.81-1.43,2.81h-1l2.36-4.63Z"/><path class="cls-1" d="M212.47,166.48l-2.6-2.7v2.7H209v-4.63h.29l2.55,2.59v-2.59h.92v4.63Z"/><path class="cls-1" d="M218.26,161.85a2.25,2.25,0,0,1,.89.18,2.45,2.45,0,0,1,.74.49,2.39,2.39,0,0,1,.49.74,2.25,2.25,0,0,1,0,1.81,2.23,2.23,0,0,1-.49.73,2.48,2.48,0,0,1-.74.5,2.25,2.25,0,0,1-.89.18H217v-4.62Zm0,3.71a1.39,1.39,0,0,0,0-2.78h-.39v2.78Z"/><path class="cls-1" d="M185.21,32.16a.52.52,0,0,1-.59-.75.79.79,0,0,1,.52-.42,1.94,1.94,0,0,0,.73-.32,15.41,15.41,0,0,1,1.77-.82c.6-.24,1.2-.49,1.8-.76a.73.73,0,0,1,.25-.07.33.33,0,0,1,.26.14.61.61,0,0,1,.13.6.9.9,0,0,1-.62.46,3.27,3.27,0,0,0-.82.37,6.31,6.31,0,0,0-.9.44,5.11,5.11,0,0,1-.88.45,3.08,3.08,0,0,1-.79.44A2.38,2.38,0,0,1,185.21,32.16Zm-82.48,0a.79.79,0,0,1-.29-.06c-.48-.17-.83-.31-1.14-.45a10.09,10.09,0,0,1-1-.55.62.62,0,0,1-.29-.46.5.5,0,0,1,.12-.46.73.73,0,0,1,.36-.12,1.45,1.45,0,0,1,.59.24c.35.15.72.28,1.12.41a1.76,1.76,0,0,1,.85.56c.42.43.23.62.15.7A.57.57,0,0,1,102.73,32.14Zm1.54-3a.72.72,0,0,1-.41-.15l-.7-.5a12.41,12.41,0,0,0-1.57-.86,14.84,14.84,0,0,1-1.53-.84,1.44,1.44,0,0,1-.6-.6c-.09-.17-.15-.38.21-.6a.58.58,0,0,1,.26-.06.8.8,0,0,1,.46.16l.32.21.43.29a2.94,2.94,0,0,1,.84.48,2.87,2.87,0,0,0,.77.51,4.07,4.07,0,0,0,.85.51l.83.39a.67.67,0,0,1,.29.52.46.46,0,0,1-.2.49A.66.66,0,0,1,104.27,29.15Zm79.38,0a.62.62,0,0,1-.5-.23c-.12-.13-.23-.35.15-.73a2.14,2.14,0,0,1,1-.72,7.28,7.28,0,0,0,1.15-.56.65.65,0,0,1,.31-.11c.07,0,.18,0,.29.21a.78.78,0,0,1,.05.75,1.4,1.4,0,0,1-.44.24,1.33,1.33,0,0,0-.54.33l-.2.13-.38.24-.6.41A1.45,1.45,0,0,1,183.65,29.14Zm-2-3.22a.47.47,0,0,1-.17,0c-.15-.05-.23-.21-.23-.48a.68.68,0,0,1,.31-.57l.1-.07.54-.37,3.29-2.09a.39.39,0,0,1,.23-.07.7.7,0,0,1,.35.12.33.33,0,0,1,.15.5,1,1,0,0,1-.54.5,2.79,2.79,0,0,0-.73.47,11.48,11.48,0,0,0-1.49,1.09,4.91,4.91,0,0,1-1.46.88A.7.7,0,0,1,181.63,25.92ZM106,25.83a.84.84,0,0,1-.45-.13,6.61,6.61,0,0,0-.91-.55,5.18,5.18,0,0,1-.88-.54c-.37-.3-.28-.54-.17-.69a.51.51,0,0,1,.46-.26,1.18,1.18,0,0,1,.31.05,2.76,2.76,0,0,1,1.06.53l1,.76c.19.19.29.35.27.48s-.08.15-.2.22A1,1,0,0,1,106,25.83Zm73.52-2.58a.42.42,0,0,1-.35-.21c-.2-.28-.12-.59.24-.95a5.26,5.26,0,0,1,.83-.68,8.33,8.33,0,0,0,.95-.71.84.84,0,0,1,.45-.22c.06,0,.15,0,.23.19a.78.78,0,0,1-.14.88,5.48,5.48,0,0,1-.43.37c-.17.14-.32.28-.46.41l-.79.69A1,1,0,0,1,179.52,23.25Zm-71.39,0a.64.64,0,0,1-.42-.24l-.55-.55q-.81-.62-1.56-1.11a8.75,8.75,0,0,1-1.43-1.18,1.41,1.41,0,0,1-.37-.69.25.25,0,0,1,0-.21.71.71,0,0,1,.47-.2,1.11,1.11,0,0,1,.71.32l.21.18.39.36a2.17,2.17,0,0,1,.68.54c.21.24.41.46.61.66l1.61,1.11a.65.65,0,0,1,.2.58c0,.22-.18.35-.46.4A.3.3,0,0,1,108.13,23.22Zm69.05-2.8a.79.79,0,0,1-.25-.05c-.11-.05-.25-.16-.18-.53a.79.79,0,0,1,.35-.63,4,4,0,0,0,.61-.5,17.65,17.65,0,0,1,1.39-1.24,16,16,0,0,0,1.41-1.26.59.59,0,0,1,.41-.21.46.46,0,0,1,.24.08c.14.09.31.24.16.61a1.34,1.34,0,0,1-.47.55,5.55,5.55,0,0,0-.61.51c-.38.38-.82.87-1.3,1.45a3.47,3.47,0,0,1-1.44,1.11A.56.56,0,0,1,177.18,20.42Zm-66.55,0a.69.69,0,0,1-.48-.25l-.8-.7a3.47,3.47,0,0,0-.51-.41,2.63,2.63,0,0,1-.49-.39c-.32-.49-.08-.71,0-.78a.47.47,0,0,1,.32-.13.7.7,0,0,1,.43.19,3.69,3.69,0,0,1,.89.73,6.72,6.72,0,0,0,.9.86.66.66,0,0,1,.29.43.41.41,0,0,1-.18.3A.61.61,0,0,1,110.63,20.39ZM113.16,18a.73.73,0,0,1-.26-.06,1.23,1.23,0,0,1-.54-.46c-.21-.27-.38-.47-.51-.61a7.46,7.46,0,0,0-1.31-1.35,4.15,4.15,0,0,1-1.16-1.41.68.68,0,0,1-.1-.57c0-.11.12-.26.49-.26a1.14,1.14,0,0,1,.6.45c.22.27.38.48.51.61.41.4.82.84,1.3,1.39l1.19,1.4c.31.3.23.52.14.66A.38.38,0,0,1,113.16,18Zm61.51,0a.45.45,0,0,1-.33-.21c-.06-.08-.24-.32.29-.85.19-.25.38-.53.62-.91a2.4,2.4,0,0,1,.66-.77.76.76,0,0,1,.44-.21.4.4,0,0,1,.34.23.71.71,0,0,1,0,.92,3.21,3.21,0,0,1-.73.83,8,8,0,0,0-.85.75A.65.65,0,0,1,174.67,18ZM115.8,15.63a.24.24,0,0,1-.17-.07l-.4-.41a1.81,1.81,0,0,1-.33-.46,2.26,2.26,0,0,0-.36-.53l-.41-.4c-.06-.06-.32-.33-.39-.39-.12-.48.08-.61.25-.67a.85.85,0,0,1,.23,0,.76.76,0,0,1,.55.25,2.78,2.78,0,0,1,.73.87,5.55,5.55,0,0,0,.66,1,.51.51,0,0,1,.2.39.5.5,0,0,1-.28.34A.57.57,0,0,1,115.8,15.63Zm56-.09c-.05,0-.2,0-.26-.33a.77.77,0,0,1,.22-.7l.54-.58a13.11,13.11,0,0,1,1.11-1.51c.37-.43.75-.9,1.2-1.5a.39.39,0,0,1,.35-.18l.18,0c.32.08.36.26.36.4a.54.54,0,0,1-.21.6c-.23.2-.42.38-.55.51a13.25,13.25,0,0,0-1.07,1.62,4.45,4.45,0,0,1-1.21,1.36,1.26,1.26,0,0,1-.57.28ZM118.68,13.6a.89.89,0,0,1-.3-.06c-.09-.12-.27-.34-.44-.6a6,6,0,0,0-.51-.67c-.19-.25-.37-.52-.54-.78a5.11,5.11,0,0,1-.43-.88c-.15-.22-.32-.46-.52-.72a5.35,5.35,0,0,1-.49-.78.8.8,0,0,1,.06-.56.22.22,0,0,1,.22-.15.67.67,0,0,1,.28.07.94.94,0,0,1,.59.45l.11.17.35.53c.12.26.25.51.38.74s.27.48.41.75l1.2,1.6a.58.58,0,0,1,0,.71A.46.46,0,0,1,118.68,13.6Zm50.53,0a.38.38,0,0,1-.26-.15.64.64,0,0,1-.09-.82l.25-.44a3,3,0,0,1,.33-.43,1.25,1.25,0,0,0,.33-.59,1.11,1.11,0,0,1,.27-.5.79.79,0,0,1,.46-.2.46.46,0,0,1,.29.1.63.63,0,0,1,.16.78,3.27,3.27,0,0,1-.62.95,6.21,6.21,0,0,0-.76,1C169.48,13.41,169.35,13.57,169.21,13.57Zm-47.46-1.84a.87.87,0,0,1-.63-.44,7.44,7.44,0,0,1-.48-1,5,5,0,0,0-.51-1.07.4.4,0,0,1,.16-.64.66.66,0,0,1,.31-.1.58.58,0,0,1,.44.27,1.15,1.15,0,0,1,.28.51,1.49,1.49,0,0,0,.33.6,2.94,2.94,0,0,0,.24.43l.24.43c.31.63.09.84-.11,1A.56.56,0,0,1,121.75,11.73Zm44.16-.08s-.19,0-.33-.34a.74.74,0,0,1,.15-.6c.16-.26.31-.5.44-.69.27-.61.56-1.2.85-1.76s.62-1.1.94-1.63a.46.46,0,0,1,.42-.3.64.64,0,0,1,.58.39.87.87,0,0,1-.19.73l-.49.75a8.28,8.28,0,0,0-.81,1.67,4.15,4.15,0,0,1-1,1.5,1.1,1.1,0,0,1-.49.27ZM163,10.09a.62.62,0,0,1-.23,0c-.2-.07-.44-.22-.28-.76a3.86,3.86,0,0,1,.43-1.07,8.21,8.21,0,0,0,.56-1.11c.11-.22.23-.33.38-.33a.48.48,0,0,1,.25.09.55.55,0,0,1,.25.75l-.39.89a1.22,1.22,0,0,0-.21.65,1,1,0,0,1-.18.54A.73.73,0,0,1,163,10.09Zm-38.1,0-.17,0a.79.79,0,0,1-.5-.6,2.42,2.42,0,0,0-.32-.84,5.8,5.8,0,0,0-.45-.9,4.8,4.8,0,0,1-.44-.88,6.81,6.81,0,0,1-.45-.84,2.26,2.26,0,0,1-.24-.81c-.07-.31,0-.44.11-.51a.5.5,0,0,1,.44-.08.58.58,0,0,1,.52.47,2.41,2.41,0,0,0,.32.79l1.58,3.47a.46.46,0,0,1,0,.57A.44.44,0,0,1,124.91,10.07Zm34.65-1.38a.59.59,0,0,1-.38-.21.71.71,0,0,1,0-.63,8.9,8.9,0,0,0,.25-.86q.39-.87.75-1.77c.23-.61.44-1.21.64-1.81a.64.64,0,0,1,.46-.37h.08a.42.42,0,0,1,.36.2.84.84,0,0,1,0,.74c-.13.31-.24.56-.31.75a6.3,6.3,0,0,0-.55,1.72,4.51,4.51,0,0,1-.63,1.66,2.9,2.9,0,0,1-.48.52A.27.27,0,0,1,159.56,8.69Zm-31.31,0a.54.54,0,0,1-.54-.33,3.79,3.79,0,0,1-.44-1.12A8.67,8.67,0,0,0,126.92,6a.53.53,0,0,1,0-.41.4.4,0,0,1,.28-.19l.2,0a.43.43,0,0,1,.42.31,1.09,1.09,0,0,1,.24.58,2.08,2.08,0,0,0,.15.62,4.4,4.4,0,0,1,.35.65,1.5,1.5,0,0,1,.14.61C128.62,8.64,128.34,8.64,128.25,8.64Zm28-.93c-.14,0-.28-.1-.42-.31a2.11,2.11,0,0,1,.11-1.34c.19-.63.36-1.11.49-1.44a.67.67,0,0,1,.56-.48h0c.17,0,.34.06.4.45a1.06,1.06,0,0,1-.09,1,5.48,5.48,0,0,0-.4,1.18,1.57,1.57,0,0,0-.16.44.66.66,0,0,1-.21.39A.55.55,0,0,1,156.23,7.71Zm-24.56-.09a.52.52,0,0,1-.22-.06.57.57,0,0,1-.44-.51,7.32,7.32,0,0,0-.21-.82,7.51,7.51,0,0,0-.7-1.9,3.55,3.55,0,0,1-.39-1.94c0-.42.16-.6.51-.6h.16a.63.63,0,0,1,.36.49,2.36,2.36,0,0,0,.26.84c.12.57.27,1.19.43,1.82l.55,2a.43.43,0,0,1,0,.55A.32.32,0,0,1,131.67,7.62Zm3.61-.77a.66.66,0,0,1-.69-.52,7.46,7.46,0,0,1-.29-1.22c-.06-.43-.13-.82-.2-1.16,0-.61.28-.61.37-.61a.72.72,0,0,1,.7.48,4.11,4.11,0,0,1,.1,1.06,6.31,6.31,0,0,0,.26.68,1.56,1.56,0,0,1,.13.61.75.75,0,0,1-.08.58A.38.38,0,0,1,135.28,6.85Zm17.48-.11a.57.57,0,0,1-.36-.16.44.44,0,0,1-.16-.53c.06-.3.13-.54.19-.75l.13-.63c.09-.45.18-.89.28-1.31l.12-.6q.14-.66.27-1.35A.51.51,0,0,1,153.6,1l.2,0a.63.63,0,0,1,.35.11.66.66,0,0,1,.11.67c-.1.33-.18.6-.25.79a15,15,0,0,0-.26,2,3.89,3.89,0,0,1-.53,1.79C153.08,6.6,152.92,6.74,152.76,6.74Zm-3.48-.49c-.24,0-.42-.17-.53-.51a2,2,0,0,1,0-1.24c.13-.53.23-1,.3-1.3s.23-.48.36-.48l.14,0a.59.59,0,0,1,.47.64.74.74,0,0,1,0,.51c-.06.24-.13.45-.19.65a4.11,4.11,0,0,0,0,.7,1.29,1.29,0,0,1,0,.59A.57.57,0,0,1,149.28,6.25Zm-10.71-.06a.45.45,0,0,1-.16,0C138,6,138,5.82,138,5.69a1.58,1.58,0,0,0-.06-.76A12.27,12.27,0,0,0,137.63,3a5.52,5.52,0,0,1-.14-1.9,1.59,1.59,0,0,1,.14-.62.24.24,0,0,1,.23-.15.63.63,0,0,1,.27.07.46.46,0,0,1,.38.45c0,.3.05.58.05.84l.5,4a.3.3,0,0,1-.15.38A.61.61,0,0,1,138.57,6.19ZM145.64,6c-.17,0-.22-.07-.23-.18a.74.74,0,0,0-.24-.49c.06-.7.11-1.38.15-2a13.64,13.64,0,0,0-.06-2V.39c0-.08,0-.3.51-.39.23,0,.56.09.56.89s0,1.31-.05,1.93-.05,1.33-.05,2.06v.69c0,.13,0,.32-.41.38Zm-3.51-.07c-.13,0-.32,0-.46-.38a2.93,2.93,0,0,1-.14-1.25c0-.53,0-1,0-1.3,0-.5.21-.5.28-.5h.09a.8.8,0,0,1,.61.53.84.84,0,0,1,0,.49,4,4,0,0,0-.06.66,6.45,6.45,0,0,1,.2.68.92.92,0,0,1,0,.59.64.64,0,0,1-.55.47Z"/><path class="cls-1" d="M122.66,25.15a4,4,0,0,0-1.13-.55.47.47,0,0,1-.33-.44.67.67,0,0,1,.65-.64c.16,0,1.81.24,1.81,1a.69.69,0,0,1-.64.7A.63.63,0,0,1,122.66,25.15ZM121.27,30a.6.6,0,0,1,.13-.38,11.51,11.51,0,0,0,1.32-2.72.57.57,0,0,1,.57-.4.63.63,0,0,1,.65.6.6.6,0,0,1,0,.26c-1.11,3.26-1.57,3.27-1.91,3.27A.69.69,0,0,1,121.27,30Zm1.89-7.53a5,5,0,0,0-.92-.64.5.5,0,0,1-.25-.43.64.64,0,0,1,.65-.59c.23,0,1.67.49,1.67,1.18a.73.73,0,0,1-.7.69A.65.65,0,0,1,123.16,22.43Zm5.38,6a3.77,3.77,0,0,0,2.39,1.15.44.44,0,0,1,.43.46.71.71,0,0,1-.78.66,3.9,3.9,0,0,1-2.87-1.66,4.33,4.33,0,0,1-3.15,1.71.59.59,0,0,1-.62-.57c0-.24.17-.47.56-.52a2.89,2.89,0,0,0,2.33-1.23h-1.51a.5.5,0,0,1-.55-.49.52.52,0,0,1,.55-.51h1.76c0-.17,0-.34,0-.51h-.65a.49.49,0,0,1-.53-.4c-.86.9-1.2.91-1.3.91a.61.61,0,0,1-.62-.56.52.52,0,0,1,.29-.44,4.19,4.19,0,0,0,1.13-1h-.88a.49.49,0,1,1,0-1H126a4.78,4.78,0,0,0,.28-.61l-1,0h0a.45.45,0,1,1,0-.88h1.32c0-.17.08-.33.11-.49h-1.76a.49.49,0,0,1-.53-.48.48.48,0,0,1,.53-.47h1.91c0-.13,0-.26,0-.39s0-.18,0-.27c0-.49.5-.51.57-.51.33,0,.68.2.68.53,0,.14,0,.46-.05.64h2.6a.5.5,0,0,1,.56.47.51.51,0,0,1-.56.48H127.9c0,.16-.08.32-.13.49h2.38c.36,0,.52.22.52.44a.46.46,0,0,1-.51.44h0l-1,0a3.36,3.36,0,0,0,.34.61h1.69a.48.48,0,0,1,.5.49.47.47,0,0,1-.5.48h-.79a5.52,5.52,0,0,0,1,.69.52.52,0,0,1,.32.48.63.63,0,0,1-.62.63c-.68,0-1.9-1.44-2.17-1.81h-2.19c-.12.2-.25.38-.39.57h2.72a.48.48,0,1,1,0,1h-.78c0,.13,0,.27,0,.41v.1h2a.49.49,0,0,1,.53.5.5.5,0,0,1-.53.5Zm-1-4.59c-.08.21-.16.43-.26.63h1.13a6.79,6.79,0,0,1-.28-.63Z"/><path class="cls-1" d="M141,24.2a.54.54,0,0,1,.56-.42.67.67,0,0,1,.7.5,2.66,2.66,0,0,1,2.39,2.62c0,2.44-2.75,3.73-3.56,3.73-.43,0-.67-.26-.67-.55s.21-.59.68-.74c1.51-.5,2.2-1.51,2.2-2.39A1.65,1.65,0,0,0,142,25.36a7.23,7.23,0,0,1-2,2.81l.08.14a.69.69,0,0,1-.55,1.08A.66.66,0,0,1,139,29c-1.18.84-1.65.91-1.92.91-.56,0-1.09-.35-1.09-1.33a4.26,4.26,0,0,1,2.58-3.66c0-.41.07-.81.11-1.23h-.25c-1,0-1.57-.15-1.57-.74a.59.59,0,0,1,.59-.63.92.92,0,0,1,.25,0,2.9,2.9,0,0,0,.83.1h.3l.14-.93a.7.7,0,0,1,.69-.66.57.57,0,0,1,.6.57s-.09.59-.14.83a9.56,9.56,0,0,0,1.44-.41.53.53,0,0,1,.25-.05.62.62,0,0,1,.61.6c0,.25-.16.49-.57.63a15.31,15.31,0,0,1-1.94.5l-.11.86a4.48,4.48,0,0,1,1.11-.23Zm-2.48,2.21v-.22a3,3,0,0,0-1.34,2.07c0,.22.11.3.24.3a3.64,3.64,0,0,0,1.21-.67A8.42,8.42,0,0,1,138.51,26.41Zm1.16-.84c0,.24,0,.46,0,.68s0,.48,0,.7a5,5,0,0,0,1.07-1.67A4.38,4.38,0,0,0,139.67,25.57Z"/><path class="cls-1" d="M152.27,30.27a21.41,21.41,0,0,0-2.43-3.74,2.06,2.06,0,0,1-.57-1.3,2.16,2.16,0,0,1,.71-1.45,31,31,0,0,0,2.35-2.6.71.71,0,0,1,.57-.3.8.8,0,0,1,.79.75.67.67,0,0,1-.18.45c-.53.64-1.83,1.7-2.52,2.37a1.07,1.07,0,0,0-.38.7.92.92,0,0,0,.24.54,20.43,20.43,0,0,1,2.72,3.75.83.83,0,0,1,.07.34.87.87,0,0,1-.82.84A.6.6,0,0,1,152.27,30.27Z"/><path class="cls-1" d="M164.08,24.2a.54.54,0,0,1,.56-.42.66.66,0,0,1,.69.5,2.66,2.66,0,0,1,2.39,2.62c0,2.44-2.75,3.73-3.56,3.73a.58.58,0,0,1-.66-.55.84.84,0,0,1,.67-.74c1.51-.5,2.21-1.51,2.21-2.39a1.66,1.66,0,0,0-1.29-1.59,7.34,7.34,0,0,1-2,2.81l.08.14a.69.69,0,0,1,.11.38.7.7,0,0,1-.67.7.66.66,0,0,1-.57-.37c-1.17.84-1.65.91-1.91.91-.56,0-1.1-.35-1.1-1.33a4.29,4.29,0,0,1,2.58-3.66c0-.41.07-.81.12-1.23h-.26c-1,0-1.56-.15-1.56-.74a.59.59,0,0,1,.59-.63.79.79,0,0,1,.24,0,2.93,2.93,0,0,0,.84.1h.3l.14-.93a.7.7,0,0,1,.68-.66.57.57,0,0,1,.61.57s-.1.59-.14.83a9.56,9.56,0,0,0,1.44-.41.52.52,0,0,1,.24-.05.62.62,0,0,1,.62.6c0,.25-.17.49-.57.63a15.76,15.76,0,0,1-1.94.5l-.12.86A4.56,4.56,0,0,1,164,24.2Zm-2.49,2.21v-.22a3,3,0,0,0-1.33,2.07c0,.22.1.3.23.3a3.69,3.69,0,0,0,1.22-.67A8.37,8.37,0,0,1,161.59,26.41Zm1.17-.84c0,.24,0,.46,0,.68a5.18,5.18,0,0,0,0,.7,5,5,0,0,0,1.06-1.67A4.31,4.31,0,0,0,162.76,25.57Z"/><path class="cls-1" d="M86.83,46.45c0-.3.19-.6.68-.7a5,5,0,0,0,4-4.71c0-.53-.2-.53-1.66-.53-.79,0-1.66,0-2,0a.56.56,0,0,0-.54.65c0,.35,0,.94,0,1.27v.06a.7.7,0,0,1-.75.69.64.64,0,0,1-.68-.63c0-.23,0-.6,0-1s0-.9,0-1.09c0-.61.34-1.18,1.73-1.21.85,0,1.9,0,3.06,0,1.56,0,2.31.08,2.31,1.51,0,.11,0,.24,0,.38a6.71,6.71,0,0,1-5.36,6A.74.74,0,0,1,86.83,46.45Z"/><path class="cls-1" d="M99.43,41.82a4.24,4.24,0,0,0-1.61-.89.57.57,0,0,1-.43-.56.72.72,0,0,1,.74-.71,5.81,5.81,0,0,1,2.25,1,.72.72,0,0,1,.31.59.82.82,0,0,1-.75.82A.7.7,0,0,1,99.43,41.82Zm-.87,4.87a.76.76,0,0,1-.76-.77.75.75,0,0,1,.65-.73c2.31-.5,4.53-2.74,5.69-5a.68.68,0,0,1,.63-.4.7.7,0,0,1,.72.69,1,1,0,0,1-.14.47C102.75,45.68,99,46.69,98.56,46.69Z"/><path class="cls-1" d="M115.54,45.29a.77.77,0,0,1-.74.78.7.7,0,0,1-.58-.35,8.52,8.52,0,0,0-2.63-2.22.5.5,0,0,1-.32-.47.69.69,0,0,1,.71-.66c.18,0,.51.05,1.75.88.47-.28,2.35-1.6,2.35-1.93,0-.06,0-.1-.19-.1h-.49c-1.49,0-3.82,0-5.42.1h0a.69.69,0,0,1-.76-.68A.72.72,0,0,1,110,40c1.36,0,3.27-.05,5-.05h1.56c.79,0,1.5.51,1.5,1.12a1,1,0,0,1-.28.68,15.07,15.07,0,0,1-2.88,2.39C115.51,44.76,115.54,45.15,115.54,45.29Z"/><path class="cls-1" d="M124.25,41.82a4.2,4.2,0,0,0-1.6-.89.57.57,0,0,1-.43-.56.72.72,0,0,1,.73-.71,5.81,5.81,0,0,1,2.25,1,.7.7,0,0,1,.32.59.82.82,0,0,1-.76.82A.72.72,0,0,1,124.25,41.82Zm-.87,4.87a.76.76,0,0,1-.75-.77.74.74,0,0,1,.65-.73c2.31-.5,4.52-2.74,5.69-5a.68.68,0,0,1,.62-.4.7.7,0,0,1,.72.69.93.93,0,0,1-.14.47C127.57,45.68,123.8,46.69,123.38,46.69Z"/><path class="cls-1" d="M136.32,47a1,1,0,0,1-.33,0,.71.71,0,0,1-.76-.67.67.67,0,0,1,.58-.64c3.3-.9,4.2-3.21,4.2-3.57,0-.19-.07-.23-1.28-.23s-2.61,0-3.57.07h0a.67.67,0,0,1-.73-.64c0-.3.23-.6.72-.61,1.13,0,2.5,0,3.77,0h1.23c.92,0,1.51.4,1.51,1.12a2.2,2.2,0,0,1-.17.76A7.25,7.25,0,0,1,136.32,47ZM140,38.53a.66.66,0,0,1,.72.63c0,.3-.26.62-.79.62h-3.88a.65.65,0,0,1-.67-.63c0-.31.24-.62.75-.62h0l1.91,0,1.94,0Z"/><path class="cls-1" d="M150.55,46.49c0-.87.06-2.58.07-3.9a16.89,16.89,0,0,1-2.89,2.2,1.38,1.38,0,0,1-.68.22.71.71,0,0,1-.76-.68.66.66,0,0,1,.41-.58,15.19,15.19,0,0,0,5.58-5.16.78.78,0,0,1,.64-.39.69.69,0,0,1,.7.66c0,.19,0,.38-1.65,2.31,0,.77,0,2.29,0,3.58,0,.68,0,1.3,0,1.7v0a.75.75,0,0,1-.74.79.69.69,0,0,1-.66-.77Z"/><path class="cls-1" d="M159,47a.73.73,0,0,1-.75-.71.68.68,0,0,1,.53-.65,6.86,6.86,0,0,0,4.5-4.69c0-.35-.19-.36-1.07-.36-1.08,0-2.45.06-3.8.1h0a.64.64,0,0,1-.66-.67.63.63,0,0,1,.66-.64c1.06,0,2.43-.07,3.65-.07h1.49a1.35,1.35,0,0,1,1.45,1.28,1.59,1.59,0,0,1-.1.5,8.87,8.87,0,0,1-5.46,5.82A1.23,1.23,0,0,1,159,47Zm6-7.54a3.92,3.92,0,0,0-.89-.65.44.44,0,0,1-.33-.39.56.56,0,0,1,.57-.5c.21,0,1.5.51,1.5,1.1a.6.6,0,0,1-.53.59A.42.42,0,0,1,165,39.45Zm1.11-1.09a4.1,4.1,0,0,0-.91-.6c-.23-.1-.34-.25-.34-.4a.57.57,0,0,1,.57-.51c.21,0,1.5.46,1.5,1.07a.58.58,0,0,1-.51.59A.39.39,0,0,1,166.07,38.36Z"/><path class="cls-1" d="M173,46.82a.68.68,0,0,1-.65-.74,1.34,1.34,0,0,1,.36-.85c.78-.87,2.13-2.31,3.14-3.55a2.31,2.31,0,0,0,.62-1.4,1.06,1.06,0,0,0-1.08-1.06,1.69,1.69,0,0,0-1.35.77.9.9,0,0,1-.7.38.76.76,0,0,1-.78-.72,2.75,2.75,0,0,1,2.77-1.8,2.51,2.51,0,0,1,2.75,2.28,3.85,3.85,0,0,1-1,2.35c-.82,1.05-1.94,1.93-2.8,2.93a0,0,0,0,0,0,0s0,0,.06,0l.13,0c.86,0,1.9-.1,2.77-.1a.71.71,0,0,1,.78.71.78.78,0,0,1-.83.76Z"/><path class="cls-1" d="M181,43.9c0-.54-.08-1-.08-1.56s0-.84.06-1.29c.16-2,1.3-3.19,2.94-3.19s2.74,1.09,2.92,3.07c.05.51.08,1,.08,1.51,0,1.15,0,4.52-3,4.52C182.32,47,181.2,45.87,181,43.9Zm4.4-1.56c0-1.35-.08-3.1-1.48-3.1s-1.49,1.79-1.49,3.22c0,1,0,3.11,1.49,3.11S185.41,43.41,185.41,42.34Z"/><path class="cls-1" d="M189.68,46.82a.68.68,0,0,1-.65-.74,1.29,1.29,0,0,1,.36-.85c.78-.87,2.12-2.31,3.13-3.55a2.33,2.33,0,0,0,.63-1.4,1.06,1.06,0,0,0-1.08-1.06,1.71,1.71,0,0,0-1.36.77.88.88,0,0,1-.7.38.75.75,0,0,1-.77-.72,2.74,2.74,0,0,1,2.76-1.8,2.51,2.51,0,0,1,2.75,2.28,3.85,3.85,0,0,1-1,2.35c-.82,1.05-1.93,1.93-2.79,2.93a0,0,0,0,0,0,0s0,0,0,0l.13,0c.86,0,1.9-.1,2.77-.1a.71.71,0,0,1,.78.71.77.77,0,0,1-.82.76Z"/><path class="cls-1" d="M198.11,46.82a.68.68,0,0,1-.65-.74,1.34,1.34,0,0,1,.36-.85c.78-.87,2.13-2.31,3.14-3.55a2.31,2.31,0,0,0,.62-1.4,1.06,1.06,0,0,0-1.08-1.06,1.72,1.72,0,0,0-1.36.77.86.86,0,0,1-.69.38.76.76,0,0,1-.78-.72,2.74,2.74,0,0,1,2.76-1.8,2.51,2.51,0,0,1,2.75,2.28,3.82,3.82,0,0,1-1,2.35c-.83,1.05-1.94,1.93-2.8,2.93a0,0,0,0,0,0,0s0,0,.06,0l.12,0c.86,0,1.91-.1,2.78-.1a.71.71,0,0,1,.78.71.78.78,0,0,1-.83.76Z"/><path class="cls-1" d="M285.26,90.35a2.42,2.42,0,0,0-2-.83,2,2,0,0,0-1.06.34,1.86,1.86,0,0,0-.64.91,1.49,1.49,0,0,0,.06,1.08,1.35,1.35,0,0,0,.79.68h0a.19.19,0,0,0,.23-.11.18.18,0,0,0-.1-.24.91.91,0,0,1-.51-1.23,1.24,1.24,0,0,1,1.22-.78,1.72,1.72,0,0,1,1.4.63,2.08,2.08,0,0,1,.36,1.55,2.31,2.31,0,0,1-.62,1.47,2.85,2.85,0,0,1-1.47.7,3.7,3.7,0,0,1-3.14-.85,17,17,0,0,1-2.48-2.46,22.09,22.09,0,0,0-2.4-2.64,12.35,12.35,0,0,0-6.45-3,10.7,10.7,0,0,0-3.61.13,5.44,5.44,0,0,0-1.56.65l-.23-.2a6.57,6.57,0,0,1-1.4-1.33,6.85,6.85,0,0,1-1.37-3.55,5.13,5.13,0,0,1,.19-1.88,3.46,3.46,0,0,1,1-1.53,3.09,3.09,0,0,1,3.48-.35,3.19,3.19,0,0,1,1.76,3,2.16,2.16,0,0,1-.84,1.54,1.74,1.74,0,0,1-1.69.19,1.23,1.23,0,0,1-.75-1.39.81.81,0,0,1,.47-.61,1.21,1.21,0,0,1,.83.07h0a.18.18,0,0,0,.24-.1.18.18,0,0,0-.11-.24,1.56,1.56,0,0,0-1.09-.08,1.19,1.19,0,0,0-.7.88,1.64,1.64,0,0,0,.95,1.83,2.13,2.13,0,0,0,2.1-.2,2.58,2.58,0,0,0,1.07-1.85c.38-3-3.56-5.4-6.28-3.4a3.91,3.91,0,0,0-1.39,1.9,5.14,5.14,0,0,0-.18,2.26,7.28,7.28,0,0,0,1.83,3.81,8.81,8.81,0,0,0,1.56,1.34l.14.11a4.75,4.75,0,0,0-1.14,1.14,6,6,0,0,0-.85,2,10.38,10.38,0,0,0-5.63-5,7.24,7.24,0,0,0-4.71-.13A5.9,5.9,0,0,0,247,87.83a4.69,4.69,0,0,0,.66,4.89,4.24,4.24,0,0,0,2.19,1.41,4.17,4.17,0,0,0,2.57-.19,3.47,3.47,0,0,0,1.94-1.73,3.37,3.37,0,0,0,.15-2.59,2.19,2.19,0,0,0-3.38-1,1.65,1.65,0,0,0-.58,1.15v0a.18.18,0,0,0,.16.18.18.18,0,0,0,.21-.15,1.38,1.38,0,0,1,1.43-1.09,1.55,1.55,0,0,1,1.51,1.09,2.65,2.65,0,0,1-1.72,3.33,3.52,3.52,0,0,1-2.08.12,3.35,3.35,0,0,1-1.73-1.13,3.89,3.89,0,0,1-.54-4,5.08,5.08,0,0,1,3.09-2.79,6.45,6.45,0,0,1,4.25,0,10.41,10.41,0,0,1,3.69,2.29,8.62,8.62,0,0,1,2.05,2.79,4.81,4.81,0,0,0,1.87,4.35A5.32,5.32,0,0,0,266.46,96a4.28,4.28,0,0,0,3.28-2.18,3.06,3.06,0,0,0,.23-2,2.26,2.26,0,0,0-1.11-1.61,2.67,2.67,0,0,0-3.09.56,5,5,0,0,0-.22-1.45,5.11,5.11,0,0,0-1-1.76,10,10,0,0,0-.79-.8,4.81,4.81,0,0,1,1.26-.58,7.93,7.93,0,0,1,3.43-.21,11.81,11.81,0,0,1,7.31,4.27l1.08,1.42a17.4,17.4,0,0,0,2.47,2.71,4.91,4.91,0,0,0,1.75,1,4,4,0,0,0,2.09.08,3.64,3.64,0,0,0,1.91-1,3.14,3.14,0,0,0,.83-2A2.77,2.77,0,0,0,285.26,90.35Zm-21-2.53a4.76,4.76,0,0,1,1,1.6,4.46,4.46,0,0,1,.17,1.89.17.17,0,0,0,.07.16.18.18,0,0,0,.25,0h0l0,0a2.26,2.26,0,0,1,2.85-.7,2.09,2.09,0,0,1,.49,2.76,3.46,3.46,0,0,1-2.72,1.49,4.91,4.91,0,0,1-3.08-.88,4,4,0,0,1-1.67-2.71,5,5,0,0,1,.71-3.2,4.28,4.28,0,0,1,1-1.13A8.38,8.38,0,0,1,264.22,87.82Z"/><path class="cls-1" d="M42.09,88a5.5,5.5,0,0,0-3.32-3,6.91,6.91,0,0,0-4.49,0,10.91,10.91,0,0,0-3.82,2.37,9.28,9.28,0,0,0-2,2.67,5.77,5.77,0,0,0-.83-2.26,4.6,4.6,0,0,0-1.19-1.22l.21-.19a6.91,6.91,0,0,0,2.92-5.1,5.59,5.59,0,0,0-.19-2,3.82,3.82,0,0,0-1.15-1.7,3.47,3.47,0,0,0-3.91-.42,3.56,3.56,0,0,0-2,3.43,2.51,2.51,0,0,0,1,1.82,2.11,2.11,0,0,0,2.07.23,1.6,1.6,0,0,0,1-1.82,1.2,1.2,0,0,0-.7-.88,1.59,1.59,0,0,0-1.1.08h0a.18.18,0,0,0-.1.24.18.18,0,0,0,.24.1,1.21,1.21,0,0,1,.83-.07.82.82,0,0,1,.47.61,1.2,1.2,0,0,1-.76,1.38,1.68,1.68,0,0,1-1.65-.22,2.1,2.1,0,0,1-.78-1.51,3,3,0,0,1,1.74-2.88,2.63,2.63,0,0,1,3.09.57,4,4,0,0,1,1,3,6.79,6.79,0,0,1-1,3.46,5.6,5.6,0,0,1-1.29,1.38c-.11.09-.21.19-.31.29a5.57,5.57,0,0,0-1.42-.62,10.22,10.22,0,0,0-3.61-.2,12.1,12.1,0,0,0-6.52,2.92c-.93.81-1.68,1.76-2.5,2.58a16.48,16.48,0,0,1-2.56,2.28,3.51,3.51,0,0,1-2.79.7,1.84,1.84,0,0,1-1.76-1.72A1.89,1.89,0,0,1,5.11,91a1.39,1.39,0,0,1,1.11-.59A1.08,1.08,0,0,1,7.31,91a.84.84,0,0,1-.37,1.18h0a.18.18,0,0,0-.08.23.18.18,0,0,0,.24.1,1.31,1.31,0,0,0,.71-.7,1.36,1.36,0,0,0,0-1,1.73,1.73,0,0,0-.62-.77,1.83,1.83,0,0,0-.95-.25,2.09,2.09,0,0,0-1.71.77,2.56,2.56,0,0,0-.46,1.82,2.66,2.66,0,0,0,.74,1.72,3.16,3.16,0,0,0,1.67.83A4.22,4.22,0,0,0,10,94c1.94-1.47,3.24-3.55,4.9-5.15a11.28,11.28,0,0,1,6.21-2.95,7.09,7.09,0,0,1,4.57.82,10.27,10.27,0,0,0-.71.77,5.06,5.06,0,0,0-1.2,3.24,2.69,2.69,0,0,0-3.09-.55,2.56,2.56,0,0,0-.76,3.52,4.09,4.09,0,0,0,3.18,2,5.14,5.14,0,0,0,3.59-1,4.72,4.72,0,0,0,1.85-3.23c0-.14,0-.29,0-.43a8.19,8.19,0,0,1,2.35-3.15,10.31,10.31,0,0,1,3.65-2.14c2.59-.93,5.88.19,6.8,2.66a3.5,3.5,0,0,1-.48,3.5,2.91,2.91,0,0,1-3.27.91,2.19,2.19,0,0,1-1.37-1.07A2.28,2.28,0,0,1,36,90a1.32,1.32,0,0,1,1.21-1,1.39,1.39,0,0,1,1.44.9v0a.18.18,0,0,0,.2.13.17.17,0,0,0,.15-.2,1.77,1.77,0,0,0-1.8-1.41,1.92,1.92,0,0,0-1.85,1.34,3,3,0,0,0,1.94,3.79,3.84,3.84,0,0,0,2.3.14,3.73,3.73,0,0,0,1.92-1.26A4.25,4.25,0,0,0,42.09,88Zm-14.4,3.29a3.77,3.77,0,0,1-1.63,2.53,4.76,4.76,0,0,1-2.91.78,3.36,3.36,0,0,1-2.62-1.26,1.88,1.88,0,0,1,.37-2.69,2.26,2.26,0,0,1,2.85.7l0,0v0a.19.19,0,0,0,.17.07.19.19,0,0,0,.16-.2,4.43,4.43,0,0,1,1.11-3.53A9.78,9.78,0,0,1,26,87a4.11,4.11,0,0,1,1.06,1.21A4.92,4.92,0,0,1,27.69,91.31Z"/><path class="cls-2" d="M240,66.12a4.06,4.06,0,0,0,2.91,4.59c2.19.68,4.52.07,5-2.12-2.11-.32-4.49-3.06-4-4.87C241.52,63.38,240.25,64.44,240,66.12Zm7.37,1.2a1.8,1.8,0,0,0,.38-2.52,1.88,1.88,0,0,0-2.93-.25A3.77,3.77,0,0,0,247.34,67.32Zm-1.26,4.39a3.56,3.56,0,0,0,5.54-.62c1.81-2.73,1.41-8.45-3.83-8.56C250.19,63.93,250.25,70.57,246.08,71.71Zm-4.76-.31c-2.89-2.29-3.11-5.34-1.84-7.2,1.61-2.35,4.45-2.44,6.84-1.51-.86-2.22-3.55-3.08-6.32-2.59a5.9,5.9,0,0,0-4.7,6.45C235.51,69.66,238,71.53,241.32,71.4Zm.86,3.75a4.3,4.3,0,0,0,5.55-2,13.66,13.66,0,0,1-7.92-1.28C239.82,73.36,240.46,74.36,242.18,75.15Zm-7.73-8.9c-1.35.07-3,1.72-3.17,3.94a4.09,4.09,0,0,0,1.65,3.87,3.39,3.39,0,0,0,3.43.34A7.19,7.19,0,0,1,234.45,66.25Zm12.6,9.62a8.66,8.66,0,0,1-10.19-4.31c-.47,2.23.85,4.47,2.64,6,3.7,3.26,9.39,2.65,11.82,0a7.55,7.55,0,0,0,1.73-8.31A9.15,9.15,0,0,1,247.05,75.87Zm7.9-5.49a3.06,3.06,0,0,0,1.46,2.11,2.83,2.83,0,0,0,2.93,0C258.65,70.85,256.43,69.65,255,70.38Zm2.14-.61A3.35,3.35,0,0,0,256,66.22a4.35,4.35,0,0,0-.78,3.5A3.21,3.21,0,0,1,257.09,69.77Zm3.76-1.45a3.85,3.85,0,0,0-2.9-.09,4.71,4.71,0,0,1-.24,1.81,5.07,5.07,0,0,1,2.12,2,2,2,0,0,0,2.22-1.59A1.91,1.91,0,0,0,260.85,68.32Zm.22-.61a1.8,1.8,0,0,0-.36-1.85,2.25,2.25,0,0,0-2.65-.73,1.8,1.8,0,0,0-.95,1.37c.2.25.47.65.72,1A4.74,4.74,0,0,1,261.07,67.71Z"/><path class="cls-3" d="M231.58,79a4,4,0,0,0,4.74-3.51A3.89,3.89,0,0,0,231.58,79Zm5.69,1.31a2.79,2.79,0,0,0-.06-4.17A2.76,2.76,0,0,0,237.27,80.29Zm19.94-19.23a2.76,2.76,0,0,0-2.28,3.44A2.73,2.73,0,0,0,257.21,61.06Zm-4.06.49a2,2,0,0,0,1,2.73A1.93,1.93,0,0,0,253.15,61.55Z"/><path class="cls-4" d="M41.6,68.59c.49,2.19,2.82,2.8,5,2.12a4.07,4.07,0,0,0,2.92-4.59c-.28-1.68-1.56-2.74-3.89-2.4C46.1,65.53,43.71,68.27,41.6,68.59Zm.56-1.27a3.76,3.76,0,0,0,2.54-2.77,1.87,1.87,0,0,0-2.92.25C41.14,66,41.54,67,42.16,67.32Zm1.26,4.39c-4.18-1.14-4.11-7.78-1.71-9.18-5.25.11-5.65,5.83-3.83,8.56A3.56,3.56,0,0,0,43.42,71.71ZM50,64.2c1.27,1.86,1.06,4.91-1.83,7.2,3.29.13,5.81-1.74,6-4.85a5.92,5.92,0,0,0-4.7-6.45c-2.77-.49-5.46.37-6.33,2.59C45.56,61.76,48.4,61.85,50,64.2Zm-2.69,11c1.71-.79,2.36-1.79,2.37-3.31a13.69,13.69,0,0,1-7.92,1.28A4.3,4.3,0,0,0,47.32,75.15Zm10.9-5C58,68,56.4,66.32,55,66.25a7.2,7.2,0,0,1-1.9,8.15,3.37,3.37,0,0,0,3.42-.34A4.1,4.1,0,0,0,58.22,70.19ZM42.44,75.87a9.12,9.12,0,0,1-6-6.57,7.54,7.54,0,0,0,1.73,8.31c2.43,2.63,8.11,3.24,11.82,0,1.78-1.56,3.11-3.8,2.63-6A8.66,8.66,0,0,1,42.44,75.87ZM30.16,72.49a2.81,2.81,0,0,0,2.92,0,3.08,3.08,0,0,0,1.47-2.11C33.07,69.65,30.85,70.85,30.16,72.49Zm2.25-2.72a3.21,3.21,0,0,1,1.84,0,4.36,4.36,0,0,0-.79-3.5A3.34,3.34,0,0,0,32.41,69.77Zm-.63.27a4.92,4.92,0,0,1-.24-1.81,3.83,3.83,0,0,0-2.89.09,1.91,1.91,0,0,0-1.2,2.12A2,2,0,0,0,29.67,72,5.11,5.11,0,0,1,31.78,70Zm-.11-2.55c.24-.34.52-.74.72-1a1.79,1.79,0,0,0-1-1.37,2.24,2.24,0,0,0-2.64.73,1.78,1.78,0,0,0-.36,1.85A4.74,4.74,0,0,1,31.67,67.49Z"/><path class="cls-3" d="M53.18,75.47A4,4,0,0,0,57.92,79,3.9,3.9,0,0,0,53.18,75.47Zm-1,4.82a2.76,2.76,0,0,0,.06-4.17A2.79,2.79,0,0,0,52.23,80.29ZM32.28,61.06a2.74,2.74,0,0,0,2.29,3.44A2.77,2.77,0,0,0,32.28,61.06Zm3,3.22a2,2,0,0,0,1-2.73A1.93,1.93,0,0,0,35.31,64.28Z"/><path class="cls-1" d="M265.34,157.11a9.32,9.32,0,0,0-1.64-4.21,8.19,8.19,0,0,0-7.9-3.54,11.63,11.63,0,0,0-7.68,3.94,9.54,9.54,0,0,0-2,4,12,12,0,0,0,0,4.42,12.46,12.46,0,0,0,1.56,4.14l0,0a10.4,10.4,0,0,0-4.93,0,6,6,0,0,0-4.5,4.4,4,4,0,0,0,.71,3.23,13.49,13.49,0,0,1-3.6-1.34,10.58,10.58,0,0,0-1-3A10,10,0,0,0,233,167a6.45,6.45,0,0,0-1-.91,2.39,2.39,0,0,0-1.36-.51,1.16,1.16,0,0,0-.77.36,1.85,1.85,0,0,0-.37.67,2.08,2.08,0,0,0,.12,1.42,5.66,5.66,0,0,0,1.64,2.06,23.22,23.22,0,0,0,3.36,2.4,5.64,5.64,0,0,1-.09,1.69,2.38,2.38,0,0,1-1.31,1.76,3.74,3.74,0,0,1-2.29.24,2.41,2.41,0,0,1-1.74-1.3,2,2,0,0,1,.42-2.05,1.23,1.23,0,0,1,1.82-.14,1.16,1.16,0,0,1,.25.93.55.55,0,0,1-.62.47.27.27,0,0,0-.29.25.26.26,0,0,0,.24.3h0a1.14,1.14,0,0,0,.79-.2,1.19,1.19,0,0,0,.45-.7,1.69,1.69,0,0,0-1.8-2.07,2.17,2.17,0,0,0-1.37.68,2.7,2.7,0,0,0-.57,2.81,3.11,3.11,0,0,0,2.25,1.76,4.41,4.41,0,0,0,2.79-.27,2.91,2.91,0,0,0,1.18-.95,3.6,3.6,0,0,0,.56-1.35,6.22,6.22,0,0,0,.1-1.42,14.05,14.05,0,0,0,4.94,1.55h.09a3.72,3.72,0,0,0,1.66,0,2.39,2.39,0,0,0,1.44-1,2.12,2.12,0,0,0,.27-1.71,1.64,1.64,0,0,0-1.24-1.24,1.44,1.44,0,0,0-.91.1,1,1,0,0,0-.58.79v0h0a.29.29,0,0,0,.26.3.28.28,0,0,0,.29-.26c0-.33.44-.5.84-.41a1,1,0,0,1,.77.82,1.57,1.57,0,0,1-.2,1.22,1.77,1.77,0,0,1-1.07.68,3,3,0,0,1-1.37,0h0a.44.44,0,0,0-.15-.05h0a1.83,1.83,0,0,1-.89-.65,3.25,3.25,0,0,1-.53-2.63,4.79,4.79,0,0,1,1.44-2.39,6.13,6.13,0,0,1,2.53-1.31,10.31,10.31,0,0,1,5.65.44,8.29,8.29,0,0,0,1.88,1.65l-.37.34a10.06,10.06,0,0,0-2.55,5.56.06.06,0,0,0,0,0,.61.61,0,0,0,.56.65.6.6,0,0,0,.65-.56h0a8.52,8.52,0,0,1,2-5.1,5.64,5.64,0,0,1,5-1.94,3.15,3.15,0,0,1,2.35,1.3,3,3,0,0,1,.31,2.62,1.89,1.89,0,0,1-2,1.26c-.42-.07-.7-.36-.62-.67a.49.49,0,0,1,.31-.38.4.4,0,0,1,.43.08l0,0a.22.22,0,0,0,.27.06.2.2,0,0,0,.08-.27.94.94,0,0,0-1.71.29,1.07,1.07,0,0,0,.22,1.07,1.59,1.59,0,0,0,.88.47,2.5,2.5,0,0,0,1.75-.31,2.68,2.68,0,0,0,1.11-1.38,3.32,3.32,0,0,0-.52-3.23,4.49,4.49,0,0,0-2.77-1.51,6.54,6.54,0,0,0-3.07.24,5.82,5.82,0,0,0-1.21.57.52.52,0,0,0-.11-.1h0a9.34,9.34,0,0,1-4.36-6.42,10.87,10.87,0,0,1-.06-4.06,8.79,8.79,0,0,1,1.69-3.67,10,10,0,0,1,3.17-2.58,11.3,11.3,0,0,1,4-1.1,7.65,7.65,0,0,1,4,.64,7.73,7.73,0,0,1,3.06,2.67A9,9,0,0,1,264,161.3a5.24,5.24,0,0,1-2.66,2.91,7,7,0,0,1-4,.49,5.15,5.15,0,0,1-3.42-2,4,4,0,0,1-.56-3.78,3.44,3.44,0,0,1,3-2.25c1.28-.09,2.74.79,2.71,2.08a.28.28,0,0,0,.25.29.27.27,0,0,0,.29-.26v0a2.54,2.54,0,0,0-1.05-2.09,3.6,3.6,0,0,0-2.24-.68,4.16,4.16,0,0,0-3.66,2.65,4.73,4.73,0,0,0,.62,4.54,6,6,0,0,0,4,2.32,7.72,7.72,0,0,0,4.51-.53,6.14,6.14,0,0,0,3.15-3.38A9.19,9.19,0,0,0,265.34,157.11Zm-33.66,12.5a5.28,5.28,0,0,1-1.51-1.83,1.54,1.54,0,0,1-.11-1.07c.11-.35.34-.65.65-.64a3.07,3.07,0,0,1,1.86,1.27,9.73,9.73,0,0,1,1.27,2.08,10.58,10.58,0,0,1,.74,2.27A22.86,22.86,0,0,1,231.68,169.61Z"/><path class="cls-1" d="M60.21,172.42a1.94,1.94,0,0,0-1.25-.65,1.61,1.61,0,0,0-1.35.51,1.66,1.66,0,0,0-.38,1.4,1.13,1.13,0,0,0,.41.69,1.15,1.15,0,0,0,.77.22.28.28,0,0,0,0-.55h0a.52.52,0,0,1-.57-.48,1,1,0,0,1,.28-.85,1.11,1.11,0,0,1,1.61.19,1.76,1.76,0,0,1,.34,1.85,2.12,2.12,0,0,1-1.59,1.13,3.35,3.35,0,0,1-2.1-.26,2.18,2.18,0,0,1-1.14-1.56,5.54,5.54,0,0,1-.09-1.91,21.88,21.88,0,0,0,3-2.19,5.63,5.63,0,0,0,1.63-2,2.06,2.06,0,0,0,.11-1.37,1.21,1.21,0,0,0-1.06-.94,3.37,3.37,0,0,0-2.2,1.41,9.84,9.84,0,0,0-1.34,2.18,10.41,10.41,0,0,0-.83,2.64l-.75.4a11.66,11.66,0,0,1-3.29,1.08,3.75,3.75,0,0,0,.61-3,5.77,5.77,0,0,0-4.37-4.12,10.25,10.25,0,0,0-5.16.21,12.06,12.06,0,0,0,1.93-4.71,11.9,11.9,0,0,0-.08-4.41,9.68,9.68,0,0,0-2-3.95,11.29,11.29,0,0,0-7.66-3.79,7.91,7.91,0,0,0-7.59,3.56,9.62,9.62,0,0,0-1.15,8.4,5.86,5.86,0,0,0,2.95,3.22,7.59,7.59,0,0,0,4.33.53A5.73,5.73,0,0,0,36,163.06a4.54,4.54,0,0,0,.63-4.3,4,4,0,0,0-3.46-2.6,3.52,3.52,0,0,0-2.19.62,2.44,2.44,0,0,0-1.09,2,.27.27,0,0,0,.27.27.28.28,0,0,0,.28-.27h0c0-1.28,1.48-2,2.7-1.95a3.26,3.26,0,0,1,2.77,2.2,3.81,3.81,0,0,1-.57,3.54,4.86,4.86,0,0,1-3.25,1.83,6.78,6.78,0,0,1-3.82-.49,4.91,4.91,0,0,1-2.47-2.75,9,9,0,0,1,1.06-7.55,7.08,7.08,0,0,1,6.75-3.34,10.62,10.62,0,0,1,4,1,9.92,9.92,0,0,1,3.17,2.54,8.74,8.74,0,0,1,1.72,3.64,11,11,0,0,1,0,4,9.14,9.14,0,0,1-4.39,6.42h0l0,0a.55.55,0,0,0-.14.12,6.6,6.6,0,0,0-1.18-.54,6.5,6.5,0,0,0-3-.2A3.9,3.9,0,0,0,31,168.87a3.39,3.39,0,0,0-.42,3,2.38,2.38,0,0,0,2.56,1.6,1.29,1.29,0,0,0,.79-.39.88.88,0,0,0,.22-.92c-.13-.62-1.13-1-1.51-.3a.2.2,0,0,0,0,.24.19.19,0,0,0,.28,0l0-.06a.41.41,0,0,1,.33,0,.36.36,0,0,1,.21.3c0,.23-.16.4-.53.45a1.7,1.7,0,0,1-1.72-1.17,3.2,3.2,0,0,1,.21-2.4,2.73,2.73,0,0,1,2.18-1.31,5.57,5.57,0,0,1,4.94,1.86,8,8,0,0,1,1.93,5.07.07.07,0,0,0,0,0,.61.61,0,0,0,.68.53.62.62,0,0,0,.52-.69h0a9.49,9.49,0,0,0-2.53-5.53c-.11-.12-.24-.22-.37-.34a8.33,8.33,0,0,0,1.57-1.24.53.53,0,0,0,.41,0,10,10,0,0,1,5.52-.57,5.62,5.62,0,0,1,2.41,1.18,4.47,4.47,0,0,1,1.41,2.23A3,3,0,0,1,49.8,173a1.85,1.85,0,0,1-.66.56H49a.39.39,0,0,0-.22.11,2.79,2.79,0,0,1-1.28.06,1.47,1.47,0,0,1-1.25-1.78,1,1,0,0,1,.73-.81c.39-.09.8.06.84.39h0a.26.26,0,0,0,.3.24.28.28,0,0,0,.24-.31v0a1,1,0,0,0-.59-.78,1.41,1.41,0,0,0-.9-.09,1.59,1.59,0,0,0-1.2,1.23,2.08,2.08,0,0,0,.29,1.66,2.3,2.3,0,0,0,1.4.9,3.5,3.5,0,0,0,1.61,0l.16,0a13.33,13.33,0,0,0,5.2-1.65,6,6,0,0,0,.1,1.64,2.85,2.85,0,0,0,1.57,2.1,4.16,4.16,0,0,0,2.6.29,2.87,2.87,0,0,0,2.11-1.6A2.47,2.47,0,0,0,60.21,172.42Zm-4.35-2.91a9.21,9.21,0,0,1,1.19-2.07,3,3,0,0,1,1.73-1.26c.25,0,.47.21.57.55a1.5,1.5,0,0,1-.11,1,5,5,0,0,1-1.48,1.79,25.91,25.91,0,0,1-2.51,1.83A10,10,0,0,1,55.86,169.51Z"/><path class="cls-3" d="M262.63,145.6a6.55,6.55,0,0,0,9.28-3.47C268.62,140.34,264.52,141.6,262.63,145.6Zm-3.71.71a4.64,4.64,0,0,0,3-6.35C259.35,140.68,257.9,143.34,258.92,146.31Zm-3.13-3a2.69,2.69,0,0,0,.66,4A2.67,2.67,0,0,0,255.79,143.35Z"/><path class="cls-3" d="M17.58,142.13a6.56,6.56,0,0,0,9.29,3.47C25,141.6,20.88,140.34,17.58,142.13Zm10-2.17a4.65,4.65,0,0,0,3,6.35C31.6,143.34,30.15,140.68,27.59,140Zm6.12,3.39a2.66,2.66,0,0,0-.67,4A2.69,2.69,0,0,0,33.71,143.35Z"/><path class="cls-5" d="M96,81.06a11.64,11.64,0,0,0-2.87-6.85A11.11,11.11,0,0,0,87.86,71c0-.2.06-.39.09-.55a7.28,7.28,0,0,1,1-2.63,2,2,0,0,0-3.22-.27,2.09,2.09,0,0,0-3.19.2,3.88,3.88,0,0,1,.67,2c0,.1,0,.22,0,.33a24,24,0,0,0-4.62-.11v-5H91.81c3.36,0,4.37-3.08,2.75-4.73a2.7,2.7,0,0,0-2.74-.62c-1.81.61-1.47,2.42-.7,2.62a.64.64,0,0,1,.42-.92.82.82,0,0,1,1,.5c.27.66,0,1.45-1.2,1.45H78.62v-3a1.77,1.77,0,0,1,1-1.79c-1.71-1.36-5-1.47-6.67.19.89.08,1.22.89,1.22,1.72v2.84H69.54c-2.76,0-4.47,1.45-4.86,3.3a2.77,2.77,0,0,0,2.5,3.36c1.9.15,3.33-1.23,2.58-2.84a1.81,1.81,0,0,0-2.49-.65c.19-1,1.13-1.47,2.53-1.47h4.36V70.7a19.14,19.14,0,0,0-1.9.65c-4.51,1.8-7.88,5.15-7.58,10.28a8,8,0,0,0,3,5.38,10.54,10.54,0,0,0,6.44,2.09c2.45,0,6.55-1,9.76-5.72a25.14,25.14,0,0,0,3.42-8.92c0-.15.12-.67.23-1.31a8.6,8.6,0,0,1,2,1.55,9.65,9.65,0,0,1,2.48,6.69c.14,4.76-2.71,8.52-6,8.77-2.56.19-2.84-2.35-1.19-3.22v-.23a3.44,3.44,0,0,0-3,4.13c.61,1.85,3.61,3.06,7.31,1.88C93.29,91.35,96.37,87.11,96,81.06Zm-15.09-.79A8.76,8.76,0,0,1,77,84.53a6.55,6.55,0,0,1-5.32.23,4.48,4.48,0,0,1-2.81-3.61,8,8,0,0,1,3.55-7.23,16.7,16.7,0,0,1,1.76-1.06v3.35c0,2-.5,2.52-1.14,2.91,2.06,2,5.89.93,6.59-1-.68-.25-1-.65-1-2.14v-4.5a17.45,17.45,0,0,1,4.56.09A29.13,29.13,0,0,1,80.91,80.27Z"/><path class="cls-5" d="M159.28,81.06a11.64,11.64,0,0,0-2.87-6.85A11.16,11.16,0,0,0,151.14,71c0-.2.06-.39.08-.55a7.13,7.13,0,0,1,1-2.63,2,2,0,0,0-3.22-.27,2.08,2.08,0,0,0-3.19.2,4.08,4.08,0,0,1,.67,2c0,.1,0,.22,0,.33a24.06,24.06,0,0,0-4.63-.11v-5h13.2c3.35,0,4.37-3.08,2.74-4.73a2.7,2.7,0,0,0-2.74-.62c-1.81.61-1.47,2.42-.7,2.62a.65.65,0,0,1,.42-.92.83.83,0,0,1,1,.5c.27.66,0,1.45-1.2,1.45H141.89v-3a1.77,1.77,0,0,1,1-1.79c-1.71-1.36-5.06-1.47-6.68.19.89.08,1.23.89,1.23,1.72v2.84h-4.63c-2.75,0-4.47,1.45-4.86,3.3a2.77,2.77,0,0,0,2.51,3.36c1.89.15,3.32-1.23,2.57-2.84a1.81,1.81,0,0,0-2.49-.65c.2-1,1.13-1.47,2.54-1.47h4.36V70.7a19.14,19.14,0,0,0-1.9.65c-4.51,1.8-7.89,5.15-7.58,10.28a8,8,0,0,0,3,5.38,10.54,10.54,0,0,0,6.44,2.09c2.45,0,6.56-1,9.76-5.72a24.77,24.77,0,0,0,3.42-8.92c0-.15.12-.67.24-1.31a9.06,9.06,0,0,1,2,1.55,9.69,9.69,0,0,1,2.47,6.69c.14,4.76-2.71,8.52-6,8.77-2.56.19-2.85-2.35-1.2-3.22v-.23c-2.41.43-3.56,2.57-3,4.13.6,1.85,3.61,3.06,7.3,1.88C156.56,91.35,159.65,87.11,159.28,81.06Zm-15.1-.79a8.67,8.67,0,0,1-3.93,4.26,6.55,6.55,0,0,1-5.32.23,4.51,4.51,0,0,1-2.81-3.61,8,8,0,0,1,3.55-7.23,15.92,15.92,0,0,1,1.77-1.06v3.35c0,2-.51,2.52-1.14,2.91,2,2,5.89.93,6.59-1-.68-.25-1-.65-1-2.14v-4.5a17.54,17.54,0,0,1,4.57.09A29.11,29.11,0,0,1,144.18,80.27Z"/><path class="cls-6" d="M106.28,77.29V74.6c5.18-2.42,11-6,14.89-10.64,1.81-2.15,2.25-3.79,1-4.68a1.62,1.62,0,0,0-2.28.66,1.59,1.59,0,0,0-2.29-.82,2.56,2.56,0,0,0-1,1.14c-1.25,3.24-6.33,8.59-11,11.63a9.1,9.1,0,0,1-5,1.39,3.06,3.06,0,0,1,0,5.33,9.27,9.27,0,0,1,5,1.39c4.69,3,9.77,8.39,11,11.63a2.54,2.54,0,0,0,1,1.15,1.59,1.59,0,0,0,2.29-.82,1.62,1.62,0,0,0,2.28.66c1.29-.9.85-2.53-1-4.68C117.28,83.32,111.46,79.71,106.28,77.29Z"/><path class="cls-5" d="M204.3,69.35c1.61,0,2.66-.92,2.66-2s-1.05-2-2.66-2-2.67.91-2.67,2S202.69,69.35,204.3,69.35Zm2.24,14.4V73.22a1.59,1.59,0,0,1,.73-1.55,1.82,1.82,0,0,0-3-.26,1.75,1.75,0,0,0-3,.43c.66.07.9.76.9,1.48V83.65c0,.72-.24,1.41-.9,1.48a1.75,1.75,0,0,0,3,.42,1.81,1.81,0,0,0,3-.26A1.57,1.57,0,0,1,206.54,83.75Z"/><path class="cls-6" d="M171.52,70c1.2-2.64,1.39-6.09,1.58-9.85,0-.63.27-1,.73-1.09-1.32-2-4.18-2.15-6.17-.22.57.25.76.78.81,1.66.25,3.76.39,8.15-1.6,10.15a2.11,2.11,0,0,1-1.74.69c-.84-.14-1.22-1.68.28-2.08V69a2.66,2.66,0,0,0-3,2.36c-.13,1.86,1.41,3.1,3.77,2.93C168.14,74.1,170.13,73,171.52,70Zm4,.75h3.85v8.11H173.6v1.54h15a1,1,0,0,1,.71.37V78.48a1.11,1.11,0,0,1-.8.36h-4.59V70.73h3.62c2.42,0,3.45,1.31,3.45,3v7c0,1-.27,1.34-.81,1.58,2.08,1.5,3,1.57,5.44-.15a1.88,1.88,0,0,1-.84-1.6V74.65c0-3-1.32-5.46-5.34-5.46h-.59c2.31-1.77,2.53-6,.22-8.32a8.29,8.29,0,0,0-10.82-.3,5.41,5.41,0,0,0-1.82,3.67,2.33,2.33,0,0,0,2,2.52c1.55.15,2.48-1.06,2-2.23a1.45,1.45,0,0,0-2.11-.45,3.51,3.51,0,0,1,1.41-1.86c1.64-1.16,4.75-1.22,6.19.18a3.87,3.87,0,0,1,.88,3.53,4.94,4.94,0,0,1-2.62,3.26h-8.62a1,1,0,0,1-.71-.37V71.1A1.1,1.1,0,0,1,175.56,70.73ZM191,87.82c-1.81.61-1.47,2.42-.7,2.62a.64.64,0,0,1,.42-.92.82.82,0,0,1,1,.5c.27.66,0,1.45-1.2,1.45H175.28c-2.41,0-3.44-1.31-3.44-3V77.24a2,2,0,0,1,1-1.9c-2-1-4.8-.1-6.39,1.61a1.6,1.6,0,0,1,.84,1.43V87.7c0,3,2.06,5.46,6.08,5.46H191c3.36,0,4.37-3.08,2.75-4.72A2.68,2.68,0,0,0,191,87.82Z"/><path class="cls-6" d="M226.42,83.75v-7.3A4.32,4.32,0,0,0,222.36,72a6.52,6.52,0,0,0-6,3V73.22a1.59,1.59,0,0,1,.74-1.55,1.83,1.83,0,0,0-3-.26,1.74,1.74,0,0,0-3,.43c.65.07.9.76.9,1.48V83.65c0,.72-.25,1.41-.9,1.48a1.74,1.74,0,0,0,3,.42,1.82,1.82,0,0,0,3-.26,1.57,1.57,0,0,1-.74-1.54V76.58a5,5,0,0,1,3.87-2c1.37.2,1.83.94,1.83,2.49v6.54c0,.72-.24,1.41-.9,1.48a1.74,1.74,0,0,0,3,.42,1.82,1.82,0,0,0,3-.26A1.57,1.57,0,0,1,226.42,83.75Z"/><path class="cls-5" d="M70,124.24a4.66,4.66,0,0,0-6.05-.42l.16.37c1.4-.41,3.29-.23,3.73,1.9a6,6,0,0,1-.61,4.17,5.82,5.82,0,0,1-5.73,2.23c-2.18-.41-4-2.25-4-5.77v-6.49c0-3.81-.81-6.38-4.44-6.81a8,8,0,0,0-5.42,1.48A12.35,12.35,0,0,0,45.1,117V104.46a1.79,1.79,0,0,1,1-1.8,2.13,2.13,0,0,0-3.22-.36,2.23,2.23,0,0,0-3.46.56c.9.08,1.23.88,1.23,1.72v25.86c0,.83-.33,1.64-1.23,1.72a4.94,4.94,0,0,0,6.68.19,1.77,1.77,0,0,1-1-1.79V119.31a9.33,9.33,0,0,1,3.92-3.2c1.5-.6,3.56.08,3.56,3v8.48c0,6.38,4.88,9.31,9.92,9.31,4.84,0,8-2.78,8.79-6.47A6.88,6.88,0,0,0,70,124.24Z"/><path class="cls-6" d="M231.73,124.24a4.67,4.67,0,0,0-6.06-.42l.16.37c1.4-.41,3.29-.23,3.73,1.9a6,6,0,0,1-.61,4.17,5.8,5.8,0,0,1-5.73,2.23c-2.18-.41-4-2.25-4-5.77v-6.49c0-3.81-.8-6.38-4.43-6.81a8,8,0,0,0-5.43,1.48,12.35,12.35,0,0,0-2.48,2.12V104.46a1.8,1.8,0,0,1,1-1.8,2.14,2.14,0,0,0-3.23-.36,2.22,2.22,0,0,0-3.45.56c.89.08,1.22.88,1.22,1.72v25.86c0,.83-.33,1.64-1.22,1.72a4.94,4.94,0,0,0,6.68.19,1.77,1.77,0,0,1-1-1.79V119.31a9.29,9.29,0,0,1,3.93-3.2c1.49-.6,3.55.08,3.55,3v8.48c0,6.38,4.89,9.31,9.92,9.31,4.84,0,8-2.78,8.79-6.47A6.85,6.85,0,0,0,231.73,124.24Z"/><path class="cls-5" d="M181.74,105A7.66,7.66,0,0,0,186,112.5c3.25,1.62,8,.84,8.75-3a4.55,4.55,0,0,0-.43-2.8,3.55,3.55,0,0,0-3.66-1.75,1.81,1.81,0,0,0-1.52,1.74,1.45,1.45,0,0,0,1.55,1.52,1.29,1.29,0,0,0,1.31-1.3,1.65,1.65,0,0,1-.24,2.47,3.91,3.91,0,0,1-3.71.49,5.42,5.42,0,0,1-3.84-3.89,4,4,0,0,1,0-2.31,1.21,1.21,0,0,1,1.17-.89,1.47,1.47,0,0,0-2.33-.43,1.6,1.6,0,0,0-2.38.43C181.68,102.91,181.78,104,181.74,105Zm13.42,16.65c-1.62-2.43-5.33-4.46-9.19-4.86a22.05,22.05,0,0,0-12.31,2.4V108.37a1.79,1.79,0,0,1,1-1.8,2.13,2.13,0,0,0-3.22-.36,2.23,2.23,0,0,0-3.46.55c.9.08,1.23.89,1.23,1.73v13.38c0,.84-.33,1.64-1.23,1.72a4.94,4.94,0,0,0,6.68.2,1.79,1.79,0,0,1-1-1.8v-.18a18,18,0,0,1,11.1-2.58,7.29,7.29,0,0,1,6,3.71c1.55,3.09,1,7.32-2.24,9.28a8.09,8.09,0,0,1-6.49.89,4.71,4.71,0,0,1-3.37-3.11,3.5,3.5,0,0,1,.88-3.47,3.07,3.07,0,0,1,2.94-.59,1.55,1.55,0,0,0-1,1.45,1.43,1.43,0,0,0,1.53,1.43,1.71,1.71,0,0,0,1.71-1.51c.14-1.68-1.56-2.72-3.46-2.67a5.62,5.62,0,0,0-5.54,7.37c1,3,4.73,5.22,9,5.22a12.8,12.8,0,0,0,8.88-3.27A9.72,9.72,0,0,0,195.16,121.67Z"/><path class="cls-5" d="M253.66,107.19a1.59,1.59,0,0,0,2.37.27,1.67,1.67,0,0,0,2.36-.16,1,1,0,0,1-.58-1V103a1,1,0,0,1,.58-1,1.67,1.67,0,0,0-2.36-.16,1.59,1.59,0,0,0-2.37.27c.52,0,.72.47.72.93v3.19C254.38,106.71,254.18,107.15,253.66,107.19Zm9.62-.86V103a1,1,0,0,1,.58-1,1.67,1.67,0,0,0-2.36-.16,1.58,1.58,0,0,0-2.36.27c.52,0,.72.47.72.93v3.19c0,.45-.2.89-.72.93a1.58,1.58,0,0,0,2.36.27,1.67,1.67,0,0,0,2.36-.16A1,1,0,0,1,263.28,106.33Zm-4.85,13.19c-2.39-1.07-5.54-.93-6.84.65a2.68,2.68,0,0,0,.15,3.56,2.36,2.36,0,0,0,2.57.3,2,2,0,0,0,.18-3.54,4,4,0,0,1,4.25,3.31,6.8,6.8,0,0,1-2.2,6.47c-3.32,2.8-9.43,3-12.74-.09s-3.32-7.77,0-10.18c1.19-.85,8.84-5.26,8.84-5.26,1.9-1.13,2.42-2,2.29-3.38a2.51,2.51,0,0,0-2.9-2.16l-.08.26c1.15.81,0,1.83-.49,2.17,0,0-2.12,1.26-4.59,2.75l-4.66-8.77a1.77,1.77,0,0,1,0-2,2.12,2.12,0,0,0-3,1.19,2.22,2.22,0,0,0-2.79,2.11c.83-.35,1.5.21,1.89,1l4.74,8.89-2,1.26c-5.46,3.51-6,12.06.87,16.63,6.7,4.44,15.67,2.41,18.92-2.88C263.73,127.09,262.34,121.27,258.43,119.52Z"/><path class="cls-6" d="M166.14,115.05l-9.43-2.38-5.18-8.24-5.17,8.24-9.44,2.38,6.24,7.47-.66,9.7,9-3.62,9,3.62-.65-9.7Zm-8.62,6.72a.22.22,0,0,1-.11,0,.27.27,0,0,1-.19-.08l-.59-.66a5.47,5.47,0,0,1-2.3,3.1,4.84,4.84,0,0,1-1,.46h0a4,4,0,0,0-1.63,1.12l-.07.09-.08-.09a3.94,3.94,0,0,0-1.62-1.12h0a4.56,4.56,0,0,1-1-.46A5.48,5.48,0,0,1,146.5,121l-.65.74a.27.27,0,0,1-.19.08.2.2,0,0,1-.11,0,.26.26,0,0,1-.15-.27l.49-3.36a.25.25,0,0,1,.17-.2l.09,0a.2.2,0,0,1,.16.07l2.58,2.25a.25.25,0,0,1-.17.45h0l-1.1-.11a4.16,4.16,0,0,0,2.13,2.72.85.85,0,0,0,.38.09.89.89,0,0,0,.47-.14.87.87,0,0,0,.41-.75l.1-2.7h-.68a.41.41,0,0,0-.33.15l-.16.18a5.72,5.72,0,0,0-.92-.92,5.72,5.72,0,0,0,.92-.92l.16.18a.42.42,0,0,0,.33.16h.72l0-1.07a2,2,0,1,1,.78,0l0,1.07h.75a.46.46,0,0,0,.34-.16l.15-.18h0a5.72,5.72,0,0,0,.92.92,5.72,5.72,0,0,0-.92.92l-.15-.18a.45.45,0,0,0-.34-.15h-.69l.11,2.7a.89.89,0,0,0,.41.75.92.92,0,0,0,.48.14.84.84,0,0,0,.37-.09,4.17,4.17,0,0,0,2.14-2.73l-1.19.12h0a.25.25,0,0,1-.23-.15.26.26,0,0,1,.06-.3l2.58-2.25a.23.23,0,0,1,.17-.07l.09,0a.24.24,0,0,1,.16.2l.49,3.36A.25.25,0,0,1,157.52,121.77Z"/><path class="cls-6" d="M152.52,115.59a.94.94,0,1,0-.94.94A.94.94,0,0,0,152.52,115.59Z"/><path class="cls-6" d="M290.62,117.32c-.52-5.89-4.87-9.45-10.51-10.7-.64-.14-1-.4-1-.82a1.55,1.55,0,0,1,.87-1.57,1.91,1.91,0,0,0-2.78-.32,1.8,1.8,0,0,0-2.77.48c.78.07,1.08.78,1.08,1.52V126a8,8,0,0,0-2.61.06c-3.75.67-6.2,3.3-6.2,6s2.82,4.59,6.57,3.92,5.84-3,5.84-6.13V112a1.38,1.38,0,0,1,1.59-1.24,7.46,7.46,0,0,1,5.84,5c1,2.65.67,6-1.44,7.88a3.92,3.92,0,0,1-2.91,1.21l-.09.49a6.27,6.27,0,0,0,5.58-.84A7.93,7.93,0,0,0,290.62,117.32Z"/><path class="cls-6" d="M32.63,113.79a11.27,11.27,0,0,0-8.25-3.67q-5.1,0-10.93,4.84l-.92.79V104.46a1.79,1.79,0,0,1,1-1.8,4.94,4.94,0,0,0-6.68.2c.9.08,1.23.88,1.23,1.72v8.54H4.34c-1.19,0-1.46-.79-1.19-1.45a.82.82,0,0,1,1-.5.64.64,0,0,1,.42.92c.77-.2,1.11-2-.7-2.62a2.7,2.7,0,0,0-2.74.62c-1.62,1.65-.61,4.72,2.74,4.72H8.07v5.38l-3,2.77c-.8.74-1.58,1-2.23.49a1.88,1.88,0,0,0,1.41-2.35,2.14,2.14,0,0,0-3.77-.4,3.11,3.11,0,0,0,.91,4.17,4.33,4.33,0,0,0,5.18-.33c.31-.28.83-.83,1.52-1.54v7.44c0,.83-.33,1.64-1.23,1.72a4.94,4.94,0,0,0,6.68.19,1.77,1.77,0,0,1-1-1.79V118.25c3.13-3.13,7.16-5.23,10.07-5.23,4.48,0,9.56,4.57,8.44,12.35-.42,2.91-1.88,6.06-5.68,7.18-2.35.68-4.8.07-5.51-1.48a2.57,2.57,0,0,1,2-3.56l0-.35a4,4,0,0,0-4.79,4.26c.18,2.76,2.93,5,7,5C29.86,136.39,36,131.51,36,123,36,119.73,34.49,115.7,32.63,113.79Z"/><path class="cls-6" d="M81.39,130.56V110.22h8.37c3.35,0,4.36-3.08,2.74-4.72a2.68,2.68,0,0,0-2.74-.62c-1.81.61-1.47,2.42-.7,2.62a.64.64,0,0,1,.42-.92.82.82,0,0,1,1,.5c.27.65,0,1.45-1.2,1.45H81.39v-4.07a1.8,1.8,0,0,1,1-1.8,4.94,4.94,0,0,0-6.68.2c.89.08,1.23.88,1.23,1.72v4H74.13a1.36,1.36,0,0,1-1-.45v2.59a1.28,1.28,0,0,1,.86-.45h2.93v20.22c0,.83-.34,1.64-1.23,1.72a4.94,4.94,0,0,0,6.68.19A1.77,1.77,0,0,1,81.39,130.56ZM95,109.92a1.58,1.58,0,0,0,2.36.27,1.67,1.67,0,0,0,2.36-.16,1,1,0,0,1-.58-1v-5.89a1,1,0,0,1,.58-1,1.66,1.66,0,0,0-2.36-.17,1.58,1.58,0,0,0-2.36.27c.52,0,.72.48.72.93V109C95.71,109.45,95.51,109.88,95,109.92Zm2.33,11.68V122c4.73.68,6.59-1.46,6.68-3.3.12-2.43-2.13-4.08-5.45-4.08h-9.4a1,1,0,0,1-.71-.37v2.41a1.11,1.11,0,0,1,.8-.36H97.1c2.17,0,3.32,1.17,3.32,2.52C100.42,120.48,98.81,121.34,97.32,121.6Zm.87,4.43a2.05,2.05,0,0,0-1.2,2.11,1.45,1.45,0,0,0,1.5,1.29,1.37,1.37,0,0,0,1.41-1.29,1.21,1.21,0,0,0-.67-1.3,2.76,2.76,0,0,1,2.88,3.93c-.73,1.72-3.3,2.81-6.22,2.31-2.42-.42-5.2-1.69-6.21-3.88-1.25-2.72-.18-6.2,2-7l0-.42c-3.44-.16-6.59,3.22-5.73,7.71,1,4.95,6.2,7.7,11.28,7.7,2.85,0,6.93-1.34,8.08-5.14a5,5,0,0,0-1.34-5.08A5.47,5.47,0,0,0,98.19,126Zm6.87-17v-5.89a1,1,0,0,1,.59-1,1.68,1.68,0,0,0-2.37-.17,1.58,1.58,0,0,0-2.36.27c.52,0,.72.48.72.93V109c0,.46-.2.89-.72.93a1.58,1.58,0,0,0,2.36.27,1.68,1.68,0,0,0,2.37-.16A1,1,0,0,1,105.06,109.06Z"/><path class="cls-5" d="M133.47,116.49l-.41.15c.69,2.17-1,5-4.68,4.79-1.74-.08-4.77-1.62-6-2.53-4-2.93-7.21-3.54-10.11-2.57-4.16,1.4-5.09,5.88-3.33,7.91l.41-.16c-.69-2.17,1-5,4.69-4.79,1.73.08,4.76,1.63,6,2.54,4,2.92,7.2,3.53,10.1,2.56C134.31,123,135.23,118.52,133.47,116.49Z"/></g></g></svg>