<svg xmlns="http://www.w3.org/2000/svg" width="27.745" height="27.685" viewBox="0 0 27.745 27.685"><path d="M619.46,585.6a.58.58,0,0,0-.583.107l-5.833,5.1a.58.58,0,0,0,.381,1.016.546.546,0,0,0,.056,0l2.689-.262c-.989,3.1-2.569,5.119-4.826,6.177a2,2,0,0,1-2.848-1.811l-.264-6.121h1.576a1,1,0,0,1,.754.343c.128.146.244.288.347.42A13.033,13.033,0,0,1,613,588.482a13.031,13.031,0,0,1-2.087-2.087h0c-.1.132-.219.273-.346.42a1,1,0,0,1-.754.343h-1.69l-.1-2.4a4.548,4.548,0,1,0-1.753-.013l-.089,2.416h-1.636a1,1,0,0,1-.754-.343c-.128-.147-.244-.288-.346-.42a13.034,13.034,0,0,1-2.087,2.087,13.038,13.038,0,0,1,2.087,2.087c.1-.131.218-.273.346-.419a1,1,0,0,1,.754-.343h1.538l-.227,6.121A2,2,0,0,1,603,597.738c-2.253-1.056-3.831-3.072-4.82-6.157l2.486.242a.551.551,0,0,0,.056,0,.58.58,0,0,0,.381-1.016l-5.833-5.1a.58.58,0,0,0-.955.353l-1.107,7.6a.58.58,0,0,0,1.008.467l1.465-1.659a12.476,12.476,0,0,0,5.27,7.18,10.628,10.628,0,0,0,2.349,1.042l.029.012a8.91,8.91,0,0,1,3.678,2.515l.166.2.166-.2a8.912,8.912,0,0,1,3.678-2.516l.029-.012a10.629,10.629,0,0,0,2.348-1.042,12.4,12.4,0,0,0,5.216-7.019l1.323,1.5a.58.58,0,0,0,1.008-.467l-1.107-7.6A.58.58,0,0,0,619.46,585.6Zm-12.288-3.193a2.127,2.127,0,1,1,2.127-2.127A2.127,2.127,0,0,1,607.172,582.411Z" transform="translate(-593.201 -575.735)" fill="#fff"/></svg>