<svg xmlns="http://www.w3.org/2000/svg" width="48.824" height="41.363" viewBox="0 0 48.824 41.363"><g transform="translate(0 0)"><path d="M299.365,170.729a10.3,10.3,0,0,1,1.863-4.7,9.419,9.419,0,0,1,9-3.948,13.351,13.351,0,0,1,8.756,4.4,10.633,10.633,0,0,1,2.213,4.44,12.99,12.99,0,0,1,.049,4.933,13.767,13.767,0,0,1-1.779,4.625l-.031.045a12.134,12.134,0,0,1,5.618-.013,6.844,6.844,0,0,1,5.128,4.92,4.354,4.354,0,0,1-.817,3.606,15.771,15.771,0,0,0,4.109-1.493,11.552,11.552,0,0,1,1.083-3.368,11.125,11.125,0,0,1,1.614-2.443,6.773,6.773,0,0,1,1.11-1.014,2.7,2.7,0,0,1,1.546-.57,1.268,1.268,0,0,1,.874.4,2.014,2.014,0,0,1,.427.743,2.339,2.339,0,0,1-.135,1.594,6.383,6.383,0,0,1-1.876,2.293,25.925,25.925,0,0,1-3.824,2.687,6.209,6.209,0,0,0,.1,1.882,2.648,2.648,0,0,0,1.494,1.968,4.191,4.191,0,0,0,2.6.266,2.682,2.682,0,0,0,1.982-1.45,2.162,2.162,0,0,0-.469-2.287,1.42,1.42,0,0,0-2.075-.157,1.251,1.251,0,0,0-.283,1.04.626.626,0,0,0,.7.528.311.311,0,0,1,.335.273.308.308,0,0,1-.277.337h-.016a1.265,1.265,0,0,1-1.408-1.005,1.91,1.91,0,0,1,.406-1.657,1.991,1.991,0,0,1,1.645-.66,2.452,2.452,0,0,1,1.553.764,2.94,2.94,0,0,1,.656,3.132,3.525,3.525,0,0,1-2.563,1.97,5.092,5.092,0,0,1-3.176-.3,3.234,3.234,0,0,1-1.344-1.066,3.788,3.788,0,0,1-.638-1.5,7.088,7.088,0,0,1-.12-1.592,16.274,16.274,0,0,1-5.629,1.731h-.015a.368.368,0,0,1-.07-.007l-.01,0a4.3,4.3,0,0,1-1.9.013,2.7,2.7,0,0,1-1.642-1.079,2.371,2.371,0,0,1-.3-1.914,1.863,1.863,0,0,1,1.408-1.383,1.746,1.746,0,0,1,1.044.112,1.155,1.155,0,0,1,.663.889l0,.033v.007a.309.309,0,0,1-.289.33.313.313,0,0,1-.335-.284c-.028-.374-.5-.56-.955-.464a1.19,1.19,0,0,0-.881.921,1.709,1.709,0,0,0,.234,1.36,1.985,1.985,0,0,0,1.216.758,3.524,3.524,0,0,0,1.556-.045l.027-.009a.425.425,0,0,1,.171-.052h.006a2.117,2.117,0,0,0,1.019-.729,3.536,3.536,0,0,0,.6-2.936,5.3,5.3,0,0,0-1.641-2.668,6.907,6.907,0,0,0-2.872-1.465,11.935,11.935,0,0,0-6.445.493,9.407,9.407,0,0,1-2.138,1.843c.139.122.283.243.414.374a11.193,11.193,0,0,1,2.916,6.209l.006.054a.692.692,0,0,1-1.381.1v-.016a9.43,9.43,0,0,0-2.241-5.7,6.508,6.508,0,0,0-5.684-2.168,3.633,3.633,0,0,0-2.675,1.455,3.306,3.306,0,0,0-.352,2.927,2.154,2.154,0,0,0,2.319,1.41c.481-.076.8-.4.708-.752a.547.547,0,0,0-.349-.416.484.484,0,0,0-.5.081l-.034.048a.231.231,0,0,1-.3.07.224.224,0,0,1-.094-.307,1.08,1.08,0,0,1,1.949.329,1.161,1.161,0,0,1-.254,1.193,1.818,1.818,0,0,1-1,.527,2.958,2.958,0,0,1-2-.345,3.034,3.034,0,0,1-1.274-1.545,3.653,3.653,0,0,1,.592-3.6,5.1,5.1,0,0,1,3.158-1.689,7.553,7.553,0,0,1,3.505.265,6.769,6.769,0,0,1,1.368.634.733.733,0,0,1,.134-.106l.03-.015a10.473,10.473,0,0,0,4.975-7.171,12.019,12.019,0,0,0,.062-4.535,9.684,9.684,0,0,0-1.928-4.1,11.254,11.254,0,0,0-3.611-2.893,12.889,12.889,0,0,0-4.539-1.221,8.845,8.845,0,0,0-4.569.717A8.683,8.683,0,0,0,302.1,166.6a9.923,9.923,0,0,0-1.246,8.813,5.893,5.893,0,0,0,3.035,3.254,8.1,8.1,0,0,0,4.564.544,5.853,5.853,0,0,0,3.891-2.192,4.376,4.376,0,0,0,.645-4.217,3.9,3.9,0,0,0-3.385-2.518c-1.458-.1-3.122.882-3.082,2.329a.313.313,0,0,1-.626.026v-.016a2.761,2.761,0,0,1,1.194-2.336,4.145,4.145,0,0,1,2.55-.762,4.727,4.727,0,0,1,4.17,2.965,5.184,5.184,0,0,1-.709,5.073,6.822,6.822,0,0,1-4.495,2.591,9.092,9.092,0,0,1-5.146-.592,6.925,6.925,0,0,1-3.579-3.778A9.966,9.966,0,0,1,299.365,170.729Zm38.345,13.964a5.8,5.8,0,0,0,1.721-2.041,1.757,1.757,0,0,0,.128-1.2c-.125-.39-.387-.719-.748-.711a3.516,3.516,0,0,0-2.111,1.418,10.371,10.371,0,0,0-1.446,2.322,11.358,11.358,0,0,0-.844,2.544A25.642,25.642,0,0,0,337.711,184.693Z" transform="translate(-292.622 -151.57)" fill="#b0a671"/><path d="M330.348,161.139a7.326,7.326,0,0,1-10.377-3.88C323.652,155.252,328.235,156.66,330.348,161.139Zm4.142.786a5.181,5.181,0,0,1-3.334-7.092C334.01,155.636,335.633,158.614,334.49,161.925Zm3.5-3.3a3,3,0,0,1-.743,4.428A2.969,2.969,0,0,1,337.989,158.624Z" transform="translate(-319.972 -154.833)" fill="#c9c29a"/></g></svg>