<svg xmlns="http://www.w3.org/2000/svg" width="75.25" height="12.974" viewBox="0 0 75.25 12.974"><path d="M895.566,407.45c1.06.066,7.732.542,9.1.691s12.237,1.052,13.576,1.152,3.209.186,4.18.162a14.135,14.135,0,0,0,3.7-.558,6.212,6.212,0,0,0,1.627-.841,1.932,1.932,0,0,0-.026-3.087,6.2,6.2,0,0,0-1.622-.849,14.117,14.117,0,0,0-3.7-.576c-.971-.03-2.842.048-4.181.141s-12.212.941-13.584,1.084-8.046.585-9.107.646c-4.2.238-8.471.183-12.689.272a6.33,6.33,0,0,1-2.153-.444,8.422,8.422,0,0,1-2.535-2.014c-2.619-2.559-6.123-3.223-9.981-3.288-4.354-.073-13.793.988-14.831,5.735a3.484,3.484,0,0,0,0,1.551c1.062,4.743,10.507,5.769,14.86,5.68,3.858-.079,7.358-.756,9.964-3.324a8.4,8.4,0,0,1,2.525-2.023,6.181,6.181,0,0,1,2.066-.447c4.255.111,8.561.077,12.8.338Z" transform="translate(-853.261 -399.936)" fill="#3ebcdf" fill-rule="evenodd"/></svg>