<svg xmlns="http://www.w3.org/2000/svg" xmlns:xlink="http://www.w3.org/1999/xlink" width="244" height="244" viewBox="0 0 244 244"><defs><filter id="a" x="0" y="0" width="244" height="244" filterUnits="userSpaceOnUse"><feOffset dy="3" input="SourceAlpha"/><feGaussianBlur stdDeviation="3" result="b"/><feFlood flood-opacity="0.161"/><feComposite operator="in" in2="b"/><feComposite in="SourceGraphic"/></filter></defs><g transform="translate(-111.067 -230.273)"><g transform="matrix(1, 0, 0, 1, 111.07, 230.27)" filter="url(#a)"><circle cx="113" cy="113" r="113" transform="translate(9 6)" fill="#fff"/></g><path d="M109.5,1A109.3,109.3,0,0,0,87.632,3.2a107.9,107.9,0,0,0-38.8,16.325A108.819,108.819,0,0,0,9.526,67.267,107.945,107.945,0,0,0,3.2,87.632a109.567,109.567,0,0,0,0,43.735,107.9,107.9,0,0,0,16.325,38.8,108.819,108.819,0,0,0,47.738,39.311A107.945,107.945,0,0,0,87.632,215.8a109.567,109.567,0,0,0,43.735,0,107.9,107.9,0,0,0,38.8-16.325,108.82,108.82,0,0,0,39.311-47.738,107.946,107.946,0,0,0,6.322-20.365,109.567,109.567,0,0,0,0-43.735,107.9,107.9,0,0,0-16.325-38.8A108.82,108.82,0,0,0,151.733,9.526,107.946,107.946,0,0,0,131.368,3.2,109.3,109.3,0,0,0,109.5,1m0-1A109.5,109.5,0,1,1,0,109.5,109.5,109.5,0,0,1,109.5,0Z" transform="translate(123.067 240.273)" fill="#b0a671"/><path d="M218.7,246.315h23.46v2.059h-.5a1.162,1.162,0,0,0-1.16,1.16V271.7a1.162,1.162,0,0,0,1.16,1.16h.5v2.059H218.7v-2.059h1.686a.78.78,0,0,0,.762-.605l2.488-10.682L220.7,248.979a.779.779,0,0,0-.762-.605H218.7Zm5.462,1H219.7v.059h.241a1.775,1.775,0,0,1,1.736,1.378l2.986,12.819-2.541,10.909a1.776,1.776,0,0,1-1.736,1.378H219.7v.059h4.462v-.06a1.782,1.782,0,0,1-1.681-2.186l1.78-7.641h.974l1.78,7.641a1.787,1.787,0,0,1-1.242,2.116v.13h15.387V273.8a2.164,2.164,0,0,1-1.66-2.1V249.535a2.164,2.164,0,0,1,1.66-2.1v-.118H225.77v.06a1.782,1.782,0,0,1,1.687,2.186l-1.78,7.641H224.7l-1.78-7.641a1.784,1.784,0,0,1,1.236-2.116Zm1,1.059h-.5a.783.783,0,0,0-.762.96l1.293,5.55,1.293-5.551a.782.782,0,0,0-.762-.96Zm.112,24.485a.785.785,0,0,0,.618-.3.775.775,0,0,0,.15-.661l-1.293-5.551-1.293,5.551a.782.782,0,0,0,.762.96Zm4.282-25.485h1.233a2.163,2.163,0,0,1,2.161,2.16V271.7a2.163,2.163,0,0,1-2.161,2.16H230a1.776,1.776,0,0,1-1.736-1.378l-2.986-12.82,2.541-10.909A1.775,1.775,0,0,1,229.553,247.374Zm1.233,25.485a1.162,1.162,0,0,0,1.161-1.16V249.535a1.162,1.162,0,0,0-1.161-1.16h-1.233a.779.779,0,0,0-.762.605L226.3,259.662l2.933,12.592a.78.78,0,0,0,.762.605Zm5.462-25.485a2.163,2.163,0,0,1,2.16,2.16V271.7a2.187,2.187,0,0,1-4.374,0V249.535A2.164,2.164,0,0,1,236.248,247.374Zm-.053,25.485a1.175,1.175,0,0,0,1.214-1.16V249.535a1.162,1.162,0,0,0-1.16-1.16,1.175,1.175,0,0,0-1.213,1.16V271.7A1.162,1.162,0,0,0,236.195,272.859Zm-47.553-17.918,1.014,1.793-.435.246a1.16,1.16,0,0,0-.439,1.58l10.909,19.3a1.159,1.159,0,0,0,1.58.439l.435-.246,1.014,1.793-10.042,5.677h0l-5.626,3.18-1.013-1.792,1.467-.83a.779.779,0,0,0,.366-.9l-3.092-10.524-8.751-9.518a.782.782,0,0,0-.961-.152l-1.079.611-1.014-1.793,5.625-3.18h0Zm-.32,1.465-.058-.1-8.639,4.885.03.052a1.781,1.781,0,0,1,2.544,1.073l2.212,7.528-.848.479-5.31-5.776a1.784,1.784,0,0,1,.035-2.45l-.064-.114-3.884,2.2.029.052.209-.118a1.782,1.782,0,0,1,2.189.345l8.909,9.69,3.157,10.748a1.774,1.774,0,0,1-.833,2.054l-.6.338.029.052,3.885-2.2-.03-.053a1.78,1.78,0,0,1-2.539-1.075l-2.212-7.528.848-.479,5.31,5.776a1.787,1.787,0,0,1-.04,2.453l.064.113,8.64-4.884-.058-.1a2.159,2.159,0,0,1-2.479-1.012l-10.909-19.295a2.162,2.162,0,0,1,.41-2.647Zm-5.476,11.657-1.607-5.468a.781.781,0,0,0-1.136-.46l-.489.276h0l-.435.246a.782.782,0,0,0-.191,1.21Zm8.818,15.663.1-.055a.786.786,0,0,0,.391-.565.773.773,0,0,0-.195-.648l-3.858-4.2,1.607,5.468a.778.778,0,0,0,.752.562.768.768,0,0,0,.383-.1Zm86.428-25.492,5.594,3.234-1.03,1.784-.433-.25a1.159,1.159,0,0,0-1.585.423l-11.094,19.189a1.16,1.16,0,0,0,.424,1.584l.433.25-1.031,1.784L263.774,283l1.031-1.784.433.25a1.272,1.272,0,0,0,.635.175,1.137,1.137,0,0,0,1-.572l11.095-19.189a1.16,1.16,0,0,0-.424-1.584.516.516,0,0,1-.212-.652c.016-.043.037-.093.068-.156.042-.087.1-.2.18-.346.128-.235.26-.463.266-.473Zm4.228,3.6-3.858-2.23-.051.094a2.163,2.163,0,0,1,.419,2.682l-11.094,19.189a2.127,2.127,0,0,1-1.862,1.071,2.231,2.231,0,0,1-.675-.106l-.057.1L269,284.866l.059-.1a2.162,2.162,0,0,1-.385-2.651l11.094-19.189a2.159,2.159,0,0,1,2.489-.988Zm-97.238-3.343h0a2.165,2.165,0,0,1,1.882,1.1l10.908,19.294a2.16,2.16,0,0,1-.817,2.944l-.686.388a1.783,1.783,0,0,1-2.19-.346l-8.908-9.69-3.157-10.748a1.774,1.774,0,0,1,.833-2.054l1.073-.607A2.162,2.162,0,0,1,185.082,258.492Zm10.411,22.954a.784.784,0,0,0,.385-.1l.686-.388a1.16,1.16,0,0,0,.439-1.581l-10.908-19.294a1.164,1.164,0,0,0-1.011-.589h0a1.159,1.159,0,0,0-.57.151l-1.074.607a.778.778,0,0,0-.365.9l3.092,10.524,8.751,9.518A.786.786,0,0,0,195.492,281.446Zm-48.618,8.919,1.772,1.049-.856,1.446a.779.779,0,0,0,.132.964l7.923,7.584,12.33,3.893a.781.781,0,0,0,.909-.347l.63-1.063,1.772,1.049-3.294,5.563h0l-3.093,5.223-1.772-1.049.859-1.45a.779.779,0,0,0-.132-.964l-7.924-7.584-12.33-3.893a.782.782,0,0,0-.909.347l-.632,1.068-1.772-1.05,3.095-5.226h0Zm.4,1.4-.051-.03-2.274,3.84.052.031a1.782,1.782,0,0,1,2.74-.338l5.668,5.425-.5.838-7.482-2.362a1.784,1.784,0,0,1-1.191-2.141l-.112-.066-2.274,3.84.051.03.123-.207a1.782,1.782,0,0,1,2.07-.791l12.552,3.963,8.092,7.746a1.775,1.775,0,0,1,.3,2.2l-.349.59.051.03,2.274-3.839-.052-.031a1.782,1.782,0,0,1-2.737.333l-5.668-5.425.5-.838,7.482,2.362a1.784,1.784,0,0,1,1.19,2.144l.111.067,2.272-3.837-.051-.03-.12.2a1.781,1.781,0,0,1-2.07.791l-12.552-3.963-.084-.081-8.008-7.665a1.775,1.775,0,0,1-.3-2.2Zm3.892,8.166-4.117-3.941a.782.782,0,0,0-1.214.167l-.485.818h0l-.056.1a.782.782,0,0,0,.437,1.145Zm15.256,9.514h0l.253-.428a.782.782,0,0,0-.437-1.144l-5.435-1.716,4.117,3.941a.782.782,0,0,0,1.213-.166Zm148.661-17.381,5.9,10.362-1.79,1.019-.247-.435a1.16,1.16,0,0,0-1.583-.434l-19.26,10.968a1.159,1.159,0,0,0-.434,1.582l.248.435-1.79,1.02-5.9-10.363,1.79-1.018.247.434a1.2,1.2,0,0,0,1.044.631,1.143,1.143,0,0,0,.564-.151l19.261-10.968a1.162,1.162,0,0,0,.434-1.582.515.515,0,0,1,.146-.67c.035-.029.079-.061.137-.1.08-.054.191-.124.33-.207.23-.139.458-.269.468-.274Zm4.537,9.988-4.908-8.619-.092.056a2.165,2.165,0,0,1-.992,2.526l-19.261,10.968a2.145,2.145,0,0,1-1.059.282,2.194,2.194,0,0,1-1.618-.729l-.1.057,4.911,8.625.1-.058a2.162,2.162,0,0,1,1.005-2.483l19.26-10.968a2.159,2.159,0,0,1,2.648.4Zm-4.395-5.373a2.219,2.219,0,0,1,1.914,1.136,2.16,2.16,0,0,1-.808,2.946L297.073,311.73a2.144,2.144,0,0,1-1.059.282,2.22,2.22,0,0,1-1.914-1.136,2.163,2.163,0,0,1,.808-2.946l19.26-10.968A2.145,2.145,0,0,1,315.229,296.679Zm-19.214,14.332a1.142,1.142,0,0,0,.564-.151l19.261-10.967a1.16,1.16,0,0,0,.434-1.582,1.2,1.2,0,0,0-1.045-.631,1.142,1.142,0,0,0-.564.151L295.4,308.8a1.161,1.161,0,0,0-.434,1.582A1.2,1.2,0,0,0,296.015,311.011ZM129.609,338.15h2.06v1.68a.779.779,0,0,0,.6.762l10.682,2.488,12.593-2.933a.779.779,0,0,0,.6-.762V338.15h2.06v17.965h-2.06v-.5a1.175,1.175,0,0,0-1.16-1.213H132.829a1.161,1.161,0,0,0-1.16,1.16.52.52,0,0,1-.459.51c-.045.008-.1.014-.169.019-.1.007-.227.013-.389.017-.268.007-.531.007-.542.007h-.5Zm1.06,1h-.06v4.462h.06a1.78,1.78,0,0,1,2.186-1.686l7.641,1.78v.974l-7.641,1.78a1.78,1.78,0,0,1-2.115-1.236h-.131v9.885l.108,0a2.164,2.164,0,0,1,2.112-1.7h22.165a2.145,2.145,0,0,1,2.107,1.713h.113v-9.891h-.061a1.78,1.78,0,0,1-2.185,1.681l-7.642-1.78v-.974l7.642-1.78a1.779,1.779,0,0,1,2.115,1.241h.131V339.15h-.06v.235a1.775,1.775,0,0,1-1.377,1.736l-12.82,2.986-10.909-2.541a1.775,1.775,0,0,1-1.378-1.736Zm7.51,5.043-5.55-1.293a.8.8,0,0,0-.181-.021.782.782,0,0,0-.779.782v1.063a.782.782,0,0,0,.78.783.8.8,0,0,0,.18-.021Zm17.974.031v-.112a.781.781,0,0,0-.959-.767l-5.551,1.293,5.551,1.293a.8.8,0,0,0,.18.021.782.782,0,0,0,.779-.783Zm146.488-5.785H304.7v.5a1.175,1.175,0,0,0,1.16,1.214h22.164a1.162,1.162,0,0,0,1.161-1.16.52.52,0,0,1,.459-.51c.045-.008.1-.014.169-.019.1-.007.227-.013.389-.017.268-.007.531-.007.542-.007h.5v17.387h-2.06v-.5a1.162,1.162,0,0,0-1.161-1.16H305.861a1.161,1.161,0,0,0-1.16,1.16v.5h-2.059Zm1.112,1h-.112v15.387h.118a2.164,2.164,0,0,1,2.1-1.66h22.164a2.164,2.164,0,0,1,2.1,1.66h.118V339.445l-.108,0a2.164,2.164,0,0,1-2.112,1.7H305.861A2.145,2.145,0,0,1,303.753,339.439Zm2.107,2.8h22.164a2.163,2.163,0,0,1,2.161,2.16v.053a2.163,2.163,0,0,1-2.161,2.16H305.861a2.187,2.187,0,0,1,0-4.374Zm22.164,3.374a1.162,1.162,0,0,0,1.161-1.16V344.4a1.162,1.162,0,0,0-1.161-1.16H305.861a1.161,1.161,0,0,0-1.16,1.16,1.175,1.175,0,0,0,1.16,1.214Zm-183.159-.892,10.909,2.541A1.774,1.774,0,0,1,157.153,349v1.152a2.163,2.163,0,0,1-2.16,2.16H132.829a2.163,2.163,0,0,1-2.16-2.16v-.707a1.774,1.774,0,0,1,1.378-1.736Zm10.127,6.59a1.162,1.162,0,0,0,1.16-1.16V349a.779.779,0,0,0-.6-.762l-10.683-2.489-12.593,2.933a.779.779,0,0,0-.6.762v.707a1.162,1.162,0,0,0,1.16,1.16Zm150.867-3.61h22.164a2.163,2.163,0,0,1,2.161,2.16v.053a2.163,2.163,0,0,1-2.161,2.16H305.861a2.187,2.187,0,0,1,0-4.374Zm22.164,3.374a1.162,1.162,0,0,0,1.161-1.16v-.053a1.162,1.162,0,0,0-1.161-1.16H305.861a1.161,1.161,0,0,0-1.16,1.16,1.175,1.175,0,0,0,1.16,1.214ZM159.084,367.939l8.671,15.07-1.785,1.027-.249-.433a1.2,1.2,0,0,0-1.042-.626,1.143,1.143,0,0,0-.569.153L144.9,394.184a1.16,1.16,0,0,0-.427,1.584l.664,1.155a.621.621,0,0,0,.719.285l22.844-6.9a.622.622,0,0,0,.359-.905l-.524-.91,1.785-1.028,3.223,5.6-1.785,1.028-.439-.763a.622.622,0,0,0-.964-.144l-17.444,16.283a.618.618,0,0,0-.115.764l.782,1.36-1.785,1.028-3.224-5.6L150.356,406l.249.433a.617.617,0,0,0,.541.312.609.609,0,0,0,.422-.167l13.979-13.048-18.306,5.529a.622.622,0,0,0-.359.905l.589,1.023-1.785,1.028-11.4-19.805,1.786-1.027.249.433a1.16,1.16,0,0,0,1.584.427l19.211-11.055a1.16,1.16,0,0,0,.427-1.584l-.25-.433Zm7.306,14.7L158.716,369.3l-.1.059a2.162,2.162,0,0,1-.994,2.487l-19.212,11.055a2.159,2.159,0,0,1-2.649-.391l-.1.059,10.4,18.071.052-.03-.09-.157a1.622,1.622,0,0,1,.937-2.361l20.36-6.15.486.844L152.251,407.3a1.62,1.62,0,0,1-2.194.017l-.121.069,2.226,3.868.052-.03-.284-.494a1.613,1.613,0,0,1,.3-1.995l17.443-16.283a1.622,1.622,0,0,1,2.449.275l.056-.032-2.225-3.868-.052.03.025.044a1.622,1.622,0,0,1-.937,2.361l-22.844,6.9a1.621,1.621,0,0,1-1.875-.744l-.664-1.154a2.16,2.16,0,0,1,.794-2.949l19.212-11.054a2.154,2.154,0,0,1,2.681.434Zm-7.16-10.134a2.193,2.193,0,0,1,1.909,1.128,2.163,2.163,0,0,1-.795,2.95l-19.211,11.054a2.144,2.144,0,0,1-1.067.287,2.193,2.193,0,0,1-1.909-1.128,2.159,2.159,0,0,1,.8-2.95l19.211-11.055A2.144,2.144,0,0,1,159.23,372.507Zm-19.164,14.418a1.143,1.143,0,0,0,.569-.153l19.211-11.054a1.162,1.162,0,0,0,.427-1.584,1.2,1.2,0,0,0-1.042-.626,1.142,1.142,0,0,0-.569.153L139.45,384.715a1.159,1.159,0,0,0-.427,1.584A1.2,1.2,0,0,0,140.066,386.926ZM299,372.783l.433.25c.01.006.238.137.466.277.138.085.249.155.329.21.059.04.1.072.137.1a.515.515,0,0,1,.143.668,1.162,1.162,0,0,0,.423,1.587l19.2,11.082a1.159,1.159,0,0,0,1.585-.424l.277-.479,1.784,1.03-5.951,10.307-1.785-1.03.251-.433a.622.622,0,0,0-.358-.906l-18.3-5.555,13.96,13.068a.611.611,0,0,0,.424.168.617.617,0,0,0,.54-.311l.59-1.022,1.784,1.029L311.7,408l-1.784-1.03.889-1.541a.62.62,0,0,0-.114-.766l-17.42-16.308a.609.609,0,0,0-.423-.168.617.617,0,0,0-.54.311l-.525.91L290,388.377l3.231-5.6,1.784,1.029-.439.762a.622.622,0,0,0,.357.906l22.834,6.933a.621.621,0,0,0,.719-.284l.524-.908a1.161,1.161,0,0,0-.425-1.584l-19.2-11.083a1.159,1.159,0,0,0-1.585.425l-.25.433-1.784-1.03Zm.455,1.428-.092-.057-2.228,3.86.1.059a2.158,2.158,0,0,1,2.649-.387l19.2,11.082a2.162,2.162,0,0,1,.791,2.951l-.525.908a1.621,1.621,0,0,1-1.875.741l-22.834-6.933a1.622,1.622,0,0,1-.99-2.256l-.056-.032-2.231,3.865.052.03.025-.043a1.622,1.622,0,0,1,2.513-.373l17.421,16.308a1.616,1.616,0,0,1,.3,2l-.389.675.052.03,2.231-3.865-.052-.03-.09.157a1.622,1.622,0,0,1-2.514.373l-15.527-14.535.487-.843,20.352,6.178a1.624,1.624,0,0,1,1.116,1.891l.12.069,4.951-8.576-.092-.053a2.158,2.158,0,0,1-2.687.427l-19.2-11.082A2.164,2.164,0,0,1,299.458,374.211Zm-137.5,3.031a2.191,2.191,0,0,1,1.909,1.128,2.16,2.16,0,0,1-.8,2.95l-19.211,11.054a2.142,2.142,0,0,1-1.067.287,2.193,2.193,0,0,1-1.91-1.128,2.162,2.162,0,0,1,.795-2.949l19.212-11.054A2.143,2.143,0,0,1,161.955,377.242ZM142.79,391.66a1.141,1.141,0,0,0,.568-.153l19.211-11.054a1.16,1.16,0,0,0,.427-1.584,1.2,1.2,0,0,0-1.042-.627,1.142,1.142,0,0,0-.569.153l-19.212,11.054a1.161,1.161,0,0,0-.427,1.584A1.2,1.2,0,0,0,142.79,391.66ZM181.875,402.6l10.369,5.89-1.017,1.791-.435-.247a1.276,1.276,0,0,0-.627-.17,1.137,1.137,0,0,0-1,.579L178.216,429.72a1.159,1.159,0,0,0,.435,1.581l1.159.659a.622.622,0,0,0,.764-.119l16.186-17.534a.622.622,0,0,0-.15-.963l-.913-.519,1.017-1.791,5.619,3.192-1.017,1.791-.765-.434a.611.611,0,0,0-.305-.082.621.621,0,0,0-.6.446l-6.772,22.881a.619.619,0,0,0,.289.717l1.365.775-1.017,1.791-5.619-3.192,1.017-1.791.435.247a.612.612,0,0,0,.306.082.62.62,0,0,0,.6-.446l5.427-18.336-12.971,14.051a.622.622,0,0,0,.15.962l1.027.584-1.017,1.791-15.118-8.588,1.017-1.791.435.247a1.159,1.159,0,0,0,1.581-.435l10.948-19.273a1.16,1.16,0,0,0-.436-1.582l-.435-.247Zm9.005,6.266-8.63-4.9-.058.1a2.162,2.162,0,0,1,.405,2.648L171.65,425.99A2.158,2.158,0,0,1,169.169,427l-.058.1,13.379,7.6.029-.052-.158-.09a1.622,1.622,0,0,1-.39-2.51L196.4,416.421l.847.481L191.208,437.3a1.621,1.621,0,0,1-1.883,1.128l-.068.12,3.88,2.2.029-.052-.5-.281a1.615,1.615,0,0,1-.754-1.871l6.772-22.881a1.621,1.621,0,0,1,2.249-1.006l.032-.056-3.88-2.2-.03.052.044.025a1.622,1.622,0,0,1,.39,2.511l-16.186,17.534a1.622,1.622,0,0,1-1.993.31l-1.159-.659a2.159,2.159,0,0,1-.811-2.945l10.947-19.272a2.154,2.154,0,0,1,1.871-1.085,2.234,2.234,0,0,1,.66.1Zm-5.465-2.7h0a2.277,2.277,0,0,1,1.121.3,2.164,2.164,0,0,1,.811,2.945L176.4,428.688a2.154,2.154,0,0,1-1.871,1.085,2.276,2.276,0,0,1-1.121-.3,2.16,2.16,0,0,1-.811-2.945l10.948-19.272A2.155,2.155,0,0,1,185.416,406.17Zm-10.887,22.6a1.137,1.137,0,0,0,1-.579l10.948-19.272a1.163,1.163,0,0,0-.436-1.582,1.275,1.275,0,0,0-.627-.17,1.138,1.138,0,0,0-1,.58l-10.948,19.272a1.16,1.16,0,0,0,.436,1.582A1.275,1.275,0,0,0,174.529,428.774Zm94.819-20.727,1.03,1.784-.762.439a.622.622,0,0,0-.143.963l16.308,17.421a.622.622,0,0,0,.765.113l1.36-.785,1.03,1.784L283.34,433l-1.03-1.784.433-.25a.622.622,0,0,0,.143-.964l-13.069-13.96,5.555,18.3a.62.62,0,0,0,.6.442.612.612,0,0,0,.31-.084l1.023-.59,1.03,1.784-5.6,3.231-1.03-1.784,1.54-.889a.619.619,0,0,0,.284-.719L266.6,412.895a.62.62,0,0,0-.6-.442.613.613,0,0,0-.31.084l-.909.525-1.03-1.784Zm-.334,1.421-.032-.055-3.864,2.231.03.052.044-.025a1.621,1.621,0,0,1,2.363.934l6.932,22.833a1.614,1.614,0,0,1-.741,1.876l-.674.389.03.052,3.864-2.231-.03-.052-.157.091a1.621,1.621,0,0,1-2.363-.934l-6.179-20.351.843-.487,14.536,15.527a1.624,1.624,0,0,1,.021,2.2l.069.119,3.864-2.231-.03-.052-.493.285a1.622,1.622,0,0,1-2-.3l-16.308-17.421a1.622,1.622,0,0,1,.271-2.449Zm-50.673,9.878H224.8v.5c0,.011,0,.274-.007.542,0,.162-.01.293-.017.389-.005.071-.011.124-.019.169a.52.52,0,0,1-.51.459,1.162,1.162,0,0,0-1.16,1.16v22.165a1.162,1.162,0,0,0,1.16,1.16h1.332a.619.619,0,0,0,.606-.481l5.414-23.241a.622.622,0,0,0-.606-.763h-1.05v-2.06h6.462v2.06h-.88a.622.622,0,0,0-.606.763l5.414,23.241a.619.619,0,0,0,.605.481h1.57v2.06h-6.463v-2.06h.5a.622.622,0,0,0,.606-.763L232.818,426.5l-4.338,18.624a.622.622,0,0,0,.605.763h1.181v2.06H218.342v-2.06h.5a1.161,1.161,0,0,0,1.16-1.16V422.566a1.161,1.161,0,0,0-1.16-1.16h-.5Zm5.456,1h-4.456v.118a2.164,2.164,0,0,1,1.66,2.1v22.165a2.164,2.164,0,0,1-1.66,2.1v.118h9.924v-.06h-.181a1.622,1.622,0,0,1-1.579-1.99l4.825-20.715h.974l4.825,20.715a1.623,1.623,0,0,1-1.08,1.911v.138h4.463v-.06h-.57a1.615,1.615,0,0,1-1.579-1.254L233.949,422.4a1.622,1.622,0,0,1,1.46-1.985v-.064h-4.462v.06H231a1.622,1.622,0,0,1,1.58,1.989l-5.414,23.241a1.615,1.615,0,0,1-1.58,1.254h-1.332a2.163,2.163,0,0,1-2.16-2.16V422.566a2.164,2.164,0,0,1,1.7-2.112C223.8,420.42,223.8,420.384,223.8,420.346Z" transform="translate(2.141 2.641)" fill="#b0a671"/></g></svg>