<svg xmlns="http://www.w3.org/2000/svg" width="266.001" height="266.001" viewBox="0 0 266.001 266.001"><path d="M231.068,214.773c1.769,0,3.627.042,5.68.129l.66.028-3.757,11.433a2.72,2.72,0,0,1-5.169,0l-3.757-11.433.66-.028C227.441,214.815,229.3,214.773,231.068,214.773Zm4.978,1.1c-1.78-.068-3.415-.1-4.978-.1s-3.2.033-4.978.1l3.344,10.176a1.72,1.72,0,0,0,3.268,0Zm7.223-.542.545.052c.624.059,1.3.129,2.12.221l.547.061-1.01,4.836a1.121,1.121,0,0,1-2.218-.233Zm2.008,1.206c-.363-.039-.7-.074-1.011-.106l-.013,3.839a.121.121,0,0,0,.1.119l.025,0a.121.121,0,0,0,.118-.1Zm-26.6-1.191.017,4.94a1.121,1.121,0,0,1-1.117,1.125,1.126,1.126,0,0,1-1.1-.892l-1.01-4.833.546-.062c.854-.1,1.508-.166,2.118-.226Zm-1.1,5.065a.121.121,0,0,0,.121-.122l-.013-3.84c-.31.032-.641.067-1.011.108l.785,3.758A.121.121,0,0,0,217.572,220.413Zm39.476-3.1.537.109c.635.128,1.276.269,1.9.4l.729.16-1.516,4.719a1.121,1.121,0,0,1-2.181-.464Zm1.873,1.415c-.33-.072-.664-.145-1-.215l-.417,3.837a.122.122,0,0,0,.084.128.121.121,0,0,0,.151-.078ZM204.9,217.347l.536,4.933a1.121,1.121,0,0,1-2.181.463l-1.515-4.717.92-.2c.556-.123,1.132-.25,1.7-.367Zm-.579,5.175h.014a.121.121,0,0,0,.108-.133l-.417-3.839c-.334.071-.669.145-1,.217l1.18,3.672A.121.121,0,0,0,204.32,222.522Zm66.224-1.788.523.165c.634.2,1.3.416,2.032.66l.522.173-2,4.545a1.121,1.121,0,0,1-2.121-.69Zm1.718,1.6c-.336-.111-.659-.215-.973-.316l-.817,3.78a.12.12,0,0,0,.117.146.122.122,0,0,0,.112-.073Zm-80.854-1.543,1.05,4.855a1.121,1.121,0,0,1-2.121.689l-2-4.544.52-.174c.6-.2,1.243-.41,2.031-.66ZM191.362,226l.026,0a.121.121,0,0,0,.093-.144l-.817-3.78c-.349.112-.669.216-.972.316l1.561,3.539A.122.122,0,0,0,191.362,226Zm92.244-.443.554.241c.625.272,1.271.553,1.9.841l.5.227-2.469,4.31a1.121,1.121,0,0,1-2.037-.908Zm1.543,1.767c-.312-.139-.625-.276-.935-.412l-1.206,3.669a.122.122,0,0,0,.055.143.118.118,0,0,0,.059.016.12.12,0,0,0,.1-.06Zm-106.794-1.691,1.55,4.714a1.121,1.121,0,0,1-2.037.907l-2.467-4.306.5-.228c.642-.293,1.29-.577,1.952-.867Zm.485,5.185a.117.117,0,0,0,.037-.006.121.121,0,0,0,.077-.153l-1.206-3.669q-.472.207-.934.414l1.921,3.353A.123.123,0,0,0,178.839,230.822Zm-9.2-1.034,2.34,11.187a2.654,2.654,0,0,1-.533,2.258,2.8,2.8,0,0,1-2.147,1.028,2.664,2.664,0,0,1-1.8-.7l-8.49-7.593.555-.355c3.023-1.932,6.214-3.787,9.485-5.514Zm-.34,13.473a1.786,1.786,0,0,0,1.371-.658,1.671,1.671,0,0,0,.33-1.423l-2.068-9.886c-2.842,1.519-5.618,3.132-8.27,4.807l7.507,6.714A1.679,1.679,0,0,0,169.3,243.262Zm123.2-13.473.587.31c3.269,1.726,6.46,3.581,9.485,5.513l.555.355-8.49,7.594a2.665,2.665,0,0,1-1.8.7,2.8,2.8,0,0,1-2.146-1.028,2.654,2.654,0,0,1-.533-2.258Zm8.977,6.312c-2.654-1.675-5.43-3.289-8.27-4.806l-2.068,9.886a1.671,1.671,0,0,0,.33,1.423,1.786,1.786,0,0,0,1.37.658,1.68,1.68,0,0,0,1.131-.447Zm6.383,3.07.447.319c.62.443,1.219.884,1.722,1.256l.441.326-3.291,3.682a1.121,1.121,0,0,1-1.805-1.311Zm1.132,2.053c-.26-.191-.536-.393-.821-.6l-1.933,3.321a.121.121,0,0,0,.105.182.119.119,0,0,0,.09-.04Zm-154.869-1.942,2.487,4.273a1.121,1.121,0,0,1-1.805,1.31l-3.291-3.68.44-.326c.577-.428,1.157-.851,1.722-1.256Zm1.518,4.958a.119.119,0,0,0,.06-.017.121.121,0,0,0,.044-.165l-1.933-3.321q-.408.3-.822.6l2.56,2.863A.121.121,0,0,0,155.64,244.239Zm163.14,3.565.411.364c.463.41,1.04.921,1.587,1.42l.405.371-3.656,3.314a1.121,1.121,0,0,1-1.658-1.492Zm.916,2.153c-.258-.233-.516-.462-.757-.677l-2.262,3.091a.122.122,0,0,0,.008.153.121.121,0,0,0,.171.008Zm-176.485-2.026,2.911,3.978a1.12,1.12,0,0,1-1.658,1.491l-3.651-3.31.4-.371c.551-.505,1.109-1,1.583-1.424Zm2.008,4.761a.117.117,0,0,0,.07-.023.121.121,0,0,0,.026-.168l-2.262-3.092c-.242.216-.5.444-.755.678l2.839,2.573A.12.12,0,0,0,145.219,252.692Zm183.532,4.827.371.4c.493.538.974,1.077,1.424,1.584l.365.411-3.979,2.911a1.113,1.113,0,0,1-.661.216,1.121,1.121,0,0,1-.831-1.874Zm.682,2.241c-.221-.248-.448-.5-.678-.756l-2.574,2.839a.121.121,0,0,0,.09.2.117.117,0,0,0,.071-.023Zm-196.18-2.1,3.314,3.656a1.121,1.121,0,0,1-1.493,1.657l-3.976-2.909.415-.468c.446-.5.907-1.023,1.369-1.529Zm2.485,4.529a.121.121,0,0,0,.089-.2l-2.575-2.841c-.227.252-.453.506-.676.757l3.09,2.261A.122.122,0,0,0,135.738,262.187Zm201.919,6.032.326.44c.44.593.862,1.173,1.256,1.722l.32.447-4.272,2.486a1.121,1.121,0,0,1-1.311-1.8Zm.448,2.3q-.291-.4-.6-.822l-2.863,2.56a.122.122,0,0,0-.024.151.12.12,0,0,0,.1.06.119.119,0,0,0,.061-.017Zm-213.739-2.144,3.682,3.292a1.121,1.121,0,0,1-1.311,1.8l-4.272-2.485.319-.447c.392-.549.786-1.085,1.256-1.722Zm2.935,4.248a.119.119,0,0,0,.09-.04.121.121,0,0,0-.009-.171l-2.863-2.56c-.211.287-.408.556-.6.821l3.322,1.933A.12.12,0,0,0,127.3,272.621Zm-8.04,3.094,7.594,8.49a2.681,2.681,0,0,1,.46,2.915,2.712,2.712,0,0,1-2.46,1.623,2.867,2.867,0,0,1-.586-.062l-11.188-2.339.31-.587c1.728-3.271,3.583-6.462,5.514-9.485Zm5.595,12.028a1.689,1.689,0,0,0,1.547-1.031,1.672,1.672,0,0,0-.293-1.84l-6.714-7.507c-1.674,2.652-3.288,5.428-4.807,8.27l9.887,2.067A1.866,1.866,0,0,0,124.856,287.743Zm218.019-12.028.355.555c1.934,3.028,3.789,6.219,5.514,9.485l.31.587-11.188,2.339a2.865,2.865,0,0,1-.585.062,2.712,2.712,0,0,1-2.459-1.622,2.682,2.682,0,0,1,.46-2.915Zm4.672,9.92c-1.517-2.838-3.13-5.615-4.807-8.27l-6.714,7.507a1.672,1.672,0,0,0-.292,1.84,1.689,1.689,0,0,0,1.546,1.031,1.864,1.864,0,0,0,.381-.04Zm4.342,6.47.228.5c.292.64.577,1.289.867,1.952l.22.5-4.714,1.549a1.121,1.121,0,0,1-.907-2.037Zm-.042,2.348q-.207-.472-.414-.934l-3.353,1.921a.121.121,0,0,0,.06.225.125.125,0,0,0,.039-.006Zm-241.682-2.175,4.31,2.468a1.121,1.121,0,0,1-.907,2.038l-4.711-1.549.27-.621c.262-.6.534-1.226.811-1.836Zm3.752,3.562a.121.121,0,0,0,.105-.061.121.121,0,0,0-.045-.165l-3.355-1.921c-.139.312-.276.625-.411.935l3.669,1.206A.117.117,0,0,0,113.917,295.84Zm243.133,9.2.174.52c.2.6.41,1.245.66,2.032l.166.524-4.855,1.05a1.121,1.121,0,0,1-.689-2.121Zm-.286,2.331c-.112-.348-.216-.669-.316-.972l-3.539,1.561a.121.121,0,0,0,.048.232l.026,0ZM105.026,305.22l4.545,2a1.121,1.121,0,0,1-.69,2.121l-4.853-1.048.164-.523c.2-.635.415-1.3.66-2.033Zm4.092,3.151a.121.121,0,0,0,.11-.072.118.118,0,0,0,0-.092.12.12,0,0,0-.064-.067l-3.538-1.561c-.111.336-.216.659-.316.973l3.78.817Zm251.7,10.073.192.867c.127.574.259,1.167.379,1.756l.11.538-4.933.536a1.138,1.138,0,0,1-.122.007,1.121,1.121,0,0,1-.341-2.188Zm-.522,2.285c-.071-.334-.145-.669-.218-1l-3.671,1.18a.121.121,0,0,0,.05.235Zm-259.014-2.1L106,320.147a1.121,1.121,0,0,1-.464,2.182l-4.929-.535.109-.537c.133-.654.277-1.313.417-1.949Zm4.376,2.7a.121.121,0,0,0,.115-.084.121.121,0,0,0-.078-.153l-3.671-1.179c-.072.33-.144.664-.215,1l3.837.417Zm257.5,10.836.062.546c.066.583.151,1.35.225,2.119l.053.546-4.94.017a1.121,1.121,0,0,1-.233-2.218Zm-.763,2.215c-.036-.353-.073-.7-.108-1.011l-3.758.785a.121.121,0,0,0,.024.239ZM98.959,332.361l4.836,1.01a1.121,1.121,0,0,1-.229,2.218l-4.941-.017.052-.546c.062-.647.134-1.34.221-2.118Zm4.606,2.228a.121.121,0,0,0,.026-.239l-3.759-.785c-.038.353-.073.688-.106,1.011Zm260.346,6.843.028.66c.087,2.07.129,3.929.129,5.681s-.042,3.611-.129,5.681l-.028.66-11.433-3.757a2.721,2.721,0,0,1,0-5.169Zm-.945,11.319c.068-1.793.1-3.428.1-4.978s-.033-3.184-.1-4.978l-10.176,3.344a1.721,1.721,0,0,0,0,3.269ZM98.223,341.433l11.433,3.756a2.72,2.72,0,0,1,0,5.169l-11.433,3.757-.028-.66c-.087-2.07-.129-3.928-.129-5.681s.042-3.611.129-5.68Zm.945,11.319,10.176-3.344a1.72,1.72,0,0,0,0-3.269L99.168,342.8c-.068,1.793-.1,3.427-.1,4.978S99.1,350.958,99.168,352.751Zm259.4,7.206h0l4.935.017-.052.545c-.058.615-.128,1.289-.221,2.119l-.061.547-4.836-1.01a1.121,1.121,0,0,1-.868-1.326A1.125,1.125,0,0,1,358.569,359.958Zm3.84,1.013-3.839-.013v0a.121.121,0,0,0-.118.1.121.121,0,0,0,.093.143l3.758.785C362.342,361.617,362.377,361.284,362.409,360.971Zm-258.827-.823h0a1.121,1.121,0,0,1,.231,2.218l-4.833,1.01-.062-.546c-.075-.668-.155-1.387-.226-2.119l-.053-.546Zm-3.728,2.024,3.757-.785a.121.121,0,0,0-.026-.239v0l-3.839.013C99.78,361.5,99.817,361.843,99.853,362.172Zm256.627,11.04a1.121,1.121,0,0,1,.121.007l4.929.535-.109.537c-.134.66-.28,1.325-.421,1.969l-.144.656-4.719-1.516a1.121,1.121,0,0,1,.343-2.188Zm3.849,1.417-3.836-.417h-.013a.121.121,0,0,0-.108.176.118.118,0,0,0,.07.059l3.672,1.179C360.187,375.3,360.26,374.963,360.33,374.629ZM105.694,373.4h0a1.121,1.121,0,0,1,.341,2.188l-4.716,1.514-.186-.842c-.129-.582-.262-1.183-.384-1.781l-.11-.538,4.933-.535A1.112,1.112,0,0,1,105.694,373.4Zm-3.634,2.415,3.672-1.179a.121.121,0,0,0-.05-.235l-3.839.417C101.914,375.151,101.987,375.485,102.06,375.814Zm250.958,10.361a1.125,1.125,0,0,1,.236.025l4.855,1.05-.165.523c-.2.635-.416,1.3-.66,2.032l-.174.521-4.544-2a1.121,1.121,0,0,1,.453-2.147Zm3.805,1.82-3.78-.817a.12.12,0,0,0-.136.069.118.118,0,0,0,0,.093.119.119,0,0,0,.065.067l3.538,1.561C356.617,388.632,356.722,388.309,356.823,388Zm-247.645-1.638a1.121,1.121,0,0,1,.451,2.146l-4.544,2-.174-.52c-.209-.624-.424-1.289-.66-2.033l-.166-.524,4.855-1.049A1.125,1.125,0,0,1,109.178,386.358Zm-3.491,2.792,3.539-1.561a.121.121,0,0,0-.048-.231l-.026,0-3.781.817C105.48,388.516,105.585,388.839,105.687,389.15Zm242.531,9.557h0a1.115,1.115,0,0,1,.349.056l4.712,1.549-.308.7c-.251.575-.51,1.17-.775,1.752l-.227.5-4.31-2.468a1.121,1.121,0,0,1,.558-2.093Zm3.706,2.212-3.669-1.206a.118.118,0,0,0-.037-.006.12.12,0,0,0-.1.06.12.12,0,0,0,.044.165l3.355,1.922C351.652,401.542,351.789,401.228,351.924,400.919ZM114,398.881a1.121,1.121,0,0,1,.556,2.094l-4.305,2.466-.228-.5c-.294-.644-.577-1.291-.866-1.952l-.22-.5,4.713-1.549A1.119,1.119,0,0,1,114,398.881Zm-3.294,3.146,3.353-1.92a.121.121,0,0,0-.1-.219l-3.669,1.206Q110.5,401.564,110.7,402.027Zm14.153,4.776h0a2.713,2.713,0,0,1,2.459,1.623,2.682,2.682,0,0,1-.46,2.915l-7.594,8.49-.355-.555c-1.929-3.019-3.784-6.211-5.514-9.485l-.31-.587,11.188-2.339A2.866,2.866,0,0,1,124.855,406.8Zm-5.46,11.378,6.714-7.506a1.673,1.673,0,0,0,.292-1.841,1.69,1.69,0,0,0-1.547-1.031,1.864,1.864,0,0,0-.38.04l-9.887,2.067C116.109,412.756,117.723,415.532,119.4,418.181ZM337.28,406.8a2.869,2.869,0,0,1,.585.061l11.188,2.339-.31.587c-1.728,3.272-3.583,6.464-5.513,9.485l-.355.555-7.595-8.49a2.683,2.683,0,0,1-.46-2.916A2.712,2.712,0,0,1,337.28,406.8Zm10.267,3.108-9.887-2.067a1.865,1.865,0,0,0-.38-.04,1.724,1.724,0,0,0-1.254,2.872l6.715,7.506C344.414,415.531,346.028,412.754,347.547,409.911Zm-12.712,12.015a1.124,1.124,0,0,1,.563.151l4.272,2.487-.319.447c-.41.574-.828,1.142-1.255,1.722l-.326.442-3.682-3.293a1.121,1.121,0,0,1,.747-1.956Zm3.382,2.949-3.321-1.933a.122.122,0,0,0-.061-.016.119.119,0,0,0-.09.04.121.121,0,0,0,.009.171l2.863,2.56Q337.921,425.284,338.217,424.875Zm-210.806-2.795h0a1.121,1.121,0,0,1,.747,1.956l-3.68,3.291-.326-.441c-.451-.609-.862-1.172-1.256-1.722l-.32-.447,4.272-2.486A1.122,1.122,0,0,1,127.412,422.081Zm-2.781,3.771,2.863-2.56a.121.121,0,0,0-.081-.211.118.118,0,0,0-.06.016l-3.321,1.932C124.225,425.3,124.424,425.57,124.63,425.851ZM326.4,432.36a1.113,1.113,0,0,1,.662.216l3.975,2.91-.368.416c-.461.52-.937,1.058-1.415,1.581l-.371.405-3.314-3.656a1.121,1.121,0,0,1,.83-1.874Zm3.162,3.285-3.09-2.262a.121.121,0,0,0-.153.008.121.121,0,0,0-.008.171l2.575,2.84C329.111,436.151,329.337,435.9,329.56,435.645Zm-193.7-3.143a1.121,1.121,0,0,1,.83,1.874l-3.312,3.652-.371-.4c-.492-.536-.973-1.076-1.423-1.583l-.365-.411,3.979-2.911A1.113,1.113,0,0,1,135.865,432.5Zm-2.484,4.041,2.574-2.839a.122.122,0,0,0,.008-.153.12.12,0,0,0-.1-.049.118.118,0,0,0-.071.024l-3.091,2.262C132.924,436.036,133.15,436.289,133.381,436.543Zm183.536,5.313a1.119,1.119,0,0,1,.754.291l3.652,3.311-.4.371c-.538.494-1.078.974-1.584,1.424l-.411.365-2.911-3.979a1.121,1.121,0,0,1,.9-1.783Zm2.921,3.6L317,442.887a.123.123,0,0,0-.153-.008.121.121,0,0,0-.026.169l2.262,3.091C319.33,445.918,319.583,445.691,319.837,445.46Zm-174.477-3.477a1.12,1.12,0,0,1,.9,1.783l-2.91,3.976-.411-.364c-.491-.434-1.047-.926-1.587-1.42l-.405-.371,3.656-3.314A1.119,1.119,0,0,1,145.361,441.984Zm-2.165,4.283,2.261-3.09a.122.122,0,0,0-.008-.153.121.121,0,0,0-.171-.008l-2.84,2.574C142.695,445.82,142.95,446.048,143.2,446.266Zm163.3,4.041a1.122,1.122,0,0,1,.837.374l3.291,3.68-.441.326c-.593.439-1.172.862-1.722,1.256l-.447.32-2.486-4.273a1.121,1.121,0,0,1,.968-1.685Zm2.651,3.9-2.56-2.863a.122.122,0,0,0-.151-.024.12.12,0,0,0-.044.165l1.933,3.321Q308.727,454.518,309.146,454.211ZM155.795,450.42h0a1.121,1.121,0,0,1,.968,1.684l-2.487,4.272-.447-.319c-.55-.393-1.086-.786-1.722-1.256l-.441-.326,3.292-3.682A1.125,1.125,0,0,1,155.795,450.42Zm-1.829,4.5L155.9,451.6a.122.122,0,0,0-.024-.151.118.118,0,0,0-.08-.03.121.121,0,0,0-.091.041l-2.559,2.863C153.431,454.534,153.7,454.731,153.966,454.923Zm15.331-3.638a2.8,2.8,0,0,1,2.147,1.028,2.654,2.654,0,0,1,.533,2.258l-2.34,11.187-.587-.31c-3.27-1.727-6.461-3.582-9.485-5.513l-.555-.355,8.49-7.594A2.664,2.664,0,0,1,169.3,451.285Zm-.367,12.967L171,454.366a1.671,1.671,0,0,0-.33-1.423,1.786,1.786,0,0,0-1.371-.659,1.679,1.679,0,0,0-1.13.447l-7.507,6.714C163.312,461.12,166.089,462.734,168.93,464.252Zm123.909-12.967h0a2.665,2.665,0,0,1,1.8.7l8.49,7.594-.555.355c-3.024,1.932-6.215,3.787-9.485,5.513l-.587.31-2.34-11.187a2.654,2.654,0,0,1,.533-2.258A2.8,2.8,0,0,1,292.838,451.285Zm8.637,8.161-7.507-6.714a1.68,1.68,0,0,0-1.13-.447h0a1.785,1.785,0,0,0-1.37.658,1.671,1.671,0,0,0-.33,1.423l2.068,9.886C296.046,462.734,298.823,461.121,301.476,459.446ZM283.3,463.725a1.122,1.122,0,0,1,.972.564l2.466,4.306-.5.228c-.662.3-1.347.6-1.952.866l-.5.22-1.549-4.713a1.121,1.121,0,0,1,1.065-1.471Zm2.025,4.414-1.92-3.354a.121.121,0,0,0-.142-.054.12.12,0,0,0-.077.152l1.206,3.669C284.691,468.419,285.006,468.28,285.321,468.139ZM179.014,463.8h0a1.121,1.121,0,0,1,1.064,1.471l-1.549,4.711-.623-.271c-.6-.262-1.225-.533-1.834-.81l-.5-.227,2.468-4.31A1.123,1.123,0,0,1,179.014,463.8Zm-1.092,4.827,1.206-3.669a.12.12,0,0,0-.054-.142.119.119,0,0,0-.06-.017.12.12,0,0,0-.1.06l-1.922,3.355C177.3,468.357,177.612,468.495,177.922,468.63Zm53.145-1.317a2.681,2.681,0,0,1,2.584,1.871l3.757,11.434-.66.028c-2.069.087-3.927.129-5.68.129s-3.612-.042-5.681-.129l-.66-.028,3.757-11.434A2.681,2.681,0,0,1,231.068,467.313Zm4.978,12.36L232.7,469.5a1.72,1.72,0,0,0-3.268,0l-3.344,10.177c1.793.068,3.427.1,4.978.1S234.253,479.741,236.045,479.673Zm34.728-11.13a1.12,1.12,0,0,1,1.025.669l2,4.544-.52.174c-.618.207-1.283.422-2.032.66l-.524.166-1.05-4.854a1.122,1.122,0,0,1,1.1-1.358Zm1.671,4.611-1.561-3.539a.121.121,0,0,0-.136-.069.121.121,0,0,0-.093.144l.817,3.78C271.812,473.36,272.135,473.256,272.444,473.154Zm-80.9-4.552h0a1.122,1.122,0,0,1,1.1,1.358l-1.049,4.853-.523-.165c-.608-.191-1.254-.4-2.032-.66l-.522-.173,2.005-4.545A1.12,1.12,0,0,1,191.544,468.6Zm-.7,4.927.817-3.78a.122.122,0,0,0-.118-.147h0a.12.12,0,0,0-.11.072l-1.562,3.539C190.219,473.326,190.54,473.431,190.846,473.529Zm66.97-1.5a1.115,1.115,0,0,1,1.066.779l1.514,4.716-.836.185c-.584.129-1.187.263-1.787.385l-.538.11-.535-4.933a1.122,1.122,0,0,1,1.115-1.242Zm1.293,4.756-1.179-3.672a.121.121,0,0,0-.127-.083.121.121,0,0,0-.108.133l.417,3.839C258.445,476.928,258.779,476.854,259.108,476.781Zm-54.6-4.716a1.122,1.122,0,0,1,1.114,1.243l-.535,4.927-.537-.108c-.632-.128-1.27-.268-1.886-.4l-.739-.162,1.516-4.719A1.116,1.116,0,0,1,204.508,472.065Zm-.3,4.97.417-3.836a.121.121,0,0,0-.235-.051l-1.179,3.672C203.544,476.893,203.878,476.965,204.212,477.035Zm40.347-2.9h0a1.125,1.125,0,0,1,1.1.892l1.01,4.833-.546.062c-.67.076-1.391.155-2.119.226l-.546.053-.017-4.94a1.121,1.121,0,0,1,1.117-1.124Zm.908,4.853-.785-3.757a.121.121,0,0,0-.118-.1v0a.121.121,0,0,0-.12.121l.013,3.841C244.8,479.061,245.136,479.024,245.466,478.988Zm-27.7-4.833h0a1.122,1.122,0,0,1,1.122,1.124l-.017,4.936-.545-.052c-.638-.061-1.331-.132-2.119-.22l-.547-.061,1.01-4.836A1.125,1.125,0,0,1,217.762,474.154Zm.109,4.96.013-3.838a.122.122,0,0,0-.1-.119.121.121,0,0,0-.143.093l-.785,3.759C217.215,479.047,217.55,479.082,217.871,479.114Z" transform="translate(-98.067 -214.773)" fill="#b0a671"/></svg>