<svg xmlns="http://www.w3.org/2000/svg" viewBox="0 0 19.76 27.24"><defs><style>.a{fill:#f4c8dd;}</style></defs><path class="a" d="M8.06,15.7c.48-.59-2.57-5.66-3.7-6.61l0,0a1.65,1.65,0,0,1,.08-2.21,1.59,1.59,0,0,1,2.07.58c1,3.21,2.7,7.26,3.49,7.24s2.38-4.31,3.2-7.59a1.52,1.52,0,0,1,1.9-.48,1.42,1.42,0,0,1,.45,1.53,2.67,2.67,0,0,0-.46.43c-.94,1.14-3,6.69-2.45,7.18s5.6-2.6,6.53-3.74a2.71,2.71,0,0,0-.34-3.79A2.64,2.64,0,0,0,17,7.61a2.22,2.22,0,0,0-1-2.39,2.23,2.23,0,0,0-2.36-.14,6,6,0,0,0,.11-1.14,4,4,0,1,0-8,.19,8.34,8.34,0,0,0,.18,1.22,2.19,2.19,0,0,0-2.47.17,2.12,2.12,0,0,0-.68,2.89l.06.07a2.61,2.61,0,0,0-2.21.95A2.71,2.71,0,0,0,1,13.22C2.08,14.17,7.57,16.29,8.06,15.7Zm9.35-5.78a1.75,1.75,0,0,1-.07,2.41c-.67.81-4,3.18-4.31,2.91s1.38-4,2-4.81A1.71,1.71,0,0,1,17.41,9.92ZM9.71,3.31c1.22,0,2.23,1.22,2.27,2.79s-1.4,7.56-2,7.57S7.61,7.78,7.57,6.21,8.49,3.34,9.71,3.31ZM2.29,10.85a1.7,1.7,0,0,1,2.39.07c.79.67,3.13,4,2.87,4.35s-4-1.39-4.76-2.06A1.75,1.75,0,0,1,2.29,10.85Z"/><path class="a" d="M9.9,17.8a1,1,0,1,0-1-1A1,1,0,0,0,9.9,17.8Z"/><path class="a" d="M2.68,19.31A2.42,2.42,0,0,0,.29,21.76c0,1.35,1.88,5.48,2.39,5.48s2.4-4.13,2.4-5.48A2.42,2.42,0,0,0,2.68,19.31Zm0,6.84c-.32,0-1.5-2.59-1.5-3.43a1.52,1.52,0,0,1,1.5-1.54,1.53,1.53,0,0,1,1.51,1.54C4.19,23.56,3,26.15,2.68,26.15Z"/><path class="a" d="M7.48,19.31a2.43,2.43,0,0,0-2.4,2.45c0,1.35,1.89,5.48,2.4,5.48s2.4-4.13,2.4-5.48A2.42,2.42,0,0,0,7.48,19.31Zm0,6.84c-.32,0-1.5-2.59-1.5-3.43a1.5,1.5,0,1,1,3,0C9,23.56,7.8,26.15,7.48,26.15Z"/><path class="a" d="M12.28,19.31a2.42,2.42,0,0,0-2.4,2.45c0,1.35,1.89,5.48,2.4,5.48s2.4-4.13,2.4-5.48A2.43,2.43,0,0,0,12.28,19.31Zm0,6.84c-.32,0-1.5-2.59-1.5-3.43a1.5,1.5,0,1,1,3,0C13.78,23.56,12.6,26.15,12.28,26.15Z"/><path class="a" d="M17.08,19.31a2.42,2.42,0,0,0-2.4,2.45c0,1.35,1.88,5.48,2.4,5.48s2.39-4.13,2.39-5.48A2.42,2.42,0,0,0,17.08,19.31Zm0,6.84c-.32,0-1.51-2.59-1.51-3.43a1.51,1.51,0,1,1,3,0C18.58,23.56,17.4,26.15,17.08,26.15Z"/></svg>