<svg xmlns="http://www.w3.org/2000/svg" width="109.349" height="672.998" viewBox="0 0 109.349 672.998"><path d="M1568.707,298.546a4.645,4.645,0,0,0,2.5-.533,4.43,4.43,0,0,0,2.081-3.7,5.407,5.407,0,0,0,.157-.886,5.01,5.01,0,0,0-3.244-4.74,7.149,7.149,0,0,0-5.3.157,3.271,3.271,0,0,0-1.679,1.637,5.376,5.376,0,0,0-.785,1.671c-1.436,5.269,3.8,8.943,7.961,10.386,11.559,4.012,23.863-7.967,23.121-19.411a1.065,1.065,0,0,0-2.128,0,19.254,19.254,0,0,1-8.4,14.534,16.2,16.2,0,0,1-6.982,2.084,14.371,14.371,0,0,1-4.738-.4A8.448,8.448,0,0,1,1568.707,298.546Z" transform="translate(-1544.416 29.443)" fill="#f4c8dd"/><path d="M1568.707,305.523a4.66,4.66,0,0,1,2.5.534,4.406,4.406,0,0,1,2.081,3.693,5.441,5.441,0,0,1,.157.889,5.015,5.015,0,0,1-3.242,4.74,7.119,7.119,0,0,1-5.3-.157,3.252,3.252,0,0,1-1.676-1.631,5.445,5.445,0,0,1-.789-1.676c-1.434-5.271,3.8-8.946,7.958-10.385,11.562-4.015,23.865,7.967,23.124,19.408a1.065,1.065,0,0,1-2.128,0,19.249,19.249,0,0,0-8.4-14.537,16.319,16.319,0,0,0-6.982-2.085,14.371,14.371,0,0,0-4.738.409A8.393,8.393,0,0,0,1568.707,305.523Z" transform="translate(-1544.415 39.489)" fill="#f4c8dd"/><path d="M1602.639,301.64a1.561,1.561,0,0,0,0-2.739c-4.109-1.168-7.016-4.463-11.442-4.191-1.262.075-4.466,1.784-5.256,2.111-2.692,1.122-5.614,1.551-8.395,2.4a1.1,1.1,0,0,0,0,2.1c2.781.848,5.7,1.271,8.395,2.4.789.329,4,2.041,5.256,2.114C1595.623,306.1,1598.53,302.8,1602.639,301.64Z" transform="translate(-1576.774 36.232)" fill="#f4c8dd"/><g transform="translate(24.829 0)"><path d="M1596.184,383.519a23.576,23.576,0,0,1-7.738,6.961c-.694.392-6.407,2.244-8.977,2.241a23.545,23.545,0,0,1-2.755-.118c-6.816-.768-12.7-5.826-15.263-12.153-2.427-6-2.594-13.63,2.236-18.586a14.839,14.839,0,0,1,18.045-2.715c5.045,2.932,8.587,8.6,7.845,14.7-.862,7.011-8.753,9.712-14.54,6.63-2.982-1.585-5.791-4.925-4.54-8.643,1-2.995,3.841-5.514,7.12-3.967,2.374,1.12,4.737,4.861,1.551,6.745a4.3,4.3,0,0,1-3.883.125,2.414,2.414,0,0,0,1.648,2.442c.54.222,1.077.449,1.6.672a7.356,7.356,0,0,0,3.958-.043c3.052-1.134,4.078-4.286,3.752-7.376-1.151-10.739-18.587-12.516-21.764-2.273a16.108,16.108,0,0,0,1.5,13.164c3.015,4.808,8.062,8.347,13.924,7.981,6.27-.385,10.409-3.635,14.281-8.075a39.158,39.158,0,0,0,4.654-18.609,30.853,30.853,0,0,0-2.786-8.361,33.519,33.519,0,0,0-9.826-11.191c-1.468-1.071-3.456-2.19-2.248-4.149.8-1.322,2.641-1.987,3.767-2.979a24.977,24.977,0,0,0,4.877-5.773,25.616,25.616,0,0,0,3.333-14.635c-.137-1.807-.345-3.621-.514-5.425-2.7,10.76-9.983,20.7-20.7,16.79-4.495-1.639-8.649-8.795-4.649-12.784,3.466-3.45,8.13.36,8.373,4.2.237,3.761-5.983,3.359-5.246-.717-1.722,9.5,9.732,7.042,13.658,2.813a21.55,21.55,0,0,0,5.311-9.432c2.305-9.151,1.7-18.818.035-28.027-2.008-11.09-7.295-22.51-17.122-28.53a1.307,1.307,0,0,1,.348-2.313c6.176-8.978,7.816-20.514,7.1-32.839-.083-.317-.142-.636-.228-.957-.494-1.933-.757-3.963-1.157-5.922-.42-2.078-.851-4.172-1.276-6.248-.84-4.189-1.759-8.363-2.688-12.53-2.4-10.8-5.072-21.533-7.872-32.216-.688-2.321-1.342-4.591-1.914-6.7-7.356-27.121-12.825-52.33-33.975-71.91-1.583-1.468.436-3.861,2.215-2.91,11.113,5.95,16.408,15.234,20.508,27.141,2.3,6.69,4.481,13.466,6.58,20.271,4.935,13.516,8.135,27.852,11.676,41.733.568,2.213,1.1,4.431,1.653,6.65,6.511,23.79,17.031,57.6,1.931,77.427a26.119,26.119,0,0,1,8,6.428c8.319,10.011,10,24.926,11.083,37.478.634,7.325,1.884,14.6,2.523,21.945q.99,11.609,1.817,23.236c.447,6.251.847,12.47.842,18.721a33.426,33.426,0,0,1-.354,6.644C1600.764,373.171,1599.51,378.719,1596.184,383.519Z" transform="translate(-1532.871 -79.659)" fill="#f4c8dd"/><path d="M1567.423,551.58c.573-2.111,1.225-4.375,1.915-6.7,2.8-10.691,5.471-21.419,7.871-32.213.93-4.172,1.848-8.343,2.688-12.533.425-2.079.856-4.174,1.276-6.248.4-1.959.663-3.99,1.157-5.919.086-.323.145-.642.228-.96.722-12.328-.919-23.864-7.1-32.841a1.3,1.3,0,0,1-.348-2.311c9.828-6.027,15.114-17.441,17.122-28.526,1.665-9.214,2.265-18.884-.036-28.032a21.571,21.571,0,0,0-5.311-9.438c-3.926-4.223-15.38-6.674-13.658,2.819-.737-4.08,5.483-4.48,5.246-.723-.243,3.838-4.907,7.656-8.373,4.2-4-3.989.155-11.15,4.649-12.782,10.72-3.915,18.005,6.031,20.7,16.785.169-1.805.377-3.613.514-5.422a25.617,25.617,0,0,0-3.333-14.638,24.855,24.855,0,0,0-4.877-5.771c-1.127-1-2.967-1.656-3.767-2.978-1.208-1.967.779-3.081,2.248-4.155A33.441,33.441,0,0,0,1596.063,352a30.749,30.749,0,0,0,2.786-8.361,39.166,39.166,0,0,0-4.654-18.606c-3.872-4.44-8.011-7.687-14.281-8.072-5.862-.366-10.911,3.169-13.924,7.976a16.1,16.1,0,0,0-1.5,13.161c3.176,10.249,20.613,8.472,21.764-2.268.326-3.087-.7-6.24-3.752-7.376a7.432,7.432,0,0,0-3.958-.043c-.523.223-1.06.445-1.6.676a2.4,2.4,0,0,0-1.648,2.441,4.3,4.3,0,0,1,3.883.122c3.186,1.891.823,5.626-1.551,6.751-3.279,1.547-6.12-.974-7.12-3.974-1.252-3.715,1.557-7.058,4.54-8.636,5.786-3.09,13.678-.389,14.54,6.625.742,6.094-2.8,11.77-7.845,14.7a14.83,14.83,0,0,1-18.045-2.721c-4.836-4.949-4.663-12.581-2.236-18.581,2.564-6.33,8.447-11.385,15.263-12.156a24.952,24.952,0,0,1,2.755-.115c3.32-.051,8.275,1.853,8.969,2.242a23.609,23.609,0,0,1,7.739,6.959c3.324,4.8,4.58,10.346,5.731,15.966a33.5,33.5,0,0,1,.354,6.65c0,6.248-.394,12.467-.84,18.718q-.813,11.63-1.818,23.239c-.639,7.345-1.89,14.62-2.522,21.945-1.083,12.55-2.765,27.467-11.083,37.476a26.2,26.2,0,0,1-8,6.431c15.1,19.823,4.581,53.638-1.931,77.424-.552,2.213-1.083,4.434-1.653,6.644-3.54,13.887-6.74,28.219-11.674,41.737-2.1,6.8-4.281,13.58-6.582,20.274-4.092,11.9-9.385,21.188-20.5,27.136-1.779.953-3.8-1.44-2.215-2.9C1554.6,603.9,1560.067,578.692,1567.423,551.58Z" transform="translate(-1532.876 46.39)" fill="#f4c8dd"/></g><path d="M1525.4,744.545c4.831-8.783,7.533-18.5,10.856-27.906,3.455-9.786,6.4-19.751,9.1-29.763,2.893-10.765,5.525-21.6,8.061-32.441,2.5-10.685,4.92-21.4,7.171-32.148q3.379-16.092,6.156-32.312c1.913-11.251,3.569-22.548,5.054-33.861q2.269-17.375,4.024-34.814c1.177-11.588,2.2-23.2,2.973-34.828,1.647-24.561,2.247-49.184,2.21-73.8q-.046-17.244-.534-34.472-.506-17.705-1.676-35.389c-.777-11.634-1.8-23.239-2.973-34.834q-1.773-17.428-4.031-34.814c-1.484-11.308-3.14-22.6-5.054-33.854q-2.752-16.226-6.156-32.319c-2.25-10.743-4.669-21.456-7.17-32.144-2.538-10.842-5.169-21.677-8.063-32.438-2.695-10.02-5.638-19.98-9.1-29.765-3.317-9.4-6.019-19.117-10.85-27.906-.275-.509-.8-2.058-1.6-1.958-.852.122-.751,1.667-.691,2.238.706,6.468,4.432,12.01,6.356,18.118q2.29,7.248,4.54,14.506,4.522,14.58,8.771,29.246,4.254,14.825,8.062,29.761,3.851,15.159,7.1,30.46,3.308,15.579,5.948,31.288,2.691,16.039,4.734,32.164c1.388,10.991,2.55,22,3.55,33.024q1.519,16.863,2.527,33.758c.706,11.436,1.271,22.872,1.761,34.32.934,22.1,1.583,44.249.777,66.376q-.372,9.788-.777,19.581c-.49,11.444-1.053,22.881-1.761,34.314q-1.032,16.9-2.527,33.761c-1,11.028-2.162,22.031-3.55,33.021q-2.05,16.117-4.734,32.171-2.634,15.7-5.948,31.286-3.243,15.3-7.1,30.457-3.783,14.942-8.062,29.76-4.22,14.672-8.771,29.249-2.241,7.262-4.54,14.506c-1.924,6.1-5.65,11.651-6.356,18.118-.06.573-.161,2.125.691,2.233C1524.6,746.605,1525.127,745.06,1525.4,744.545Z" transform="translate(-1471.66 -77.978)" fill="#f4c8dd"/><path d="M1547.752,323.193a.851.851,0,0,1-.051-.288.837.837,0,0,1,.2-.549l7.324-8.378a.833.833,0,0,1,1.46.548c0,.026,0,.054,0,.08l-.377,3.863c4.449-1.42,7.353-3.69,8.873-6.933a2.872,2.872,0,0,0-2.6-4.09l-8.792-.38v2.264a1.435,1.435,0,0,0,.493,1.083c.209.183.412.349.6.5a18.785,18.785,0,0,0-3,3,18.79,18.79,0,0,0-3-3h0c.189-.146.392-.314.6-.5a1.441,1.441,0,0,0,.492-1.083V306.9l-3.452-.149a6.531,6.531,0,1,1-.019-2.519l3.47-.128v-2.35a1.438,1.438,0,0,0-.492-1.083c-.211-.183-.414-.351-.6-.5a18.794,18.794,0,0,0,3-3,18.788,18.788,0,0,0,3,3c-.188.146-.391.314-.6.5a1.433,1.433,0,0,0-.493,1.083v2.208l8.792-.325a2.873,2.873,0,0,0,2.6-4.091c-1.517-3.236-4.412-5.5-8.844-6.924l.348,3.57c0,.028,0,.054,0,.082a.833.833,0,0,1-1.46.546l-7.324-8.378a.836.836,0,0,1-.2-.548.853.853,0,0,1,.051-.289.838.838,0,0,1,.662-.536l10.911-1.59a.833.833,0,0,1,.876.474.823.823,0,0,1,.077.349.833.833,0,0,1-.282.625l-2.384,2.105c4.766,1.553,8.235,4.1,10.314,7.57a15.291,15.291,0,0,1,1.5,3.373l.015.042a12.811,12.811,0,0,0,3.614,5.282l.292.24-.292.239a12.811,12.811,0,0,0-3.614,5.282l-.015.042a15.323,15.323,0,0,1-1.5,3.373c-2.045,3.416-5.436,5.933-10.082,7.492l2.152,1.9a.832.832,0,0,1-.671,1.448l-10.911-1.59A.836.836,0,0,1,1547.752,323.193Zm-4.586-17.652a3.055,3.055,0,1,0-3.055,3.056A3.054,3.054,0,0,0,1543.166,305.542Z" transform="translate(-1480.169 31.262)" fill="#f4c8dd"/></svg>