<svg xmlns="http://www.w3.org/2000/svg" viewBox="0 0 71.05 437.31"><defs><style>.a{fill:#f4c8dd;}</style></defs><path class="a" d="M55.27,213.13a2.94,2.94,0,0,1-1.62-.35,2.87,2.87,0,0,1-1.36-2.4,3.7,3.7,0,0,1-.1-.58,3.26,3.26,0,0,1,2.11-3.08,4.65,4.65,0,0,1,3.44.1,2.11,2.11,0,0,1,1.09,1.07,3.15,3.15,0,0,1,.51,1.08c.94,3.43-2.47,5.81-5.17,6.75-7.51,2.61-15.5-5.17-15-12.61a.69.69,0,0,1,.71-.67.68.68,0,0,1,.67.67A12.49,12.49,0,0,0,46,212.55a10.52,10.52,0,0,0,4.54,1.36,9.34,9.34,0,0,0,3.07-.27A5.39,5.39,0,0,0,55.27,213.13Z"/><path class="a" d="M55.27,224.19a2.94,2.94,0,0,0-1.62.35,2.84,2.84,0,0,0-1.36,2.4,3.78,3.78,0,0,0-.1.57,3.26,3.26,0,0,0,2.11,3.08,4.6,4.6,0,0,0,3.44-.1,2.09,2.09,0,0,0,1.09-1.06,3.4,3.4,0,0,0,.51-1.09c.94-3.42-2.47-5.81-5.17-6.75-7.51-2.6-15.5,5.18-15,12.62a.69.69,0,0,0,1.38,0A12.52,12.52,0,0,1,46,224.76a10.5,10.5,0,0,1,4.54-1.35,9.07,9.07,0,0,1,3.07.26A5.41,5.41,0,0,1,55.27,224.19Z"/><path class="a" d="M54.25,219.55a1,1,0,0,1,0-1.78c2.67-.76,4.56-2.9,7.43-2.72a17.16,17.16,0,0,1,3.42,1.37c1.75.73,3.65,1,5.45,1.56a.71.71,0,0,1,.47.89.69.69,0,0,1-.47.47c-1.8.55-3.7.83-5.45,1.56a16.58,16.58,0,0,1-3.42,1.38C58.81,222.45,56.92,220.3,54.25,219.55Z"/><path class="a" d="M13.78,197.45a15.35,15.35,0,0,0,5,4.52,21.63,21.63,0,0,0,5.83,1.46,15.22,15.22,0,0,0,1.79-.08,12.65,12.65,0,0,0,9.92-7.9c1.58-3.89,1.69-8.85-1.45-12.07a9.64,9.64,0,0,0-11.73-1.77,9.93,9.93,0,0,0-5.1,9.55c.56,4.56,5.69,6.31,9.45,4.31,1.94-1,3.76-3.2,2.95-5.61-.65-2-2.5-3.59-4.63-2.58-1.54.73-3.07,3.16-1,4.38a2.77,2.77,0,0,0,2.52.08,1.59,1.59,0,0,1-1.07,1.59l-1,.44a4.87,4.87,0,0,1-2.57,0C20.69,193,20,191,20.24,189c.75-7,12.08-8.14,14.14-1.48a10.44,10.44,0,0,1-1,8.55c-1.95,3.13-5.23,5.43-9,5.19-4.08-.25-6.77-2.36-9.28-5.25a25.39,25.39,0,0,1-3-12.09,20,20,0,0,1,1.81-5.43,21.81,21.81,0,0,1,6.39-7.28c.95-.69,2.24-1.42,1.46-2.69-.52-.86-1.72-1.29-2.45-1.94a16.27,16.27,0,0,1-3.17-3.75,16.62,16.62,0,0,1-2.16-9.51c.08-1.17.22-2.35.33-3.52,1.75,7,6.49,13.44,13.45,10.91,2.92-1.07,5.62-5.72,3-8.31-2.25-2.24-5.28.23-5.44,2.73s3.89,2.18,3.41-.47c1.12,6.17-6.33,4.58-8.88,1.83a14.07,14.07,0,0,1-3.45-6.13c-1.49-5.95-1.1-12.23,0-18.21,1.3-7.21,4.74-14.63,11.13-18.54a.89.89,0,0,0,.32-.44.84.84,0,0,0-.55-1.06c-4-5.84-5.08-13.33-4.61-21.34.05-.21.09-.41.14-.62.33-1.26.5-2.58.76-3.85s.55-2.71.83-4.06c.54-2.72,1.14-5.44,1.74-8.14,1.56-7,3.3-14,5.12-20.94.45-1.51.87-3,1.24-4.35,4.78-17.62,8.34-34,22.08-46.73,1-.95-.28-2.51-1.44-1.89C45.89,4,42.45,10,39.78,17.78c-1.49,4.34-2.91,8.75-4.27,13.17-3.21,8.78-5.29,18.1-7.59,27.12-.37,1.44-.72,2.88-1.07,4.32-4.23,15.46-11.07,37.43-1.26,50.31a16.84,16.84,0,0,0-5.2,4.18c-5.4,6.5-6.5,16.19-7.2,24.35-.41,4.76-1.22,9.49-1.64,14.26q-.65,7.55-1.18,15.1c-.29,4.06-.55,8.1-.54,12.16a21.52,21.52,0,0,0,.23,4.32C10.8,190.72,11.62,194.33,13.78,197.45Z"/><path class="a" d="M32.47,388.56c-.37-1.37-.79-2.84-1.24-4.35-1.82-6.95-3.56-13.92-5.12-20.93-.6-2.72-1.2-5.42-1.74-8.15-.28-1.35-.56-2.71-.83-4.06s-.43-2.59-.76-3.84c-.05-.21-.09-.42-.14-.63-.47-8,.59-15.5,4.61-21.34a.83.83,0,0,0,.44-.32.86.86,0,0,0-.21-1.18c-6.39-3.92-9.83-11.33-11.13-18.54-1.08-6-1.47-12.27,0-18.21a14,14,0,0,1,3.45-6.13c2.55-2.75,10-4.34,8.88,1.83.48-2.65-3.56-2.91-3.41-.47s3.19,5,5.44,2.73c2.6-2.59-.1-7.25-3-8.31-7-2.54-11.7,3.92-13.45,10.91-.11-1.17-.25-2.35-.33-3.52a16.67,16.67,0,0,1,2.16-9.52,16.48,16.48,0,0,1,3.17-3.75c.73-.65,1.93-1.07,2.45-1.93.78-1.28-.51-2-1.46-2.7a21.77,21.77,0,0,1-6.39-7.27,20.13,20.13,0,0,1-1.81-5.44,25.42,25.42,0,0,1,3-12.09c2.51-2.88,5.2-5,9.28-5.24,3.81-.24,7.09,2.06,9,5.18a10.44,10.44,0,0,1,1,8.55c-2.06,6.66-13.39,5.51-14.14-1.47-.22-2,.45-4.05,2.44-4.79a4.87,4.87,0,0,1,2.57,0l1,.44a1.56,1.56,0,0,1,1.07,1.58,2.83,2.83,0,0,0-2.52.08c-2.07,1.23-.54,3.66,1,4.39,2.13,1,4-.63,4.63-2.58.81-2.42-1-4.59-2.95-5.61-3.76-2-8.89-.26-9.45,4.3a9.92,9.92,0,0,0,5.1,9.55,9.64,9.64,0,0,0,11.73-1.77c3.14-3.21,3-8.17,1.45-12.07a12.65,12.65,0,0,0-9.92-7.9,15.22,15.22,0,0,0-1.79-.07,16.79,16.79,0,0,0-5.83,1.45,15.38,15.38,0,0,0-5,4.53c-2.16,3.12-3,6.72-3.72,10.37a21.56,21.56,0,0,0-.23,4.32c0,4.06.26,8.1.55,12.17q.53,7.54,1.18,15.1c.41,4.77,1.23,9.5,1.64,14.26.7,8.15,1.79,17.84,7.2,24.35a17,17,0,0,0,5.2,4.18c-9.81,12.88-3,34.85,1.25,50.31.36,1.43.71,2.88,1.08,4.31,2.3,9,4.38,18.34,7.58,27.13,1.37,4.41,2.78,8.82,4.28,13.17,2.66,7.73,6.1,13.77,13.32,17.63,1.16.62,2.47-.93,1.44-1.88C40.81,422.56,37.25,406.18,32.47,388.56Z"/><path class="a" d="M36.13,433.14c-3.14-5.71-4.89-12-7.05-18.14-2.25-6.36-4.16-12.83-5.91-19.34-1.88-7-3.59-14-5.24-21.08s-3.2-13.9-4.66-20.89-2.8-14-4-21C8,325.38,7,318,6,310.69q-1.47-11.28-2.61-22.62C2.6,280.54,1.94,273,1.44,265.44c-1.07-16-1.46-32-1.44-48q0-11.19.35-22.39.33-11.51,1.09-23c.5-7.56,1.17-15.1,1.93-22.64S5,134.36,6,126.83q1.44-11,3.28-22,1.79-10.53,4-21c1.46-7,3-13.94,4.66-20.88s3.36-14.09,5.24-21.08c1.75-6.51,3.66-13,5.91-19.34C31.24,16.42,33,10.1,36.13,4.39c.18-.33.52-1.33,1-1.27s.49,1.08.45,1.46c-.45,4.2-2.88,7.8-4.13,11.77q-1.49,4.71-3,9.42-2.94,9.48-5.7,19T19.61,64.12Q17.11,74,15,83.91,12.85,94,11.13,104.24q-1.76,10.42-3.08,20.9Q6.7,135.85,5.74,146.6q-1,11-1.64,21.94C3.64,176,3.28,183.4,3,190.84c-.61,14.36-1,28.75-.51,43.13q.24,6.36.51,12.72c.32,7.44.68,14.87,1.14,22.3s1,14.63,1.64,21.94q1,10.74,2.31,21.45,1.33,10.49,3.08,20.91,1.71,10.2,3.86,20.33,2.11,9.94,4.62,19.79t5.23,19.34q2.75,9.53,5.7,19,1.46,4.71,3,9.42c1.25,4,3.68,7.57,4.13,11.77,0,.38.11,1.38-.45,1.45S36.31,433.47,36.13,433.14Z"/><path class="a" d="M27.14,230.33a.68.68,0,0,0,0-.19.53.53,0,0,0-.13-.36l-4.76-5.44a.52.52,0,0,0-.62-.14.53.53,0,0,0-.33.49v.06l.25,2.51c-2.89-.93-4.78-2.4-5.77-4.51a1.81,1.81,0,0,1-.17-.79,1.79,1.79,0,0,1,.29-1,1.85,1.85,0,0,1,1.57-.87l5.72-.24v1.47a.94.94,0,0,1-.32.7,5.09,5.09,0,0,1-.4.32,12,12,0,0,1,1.95,1.95,12,12,0,0,1,1.95-1.95h0L26,222a.94.94,0,0,1-.32-.7v-1.58l2.24-.1a4.24,4.24,0,1,0,0-1.63l-2.25-.09v-1.53a1,1,0,0,1,.32-.7l.39-.32a12,12,0,0,1-1.95-2,12,12,0,0,1-1.95,2,5.09,5.09,0,0,1,.4.32,1,1,0,0,1,.32.7v1.44l-5.72-.21a1.85,1.85,0,0,1-1.57-.87,1.79,1.79,0,0,1-.29-1,1.81,1.81,0,0,1,.17-.79c1-2.1,2.87-3.58,5.75-4.5l-.23,2.32v.05a.54.54,0,0,0,1,.36L27,207.75a.53.53,0,0,0,.13-.36.63.63,0,0,0,0-.19.55.55,0,0,0-.43-.35l-7.09-1a.54.54,0,0,0-.57.31.59.59,0,0,0-.05.23.52.52,0,0,0,.18.4l1.55,1.37a11.62,11.62,0,0,0-6.7,4.92,9.8,9.8,0,0,0-1,2.19v0a8.3,8.3,0,0,1-2.35,3.43l-.19.16.19.15a8.37,8.37,0,0,1,2.35,3.43v0a9.8,9.8,0,0,0,1,2.19,11.55,11.55,0,0,0,6.55,4.87l-1.4,1.24a.52.52,0,0,0-.18.4.59.59,0,0,0,.05.23.54.54,0,0,0,.57.31l7.09-1A.54.54,0,0,0,27.14,230.33Zm3-11.47a2,2,0,1,1,2,2A2,2,0,0,1,30.12,218.86Z"/></svg>